<?xml version="1.0" encoding="UTF-8" standalone="no"?>
<!DOCTYPE svg PUBLIC "-//W3C//DTD SVG 1.1//EN"
 "http://www.w3.org/Graphics/SVG/1.1/DTD/svg11.dtd">
<!-- Generated by graphviz version 2.40.1 (20161225.0304)
 -->
<!-- Title: ViennaRNA/alifold.h Pages: 1 -->
<svg width="1268pt" height="464pt"
 viewBox="0.00 0.00 1267.50 464.00" xmlns="http://www.w3.org/2000/svg" xmlns:xlink="http://www.w3.org/1999/xlink">
<g id="graph0" class="graph" transform="scale(1 1) rotate(0) translate(4 460)">
<title>ViennaRNA/alifold.h</title>
<!-- Node0 -->
<g id="node1" class="node">
<title>Node0</title>
<polygon fill="#bfbfbf" stroke="#000000" points="1009.5,-436.5 1009.5,-455.5 1113.5,-455.5 1113.5,-436.5 1009.5,-436.5"/>
<text text-anchor="middle" x="1061.5" y="-443.5" font-family="Helvetica,sans-Serif" font-size="10.00" fill="#000000">ViennaRNA/alifold.h</text>
</g>
<!-- Node1 -->
<g id="node2" class="node">
<title>Node1</title>
<g id="a_node2"><a xlink:href="data__structures_8h.html" target="_top" xlink:title="Various data structures and pre&#45;processor macros. ">
<polygon fill="none" stroke="#000000" points="590.5,-257.5 590.5,-276.5 736.5,-276.5 736.5,-257.5 590.5,-257.5"/>
<text text-anchor="middle" x="663.5" y="-264.5" font-family="Helvetica,sans-Serif" font-size="10.00" fill="#000000">ViennaRNA/data_structures.h</text>
</a>
</g>
</g>
<!-- Node0&#45;&gt;Node1 -->
<g id="edge1" class="edge">
<title>Node0&#45;&gt;Node1</title>
<path fill="none" stroke="#191970" d="M1063.6062,-436.2505C1068.2967,-411.6148 1076.6658,-346.4519 1042.5,-313 1021.7601,-292.6935 851.9576,-278.6394 746.7937,-271.7887"/>
<polygon fill="#191970" stroke="#191970" points="746.7146,-268.2765 736.5109,-271.1283 746.266,-275.2621 746.7146,-268.2765"/>
</g>
<!-- Node6 -->
<g id="node7" class="node">
<title>Node6</title>
<g id="a_node7"><a xlink:href="params_8h.html" target="_top" xlink:title="Functions to deal with sets of energy parameters. ">
<polygon fill="none" stroke="#000000" points="1129.5,-129 1129.5,-148 1239.5,-148 1239.5,-129 1129.5,-129"/>
<text text-anchor="middle" x="1184.5" y="-136" font-family="Helvetica,sans-Serif" font-size="10.00" fill="#000000">ViennaRNA/params.h</text>
</a>
</g>
</g>
<!-- Node0&#45;&gt;Node6 -->
<g id="edge39" class="edge">
<title>Node0&#45;&gt;Node6</title>
<path fill="none" stroke="#191970" d="M1073.375,-436.3867C1094.75,-417.9165 1137.5,-375.1455 1137.5,-328.5 1137.5,-328.5 1137.5,-328.5 1137.5,-267 1137.5,-225.6617 1159.2187,-181.1454 1173.1282,-156.8742"/>
<polygon fill="#191970" stroke="#191970" points="1176.2669,-158.4432 1178.3556,-148.0563 1170.2454,-154.8736 1176.2669,-158.4432"/>
</g>
<!-- Node19 -->
<g id="node20" class="node">
<title>Node19</title>
<g id="a_node20"><a xlink:href="ribo_8h.html" target="_top" xlink:title="Parse RiboSum Scoring Matrices for Covariance Scoring of Alignments. ">
<polygon fill="none" stroke="#000000" points="1165.5,-380.5 1165.5,-399.5 1259.5,-399.5 1259.5,-380.5 1165.5,-380.5"/>
<text text-anchor="middle" x="1212.5" y="-387.5" font-family="Helvetica,sans-Serif" font-size="10.00" fill="#000000">ViennaRNA/ribo.h</text>
</a>
</g>
</g>
<!-- Node0&#45;&gt;Node19 -->
<g id="edge40" class="edge">
<title>Node0&#45;&gt;Node19</title>
<path fill="none" stroke="#191970" d="M1087.4578,-436.3733C1112.2407,-427.1822 1149.7746,-413.2624 1177.254,-403.0713"/>
<polygon fill="#191970" stroke="#191970" points="1178.7219,-406.26 1186.8809,-399.5011 1176.2879,-399.6968 1178.7219,-406.26"/>
</g>
<!-- Node20 -->
<g id="node21" class="node">
<title>Node20</title>
<g id="a_node21"><a xlink:href="mfe_8h.html" target="_top" xlink:title="MFE calculations for single RNA sequences. ">
<polygon fill="none" stroke="#000000" points="463,-319 463,-338 558,-338 558,-319 463,-319"/>
<text text-anchor="middle" x="510.5" y="-326" font-family="Helvetica,sans-Serif" font-size="10.00" fill="#000000">ViennaRNA/mfe.h</text>
</a>
</g>
</g>
<!-- Node0&#45;&gt;Node20 -->
<g id="edge41" class="edge">
<title>Node0&#45;&gt;Node20</title>
<path fill="none" stroke="#191970" d="M1009.0283,-437.209C957.762,-428.4434 877.5797,-414.2643 808.5,-400 700.3832,-377.675 673.5007,-371.1752 566.5,-344 562.4302,-342.9664 558.2033,-341.8591 553.9781,-340.7294"/>
<polygon fill="#191970" stroke="#191970" points="554.7643,-337.3163 544.1968,-338.0771 552.9322,-344.0723 554.7643,-337.3163"/>
</g>
<!-- Node21 -->
<g id="node22" class="node">
<title>Node21</title>
<g id="a_node22"><a xlink:href="part__func_8h.html" target="_top" xlink:title="Partition function implementations. ">
<polygon fill="none" stroke="#000000" points="818,-380.5 818,-399.5 937,-399.5 937,-380.5 818,-380.5"/>
<text text-anchor="middle" x="877.5" y="-387.5" font-family="Helvetica,sans-Serif" font-size="10.00" fill="#000000">ViennaRNA/part_func.h</text>
</a>
</g>
</g>
<!-- Node0&#45;&gt;Node21 -->
<g id="edge44" class="edge">
<title>Node0&#45;&gt;Node21</title>
<path fill="none" stroke="#191970" d="M1029.8693,-436.3733C999.1404,-427.021 952.324,-412.7725 918.6978,-402.5385"/>
<polygon fill="#191970" stroke="#191970" points="919.3038,-399.0644 908.718,-399.5011 917.2656,-405.7612 919.3038,-399.0644"/>
</g>
<!-- Node24 -->
<g id="node25" class="node">
<title>Node24</title>
<g id="a_node25"><a xlink:href="boltzmann__sampling_8h.html" target="_top" xlink:title="Boltzmann Sampling of secondary structures from the ensemble. ">
<polygon fill="none" stroke="#000000" points="918,-313.5 918,-343.5 1033,-343.5 1033,-313.5 918,-313.5"/>
<text text-anchor="start" x="926" y="-331.5" font-family="Helvetica,sans-Serif" font-size="10.00" fill="#000000">ViennaRNA/boltzmann</text>
<text text-anchor="middle" x="975.5" y="-320.5" font-family="Helvetica,sans-Serif" font-size="10.00" fill="#000000">_sampling.h</text>
</a>
</g>
</g>
<!-- Node0&#45;&gt;Node24 -->
<g id="edge56" class="edge">
<title>Node0&#45;&gt;Node24</title>
<path fill="none" stroke="#191970" d="M1054.4623,-436.3845C1041.0548,-418.0661 1011.5047,-377.6925 992.6,-351.8633"/>
<polygon fill="#191970" stroke="#191970" points="995.3661,-349.7167 986.6356,-343.7143 989.7175,-353.851 995.3661,-349.7167"/>
</g>
<!-- Node25 -->
<g id="node26" class="node">
<title>Node25</title>
<g id="a_node26"><a xlink:href="aln__util_8h.html" target="_top" xlink:title="Various utility&#45; and helper&#45;functions for sequence alignments and comparative structure prediction...">
<polygon fill="none" stroke="#000000" points="979,-257.5 979,-276.5 1088,-276.5 1088,-257.5 979,-257.5"/>
<text text-anchor="middle" x="1033.5" y="-264.5" font-family="Helvetica,sans-Serif" font-size="10.00" fill="#000000">ViennaRNA/aln_util.h</text>
</a>
</g>
</g>
<!-- Node0&#45;&gt;Node25 -->
<g id="edge54" class="edge">
<title>Node0&#45;&gt;Node25</title>
<path fill="none" stroke="#191970" d="M1065.4977,-436.2458C1074.1205,-413.6862 1092.3753,-356.5099 1075.5,-313 1071.1142,-301.692 1062.5098,-291.463 1054.2251,-283.5381"/>
<polygon fill="#191970" stroke="#191970" points="1056.3244,-280.721 1046.528,-276.6859 1051.6699,-285.9494 1056.3244,-280.721"/>
</g>
<!-- Node2 -->
<g id="node3" class="node">
<title>Node2</title>
<g id="a_node3"><a xlink:href="energy__const_8h.html" target="_top" xlink:title="Energy parameter constants. ">
<polygon fill="none" stroke="#000000" points="911,-62 911,-81 1048,-81 1048,-62 911,-62"/>
<text text-anchor="middle" x="979.5" y="-69" font-family="Helvetica,sans-Serif" font-size="10.00" fill="#000000">ViennaRNA/energy_const.h</text>
</a>
</g>
</g>
<!-- Node1&#45;&gt;Node2 -->
<g id="edge2" class="edge">
<title>Node1&#45;&gt;Node2</title>
<path fill="none" stroke="#191970" d="M683.0271,-257.4042C699.7254,-248.8236 724.0668,-235.4085 743.5,-221 759.6647,-209.015 759.0884,-200.0883 776.5,-190 823.9427,-162.5116 847.2832,-181.8745 894.5,-154 898.4776,-151.6518 938.7484,-111.9548 962.404,-88.4964"/>
<polygon fill="#191970" stroke="#191970" points="965.0817,-90.77 969.7129,-81.2409 960.1501,-85.8021 965.0817,-90.77"/>
</g>
<!-- Node4 -->
<g id="node5" class="node">
<title>Node4</title>
<g id="a_node5"><a xlink:href="fold__compound_8h.html" target="_top" xlink:title="The Basic Fold Compound API. ">
<polygon fill="none" stroke="#000000" points="785.5,-196 785.5,-215 929.5,-215 929.5,-196 785.5,-196"/>
<text text-anchor="middle" x="857.5" y="-203" font-family="Helvetica,sans-Serif" font-size="10.00" fill="#000000">ViennaRNA/fold_compound.h</text>
</a>
</g>
</g>
<!-- Node1&#45;&gt;Node4 -->
<g id="edge4" class="edge">
<title>Node1&#45;&gt;Node4</title>
<path fill="none" stroke="#191970" d="M693.8125,-257.3906C727.1265,-246.8298 780.7808,-229.8208 817.5181,-218.1747"/>
<polygon fill="#191970" stroke="#191970" points="818.9256,-221.4002 827.4004,-215.0419 816.8102,-214.7275 818.9256,-221.4002"/>
</g>
<!-- Node5 -->
<g id="node6" class="node">
<title>Node5</title>
<g id="a_node6"><a xlink:href="model_8h.html" target="_top" xlink:title="The model details data structure and its corresponding modifiers. ">
<polygon fill="none" stroke="#000000" points="1132.5,-62 1132.5,-81 1236.5,-81 1236.5,-62 1132.5,-62"/>
<text text-anchor="middle" x="1184.5" y="-69" font-family="Helvetica,sans-Serif" font-size="10.00" fill="#000000">ViennaRNA/model.h</text>
</a>
</g>
</g>
<!-- Node1&#45;&gt;Node5 -->
<g id="edge29" class="edge">
<title>Node1&#45;&gt;Node5</title>
<path fill="none" stroke="#191970" d="M736.6792,-264.7405C880.0654,-258.5311 1189.2141,-235.7483 1248.5,-154 1265.8454,-130.0827 1235.1633,-103.1797 1210.5772,-86.7872"/>
<polygon fill="#191970" stroke="#191970" points="1212.2082,-83.6761 1201.8952,-81.2484 1208.4433,-89.5775 1212.2082,-83.6761"/>
</g>
<!-- Node1&#45;&gt;Node6 -->
<g id="edge30" class="edge">
<title>Node1&#45;&gt;Node6</title>
<path fill="none" stroke="#191970" d="M736.55,-261.8544C800.9587,-256.127 896.7054,-244.3954 977.5,-221 1009.7929,-211.6491 1015.5481,-203.1244 1046.5,-190 1078.6727,-176.358 1115.7576,-161.6582 1143.5166,-151.4696"/>
<polygon fill="#191970" stroke="#191970" points="1144.7124,-154.759 1152.923,-148.063 1142.3288,-148.1774 1144.7124,-154.759"/>
</g>
<!-- Node7 -->
<g id="node8" class="node">
<title>Node7</title>
<g id="a_node8"><a xlink:href="dp__matrices_8h.html" target="_top" xlink:title="Functions to deal with standard dynamic programming (DP) matrices. ">
<polygon fill="none" stroke="#000000" points="980,-129 980,-148 1111,-148 1111,-129 980,-129"/>
<text text-anchor="middle" x="1045.5" y="-136" font-family="Helvetica,sans-Serif" font-size="10.00" fill="#000000">ViennaRNA/dp_matrices.h</text>
</a>
</g>
</g>
<!-- Node1&#45;&gt;Node7 -->
<g id="edge31" class="edge">
<title>Node1&#45;&gt;Node7</title>
<path fill="none" stroke="#191970" d="M736.6932,-257.9668C803.0591,-249.4765 895.3908,-235.8769 929.5,-221 966.1052,-205.0345 1001.3463,-173.8165 1023.4951,-154.6942"/>
<polygon fill="#191970" stroke="#191970" points="1025.986,-157.1697 1031.3184,-148.0147 1021.4407,-151.8461 1025.986,-157.1697"/>
</g>
<!-- Node8 -->
<g id="node9" class="node">
<title>Node8</title>
<g id="a_node9"><a xlink:href="constraints_8h.html" target="_top" xlink:title="Functions and data structures for constraining secondary structure predictions and evaluation...">
<polygon fill="none" stroke="#000000" points="275.5,-129 275.5,-148 401.5,-148 401.5,-129 275.5,-129"/>
<text text-anchor="middle" x="338.5" y="-136" font-family="Helvetica,sans-Serif" font-size="10.00" fill="#000000">ViennaRNA/constraints.h</text>
</a>
</g>
</g>
<!-- Node1&#45;&gt;Node8 -->
<g id="edge32" class="edge">
<title>Node1&#45;&gt;Node8</title>
<path fill="none" stroke="#191970" d="M590.2743,-259.4398C525.577,-251.4738 437.072,-237.7664 406.5,-221 378.5597,-205.6768 355.0408,-176.5224 343.9117,-157.2974"/>
<polygon fill="#191970" stroke="#191970" points="346.9547,-155.5616 339.2635,-148.2749 340.7319,-158.7675 346.9547,-155.5616"/>
</g>
<!-- Node14 -->
<g id="node15" class="node">
<title>Node14</title>
<g id="a_node15"><a xlink:href="grammar_8h.html" target="_top" xlink:title="Implementations for the RNA folding grammar. ">
<polygon fill="none" stroke="#000000" points="457.5,-129 457.5,-148 573.5,-148 573.5,-129 457.5,-129"/>
<text text-anchor="middle" x="515.5" y="-136" font-family="Helvetica,sans-Serif" font-size="10.00" fill="#000000">ViennaRNA/grammar.h</text>
</a>
</g>
</g>
<!-- Node1&#45;&gt;Node14 -->
<g id="edge33" class="edge">
<title>Node1&#45;&gt;Node14</title>
<path fill="none" stroke="#191970" d="M636.7634,-257.3569C618.9538,-248.9404 596.0946,-235.7827 578.5,-221 555.4121,-201.6019 533.2923,-174.568 521.9465,-156.8087"/>
<polygon fill="#191970" stroke="#191970" points="524.8738,-154.8807 516.8139,-148.004 518.8263,-158.406 524.8738,-154.8807"/>
</g>
<!-- Node15 -->
<g id="node16" class="node">
<title>Node15</title>
<g id="a_node16"><a xlink:href="structured__domains_8h.html" target="_top" xlink:title="This module provides interfaces that deal with additional structured domains in the folding grammar...">
<polygon fill="none" stroke="#000000" points="630,-123.5 630,-153.5 743,-153.5 743,-123.5 630,-123.5"/>
<text text-anchor="start" x="638" y="-141.5" font-family="Helvetica,sans-Serif" font-size="10.00" fill="#000000">ViennaRNA/structured</text>
<text text-anchor="middle" x="686.5" y="-130.5" font-family="Helvetica,sans-Serif" font-size="10.00" fill="#000000">_domains.h</text>
</a>
</g>
</g>
<!-- Node1&#45;&gt;Node15 -->
<g id="edge34" class="edge">
<title>Node1&#45;&gt;Node15</title>
<path fill="none" stroke="#191970" d="M665.2287,-257.3416C668.7489,-237.6745 676.8486,-192.4221 681.9755,-163.7784"/>
<polygon fill="#191970" stroke="#191970" points="685.4624,-164.1619 683.7791,-153.7016 678.5719,-162.9285 685.4624,-164.1619"/>
</g>
<!-- Node16 -->
<g id="node17" class="node">
<title>Node16</title>
<g id="a_node17"><a xlink:href="unstructured__domains_8h.html" target="_top" xlink:title="Functions to modify unstructured domains, e.g. to incorporate ligands binding to unpaired stretches...">
<polygon fill="none" stroke="#000000" points="761.5,-123.5 761.5,-153.5 885.5,-153.5 885.5,-123.5 761.5,-123.5"/>
<text text-anchor="start" x="769.5" y="-141.5" font-family="Helvetica,sans-Serif" font-size="10.00" fill="#000000">ViennaRNA/unstructured</text>
<text text-anchor="middle" x="823.5" y="-130.5" font-family="Helvetica,sans-Serif" font-size="10.00" fill="#000000">_domains.h</text>
</a>
</g>
</g>
<!-- Node1&#45;&gt;Node16 -->
<g id="edge35" class="edge">
<title>Node1&#45;&gt;Node16</title>
<path fill="none" stroke="#191970" d="M666.6645,-257.3748C677.5225,-242.1545 706.6788,-212.0021 734.5,-190 748.7962,-178.694 765.6311,-167.5664 780.881,-158.564"/>
<polygon fill="#191970" stroke="#191970" points="782.7215,-161.5431 789.6455,-153.5238 779.2319,-155.4749 782.7215,-161.5431"/>
</g>
<!-- Node17 -->
<g id="node18" class="node">
<title>Node17</title>
<g id="a_node18"><a xlink:href="structure__utils_8h.html" target="_top" xlink:title="Various utility&#45; and helper&#45;functions for secondary structure parsing, converting, etc. ">
<polygon fill="none" stroke="#000000" points="35.5,-190.5 35.5,-220.5 143.5,-220.5 143.5,-190.5 35.5,-190.5"/>
<text text-anchor="start" x="43.5" y="-208.5" font-family="Helvetica,sans-Serif" font-size="10.00" fill="#000000">ViennaRNA/structure</text>
<text text-anchor="middle" x="89.5" y="-197.5" font-family="Helvetica,sans-Serif" font-size="10.00" fill="#000000">_utils.h</text>
</a>
</g>
</g>
<!-- Node1&#45;&gt;Node17 -->
<g id="edge36" class="edge">
<title>Node1&#45;&gt;Node17</title>
<path fill="none" stroke="#191970" d="M590.1065,-263.7355C491.7558,-258.4871 312.006,-246.2629 153.7047,-221.7718"/>
<polygon fill="#191970" stroke="#191970" points="154.2122,-218.3087 143.7907,-220.2173 153.1278,-225.2242 154.2122,-218.3087"/>
</g>
<!-- Node3 -->
<g id="node4" class="node">
<title>Node3</title>
<polygon fill="none" stroke="#bfbfbf" points="955.5,-.5 955.5,-19.5 1003.5,-19.5 1003.5,-.5 955.5,-.5"/>
<text text-anchor="middle" x="979.5" y="-7.5" font-family="Helvetica,sans-Serif" font-size="10.00" fill="#000000">limits.h</text>
</g>
<!-- Node2&#45;&gt;Node3 -->
<g id="edge3" class="edge">
<title>Node2&#45;&gt;Node3</title>
<path fill="none" stroke="#191970" d="M979.5,-61.8906C979.5,-53.3657 979.5,-40.6392 979.5,-29.9235"/>
<polygon fill="#191970" stroke="#191970" points="983.0001,-29.7448 979.5,-19.7449 976.0001,-29.7449 983.0001,-29.7448"/>
</g>
<!-- Node4&#45;&gt;Node5 -->
<g id="edge5" class="edge">
<title>Node4&#45;&gt;Node5</title>
<path fill="none" stroke="#191970" d="M870.6823,-195.7509C899.4931,-174.4724 965.953,-125.5563 971.5,-123 1019.7431,-100.7673 1078.7227,-87.4667 1122.3765,-79.9685"/>
<polygon fill="#191970" stroke="#191970" points="1122.9961,-83.4136 1132.2864,-78.3204 1121.8477,-76.5084 1122.9961,-83.4136"/>
</g>
<!-- Node4&#45;&gt;Node6 -->
<g id="edge6" class="edge">
<title>Node4&#45;&gt;Node6</title>
<path fill="none" stroke="#191970" d="M910.0356,-195.9205C963.2247,-186.0557 1047.7787,-169.918 1120.5,-154 1125.6041,-152.8828 1130.9255,-151.6704 1136.2241,-150.4326"/>
<polygon fill="#191970" stroke="#191970" points="1137.399,-153.7511 1146.3221,-148.0389 1135.7844,-146.9399 1137.399,-153.7511"/>
</g>
<!-- Node4&#45;&gt;Node7 -->
<g id="edge10" class="edge">
<title>Node4&#45;&gt;Node7</title>
<path fill="none" stroke="#191970" d="M884.4358,-195.9005C917.1033,-184.2584 972.3188,-164.5805 1008.8425,-151.5641"/>
<polygon fill="#191970" stroke="#191970" points="1010.3694,-154.7356 1018.6142,-148.0817 1008.0195,-148.1418 1010.3694,-154.7356"/>
</g>
<!-- Node4&#45;&gt;Node8 -->
<g id="edge12" class="edge">
<title>Node4&#45;&gt;Node8</title>
<path fill="none" stroke="#191970" d="M785.4239,-196.7501C703.6848,-186.7513 566.4364,-169.7334 448.5,-154 436.6268,-152.4161 424.0401,-150.6883 411.7849,-148.9798"/>
<polygon fill="#191970" stroke="#191970" points="411.9801,-145.4731 401.5914,-147.5528 411.0095,-152.4055 411.9801,-145.4731"/>
</g>
<!-- Node4&#45;&gt;Node14 -->
<g id="edge24" class="edge">
<title>Node4&#45;&gt;Node14</title>
<path fill="none" stroke="#191970" d="M808.8629,-195.9717C747.031,-183.8584 640.3755,-162.9639 574.1187,-149.9838"/>
<polygon fill="#191970" stroke="#191970" points="574.7322,-146.5375 564.2458,-148.0496 573.3864,-153.4069 574.7322,-146.5375"/>
</g>
<!-- Node4&#45;&gt;Node15 -->
<g id="edge26" class="edge">
<title>Node4&#45;&gt;Node15</title>
<path fill="none" stroke="#191970" d="M832.9999,-195.9005C807.3902,-185.8663 766.5452,-169.8627 734.4814,-157.2997"/>
<polygon fill="#191970" stroke="#191970" points="735.4268,-153.9111 724.8391,-153.5218 732.8731,-160.4287 735.4268,-153.9111"/>
</g>
<!-- Node4&#45;&gt;Node16 -->
<g id="edge27" class="edge">
<title>Node4&#45;&gt;Node16</title>
<path fill="none" stroke="#191970" d="M852.6286,-195.9005C848.239,-187.2503 841.5981,-174.164 835.7653,-162.6699"/>
<polygon fill="#191970" stroke="#191970" points="838.7695,-160.8554 831.123,-153.5218 832.5272,-164.0231 838.7695,-160.8554"/>
</g>
<!-- Node6&#45;&gt;Node1 -->
<g id="edge8" class="edge">
<title>Node6&#45;&gt;Node1</title>
<path fill="none" stroke="#191970" d="M1166.3616,-148.063C1142.5708,-158.1772 1100.466,-174.7495 1064.5,-190 1033.5481,-203.1244 1027.7929,-211.6491 995.5,-221 913.0873,-244.864 815.1175,-256.5923 746.9894,-262.1913"/>
<polygon fill="#191970" stroke="#191970" points="746.4307,-258.7246 736.7395,-263.006 746.9853,-265.7026 746.4307,-258.7246"/>
</g>
<!-- Node6&#45;&gt;Node2 -->
<g id="edge7" class="edge">
<title>Node6&#45;&gt;Node2</title>
<path fill="none" stroke="#191970" d="M1155.1285,-128.9005C1119.2026,-117.1589 1058.2676,-97.2436 1018.4555,-84.2318"/>
<polygon fill="#191970" stroke="#191970" points="1019.4096,-80.8615 1008.817,-81.0817 1017.2349,-87.5151 1019.4096,-80.8615"/>
</g>
<!-- Node6&#45;&gt;Node5 -->
<g id="edge9" class="edge">
<title>Node6&#45;&gt;Node5</title>
<path fill="none" stroke="#191970" d="M1184.5,-128.9005C1184.5,-119.149 1184.5,-103.7597 1184.5,-91.3695"/>
<polygon fill="#191970" stroke="#191970" points="1188.0001,-91.0816 1184.5,-81.0817 1181.0001,-91.0817 1188.0001,-91.0816"/>
</g>
<!-- Node7&#45;&gt;Node1 -->
<g id="edge11" class="edge">
<title>Node7&#45;&gt;Node1</title>
<path fill="none" stroke="#191970" d="M1041.7247,-148.0147C1028.3283,-165.5912 988.7816,-202.9948 947.5,-221 912.7694,-236.1479 817.6759,-249.9715 746.9763,-258.4257"/>
<polygon fill="#191970" stroke="#191970" points="746.2536,-254.9866 736.7323,-259.6336 747.0734,-261.9384 746.2536,-254.9866"/>
</g>
<!-- Node8&#45;&gt;Node1 -->
<g id="edge13" class="edge">
<title>Node8&#45;&gt;Node1</title>
<path fill="none" stroke="#191970" d="M349.7878,-148.2749C364.9759,-165.9382 391.6894,-203.0058 424.5,-221 451.2577,-235.6746 522.3944,-248.0058 580.2005,-256.1953"/>
<polygon fill="#191970" stroke="#191970" points="580.0686,-259.7107 590.4561,-257.6252 581.0353,-252.7777 580.0686,-259.7107"/>
</g>
<!-- Node9 -->
<g id="node10" class="node">
<title>Node9</title>
<g id="a_node10"><a xlink:href="constraints__hard_8h.html" target="_top" xlink:title="Functions and data structures for handling of secondary structure hard constraints. ">
<polygon fill="none" stroke="#000000" points="275.5,-56.5 275.5,-86.5 393.5,-86.5 393.5,-56.5 275.5,-56.5"/>
<text text-anchor="start" x="283.5" y="-74.5" font-family="Helvetica,sans-Serif" font-size="10.00" fill="#000000">ViennaRNA/constraints</text>
<text text-anchor="middle" x="334.5" y="-63.5" font-family="Helvetica,sans-Serif" font-size="10.00" fill="#000000">_hard.h</text>
</a>
</g>
</g>
<!-- Node8&#45;&gt;Node9 -->
<g id="edge14" class="edge">
<title>Node8&#45;&gt;Node9</title>
<path fill="none" stroke="#191970" d="M337.9269,-128.9005C337.426,-120.5099 336.6758,-107.9451 336.005,-96.7085"/>
<polygon fill="#191970" stroke="#191970" points="339.4866,-96.2954 335.3968,-86.5218 332.4991,-96.7126 339.4866,-96.2954"/>
</g>
<!-- Node10 -->
<g id="node11" class="node">
<title>Node10</title>
<g id="a_node11"><a xlink:href="constraints__soft_8h.html" target="_top" xlink:title="Functions and data structures for secondary structure soft constraints. ">
<polygon fill="none" stroke="#000000" points="411.5,-56.5 411.5,-86.5 529.5,-86.5 529.5,-56.5 411.5,-56.5"/>
<text text-anchor="start" x="419.5" y="-74.5" font-family="Helvetica,sans-Serif" font-size="10.00" fill="#000000">ViennaRNA/constraints</text>
<text text-anchor="middle" x="470.5" y="-63.5" font-family="Helvetica,sans-Serif" font-size="10.00" fill="#000000">_soft.h</text>
</a>
</g>
</g>
<!-- Node8&#45;&gt;Node10 -->
<g id="edge16" class="edge">
<title>Node8&#45;&gt;Node10</title>
<path fill="none" stroke="#191970" d="M357.4124,-128.9005C376.7552,-119.0826 407.3572,-103.5498 431.8522,-91.1167"/>
<polygon fill="#191970" stroke="#191970" points="433.5719,-94.1689 440.9049,-86.5218 430.4036,-87.9269 433.5719,-94.1689"/>
</g>
<!-- Node11 -->
<g id="node12" class="node">
<title>Node11</title>
<g id="a_node12"><a xlink:href="constraints__SHAPE_8h.html" target="_top" xlink:title="This module provides function to incorporate SHAPE reactivity data into the folding recursions by mea...">
<polygon fill="none" stroke="#000000" points="547.5,-56.5 547.5,-86.5 665.5,-86.5 665.5,-56.5 547.5,-56.5"/>
<text text-anchor="start" x="555.5" y="-74.5" font-family="Helvetica,sans-Serif" font-size="10.00" fill="#000000">ViennaRNA/constraints</text>
<text text-anchor="middle" x="606.5" y="-63.5" font-family="Helvetica,sans-Serif" font-size="10.00" fill="#000000">_SHAPE.h</text>
</a>
</g>
</g>
<!-- Node8&#45;&gt;Node11 -->
<g id="edge18" class="edge">
<title>Node8&#45;&gt;Node11</title>
<path fill="none" stroke="#191970" d="M376.6133,-128.9717C418.341,-118.5397 486.1197,-101.5951 537.294,-88.8015"/>
<polygon fill="#191970" stroke="#191970" points="538.4423,-92.1222 547.2948,-86.3013 536.7445,-85.3312 538.4423,-92.1222"/>
</g>
<!-- Node12 -->
<g id="node13" class="node">
<title>Node12</title>
<g id="a_node13"><a xlink:href="perturbation__fold_8h.html" target="_top" xlink:title="Find a vector of perturbation energies that minimizes the discripancies between predicted and observe...">
<polygon fill="none" stroke="#000000" points="0,-56.5 0,-86.5 121,-86.5 121,-56.5 0,-56.5"/>
<text text-anchor="start" x="8" y="-74.5" font-family="Helvetica,sans-Serif" font-size="10.00" fill="#000000">ViennaRNA/perturbation</text>
<text text-anchor="middle" x="60.5" y="-63.5" font-family="Helvetica,sans-Serif" font-size="10.00" fill="#000000">_fold.h</text>
</a>
</g>
</g>
<!-- Node8&#45;&gt;Node12 -->
<g id="edge20" class="edge">
<title>Node8&#45;&gt;Node12</title>
<path fill="none" stroke="#191970" d="M298.9646,-128.9717C255.2878,-118.4453 184.0963,-101.2876 130.8502,-88.4549"/>
<polygon fill="#191970" stroke="#191970" points="131.6693,-85.0522 121.1276,-86.1117 130.0291,-91.8573 131.6693,-85.0522"/>
</g>
<!-- Node13 -->
<g id="node14" class="node">
<title>Node13</title>
<g id="a_node14"><a xlink:href="constraints__ligand_8h.html" target="_top" xlink:title="Functions for incorporation of ligands binding to hairpin and interior loop motifs using the soft con...">
<polygon fill="none" stroke="#000000" points="139.5,-56.5 139.5,-86.5 257.5,-86.5 257.5,-56.5 139.5,-56.5"/>
<text text-anchor="start" x="147.5" y="-74.5" font-family="Helvetica,sans-Serif" font-size="10.00" fill="#000000">ViennaRNA/constraints</text>
<text text-anchor="middle" x="198.5" y="-63.5" font-family="Helvetica,sans-Serif" font-size="10.00" fill="#000000">_ligand.h</text>
</a>
</g>
</g>
<!-- Node8&#45;&gt;Node13 -->
<g id="edge22" class="edge">
<title>Node8&#45;&gt;Node13</title>
<path fill="none" stroke="#191970" d="M318.4414,-128.9005C297.8359,-119.0393 265.1835,-103.4128 239.1472,-90.9526"/>
<polygon fill="#191970" stroke="#191970" points="240.4199,-87.6816 229.8888,-86.5218 237.3981,-93.9957 240.4199,-87.6816"/>
</g>
<!-- Node9&#45;&gt;Node1 -->
<g id="edge15" class="edge">
<title>Node9&#45;&gt;Node1</title>
<path fill="none" stroke="#191970" d="M303.3046,-86.6198C289.3335,-95.1874 274.2783,-107.3517 266.5,-123 260.3673,-135.3376 259.826,-141.9466 266.5,-154 293.6794,-203.0869 320.9555,-201.3195 373.5,-221 440.4013,-246.0578 520.9625,-257.466 580.1787,-262.6598"/>
<polygon fill="#191970" stroke="#191970" points="579.9781,-266.1552 590.2349,-263.5003 580.5611,-259.1795 579.9781,-266.1552"/>
</g>
<!-- Node10&#45;&gt;Node1 -->
<g id="edge17" class="edge">
<title>Node10&#45;&gt;Node1</title>
<path fill="none" stroke="#191970" d="M460.0404,-86.619C449.5563,-103.816 436.5544,-132.3177 448.5,-154 480.0415,-211.2505 552.2131,-240.6001 604.2469,-254.8468"/>
<polygon fill="#191970" stroke="#191970" points="603.4793,-258.2638 614.0402,-257.4166 605.256,-251.493 603.4793,-258.2638"/>
</g>
<!-- Node11&#45;&gt;Node1 -->
<g id="edge19" class="edge">
<title>Node11&#45;&gt;Node1</title>
<path fill="none" stroke="#191970" d="M608.162,-86.595C610.2067,-103.2849 614.2021,-130.8714 620.5,-154 629.7361,-187.9191 645.2909,-225.8203 654.9441,-247.9766"/>
<polygon fill="#191970" stroke="#191970" points="651.7944,-249.5083 659.0378,-257.2403 658.1971,-246.6788 651.7944,-249.5083"/>
</g>
<!-- Node12&#45;&gt;Node1 -->
<g id="edge21" class="edge">
<title>Node12&#45;&gt;Node1</title>
<path fill="none" stroke="#191970" d="M74.4677,-86.6532C104.374,-117.9799 178.2702,-189.5652 256.5,-221 313.4336,-243.8774 478.5607,-256.8146 580.1394,-262.8171"/>
<polygon fill="#191970" stroke="#191970" points="580.1872,-266.3257 590.3733,-263.4111 580.5929,-259.3375 580.1872,-266.3257"/>
</g>
<!-- Node13&#45;&gt;Node1 -->
<g id="edge23" class="edge">
<title>Node13&#45;&gt;Node1</title>
<path fill="none" stroke="#191970" d="M203.1548,-86.5001C213.6468,-117.5371 242.308,-188.6047 293.5,-221 339.6785,-250.2227 485.8996,-260.908 580.1063,-264.7966"/>
<polygon fill="#191970" stroke="#191970" points="580.0592,-268.2974 590.1897,-265.1951 580.3358,-261.3028 580.0592,-268.2974"/>
</g>
<!-- Node14&#45;&gt;Node1 -->
<g id="edge25" class="edge">
<title>Node14&#45;&gt;Node1</title>
<path fill="none" stroke="#191970" d="M527.6849,-148.004C543.1331,-164.2936 569.1365,-198.0096 596.5,-221 610.7956,-233.0109 628.5667,-243.9491 642.3773,-252.1431"/>
<polygon fill="#191970" stroke="#191970" points="640.8231,-255.2899 651.2144,-257.3569 644.3801,-249.261 640.8231,-255.2899"/>
</g>
<!-- Node16&#45;&gt;Node1 -->
<g id="edge28" class="edge">
<title>Node16&#45;&gt;Node1</title>
<path fill="none" stroke="#191970" d="M805.1779,-153.5238C790.3371,-163.2055 769.602,-176.4751 752.5,-190 728.3738,-209.0799 703.2436,-234.289 685.5544,-250.5744"/>
<polygon fill="#191970" stroke="#191970" points="683.0832,-248.0895 677.9809,-257.3748 687.76,-253.2979 683.0832,-248.0895"/>
</g>
<!-- Node17&#45;&gt;Node1 -->
<g id="edge38" class="edge">
<title>Node17&#45;&gt;Node1</title>
<path fill="none" stroke="#191970" d="M143.5647,-216.6857C151.274,-218.3075 159.0856,-219.8233 166.5,-221 311.2234,-243.9674 481.1907,-256.4971 580.2397,-262.4642"/>
<polygon fill="#191970" stroke="#191970" points="580.2948,-265.9735 590.4849,-263.0732 580.7102,-258.9859 580.2948,-265.9735"/>
</g>
<!-- Node18 -->
<g id="node19" class="node">
<title>Node18</title>
<polygon fill="none" stroke="#bfbfbf" points="25.5,-129 25.5,-148 71.5,-148 71.5,-129 25.5,-129"/>
<text text-anchor="middle" x="48.5" y="-136" font-family="Helvetica,sans-Serif" font-size="10.00" fill="#000000">stdio.h</text>
</g>
<!-- Node17&#45;&gt;Node18 -->
<g id="edge37" class="edge">
<title>Node17&#45;&gt;Node18</title>
<path fill="none" stroke="#191970" d="M80.1965,-190.2967C74.1186,-180.3645 66.1466,-167.3371 59.7181,-156.8321"/>
<polygon fill="#191970" stroke="#191970" points="62.5522,-154.7578 54.3471,-148.055 56.5814,-158.4115 62.5522,-154.7578"/>
</g>
<!-- Node20&#45;&gt;Node1 -->
<g id="edge43" class="edge">
<title>Node20&#45;&gt;Node1</title>
<path fill="none" stroke="#191970" d="M534.4063,-318.8906C560.2305,-308.5103 601.5527,-291.9004 630.4705,-280.2766"/>
<polygon fill="#191970" stroke="#191970" points="631.7885,-283.519 639.7616,-276.5419 629.1778,-277.0241 631.7885,-283.519"/>
</g>
<!-- Node20&#45;&gt;Node18 -->
<g id="edge42" class="edge">
<title>Node20&#45;&gt;Node18</title>
<path fill="none" stroke="#191970" d="M462.6539,-325.2522C351.4672,-316.6079 80.9694,-288.8948 26.5,-221 11.5706,-202.3909 24.1088,-174.5721 35.4782,-156.4791"/>
<polygon fill="#191970" stroke="#191970" points="38.4992,-158.2583 41.1654,-148.0044 32.6867,-154.3576 38.4992,-158.2583"/>
</g>
<!-- Node21&#45;&gt;Node1 -->
<g id="edge45" class="edge">
<title>Node21&#45;&gt;Node1</title>
<path fill="none" stroke="#191970" d="M828.886,-380.4556C800.4365,-373.3792 764.6858,-361.8169 736.5,-344 711.7048,-328.3264 689.5107,-302.3581 676.2758,-284.9672"/>
<polygon fill="#191970" stroke="#191970" points="678.9639,-282.7157 670.2051,-276.7547 673.3349,-286.8767 678.9639,-282.7157"/>
</g>
<!-- Node21&#45;&gt;Node6 -->
<g id="edge46" class="edge">
<title>Node21&#45;&gt;Node6</title>
<path fill="none" stroke="#191970" d="M880.0437,-380.3311C884.3732,-365.0508 894.2191,-334.8177 909.5,-313 930.6131,-282.8552 940.1338,-277.7934 970.5,-257 1000.348,-236.5614 1011.646,-238.1453 1043.5,-221 1085.2335,-198.5371 1132.5636,-170.2464 1160.4007,-153.308"/>
<polygon fill="#191970" stroke="#191970" points="1162.3457,-156.2213 1169.0576,-148.0237 1158.6986,-150.2465 1162.3457,-156.2213"/>
</g>
<!-- Node22 -->
<g id="node23" class="node">
<title>Node22</title>
<g id="a_node23"><a xlink:href="centroid_8h.html" target="_top" xlink:title="Centroid structure computation. ">
<polygon fill="none" stroke="#000000" points="576,-319 576,-338 689,-338 689,-319 576,-319"/>
<text text-anchor="middle" x="632.5" y="-326" font-family="Helvetica,sans-Serif" font-size="10.00" fill="#000000">ViennaRNA/centroid.h</text>
</a>
</g>
</g>
<!-- Node21&#45;&gt;Node22 -->
<g id="edge47" class="edge">
<title>Node21&#45;&gt;Node22</title>
<path fill="none" stroke="#191970" d="M839.4876,-380.4581C796.6629,-369.7082 726.9792,-352.2162 680.4501,-340.5365"/>
<polygon fill="#191970" stroke="#191970" points="681.1529,-337.1043 670.6016,-338.0643 679.4485,-343.8937 681.1529,-337.1043"/>
</g>
<!-- Node23 -->
<g id="node24" class="node">
<title>Node23</title>
<g id="a_node24"><a xlink:href="equilibrium__probs_8h.html" target="_top" xlink:title="Equilibrium Probability implementations. ">
<polygon fill="none" stroke="#000000" points="745.5,-313.5 745.5,-343.5 861.5,-343.5 861.5,-313.5 745.5,-313.5"/>
<text text-anchor="start" x="753.5" y="-331.5" font-family="Helvetica,sans-Serif" font-size="10.00" fill="#000000">ViennaRNA/equilibrium</text>
<text text-anchor="middle" x="803.5" y="-320.5" font-family="Helvetica,sans-Serif" font-size="10.00" fill="#000000">_probs.h</text>
</a>
</g>
</g>
<!-- Node21&#45;&gt;Node23 -->
<g id="edge50" class="edge">
<title>Node21&#45;&gt;Node23</title>
<path fill="none" stroke="#191970" d="M865.9375,-380.3906C856.2007,-372.2986 841.9087,-360.4207 829.4547,-350.0705"/>
<polygon fill="#191970" stroke="#191970" points="831.5303,-347.2445 821.6024,-343.5446 827.0561,-352.628 831.5303,-347.2445"/>
</g>
<!-- Node21&#45;&gt;Node24 -->
<g id="edge52" class="edge">
<title>Node21&#45;&gt;Node24</title>
<path fill="none" stroke="#191970" d="M892.8125,-380.3906C906.1984,-371.9903 926.0853,-359.5103 943.0014,-348.8945"/>
<polygon fill="#191970" stroke="#191970" points="944.9167,-351.8248 951.5265,-343.5446 941.1958,-345.8956 944.9167,-351.8248"/>
</g>
<!-- Node22&#45;&gt;Node1 -->
<g id="edge48" class="edge">
<title>Node22&#45;&gt;Node1</title>
<path fill="none" stroke="#191970" d="M637.3438,-318.8906C641.7766,-310.0965 648.4631,-296.8312 653.9659,-285.9145"/>
<polygon fill="#191970" stroke="#191970" points="657.2122,-287.25 658.588,-276.7449 650.9614,-284.0992 657.2122,-287.25"/>
</g>
<!-- Node22&#45;&gt;Node17 -->
<g id="edge49" class="edge">
<title>Node22&#45;&gt;Node17</title>
<path fill="none" stroke="#191970" d="M592.0253,-318.9311C583.5931,-316.9554 574.759,-314.8987 566.5,-313 384.9167,-271.2561 339.2192,-262.1484 157.5,-221 156.2379,-220.7142 154.9626,-220.4253 153.6775,-220.1339"/>
<polygon fill="#191970" stroke="#191970" points="154.2141,-216.6667 143.6873,-217.8662 152.6644,-223.4931 154.2141,-216.6667"/>
</g>
<!-- Node23&#45;&gt;Node1 -->
<g id="edge51" class="edge">
<title>Node23&#45;&gt;Node1</title>
<path fill="none" stroke="#191970" d="M769.2521,-313.4554C746.4051,-303.419 716.6121,-290.3314 694.4733,-280.6061"/>
<polygon fill="#191970" stroke="#191970" points="695.7583,-277.3478 685.195,-276.5303 692.9429,-283.7567 695.7583,-277.3478"/>
</g>
<!-- Node24&#45;&gt;Node1 -->
<g id="edge53" class="edge">
<title>Node24&#45;&gt;Node1</title>
<path fill="none" stroke="#191970" d="M917.9108,-317.1483C862.2159,-306.17 778.2354,-289.6161 722.1761,-278.566"/>
<polygon fill="#191970" stroke="#191970" points="722.5348,-275.0694 712.0466,-276.5693 721.1809,-281.9372 722.5348,-275.0694"/>
</g>
<!-- Node25&#45;&gt;Node4 -->
<g id="edge55" class="edge">
<title>Node25&#45;&gt;Node4</title>
<path fill="none" stroke="#191970" d="M1006,-257.3906C976.0353,-246.92 927.9317,-230.1111 894.6302,-218.4745"/>
<polygon fill="#191970" stroke="#191970" points="895.4017,-215.0366 884.8069,-215.0419 893.0926,-221.6448 895.4017,-215.0366"/>
</g>
</g>
</svg>
