<?xml version="1.0" encoding="UTF-8" standalone="no"?>
<!DOCTYPE svg PUBLIC "-//W3C//DTD SVG 1.1//EN"
 "http://www.w3.org/Graphics/SVG/1.1/DTD/svg11.dtd">
<!-- Generated by graphviz version 2.40.1 (20161225.0304)
 -->
<!-- Title: ViennaRNA/boltzmann_sampling.h Pages: 1 -->
<svg width="169pt" height="151pt"
 viewBox="0.00 0.00 169.00 151.00" xmlns="http://www.w3.org/2000/svg" xmlns:xlink="http://www.w3.org/1999/xlink">
<g id="graph0" class="graph" transform="scale(1 1) rotate(0) translate(4 147)">
<title>ViennaRNA/boltzmann_sampling.h</title>
<!-- Node19 -->
<g id="node1" class="node">
<title>Node19</title>
<polygon fill="#bfbfbf" stroke="#000000" points="0,-112.5 0,-142.5 115,-142.5 115,-112.5 0,-112.5"/>
<text text-anchor="start" x="8" y="-130.5" font-family="Helvetica,sans-Serif" font-size="10.00" fill="#000000">ViennaRNA/boltzmann</text>
<text text-anchor="middle" x="57.5" y="-119.5" font-family="Helvetica,sans-Serif" font-size="10.00" fill="#000000">_sampling.h</text>
</g>
<!-- Node20 -->
<g id="node2" class="node">
<title>Node20</title>
<g id="a_node2"><a xlink:href="alifold_8h.html" target="_top" xlink:title="Functions for comparative structure prediction using RNA sequence alignments. ">
<polygon fill="none" stroke="#000000" points="5.5,-.5 5.5,-19.5 109.5,-19.5 109.5,-.5 5.5,-.5"/>
<text text-anchor="middle" x="57.5" y="-7.5" font-family="Helvetica,sans-Serif" font-size="10.00" fill="#000000">ViennaRNA/alifold.h</text>
</a>
</g>
</g>
<!-- Node19&#45;&gt;Node20 -->
<g id="edge1" class="edge">
<title>Node19&#45;&gt;Node20</title>
<path fill="none" stroke="#191970" d="M41.6769,-103.5797C34.4823,-89.8394 28.3939,-72.1541 32.5,-56 35.9483,-42.4338 44.2948,-28.5431 50.3985,-19.6276"/>
<polygon fill="#191970" stroke="#191970" points="38.7173,-105.4547 46.7228,-112.3946 44.7924,-101.9771 38.7173,-105.4547"/>
</g>
<!-- Node21 -->
<g id="node3" class="node">
<title>Node21</title>
<g id="a_node3"><a xlink:href="part__func_8h.html" target="_top" xlink:title="Partition function implementations. ">
<polygon fill="none" stroke="#000000" points="42,-56.5 42,-75.5 161,-75.5 161,-56.5 42,-56.5"/>
<text text-anchor="middle" x="101.5" y="-63.5" font-family="Helvetica,sans-Serif" font-size="10.00" fill="#000000">ViennaRNA/part_func.h</text>
</a>
</g>
</g>
<!-- Node19&#45;&gt;Node21 -->
<g id="edge2" class="edge">
<title>Node19&#45;&gt;Node21</title>
<path fill="none" stroke="#191970" d="M74.2593,-104.0751C81.2617,-94.2877 89.0162,-83.449 94.455,-75.8469"/>
<polygon fill="#191970" stroke="#191970" points="71.3486,-102.1283 68.3764,-112.2977 77.0416,-106.2014 71.3486,-102.1283"/>
</g>
<!-- Node21&#45;&gt;Node20 -->
<g id="edge3" class="edge">
<title>Node21&#45;&gt;Node20</title>
<path fill="none" stroke="#191970" d="M87.5231,-48.2112C80.0871,-38.7472 71.234,-27.4797 65.0764,-19.6427"/>
<polygon fill="#191970" stroke="#191970" points="84.9054,-50.5447 93.8358,-56.2455 90.4097,-46.22 84.9054,-50.5447"/>
</g>
</g>
</svg>
