<?xml version="1.0" encoding="UTF-8" standalone="no"?>
<!DOCTYPE svg PUBLIC "-//W3C//DTD SVG 1.1//EN"
 "http://www.w3.org/Graphics/SVG/1.1/DTD/svg11.dtd">
<!-- Generated by graphviz version 2.40.1 (20161225.0304)
 -->
<!-- Title: ViennaRNA/centroid.h Pages: 1 -->
<svg width="1304pt" height="341pt"
 viewBox="0.00 0.00 1303.50 341.00" xmlns="http://www.w3.org/2000/svg" xmlns:xlink="http://www.w3.org/1999/xlink">
<g id="graph0" class="graph" transform="scale(1 1) rotate(0) translate(4 337)">
<title>ViennaRNA/centroid.h</title>
<!-- Node0 -->
<g id="node1" class="node">
<title>Node0</title>
<polygon fill="#bfbfbf" stroke="#000000" points="734,-313.5 734,-332.5 847,-332.5 847,-313.5 734,-313.5"/>
<text text-anchor="middle" x="790.5" y="-320.5" font-family="Helvetica,sans-Serif" font-size="10.00" fill="#000000">ViennaRNA/centroid.h</text>
</g>
<!-- Node1 -->
<g id="node2" class="node">
<title>Node1</title>
<g id="a_node2"><a xlink:href="data__structures_8h.html" target="_top" xlink:title="Various data structures and pre&#45;processor macros. ">
<polygon fill="none" stroke="#000000" points="667.5,-257.5 667.5,-276.5 813.5,-276.5 813.5,-257.5 667.5,-257.5"/>
<text text-anchor="middle" x="740.5" y="-264.5" font-family="Helvetica,sans-Serif" font-size="10.00" fill="#000000">ViennaRNA/data_structures.h</text>
</a>
</g>
</g>
<!-- Node0&#45;&gt;Node1 -->
<g id="edge1" class="edge">
<title>Node0&#45;&gt;Node1</title>
<path fill="none" stroke="#191970" d="M781.7907,-313.2455C774.6927,-305.2958 764.4916,-293.8706 756.005,-284.3656"/>
<polygon fill="#191970" stroke="#191970" points="758.3805,-281.771 749.1095,-276.6427 753.1589,-286.4331 758.3805,-281.771"/>
</g>
<!-- Node17 -->
<g id="node18" class="node">
<title>Node17</title>
<g id="a_node18"><a xlink:href="structure__utils_8h.html" target="_top" xlink:title="Various utility&#45; and helper&#45;functions for secondary structure parsing, converting, etc. ">
<polygon fill="none" stroke="#000000" points="1133.5,-190.5 1133.5,-220.5 1241.5,-220.5 1241.5,-190.5 1133.5,-190.5"/>
<text text-anchor="start" x="1141.5" y="-208.5" font-family="Helvetica,sans-Serif" font-size="10.00" fill="#000000">ViennaRNA/structure</text>
<text text-anchor="middle" x="1187.5" y="-197.5" font-family="Helvetica,sans-Serif" font-size="10.00" fill="#000000">_utils.h</text>
</a>
</g>
</g>
<!-- Node0&#45;&gt;Node17 -->
<g id="edge39" class="edge">
<title>Node0&#45;&gt;Node17</title>
<path fill="none" stroke="#191970" d="M822.6519,-313.484C888.883,-293.8816 1041.4575,-248.7242 1126.8371,-223.4544"/>
<polygon fill="#191970" stroke="#191970" points="1128.0575,-226.7433 1136.653,-220.5492 1126.0709,-220.0311 1128.0575,-226.7433"/>
</g>
<!-- Node2 -->
<g id="node3" class="node">
<title>Node2</title>
<g id="a_node3"><a xlink:href="energy__const_8h.html" target="_top" xlink:title="Energy parameter constants. ">
<polygon fill="none" stroke="#000000" points="172,-62 172,-81 309,-81 309,-62 172,-62"/>
<text text-anchor="middle" x="240.5" y="-69" font-family="Helvetica,sans-Serif" font-size="10.00" fill="#000000">ViennaRNA/energy_const.h</text>
</a>
</g>
</g>
<!-- Node1&#45;&gt;Node2 -->
<g id="edge2" class="edge">
<title>Node1&#45;&gt;Node2</title>
<path fill="none" stroke="#191970" d="M667.4109,-264.5696C527.5945,-258.0913 231.3934,-234.905 178.5,-154 170.9607,-142.468 172.6462,-135.4724 178.5,-123 185.6975,-107.6648 199.9529,-95.3165 212.9813,-86.5595"/>
<polygon fill="#191970" stroke="#191970" points="215.0987,-89.3627 221.7031,-81.0782 211.3739,-83.4359 215.0987,-89.3627"/>
</g>
<!-- Node4 -->
<g id="node5" class="node">
<title>Node4</title>
<g id="a_node5"><a xlink:href="fold__compound_8h.html" target="_top" xlink:title="The Basic Fold Compound API. ">
<polygon fill="none" stroke="#000000" points="458.5,-196 458.5,-215 602.5,-215 602.5,-196 458.5,-196"/>
<text text-anchor="middle" x="530.5" y="-203" font-family="Helvetica,sans-Serif" font-size="10.00" fill="#000000">ViennaRNA/fold_compound.h</text>
</a>
</g>
</g>
<!-- Node1&#45;&gt;Node4 -->
<g id="edge4" class="edge">
<title>Node1&#45;&gt;Node4</title>
<path fill="none" stroke="#191970" d="M707.6875,-257.3906C671.3178,-246.7395 612.5522,-229.5296 572.7637,-217.8772"/>
<polygon fill="#191970" stroke="#191970" points="573.6627,-214.4936 563.0821,-215.0419 571.6953,-221.2114 573.6627,-214.4936"/>
</g>
<!-- Node5 -->
<g id="node6" class="node">
<title>Node5</title>
<g id="a_node6"><a xlink:href="model_8h.html" target="_top" xlink:title="The model details data structure and its corresponding modifiers. ">
<polygon fill="none" stroke="#000000" points="407.5,-62 407.5,-81 511.5,-81 511.5,-62 407.5,-62"/>
<text text-anchor="middle" x="459.5" y="-69" font-family="Helvetica,sans-Serif" font-size="10.00" fill="#000000">ViennaRNA/model.h</text>
</a>
</g>
</g>
<!-- Node1&#45;&gt;Node5 -->
<g id="edge29" class="edge">
<title>Node1&#45;&gt;Node5</title>
<path fill="none" stroke="#191970" d="M745.4972,-257.1957C757.7098,-231.7037 785.729,-162.579 752.5,-123 737.8105,-105.5033 603.4662,-87.5916 521.8812,-78.1963"/>
<polygon fill="#191970" stroke="#191970" points="522.048,-74.6928 511.716,-77.0383 521.2556,-81.6478 522.048,-74.6928"/>
</g>
<!-- Node6 -->
<g id="node7" class="node">
<title>Node6</title>
<g id="a_node7"><a xlink:href="params_8h.html" target="_top" xlink:title="Functions to deal with sets of energy parameters. ">
<polygon fill="none" stroke="#000000" points="321.5,-129 321.5,-148 431.5,-148 431.5,-129 321.5,-129"/>
<text text-anchor="middle" x="376.5" y="-136" font-family="Helvetica,sans-Serif" font-size="10.00" fill="#000000">ViennaRNA/params.h</text>
</a>
</g>
</g>
<!-- Node1&#45;&gt;Node6 -->
<g id="edge30" class="edge">
<title>Node1&#45;&gt;Node6</title>
<path fill="none" stroke="#191970" d="M667.2,-261.6932C591.0474,-254.9337 478.0598,-241.597 440.5,-221 413.2083,-206.0338 391.1133,-176.753 380.9504,-157.4073"/>
<polygon fill="#191970" stroke="#191970" points="384.0208,-155.7065 376.6662,-148.0801 377.6597,-158.6283 384.0208,-155.7065"/>
</g>
<!-- Node7 -->
<g id="node8" class="node">
<title>Node7</title>
<g id="a_node8"><a xlink:href="dp__matrices_8h.html" target="_top" xlink:title="Functions to deal with standard dynamic programming (DP) matrices. ">
<polygon fill="none" stroke="#000000" points="0,-129 0,-148 131,-148 131,-129 0,-129"/>
<text text-anchor="middle" x="65.5" y="-136" font-family="Helvetica,sans-Serif" font-size="10.00" fill="#000000">ViennaRNA/dp_matrices.h</text>
</a>
</g>
</g>
<!-- Node1&#45;&gt;Node7 -->
<g id="edge31" class="edge">
<title>Node1&#45;&gt;Node7</title>
<path fill="none" stroke="#191970" d="M667.3096,-264.4322C516.8138,-258.5515 183.1575,-242.9067 136.5,-221 106.6827,-207.0001 82.0502,-176.7425 70.7316,-157.021"/>
<polygon fill="#191970" stroke="#191970" points="73.8261,-155.3846 66.1741,-148.0566 67.5862,-158.557 73.8261,-155.3846"/>
</g>
<!-- Node8 -->
<g id="node9" class="node">
<title>Node8</title>
<g id="a_node9"><a xlink:href="constraints_8h.html" target="_top" xlink:title="Functions and data structures for constraining secondary structure predictions and evaluation...">
<polygon fill="none" stroke="#000000" points="875.5,-129 875.5,-148 1001.5,-148 1001.5,-129 875.5,-129"/>
<text text-anchor="middle" x="938.5" y="-136" font-family="Helvetica,sans-Serif" font-size="10.00" fill="#000000">ViennaRNA/constraints.h</text>
</a>
</g>
</g>
<!-- Node1&#45;&gt;Node8 -->
<g id="edge32" class="edge">
<title>Node1&#45;&gt;Node8</title>
<path fill="none" stroke="#191970" d="M770.7014,-257.4708C794.3265,-250.0496 827.0365,-238.1075 852.5,-221 879.1542,-203.0925 903.2406,-174.2987 919.4836,-155.8981"/>
<polygon fill="#191970" stroke="#191970" points="922.2803,-158.0229 926.3757,-148.2516 917.0807,-153.3363 922.2803,-158.0229"/>
</g>
<!-- Node14 -->
<g id="node15" class="node">
<title>Node14</title>
<g id="a_node15"><a xlink:href="grammar_8h.html" target="_top" xlink:title="Implementations for the RNA folding grammar. ">
<polygon fill="none" stroke="#000000" points="187.5,-129 187.5,-148 303.5,-148 303.5,-129 187.5,-129"/>
<text text-anchor="middle" x="245.5" y="-136" font-family="Helvetica,sans-Serif" font-size="10.00" fill="#000000">ViennaRNA/grammar.h</text>
</a>
</g>
</g>
<!-- Node1&#45;&gt;Node14 -->
<g id="edge33" class="edge">
<title>Node1&#45;&gt;Node14</title>
<path fill="none" stroke="#191970" d="M667.3385,-264.1581C597.2702,-259.7852 489.5401,-248.747 400.5,-221 348.284,-204.7283 292.3811,-173.2016 263.9069,-154.1826"/>
<polygon fill="#191970" stroke="#191970" points="265.5601,-151.0701 255.3469,-148.2523 261.5737,-156.8241 265.5601,-151.0701"/>
</g>
<!-- Node15 -->
<g id="node16" class="node">
<title>Node15</title>
<g id="a_node16"><a xlink:href="structured__domains_8h.html" target="_top" xlink:title="This module provides interfaces that deal with additional structured domains in the folding grammar...">
<polygon fill="none" stroke="#000000" points="488,-123.5 488,-153.5 601,-153.5 601,-123.5 488,-123.5"/>
<text text-anchor="start" x="496" y="-141.5" font-family="Helvetica,sans-Serif" font-size="10.00" fill="#000000">ViennaRNA/structured</text>
<text text-anchor="middle" x="544.5" y="-130.5" font-family="Helvetica,sans-Serif" font-size="10.00" fill="#000000">_domains.h</text>
</a>
</g>
</g>
<!-- Node1&#45;&gt;Node15 -->
<g id="edge34" class="edge">
<title>Node1&#45;&gt;Node15</title>
<path fill="none" stroke="#191970" d="M725.7681,-257.3416C694.1182,-236.5915 619.027,-187.3608 576.0806,-159.2047"/>
<polygon fill="#191970" stroke="#191970" points="577.9688,-156.2575 567.6869,-153.7016 574.1308,-162.1115 577.9688,-156.2575"/>
</g>
<!-- Node16 -->
<g id="node17" class="node">
<title>Node16</title>
<g id="a_node17"><a xlink:href="unstructured__domains_8h.html" target="_top" xlink:title="Functions to modify unstructured domains, e.g. to incorporate ligands binding to unpaired stretches...">
<polygon fill="none" stroke="#000000" points="619.5,-123.5 619.5,-153.5 743.5,-153.5 743.5,-123.5 619.5,-123.5"/>
<text text-anchor="start" x="627.5" y="-141.5" font-family="Helvetica,sans-Serif" font-size="10.00" fill="#000000">ViennaRNA/unstructured</text>
<text text-anchor="middle" x="681.5" y="-130.5" font-family="Helvetica,sans-Serif" font-size="10.00" fill="#000000">_domains.h</text>
</a>
</g>
</g>
<!-- Node1&#45;&gt;Node16 -->
<g id="edge35" class="edge">
<title>Node1&#45;&gt;Node16</title>
<path fill="none" stroke="#191970" d="M732.292,-257.3416C719.9352,-237.5879 698.4497,-192.0229 687.4656,-163.4008"/>
<polygon fill="#191970" stroke="#191970" points="690.6433,-161.8984 683.9304,-153.7016 684.0666,-164.2956 690.6433,-161.8984"/>
</g>
<!-- Node1&#45;&gt;Node17 -->
<g id="edge36" class="edge">
<title>Node1&#45;&gt;Node17</title>
<path fill="none" stroke="#191970" d="M813.7821,-259.694C888.6612,-252.112 1007.9815,-238.8563 1110.5,-221 1114.6602,-220.2754 1118.9488,-219.4606 1123.2765,-218.5935"/>
<polygon fill="#191970" stroke="#191970" points="1124.3223,-221.9512 1133.4033,-216.4936 1122.9009,-215.097 1124.3223,-221.9512"/>
</g>
<!-- Node3 -->
<g id="node4" class="node">
<title>Node3</title>
<polygon fill="none" stroke="#bfbfbf" points="216.5,-.5 216.5,-19.5 264.5,-19.5 264.5,-.5 216.5,-.5"/>
<text text-anchor="middle" x="240.5" y="-7.5" font-family="Helvetica,sans-Serif" font-size="10.00" fill="#000000">limits.h</text>
</g>
<!-- Node2&#45;&gt;Node3 -->
<g id="edge3" class="edge">
<title>Node2&#45;&gt;Node3</title>
<path fill="none" stroke="#191970" d="M240.5,-61.8906C240.5,-53.3657 240.5,-40.6392 240.5,-29.9235"/>
<polygon fill="#191970" stroke="#191970" points="244.0001,-29.7448 240.5,-19.7449 237.0001,-29.7449 244.0001,-29.7448"/>
</g>
<!-- Node4&#45;&gt;Node5 -->
<g id="edge5" class="edge">
<title>Node4&#45;&gt;Node5</title>
<path fill="none" stroke="#191970" d="M517.3111,-195.9908C505.3461,-186.6516 488.1468,-171.3154 478.5,-154 467.527,-134.3041 462.8823,-108.5902 460.9218,-91.1423"/>
<polygon fill="#191970" stroke="#191970" points="464.3912,-90.65 459.9815,-81.0165 457.4212,-91.2973 464.3912,-90.65"/>
</g>
<!-- Node4&#45;&gt;Node6 -->
<g id="edge6" class="edge">
<title>Node4&#45;&gt;Node6</title>
<path fill="none" stroke="#191970" d="M508.4356,-195.9005C482.1335,-184.4574 437.9872,-165.2509 408.0755,-152.2374"/>
<polygon fill="#191970" stroke="#191970" points="409.0896,-148.8617 398.5235,-148.0817 406.297,-155.2806 409.0896,-148.8617"/>
</g>
<!-- Node4&#45;&gt;Node7 -->
<g id="edge10" class="edge">
<title>Node4&#45;&gt;Node7</title>
<path fill="none" stroke="#191970" d="M464.3707,-195.9717C379.0237,-183.6744 230.8666,-162.327 141.1336,-149.3977"/>
<polygon fill="#191970" stroke="#191970" points="141.423,-145.9034 131.026,-147.9414 140.4246,-152.8318 141.423,-145.9034"/>
</g>
<!-- Node4&#45;&gt;Node8 -->
<g id="edge12" class="edge">
<title>Node4&#45;&gt;Node8</title>
<path fill="none" stroke="#191970" d="M588.5232,-195.9717C662.742,-183.7838 791.0954,-162.7062 870.0241,-149.7448"/>
<polygon fill="#191970" stroke="#191970" points="871.0464,-153.1239 880.3471,-148.0496 869.912,-146.2164 871.0464,-153.1239"/>
</g>
<!-- Node4&#45;&gt;Node14 -->
<g id="edge24" class="edge">
<title>Node4&#45;&gt;Node14</title>
<path fill="none" stroke="#191970" d="M489.9691,-195.9717C439.0439,-183.9998 351.6324,-163.4504 296.2958,-150.4415"/>
<polygon fill="#191970" stroke="#191970" points="296.8881,-146.9854 286.3525,-148.1039 295.2861,-153.7996 296.8881,-146.9854"/>
</g>
<!-- Node4&#45;&gt;Node15 -->
<g id="edge26" class="edge">
<title>Node4&#45;&gt;Node15</title>
<path fill="none" stroke="#191970" d="M532.5059,-195.9005C534.2772,-187.4234 536.9388,-174.6856 539.3051,-163.3614"/>
<polygon fill="#191970" stroke="#191970" points="542.7417,-164.0263 541.3611,-153.5218 535.8897,-162.5944 542.7417,-164.0263"/>
</g>
<!-- Node4&#45;&gt;Node16 -->
<g id="edge27" class="edge">
<title>Node4&#45;&gt;Node16</title>
<path fill="none" stroke="#191970" d="M552.1346,-195.9005C574.5541,-185.9528 610.196,-170.1382 638.3965,-157.6254"/>
<polygon fill="#191970" stroke="#191970" points="639.9239,-160.7768 647.645,-153.5218 637.0848,-154.3784 639.9239,-160.7768"/>
</g>
<!-- Node6&#45;&gt;Node1 -->
<g id="edge8" class="edge">
<title>Node6&#45;&gt;Node1</title>
<path fill="none" stroke="#191970" d="M387.0725,-148.0801C401.3391,-165.7658 426.3033,-203.344 458.5,-221 492.2153,-239.4887 586.7079,-252.1274 657.132,-259.4101"/>
<polygon fill="#191970" stroke="#191970" points="657.0354,-262.9182 667.3377,-260.4458 657.7422,-255.954 657.0354,-262.9182"/>
</g>
<!-- Node6&#45;&gt;Node2 -->
<g id="edge7" class="edge">
<title>Node6&#45;&gt;Node2</title>
<path fill="none" stroke="#191970" d="M357.0145,-128.9005C333.9887,-117.5569 295.4772,-98.5844 269.0768,-85.5783"/>
<polygon fill="#191970" stroke="#191970" points="270.4666,-82.3613 259.9493,-81.0817 267.3731,-88.6407 270.4666,-82.3613"/>
</g>
<!-- Node6&#45;&gt;Node5 -->
<g id="edge9" class="edge">
<title>Node6&#45;&gt;Node5</title>
<path fill="none" stroke="#191970" d="M388.3919,-128.9005C401.7048,-118.1539 423.4999,-100.5603 439.4568,-87.6794"/>
<polygon fill="#191970" stroke="#191970" points="442.0474,-90.0863 447.6302,-81.0817 437.6506,-84.6395 442.0474,-90.0863"/>
</g>
<!-- Node7&#45;&gt;Node1 -->
<g id="edge11" class="edge">
<title>Node7&#45;&gt;Node1</title>
<path fill="none" stroke="#191970" d="M76.4611,-148.0566C91.8749,-166.0544 119.6451,-204.6348 154.5,-221 199.1354,-241.9573 506.4329,-257.1837 657.3466,-263.6129"/>
<polygon fill="#191970" stroke="#191970" points="657.3575,-267.1164 667.4965,-264.0421 657.6533,-260.1226 657.3575,-267.1164"/>
</g>
<!-- Node8&#45;&gt;Node1 -->
<g id="edge13" class="edge">
<title>Node8&#45;&gt;Node1</title>
<path fill="none" stroke="#191970" d="M937.1324,-148.2516C928.5581,-165.2236 901.2364,-200.3499 870.5,-221 848.12,-236.0359 820.1422,-247.0816 795.802,-254.5748"/>
<polygon fill="#191970" stroke="#191970" points="794.5758,-251.2872 785.9727,-257.4708 796.5542,-258.0019 794.5758,-251.2872"/>
</g>
<!-- Node9 -->
<g id="node10" class="node">
<title>Node9</title>
<g id="a_node10"><a xlink:href="constraints__hard_8h.html" target="_top" xlink:title="Functions and data structures for handling of secondary structure hard constraints. ">
<polygon fill="none" stroke="#000000" points="629.5,-56.5 629.5,-86.5 747.5,-86.5 747.5,-56.5 629.5,-56.5"/>
<text text-anchor="start" x="637.5" y="-74.5" font-family="Helvetica,sans-Serif" font-size="10.00" fill="#000000">ViennaRNA/constraints</text>
<text text-anchor="middle" x="688.5" y="-63.5" font-family="Helvetica,sans-Serif" font-size="10.00" fill="#000000">_hard.h</text>
</a>
</g>
</g>
<!-- Node8&#45;&gt;Node9 -->
<g id="edge14" class="edge">
<title>Node8&#45;&gt;Node9</title>
<path fill="none" stroke="#191970" d="M902.9466,-128.9717C864.4353,-118.6507 802.1369,-101.9547 754.5858,-89.211"/>
<polygon fill="#191970" stroke="#191970" points="755.2419,-85.7634 744.6767,-86.5553 753.4298,-92.5248 755.2419,-85.7634"/>
</g>
<!-- Node10 -->
<g id="node11" class="node">
<title>Node10</title>
<g id="a_node11"><a xlink:href="constraints__soft_8h.html" target="_top" xlink:title="Functions and data structures for secondary structure soft constraints. ">
<polygon fill="none" stroke="#000000" points="765.5,-56.5 765.5,-86.5 883.5,-86.5 883.5,-56.5 765.5,-56.5"/>
<text text-anchor="start" x="773.5" y="-74.5" font-family="Helvetica,sans-Serif" font-size="10.00" fill="#000000">ViennaRNA/constraints</text>
<text text-anchor="middle" x="824.5" y="-63.5" font-family="Helvetica,sans-Serif" font-size="10.00" fill="#000000">_soft.h</text>
</a>
</g>
</g>
<!-- Node8&#45;&gt;Node10 -->
<g id="edge16" class="edge">
<title>Node8&#45;&gt;Node10</title>
<path fill="none" stroke="#191970" d="M922.1666,-128.9005C905.6822,-119.2123 879.7293,-103.9593 858.7192,-91.6113"/>
<polygon fill="#191970" stroke="#191970" points="860.4541,-88.5713 850.0594,-86.5218 856.9073,-94.6062 860.4541,-88.5713"/>
</g>
<!-- Node11 -->
<g id="node12" class="node">
<title>Node11</title>
<g id="a_node12"><a xlink:href="constraints__SHAPE_8h.html" target="_top" xlink:title="This module provides function to incorporate SHAPE reactivity data into the folding recursions by mea...">
<polygon fill="none" stroke="#000000" points="901.5,-56.5 901.5,-86.5 1019.5,-86.5 1019.5,-56.5 901.5,-56.5"/>
<text text-anchor="start" x="909.5" y="-74.5" font-family="Helvetica,sans-Serif" font-size="10.00" fill="#000000">ViennaRNA/constraints</text>
<text text-anchor="middle" x="960.5" y="-63.5" font-family="Helvetica,sans-Serif" font-size="10.00" fill="#000000">_SHAPE.h</text>
</a>
</g>
</g>
<!-- Node8&#45;&gt;Node11 -->
<g id="edge18" class="edge">
<title>Node8&#45;&gt;Node11</title>
<path fill="none" stroke="#191970" d="M941.6521,-128.9005C944.4356,-120.4234 948.6181,-107.6856 952.3366,-96.3614"/>
<polygon fill="#191970" stroke="#191970" points="955.773,-97.1146 955.5675,-86.5218 949.1224,-94.9308 955.773,-97.1146"/>
</g>
<!-- Node12 -->
<g id="node13" class="node">
<title>Node12</title>
<g id="a_node13"><a xlink:href="perturbation__fold_8h.html" target="_top" xlink:title="Find a vector of perturbation energies that minimizes the discripancies between predicted and observe...">
<polygon fill="none" stroke="#000000" points="1038,-56.5 1038,-86.5 1159,-86.5 1159,-56.5 1038,-56.5"/>
<text text-anchor="start" x="1046" y="-74.5" font-family="Helvetica,sans-Serif" font-size="10.00" fill="#000000">ViennaRNA/perturbation</text>
<text text-anchor="middle" x="1098.5" y="-63.5" font-family="Helvetica,sans-Serif" font-size="10.00" fill="#000000">_fold.h</text>
</a>
</g>
</g>
<!-- Node8&#45;&gt;Node12 -->
<g id="edge20" class="edge">
<title>Node8&#45;&gt;Node12</title>
<path fill="none" stroke="#191970" d="M961.4241,-128.9005C985.2831,-118.9096 1023.2747,-103.0006 1053.2167,-90.4624"/>
<polygon fill="#191970" stroke="#191970" points="1054.7551,-93.6127 1062.6271,-86.5218 1052.0513,-87.156 1054.7551,-93.6127"/>
</g>
<!-- Node13 -->
<g id="node14" class="node">
<title>Node13</title>
<g id="a_node14"><a xlink:href="constraints__ligand_8h.html" target="_top" xlink:title="Functions for incorporation of ligands binding to hairpin and interior loop motifs using the soft con...">
<polygon fill="none" stroke="#000000" points="1177.5,-56.5 1177.5,-86.5 1295.5,-86.5 1295.5,-56.5 1177.5,-56.5"/>
<text text-anchor="start" x="1185.5" y="-74.5" font-family="Helvetica,sans-Serif" font-size="10.00" fill="#000000">ViennaRNA/constraints</text>
<text text-anchor="middle" x="1236.5" y="-63.5" font-family="Helvetica,sans-Serif" font-size="10.00" fill="#000000">_ligand.h</text>
</a>
</g>
</g>
<!-- Node8&#45;&gt;Node13 -->
<g id="edge22" class="edge">
<title>Node8&#45;&gt;Node13</title>
<path fill="none" stroke="#191970" d="M980.8797,-128.9717C1029.4879,-118.043 1109.8877,-99.9665 1167.5453,-87.0032"/>
<polygon fill="#191970" stroke="#191970" points="1168.3244,-90.4155 1177.3131,-84.8071 1166.7888,-83.586 1168.3244,-90.4155"/>
</g>
<!-- Node9&#45;&gt;Node1 -->
<g id="edge15" class="edge">
<title>Node9&#45;&gt;Node1</title>
<path fill="none" stroke="#191970" d="M739.9291,-86.5483C757.5295,-94.4327 775.3311,-106.0878 785.5,-123 807.9441,-160.3276 801.9466,-180.6689 785.5,-221 780.7844,-232.5637 771.6073,-242.7992 762.7638,-250.6617"/>
<polygon fill="#191970" stroke="#191970" points="760.3504,-248.1158 754.8737,-257.1853 764.8109,-253.5106 760.3504,-248.1158"/>
</g>
<!-- Node10&#45;&gt;Node1 -->
<g id="edge17" class="edge">
<title>Node10&#45;&gt;Node1</title>
<path fill="none" stroke="#191970" d="M826.3793,-86.7839C829.1155,-115.3718 831.356,-177.931 805.5,-221 797.4837,-234.3529 783.9351,-244.8618 771.2758,-252.4438"/>
<polygon fill="#191970" stroke="#191970" points="769.3354,-249.5184 762.3068,-257.4462 772.7451,-255.6318 769.3354,-249.5184"/>
</g>
<!-- Node11&#45;&gt;Node1 -->
<g id="edge19" class="edge">
<title>Node11&#45;&gt;Node1</title>
<path fill="none" stroke="#191970" d="M980.4057,-86.5071C999.579,-102.8909 1023.8551,-129.9986 1010.5,-154 983.0348,-203.3597 954.1696,-198.1753 902.5,-221 868.5945,-235.9775 828.5399,-247.402 796.7422,-255.1194"/>
<polygon fill="#191970" stroke="#191970" points="795.6492,-251.7815 786.7267,-257.4946 797.2645,-258.5926 795.6492,-251.7815"/>
</g>
<!-- Node12&#45;&gt;Node1 -->
<g id="edge21" class="edge">
<title>Node12&#45;&gt;Node1</title>
<path fill="none" stroke="#191970" d="M1088.7987,-86.9062C1068.2686,-118.0596 1017.1313,-188.3467 954.5,-221 914.1866,-242.0177 864.8159,-253.4372 823.6575,-259.6395"/>
<polygon fill="#191970" stroke="#191970" points="823.0578,-256.1895 813.6538,-261.0697 824.0486,-263.1191 823.0578,-256.1895"/>
</g>
<!-- Node13&#45;&gt;Node1 -->
<g id="edge23" class="edge">
<title>Node13&#45;&gt;Node1</title>
<path fill="none" stroke="#191970" d="M1212.7032,-86.6416C1155.6927,-122.8179 1014.2595,-211.9476 990.5,-221 936.8717,-241.4325 873.2177,-252.9764 823.5617,-259.3896"/>
<polygon fill="#191970" stroke="#191970" points="822.9961,-255.933 813.5059,-260.6433 823.8621,-262.8792 822.9961,-255.933"/>
</g>
<!-- Node14&#45;&gt;Node1 -->
<g id="edge25" class="edge">
<title>Node14&#45;&gt;Node1</title>
<path fill="none" stroke="#191970" d="M265.6218,-148.1142C297.3668,-165.6849 360.2292,-202.8415 418.5,-221 497.3664,-245.5766 590.8959,-257.0447 656.8328,-262.3831"/>
<polygon fill="#191970" stroke="#191970" points="656.9302,-265.9012 667.1718,-263.1884 657.4738,-258.9224 656.9302,-265.9012"/>
</g>
<!-- Node16&#45;&gt;Node1 -->
<g id="edge28" class="edge">
<title>Node16&#45;&gt;Node1</title>
<path fill="none" stroke="#191970" d="M693.0291,-153.7016C706.5488,-177.0997 727.2765,-221.9192 736.597,-247.6171"/>
<polygon fill="#191970" stroke="#191970" points="733.3558,-248.9618 739.8388,-257.3416 739.9965,-246.748 733.3558,-248.9618"/>
</g>
<!-- Node17&#45;&gt;Node1 -->
<g id="edge38" class="edge">
<title>Node17&#45;&gt;Node1</title>
<path fill="none" stroke="#191970" d="M1133.1988,-220.154C1131.6193,-220.4473 1130.0507,-220.7299 1128.5,-221 1024.4498,-239.1231 903.092,-252.5071 824.115,-260.03"/>
<polygon fill="#191970" stroke="#191970" points="823.3665,-256.585 813.739,-261.0078 824.0233,-263.5541 823.3665,-256.585"/>
</g>
<!-- Node18 -->
<g id="node19" class="node">
<title>Node18</title>
<polygon fill="none" stroke="#bfbfbf" points="1164.5,-129 1164.5,-148 1210.5,-148 1210.5,-129 1164.5,-129"/>
<text text-anchor="middle" x="1187.5" y="-136" font-family="Helvetica,sans-Serif" font-size="10.00" fill="#000000">stdio.h</text>
</g>
<!-- Node17&#45;&gt;Node18 -->
<g id="edge37" class="edge">
<title>Node17&#45;&gt;Node18</title>
<path fill="none" stroke="#191970" d="M1187.5,-190.2967C1187.5,-180.7699 1187.5,-168.3954 1187.5,-158.1306"/>
<polygon fill="#191970" stroke="#191970" points="1191.0001,-158.0549 1187.5,-148.055 1184.0001,-158.055 1191.0001,-158.0549"/>
</g>
</g>
</svg>
