<?xml version="1.0" encoding="UTF-8" standalone="no"?>
<!DOCTYPE svg PUBLIC "-//W3C//DTD SVG 1.1//EN"
 "http://www.w3.org/Graphics/SVG/1.1/DTD/svg11.dtd">
<!-- Generated by graphviz version 2.40.1 (20161225.0304)
 -->
<!-- Title: ViennaRNA/cofold.h Pages: 1 -->
<svg width="1321pt" height="397pt"
 viewBox="0.00 0.00 1320.50 397.00" xmlns="http://www.w3.org/2000/svg" xmlns:xlink="http://www.w3.org/1999/xlink">
<g id="graph0" class="graph" transform="scale(1 1) rotate(0) translate(4 393)">
<title>ViennaRNA/cofold.h</title>
<!-- Node0 -->
<g id="node1" class="node">
<title>Node0</title>
<polygon fill="#bfbfbf" stroke="#000000" points="1137,-369.5 1137,-388.5 1241,-388.5 1241,-369.5 1137,-369.5"/>
<text text-anchor="middle" x="1189" y="-376.5" font-family="Helvetica,sans-Serif" font-size="10.00" fill="#000000">ViennaRNA/cofold.h</text>
</g>
<!-- Node1 -->
<g id="node2" class="node">
<title>Node1</title>
<g id="a_node2"><a xlink:href="data__structures_8h.html" target="_top" xlink:title="Various data structures and pre&#45;processor macros. ">
<polygon fill="none" stroke="#000000" points="692,-257.5 692,-276.5 838,-276.5 838,-257.5 692,-257.5"/>
<text text-anchor="middle" x="765" y="-264.5" font-family="Helvetica,sans-Serif" font-size="10.00" fill="#000000">ViennaRNA/data_structures.h</text>
</a>
</g>
</g>
<!-- Node0&#45;&gt;Node1 -->
<g id="edge1" class="edge">
<title>Node0&#45;&gt;Node1</title>
<path fill="none" stroke="#191970" d="M1152.85,-369.4509C1075.8736,-349.1176 895.8826,-301.5728 810.9337,-279.1334"/>
<polygon fill="#191970" stroke="#191970" points="811.6208,-275.6949 801.0585,-276.5249 809.833,-282.4628 811.6208,-275.6949"/>
</g>
<!-- Node6 -->
<g id="node7" class="node">
<title>Node6</title>
<g id="a_node7"><a xlink:href="params_8h.html" target="_top" xlink:title="Functions to deal with sets of energy parameters. ">
<polygon fill="none" stroke="#000000" points="959,-129 959,-148 1069,-148 1069,-129 959,-129"/>
<text text-anchor="middle" x="1014" y="-136" font-family="Helvetica,sans-Serif" font-size="10.00" fill="#000000">ViennaRNA/params.h</text>
</a>
</g>
</g>
<!-- Node0&#45;&gt;Node6 -->
<g id="edge39" class="edge">
<title>Node0&#45;&gt;Node6</title>
<path fill="none" stroke="#191970" d="M1191.2921,-369.4319C1197.9187,-339.247 1213.9529,-244.7924 1170,-190 1157.2085,-174.0539 1109.8268,-159.8178 1070.6046,-150.3769"/>
<polygon fill="#191970" stroke="#191970" points="1071.3701,-146.9615 1060.8346,-148.0818 1069.7692,-153.776 1071.3701,-146.9615"/>
</g>
<!-- Node19 -->
<g id="node20" class="node">
<title>Node19</title>
<g id="a_node20"><a xlink:href="mfe_8h.html" target="_top" xlink:title="MFE calculations for single RNA sequences. ">
<polygon fill="none" stroke="#000000" points="1217.5,-313.5 1217.5,-332.5 1312.5,-332.5 1312.5,-313.5 1217.5,-313.5"/>
<text text-anchor="middle" x="1265" y="-320.5" font-family="Helvetica,sans-Serif" font-size="10.00" fill="#000000">ViennaRNA/mfe.h</text>
</a>
</g>
</g>
<!-- Node0&#45;&gt;Node19 -->
<g id="edge40" class="edge">
<title>Node0&#45;&gt;Node19</title>
<path fill="none" stroke="#191970" d="M1202.2382,-369.2455C1213.681,-360.814 1230.4296,-348.4729 1243.7475,-338.6598"/>
<polygon fill="#191970" stroke="#191970" points="1245.9391,-341.3924 1251.9135,-332.6427 1241.7867,-335.757 1245.9391,-341.3924"/>
</g>
<!-- Node2 -->
<g id="node3" class="node">
<title>Node2</title>
<g id="a_node3"><a xlink:href="energy__const_8h.html" target="_top" xlink:title="Energy parameter constants. ">
<polygon fill="none" stroke="#000000" points="1014.5,-62 1014.5,-81 1151.5,-81 1151.5,-62 1014.5,-62"/>
<text text-anchor="middle" x="1083" y="-69" font-family="Helvetica,sans-Serif" font-size="10.00" fill="#000000">ViennaRNA/energy_const.h</text>
</a>
</g>
</g>
<!-- Node1&#45;&gt;Node2 -->
<g id="edge2" class="edge">
<title>Node1&#45;&gt;Node2</title>
<path fill="none" stroke="#191970" d="M838.1834,-259.4836C882.1458,-253.0935 938.4052,-241.5411 985,-221 1008.3071,-210.7252 1065.71,-176.3102 1078,-154 1088.6712,-134.6285 1088.3053,-108.678 1086.3243,-91.0923"/>
<polygon fill="#191970" stroke="#191970" points="1089.7818,-90.5446 1084.9278,-81.1271 1082.8495,-91.5161 1089.7818,-90.5446"/>
</g>
<!-- Node4 -->
<g id="node5" class="node">
<title>Node4</title>
<g id="a_node5"><a xlink:href="fold__compound_8h.html" target="_top" xlink:title="The Basic Fold Compound API. ">
<polygon fill="none" stroke="#000000" points="504,-196 504,-215 648,-215 648,-196 504,-196"/>
<text text-anchor="middle" x="576" y="-203" font-family="Helvetica,sans-Serif" font-size="10.00" fill="#000000">ViennaRNA/fold_compound.h</text>
</a>
</g>
</g>
<!-- Node1&#45;&gt;Node4 -->
<g id="edge4" class="edge">
<title>Node1&#45;&gt;Node4</title>
<path fill="none" stroke="#191970" d="M735.4688,-257.3906C703.0134,-246.8298 650.7419,-229.8208 614.9514,-218.1747"/>
<polygon fill="#191970" stroke="#191970" points="615.9161,-214.808 605.3239,-215.0419 613.7501,-221.4645 615.9161,-214.808"/>
</g>
<!-- Node5 -->
<g id="node6" class="node">
<title>Node5</title>
<g id="a_node6"><a xlink:href="model_8h.html" target="_top" xlink:title="The model details data structure and its corresponding modifiers. ">
<polygon fill="none" stroke="#000000" points="879,-62 879,-81 983,-81 983,-62 879,-62"/>
<text text-anchor="middle" x="931" y="-69" font-family="Helvetica,sans-Serif" font-size="10.00" fill="#000000">ViennaRNA/model.h</text>
</a>
</g>
</g>
<!-- Node1&#45;&gt;Node5 -->
<g id="edge29" class="edge">
<title>Node1&#45;&gt;Node5</title>
<path fill="none" stroke="#191970" d="M824.9737,-257.4398C848.4779,-250.8448 873.864,-239.7259 891,-221 924.4397,-184.4577 930.4608,-123.0136 931.212,-91.4856"/>
<polygon fill="#191970" stroke="#191970" points="934.713,-91.3522 931.2913,-81.3251 927.7132,-91.2975 934.713,-91.3522"/>
</g>
<!-- Node1&#45;&gt;Node6 -->
<g id="edge30" class="edge">
<title>Node1&#45;&gt;Node6</title>
<path fill="none" stroke="#191970" d="M837.1631,-257.4554C869.2073,-250.8629 906.2547,-239.7416 936,-221 962.0485,-204.5877 983.1665,-175.0922 997.3041,-156.1756"/>
<polygon fill="#191970" stroke="#191970" points="1000.2001,-158.15 1003.4876,-148.0781 994.6367,-153.9016 1000.2001,-158.15"/>
</g>
<!-- Node7 -->
<g id="node8" class="node">
<title>Node7</title>
<g id="a_node8"><a xlink:href="dp__matrices_8h.html" target="_top" xlink:title="Functions to deal with standard dynamic programming (DP) matrices. ">
<polygon fill="none" stroke="#000000" points="67.5,-129 67.5,-148 198.5,-148 198.5,-129 67.5,-129"/>
<text text-anchor="middle" x="133" y="-136" font-family="Helvetica,sans-Serif" font-size="10.00" fill="#000000">ViennaRNA/dp_matrices.h</text>
</a>
</g>
</g>
<!-- Node1&#45;&gt;Node7 -->
<g id="edge31" class="edge">
<title>Node1&#45;&gt;Node7</title>
<path fill="none" stroke="#191970" d="M691.937,-263.9996C549.8449,-257.5361 246.7564,-241.2314 204,-221 174.2247,-206.911 149.58,-176.6792 138.2475,-156.9873"/>
<polygon fill="#191970" stroke="#191970" points="141.3444,-155.3558 133.683,-148.0377 135.1086,-158.5362 141.3444,-155.3558"/>
</g>
<!-- Node8 -->
<g id="node9" class="node">
<title>Node8</title>
<g id="a_node9"><a xlink:href="constraints_8h.html" target="_top" xlink:title="Functions and data structures for constraining secondary structure predictions and evaluation...">
<polygon fill="none" stroke="#000000" points="389,-129 389,-148 515,-148 515,-129 389,-129"/>
<text text-anchor="middle" x="452" y="-136" font-family="Helvetica,sans-Serif" font-size="10.00" fill="#000000">ViennaRNA/constraints.h</text>
</a>
</g>
</g>
<!-- Node1&#45;&gt;Node8 -->
<g id="edge32" class="edge">
<title>Node1&#45;&gt;Node8</title>
<path fill="none" stroke="#191970" d="M691.6826,-262.3963C620.083,-256.4544 517.6128,-244.0269 486,-221 465.1552,-205.8166 453.5853,-177.4812 450.0128,-158.3054"/>
<polygon fill="#191970" stroke="#191970" points="453.4731,-157.7624 448.8238,-148.2422 446.5214,-158.5838 453.4731,-157.7624"/>
</g>
<!-- Node14 -->
<g id="node15" class="node">
<title>Node14</title>
<g id="a_node15"><a xlink:href="grammar_8h.html" target="_top" xlink:title="Implementations for the RNA folding grammar. ">
<polygon fill="none" stroke="#000000" points="255,-129 255,-148 371,-148 371,-129 255,-129"/>
<text text-anchor="middle" x="313" y="-136" font-family="Helvetica,sans-Serif" font-size="10.00" fill="#000000">ViennaRNA/grammar.h</text>
</a>
</g>
</g>
<!-- Node1&#45;&gt;Node14 -->
<g id="edge33" class="edge">
<title>Node1&#45;&gt;Node14</title>
<path fill="none" stroke="#191970" d="M691.7548,-263.3046C628.1147,-258.3615 534.4307,-246.9684 457,-221 408.1152,-204.6052 356.3317,-173.3465 329.9689,-154.367"/>
<polygon fill="#191970" stroke="#191970" points="331.8524,-151.4049 321.7506,-148.2104 327.6555,-157.0072 331.8524,-151.4049"/>
</g>
<!-- Node15 -->
<g id="node16" class="node">
<title>Node15</title>
<g id="a_node16"><a xlink:href="structured__domains_8h.html" target="_top" xlink:title="This module provides interfaces that deal with additional structured domains in the folding grammar...">
<polygon fill="none" stroke="#000000" points="571.5,-123.5 571.5,-153.5 684.5,-153.5 684.5,-123.5 571.5,-123.5"/>
<text text-anchor="start" x="579.5" y="-141.5" font-family="Helvetica,sans-Serif" font-size="10.00" fill="#000000">ViennaRNA/structured</text>
<text text-anchor="middle" x="628" y="-130.5" font-family="Helvetica,sans-Serif" font-size="10.00" fill="#000000">_domains.h</text>
</a>
</g>
</g>
<!-- Node1&#45;&gt;Node15 -->
<g id="edge34" class="edge">
<title>Node1&#45;&gt;Node15</title>
<path fill="none" stroke="#191970" d="M754.7027,-257.3416C732.9957,-236.9814 682.0545,-189.2007 651.7897,-160.8137"/>
<polygon fill="#191970" stroke="#191970" points="653.8953,-157.99 644.2072,-153.7016 649.1065,-163.0956 653.8953,-157.99"/>
</g>
<!-- Node16 -->
<g id="node17" class="node">
<title>Node16</title>
<g id="a_node17"><a xlink:href="unstructured__domains_8h.html" target="_top" xlink:title="Functions to modify unstructured domains, e.g. to incorporate ligands binding to unpaired stretches...">
<polygon fill="none" stroke="#000000" points="703,-123.5 703,-153.5 827,-153.5 827,-123.5 703,-123.5"/>
<text text-anchor="start" x="711" y="-141.5" font-family="Helvetica,sans-Serif" font-size="10.00" fill="#000000">ViennaRNA/unstructured</text>
<text text-anchor="middle" x="765" y="-130.5" font-family="Helvetica,sans-Serif" font-size="10.00" fill="#000000">_domains.h</text>
</a>
</g>
</g>
<!-- Node1&#45;&gt;Node16 -->
<g id="edge35" class="edge">
<title>Node1&#45;&gt;Node16</title>
<path fill="none" stroke="#191970" d="M761.2266,-257.3416C757.954,-237.6745 757.3799,-192.4221 759.5043,-163.7784"/>
<polygon fill="#191970" stroke="#191970" points="763.0002,-163.9851 760.4507,-153.7016 756.0309,-163.3305 763.0002,-163.9851"/>
</g>
<!-- Node17 -->
<g id="node18" class="node">
<title>Node17</title>
<g id="a_node18"><a xlink:href="structure__utils_8h.html" target="_top" xlink:title="Various utility&#45; and helper&#45;functions for secondary structure parsing, converting, etc. ">
<polygon fill="none" stroke="#000000" points="1053,-190.5 1053,-220.5 1161,-220.5 1161,-190.5 1053,-190.5"/>
<text text-anchor="start" x="1061" y="-208.5" font-family="Helvetica,sans-Serif" font-size="10.00" fill="#000000">ViennaRNA/structure</text>
<text text-anchor="middle" x="1107" y="-197.5" font-family="Helvetica,sans-Serif" font-size="10.00" fill="#000000">_utils.h</text>
</a>
</g>
</g>
<!-- Node1&#45;&gt;Node17 -->
<g id="edge36" class="edge">
<title>Node1&#45;&gt;Node17</title>
<path fill="none" stroke="#191970" d="M820.9279,-257.4774C874.692,-248.8171 957.957,-235.2458 1030,-221 1034.1426,-220.1808 1038.4185,-219.2972 1042.7372,-218.3819"/>
<polygon fill="#191970" stroke="#191970" points="1043.8106,-221.731 1052.8495,-216.204 1042.3367,-214.888 1043.8106,-221.731"/>
</g>
<!-- Node3 -->
<g id="node4" class="node">
<title>Node3</title>
<polygon fill="none" stroke="#bfbfbf" points="1059,-.5 1059,-19.5 1107,-19.5 1107,-.5 1059,-.5"/>
<text text-anchor="middle" x="1083" y="-7.5" font-family="Helvetica,sans-Serif" font-size="10.00" fill="#000000">limits.h</text>
</g>
<!-- Node2&#45;&gt;Node3 -->
<g id="edge3" class="edge">
<title>Node2&#45;&gt;Node3</title>
<path fill="none" stroke="#191970" d="M1083,-61.8906C1083,-53.3657 1083,-40.6392 1083,-29.9235"/>
<polygon fill="#191970" stroke="#191970" points="1086.5001,-29.7448 1083,-19.7449 1079.5001,-29.7449 1086.5001,-29.7448"/>
</g>
<!-- Node4&#45;&gt;Node5 -->
<g id="edge5" class="edge">
<title>Node4&#45;&gt;Node5</title>
<path fill="none" stroke="#191970" d="M569.9214,-195.7615C560.1966,-178.8097 543.9765,-143.7137 562,-123 571.9674,-111.5449 765.8923,-89.1813 868.5101,-78.0787"/>
<polygon fill="#191970" stroke="#191970" points="869.1811,-81.5268 878.7486,-76.9756 868.4312,-74.567 869.1811,-81.5268"/>
</g>
<!-- Node4&#45;&gt;Node6 -->
<g id="edge6" class="edge">
<title>Node4&#45;&gt;Node6</title>
<path fill="none" stroke="#191970" d="M638.2896,-195.9717C720.6739,-183.3695 865.1911,-161.263 948.9411,-148.4519"/>
<polygon fill="#191970" stroke="#191970" points="949.4893,-151.9089 958.845,-146.9369 948.4308,-144.9894 949.4893,-151.9089"/>
</g>
<!-- Node4&#45;&gt;Node7 -->
<g id="edge10" class="edge">
<title>Node4&#45;&gt;Node7</title>
<path fill="none" stroke="#191970" d="M512.9994,-195.9717C432.0026,-183.7216 291.626,-162.4908 206.0425,-149.5471"/>
<polygon fill="#191970" stroke="#191970" points="206.5525,-146.0845 196.1415,-148.0496 205.5057,-153.0058 206.5525,-146.0845"/>
</g>
<!-- Node4&#45;&gt;Node8 -->
<g id="edge12" class="edge">
<title>Node4&#45;&gt;Node8</title>
<path fill="none" stroke="#191970" d="M558.2338,-195.9005C537.4238,-184.6564 502.7412,-165.9166 478.6913,-152.9219"/>
<polygon fill="#191970" stroke="#191970" points="480.1949,-149.7561 469.7332,-148.0817 476.8673,-155.9147 480.1949,-149.7561"/>
</g>
<!-- Node4&#45;&gt;Node14 -->
<g id="edge24" class="edge">
<title>Node4&#45;&gt;Node14</title>
<path fill="none" stroke="#191970" d="M538.5978,-195.9717C491.7986,-184.0495 411.6086,-163.6208 360.5119,-150.6038"/>
<polygon fill="#191970" stroke="#191970" points="361.2535,-147.181 350.699,-148.1039 359.5254,-153.9643 361.2535,-147.181"/>
</g>
<!-- Node4&#45;&gt;Node15 -->
<g id="edge26" class="edge">
<title>Node4&#45;&gt;Node15</title>
<path fill="none" stroke="#191970" d="M583.4503,-195.9005C590.3653,-186.9908 600.933,-173.3748 610.0407,-161.6399"/>
<polygon fill="#191970" stroke="#191970" points="612.975,-163.5676 616.3413,-153.5218 607.4451,-159.2757 612.975,-163.5676"/>
</g>
<!-- Node4&#45;&gt;Node16 -->
<g id="edge27" class="edge">
<title>Node4&#45;&gt;Node16</title>
<path fill="none" stroke="#191970" d="M603.0791,-195.9005C631.6286,-185.7798 677.3086,-169.5864 712.8822,-156.9756"/>
<polygon fill="#191970" stroke="#191970" points="714.3693,-160.1619 722.6252,-153.5218 712.0304,-153.5642 714.3693,-160.1619"/>
</g>
<!-- Node6&#45;&gt;Node1 -->
<g id="edge8" class="edge">
<title>Node6&#45;&gt;Node1</title>
<path fill="none" stroke="#191970" d="M1014.0119,-148.0781C1007.7319,-165.4216 984.1738,-201.9884 954,-221 922.7048,-240.7182 883.3266,-252.0012 848.5783,-258.4494"/>
<polygon fill="#191970" stroke="#191970" points="847.6842,-255.0526 838.4356,-260.2212 848.8887,-261.9481 847.6842,-255.0526"/>
</g>
<!-- Node6&#45;&gt;Node2 -->
<g id="edge7" class="edge">
<title>Node6&#45;&gt;Node2</title>
<path fill="none" stroke="#191970" d="M1023.886,-128.9005C1034.7484,-118.353 1052.4035,-101.2096 1065.5957,-88.3998"/>
<polygon fill="#191970" stroke="#191970" points="1068.3962,-90.559 1073.1323,-81.0817 1063.5198,-85.537 1068.3962,-90.559"/>
</g>
<!-- Node6&#45;&gt;Node5 -->
<g id="edge9" class="edge">
<title>Node6&#45;&gt;Node5</title>
<path fill="none" stroke="#191970" d="M1002.1081,-128.9005C988.7952,-118.1539 967.0001,-100.5603 951.0432,-87.6794"/>
<polygon fill="#191970" stroke="#191970" points="952.8494,-84.6395 942.8698,-81.0817 948.4526,-90.0863 952.8494,-84.6395"/>
</g>
<!-- Node7&#45;&gt;Node1 -->
<g id="edge11" class="edge">
<title>Node7&#45;&gt;Node1</title>
<path fill="none" stroke="#191970" d="M143.97,-148.0377C159.399,-166.0031 187.1942,-204.5306 222,-221 262.7055,-240.261 539.3674,-255.9629 681.374,-263.0022"/>
<polygon fill="#191970" stroke="#191970" points="681.6164,-266.5183 691.7764,-263.5143 681.9606,-259.5267 681.6164,-266.5183"/>
</g>
<!-- Node8&#45;&gt;Node1 -->
<g id="edge13" class="edge">
<title>Node8&#45;&gt;Node1</title>
<path fill="none" stroke="#191970" d="M459.3481,-148.2422C467.4011,-165.8523 479.0642,-202.8366 504,-221 532.0921,-241.4624 616.1377,-253.5548 681.401,-260.1641"/>
<polygon fill="#191970" stroke="#191970" points="681.4079,-263.6816 691.7027,-261.1782 682.0937,-256.7153 681.4079,-263.6816"/>
</g>
<!-- Node9 -->
<g id="node10" class="node">
<title>Node9</title>
<g id="a_node10"><a xlink:href="constraints__hard_8h.html" target="_top" xlink:title="Functions and data structures for handling of secondary structure hard constraints. ">
<polygon fill="none" stroke="#000000" points="446,-56.5 446,-86.5 564,-86.5 564,-56.5 446,-56.5"/>
<text text-anchor="start" x="454" y="-74.5" font-family="Helvetica,sans-Serif" font-size="10.00" fill="#000000">ViennaRNA/constraints</text>
<text text-anchor="middle" x="505" y="-63.5" font-family="Helvetica,sans-Serif" font-size="10.00" fill="#000000">_hard.h</text>
</a>
</g>
</g>
<!-- Node8&#45;&gt;Node9 -->
<g id="edge14" class="edge">
<title>Node8&#45;&gt;Node9</title>
<path fill="none" stroke="#191970" d="M459.5936,-128.9005C466.6416,-119.9908 477.4125,-106.3748 486.6953,-94.6399"/>
<polygon fill="#191970" stroke="#191970" points="489.658,-96.536 493.1171,-86.5218 484.168,-92.1932 489.658,-96.536"/>
</g>
<!-- Node10 -->
<g id="node11" class="node">
<title>Node10</title>
<g id="a_node11"><a xlink:href="constraints__soft_8h.html" target="_top" xlink:title="Functions and data structures for secondary structure soft constraints. ">
<polygon fill="none" stroke="#000000" points="636,-56.5 636,-86.5 754,-86.5 754,-56.5 636,-56.5"/>
<text text-anchor="start" x="644" y="-74.5" font-family="Helvetica,sans-Serif" font-size="10.00" fill="#000000">ViennaRNA/constraints</text>
<text text-anchor="middle" x="695" y="-63.5" font-family="Helvetica,sans-Serif" font-size="10.00" fill="#000000">_soft.h</text>
</a>
</g>
</g>
<!-- Node8&#45;&gt;Node10 -->
<g id="edge16" class="edge">
<title>Node8&#45;&gt;Node10</title>
<path fill="none" stroke="#191970" d="M486.5579,-128.9717C523.9126,-118.6723 584.2917,-102.0245 630.4743,-89.291"/>
<polygon fill="#191970" stroke="#191970" points="631.6863,-92.5875 640.3963,-86.5553 629.8257,-85.8393 631.6863,-92.5875"/>
</g>
<!-- Node11 -->
<g id="node12" class="node">
<title>Node11</title>
<g id="a_node12"><a xlink:href="constraints__SHAPE_8h.html" target="_top" xlink:title="This module provides function to incorporate SHAPE reactivity data into the folding recursions by mea...">
<polygon fill="none" stroke="#000000" points="0,-56.5 0,-86.5 118,-86.5 118,-56.5 0,-56.5"/>
<text text-anchor="start" x="8" y="-74.5" font-family="Helvetica,sans-Serif" font-size="10.00" fill="#000000">ViennaRNA/constraints</text>
<text text-anchor="middle" x="59" y="-63.5" font-family="Helvetica,sans-Serif" font-size="10.00" fill="#000000">_SHAPE.h</text>
</a>
</g>
</g>
<!-- Node8&#45;&gt;Node11 -->
<g id="edge18" class="edge">
<title>Node8&#45;&gt;Node11</title>
<path fill="none" stroke="#191970" d="M409.8241,-128.9819C400.0539,-126.899 389.6823,-124.7854 380,-123 276.5209,-103.9191 249.8034,-104.2293 146,-87 140.2795,-86.0505 134.3516,-85.0435 128.4024,-84.0167"/>
<polygon fill="#191970" stroke="#191970" points="128.855,-80.5429 118.403,-82.2765 127.6549,-87.4393 128.855,-80.5429"/>
</g>
<!-- Node12 -->
<g id="node13" class="node">
<title>Node12</title>
<g id="a_node13"><a xlink:href="perturbation__fold_8h.html" target="_top" xlink:title="Find a vector of perturbation energies that minimizes the discripancies between predicted and observe...">
<polygon fill="none" stroke="#000000" points="155.5,-56.5 155.5,-86.5 276.5,-86.5 276.5,-56.5 155.5,-56.5"/>
<text text-anchor="start" x="163.5" y="-74.5" font-family="Helvetica,sans-Serif" font-size="10.00" fill="#000000">ViennaRNA/perturbation</text>
<text text-anchor="middle" x="216" y="-63.5" font-family="Helvetica,sans-Serif" font-size="10.00" fill="#000000">_fold.h</text>
</a>
</g>
</g>
<!-- Node8&#45;&gt;Node12 -->
<g id="edge20" class="edge">
<title>Node8&#45;&gt;Node12</title>
<path fill="none" stroke="#191970" d="M418.4376,-128.9717C382.159,-118.6723 323.5192,-102.0245 278.6669,-89.291"/>
<polygon fill="#191970" stroke="#191970" points="279.6065,-85.9195 269.0308,-86.5553 277.6947,-92.6534 279.6065,-85.9195"/>
</g>
<!-- Node13 -->
<g id="node14" class="node">
<title>Node13</title>
<g id="a_node14"><a xlink:href="constraints__ligand_8h.html" target="_top" xlink:title="Functions for incorporation of ligands binding to hairpin and interior loop motifs using the soft con...">
<polygon fill="none" stroke="#000000" points="305,-56.5 305,-86.5 423,-86.5 423,-56.5 305,-56.5"/>
<text text-anchor="start" x="313" y="-74.5" font-family="Helvetica,sans-Serif" font-size="10.00" fill="#000000">ViennaRNA/constraints</text>
<text text-anchor="middle" x="364" y="-63.5" font-family="Helvetica,sans-Serif" font-size="10.00" fill="#000000">_ligand.h</text>
</a>
</g>
</g>
<!-- Node8&#45;&gt;Node13 -->
<g id="edge22" class="edge">
<title>Node8&#45;&gt;Node13</title>
<path fill="none" stroke="#191970" d="M439.3917,-128.9005C427.0078,-119.4718 407.7012,-104.7725 391.726,-92.6096"/>
<polygon fill="#191970" stroke="#191970" points="393.8067,-89.7948 383.7301,-86.5218 389.5663,-95.3643 393.8067,-89.7948"/>
</g>
<!-- Node9&#45;&gt;Node1 -->
<g id="edge15" class="edge">
<title>Node9&#45;&gt;Node1</title>
<path fill="none" stroke="#191970" d="M564.3449,-79.7409C658.3977,-92.9385 831.5963,-117.8582 836,-123 870.1203,-162.8395 815.7119,-221.9195 784.491,-250.4252"/>
<polygon fill="#191970" stroke="#191970" points="781.9061,-248.0401 776.7564,-257.2992 786.5561,-253.2724 781.9061,-248.0401"/>
</g>
<!-- Node10&#45;&gt;Node1 -->
<g id="edge17" class="edge">
<title>Node10&#45;&gt;Node1</title>
<path fill="none" stroke="#191970" d="M754.3266,-81.2912C799.0734,-90.0277 855.0494,-104.3221 869,-123 895.0642,-157.8962 892.7666,-184.5002 869,-221 858.7287,-236.7743 841.6825,-247.1793 824.3325,-254.0265"/>
<polygon fill="#191970" stroke="#191970" points="822.9372,-250.8085 814.7035,-257.476 825.298,-257.3984 822.9372,-250.8085"/>
</g>
<!-- Node11&#45;&gt;Node1 -->
<g id="edge19" class="edge">
<title>Node11&#45;&gt;Node1</title>
<path fill="none" stroke="#191970" d="M55.2499,-86.7114C52.9341,-96.906 50.186,-110.6701 49,-123 44.5572,-169.1882 46.001,-195.8571 85,-221 134.0336,-252.6123 511.1023,-262.8181 681.6712,-265.8381"/>
<polygon fill="#191970" stroke="#191970" points="681.8024,-269.3408 691.8615,-266.0143 681.9235,-262.3419 681.8024,-269.3408"/>
</g>
<!-- Node12&#45;&gt;Node1 -->
<g id="edge21" class="edge">
<title>Node12&#45;&gt;Node1</title>
<path fill="none" stroke="#191970" d="M155.3841,-83.5721C116.0044,-92.7859 69.8631,-106.6558 58,-123 49.9068,-134.1502 51.2038,-142.015 58,-154 86.612,-204.4569 114.7272,-203.4084 170,-221 262.9458,-250.5817 541.0399,-261.5329 681.649,-265.2565"/>
<polygon fill="#191970" stroke="#191970" points="681.8547,-268.7629 691.9419,-265.5227 682.0357,-261.7653 681.8547,-268.7629"/>
</g>
<!-- Node13&#45;&gt;Node1 -->
<g id="edge23" class="edge">
<title>Node13&#45;&gt;Node1</title>
<path fill="none" stroke="#191970" d="M304.8511,-82.8807C282.5034,-90.367 259.2834,-102.7092 246,-123 238.4536,-134.5273 238.5468,-142.4122 246,-154 292.5514,-226.3759 547.0842,-253.2817 681.5964,-262.5484"/>
<polygon fill="#191970" stroke="#191970" points="681.6472,-266.0596 691.8592,-263.2373 682.116,-259.0753 681.6472,-266.0596"/>
</g>
<!-- Node14&#45;&gt;Node1 -->
<g id="edge25" class="edge">
<title>Node14&#45;&gt;Node1</title>
<path fill="none" stroke="#191970" d="M332.2749,-148.2104C362.0804,-165.7688 420.3515,-202.6722 475,-221 542.783,-243.7328 623.0213,-255.2961 681.9505,-261.1408"/>
<polygon fill="#191970" stroke="#191970" points="681.6694,-264.6298 691.9574,-262.0988 682.3365,-257.6616 681.6694,-264.6298"/>
</g>
<!-- Node16&#45;&gt;Node1 -->
<g id="edge28" class="edge">
<title>Node16&#45;&gt;Node1</title>
<path fill="none" stroke="#191970" d="M769.5493,-153.7016C772.3136,-176.9952 772.4737,-221.5195 770.0296,-247.2718"/>
<polygon fill="#191970" stroke="#191970" points="766.5383,-246.9852 768.7734,-257.3416 773.4844,-247.8518 766.5383,-246.9852"/>
</g>
<!-- Node17&#45;&gt;Node1 -->
<g id="edge38" class="edge">
<title>Node17&#45;&gt;Node1</title>
<path fill="none" stroke="#191970" d="M1052.6811,-220.0588C1051.1069,-220.3803 1049.5442,-220.6947 1048,-221 980.0375,-234.4389 902.0884,-247.2776 845.1614,-255.9593"/>
<polygon fill="#191970" stroke="#191970" points="844.5044,-252.5189 835.1415,-257.4774 845.553,-259.4399 844.5044,-252.5189"/>
</g>
<!-- Node18 -->
<g id="node19" class="node">
<title>Node18</title>
<polygon fill="none" stroke="#bfbfbf" points="1174,-129 1174,-148 1220,-148 1220,-129 1174,-129"/>
<text text-anchor="middle" x="1197" y="-136" font-family="Helvetica,sans-Serif" font-size="10.00" fill="#000000">stdio.h</text>
</g>
<!-- Node17&#45;&gt;Node18 -->
<g id="edge37" class="edge">
<title>Node17&#45;&gt;Node18</title>
<path fill="none" stroke="#191970" d="M1127.4224,-190.2967C1141.8532,-179.5537 1161.1484,-165.1895 1175.7588,-154.3129"/>
<polygon fill="#191970" stroke="#191970" points="1178.2336,-156.8339 1184.165,-148.055 1174.0536,-151.219 1178.2336,-156.8339"/>
</g>
<!-- Node19&#45;&gt;Node1 -->
<g id="edge42" class="edge">
<title>Node19&#45;&gt;Node1</title>
<path fill="none" stroke="#191970" d="M1217.0579,-317.6305C1131.9328,-308.0965 953.4545,-288.1069 848.0077,-276.2969"/>
<polygon fill="#191970" stroke="#191970" points="848.3642,-272.815 838.0367,-275.1801 847.585,-279.7715 848.3642,-272.815"/>
</g>
<!-- Node19&#45;&gt;Node18 -->
<g id="edge41" class="edge">
<title>Node19&#45;&gt;Node18</title>
<path fill="none" stroke="#191970" d="M1261.4398,-313.3402C1250.6989,-284.1978 1218.4735,-196.7626 1204.0794,-157.708"/>
<polygon fill="#191970" stroke="#191970" points="1207.2673,-156.2367 1200.525,-148.0641 1200.6992,-158.6575 1207.2673,-156.2367"/>
</g>
</g>
</svg>
