<?xml version="1.0" encoding="UTF-8" standalone="no"?>
<!DOCTYPE svg PUBLIC "-//W3C//DTD SVG 1.1//EN"
 "http://www.w3.org/Graphics/SVG/1.1/DTD/svg11.dtd">
<!-- Generated by graphviz version 2.40.1 (20161225.0304)
 -->
<!-- Title: ViennaRNA/constraints_ligand.h Pages: 1 -->
<!--zoomable 352 -->
<svg id="main" version="1.1" xmlns="http://www.w3.org/2000/svg" xmlns:xlink="http://www.w3.org/1999/xlink" xml:space="preserve" onload="init(evt)">
<style type="text/css"><![CDATA[
.edge:hover path { stroke: red; }
.edge:hover polygon { stroke: red; fill: red; }
]]></style>
<script type="text/javascript"><![CDATA[
var edges = document.getElementsByTagName('g');
if (edges && edges.length) {
  for (var i=0;i<edges.length;i++) {
    if (edges[i].id.substr(0,4)=='edge') {
      edges[i].setAttribute('class','edge');
    }
  }
}
]]></script>
        <defs>
                <circle id="rim" cx="0" cy="0" r="7"/>
                <circle id="rim2" cx="0" cy="0" r="3.5"/>
                <g id="zoomPlus">
                        <use xlink:href="#rim" fill="#404040">
                                <set attributeName="fill" to="#808080" begin="zoomplus.mouseover" end="zoomplus.mouseout"/>
                        </use>
                        <path d="M-4,0h8M0,-4v8" fill="none" stroke="white" stroke-width="1.5" pointer-events="none"/>
                </g>
                <g id="zoomMin">
                        <use xlink:href="#rim" fill="#404040">
                                <set attributeName="fill" to="#808080" begin="zoomminus.mouseover" end="zoomminus.mouseout"/>
                        </use>
                        <path d="M-4,0h8" fill="none" stroke="white" stroke-width="1.5" pointer-events="none"/>
                </g>
                <g id="dirArrow">
                        <path fill="none" stroke="white" stroke-width="1.5" d="M0,-3.0v7 M-2.5,-0.5L0,-3.0L2.5,-0.5"/>
                </g>
               <g id="resetDef">
                       <use xlink:href="#rim2" fill="#404040">
                               <set attributeName="fill" to="#808080" begin="reset.mouseover" end="reset.mouseout"/>
                       </use>
               </g>
        </defs>

<script type="text/javascript">
var viewWidth = 1255;
var viewHeight = 352;
var sectionId = 'dynsection-0';
</script>
<script xlink:href="svgpan.js"/>
<svg id="graph" class="graph">
<g id="viewport">
<title>ViennaRNA/constraints_ligand.h</title>
<!-- Node0 -->
<g id="node1" class="node">
<title>Node0</title>
<polygon fill="#bfbfbf" stroke="#000000" points="834.5053,-313.5 834.5053,-343.5 952.5053,-343.5 952.5053,-313.5 834.5053,-313.5"/>
<text text-anchor="start" x="842.5053" y="-331.5" font-family="Helvetica,sans-Serif" font-size="10.00" fill="#000000">ViennaRNA/constraints</text>
<text text-anchor="middle" x="893.5053" y="-320.5" font-family="Helvetica,sans-Serif" font-size="10.00" fill="#000000">_ligand.h</text>
</g>
<!-- Node1 -->
<g id="node2" class="node">
<title>Node1</title>
<g id="a_node2"><a xlink:href="data__structures_8h.html" target="_top" xlink:title="Various data structures and pre&#45;processor macros. ">
<polygon fill="none" stroke="#000000" points="567.5053,-257.5 567.5053,-276.5 713.5053,-276.5 713.5053,-257.5 567.5053,-257.5"/>
<text text-anchor="middle" x="640.5053" y="-264.5" font-family="Helvetica,sans-Serif" font-size="10.00" fill="#000000">ViennaRNA/data_structures.h</text>
</a>
</g>
</g>
<!-- Node0&#45;&gt;Node1 -->
<g id="edge1" class="edge">
<title>Node0&#45;&gt;Node1</title>
<path fill="none" stroke="#191970" d="M834.188,-314.081C790.2015,-303.3886 730.9479,-288.9851 689.6074,-278.9359"/>
<polygon fill="#191970" stroke="#191970" points="690.3092,-275.5046 679.7655,-276.5435 688.6557,-282.3066 690.3092,-275.5046"/>
</g>
<!-- Node2 -->
<g id="node3" class="node">
<title>Node2</title>
<g id="a_node3"><a xlink:href="energy__const_8h.html" target="_top" xlink:title="Energy parameter constants. ">
<polygon fill="none" stroke="#000000" points="549.0053,-62 549.0053,-81 686.0053,-81 686.0053,-62 549.0053,-62"/>
<text text-anchor="middle" x="617.5053" y="-69" font-family="Helvetica,sans-Serif" font-size="10.00" fill="#000000">ViennaRNA/energy_const.h</text>
</a>
</g>
</g>
<!-- Node1&#45;&gt;Node2 -->
<g id="edge2" class="edge">
<title>Node1&#45;&gt;Node2</title>
<path fill="none" stroke="#191970" d="M648.9761,-257.1474C670.5634,-231.9328 726.2431,-166.1927 730.5053,-154 735.0518,-140.994 737.9586,-134.5877 730.5053,-123 718.3226,-104.0594 697.2681,-92.0013 676.6102,-84.3625"/>
<polygon fill="#191970" stroke="#191970" points="677.4564,-80.9537 666.8621,-81.056 675.2078,-87.5828 677.4564,-80.9537"/>
</g>
<!-- Node4 -->
<g id="node5" class="node">
<title>Node4</title>
<g id="a_node5"><a xlink:href="fold__compound_8h.html" target="_top" xlink:title="The Basic Fold Compound API. ">
<polygon fill="none" stroke="#000000" points="389.5053,-196 389.5053,-215 533.5053,-215 533.5053,-196 389.5053,-196"/>
<text text-anchor="middle" x="461.5053" y="-203" font-family="Helvetica,sans-Serif" font-size="10.00" fill="#000000">ViennaRNA/fold_compound.h</text>
</a>
</g>
</g>
<!-- Node1&#45;&gt;Node4 -->
<g id="edge4" class="edge">
<title>Node1&#45;&gt;Node4</title>
<path fill="none" stroke="#191970" d="M612.5365,-257.3906C581.9298,-246.8749 532.7154,-229.966 498.8312,-218.3243"/>
<polygon fill="#191970" stroke="#191970" points="499.8723,-214.9812 489.2776,-215.0419 497.5977,-221.6014 499.8723,-214.9812"/>
</g>
<!-- Node5 -->
<g id="node6" class="node">
<title>Node5</title>
<g id="a_node6"><a xlink:href="model_8h.html" target="_top" xlink:title="The model details data structure and its corresponding modifiers. ">
<polygon fill="none" stroke="#000000" points="389.5053,-62 389.5053,-81 493.5053,-81 493.5053,-62 389.5053,-62"/>
<text text-anchor="middle" x="441.5053" y="-69" font-family="Helvetica,sans-Serif" font-size="10.00" fill="#000000">ViennaRNA/model.h</text>
</a>
</g>
</g>
<!-- Node1&#45;&gt;Node5 -->
<g id="edge28" class="edge">
<title>Node1&#45;&gt;Node5</title>
<path fill="none" stroke="#191970" d="M567.4534,-264.4017C479.6652,-260.1228 328.3322,-249.0519 201.5053,-221 112.0282,-201.2093 59.7453,-228.5877 6.5053,-154 -1.4992,-142.7859 -2.6465,-133.2992 6.5053,-123 30.8386,-95.6159 264.9773,-80.2787 379.3059,-74.3672"/>
<polygon fill="#191970" stroke="#191970" points="379.5119,-77.8614 389.3211,-73.8577 379.1562,-70.8704 379.5119,-77.8614"/>
</g>
<!-- Node6 -->
<g id="node7" class="node">
<title>Node6</title>
<g id="a_node7"><a xlink:href="params_8h.html" target="_top" xlink:title="Functions to deal with sets of energy parameters. ">
<polygon fill="none" stroke="#000000" points="469.5053,-129 469.5053,-148 579.5053,-148 579.5053,-129 469.5053,-129"/>
<text text-anchor="middle" x="524.5053" y="-136" font-family="Helvetica,sans-Serif" font-size="10.00" fill="#000000">ViennaRNA/params.h</text>
</a>
</g>
</g>
<!-- Node1&#45;&gt;Node6 -->
<g id="edge29" class="edge">
<title>Node1&#45;&gt;Node6</title>
<path fill="none" stroke="#191970" d="M628.0131,-257.3416C605.0394,-235.8533 557.715,-183.8216 535.7212,-156.2817"/>
<polygon fill="#191970" stroke="#191970" points="538.4162,-154.0451 529.5334,-148.2705 532.8763,-158.3241 538.4162,-154.0451"/>
</g>
<!-- Node7 -->
<g id="node8" class="node">
<title>Node7</title>
<g id="a_node8"><a xlink:href="dp__matrices_8h.html" target="_top" xlink:title="Functions to deal with standard dynamic programming (DP) matrices. ">
<polygon fill="none" stroke="#000000" points="16.0053,-129 16.0053,-148 147.0053,-148 147.0053,-129 16.0053,-129"/>
<text text-anchor="middle" x="81.5053" y="-136" font-family="Helvetica,sans-Serif" font-size="10.00" fill="#000000">ViennaRNA/dp_matrices.h</text>
</a>
</g>
</g>
<!-- Node1&#45;&gt;Node7 -->
<g id="edge30" class="edge">
<title>Node1&#45;&gt;Node7</title>
<path fill="none" stroke="#191970" d="M567.3663,-262.9316C494.5383,-257.5196 380.2982,-245.6087 284.5053,-221 217.437,-203.7705 142.7936,-171.4429 105.3029,-152.7803"/>
<polygon fill="#191970" stroke="#191970" points="106.6727,-149.55 96.1741,-148.125 103.4926,-155.786 106.6727,-149.55"/>
</g>
<!-- Node8 -->
<g id="node9" class="node">
<title>Node8</title>
<g id="a_node9"><a xlink:href="constraints_8h.html" target="_top" xlink:title="Functions and data structures for constraining secondary structure predictions and evaluation...">
<polygon fill="none" stroke="#000000" points="917.5053,-129 917.5053,-148 1043.5053,-148 1043.5053,-129 917.5053,-129"/>
<text text-anchor="middle" x="980.5053" y="-136" font-family="Helvetica,sans-Serif" font-size="10.00" fill="#000000">ViennaRNA/constraints.h</text>
</a>
</g>
</g>
<!-- Node1&#45;&gt;Node8 -->
<g id="edge31" class="edge">
<title>Node1&#45;&gt;Node8</title>
<path fill="none" stroke="#191970" d="M713.6308,-258.624C777.192,-250.7656 863.6328,-237.7261 894.5053,-221 923.3164,-205.3907 947.3475,-174.9639 963.0566,-155.7432"/>
<polygon fill="#191970" stroke="#191970" points="965.7678,-157.9569 969.4724,-148.0308 960.3864,-153.4802 965.7678,-157.9569"/>
</g>
<!-- Node13 -->
<g id="node14" class="node">
<title>Node13</title>
<g id="a_node14"><a xlink:href="grammar_8h.html" target="_top" xlink:title="Implementations for the RNA folding grammar. ">
<polygon fill="none" stroke="#000000" points="165.5053,-129 165.5053,-148 281.5053,-148 281.5053,-129 165.5053,-129"/>
<text text-anchor="middle" x="223.5053" y="-136" font-family="Helvetica,sans-Serif" font-size="10.00" fill="#000000">ViennaRNA/grammar.h</text>
</a>
</g>
</g>
<!-- Node1&#45;&gt;Node13 -->
<g id="edge32" class="edge">
<title>Node1&#45;&gt;Node13</title>
<path fill="none" stroke="#191970" d="M567.4322,-263.3296C507.4042,-258.4414 421.2239,-247.1166 350.5053,-221 306.6306,-204.797 261.284,-173.9242 238.2223,-154.8838"/>
<polygon fill="#191970" stroke="#191970" points="240.376,-152.119 230.5243,-148.221 235.7949,-157.4118 240.376,-152.119"/>
</g>
<!-- Node14 -->
<g id="node15" class="node">
<title>Node14</title>
<g id="a_node15"><a xlink:href="structured__domains_8h.html" target="_top" xlink:title="This module provides interfaces that deal with additional structured domains in the folding grammar...">
<polygon fill="none" stroke="#000000" points="300.0053,-123.5 300.0053,-153.5 413.0053,-153.5 413.0053,-123.5 300.0053,-123.5"/>
<text text-anchor="start" x="308.0053" y="-141.5" font-family="Helvetica,sans-Serif" font-size="10.00" fill="#000000">ViennaRNA/structured</text>
<text text-anchor="middle" x="356.5053" y="-130.5" font-family="Helvetica,sans-Serif" font-size="10.00" fill="#000000">_domains.h</text>
</a>
</g>
</g>
<!-- Node1&#45;&gt;Node14 -->
<g id="edge33" class="edge">
<title>Node1&#45;&gt;Node14</title>
<path fill="none" stroke="#191970" d="M567.2204,-262.5716C500.1793,-257.041 407.4567,-245.1876 380.5053,-221 364.5434,-206.6749 358.9406,-182.4168 357.0958,-163.9021"/>
<polygon fill="#191970" stroke="#191970" points="360.5776,-163.517 356.394,-153.7832 353.5944,-164.0014 360.5776,-163.517"/>
</g>
<!-- Node15 -->
<g id="node16" class="node">
<title>Node15</title>
<g id="a_node16"><a xlink:href="unstructured__domains_8h.html" target="_top" xlink:title="Functions to modify unstructured domains, e.g. to incorporate ligands binding to unpaired stretches...">
<polygon fill="none" stroke="#000000" points="597.5053,-123.5 597.5053,-153.5 721.5053,-153.5 721.5053,-123.5 597.5053,-123.5"/>
<text text-anchor="start" x="605.5053" y="-141.5" font-family="Helvetica,sans-Serif" font-size="10.00" fill="#000000">ViennaRNA/unstructured</text>
<text text-anchor="middle" x="659.5053" y="-130.5" font-family="Helvetica,sans-Serif" font-size="10.00" fill="#000000">_domains.h</text>
</a>
</g>
</g>
<!-- Node1&#45;&gt;Node15 -->
<g id="edge34" class="edge">
<title>Node1&#45;&gt;Node15</title>
<path fill="none" stroke="#191970" d="M638.16,-257.3416C637.7954,-237.6745 643.9123,-192.4221 650.272,-163.7784"/>
<polygon fill="#191970" stroke="#191970" points="653.7601,-164.2441 652.7082,-153.7016 646.9562,-162.599 653.7601,-164.2441"/>
</g>
<!-- Node16 -->
<g id="node17" class="node">
<title>Node16</title>
<g id="a_node17"><a xlink:href="structure__utils_8h.html" target="_top" xlink:title="Various utility&#45; and helper&#45;functions for secondary structure parsing, converting, etc. ">
<polygon fill="none" stroke="#000000" points="715.5053,-190.5 715.5053,-220.5 823.5053,-220.5 823.5053,-190.5 715.5053,-190.5"/>
<text text-anchor="start" x="723.5053" y="-208.5" font-family="Helvetica,sans-Serif" font-size="10.00" fill="#000000">ViennaRNA/structure</text>
<text text-anchor="middle" x="769.5053" y="-197.5" font-family="Helvetica,sans-Serif" font-size="10.00" fill="#000000">_utils.h</text>
</a>
</g>
</g>
<!-- Node1&#45;&gt;Node16 -->
<g id="edge35" class="edge">
<title>Node1&#45;&gt;Node16</title>
<path fill="none" stroke="#191970" d="M655.599,-257.3906C672.1667,-248.682 699.2145,-235.5888 722.8512,-224.7336"/>
<polygon fill="#191970" stroke="#191970" points="724.4007,-227.8739 732.0513,-220.5446 721.4999,-221.5033 724.4007,-227.8739"/>
</g>
<!-- Node3 -->
<g id="node4" class="node">
<title>Node3</title>
<polygon fill="none" stroke="#bfbfbf" points="593.5053,-.5 593.5053,-19.5 641.5053,-19.5 641.5053,-.5 593.5053,-.5"/>
<text text-anchor="middle" x="617.5053" y="-7.5" font-family="Helvetica,sans-Serif" font-size="10.00" fill="#000000">limits.h</text>
</g>
<!-- Node2&#45;&gt;Node3 -->
<g id="edge3" class="edge">
<title>Node2&#45;&gt;Node3</title>
<path fill="none" stroke="#191970" d="M617.5053,-61.8906C617.5053,-53.3657 617.5053,-40.6392 617.5053,-29.9235"/>
<polygon fill="#191970" stroke="#191970" points="621.0054,-29.7448 617.5053,-19.7449 614.0054,-29.7449 621.0054,-29.7448"/>
</g>
<!-- Node4&#45;&gt;Node5 -->
<g id="edge5" class="edge">
<title>Node4&#45;&gt;Node5</title>
<path fill="none" stroke="#191970" d="M460.0669,-195.8631C456.8092,-174.0364 448.8128,-120.4605 444.4544,-91.2589"/>
<polygon fill="#191970" stroke="#191970" points="447.8685,-90.4234 442.9306,-81.0496 440.9452,-91.4568 447.8685,-90.4234"/>
</g>
<!-- Node4&#45;&gt;Node6 -->
<g id="edge6" class="edge">
<title>Node4&#45;&gt;Node6</title>
<path fill="none" stroke="#191970" d="M470.5317,-195.9005C480.4495,-185.353 496.5694,-168.2096 508.6144,-155.3998"/>
<polygon fill="#191970" stroke="#191970" points="511.1952,-157.7645 515.4957,-148.0817 506.0956,-152.9693 511.1952,-157.7645"/>
</g>
<!-- Node4&#45;&gt;Node7 -->
<g id="edge10" class="edge">
<title>Node4&#45;&gt;Node7</title>
<path fill="none" stroke="#191970" d="M401.2043,-195.9844C339.5939,-186.1058 241.2161,-169.8998 156.5053,-154 149.9204,-152.764 143.0218,-151.4141 136.1884,-150.0429"/>
<polygon fill="#191970" stroke="#191970" points="136.7635,-146.5884 126.2671,-148.0296 135.3713,-153.4485 136.7635,-146.5884"/>
</g>
<!-- Node4&#45;&gt;Node8 -->
<g id="edge12" class="edge">
<title>Node4&#45;&gt;Node8</title>
<path fill="none" stroke="#191970" d="M533.67,-196.1839C632.3616,-183.4434 808.4596,-160.7101 907.5583,-147.917"/>
<polygon fill="#191970" stroke="#191970" points="908.0202,-151.3866 917.4898,-146.635 907.1239,-144.4442 908.0202,-151.3866"/>
</g>
<!-- Node4&#45;&gt;Node13 -->
<g id="edge23" class="edge">
<title>Node4&#45;&gt;Node13</title>
<path fill="none" stroke="#191970" d="M427.6585,-195.9717C385.5726,-184.124 313.6463,-163.8758 267.3709,-150.8487"/>
<polygon fill="#191970" stroke="#191970" points="268.195,-147.4447 257.6207,-148.1039 266.2981,-154.1828 268.195,-147.4447"/>
</g>
<!-- Node4&#45;&gt;Node14 -->
<g id="edge25" class="edge">
<title>Node4&#45;&gt;Node14</title>
<path fill="none" stroke="#191970" d="M446.4614,-195.9005C431.4139,-186.2988 407.8006,-171.2313 388.5424,-158.9427"/>
<polygon fill="#191970" stroke="#191970" points="390.3596,-155.9504 380.0469,-153.5218 386.5942,-161.8515 390.3596,-155.9504"/>
</g>
<!-- Node4&#45;&gt;Node15 -->
<g id="edge26" class="edge">
<title>Node4&#45;&gt;Node15</title>
<path fill="none" stroke="#191970" d="M489.8739,-195.9005C519.9107,-185.7366 568.0475,-169.4479 605.3829,-156.8141"/>
<polygon fill="#191970" stroke="#191970" points="606.7621,-160.0425 615.1126,-153.5218 604.5184,-153.4118 606.7621,-160.0425"/>
</g>
<!-- Node6&#45;&gt;Node1 -->
<g id="edge8" class="edge">
<title>Node6&#45;&gt;Node1</title>
<path fill="none" stroke="#191970" d="M537.1173,-148.2705C560.1753,-169.8646 607.4979,-221.9066 629.4036,-249.3614"/>
<polygon fill="#191970" stroke="#191970" points="626.6805,-251.5616 635.5598,-257.3416 632.223,-247.286 626.6805,-251.5616"/>
</g>
<!-- Node6&#45;&gt;Node2 -->
<g id="edge7" class="edge">
<title>Node6&#45;&gt;Node2</title>
<path fill="none" stroke="#191970" d="M537.8299,-128.9005C553.0231,-117.9549 578.0756,-99.9064 596.0337,-86.9688"/>
<polygon fill="#191970" stroke="#191970" points="598.1376,-89.7668 604.2054,-81.0817 594.0458,-84.0872 598.1376,-89.7668"/>
</g>
<!-- Node6&#45;&gt;Node5 -->
<g id="edge9" class="edge">
<title>Node6&#45;&gt;Node5</title>
<path fill="none" stroke="#191970" d="M512.6134,-128.9005C499.3005,-118.1539 477.5054,-100.5603 461.5485,-87.6794"/>
<polygon fill="#191970" stroke="#191970" points="463.3547,-84.6395 453.3751,-81.0817 458.9579,-90.0863 463.3547,-84.6395"/>
</g>
<!-- Node7&#45;&gt;Node1 -->
<g id="edge11" class="edge">
<title>Node7&#45;&gt;Node1</title>
<path fill="none" stroke="#191970" d="M106.6984,-148.125C147.3926,-165.5447 229.4436,-202.2308 302.5053,-221 387.8823,-242.933 487.913,-254.7793 556.9435,-260.9278"/>
<polygon fill="#191970" stroke="#191970" points="557.0577,-264.4508 567.3233,-261.8302 557.664,-257.4771 557.0577,-264.4508"/>
</g>
<!-- Node8&#45;&gt;Node0 -->
<g id="edge22" class="edge">
<title>Node8&#45;&gt;Node0</title>
<path fill="none" stroke="#191970" d="M976.5635,-148.2202C970.239,-163.7157 957.3322,-194.9295 945.5053,-221 932.4331,-249.8157 916.4648,-282.4823 905.7002,-304.1657"/>
<polygon fill="#191970" stroke="#191970" points="902.475,-302.7906 901.1496,-313.3022 908.7409,-305.9115 902.475,-302.7906"/>
</g>
<!-- Node8&#45;&gt;Node1 -->
<g id="edge13" class="edge">
<title>Node8&#45;&gt;Node1</title>
<path fill="none" stroke="#191970" d="M979.8787,-148.0308C972.3551,-165.6342 945.5799,-203.0808 912.5053,-221 881.0081,-238.0645 791.6712,-251.2917 723.8395,-259.0947"/>
<polygon fill="#191970" stroke="#191970" points="723.1183,-255.6538 713.5739,-260.2532 723.9034,-262.6096 723.1183,-255.6538"/>
</g>
<!-- Node9 -->
<g id="node10" class="node">
<title>Node9</title>
<g id="a_node10"><a xlink:href="constraints__hard_8h.html" target="_top" xlink:title="Functions and data structures for handling of secondary structure hard constraints. ">
<polygon fill="none" stroke="#000000" points="717.5053,-56.5 717.5053,-86.5 835.5053,-86.5 835.5053,-56.5 717.5053,-56.5"/>
<text text-anchor="start" x="725.5053" y="-74.5" font-family="Helvetica,sans-Serif" font-size="10.00" fill="#000000">ViennaRNA/constraints</text>
<text text-anchor="middle" x="776.5053" y="-63.5" font-family="Helvetica,sans-Serif" font-size="10.00" fill="#000000">_hard.h</text>
</a>
</g>
</g>
<!-- Node8&#45;&gt;Node9 -->
<g id="edge14" class="edge">
<title>Node8&#45;&gt;Node9</title>
<path fill="none" stroke="#191970" d="M951.2771,-128.9005C920.1984,-118.6933 870.3122,-102.3091 831.7773,-89.6531"/>
<polygon fill="#191970" stroke="#191970" points="832.8361,-86.3169 822.2432,-86.5218 830.6518,-92.9674 832.8361,-86.3169"/>
</g>
<!-- Node10 -->
<g id="node11" class="node">
<title>Node10</title>
<g id="a_node11"><a xlink:href="constraints__soft_8h.html" target="_top" xlink:title="Functions and data structures for secondary structure soft constraints. ">
<polygon fill="none" stroke="#000000" points="853.5053,-56.5 853.5053,-86.5 971.5053,-86.5 971.5053,-56.5 853.5053,-56.5"/>
<text text-anchor="start" x="861.5053" y="-74.5" font-family="Helvetica,sans-Serif" font-size="10.00" fill="#000000">ViennaRNA/constraints</text>
<text text-anchor="middle" x="912.5053" y="-63.5" font-family="Helvetica,sans-Serif" font-size="10.00" fill="#000000">_soft.h</text>
</a>
</g>
</g>
<!-- Node8&#45;&gt;Node10 -->
<g id="edge16" class="edge">
<title>Node8&#45;&gt;Node10</title>
<path fill="none" stroke="#191970" d="M970.7626,-128.9005C961.4565,-119.7313 947.0915,-105.5776 934.9549,-93.6195"/>
<polygon fill="#191970" stroke="#191970" points="937.331,-91.0471 927.7513,-86.5218 932.4181,-96.0334 937.331,-91.0471"/>
</g>
<!-- Node11 -->
<g id="node12" class="node">
<title>Node11</title>
<g id="a_node12"><a xlink:href="constraints__SHAPE_8h.html" target="_top" xlink:title="This module provides function to incorporate SHAPE reactivity data into the folding recursions by mea...">
<polygon fill="none" stroke="#000000" points="989.5053,-56.5 989.5053,-86.5 1107.5053,-86.5 1107.5053,-56.5 989.5053,-56.5"/>
<text text-anchor="start" x="997.5053" y="-74.5" font-family="Helvetica,sans-Serif" font-size="10.00" fill="#000000">ViennaRNA/constraints</text>
<text text-anchor="middle" x="1048.5053" y="-63.5" font-family="Helvetica,sans-Serif" font-size="10.00" fill="#000000">_SHAPE.h</text>
</a>
</g>
</g>
<!-- Node8&#45;&gt;Node11 -->
<g id="edge18" class="edge">
<title>Node8&#45;&gt;Node11</title>
<path fill="none" stroke="#191970" d="M990.248,-128.9005C999.5541,-119.7313 1013.9191,-105.5776 1026.0557,-93.6195"/>
<polygon fill="#191970" stroke="#191970" points="1028.5925,-96.0334 1033.2593,-86.5218 1023.6796,-91.0471 1028.5925,-96.0334"/>
</g>
<!-- Node12 -->
<g id="node13" class="node">
<title>Node12</title>
<g id="a_node13"><a xlink:href="perturbation__fold_8h.html" target="_top" xlink:title="Find a vector of perturbation energies that minimizes the discripancies between predicted and observe...">
<polygon fill="none" stroke="#000000" points="1126.0053,-56.5 1126.0053,-86.5 1247.0053,-86.5 1247.0053,-56.5 1126.0053,-56.5"/>
<text text-anchor="start" x="1134.0053" y="-74.5" font-family="Helvetica,sans-Serif" font-size="10.00" fill="#000000">ViennaRNA/perturbation</text>
<text text-anchor="middle" x="1186.5053" y="-63.5" font-family="Helvetica,sans-Serif" font-size="10.00" fill="#000000">_fold.h</text>
</a>
</g>
</g>
<!-- Node8&#45;&gt;Node12 -->
<g id="edge20" class="edge">
<title>Node8&#45;&gt;Node12</title>
<path fill="none" stroke="#191970" d="M1010.0201,-128.9005C1041.4035,-118.6933 1091.7788,-102.3091 1130.6914,-89.6531"/>
<polygon fill="#191970" stroke="#191970" points="1131.8919,-92.9432 1140.319,-86.5218 1129.7268,-86.2864 1131.8919,-92.9432"/>
</g>
<!-- Node9&#45;&gt;Node1 -->
<g id="edge15" class="edge">
<title>Node9&#45;&gt;Node1</title>
<path fill="none" stroke="#191970" d="M800.8577,-86.7121C812.7928,-95.6537 825.9755,-108.1236 832.5053,-123 850.0113,-162.8826 859.4783,-186.8014 832.5053,-221 818.6376,-238.5827 768.9083,-250.2003 723.5377,-257.3616"/>
<polygon fill="#191970" stroke="#191970" points="722.9972,-253.9035 713.6368,-258.8666 724.0492,-260.824 722.9972,-253.9035"/>
</g>
<!-- Node10&#45;&gt;Node1 -->
<g id="edge17" class="edge">
<title>Node10&#45;&gt;Node1</title>
<path fill="none" stroke="#191970" d="M911.1178,-86.9222C907.5068,-117.4778 894.9873,-185.7896 853.5053,-221 833.8339,-237.6973 774.6519,-249.6608 723.6497,-257.1946"/>
<polygon fill="#191970" stroke="#191970" points="722.973,-253.7558 713.5724,-258.6424 723.9685,-260.6847 722.973,-253.7558"/>
</g>
<!-- Node11&#45;&gt;Node1 -->
<g id="edge19" class="edge">
<title>Node11&#45;&gt;Node1</title>
<path fill="none" stroke="#191970" d="M1053.7351,-86.5723C1058.8055,-103.9807 1064.1749,-132.9243 1052.5053,-154 1025.3259,-203.0869 998.1244,-201.5198 945.5053,-221 905.9748,-235.6346 799.7178,-249.6661 723.7535,-258.3017"/>
<polygon fill="#191970" stroke="#191970" points="723.2592,-254.8351 713.7135,-259.4318 724.0423,-261.7912 723.2592,-254.8351"/>
</g>
<!-- Node12&#45;&gt;Node1 -->
<g id="edge21" class="edge">
<title>Node12&#45;&gt;Node1</title>
<path fill="none" stroke="#191970" d="M1173.1191,-86.5638C1144.4372,-117.7213 1073.4597,-189.0043 997.5053,-221 949.6769,-241.1477 813.6261,-254.5155 723.9688,-261.4197"/>
<polygon fill="#191970" stroke="#191970" points="723.524,-257.9433 713.8171,-262.1892 724.0531,-264.9232 723.524,-257.9433"/>
</g>
<!-- Node13&#45;&gt;Node1 -->
<g id="edge24" class="edge">
<title>Node13&#45;&gt;Node1</title>
<path fill="none" stroke="#191970" d="M241.0485,-148.221C267.6736,-165.7966 319.0255,-202.727 368.5053,-221 429.6233,-243.571 502.2898,-255.0939 557.1862,-260.962"/>
<polygon fill="#191970" stroke="#191970" points="556.9176,-264.4527 567.223,-261.9932 557.6332,-257.4894 556.9176,-264.4527"/>
</g>
<!-- Node15&#45;&gt;Node1 -->
<g id="edge27" class="edge">
<title>Node15&#45;&gt;Node1</title>
<path fill="none" stroke="#191970" d="M661.8069,-153.7016C661.124,-177.0997 654.646,-221.9192 648.3678,-247.6171"/>
<polygon fill="#191970" stroke="#191970" points="644.9703,-246.7724 645.7068,-257.3416 651.7221,-248.62 644.9703,-246.7724"/>
</g>
<!-- Node16&#45;&gt;Node1 -->
<g id="edge37" class="edge">
<title>Node16&#45;&gt;Node1</title>
<path fill="none" stroke="#191970" d="M743.8454,-220.5446C724.0417,-230.5542 696.6224,-243.5988 674.9332,-253.316"/>
<polygon fill="#191970" stroke="#191970" points="673.4527,-250.1436 665.724,-257.3906 676.2851,-256.545 673.4527,-250.1436"/>
</g>
<!-- Node17 -->
<g id="node18" class="node">
<title>Node17</title>
<polygon fill="none" stroke="#bfbfbf" points="777.5053,-129 777.5053,-148 823.5053,-148 823.5053,-129 777.5053,-129"/>
<text text-anchor="middle" x="800.5053" y="-136" font-family="Helvetica,sans-Serif" font-size="10.00" fill="#000000">stdio.h</text>
</g>
<!-- Node16&#45;&gt;Node17 -->
<g id="edge36" class="edge">
<title>Node16&#45;&gt;Node17</title>
<path fill="none" stroke="#191970" d="M776.5397,-190.2967C781.0883,-180.4658 787.0399,-167.6026 791.8741,-157.1545"/>
<polygon fill="#191970" stroke="#191970" points="795.0616,-158.6003 796.0843,-148.055 788.7086,-155.6609 795.0616,-158.6003"/>
</g>
</g>
</svg>
        <g id="navigator" transform="translate(0 0)" fill="#404254">
                <rect fill="#f2f5e9" fill-opacity="0.5" stroke="#606060" stroke-width=".5" x="0" y="0" width="60" height="60"/>
                <use id="zoomplus" xlink:href="#zoomPlus" x="17" y="9" onmousedown="handleZoom(evt,'in')"/>
                <use id="zoomminus" xlink:href="#zoomMin" x="42" y="9" onmousedown="handleZoom(evt,'out')"/>
                <use id="reset" xlink:href="#resetDef" x="30" y="36" onmousedown="handleReset()"/>
                <g id="arrowUp" xlink:href="#dirArrow" transform="translate(30 24)" onmousedown="handlePan(0,-1)">
                  <use xlink:href="#rim" fill="#404040">
                        <set attributeName="fill" to="#808080" begin="arrowUp.mouseover" end="arrowUp.mouseout"/>
                  </use>
                  <path fill="none" stroke="white" stroke-width="1.5" d="M0,-3.0v7 M-2.5,-0.5L0,-3.0L2.5,-0.5"/>
                </g>
                <g id="arrowRight" xlink:href="#dirArrow" transform="rotate(90) translate(36 -43)" onmousedown="handlePan(1,0)">
                  <use xlink:href="#rim" fill="#404040">
                        <set attributeName="fill" to="#808080" begin="arrowRight.mouseover" end="arrowRight.mouseout"/>
                  </use>
                  <path fill="none" stroke="white" stroke-width="1.5" d="M0,-3.0v7 M-2.5,-0.5L0,-3.0L2.5,-0.5"/>
                </g>
                <g id="arrowDown" xlink:href="#dirArrow" transform="rotate(180) translate(-30 -48)" onmousedown="handlePan(0,1)">
                  <use xlink:href="#rim" fill="#404040">
                        <set attributeName="fill" to="#808080" begin="arrowDown.mouseover" end="arrowDown.mouseout"/>
                  </use>
                  <path fill="none" stroke="white" stroke-width="1.5" d="M0,-3.0v7 M-2.5,-0.5L0,-3.0L2.5,-0.5"/>
                </g>
                <g id="arrowLeft" xlink:href="#dirArrow" transform="rotate(270) translate(-36 17)" onmousedown="handlePan(-1,0)">
                  <use xlink:href="#rim" fill="#404040">
                        <set attributeName="fill" to="#808080" begin="arrowLeft.mouseover" end="arrowLeft.mouseout"/>
                  </use>
                  <path fill="none" stroke="white" stroke-width="1.5" d="M0,-3.0v7 M-2.5,-0.5L0,-3.0L2.5,-0.5"/>
                </g>
        </g>
        <svg viewBox="0 0 15 15" width="100%" height="30px" preserveAspectRatio="xMaxYMin meet">
         <g id="arrow_out" transform="scale(0.3 0.3)">
          <a xlink:href="constraints__ligand_8h__incl_org.svg" target="_base">
           <rect id="button" ry="5" rx="5" y="6" x="6" height="38" width="38"
                fill="#f2f5e9" fill-opacity="0.5" stroke="#606060" stroke-width="1.0"/>
           <path id="arrow"
             d="M 11.500037,31.436501 C 11.940474,20.09759 22.043105,11.32322 32.158766,21.979434 L 37.068811,17.246167 C 37.068811,17.246167 37.088388,32 37.088388,32 L 22.160133,31.978069 C 22.160133,31.978069 26.997745,27.140456 26.997745,27.140456 C 18.528582,18.264221 13.291696,25.230495 11.500037,31.436501 z"
             style="fill:#404040;"/>
          </a>
         </g>
        </svg>
</svg>
