<?xml version="1.0" encoding="UTF-8" standalone="no"?>
<!DOCTYPE svg PUBLIC "-//W3C//DTD SVG 1.1//EN"
 "http://www.w3.org/Graphics/SVG/1.1/DTD/svg11.dtd">
<!-- Generated by graphviz version 2.40.1 (20161225.0304)
 -->
<!-- Title: ViennaRNA/constraints.h Pages: 1 -->
<!--zoomable 397 -->
<svg id="main" version="1.1" xmlns="http://www.w3.org/2000/svg" xmlns:xlink="http://www.w3.org/1999/xlink" xml:space="preserve" onload="init(evt)">
<style type="text/css"><![CDATA[
.edge:hover path { stroke: red; }
.edge:hover polygon { stroke: red; fill: red; }
]]></style>
<script type="text/javascript"><![CDATA[
var edges = document.getElementsByTagName('g');
if (edges && edges.length) {
  for (var i=0;i<edges.length;i++) {
    if (edges[i].id.substr(0,4)=='edge') {
      edges[i].setAttribute('class','edge');
    }
  }
}
]]></script>
        <defs>
                <circle id="rim" cx="0" cy="0" r="7"/>
                <circle id="rim2" cx="0" cy="0" r="3.5"/>
                <g id="zoomPlus">
                        <use xlink:href="#rim" fill="#404040">
                                <set attributeName="fill" to="#808080" begin="zoomplus.mouseover" end="zoomplus.mouseout"/>
                        </use>
                        <path d="M-4,0h8M0,-4v8" fill="none" stroke="white" stroke-width="1.5" pointer-events="none"/>
                </g>
                <g id="zoomMin">
                        <use xlink:href="#rim" fill="#404040">
                                <set attributeName="fill" to="#808080" begin="zoomminus.mouseover" end="zoomminus.mouseout"/>
                        </use>
                        <path d="M-4,0h8" fill="none" stroke="white" stroke-width="1.5" pointer-events="none"/>
                </g>
                <g id="dirArrow">
                        <path fill="none" stroke="white" stroke-width="1.5" d="M0,-3.0v7 M-2.5,-0.5L0,-3.0L2.5,-0.5"/>
                </g>
               <g id="resetDef">
                       <use xlink:href="#rim2" fill="#404040">
                               <set attributeName="fill" to="#808080" begin="reset.mouseover" end="reset.mouseout"/>
                       </use>
               </g>
        </defs>

<script type="text/javascript">
var viewWidth = 816;
var viewHeight = 397;
var sectionId = 'dynsection-0';
</script>
<script xlink:href="svgpan.js"/>
<svg id="graph" class="graph">
<g id="viewport">
<title>ViennaRNA/constraints.h</title>
<!-- Node0 -->
<g id="node1" class="node">
<title>Node0</title>
<polygon fill="#bfbfbf" stroke="#000000" points="442.3105,-369.5 442.3105,-388.5 568.3105,-388.5 568.3105,-369.5 442.3105,-369.5"/>
<text text-anchor="middle" x="505.3105" y="-376.5" font-family="Helvetica,sans-Serif" font-size="10.00" fill="#000000">ViennaRNA/constraints.h</text>
</g>
<!-- Node1 -->
<g id="node2" class="node">
<title>Node1</title>
<g id="a_node2"><a xlink:href="data__structures_8h.html" target="_top" xlink:title="Various data structures and pre&#45;processor macros. ">
<polygon fill="none" stroke="#000000" points="432.3105,-246.5 432.3105,-265.5 578.3105,-265.5 578.3105,-246.5 432.3105,-246.5"/>
<text text-anchor="middle" x="505.3105" y="-253.5" font-family="Helvetica,sans-Serif" font-size="10.00" fill="#000000">ViennaRNA/data_structures.h</text>
</a>
</g>
</g>
<!-- Node0&#45;&gt;Node1 -->
<g id="edge1" class="edge">
<title>Node0&#45;&gt;Node1</title>
<path fill="none" stroke="#191970" d="M568.3468,-372.0436C642.8236,-363.6118 758.1152,-348.5859 771.3105,-333 780.213,-322.4847 780.213,-312.5153 771.3105,-302 759.2681,-287.7759 662.1903,-274.0181 588.7072,-265.3134"/>
<polygon fill="#191970" stroke="#191970" points="588.8455,-261.8058 578.5064,-264.1192 588.0315,-268.7583 588.8455,-261.8058"/>
</g>
<!-- Node13 -->
<g id="node14" class="node">
<title>Node13</title>
<g id="a_node14"><a xlink:href="constraints__hard_8h.html" target="_top" xlink:title="Functions and data structures for handling of secondary structure hard constraints. ">
<polygon fill="none" stroke="#000000" points="105.3105,-302.5 105.3105,-332.5 223.3105,-332.5 223.3105,-302.5 105.3105,-302.5"/>
<text text-anchor="start" x="113.3105" y="-320.5" font-family="Helvetica,sans-Serif" font-size="10.00" fill="#000000">ViennaRNA/constraints</text>
<text text-anchor="middle" x="164.3105" y="-309.5" font-family="Helvetica,sans-Serif" font-size="10.00" fill="#000000">_hard.h</text>
</a>
</g>
</g>
<!-- Node0&#45;&gt;Node13 -->
<g id="edge28" class="edge">
<title>Node0&#45;&gt;Node13</title>
<path fill="none" stroke="#191970" d="M442.5073,-369.4631C389.3285,-361.1491 310.8527,-348.3222 233.5202,-333.1811"/>
<polygon fill="#191970" stroke="#191970" points="234.0943,-329.727 223.606,-331.2258 232.7398,-336.5947 234.0943,-329.727"/>
</g>
<!-- Node14 -->
<g id="node15" class="node">
<title>Node14</title>
<g id="a_node15"><a xlink:href="constraints__soft_8h.html" target="_top" xlink:title="Functions and data structures for secondary structure soft constraints. ">
<polygon fill="none" stroke="#000000" points="241.3105,-302.5 241.3105,-332.5 359.3105,-332.5 359.3105,-302.5 241.3105,-302.5"/>
<text text-anchor="start" x="249.3105" y="-320.5" font-family="Helvetica,sans-Serif" font-size="10.00" fill="#000000">ViennaRNA/constraints</text>
<text text-anchor="middle" x="300.3105" y="-309.5" font-family="Helvetica,sans-Serif" font-size="10.00" fill="#000000">_soft.h</text>
</a>
</g>
</g>
<!-- Node0&#45;&gt;Node14 -->
<g id="edge30" class="edge">
<title>Node0&#45;&gt;Node14</title>
<path fill="none" stroke="#191970" d="M473.2793,-369.3906C443.0945,-360.3352 397.1072,-346.539 360.1367,-335.4479"/>
<polygon fill="#191970" stroke="#191970" points="361.0432,-332.0657 350.4592,-332.5446 359.0317,-338.7705 361.0432,-332.0657"/>
</g>
<!-- Node15 -->
<g id="node16" class="node">
<title>Node15</title>
<g id="a_node16"><a xlink:href="constraints__SHAPE_8h.html" target="_top" xlink:title="This module provides function to incorporate SHAPE reactivity data into the folding recursions by mea...">
<polygon fill="none" stroke="#000000" points="377.3105,-302.5 377.3105,-332.5 495.3105,-332.5 495.3105,-302.5 377.3105,-302.5"/>
<text text-anchor="start" x="385.3105" y="-320.5" font-family="Helvetica,sans-Serif" font-size="10.00" fill="#000000">ViennaRNA/constraints</text>
<text text-anchor="middle" x="436.3105" y="-309.5" font-family="Helvetica,sans-Serif" font-size="10.00" fill="#000000">_SHAPE.h</text>
</a>
</g>
</g>
<!-- Node0&#45;&gt;Node15 -->
<g id="edge32" class="edge">
<title>Node0&#45;&gt;Node15</title>
<path fill="none" stroke="#191970" d="M494.5293,-369.3906C485.5368,-361.3756 472.3775,-349.6466 460.8438,-339.3666"/>
<polygon fill="#191970" stroke="#191970" points="462.9838,-336.5855 453.1898,-332.5446 458.3262,-341.8111 462.9838,-336.5855"/>
</g>
<!-- Node16 -->
<g id="node17" class="node">
<title>Node16</title>
<g id="a_node17"><a xlink:href="perturbation__fold_8h.html" target="_top" xlink:title="Find a vector of perturbation energies that minimizes the discripancies between predicted and observe...">
<polygon fill="none" stroke="#000000" points="513.8105,-302.5 513.8105,-332.5 634.8105,-332.5 634.8105,-302.5 513.8105,-302.5"/>
<text text-anchor="start" x="521.8105" y="-320.5" font-family="Helvetica,sans-Serif" font-size="10.00" fill="#000000">ViennaRNA/perturbation</text>
<text text-anchor="middle" x="574.3105" y="-309.5" font-family="Helvetica,sans-Serif" font-size="10.00" fill="#000000">_fold.h</text>
</a>
</g>
</g>
<!-- Node0&#45;&gt;Node16 -->
<g id="edge34" class="edge">
<title>Node0&#45;&gt;Node16</title>
<path fill="none" stroke="#191970" d="M516.0918,-369.3906C525.0842,-361.3756 538.2436,-349.6466 549.7773,-339.3666"/>
<polygon fill="#191970" stroke="#191970" points="552.2949,-341.8111 557.4312,-332.5446 547.6372,-336.5855 552.2949,-341.8111"/>
</g>
<!-- Node17 -->
<g id="node18" class="node">
<title>Node17</title>
<g id="a_node18"><a xlink:href="constraints__ligand_8h.html" target="_top" xlink:title="Functions for incorporation of ligands binding to hairpin and interior loop motifs using the soft con...">
<polygon fill="none" stroke="#000000" points="653.3105,-302.5 653.3105,-332.5 771.3105,-332.5 771.3105,-302.5 653.3105,-302.5"/>
<text text-anchor="start" x="661.3105" y="-320.5" font-family="Helvetica,sans-Serif" font-size="10.00" fill="#000000">ViennaRNA/constraints</text>
<text text-anchor="middle" x="712.3105" y="-309.5" font-family="Helvetica,sans-Serif" font-size="10.00" fill="#000000">_ligand.h</text>
</a>
</g>
</g>
<!-- Node0&#45;&gt;Node17 -->
<g id="edge36" class="edge">
<title>Node0&#45;&gt;Node17</title>
<path fill="none" stroke="#191970" d="M537.6543,-369.3906C568.1335,-360.3352 614.5694,-346.539 651.9007,-335.4479"/>
<polygon fill="#191970" stroke="#191970" points="653.0836,-338.7477 661.6726,-332.5446 651.0899,-332.0376 653.0836,-338.7477"/>
</g>
<!-- Node1&#45;&gt;Node0 -->
<g id="edge21" class="edge">
<title>Node1&#45;&gt;Node0</title>
<path fill="none" stroke="#191970" d="M578.375,-262.6594C658.0765,-271.0321 775.9588,-286.2294 789.3105,-302 798.213,-312.5153 798.213,-322.4847 789.3105,-333 775.9628,-348.7659 658.1466,-363.9588 578.4461,-372.3332"/>
<polygon fill="#191970" stroke="#191970" points="578.0262,-368.8578 568.4401,-373.3698 578.7476,-375.8206 578.0262,-368.8578"/>
</g>
<!-- Node2 -->
<g id="node3" class="node">
<title>Node2</title>
<g id="a_node3"><a xlink:href="energy__const_8h.html" target="_top" xlink:title="Energy parameter constants. ">
<polygon fill="none" stroke="#000000" points="670.8105,-56.5 670.8105,-75.5 807.8105,-75.5 807.8105,-56.5 670.8105,-56.5"/>
<text text-anchor="middle" x="739.3105" y="-63.5" font-family="Helvetica,sans-Serif" font-size="10.00" fill="#000000">ViennaRNA/energy_const.h</text>
</a>
</g>
</g>
<!-- Node1&#45;&gt;Node2 -->
<g id="edge2" class="edge">
<title>Node1&#45;&gt;Node2</title>
<path fill="none" stroke="#191970" d="M578.6877,-248.8181C620.403,-242.5981 672.6603,-231.1053 715.3105,-210 756.5729,-189.5814 774.9638,-184.7757 794.3105,-143 800.1004,-130.4978 800.1433,-124.4822 794.3105,-112 788.3642,-99.2749 776.9747,-88.8307 766.0955,-81.129"/>
<polygon fill="#191970" stroke="#191970" points="767.8745,-78.1101 757.5938,-75.5491 764.0335,-83.9622 767.8745,-78.1101"/>
</g>
<!-- Node4 -->
<g id="node5" class="node">
<title>Node4</title>
<g id="a_node5"><a xlink:href="fold__compound_8h.html" target="_top" xlink:title="The Basic Fold Compound API. ">
<polygon fill="none" stroke="#000000" points="267.3105,-185 267.3105,-204 411.3105,-204 411.3105,-185 267.3105,-185"/>
<text text-anchor="middle" x="339.3105" y="-192" font-family="Helvetica,sans-Serif" font-size="10.00" fill="#000000">ViennaRNA/fold_compound.h</text>
</a>
</g>
</g>
<!-- Node1&#45;&gt;Node4 -->
<g id="edge4" class="edge">
<title>Node1&#45;&gt;Node4</title>
<path fill="none" stroke="#191970" d="M479.373,-246.3906C451.2327,-235.9652 406.1312,-219.2559 374.7379,-207.6252"/>
<polygon fill="#191970" stroke="#191970" points="375.659,-204.234 365.0659,-204.0419 373.2271,-210.798 375.659,-204.234"/>
</g>
<!-- Node5 -->
<g id="node6" class="node">
<title>Node5</title>
<g id="a_node6"><a xlink:href="model_8h.html" target="_top" xlink:title="The model details data structure and its corresponding modifiers. ">
<polygon fill="none" stroke="#000000" points="257.3105,-56.5 257.3105,-75.5 361.3105,-75.5 361.3105,-56.5 257.3105,-56.5"/>
<text text-anchor="middle" x="309.3105" y="-63.5" font-family="Helvetica,sans-Serif" font-size="10.00" fill="#000000">ViennaRNA/model.h</text>
</a>
</g>
</g>
<!-- Node1&#45;&gt;Node5 -->
<g id="edge18" class="edge">
<title>Node1&#45;&gt;Node5</title>
<path fill="none" stroke="#191970" d="M432.2163,-251.3594C305.2435,-241.4965 52.9775,-213.3057 6.3105,-143 -1.309,-131.5209 -2.671,-122.448 6.3105,-112 21.7723,-94.0137 162.6982,-78.7662 246.8067,-71.1684"/>
<polygon fill="#191970" stroke="#191970" points="247.3714,-74.632 257.0212,-70.258 246.7499,-67.6596 247.3714,-74.632"/>
</g>
<!-- Node6 -->
<g id="node7" class="node">
<title>Node6</title>
<g id="a_node7"><a xlink:href="params_8h.html" target="_top" xlink:title="Functions to deal with sets of energy parameters. ">
<polygon fill="none" stroke="#000000" points="611.3105,-118 611.3105,-137 721.3105,-137 721.3105,-118 611.3105,-118"/>
<text text-anchor="middle" x="666.3105" y="-125" font-family="Helvetica,sans-Serif" font-size="10.00" fill="#000000">ViennaRNA/params.h</text>
</a>
</g>
</g>
<!-- Node1&#45;&gt;Node6 -->
<g id="edge19" class="edge">
<title>Node1&#45;&gt;Node6</title>
<path fill="none" stroke="#191970" d="M509.0546,-246.4888C520.8124,-231.4247 551.682,-201.4824 580.3105,-179 597.3858,-165.5905 617.8651,-152.0021 634.7295,-142.1526"/>
<polygon fill="#191970" stroke="#191970" points="636.7002,-145.0591 643.6822,-137.0902 633.2546,-138.9658 636.7002,-145.0591"/>
</g>
<!-- Node7 -->
<g id="node8" class="node">
<title>Node7</title>
<g id="a_node8"><a xlink:href="dp__matrices_8h.html" target="_top" xlink:title="Functions to deal with standard dynamic programming (DP) matrices. ">
<polygon fill="none" stroke="#000000" points="15.8105,-118 15.8105,-137 146.8105,-137 146.8105,-118 15.8105,-118"/>
<text text-anchor="middle" x="81.3105" y="-125" font-family="Helvetica,sans-Serif" font-size="10.00" fill="#000000">ViennaRNA/dp_matrices.h</text>
</a>
</g>
</g>
<!-- Node1&#45;&gt;Node7 -->
<g id="edge20" class="edge">
<title>Node1&#45;&gt;Node7</title>
<path fill="none" stroke="#191970" d="M432.0546,-250.9571C374.202,-245.245 292.3305,-233.4812 224.3105,-210 175.8187,-193.2601 124.3491,-162.1169 98.1516,-143.2525"/>
<polygon fill="#191970" stroke="#191970" points="100.0875,-140.3296 89.9855,-137.1358 95.8909,-145.9322 100.0875,-140.3296"/>
</g>
<!-- Node8 -->
<g id="node9" class="node">
<title>Node8</title>
<g id="a_node9"><a xlink:href="grammar_8h.html" target="_top" xlink:title="Implementations for the RNA folding grammar. ">
<polygon fill="none" stroke="#000000" points="165.3105,-118 165.3105,-137 281.3105,-137 281.3105,-118 165.3105,-118"/>
<text text-anchor="middle" x="223.3105" y="-125" font-family="Helvetica,sans-Serif" font-size="10.00" fill="#000000">ViennaRNA/grammar.h</text>
</a>
</g>
</g>
<!-- Node1&#45;&gt;Node8 -->
<g id="edge22" class="edge">
<title>Node1&#45;&gt;Node8</title>
<path fill="none" stroke="#191970" d="M432.1391,-250.6955C366.4774,-244.4 276.5558,-231.8905 249.3105,-210 230.0358,-194.5136 221.204,-166.4621 219.4304,-147.4135"/>
<polygon fill="#191970" stroke="#191970" points="222.9234,-147.071 219.1913,-137.1552 215.9253,-147.2341 222.9234,-147.071"/>
</g>
<!-- Node9 -->
<g id="node10" class="node">
<title>Node9</title>
<g id="a_node10"><a xlink:href="structured__domains_8h.html" target="_top" xlink:title="This module provides interfaces that deal with additional structured domains in the folding grammar...">
<polygon fill="none" stroke="#000000" points="337.8105,-112.5 337.8105,-142.5 450.8105,-142.5 450.8105,-112.5 337.8105,-112.5"/>
<text text-anchor="start" x="345.8105" y="-130.5" font-family="Helvetica,sans-Serif" font-size="10.00" fill="#000000">ViennaRNA/structured</text>
<text text-anchor="middle" x="394.3105" y="-119.5" font-family="Helvetica,sans-Serif" font-size="10.00" fill="#000000">_domains.h</text>
</a>
</g>
</g>
<!-- Node1&#45;&gt;Node9 -->
<g id="edge23" class="edge">
<title>Node1&#45;&gt;Node9</title>
<path fill="none" stroke="#191970" d="M496.9675,-246.3416C479.5297,-226.1547 438.8073,-179.012 414.2151,-150.5427"/>
<polygon fill="#191970" stroke="#191970" points="416.6275,-147.9813 407.4419,-142.7016 411.3302,-152.5572 416.6275,-147.9813"/>
</g>
<!-- Node10 -->
<g id="node11" class="node">
<title>Node10</title>
<g id="a_node11"><a xlink:href="unstructured__domains_8h.html" target="_top" xlink:title="Functions to modify unstructured domains, e.g. to incorporate ligands binding to unpaired stretches...">
<polygon fill="none" stroke="#000000" points="469.3105,-112.5 469.3105,-142.5 593.3105,-142.5 593.3105,-112.5 469.3105,-112.5"/>
<text text-anchor="start" x="477.3105" y="-130.5" font-family="Helvetica,sans-Serif" font-size="10.00" fill="#000000">ViennaRNA/unstructured</text>
<text text-anchor="middle" x="531.3105" y="-119.5" font-family="Helvetica,sans-Serif" font-size="10.00" fill="#000000">_domains.h</text>
</a>
</g>
</g>
<!-- Node1&#45;&gt;Node10 -->
<g id="edge24" class="edge">
<title>Node1&#45;&gt;Node10</title>
<path fill="none" stroke="#191970" d="M503.4913,-246.3416C504.2012,-226.5879 512.8559,-181.0229 520.8048,-152.4008"/>
<polygon fill="#191970" stroke="#191970" points="524.1934,-153.2843 523.6854,-142.7016 517.4831,-151.2913 524.1934,-153.2843"/>
</g>
<!-- Node11 -->
<g id="node12" class="node">
<title>Node11</title>
<g id="a_node12"><a xlink:href="structure__utils_8h.html" target="_top" xlink:title="Various utility&#45; and helper&#45;functions for secondary structure parsing, converting, etc. ">
<polygon fill="none" stroke="#000000" points="598.3105,-179.5 598.3105,-209.5 706.3105,-209.5 706.3105,-179.5 598.3105,-179.5"/>
<text text-anchor="start" x="606.3105" y="-197.5" font-family="Helvetica,sans-Serif" font-size="10.00" fill="#000000">ViennaRNA/structure</text>
<text text-anchor="middle" x="652.3105" y="-186.5" font-family="Helvetica,sans-Serif" font-size="10.00" fill="#000000">_utils.h</text>
</a>
</g>
</g>
<!-- Node1&#45;&gt;Node11 -->
<g id="edge25" class="edge">
<title>Node1&#45;&gt;Node11</title>
<path fill="none" stroke="#191970" d="M523.2168,-246.3906C542.587,-237.5664 574.0352,-224.2404 601.0927,-213.3026"/>
<polygon fill="#191970" stroke="#191970" points="602.4771,-216.5184 610.4532,-209.5446 599.8691,-210.0223 602.4771,-216.5184"/>
</g>
<!-- Node3 -->
<g id="node4" class="node">
<title>Node3</title>
<polygon fill="none" stroke="#bfbfbf" points="715.3105,-.5 715.3105,-19.5 763.3105,-19.5 763.3105,-.5 715.3105,-.5"/>
<text text-anchor="middle" x="739.3105" y="-7.5" font-family="Helvetica,sans-Serif" font-size="10.00" fill="#000000">limits.h</text>
</g>
<!-- Node2&#45;&gt;Node3 -->
<g id="edge3" class="edge">
<title>Node2&#45;&gt;Node3</title>
<path fill="none" stroke="#191970" d="M739.3105,-56.2455C739.3105,-48.9382 739.3105,-38.6944 739.3105,-29.7046"/>
<polygon fill="#191970" stroke="#191970" points="742.8106,-29.6426 739.3105,-19.6427 735.8106,-29.6427 742.8106,-29.6426"/>
</g>
<!-- Node4&#45;&gt;Node0 -->
<g id="edge12" class="edge">
<title>Node4&#45;&gt;Node0</title>
<path fill="none" stroke="#191970" d="M285.1681,-204.0044C196.3185,-221.8061 35.2299,-264.6645 96.3105,-333 118.2447,-357.5394 320.4661,-370.5837 432.1006,-375.968"/>
<polygon fill="#191970" stroke="#191970" points="432.1284,-379.4732 442.2827,-376.45 432.4595,-372.481 432.1284,-379.4732"/>
</g>
<!-- Node4&#45;&gt;Node5 -->
<g id="edge5" class="edge">
<title>Node4&#45;&gt;Node5</title>
<path fill="none" stroke="#191970" d="M337.0556,-184.8416C332.1475,-163.8184 320.414,-113.5598 313.8873,-85.6038"/>
<polygon fill="#191970" stroke="#191970" points="317.2735,-84.7128 311.5916,-75.7705 310.4568,-86.3043 317.2735,-84.7128"/>
</g>
<!-- Node4&#45;&gt;Node6 -->
<g id="edge6" class="edge">
<title>Node4&#45;&gt;Node6</title>
<path fill="none" stroke="#191970" d="M391.8461,-184.9205C445.0352,-175.0557 529.5893,-158.918 602.3105,-143 607.4146,-141.8828 612.7361,-140.6704 618.0346,-139.4326"/>
<polygon fill="#191970" stroke="#191970" points="619.2095,-142.7511 628.1326,-137.0389 617.5949,-135.9399 619.2095,-142.7511"/>
</g>
<!-- Node4&#45;&gt;Node7 -->
<g id="edge10" class="edge">
<title>Node4&#45;&gt;Node7</title>
<path fill="none" stroke="#191970" d="M302.6194,-184.9717C256.8056,-173.0743 178.372,-152.7059 128.2328,-139.6852"/>
<polygon fill="#191970" stroke="#191970" points="128.8515,-136.2299 118.2928,-137.1039 127.092,-143.0052 128.8515,-136.2299"/>
</g>
<!-- Node4&#45;&gt;Node8 -->
<g id="edge13" class="edge">
<title>Node4&#45;&gt;Node8</title>
<path fill="none" stroke="#191970" d="M322.6905,-184.9005C303.3093,-173.7062 271.065,-155.0823 248.579,-142.0947"/>
<polygon fill="#191970" stroke="#191970" points="250.3096,-139.0525 239.8997,-137.0817 246.8085,-145.114 250.3096,-139.0525"/>
</g>
<!-- Node4&#45;&gt;Node9 -->
<g id="edge15" class="edge">
<title>Node4&#45;&gt;Node9</title>
<path fill="none" stroke="#191970" d="M347.1907,-184.9005C354.5756,-175.9043 365.8994,-162.1099 375.5952,-150.2986"/>
<polygon fill="#191970" stroke="#191970" points="378.3395,-152.4718 381.9792,-142.5218 372.929,-148.0303 378.3395,-152.4718"/>
</g>
<!-- Node4&#45;&gt;Node10 -->
<g id="edge16" class="edge">
<title>Node4&#45;&gt;Node10</title>
<path fill="none" stroke="#191970" d="M366.8194,-184.9005C395.8221,-174.7798 442.2272,-158.5864 478.3655,-145.9756"/>
<polygon fill="#191970" stroke="#191970" points="479.9746,-149.1211 488.2631,-142.5218 477.6682,-142.512 479.9746,-149.1211"/>
</g>
<!-- Node6&#45;&gt;Node1 -->
<g id="edge8" class="edge">
<title>Node6&#45;&gt;Node1</title>
<path fill="none" stroke="#191970" d="M657.2876,-137.0902C643.5667,-146.9632 618.5479,-163.1072 598.3105,-179 573.3724,-198.5843 546.7338,-223.8292 528.0909,-239.9694"/>
<polygon fill="#191970" stroke="#191970" points="525.7529,-237.3626 520.3711,-246.4888 530.2694,-242.7107 525.7529,-237.3626"/>
</g>
<!-- Node6&#45;&gt;Node2 -->
<g id="edge7" class="edge">
<title>Node6&#45;&gt;Node2</title>
<path fill="none" stroke="#191970" d="M677.7168,-117.8906C689.0074,-108.3786 706.5072,-93.6357 719.9724,-82.2917"/>
<polygon fill="#191970" stroke="#191970" points="722.3507,-84.8646 727.7434,-75.7449 717.8406,-79.5111 722.3507,-84.8646"/>
</g>
<!-- Node6&#45;&gt;Node5 -->
<g id="edge9" class="edge">
<title>Node6&#45;&gt;Node5</title>
<path fill="none" stroke="#191970" d="M629.1982,-117.9672C620.4134,-115.862 611.0558,-113.7425 602.3105,-112 523.0673,-96.2112 430.8807,-82.4947 371.3936,-74.2424"/>
<polygon fill="#191970" stroke="#191970" points="371.7908,-70.7642 361.4065,-72.8657 370.8349,-77.6986 371.7908,-70.7642"/>
</g>
<!-- Node7&#45;&gt;Node1 -->
<g id="edge11" class="edge">
<title>Node7&#45;&gt;Node1</title>
<path fill="none" stroke="#191970" d="M100.5097,-137.1358C130.1707,-154.5729 188.1013,-191.2864 242.3105,-210 300.7895,-230.1875 369.5067,-241.7143 422.0844,-248.1806"/>
<polygon fill="#191970" stroke="#191970" points="421.6976,-251.6592 432.0419,-249.3688 422.5271,-244.7085 421.6976,-251.6592"/>
</g>
<!-- Node8&#45;&gt;Node1 -->
<g id="edge14" class="edge">
<title>Node8&#45;&gt;Node1</title>
<path fill="none" stroke="#191970" d="M229.7156,-137.1552C236.0637,-154.6241 244.1447,-191.3872 267.3105,-210 291.2175,-229.2083 363.3829,-241.1937 422.0876,-248.0957"/>
<polygon fill="#191970" stroke="#191970" points="421.7963,-251.5851 432.129,-249.2429 422.5909,-244.6303 421.7963,-251.5851"/>
</g>
<!-- Node10&#45;&gt;Node1 -->
<g id="edge17" class="edge">
<title>Node10&#45;&gt;Node1</title>
<path fill="none" stroke="#191970" d="M532.784,-142.7016C530.8265,-166.0997 521.907,-210.9192 514.2289,-236.6171"/>
<polygon fill="#191970" stroke="#191970" points="510.8302,-235.7488 511.0381,-246.3416 517.4814,-237.9312 510.8302,-235.7488"/>
</g>
<!-- Node11&#45;&gt;Node1 -->
<g id="edge27" class="edge">
<title>Node11&#45;&gt;Node1</title>
<path fill="none" stroke="#191970" d="M622.2473,-209.5446C599.2081,-219.6889 567.4347,-232.9503 542.757,-242.7063"/>
<polygon fill="#191970" stroke="#191970" points="541.3787,-239.4872 533.3418,-246.3906 543.9296,-246.0058 541.3787,-239.4872"/>
</g>
<!-- Node12 -->
<g id="node13" class="node">
<title>Node12</title>
<polygon fill="none" stroke="#bfbfbf" points="739.3105,-118 739.3105,-137 785.3105,-137 785.3105,-118 739.3105,-118"/>
<text text-anchor="middle" x="762.3105" y="-125" font-family="Helvetica,sans-Serif" font-size="10.00" fill="#000000">stdio.h</text>
</g>
<!-- Node11&#45;&gt;Node12 -->
<g id="edge26" class="edge">
<title>Node11&#45;&gt;Node12</title>
<path fill="none" stroke="#191970" d="M676.9967,-179.4639C695.1207,-168.4247 719.6314,-153.4954 737.7305,-142.4715"/>
<polygon fill="#191970" stroke="#191970" points="739.8231,-145.2951 746.5429,-137.1039 736.1817,-139.3167 739.8231,-145.2951"/>
</g>
<!-- Node13&#45;&gt;Node1 -->
<g id="edge29" class="edge">
<title>Node13&#45;&gt;Node1</title>
<path fill="none" stroke="#191970" d="M223.606,-303.7742C226.5461,-303.1595 229.4599,-302.5646 232.3105,-302 299.8875,-288.6163 377.3705,-275.7997 432.4841,-267.1105"/>
<polygon fill="#191970" stroke="#191970" points="433.1712,-270.5456 442.5073,-265.5369 432.0854,-263.6303 433.1712,-270.5456"/>
</g>
<!-- Node14&#45;&gt;Node1 -->
<g id="edge31" class="edge">
<title>Node14&#45;&gt;Node1</title>
<path fill="none" stroke="#191970" d="M350.4592,-302.4554C385.264,-292.0139 431.0772,-278.27 463.8256,-268.4455"/>
<polygon fill="#191970" stroke="#191970" points="464.9703,-271.7563 473.5428,-265.5303 462.9588,-265.0515 464.9703,-271.7563"/>
</g>
<!-- Node15&#45;&gt;Node1 -->
<g id="edge33" class="edge">
<title>Node15&#45;&gt;Node1</title>
<path fill="none" stroke="#191970" d="M453.3667,-302.2977C463.4435,-293.3163 476.2145,-281.9334 486.5716,-272.702"/>
<polygon fill="#191970" stroke="#191970" points="489.1264,-275.1135 494.2627,-265.8469 484.4688,-269.8879 489.1264,-275.1135"/>
</g>
<!-- Node16&#45;&gt;Node1 -->
<g id="edge35" class="edge">
<title>Node16&#45;&gt;Node1</title>
<path fill="none" stroke="#191970" d="M557.2543,-302.2977C547.1776,-293.3163 534.4065,-281.9334 524.0494,-272.702"/>
<polygon fill="#191970" stroke="#191970" points="526.1522,-269.8879 516.3583,-265.8469 521.4946,-275.1135 526.1522,-269.8879"/>
</g>
<!-- Node17&#45;&gt;Node1 -->
<g id="edge37" class="edge">
<title>Node17&#45;&gt;Node1</title>
<path fill="none" stroke="#191970" d="M661.6726,-302.4554C626.5282,-292.0139 580.2681,-278.27 547.2002,-268.4455"/>
<polygon fill="#191970" stroke="#191970" points="547.9709,-265.0233 537.3882,-265.5303 545.9772,-271.7334 547.9709,-265.0233"/>
</g>
</g>
</svg>
        <g id="navigator" transform="translate(0 0)" fill="#404254">
                <rect fill="#f2f5e9" fill-opacity="0.5" stroke="#606060" stroke-width=".5" x="0" y="0" width="60" height="60"/>
                <use id="zoomplus" xlink:href="#zoomPlus" x="17" y="9" onmousedown="handleZoom(evt,'in')"/>
                <use id="zoomminus" xlink:href="#zoomMin" x="42" y="9" onmousedown="handleZoom(evt,'out')"/>
                <use id="reset" xlink:href="#resetDef" x="30" y="36" onmousedown="handleReset()"/>
                <g id="arrowUp" xlink:href="#dirArrow" transform="translate(30 24)" onmousedown="handlePan(0,-1)">
                  <use xlink:href="#rim" fill="#404040">
                        <set attributeName="fill" to="#808080" begin="arrowUp.mouseover" end="arrowUp.mouseout"/>
                  </use>
                  <path fill="none" stroke="white" stroke-width="1.5" d="M0,-3.0v7 M-2.5,-0.5L0,-3.0L2.5,-0.5"/>
                </g>
                <g id="arrowRight" xlink:href="#dirArrow" transform="rotate(90) translate(36 -43)" onmousedown="handlePan(1,0)">
                  <use xlink:href="#rim" fill="#404040">
                        <set attributeName="fill" to="#808080" begin="arrowRight.mouseover" end="arrowRight.mouseout"/>
                  </use>
                  <path fill="none" stroke="white" stroke-width="1.5" d="M0,-3.0v7 M-2.5,-0.5L0,-3.0L2.5,-0.5"/>
                </g>
                <g id="arrowDown" xlink:href="#dirArrow" transform="rotate(180) translate(-30 -48)" onmousedown="handlePan(0,1)">
                  <use xlink:href="#rim" fill="#404040">
                        <set attributeName="fill" to="#808080" begin="arrowDown.mouseover" end="arrowDown.mouseout"/>
                  </use>
                  <path fill="none" stroke="white" stroke-width="1.5" d="M0,-3.0v7 M-2.5,-0.5L0,-3.0L2.5,-0.5"/>
                </g>
                <g id="arrowLeft" xlink:href="#dirArrow" transform="rotate(270) translate(-36 17)" onmousedown="handlePan(-1,0)">
                  <use xlink:href="#rim" fill="#404040">
                        <set attributeName="fill" to="#808080" begin="arrowLeft.mouseover" end="arrowLeft.mouseout"/>
                  </use>
                  <path fill="none" stroke="white" stroke-width="1.5" d="M0,-3.0v7 M-2.5,-0.5L0,-3.0L2.5,-0.5"/>
                </g>
        </g>
        <svg viewBox="0 0 15 15" width="100%" height="30px" preserveAspectRatio="xMaxYMin meet">
         <g id="arrow_out" transform="scale(0.3 0.3)">
          <a xlink:href="constraints_8h__incl_org.svg" target="_base">
           <rect id="button" ry="5" rx="5" y="6" x="6" height="38" width="38"
                fill="#f2f5e9" fill-opacity="0.5" stroke="#606060" stroke-width="1.0"/>
           <path id="arrow"
             d="M 11.500037,31.436501 C 11.940474,20.09759 22.043105,11.32322 32.158766,21.979434 L 37.068811,17.246167 C 37.068811,17.246167 37.088388,32 37.088388,32 L 22.160133,31.978069 C 22.160133,31.978069 26.997745,27.140456 26.997745,27.140456 C 18.528582,18.264221 13.291696,25.230495 11.500037,31.436501 z"
             style="fill:#404040;"/>
          </a>
         </g>
        </svg>
</svg>
