<?xml version="1.0" encoding="UTF-8" standalone="no"?>
<!DOCTYPE svg PUBLIC "-//W3C//DTD SVG 1.1//EN"
 "http://www.w3.org/Graphics/SVG/1.1/DTD/svg11.dtd">
<!-- Generated by graphviz version 2.40.1 (20161225.0304)
 -->
<!-- Title: ViennaRNA/dist_vars.h Pages: 1 -->
<svg width="254pt" height="84pt"
 viewBox="0.00 0.00 254.00 84.00" xmlns="http://www.w3.org/2000/svg" xmlns:xlink="http://www.w3.org/1999/xlink">
<g id="graph0" class="graph" transform="scale(1 1) rotate(0) translate(4 80)">
<title>ViennaRNA/dist_vars.h</title>
<!-- Node1 -->
<g id="node1" class="node">
<title>Node1</title>
<polygon fill="#bfbfbf" stroke="#000000" points="66,-56.5 66,-75.5 184,-75.5 184,-56.5 66,-56.5"/>
<text text-anchor="middle" x="125" y="-63.5" font-family="Helvetica,sans-Serif" font-size="10.00" fill="#000000">ViennaRNA/dist_vars.h</text>
</g>
<!-- Node2 -->
<g id="node2" class="node">
<title>Node2</title>
<g id="a_node2"><a xlink:href="stringdist_8h.html" target="_top" xlink:title="Functions for String Alignment. ">
<polygon fill="none" stroke="#000000" points="0,-.5 0,-19.5 118,-19.5 118,-.5 0,-.5"/>
<text text-anchor="middle" x="59" y="-7.5" font-family="Helvetica,sans-Serif" font-size="10.00" fill="#000000">ViennaRNA/stringdist.h</text>
</a>
</g>
</g>
<!-- Node1&#45;&gt;Node2 -->
<g id="edge1" class="edge">
<title>Node1&#45;&gt;Node2</title>
<path fill="none" stroke="#191970" d="M105.7245,-49.645C94.2462,-39.9058 80.0723,-27.8795 70.3646,-19.6427"/>
<polygon fill="#191970" stroke="#191970" points="103.6141,-52.4445 113.5037,-56.2455 108.143,-47.1069 103.6141,-52.4445"/>
</g>
<!-- Node3 -->
<g id="node3" class="node">
<title>Node3</title>
<g id="a_node3"><a xlink:href="treedist_8h.html" target="_top" xlink:title="Functions for Tree Edit Distances. ">
<polygon fill="none" stroke="#000000" points="136,-.5 136,-19.5 246,-19.5 246,-.5 136,-.5"/>
<text text-anchor="middle" x="191" y="-7.5" font-family="Helvetica,sans-Serif" font-size="10.00" fill="#000000">ViennaRNA/treedist.h</text>
</a>
</g>
</g>
<!-- Node1&#45;&gt;Node3 -->
<g id="edge2" class="edge">
<title>Node1&#45;&gt;Node3</title>
<path fill="none" stroke="#191970" d="M144.2755,-49.645C155.7538,-39.9058 169.9277,-27.8795 179.6354,-19.6427"/>
<polygon fill="#191970" stroke="#191970" points="141.857,-47.1069 136.4963,-56.2455 146.3859,-52.4445 141.857,-47.1069"/>
</g>
</g>
</svg>
