<?xml version="1.0" encoding="UTF-8" standalone="no"?>
<!DOCTYPE svg PUBLIC "-//W3C//DTD SVG 1.1//EN"
 "http://www.w3.org/Graphics/SVG/1.1/DTD/svg11.dtd">
<!-- Generated by graphviz version 2.40.1 (20161225.0304)
 -->
<!-- Title: ViennaRNA/dp_matrices.h Pages: 1 -->
<!--zoomable 341 -->
<svg id="main" version="1.1" xmlns="http://www.w3.org/2000/svg" xmlns:xlink="http://www.w3.org/1999/xlink" xml:space="preserve" onload="init(evt)">
<style type="text/css"><![CDATA[
.edge:hover path { stroke: red; }
.edge:hover polygon { stroke: red; fill: red; }
]]></style>
<script type="text/javascript"><![CDATA[
var edges = document.getElementsByTagName('g');
if (edges && edges.length) {
  for (var i=0;i<edges.length;i++) {
    if (edges[i].id.substr(0,4)=='edge') {
      edges[i].setAttribute('class','edge');
    }
  }
}
]]></script>
        <defs>
                <circle id="rim" cx="0" cy="0" r="7"/>
                <circle id="rim2" cx="0" cy="0" r="3.5"/>
                <g id="zoomPlus">
                        <use xlink:href="#rim" fill="#404040">
                                <set attributeName="fill" to="#808080" begin="zoomplus.mouseover" end="zoomplus.mouseout"/>
                        </use>
                        <path d="M-4,0h8M0,-4v8" fill="none" stroke="white" stroke-width="1.5" pointer-events="none"/>
                </g>
                <g id="zoomMin">
                        <use xlink:href="#rim" fill="#404040">
                                <set attributeName="fill" to="#808080" begin="zoomminus.mouseover" end="zoomminus.mouseout"/>
                        </use>
                        <path d="M-4,0h8" fill="none" stroke="white" stroke-width="1.5" pointer-events="none"/>
                </g>
                <g id="dirArrow">
                        <path fill="none" stroke="white" stroke-width="1.5" d="M0,-3.0v7 M-2.5,-0.5L0,-3.0L2.5,-0.5"/>
                </g>
               <g id="resetDef">
                       <use xlink:href="#rim2" fill="#404040">
                               <set attributeName="fill" to="#808080" begin="reset.mouseover" end="reset.mouseout"/>
                       </use>
               </g>
        </defs>

<script type="text/javascript">
var viewWidth = 1300;
var viewHeight = 341;
var sectionId = 'dynsection-0';
</script>
<script xlink:href="svgpan.js"/>
<svg id="graph" class="graph">
<g id="viewport">
<title>ViennaRNA/dp_matrices.h</title>
<!-- Node0 -->
<g id="node1" class="node">
<title>Node0</title>
<polygon fill="#bfbfbf" stroke="#000000" points="490.5,-313.5 490.5,-332.5 621.5,-332.5 621.5,-313.5 490.5,-313.5"/>
<text text-anchor="middle" x="556" y="-320.5" font-family="Helvetica,sans-Serif" font-size="10.00" fill="#000000">ViennaRNA/dp_matrices.h</text>
</g>
<!-- Node1 -->
<g id="node2" class="node">
<title>Node1</title>
<g id="a_node2"><a xlink:href="data__structures_8h.html" target="_top" xlink:title="Various data structures and pre&#45;processor macros. ">
<polygon fill="none" stroke="#000000" points="483,-257.5 483,-276.5 629,-276.5 629,-257.5 483,-257.5"/>
<text text-anchor="middle" x="556" y="-264.5" font-family="Helvetica,sans-Serif" font-size="10.00" fill="#000000">ViennaRNA/data_structures.h</text>
</a>
</g>
</g>
<!-- Node0&#45;&gt;Node1 -->
<g id="edge1" class="edge">
<title>Node0&#45;&gt;Node1</title>
<path fill="none" stroke="#191970" d="M550.7332,-313.2455C549.3221,-305.9382 548.9179,-295.6944 549.5205,-286.7046"/>
<polygon fill="#191970" stroke="#191970" points="553.0111,-286.9945 550.7549,-276.6427 546.0632,-286.1421 553.0111,-286.9945"/>
</g>
<!-- Node1&#45;&gt;Node0 -->
<g id="edge30" class="edge">
<title>Node1&#45;&gt;Node0</title>
<path fill="none" stroke="#191970" d="M561.2451,-276.6427C562.6665,-283.9199 563.081,-294.155 562.4887,-303.1575"/>
<polygon fill="#191970" stroke="#191970" points="558.9947,-302.8972 561.2668,-313.2455 565.9439,-303.739 558.9947,-302.8972"/>
</g>
<!-- Node2 -->
<g id="node3" class="node">
<title>Node2</title>
<g id="a_node3"><a xlink:href="energy__const_8h.html" target="_top" xlink:title="Energy parameter constants. ">
<polygon fill="none" stroke="#000000" points="470.5,-62 470.5,-81 607.5,-81 607.5,-62 470.5,-62"/>
<text text-anchor="middle" x="539" y="-69" font-family="Helvetica,sans-Serif" font-size="10.00" fill="#000000">ViennaRNA/energy_const.h</text>
</a>
</g>
</g>
<!-- Node1&#45;&gt;Node2 -->
<g id="edge2" class="edge">
<title>Node1&#45;&gt;Node2</title>
<path fill="none" stroke="#191970" d="M561.5148,-257.4393C572.0994,-238.473 594.9288,-194.4219 603,-154 605.6978,-140.4889 608.9507,-135.4265 603,-123 595.5217,-107.3836 580.7425,-94.9964 567.269,-86.2879"/>
<polygon fill="#191970" stroke="#191970" points="569.0612,-83.2814 558.6935,-81.0993 565.4375,-89.2705 569.0612,-83.2814"/>
</g>
<!-- Node4 -->
<g id="node5" class="node">
<title>Node4</title>
<g id="a_node5"><a xlink:href="fold__compound_8h.html" target="_top" xlink:title="The Basic Fold Compound API. ">
<polygon fill="none" stroke="#000000" points="228,-196 228,-215 372,-215 372,-196 228,-196"/>
<text text-anchor="middle" x="300" y="-203" font-family="Helvetica,sans-Serif" font-size="10.00" fill="#000000">ViennaRNA/fold_compound.h</text>
</a>
</g>
</g>
<!-- Node1&#45;&gt;Node4 -->
<g id="edge4" class="edge">
<title>Node1&#45;&gt;Node4</title>
<path fill="none" stroke="#191970" d="M516.2809,-257.4581C471.4397,-246.6857 398.4157,-229.1428 349.7975,-217.4631"/>
<polygon fill="#191970" stroke="#191970" points="350.3532,-213.9971 339.8123,-215.0643 348.7181,-220.8034 350.3532,-213.9971"/>
</g>
<!-- Node5 -->
<g id="node6" class="node">
<title>Node5</title>
<g id="a_node6"><a xlink:href="model_8h.html" target="_top" xlink:title="The model details data structure and its corresponding modifiers. ">
<polygon fill="none" stroke="#000000" points="348,-62 348,-81 452,-81 452,-62 348,-62"/>
<text text-anchor="middle" x="400" y="-69" font-family="Helvetica,sans-Serif" font-size="10.00" fill="#000000">ViennaRNA/model.h</text>
</a>
</g>
</g>
<!-- Node1&#45;&gt;Node5 -->
<g id="edge28" class="edge">
<title>Node1&#45;&gt;Node5</title>
<path fill="none" stroke="#191970" d="M548.2639,-257.3051C523.5203,-226.2963 446.0636,-129.2272 414.0557,-89.1146"/>
<polygon fill="#191970" stroke="#191970" points="416.7558,-86.8869 407.7828,-81.2534 411.2842,-91.2529 416.7558,-86.8869"/>
</g>
<!-- Node6 -->
<g id="node7" class="node">
<title>Node6</title>
<g id="a_node7"><a xlink:href="params_8h.html" target="_top" xlink:title="Functions to deal with sets of energy parameters. ">
<polygon fill="none" stroke="#000000" points="484,-129 484,-148 594,-148 594,-129 484,-129"/>
<text text-anchor="middle" x="539" y="-136" font-family="Helvetica,sans-Serif" font-size="10.00" fill="#000000">ViennaRNA/params.h</text>
</a>
</g>
</g>
<!-- Node1&#45;&gt;Node6 -->
<g id="edge29" class="edge">
<title>Node1&#45;&gt;Node6</title>
<path fill="none" stroke="#191970" d="M550.9488,-257.3416C544.6971,-236.4114 537.668,-186.504 536.5898,-158.4762"/>
<polygon fill="#191970" stroke="#191970" points="540.088,-158.2395 536.5006,-148.2705 533.0882,-158.3007 540.088,-158.2395"/>
</g>
<!-- Node7 -->
<g id="node8" class="node">
<title>Node7</title>
<g id="a_node8"><a xlink:href="constraints_8h.html" target="_top" xlink:title="Functions and data structures for constraining secondary structure predictions and evaluation...">
<polygon fill="none" stroke="#000000" points="810,-129 810,-148 936,-148 936,-129 810,-129"/>
<text text-anchor="middle" x="873" y="-136" font-family="Helvetica,sans-Serif" font-size="10.00" fill="#000000">ViennaRNA/constraints.h</text>
</a>
</g>
</g>
<!-- Node1&#45;&gt;Node7 -->
<g id="edge31" class="edge">
<title>Node1&#45;&gt;Node7</title>
<path fill="none" stroke="#191970" d="M625.8787,-257.4929C683.341,-249.2253 759.4721,-236.2041 787,-221 815.5342,-205.2401 839.5029,-175.1181 855.2585,-155.9592"/>
<polygon fill="#191970" stroke="#191970" points="857.9706,-158.172 861.7018,-148.256 852.6012,-153.6809 857.9706,-158.172"/>
</g>
<!-- Node13 -->
<g id="node14" class="node">
<title>Node13</title>
<g id="a_node14"><a xlink:href="grammar_8h.html" target="_top" xlink:title="Implementations for the RNA folding grammar. ">
<polygon fill="none" stroke="#000000" points="0,-129 0,-148 116,-148 116,-129 0,-129"/>
<text text-anchor="middle" x="58" y="-136" font-family="Helvetica,sans-Serif" font-size="10.00" fill="#000000">ViennaRNA/grammar.h</text>
</a>
</g>
</g>
<!-- Node1&#45;&gt;Node13 -->
<g id="edge32" class="edge">
<title>Node1&#45;&gt;Node13</title>
<path fill="none" stroke="#191970" d="M482.7576,-261.7727C390.7416,-254.2734 238.7431,-239.3246 186,-221 141.3493,-205.487 95.4956,-174.1196 72.4341,-154.8465"/>
<polygon fill="#191970" stroke="#191970" points="74.5855,-152.0778 64.7616,-148.1103 69.9671,-157.3382 74.5855,-152.0778"/>
</g>
<!-- Node14 -->
<g id="node15" class="node">
<title>Node14</title>
<g id="a_node15"><a xlink:href="structured__domains_8h.html" target="_top" xlink:title="This module provides interfaces that deal with additional structured domains in the folding grammar...">
<polygon fill="none" stroke="#000000" points="134.5,-123.5 134.5,-153.5 247.5,-153.5 247.5,-123.5 134.5,-123.5"/>
<text text-anchor="start" x="142.5" y="-141.5" font-family="Helvetica,sans-Serif" font-size="10.00" fill="#000000">ViennaRNA/structured</text>
<text text-anchor="middle" x="191" y="-130.5" font-family="Helvetica,sans-Serif" font-size="10.00" fill="#000000">_domains.h</text>
</a>
</g>
</g>
<!-- Node1&#45;&gt;Node14 -->
<g id="edge33" class="edge">
<title>Node1&#45;&gt;Node14</title>
<path fill="none" stroke="#191970" d="M482.9176,-261.1049C389.9517,-252.9857 238.9875,-237.484 219,-221 202.0459,-207.0177 195.3172,-182.3323 192.6682,-163.5969"/>
<polygon fill="#191970" stroke="#191970" points="196.1449,-163.1921 191.5552,-153.643 189.1882,-163.9701 196.1449,-163.1921"/>
</g>
<!-- Node15 -->
<g id="node16" class="node">
<title>Node15</title>
<g id="a_node16"><a xlink:href="unstructured__domains_8h.html" target="_top" xlink:title="Functions to modify unstructured domains, e.g. to incorporate ligands binding to unpaired stretches...">
<polygon fill="none" stroke="#000000" points="304,-123.5 304,-153.5 428,-153.5 428,-123.5 304,-123.5"/>
<text text-anchor="start" x="312" y="-141.5" font-family="Helvetica,sans-Serif" font-size="10.00" fill="#000000">ViennaRNA/unstructured</text>
<text text-anchor="middle" x="366" y="-130.5" font-family="Helvetica,sans-Serif" font-size="10.00" fill="#000000">_domains.h</text>
</a>
</g>
</g>
<!-- Node1&#45;&gt;Node15 -->
<g id="edge34" class="edge">
<title>Node1&#45;&gt;Node15</title>
<path fill="none" stroke="#191970" d="M513.7889,-257.4482C488.6861,-249.896 457.313,-237.8109 433,-221 409.8115,-204.9666 388.5455,-180.6849 376.0704,-162.6106"/>
<polygon fill="#191970" stroke="#191970" points="378.7481,-160.3052 370.3844,-153.8014 372.8668,-164.1013 378.7481,-160.3052"/>
</g>
<!-- Node16 -->
<g id="node17" class="node">
<title>Node16</title>
<g id="a_node17"><a xlink:href="structure__utils_8h.html" target="_top" xlink:title="Various utility&#45; and helper&#45;functions for secondary structure parsing, converting, etc. ">
<polygon fill="none" stroke="#000000" points="608,-190.5 608,-220.5 716,-220.5 716,-190.5 608,-190.5"/>
<text text-anchor="start" x="616" y="-208.5" font-family="Helvetica,sans-Serif" font-size="10.00" fill="#000000">ViennaRNA/structure</text>
<text text-anchor="middle" x="662" y="-197.5" font-family="Helvetica,sans-Serif" font-size="10.00" fill="#000000">_utils.h</text>
</a>
</g>
</g>
<!-- Node1&#45;&gt;Node16 -->
<g id="edge35" class="edge">
<title>Node1&#45;&gt;Node16</title>
<path fill="none" stroke="#191970" d="M567.5,-257.3906C580.5162,-248.8747 601.9861,-236.166 621.236,-225.4573"/>
<polygon fill="#191970" stroke="#191970" points="623.0954,-228.4292 630.1724,-220.5446 619.7232,-222.295 623.0954,-228.4292"/>
</g>
<!-- Node3 -->
<g id="node4" class="node">
<title>Node3</title>
<polygon fill="none" stroke="#bfbfbf" points="515,-.5 515,-19.5 563,-19.5 563,-.5 515,-.5"/>
<text text-anchor="middle" x="539" y="-7.5" font-family="Helvetica,sans-Serif" font-size="10.00" fill="#000000">limits.h</text>
</g>
<!-- Node2&#45;&gt;Node3 -->
<g id="edge3" class="edge">
<title>Node2&#45;&gt;Node3</title>
<path fill="none" stroke="#191970" d="M539,-61.8906C539,-53.3657 539,-40.6392 539,-29.9235"/>
<polygon fill="#191970" stroke="#191970" points="542.5001,-29.7448 539,-19.7449 535.5001,-29.7449 542.5001,-29.7448"/>
</g>
<!-- Node4&#45;&gt;Node0 -->
<g id="edge10" class="edge">
<title>Node4&#45;&gt;Node0</title>
<path fill="none" stroke="#191970" d="M320.88,-215.0836C366.1209,-235.8484 473.3395,-285.0601 525.8997,-309.1844"/>
<polygon fill="#191970" stroke="#191970" points="524.502,-312.3939 535.0504,-313.3845 527.4221,-306.032 524.502,-312.3939"/>
</g>
<!-- Node4&#45;&gt;Node5 -->
<g id="edge5" class="edge">
<title>Node4&#45;&gt;Node5</title>
<path fill="none" stroke="#191970" d="M296.1085,-195.9754C290.1156,-179.6548 280.73,-145.8932 295,-123 306.6297,-104.3426 327.2065,-92.2547 347.081,-84.5168"/>
<polygon fill="#191970" stroke="#191970" points="348.5046,-87.7247 356.7389,-81.0578 346.1443,-81.1346 348.5046,-87.7247"/>
</g>
<!-- Node4&#45;&gt;Node6 -->
<g id="edge6" class="edge">
<title>Node4&#45;&gt;Node6</title>
<path fill="none" stroke="#191970" d="M333.9891,-195.9717C376.2518,-184.124 448.4802,-163.8758 494.9501,-150.8487"/>
<polygon fill="#191970" stroke="#191970" points="496.0572,-154.1734 504.7412,-148.1039 494.1677,-147.4332 496.0572,-154.1734"/>
</g>
<!-- Node4&#45;&gt;Node7 -->
<g id="edge11" class="edge">
<title>Node4&#45;&gt;Node7</title>
<path fill="none" stroke="#191970" d="M372.2805,-197.0484C481.9801,-184.2214 689.3748,-159.971 799.6849,-147.0726"/>
<polygon fill="#191970" stroke="#191970" points="800.2005,-150.5363 809.7263,-145.8985 799.3875,-143.5836 800.2005,-150.5363"/>
</g>
<!-- Node4&#45;&gt;Node13 -->
<g id="edge23" class="edge">
<title>Node4&#45;&gt;Node13</title>
<path fill="none" stroke="#191970" d="M265.5843,-195.9717C222.7911,-184.124 149.656,-163.8758 102.6028,-150.8487"/>
<polygon fill="#191970" stroke="#191970" points="103.2602,-147.3991 92.6888,-148.1039 101.3923,-154.1453 103.2602,-147.3991"/>
</g>
<!-- Node4&#45;&gt;Node14 -->
<g id="edge25" class="edge">
<title>Node4&#45;&gt;Node14</title>
<path fill="none" stroke="#191970" d="M284.383,-195.9005C268.6919,-186.2556 244.0284,-171.0954 223.9876,-158.7768"/>
<polygon fill="#191970" stroke="#191970" points="225.7905,-155.7767 215.4384,-153.5218 222.1248,-161.7402 225.7905,-155.7767"/>
</g>
<!-- Node4&#45;&gt;Node15 -->
<g id="edge26" class="edge">
<title>Node4&#45;&gt;Node15</title>
<path fill="none" stroke="#191970" d="M309.4562,-195.9005C318.4033,-186.8178 332.1684,-172.8442 343.8767,-160.9585"/>
<polygon fill="#191970" stroke="#191970" points="346.6781,-163.102 351.2024,-153.5218 341.6913,-158.1896 346.6781,-163.102"/>
</g>
<!-- Node6&#45;&gt;Node1 -->
<g id="edge8" class="edge">
<title>Node6&#45;&gt;Node1</title>
<path fill="none" stroke="#191970" d="M544.0846,-148.2705C550.339,-169.3037 557.3589,-219.2236 558.4159,-247.1733"/>
<polygon fill="#191970" stroke="#191970" points="554.9172,-247.3694 558.4956,-257.3416 561.917,-247.3144 554.9172,-247.3694"/>
</g>
<!-- Node6&#45;&gt;Node2 -->
<g id="edge7" class="edge">
<title>Node6&#45;&gt;Node2</title>
<path fill="none" stroke="#191970" d="M539,-128.9005C539,-119.149 539,-103.7597 539,-91.3695"/>
<polygon fill="#191970" stroke="#191970" points="542.5001,-91.0816 539,-81.0817 535.5001,-91.0817 542.5001,-91.0816"/>
</g>
<!-- Node6&#45;&gt;Node5 -->
<g id="edge9" class="edge">
<title>Node6&#45;&gt;Node5</title>
<path fill="none" stroke="#191970" d="M519.0847,-128.9005C495.5509,-117.5569 456.1899,-98.5844 429.2071,-85.5783"/>
<polygon fill="#191970" stroke="#191970" points="430.4063,-82.2709 419.8784,-81.0817 427.3668,-88.5766 430.4063,-82.2709"/>
</g>
<!-- Node7&#45;&gt;Node1 -->
<g id="edge12" class="edge">
<title>Node7&#45;&gt;Node1</title>
<path fill="none" stroke="#191970" d="M872.2261,-148.256C864.4968,-165.8885 837.7567,-202.908 805,-221 777.2967,-236.3009 700.3691,-249.391 639.2199,-257.6504"/>
<polygon fill="#191970" stroke="#191970" points="638.6181,-254.1994 629.1653,-258.9844 639.5388,-261.1386 638.6181,-254.1994"/>
</g>
<!-- Node8 -->
<g id="node9" class="node">
<title>Node8</title>
<g id="a_node9"><a xlink:href="constraints__hard_8h.html" target="_top" xlink:title="Functions and data structures for handling of secondary structure hard constraints. ">
<polygon fill="none" stroke="#000000" points="626,-56.5 626,-86.5 744,-86.5 744,-56.5 626,-56.5"/>
<text text-anchor="start" x="634" y="-74.5" font-family="Helvetica,sans-Serif" font-size="10.00" fill="#000000">ViennaRNA/constraints</text>
<text text-anchor="middle" x="685" y="-63.5" font-family="Helvetica,sans-Serif" font-size="10.00" fill="#000000">_hard.h</text>
</a>
</g>
</g>
<!-- Node7&#45;&gt;Node8 -->
<g id="edge13" class="edge">
<title>Node7&#45;&gt;Node8</title>
<path fill="none" stroke="#191970" d="M846.0642,-128.9005C817.6658,-118.7798 772.2274,-102.5864 736.842,-89.9756"/>
<polygon fill="#191970" stroke="#191970" points="737.7453,-86.582 727.1506,-86.5218 735.3953,-93.1757 737.7453,-86.582"/>
</g>
<!-- Node9 -->
<g id="node10" class="node">
<title>Node9</title>
<g id="a_node10"><a xlink:href="constraints__soft_8h.html" target="_top" xlink:title="Functions and data structures for secondary structure soft constraints. ">
<polygon fill="none" stroke="#000000" points="762,-56.5 762,-86.5 880,-86.5 880,-56.5 762,-56.5"/>
<text text-anchor="start" x="770" y="-74.5" font-family="Helvetica,sans-Serif" font-size="10.00" fill="#000000">ViennaRNA/constraints</text>
<text text-anchor="middle" x="821" y="-63.5" font-family="Helvetica,sans-Serif" font-size="10.00" fill="#000000">_soft.h</text>
</a>
</g>
</g>
<!-- Node7&#45;&gt;Node9 -->
<g id="edge15" class="edge">
<title>Node7&#45;&gt;Node9</title>
<path fill="none" stroke="#191970" d="M865.5497,-128.9005C858.6347,-119.9908 848.067,-106.3748 838.9593,-94.6399"/>
<polygon fill="#191970" stroke="#191970" points="841.5549,-92.2757 832.6587,-86.5218 836.025,-96.5676 841.5549,-92.2757"/>
</g>
<!-- Node10 -->
<g id="node11" class="node">
<title>Node10</title>
<g id="a_node11"><a xlink:href="constraints__SHAPE_8h.html" target="_top" xlink:title="This module provides function to incorporate SHAPE reactivity data into the folding recursions by mea...">
<polygon fill="none" stroke="#000000" points="898,-56.5 898,-86.5 1016,-86.5 1016,-56.5 898,-56.5"/>
<text text-anchor="start" x="906" y="-74.5" font-family="Helvetica,sans-Serif" font-size="10.00" fill="#000000">ViennaRNA/constraints</text>
<text text-anchor="middle" x="957" y="-63.5" font-family="Helvetica,sans-Serif" font-size="10.00" fill="#000000">_SHAPE.h</text>
</a>
</g>
</g>
<!-- Node7&#45;&gt;Node10 -->
<g id="edge17" class="edge">
<title>Node7&#45;&gt;Node10</title>
<path fill="none" stroke="#191970" d="M885.0352,-128.9005C896.7478,-119.5583 914.9477,-105.0417 930.1137,-92.945"/>
<polygon fill="#191970" stroke="#191970" points="932.5314,-95.4936 938.1667,-86.5218 928.1665,-90.0212 932.5314,-95.4936"/>
</g>
<!-- Node11 -->
<g id="node12" class="node">
<title>Node11</title>
<g id="a_node12"><a xlink:href="perturbation__fold_8h.html" target="_top" xlink:title="Find a vector of perturbation energies that minimizes the discripancies between predicted and observe...">
<polygon fill="none" stroke="#000000" points="1034.5,-56.5 1034.5,-86.5 1155.5,-86.5 1155.5,-56.5 1034.5,-56.5"/>
<text text-anchor="start" x="1042.5" y="-74.5" font-family="Helvetica,sans-Serif" font-size="10.00" fill="#000000">ViennaRNA/perturbation</text>
<text text-anchor="middle" x="1095" y="-63.5" font-family="Helvetica,sans-Serif" font-size="10.00" fill="#000000">_fold.h</text>
</a>
</g>
</g>
<!-- Node7&#45;&gt;Node11 -->
<g id="edge19" class="edge">
<title>Node7&#45;&gt;Node11</title>
<path fill="none" stroke="#191970" d="M904.8072,-128.9005C938.8431,-118.6284 993.607,-102.1006 1035.6492,-89.4122"/>
<polygon fill="#191970" stroke="#191970" points="1036.6642,-92.7619 1045.2264,-86.5218 1034.6416,-86.0604 1036.6642,-92.7619"/>
</g>
<!-- Node12 -->
<g id="node13" class="node">
<title>Node12</title>
<g id="a_node13"><a xlink:href="constraints__ligand_8h.html" target="_top" xlink:title="Functions for incorporation of ligands binding to hairpin and interior loop motifs using the soft con...">
<polygon fill="none" stroke="#000000" points="1174,-56.5 1174,-86.5 1292,-86.5 1292,-56.5 1174,-56.5"/>
<text text-anchor="start" x="1182" y="-74.5" font-family="Helvetica,sans-Serif" font-size="10.00" fill="#000000">ViennaRNA/constraints</text>
<text text-anchor="middle" x="1233" y="-63.5" font-family="Helvetica,sans-Serif" font-size="10.00" fill="#000000">_ligand.h</text>
</a>
</g>
</g>
<!-- Node7&#45;&gt;Node12 -->
<g id="edge21" class="edge">
<title>Node7&#45;&gt;Node12</title>
<path fill="none" stroke="#191970" d="M931.8865,-128.9944C988.7824,-119.6111 1077.625,-104.4372 1163.755,-87.2008"/>
<polygon fill="#191970" stroke="#191970" points="1164.5865,-90.6037 1173.6991,-85.199 1163.2051,-83.7414 1164.5865,-90.6037"/>
</g>
<!-- Node8&#45;&gt;Node1 -->
<g id="edge14" class="edge">
<title>Node8&#45;&gt;Node1</title>
<path fill="none" stroke="#191970" d="M696.7957,-86.7201C717.762,-115.7491 756.4859,-179.7984 725,-221 713.1705,-236.4798 670.8406,-247.988 631.5081,-255.6222"/>
<polygon fill="#191970" stroke="#191970" points="630.7777,-252.1981 621.5933,-257.4797 632.0668,-259.0784 630.7777,-252.1981"/>
</g>
<!-- Node9&#45;&gt;Node1 -->
<g id="edge16" class="edge">
<title>Node9&#45;&gt;Node1</title>
<path fill="none" stroke="#191970" d="M815.0555,-86.7214C801.3692,-121.0326 767.0424,-202.8354 744,-221 725.907,-235.2629 673.2543,-247.4446 628.2578,-255.6821"/>
<polygon fill="#191970" stroke="#191970" points="627.425,-252.2755 618.1982,-257.4827 628.6584,-259.166 627.425,-252.2755"/>
</g>
<!-- Node10&#45;&gt;Node1 -->
<g id="edge18" class="edge">
<title>Node10&#45;&gt;Node1</title>
<path fill="none" stroke="#191970" d="M958.4139,-86.5097C959.3116,-104.1203 958.3619,-133.5116 945,-154 914.3494,-200.9978 890.5012,-201.2044 838,-221 773.7432,-245.2281 696.5162,-256.7044 639.1379,-262.1355"/>
<polygon fill="#191970" stroke="#191970" points="638.6686,-258.6635 629.0244,-263.0498 639.299,-265.6351 638.6686,-258.6635"/>
</g>
<!-- Node11&#45;&gt;Node1 -->
<g id="edge20" class="edge">
<title>Node11&#45;&gt;Node1</title>
<path fill="none" stroke="#191970" d="M1079.5062,-86.9553C1047.1386,-118.1991 968.6378,-188.6443 888,-221 844.1935,-238.5773 722.5761,-252.3501 639.3622,-260.0814"/>
<polygon fill="#191970" stroke="#191970" points="638.7973,-256.6184 629.1587,-261.0171 639.4366,-263.5891 638.7973,-256.6184"/>
</g>
<!-- Node12&#45;&gt;Node1 -->
<g id="edge22" class="edge">
<title>Node12&#45;&gt;Node1</title>
<path fill="none" stroke="#191970" d="M1209.4023,-86.6258C1159.8575,-117.578 1040.4394,-187.9994 930,-221 877.3088,-236.7448 732.5196,-251.6491 639.326,-260.0261"/>
<polygon fill="#191970" stroke="#191970" points="639.0009,-256.5411 629.3513,-260.9156 639.6227,-263.5135 639.0009,-256.5411"/>
</g>
<!-- Node13&#45;&gt;Node1 -->
<g id="edge24" class="edge">
<title>Node13&#45;&gt;Node1</title>
<path fill="none" stroke="#191970" d="M75.1678,-148.1103C101.76,-165.8463 153.645,-203.5051 204,-221 252.4871,-237.8459 384.8579,-251.8389 472.7922,-259.8139"/>
<polygon fill="#191970" stroke="#191970" points="472.4806,-263.2999 482.7537,-260.709 473.1071,-256.328 472.4806,-263.2999"/>
</g>
<!-- Node15&#45;&gt;Node1 -->
<g id="edge27" class="edge">
<title>Node15&#45;&gt;Node1</title>
<path fill="none" stroke="#191970" d="M383.1134,-153.8014C399.1901,-171.969 423.7695,-202.1718 451,-221 471.9132,-235.4602 498.05,-246.4237 519.1127,-254.0136"/>
<polygon fill="#191970" stroke="#191970" points="518.1024,-257.3681 528.6972,-257.3663 520.4137,-250.7606 518.1024,-257.3681"/>
</g>
<!-- Node16&#45;&gt;Node1 -->
<g id="edge37" class="edge">
<title>Node16&#45;&gt;Node1</title>
<path fill="none" stroke="#191970" d="M641.9666,-220.5446C626.2663,-230.3298 604.373,-243.0154 586.5314,-252.6574"/>
<polygon fill="#191970" stroke="#191970" points="584.8129,-249.607 577.625,-257.3906 588.098,-255.7884 584.8129,-249.607"/>
</g>
<!-- Node17 -->
<g id="node18" class="node">
<title>Node17</title>
<polygon fill="none" stroke="#bfbfbf" points="650,-129 650,-148 696,-148 696,-129 650,-129"/>
<text text-anchor="middle" x="673" y="-136" font-family="Helvetica,sans-Serif" font-size="10.00" fill="#000000">stdio.h</text>
</g>
<!-- Node16&#45;&gt;Node17 -->
<g id="edge36" class="edge">
<title>Node16&#45;&gt;Node17</title>
<path fill="none" stroke="#191970" d="M664.4961,-190.2967C666.0602,-180.7699 668.0918,-168.3954 669.7771,-158.1306"/>
<polygon fill="#191970" stroke="#191970" points="673.2649,-158.4899 671.4313,-148.055 666.3573,-157.3558 673.2649,-158.4899"/>
</g>
</g>
</svg>
        <g id="navigator" transform="translate(0 0)" fill="#404254">
                <rect fill="#f2f5e9" fill-opacity="0.5" stroke="#606060" stroke-width=".5" x="0" y="0" width="60" height="60"/>
                <use id="zoomplus" xlink:href="#zoomPlus" x="17" y="9" onmousedown="handleZoom(evt,'in')"/>
                <use id="zoomminus" xlink:href="#zoomMin" x="42" y="9" onmousedown="handleZoom(evt,'out')"/>
                <use id="reset" xlink:href="#resetDef" x="30" y="36" onmousedown="handleReset()"/>
                <g id="arrowUp" xlink:href="#dirArrow" transform="translate(30 24)" onmousedown="handlePan(0,-1)">
                  <use xlink:href="#rim" fill="#404040">
                        <set attributeName="fill" to="#808080" begin="arrowUp.mouseover" end="arrowUp.mouseout"/>
                  </use>
                  <path fill="none" stroke="white" stroke-width="1.5" d="M0,-3.0v7 M-2.5,-0.5L0,-3.0L2.5,-0.5"/>
                </g>
                <g id="arrowRight" xlink:href="#dirArrow" transform="rotate(90) translate(36 -43)" onmousedown="handlePan(1,0)">
                  <use xlink:href="#rim" fill="#404040">
                        <set attributeName="fill" to="#808080" begin="arrowRight.mouseover" end="arrowRight.mouseout"/>
                  </use>
                  <path fill="none" stroke="white" stroke-width="1.5" d="M0,-3.0v7 M-2.5,-0.5L0,-3.0L2.5,-0.5"/>
                </g>
                <g id="arrowDown" xlink:href="#dirArrow" transform="rotate(180) translate(-30 -48)" onmousedown="handlePan(0,1)">
                  <use xlink:href="#rim" fill="#404040">
                        <set attributeName="fill" to="#808080" begin="arrowDown.mouseover" end="arrowDown.mouseout"/>
                  </use>
                  <path fill="none" stroke="white" stroke-width="1.5" d="M0,-3.0v7 M-2.5,-0.5L0,-3.0L2.5,-0.5"/>
                </g>
                <g id="arrowLeft" xlink:href="#dirArrow" transform="rotate(270) translate(-36 17)" onmousedown="handlePan(-1,0)">
                  <use xlink:href="#rim" fill="#404040">
                        <set attributeName="fill" to="#808080" begin="arrowLeft.mouseover" end="arrowLeft.mouseout"/>
                  </use>
                  <path fill="none" stroke="white" stroke-width="1.5" d="M0,-3.0v7 M-2.5,-0.5L0,-3.0L2.5,-0.5"/>
                </g>
        </g>
        <svg viewBox="0 0 15 15" width="100%" height="30px" preserveAspectRatio="xMaxYMin meet">
         <g id="arrow_out" transform="scale(0.3 0.3)">
          <a xlink:href="dp__matrices_8h__incl_org.svg" target="_base">
           <rect id="button" ry="5" rx="5" y="6" x="6" height="38" width="38"
                fill="#f2f5e9" fill-opacity="0.5" stroke="#606060" stroke-width="1.0"/>
           <path id="arrow"
             d="M 11.500037,31.436501 C 11.940474,20.09759 22.043105,11.32322 32.158766,21.979434 L 37.068811,17.246167 C 37.068811,17.246167 37.088388,32 37.088388,32 L 22.160133,31.978069 C 22.160133,31.978069 26.997745,27.140456 26.997745,27.140456 C 18.528582,18.264221 13.291696,25.230495 11.500037,31.436501 z"
             style="fill:#404040;"/>
          </a>
         </g>
        </svg>
</svg>
