<?xml version="1.0" encoding="UTF-8" standalone="no"?>
<!DOCTYPE svg PUBLIC "-//W3C//DTD SVG 1.1//EN"
 "http://www.w3.org/Graphics/SVG/1.1/DTD/svg11.dtd">
<!-- Generated by graphviz version 2.40.1 (20161225.0304)
 -->
<!-- Title: ViennaRNA/file_formats.h Pages: 1 -->
<svg width="1231pt" height="352pt"
 viewBox="0.00 0.00 1231.44 352.00" xmlns="http://www.w3.org/2000/svg" xmlns:xlink="http://www.w3.org/1999/xlink">
<g id="graph0" class="graph" transform="scale(1 1) rotate(0) translate(4 348)">
<title>ViennaRNA/file_formats.h</title>
<!-- Node0 -->
<g id="node1" class="node">
<title>Node0</title>
<polygon fill="#bfbfbf" stroke="#000000" points="1078.8266,-324.5 1078.8266,-343.5 1207.8266,-343.5 1207.8266,-324.5 1078.8266,-324.5"/>
<text text-anchor="middle" x="1143.3266" y="-331.5" font-family="Helvetica,sans-Serif" font-size="10.00" fill="#000000">ViennaRNA/file_formats.h</text>
</g>
<!-- Node1 -->
<g id="node2" class="node">
<title>Node1</title>
<polygon fill="none" stroke="#bfbfbf" points="1171.3266,-129 1171.3266,-148 1217.3266,-148 1217.3266,-129 1171.3266,-129"/>
<text text-anchor="middle" x="1194.3266" y="-136" font-family="Helvetica,sans-Serif" font-size="10.00" fill="#000000">stdio.h</text>
</g>
<!-- Node0&#45;&gt;Node1 -->
<g id="edge1" class="edge">
<title>Node0&#45;&gt;Node1</title>
<path fill="none" stroke="#191970" d="M1168.8527,-324.3698C1184.4687,-316.9914 1203.1554,-305.1364 1212.3266,-288 1234.9472,-245.733 1215.9243,-187.3083 1203.3112,-157.5622"/>
<polygon fill="#191970" stroke="#191970" points="1206.458,-156.0247 1199.1959,-148.3102 1200.0622,-158.8696 1206.458,-156.0247"/>
</g>
<!-- Node2 -->
<g id="node3" class="node">
<title>Node2</title>
<g id="a_node3"><a xlink:href="data__structures_8h.html" target="_top" xlink:title="Various data structures and pre&#45;processor macros. ">
<polygon fill="none" stroke="#000000" points="588.3266,-263 588.3266,-282 734.3266,-282 734.3266,-263 588.3266,-263"/>
<text text-anchor="middle" x="661.3266" y="-270" font-family="Helvetica,sans-Serif" font-size="10.00" fill="#000000">ViennaRNA/data_structures.h</text>
</a>
</g>
</g>
<!-- Node0&#45;&gt;Node2 -->
<g id="edge2" class="edge">
<title>Node0&#45;&gt;Node2</title>
<path fill="none" stroke="#191970" d="M1078.822,-325.7697C992.5661,-314.764 839.5388,-295.2387 744.6444,-283.1308"/>
<polygon fill="#191970" stroke="#191970" points="744.8715,-279.6315 734.509,-281.8376 743.9855,-286.5752 744.8715,-279.6315"/>
</g>
<!-- Node19 -->
<g id="node20" class="node">
<title>Node19</title>
<g id="a_node20"><a xlink:href="file__formats__msa_8h.html" target="_top" xlink:title="Functions dealing with file formats for Multiple Sequence Alignments (MSA) ">
<polygon fill="none" stroke="#000000" points="1082.8266,-257.5 1082.8266,-287.5 1203.8266,-287.5 1203.8266,-257.5 1082.8266,-257.5"/>
<text text-anchor="start" x="1090.8266" y="-275.5" font-family="Helvetica,sans-Serif" font-size="10.00" fill="#000000">ViennaRNA/file_formats</text>
<text text-anchor="middle" x="1143.3266" y="-264.5" font-family="Helvetica,sans-Serif" font-size="10.00" fill="#000000">_msa.h</text>
</a>
</g>
</g>
<!-- Node0&#45;&gt;Node19 -->
<g id="edge40" class="edge">
<title>Node0&#45;&gt;Node19</title>
<path fill="none" stroke="#191970" d="M1143.3266,-324.3906C1143.3266,-317.2234 1143.3266,-307.0862 1143.3266,-297.671"/>
<polygon fill="#191970" stroke="#191970" points="1146.8267,-297.5446 1143.3266,-287.5446 1139.8267,-297.5446 1146.8267,-297.5446"/>
</g>
<!-- Node3 -->
<g id="node4" class="node">
<title>Node3</title>
<g id="a_node4"><a xlink:href="energy__const_8h.html" target="_top" xlink:title="Energy parameter constants. ">
<polygon fill="none" stroke="#000000" points="988.8266,-62 988.8266,-81 1125.8266,-81 1125.8266,-62 988.8266,-62"/>
<text text-anchor="middle" x="1057.3266" y="-69" font-family="Helvetica,sans-Serif" font-size="10.00" fill="#000000">ViennaRNA/energy_const.h</text>
</a>
</g>
</g>
<!-- Node2&#45;&gt;Node3 -->
<g id="edge3" class="edge">
<title>Node2&#45;&gt;Node3</title>
<path fill="none" stroke="#191970" d="M734.4674,-268.3312C793.6266,-262.8581 878.0208,-250.2105 946.3266,-221 992.8351,-201.1109 1010.4431,-196.2034 1038.3266,-154 1050.8142,-135.0991 1055.1523,-109.0525 1056.6274,-91.3158"/>
<polygon fill="#191970" stroke="#191970" points="1060.1259,-91.4434 1057.2317,-81.2515 1053.1385,-91.0237 1060.1259,-91.4434"/>
</g>
<!-- Node5 -->
<g id="node6" class="node">
<title>Node5</title>
<g id="a_node6"><a xlink:href="fold__compound_8h.html" target="_top" xlink:title="The Basic Fold Compound API. ">
<polygon fill="none" stroke="#000000" points="534.3266,-196 534.3266,-215 678.3266,-215 678.3266,-196 534.3266,-196"/>
<text text-anchor="middle" x="606.3266" y="-203" font-family="Helvetica,sans-Serif" font-size="10.00" fill="#000000">ViennaRNA/fold_compound.h</text>
</a>
</g>
</g>
<!-- Node2&#45;&gt;Node5 -->
<g id="edge5" class="edge">
<title>Node2&#45;&gt;Node5</title>
<path fill="none" stroke="#191970" d="M653.4464,-262.9005C644.9513,-252.552 631.2442,-235.8542 620.7985,-223.1295"/>
<polygon fill="#191970" stroke="#191970" points="623.2423,-220.5902 614.1921,-215.0817 617.8318,-225.0317 623.2423,-220.5902"/>
</g>
<!-- Node6 -->
<g id="node7" class="node">
<title>Node6</title>
<g id="a_node7"><a xlink:href="model_8h.html" target="_top" xlink:title="The model details data structure and its corresponding modifiers. ">
<polygon fill="none" stroke="#000000" points="866.3266,-62 866.3266,-81 970.3266,-81 970.3266,-62 866.3266,-62"/>
<text text-anchor="middle" x="918.3266" y="-69" font-family="Helvetica,sans-Serif" font-size="10.00" fill="#000000">ViennaRNA/model.h</text>
</a>
</g>
</g>
<!-- Node2&#45;&gt;Node6 -->
<g id="edge30" class="edge">
<title>Node2&#45;&gt;Node6</title>
<path fill="none" stroke="#191970" d="M691.9174,-262.8749C716.6088,-254.2347 751.5259,-239.989 778.3266,-221 832.7551,-182.4359 882.5914,-120.1122 905.3388,-89.5584"/>
<polygon fill="#191970" stroke="#191970" points="908.4091,-91.2905 911.5038,-81.1577 902.7657,-87.149 908.4091,-91.2905"/>
</g>
<!-- Node7 -->
<g id="node8" class="node">
<title>Node7</title>
<g id="a_node8"><a xlink:href="params_8h.html" target="_top" xlink:title="Functions to deal with sets of energy parameters. ">
<polygon fill="none" stroke="#000000" points="919.3266,-129 919.3266,-148 1029.3266,-148 1029.3266,-129 919.3266,-129"/>
<text text-anchor="middle" x="974.3266" y="-136" font-family="Helvetica,sans-Serif" font-size="10.00" fill="#000000">ViennaRNA/params.h</text>
</a>
</g>
</g>
<!-- Node2&#45;&gt;Node7 -->
<g id="edge31" class="edge">
<title>Node2&#45;&gt;Node7</title>
<path fill="none" stroke="#191970" d="M724.0063,-262.9825C783.3771,-253.6648 867.4283,-238.3674 896.3266,-221 922.7154,-205.1407 943.7354,-175.4859 957.76,-156.3858"/>
<polygon fill="#191970" stroke="#191970" points="960.6962,-158.3039 963.8904,-148.202 955.0938,-154.1071 960.6962,-158.3039"/>
</g>
<!-- Node8 -->
<g id="node9" class="node">
<title>Node8</title>
<g id="a_node9"><a xlink:href="dp__matrices_8h.html" target="_top" xlink:title="Functions to deal with standard dynamic programming (DP) matrices. ">
<polygon fill="none" stroke="#000000" points="27.8266,-129 27.8266,-148 158.8266,-148 158.8266,-129 27.8266,-129"/>
<text text-anchor="middle" x="93.3266" y="-136" font-family="Helvetica,sans-Serif" font-size="10.00" fill="#000000">ViennaRNA/dp_matrices.h</text>
</a>
</g>
</g>
<!-- Node2&#45;&gt;Node8 -->
<g id="edge32" class="edge">
<title>Node2&#45;&gt;Node8</title>
<path fill="none" stroke="#191970" d="M588.0804,-270.1088C506.0482,-265.8265 370.1631,-253.9305 258.3266,-221 202.8146,-204.6544 142.8226,-172.6959 112.5698,-153.7105"/>
<polygon fill="#191970" stroke="#191970" points="114.4684,-150.7703 104.1736,-148.2667 110.6601,-156.6438 114.4684,-150.7703"/>
</g>
<!-- Node9 -->
<g id="node10" class="node">
<title>Node9</title>
<g id="a_node10"><a xlink:href="constraints_8h.html" target="_top" xlink:title="Functions and data structures for constraining secondary structure predictions and evaluation...">
<polygon fill="none" stroke="#000000" points="623.3266,-129 623.3266,-148 749.3266,-148 749.3266,-129 623.3266,-129"/>
<text text-anchor="middle" x="686.3266" y="-136" font-family="Helvetica,sans-Serif" font-size="10.00" fill="#000000">ViennaRNA/constraints.h</text>
</a>
</g>
</g>
<!-- Node2&#45;&gt;Node9 -->
<g id="edge33" class="edge">
<title>Node2&#45;&gt;Node9</title>
<path fill="none" stroke="#191970" d="M661.1843,-262.7819C665.3862,-252.8093 674.6145,-236.5894 678.3266,-221 683.2869,-200.1681 682.1127,-175.5316 682.0697,-158.6386"/>
<polygon fill="#191970" stroke="#191970" points="685.5761,-158.4013 682.3099,-148.3225 678.578,-158.2383 685.5761,-158.4013"/>
</g>
<!-- Node15 -->
<g id="node16" class="node">
<title>Node15</title>
<g id="a_node16"><a xlink:href="grammar_8h.html" target="_top" xlink:title="Implementations for the RNA folding grammar. ">
<polygon fill="none" stroke="#000000" points="177.3266,-129 177.3266,-148 293.3266,-148 293.3266,-129 177.3266,-129"/>
<text text-anchor="middle" x="235.3266" y="-136" font-family="Helvetica,sans-Serif" font-size="10.00" fill="#000000">ViennaRNA/grammar.h</text>
</a>
</g>
</g>
<!-- Node2&#45;&gt;Node15 -->
<g id="edge34" class="edge">
<title>Node2&#45;&gt;Node15</title>
<path fill="none" stroke="#191970" d="M587.9858,-268.2712C496.4911,-261.7663 346.4549,-247.2215 298.3266,-221 271.1577,-206.1978 249.4335,-176.8725 239.5245,-157.4726"/>
<polygon fill="#191970" stroke="#191970" points="242.6252,-155.8314 235.3637,-148.1164 236.2292,-158.6758 242.6252,-155.8314"/>
</g>
<!-- Node16 -->
<g id="node17" class="node">
<title>Node16</title>
<g id="a_node17"><a xlink:href="structured__domains_8h.html" target="_top" xlink:title="This module provides interfaces that deal with additional structured domains in the folding grammar...">
<polygon fill="none" stroke="#000000" points="349.8266,-123.5 349.8266,-153.5 462.8266,-153.5 462.8266,-123.5 349.8266,-123.5"/>
<text text-anchor="start" x="357.8266" y="-141.5" font-family="Helvetica,sans-Serif" font-size="10.00" fill="#000000">ViennaRNA/structured</text>
<text text-anchor="middle" x="406.3266" y="-130.5" font-family="Helvetica,sans-Serif" font-size="10.00" fill="#000000">_domains.h</text>
</a>
</g>
</g>
<!-- Node2&#45;&gt;Node16 -->
<g id="edge35" class="edge">
<title>Node2&#45;&gt;Node16</title>
<path fill="none" stroke="#191970" d="M624.6148,-262.9728C594.2687,-254.305 550.5961,-239.9713 515.3266,-221 483.8199,-204.0527 451.6243,-178.4587 430.4755,-160.2771"/>
<polygon fill="#191970" stroke="#191970" points="432.7735,-157.6372 422.9353,-153.7052 428.1742,-162.9142 432.7735,-157.6372"/>
</g>
<!-- Node17 -->
<g id="node18" class="node">
<title>Node17</title>
<g id="a_node18"><a xlink:href="unstructured__domains_8h.html" target="_top" xlink:title="Functions to modify unstructured domains, e.g. to incorporate ligands binding to unpaired stretches...">
<polygon fill="none" stroke="#000000" points="481.3266,-123.5 481.3266,-153.5 605.3266,-153.5 605.3266,-123.5 481.3266,-123.5"/>
<text text-anchor="start" x="489.3266" y="-141.5" font-family="Helvetica,sans-Serif" font-size="10.00" fill="#000000">ViennaRNA/unstructured</text>
<text text-anchor="middle" x="543.3266" y="-130.5" font-family="Helvetica,sans-Serif" font-size="10.00" fill="#000000">_domains.h</text>
</a>
</g>
</g>
<!-- Node2&#45;&gt;Node17 -->
<g id="edge36" class="edge">
<title>Node2&#45;&gt;Node17</title>
<path fill="none" stroke="#191970" d="M615.2552,-262.9438C577.1211,-253.2825 527.6968,-237.4638 516.3266,-221 504.3374,-203.64 511.5165,-179.726 521.7003,-162.1131"/>
<polygon fill="#191970" stroke="#191970" points="524.7457,-163.8484 527.2141,-153.5451 518.8592,-160.0603 524.7457,-163.8484"/>
</g>
<!-- Node18 -->
<g id="node19" class="node">
<title>Node18</title>
<g id="a_node19"><a xlink:href="structure__utils_8h.html" target="_top" xlink:title="Various utility&#45; and helper&#45;functions for secondary structure parsing, converting, etc. ">
<polygon fill="none" stroke="#000000" points="1058.3266,-190.5 1058.3266,-220.5 1166.3266,-220.5 1166.3266,-190.5 1058.3266,-190.5"/>
<text text-anchor="start" x="1066.3266" y="-208.5" font-family="Helvetica,sans-Serif" font-size="10.00" fill="#000000">ViennaRNA/structure</text>
<text text-anchor="middle" x="1112.3266" y="-197.5" font-family="Helvetica,sans-Serif" font-size="10.00" fill="#000000">_utils.h</text>
</a>
</g>
</g>
<!-- Node2&#45;&gt;Node18 -->
<g id="edge37" class="edge">
<title>Node2&#45;&gt;Node18</title>
<path fill="none" stroke="#191970" d="M734.3503,-263.8872C809.9537,-255.0105 931.1787,-239.8321 1035.3266,-221 1039.482,-220.2486 1043.7672,-219.4143 1048.0925,-218.5336"/>
<polygon fill="#191970" stroke="#191970" points="1049.1462,-221.8889 1058.2153,-216.4116 1047.7099,-215.0378 1049.1462,-221.8889"/>
</g>
<!-- Node4 -->
<g id="node5" class="node">
<title>Node4</title>
<polygon fill="none" stroke="#bfbfbf" points="1033.3266,-.5 1033.3266,-19.5 1081.3266,-19.5 1081.3266,-.5 1033.3266,-.5"/>
<text text-anchor="middle" x="1057.3266" y="-7.5" font-family="Helvetica,sans-Serif" font-size="10.00" fill="#000000">limits.h</text>
</g>
<!-- Node3&#45;&gt;Node4 -->
<g id="edge4" class="edge">
<title>Node3&#45;&gt;Node4</title>
<path fill="none" stroke="#191970" d="M1057.3266,-61.8906C1057.3266,-53.3657 1057.3266,-40.6392 1057.3266,-29.9235"/>
<polygon fill="#191970" stroke="#191970" points="1060.8266,-29.7448 1057.3266,-19.7449 1053.8266,-29.7449 1060.8266,-29.7448"/>
</g>
<!-- Node5&#45;&gt;Node6 -->
<g id="edge6" class="edge">
<title>Node5&#45;&gt;Node6</title>
<path fill="none" stroke="#191970" d="M639.1722,-195.9285C670.3188,-186.4892 718.1873,-171.0356 758.3266,-154 807.3421,-133.1972 861.9835,-103.5426 893.0522,-86.0326"/>
<polygon fill="#191970" stroke="#191970" points="894.9334,-88.9894 901.9051,-81.0116 891.48,-82.9006 894.9334,-88.9894"/>
</g>
<!-- Node5&#45;&gt;Node7 -->
<g id="edge7" class="edge">
<title>Node5&#45;&gt;Node7</title>
<path fill="none" stroke="#191970" d="M658.6612,-195.9717C725.3304,-183.8335 840.4291,-162.8781 911.69,-149.9039"/>
<polygon fill="#191970" stroke="#191970" points="912.6636,-153.2843 921.8749,-148.0496 911.4097,-146.3975 912.6636,-153.2843"/>
</g>
<!-- Node5&#45;&gt;Node8 -->
<g id="edge11" class="edge">
<title>Node5&#45;&gt;Node8</title>
<path fill="none" stroke="#191970" d="M533.9803,-198.9344C446.9167,-190.5859 296.4388,-174.7299 168.3266,-154 161.1979,-152.8465 153.7182,-151.4848 146.3573,-150.0551"/>
<polygon fill="#191970" stroke="#191970" points="146.9289,-146.6003 136.4375,-148.0766 145.5597,-153.4651 146.9289,-146.6003"/>
</g>
<!-- Node5&#45;&gt;Node9 -->
<g id="edge13" class="edge">
<title>Node5&#45;&gt;Node9</title>
<path fill="none" stroke="#191970" d="M617.7886,-195.9005C630.6203,-185.1539 651.6276,-167.5603 667.0078,-154.6794"/>
<polygon fill="#191970" stroke="#191970" points="669.4665,-157.1856 674.8858,-148.0817 664.972,-151.8191 669.4665,-157.1856"/>
</g>
<!-- Node5&#45;&gt;Node15 -->
<g id="edge25" class="edge">
<title>Node5&#45;&gt;Node15</title>
<path fill="none" stroke="#191970" d="M553.5653,-195.9717C486.3526,-183.8335 370.3155,-162.8781 298.4737,-149.9039"/>
<polygon fill="#191970" stroke="#191970" points="298.6687,-146.3826 288.2058,-148.0496 297.4246,-153.2712 298.6687,-146.3826"/>
</g>
<!-- Node5&#45;&gt;Node16 -->
<g id="edge27" class="edge">
<title>Node5&#45;&gt;Node16</title>
<path fill="none" stroke="#191970" d="M577.6714,-195.9005C547.3312,-185.7366 498.7082,-169.4479 460.9956,-156.8141"/>
<polygon fill="#191970" stroke="#191970" points="461.7615,-153.3796 451.1676,-153.5218 459.5379,-160.0171 461.7615,-153.3796"/>
</g>
<!-- Node5&#45;&gt;Node17 -->
<g id="edge28" class="edge">
<title>Node5&#45;&gt;Node17</title>
<path fill="none" stroke="#191970" d="M597.3002,-195.9005C588.7597,-186.8178 575.6204,-172.8442 564.4442,-160.9585"/>
<polygon fill="#191970" stroke="#191970" points="566.8516,-158.4094 557.4515,-153.5218 561.752,-163.2046 566.8516,-158.4094"/>
</g>
<!-- Node7&#45;&gt;Node2 -->
<g id="edge9" class="edge">
<title>Node7&#45;&gt;Node2</title>
<path fill="none" stroke="#191970" d="M974.4147,-148.202C968.2587,-165.7469 944.8946,-202.6291 914.3266,-221 886.4689,-237.742 807.3588,-252.5605 744.8809,-261.9529"/>
<polygon fill="#191970" stroke="#191970" points="743.9936,-258.5459 734.6129,-263.4705 745.0172,-265.4707 743.9936,-258.5459"/>
</g>
<!-- Node7&#45;&gt;Node3 -->
<g id="edge8" class="edge">
<title>Node7&#45;&gt;Node3</title>
<path fill="none" stroke="#191970" d="M986.2184,-128.9005C999.5314,-118.1539 1021.3264,-100.5603 1037.2834,-87.6794"/>
<polygon fill="#191970" stroke="#191970" points="1039.874,-90.0863 1045.4567,-81.0817 1035.4771,-84.6395 1039.874,-90.0863"/>
</g>
<!-- Node7&#45;&gt;Node6 -->
<g id="edge10" class="edge">
<title>Node7&#45;&gt;Node6</title>
<path fill="none" stroke="#191970" d="M966.3031,-128.9005C957.5704,-118.4525 943.4283,-101.5325 932.7558,-88.7635"/>
<polygon fill="#191970" stroke="#191970" points="935.4337,-86.5099 926.3351,-81.0817 930.0627,-90.9991 935.4337,-86.5099"/>
</g>
<!-- Node8&#45;&gt;Node2 -->
<g id="edge12" class="edge">
<title>Node8&#45;&gt;Node2</title>
<path fill="none" stroke="#191970" d="M114.4341,-148.1285C148.0133,-165.7226 214.9116,-202.9162 276.3266,-221 377.6578,-250.8372 498.7317,-263.406 577.7503,-268.6893"/>
<polygon fill="#191970" stroke="#191970" points="577.9294,-272.208 588.1337,-269.3578 578.3792,-265.2225 577.9294,-272.208"/>
</g>
<!-- Node9&#45;&gt;Node2 -->
<g id="edge14" class="edge">
<title>Node9&#45;&gt;Node2</title>
<path fill="none" stroke="#191970" d="M693.6264,-148.3225C699.2441,-163.9583 702.4316,-195.3607 696.3266,-221 693.4845,-232.9356 687.409,-245.2408 680.8591,-254.8289"/>
<polygon fill="#191970" stroke="#191970" points="678.0742,-252.709 674.7898,-262.7819 683.6389,-256.9557 678.0742,-252.709"/>
</g>
<!-- Node10 -->
<g id="node11" class="node">
<title>Node10</title>
<g id="a_node11"><a xlink:href="constraints__hard_8h.html" target="_top" xlink:title="Functions and data structures for handling of secondary structure hard constraints. ">
<polygon fill="none" stroke="#000000" points="20.3266,-56.5 20.3266,-86.5 138.3266,-86.5 138.3266,-56.5 20.3266,-56.5"/>
<text text-anchor="start" x="28.3266" y="-74.5" font-family="Helvetica,sans-Serif" font-size="10.00" fill="#000000">ViennaRNA/constraints</text>
<text text-anchor="middle" x="79.3266" y="-63.5" font-family="Helvetica,sans-Serif" font-size="10.00" fill="#000000">_hard.h</text>
</a>
</g>
</g>
<!-- Node9&#45;&gt;Node10 -->
<g id="edge15" class="edge">
<title>Node9&#45;&gt;Node10</title>
<path fill="none" stroke="#191970" d="M646.5042,-128.9823C636.0809,-126.7511 624.8225,-124.5699 614.3266,-123 427.7227,-95.0892 378.8406,-107.9399 191.3266,-87 177.5121,-85.4573 162.7706,-83.5821 148.6718,-81.6764"/>
<polygon fill="#191970" stroke="#191970" points="148.9245,-78.1784 138.5418,-80.2877 147.9737,-85.1135 148.9245,-78.1784"/>
</g>
<!-- Node11 -->
<g id="node12" class="node">
<title>Node11</title>
<g id="a_node12"><a xlink:href="constraints__soft_8h.html" target="_top" xlink:title="Functions and data structures for secondary structure soft constraints. ">
<polygon fill="none" stroke="#000000" points="200.3266,-56.5 200.3266,-86.5 318.3266,-86.5 318.3266,-56.5 200.3266,-56.5"/>
<text text-anchor="start" x="208.3266" y="-74.5" font-family="Helvetica,sans-Serif" font-size="10.00" fill="#000000">ViennaRNA/constraints</text>
<text text-anchor="middle" x="259.3266" y="-63.5" font-family="Helvetica,sans-Serif" font-size="10.00" fill="#000000">_soft.h</text>
</a>
</g>
</g>
<!-- Node9&#45;&gt;Node11 -->
<g id="edge17" class="edge">
<title>Node9&#45;&gt;Node11</title>
<path fill="none" stroke="#191970" d="M644.5536,-128.9375C634.6716,-126.8336 624.1501,-124.722 614.3266,-123 497.2521,-102.4774 466.8015,-105.0895 349.3266,-87 342.5883,-85.9624 335.5745,-84.8361 328.5678,-83.6801"/>
<polygon fill="#191970" stroke="#191970" points="328.78,-80.1671 318.3401,-81.9721 327.627,-87.0715 328.78,-80.1671"/>
</g>
<!-- Node12 -->
<g id="node13" class="node">
<title>Node12</title>
<g id="a_node13"><a xlink:href="constraints__SHAPE_8h.html" target="_top" xlink:title="This module provides function to incorporate SHAPE reactivity data into the folding recursions by mea...">
<polygon fill="none" stroke="#000000" points="358.3266,-56.5 358.3266,-86.5 476.3266,-86.5 476.3266,-56.5 358.3266,-56.5"/>
<text text-anchor="start" x="366.3266" y="-74.5" font-family="Helvetica,sans-Serif" font-size="10.00" fill="#000000">ViennaRNA/constraints</text>
<text text-anchor="middle" x="417.3266" y="-63.5" font-family="Helvetica,sans-Serif" font-size="10.00" fill="#000000">_SHAPE.h</text>
</a>
</g>
</g>
<!-- Node9&#45;&gt;Node12 -->
<g id="edge19" class="edge">
<title>Node9&#45;&gt;Node12</title>
<path fill="none" stroke="#191970" d="M648.0711,-128.9717C606.0322,-118.501 537.6508,-101.4692 486.2198,-88.6593"/>
<polygon fill="#191970" stroke="#191970" points="487.048,-85.2587 476.4985,-86.238 485.3561,-92.0512 487.048,-85.2587"/>
</g>
<!-- Node13 -->
<g id="node14" class="node">
<title>Node13</title>
<g id="a_node14"><a xlink:href="perturbation__fold_8h.html" target="_top" xlink:title="Find a vector of perturbation energies that minimizes the discripancies between predicted and observe...">
<polygon fill="none" stroke="#000000" points="590.8266,-56.5 590.8266,-86.5 711.8266,-86.5 711.8266,-56.5 590.8266,-56.5"/>
<text text-anchor="start" x="598.8266" y="-74.5" font-family="Helvetica,sans-Serif" font-size="10.00" fill="#000000">ViennaRNA/perturbation</text>
<text text-anchor="middle" x="651.3266" y="-63.5" font-family="Helvetica,sans-Serif" font-size="10.00" fill="#000000">_fold.h</text>
</a>
</g>
</g>
<!-- Node9&#45;&gt;Node13 -->
<g id="edge21" class="edge">
<title>Node9&#45;&gt;Node13</title>
<path fill="none" stroke="#191970" d="M681.3119,-128.9005C676.7932,-120.2503 669.957,-107.164 663.9526,-95.6699"/>
<polygon fill="#191970" stroke="#191970" points="666.9062,-93.7647 659.1737,-86.5218 660.7017,-97.0058 666.9062,-93.7647"/>
</g>
<!-- Node14 -->
<g id="node15" class="node">
<title>Node14</title>
<g id="a_node15"><a xlink:href="constraints__ligand_8h.html" target="_top" xlink:title="Functions for incorporation of ligands binding to hairpin and interior loop motifs using the soft con...">
<polygon fill="none" stroke="#000000" points="730.3266,-56.5 730.3266,-86.5 848.3266,-86.5 848.3266,-56.5 730.3266,-56.5"/>
<text text-anchor="start" x="738.3266" y="-74.5" font-family="Helvetica,sans-Serif" font-size="10.00" fill="#000000">ViennaRNA/constraints</text>
<text text-anchor="middle" x="789.3266" y="-63.5" font-family="Helvetica,sans-Serif" font-size="10.00" fill="#000000">_ligand.h</text>
</a>
</g>
</g>
<!-- Node9&#45;&gt;Node14 -->
<g id="edge23" class="edge">
<title>Node9&#45;&gt;Node14</title>
<path fill="none" stroke="#191970" d="M701.0839,-128.9005C715.7783,-119.3421 738.7998,-104.3669 757.6442,-92.1089"/>
<polygon fill="#191970" stroke="#191970" points="759.7593,-94.9085 766.2334,-86.5218 755.9423,-89.0406 759.7593,-94.9085"/>
</g>
<!-- Node10&#45;&gt;Node2 -->
<g id="edge16" class="edge">
<title>Node10&#45;&gt;Node2</title>
<path fill="none" stroke="#191970" d="M46.4209,-86.5239C31.9471,-95.0076 16.4212,-107.1287 8.3266,-123 -13.2032,-165.2138 9.8655,-196.3336 50.3266,-221 94.3245,-247.8226 421.2927,-263.5319 578.0169,-269.5948"/>
<polygon fill="#191970" stroke="#191970" points="577.9625,-273.0951 588.089,-269.9802 578.2302,-266.1003 577.9625,-273.0951"/>
</g>
<!-- Node11&#45;&gt;Node2 -->
<g id="edge18" class="edge">
<title>Node11&#45;&gt;Node2</title>
<path fill="none" stroke="#191970" d="M200.1763,-80.1981C132.5875,-90.7378 29.779,-108.8417 18.3266,-123 9.6617,-133.7121 10.6082,-142.5871 18.3266,-154 63.1275,-220.246 107.7353,-201.6288 185.3266,-221 257.5428,-239.0293 461.6817,-257.0378 577.8157,-266.2306"/>
<polygon fill="#191970" stroke="#191970" points="577.8405,-269.7433 588.0843,-267.0386 578.3897,-262.7648 577.8405,-269.7433"/>
</g>
<!-- Node12&#45;&gt;Node2 -->
<g id="edge20" class="edge">
<title>Node12&#45;&gt;Node2</title>
<path fill="none" stroke="#191970" d="M380.5094,-86.5313C365.1797,-94.8476 348.9655,-106.8289 340.3266,-123 333.8345,-135.1524 333.27,-142.1665 340.3266,-154 368.2844,-200.8842 521.5326,-241.5237 605.7738,-260.7221"/>
<polygon fill="#191970" stroke="#191970" points="605.1673,-264.1731 615.692,-262.9561 606.7055,-257.3442 605.1673,-264.1731"/>
</g>
<!-- Node13&#45;&gt;Node2 -->
<g id="edge22" class="edge">
<title>Node13&#45;&gt;Node2</title>
<path fill="none" stroke="#191970" d="M711.005,-86.5891C729.3755,-94.3379 747.5756,-105.8941 758.3266,-123 789.3434,-172.3512 722.1746,-230.0317 684.5362,-257.0543"/>
<polygon fill="#191970" stroke="#191970" points="682.3071,-254.3422 676.1191,-262.9422 686.3195,-260.0781 682.3071,-254.3422"/>
</g>
<!-- Node14&#45;&gt;Node2 -->
<g id="edge24" class="edge">
<title>Node14&#45;&gt;Node2</title>
<path fill="none" stroke="#191970" d="M790.0702,-86.5321C790.7088,-115.8015 788.063,-181.0647 755.3266,-221 741.0971,-238.3585 719.4081,-250.7926 700.4482,-259.089"/>
<polygon fill="#191970" stroke="#191970" points="699.0263,-255.8895 691.1212,-262.9435 701.6999,-262.3588 699.0263,-255.8895"/>
</g>
<!-- Node15&#45;&gt;Node2 -->
<g id="edge26" class="edge">
<title>Node15&#45;&gt;Node2</title>
<path fill="none" stroke="#191970" d="M245.77,-148.1164C259.8007,-165.8625 284.2749,-203.5375 316.3266,-221 360.5235,-245.0796 490.6596,-259.3122 577.9117,-266.5142"/>
<polygon fill="#191970" stroke="#191970" points="577.8159,-270.0179 588.0659,-267.3368 578.3812,-263.0407 577.8159,-270.0179"/>
</g>
<!-- Node17&#45;&gt;Node2 -->
<g id="edge29" class="edge">
<title>Node17&#45;&gt;Node2</title>
<path fill="none" stroke="#191970" d="M540.0355,-153.5451C532.6017,-171.1899 520.2475,-200.614 534.3266,-221 544.6308,-235.9203 586.1885,-250.3109 619.0932,-260.0688"/>
<polygon fill="#191970" stroke="#191970" points="618.4036,-263.5131 628.9831,-262.9438 620.3577,-256.7914 618.4036,-263.5131"/>
</g>
<!-- Node18&#45;&gt;Node1 -->
<g id="edge38" class="edge">
<title>Node18&#45;&gt;Node1</title>
<path fill="none" stroke="#191970" d="M1130.9336,-190.2967C1143.9577,-179.6551 1161.3305,-165.4602 1174.5955,-154.6217"/>
<polygon fill="#191970" stroke="#191970" points="1177.1032,-157.0926 1182.6324,-148.055 1172.6741,-151.6719 1177.1032,-157.0926"/>
</g>
<!-- Node18&#45;&gt;Node2 -->
<g id="edge39" class="edge">
<title>Node18&#45;&gt;Node2</title>
<path fill="none" stroke="#191970" d="M1058.0206,-220.1271C1056.4425,-220.4283 1054.8755,-220.7199 1053.3266,-221 947.5939,-240.1186 824.2605,-255.4715 744.5241,-264.288"/>
<polygon fill="#191970" stroke="#191970" points="744.096,-260.8139 734.5371,-265.3832 744.8591,-267.7722 744.096,-260.8139"/>
</g>
<!-- Node19&#45;&gt;Node1 -->
<g id="edge41" class="edge">
<title>Node19&#45;&gt;Node1</title>
<path fill="none" stroke="#191970" d="M1154.5382,-257.4438C1161.4331,-247.539 1169.9486,-234.0399 1175.3266,-221 1183.7848,-200.4911 1188.874,-175.487 1191.6266,-158.4179"/>
<polygon fill="#191970" stroke="#191970" points="1195.0962,-158.8809 1193.11,-148.4739 1188.1728,-157.8481 1195.0962,-158.8809"/>
</g>
</g>
</svg>
