<?xml version="1.0" encoding="UTF-8" standalone="no"?>
<!DOCTYPE svg PUBLIC "-//W3C//DTD SVG 1.1//EN"
 "http://www.w3.org/Graphics/SVG/1.1/DTD/svg11.dtd">
<!-- Generated by graphviz version 2.40.1 (20161225.0304)
 -->
<!-- Title: ViennaRNA/file_utils.h Pages: 1 -->
<svg width="533pt" height="207pt"
 viewBox="0.00 0.00 532.50 207.00" xmlns="http://www.w3.org/2000/svg" xmlns:xlink="http://www.w3.org/1999/xlink">
<g id="graph0" class="graph" transform="scale(1 1) rotate(0) translate(4 203)">
<title>ViennaRNA/file_utils.h</title>
<!-- Node1 -->
<g id="node1" class="node">
<title>Node1</title>
<polygon fill="#bfbfbf" stroke="#000000" points="209.5,-179.5 209.5,-198.5 323.5,-198.5 323.5,-179.5 209.5,-179.5"/>
<text text-anchor="middle" x="266.5" y="-186.5" font-family="Helvetica,sans-Serif" font-size="10.00" fill="#000000">ViennaRNA/file_utils.h</text>
</g>
<!-- Node2 -->
<g id="node2" class="node">
<title>Node2</title>
<g id="a_node2"><a xlink:href="utils_8h.html" target="_top" xlink:title="General utility&#45; and helper&#45;functions used throughout the ViennaRNA Package. ">
<polygon fill="none" stroke="#000000" points="218.5,-123.5 218.5,-142.5 314.5,-142.5 314.5,-123.5 218.5,-123.5"/>
<text text-anchor="middle" x="266.5" y="-130.5" font-family="Helvetica,sans-Serif" font-size="10.00" fill="#000000">ViennaRNA/utils.h</text>
</a>
</g>
</g>
<!-- Node1&#45;&gt;Node2 -->
<g id="edge1" class="edge">
<title>Node1&#45;&gt;Node2</title>
<path fill="none" stroke="#191970" d="M266.5,-169.1575C266.5,-160.155 266.5,-149.9199 266.5,-142.6427"/>
<polygon fill="#191970" stroke="#191970" points="263.0001,-169.2455 266.5,-179.2455 270.0001,-169.2456 263.0001,-169.2455"/>
</g>
<!-- Node3 -->
<g id="node3" class="node">
<title>Node3</title>
<g id="a_node3"><a xlink:href="hairpin__loops_8h.html" target="_top" xlink:title="Energy evaluation of hairpin loops for MFE and partition function calculations. ">
<polygon fill="none" stroke="#000000" points="0,-62 0,-81 135,-81 135,-62 0,-62"/>
<text text-anchor="middle" x="67.5" y="-69" font-family="Helvetica,sans-Serif" font-size="10.00" fill="#000000">ViennaRNA/hairpin_loops.h</text>
</a>
</g>
</g>
<!-- Node2&#45;&gt;Node3 -->
<g id="edge2" class="edge">
<title>Node2&#45;&gt;Node3</title>
<path fill="none" stroke="#191970" d="M225.7294,-120.4001C187.959,-108.7273 132.6045,-91.6202 98.3754,-81.0419"/>
<polygon fill="#191970" stroke="#191970" points="224.8186,-123.7818 235.4063,-123.3906 226.8856,-117.0939 224.8186,-123.7818"/>
</g>
<!-- Node5 -->
<g id="node5" class="node">
<title>Node5</title>
<g id="a_node5"><a xlink:href="interior__loops_8h.html" target="_top" xlink:title="Energy evaluation of interior loops for MFE and partition function calculations. ">
<polygon fill="none" stroke="#000000" points="153,-56.5 153,-86.5 252,-86.5 252,-56.5 153,-56.5"/>
<text text-anchor="start" x="161" y="-74.5" font-family="Helvetica,sans-Serif" font-size="10.00" fill="#000000">ViennaRNA/interior</text>
<text text-anchor="middle" x="202.5" y="-63.5" font-family="Helvetica,sans-Serif" font-size="10.00" fill="#000000">_loops.h</text>
</a>
</g>
</g>
<!-- Node2&#45;&gt;Node5 -->
<g id="edge4" class="edge">
<title>Node2&#45;&gt;Node5</title>
<path fill="none" stroke="#191970" d="M249.0276,-116.2101C239.3809,-106.9403 227.4983,-95.5218 218.1562,-86.5446"/>
<polygon fill="#191970" stroke="#191970" points="246.8644,-118.9854 256.5,-123.3906 251.7146,-113.9381 246.8644,-118.9854"/>
</g>
<!-- Node6 -->
<g id="node6" class="node">
<title>Node6</title>
<g id="a_node6"><a xlink:href="multibranch__loops_8h.html" target="_top" xlink:title="Energy evaluation of multibranch loops for MFE and partition function calculations. ">
<polygon fill="none" stroke="#000000" points="270.5,-56.5 270.5,-86.5 390.5,-86.5 390.5,-56.5 270.5,-56.5"/>
<text text-anchor="start" x="278.5" y="-74.5" font-family="Helvetica,sans-Serif" font-size="10.00" fill="#000000">ViennaRNA/multibranch</text>
<text text-anchor="middle" x="330.5" y="-63.5" font-family="Helvetica,sans-Serif" font-size="10.00" fill="#000000">_loops.h</text>
</a>
</g>
</g>
<!-- Node2&#45;&gt;Node6 -->
<g id="edge6" class="edge">
<title>Node2&#45;&gt;Node6</title>
<path fill="none" stroke="#191970" d="M283.9724,-116.2101C293.6191,-106.9403 305.5017,-95.5218 314.8438,-86.5446"/>
<polygon fill="#191970" stroke="#191970" points="281.2854,-113.9381 276.5,-123.3906 286.1356,-118.9854 281.2854,-113.9381"/>
</g>
<!-- Node7 -->
<g id="node7" class="node">
<title>Node7</title>
<g id="a_node7"><a xlink:href="pair__mat_8h_source.html" target="_top" xlink:title="ViennaRNA/pair_mat.h">
<polygon fill="none" stroke="#000000" points="408.5,-62 408.5,-81 524.5,-81 524.5,-62 408.5,-62"/>
<text text-anchor="middle" x="466.5" y="-69" font-family="Helvetica,sans-Serif" font-size="10.00" fill="#000000">ViennaRNA/pair_mat.h</text>
</a>
</g>
</g>
<!-- Node2&#45;&gt;Node7 -->
<g id="edge8" class="edge">
<title>Node2&#45;&gt;Node7</title>
<path fill="none" stroke="#191970" d="M307.4754,-120.4001C345.4357,-108.7273 401.0684,-91.6202 435.4694,-81.0419"/>
<polygon fill="#191970" stroke="#191970" points="306.2796,-117.106 297.75,-123.3906 308.337,-123.7968 306.2796,-117.106"/>
</g>
<!-- Node4 -->
<g id="node4" class="node">
<title>Node4</title>
<g id="a_node4"><a xlink:href="loop__energies_8h.html" target="_top" xlink:title="Energy evaluation for MFE and partition function calculations. ">
<polygon fill="none" stroke="#000000" points="133.5,-.5 133.5,-19.5 271.5,-19.5 271.5,-.5 133.5,-.5"/>
<text text-anchor="middle" x="202.5" y="-7.5" font-family="Helvetica,sans-Serif" font-size="10.00" fill="#000000">ViennaRNA/loop_energies.h</text>
</a>
</g>
</g>
<!-- Node3&#45;&gt;Node4 -->
<g id="edge3" class="edge">
<title>Node3&#45;&gt;Node4</title>
<path fill="none" stroke="#191970" d="M97.8157,-57.6895C123.3217,-46.0701 159.1241,-29.7601 181.5544,-19.5419"/>
<polygon fill="#191970" stroke="#191970" points="96.243,-54.5598 88.5938,-61.8906 99.145,-60.93 96.243,-54.5598"/>
</g>
<!-- Node5&#45;&gt;Node4 -->
<g id="edge5" class="edge">
<title>Node5&#45;&gt;Node4</title>
<path fill="none" stroke="#191970" d="M202.5,-46.2849C202.5,-36.9858 202.5,-26.9883 202.5,-19.8469"/>
<polygon fill="#191970" stroke="#191970" points="199.0001,-46.2977 202.5,-56.2977 206.0001,-46.2978 199.0001,-46.2977"/>
</g>
<!-- Node6&#45;&gt;Node4 -->
<g id="edge7" class="edge">
<title>Node6&#45;&gt;Node4</title>
<path fill="none" stroke="#191970" d="M290.1439,-52.1102C267.5466,-41.2529 240.3734,-28.197 222.3355,-19.5303"/>
<polygon fill="#191970" stroke="#191970" points="288.6583,-55.2794 299.1877,-56.4554 291.6899,-48.9698 288.6583,-55.2794"/>
</g>
</g>
</svg>
