<?xml version="1.0" encoding="UTF-8" standalone="no"?>
<!DOCTYPE svg PUBLIC "-//W3C//DTD SVG 1.1//EN"
 "http://www.w3.org/Graphics/SVG/1.1/DTD/svg11.dtd">
<!-- Generated by graphviz version 2.40.1 (20161225.0304)
 -->
<!-- Title: ViennaRNA/grammar.h Pages: 1 -->
<svg width="1283pt" height="341pt"
 viewBox="0.00 0.00 1282.50 341.00" xmlns="http://www.w3.org/2000/svg" xmlns:xlink="http://www.w3.org/1999/xlink">
<g id="graph0" class="graph" transform="scale(1 1) rotate(0) translate(4 337)">
<title>ViennaRNA/grammar.h</title>
<!-- Node0 -->
<g id="node1" class="node">
<title>Node0</title>
<polygon fill="#bfbfbf" stroke="#000000" points="554.5,-313.5 554.5,-332.5 670.5,-332.5 670.5,-313.5 554.5,-313.5"/>
<text text-anchor="middle" x="612.5" y="-320.5" font-family="Helvetica,sans-Serif" font-size="10.00" fill="#000000">ViennaRNA/grammar.h</text>
</g>
<!-- Node1 -->
<g id="node2" class="node">
<title>Node1</title>
<g id="a_node2"><a xlink:href="data__structures_8h.html" target="_top" xlink:title="Various data structures and pre&#45;processor macros. ">
<polygon fill="none" stroke="#000000" points="539.5,-257.5 539.5,-276.5 685.5,-276.5 685.5,-257.5 539.5,-257.5"/>
<text text-anchor="middle" x="612.5" y="-264.5" font-family="Helvetica,sans-Serif" font-size="10.00" fill="#000000">ViennaRNA/data_structures.h</text>
</a>
</g>
</g>
<!-- Node0&#45;&gt;Node1 -->
<g id="edge1" class="edge">
<title>Node0&#45;&gt;Node1</title>
<path fill="none" stroke="#191970" d="M607.2332,-313.2455C605.8221,-305.9382 605.4179,-295.6944 606.0205,-286.7046"/>
<polygon fill="#191970" stroke="#191970" points="609.5111,-286.9945 607.2549,-276.6427 602.5632,-286.1421 609.5111,-286.9945"/>
</g>
<!-- Node1&#45;&gt;Node0 -->
<g id="edge32" class="edge">
<title>Node1&#45;&gt;Node0</title>
<path fill="none" stroke="#191970" d="M617.7451,-276.6427C619.1665,-283.9199 619.581,-294.155 618.9887,-303.1575"/>
<polygon fill="#191970" stroke="#191970" points="615.4947,-302.8972 617.7668,-313.2455 622.4439,-303.739 615.4947,-302.8972"/>
</g>
<!-- Node2 -->
<g id="node3" class="node">
<title>Node2</title>
<g id="a_node3"><a xlink:href="energy__const_8h.html" target="_top" xlink:title="Energy parameter constants. ">
<polygon fill="none" stroke="#000000" points="453,-62 453,-81 590,-81 590,-62 453,-62"/>
<text text-anchor="middle" x="521.5" y="-69" font-family="Helvetica,sans-Serif" font-size="10.00" fill="#000000">ViennaRNA/energy_const.h</text>
</a>
</g>
</g>
<!-- Node1&#45;&gt;Node2 -->
<g id="edge2" class="edge">
<title>Node1&#45;&gt;Node2</title>
<path fill="none" stroke="#191970" d="M616.1513,-257.3713C624.7847,-232.8733 643.8304,-167.005 617.5,-123 606.617,-104.8117 586.8655,-92.6784 568.0956,-84.7845"/>
<polygon fill="#191970" stroke="#191970" points="569.3023,-81.4985 558.7136,-81.1377 566.7662,-88.0229 569.3023,-81.4985"/>
</g>
<!-- Node4 -->
<g id="node5" class="node">
<title>Node4</title>
<g id="a_node5"><a xlink:href="fold__compound_8h.html" target="_top" xlink:title="The Basic Fold Compound API. ">
<polygon fill="none" stroke="#000000" points="242.5,-196 242.5,-215 386.5,-215 386.5,-196 242.5,-196"/>
<text text-anchor="middle" x="314.5" y="-203" font-family="Helvetica,sans-Serif" font-size="10.00" fill="#000000">ViennaRNA/fold_compound.h</text>
</a>
</g>
</g>
<!-- Node1&#45;&gt;Node4 -->
<g id="edge4" class="edge">
<title>Node1&#45;&gt;Node4</title>
<path fill="none" stroke="#191970" d="M566.2645,-257.4581C513.5205,-246.573 427.2801,-228.7751 370.7008,-217.0985"/>
<polygon fill="#191970" stroke="#191970" points="371.3451,-213.6578 360.844,-215.0643 369.9302,-220.5133 371.3451,-213.6578"/>
</g>
<!-- Node5 -->
<g id="node6" class="node">
<title>Node5</title>
<g id="a_node6"><a xlink:href="model_8h.html" target="_top" xlink:title="The model details data structure and its corresponding modifiers. ">
<polygon fill="none" stroke="#000000" points="330.5,-62 330.5,-81 434.5,-81 434.5,-62 330.5,-62"/>
<text text-anchor="middle" x="382.5" y="-69" font-family="Helvetica,sans-Serif" font-size="10.00" fill="#000000">ViennaRNA/model.h</text>
</a>
</g>
</g>
<!-- Node1&#45;&gt;Node5 -->
<g id="edge28" class="edge">
<title>Node1&#45;&gt;Node5</title>
<path fill="none" stroke="#191970" d="M602.2328,-257.2357C577.1381,-233.5004 510.4317,-171.1892 451.5,-123 436.1222,-110.4254 418.1164,-97.0282 404.3549,-87.0509"/>
<polygon fill="#191970" stroke="#191970" points="406.1551,-84.0342 395.9947,-81.0313 402.0648,-89.7149 406.1551,-84.0342"/>
</g>
<!-- Node6 -->
<g id="node7" class="node">
<title>Node6</title>
<g id="a_node7"><a xlink:href="params_8h.html" target="_top" xlink:title="Functions to deal with sets of energy parameters. ">
<polygon fill="none" stroke="#000000" points="498.5,-129 498.5,-148 608.5,-148 608.5,-129 498.5,-129"/>
<text text-anchor="middle" x="553.5" y="-136" font-family="Helvetica,sans-Serif" font-size="10.00" fill="#000000">ViennaRNA/params.h</text>
</a>
</g>
</g>
<!-- Node1&#45;&gt;Node6 -->
<g id="edge29" class="edge">
<title>Node1&#45;&gt;Node6</title>
<path fill="none" stroke="#191970" d="M604.292,-257.3416C591.1411,-236.3184 567.6504,-186.0598 557.4833,-158.1038"/>
<polygon fill="#191970" stroke="#191970" points="560.6855,-156.6437 554.1941,-148.2705 554.0471,-158.8643 560.6855,-156.6437"/>
</g>
<!-- Node7 -->
<g id="node8" class="node">
<title>Node7</title>
<g id="a_node8"><a xlink:href="dp__matrices_8h.html" target="_top" xlink:title="Functions to deal with standard dynamic programming (DP) matrices. ">
<polygon fill="none" stroke="#000000" points="0,-129 0,-148 131,-148 131,-129 0,-129"/>
<text text-anchor="middle" x="65.5" y="-136" font-family="Helvetica,sans-Serif" font-size="10.00" fill="#000000">ViennaRNA/dp_matrices.h</text>
</a>
</g>
</g>
<!-- Node1&#45;&gt;Node7 -->
<g id="edge30" class="edge">
<title>Node1&#45;&gt;Node7</title>
<path fill="none" stroke="#191970" d="M539.191,-262.6121C437.926,-255.6745 261.1388,-240.8907 200.5,-221 153.6853,-205.6439 105.1618,-173.9926 80.7827,-154.667"/>
<polygon fill="#191970" stroke="#191970" points="82.8711,-151.8519 72.9411,-148.1578 78.4001,-157.238 82.8711,-151.8519"/>
</g>
<!-- Node8 -->
<g id="node9" class="node">
<title>Node8</title>
<g id="a_node9"><a xlink:href="constraints_8h.html" target="_top" xlink:title="Functions and data structures for constraining secondary structure predictions and evaluation...">
<polygon fill="none" stroke="#000000" points="740.5,-129 740.5,-148 866.5,-148 866.5,-129 740.5,-129"/>
<text text-anchor="middle" x="803.5" y="-136" font-family="Helvetica,sans-Serif" font-size="10.00" fill="#000000">ViennaRNA/constraints.h</text>
</a>
</g>
</g>
<!-- Node1&#45;&gt;Node8 -->
<g id="edge31" class="edge">
<title>Node1&#45;&gt;Node8</title>
<path fill="none" stroke="#191970" d="M639.2864,-257.48C661.5371,-249.9104 693.0444,-237.792 717.5,-221 743.9717,-202.8237 768.1092,-174.1053 784.4127,-155.7937"/>
<polygon fill="#191970" stroke="#191970" points="787.1917,-157.9401 791.3324,-148.1879 782.0139,-153.2294 787.1917,-157.9401"/>
</g>
<!-- Node14 -->
<g id="node15" class="node">
<title>Node14</title>
<g id="a_node15"><a xlink:href="structured__domains_8h.html" target="_top" xlink:title="This module provides interfaces that deal with additional structured domains in the folding grammar...">
<polygon fill="none" stroke="#000000" points="149,-123.5 149,-153.5 262,-153.5 262,-123.5 149,-123.5"/>
<text text-anchor="start" x="157" y="-141.5" font-family="Helvetica,sans-Serif" font-size="10.00" fill="#000000">ViennaRNA/structured</text>
<text text-anchor="middle" x="205.5" y="-130.5" font-family="Helvetica,sans-Serif" font-size="10.00" fill="#000000">_domains.h</text>
</a>
</g>
</g>
<!-- Node1&#45;&gt;Node14 -->
<g id="edge33" class="edge">
<title>Node1&#45;&gt;Node14</title>
<path fill="none" stroke="#191970" d="M539.107,-262.2776C435.6078,-254.9914 256.7156,-239.8578 233.5,-221 216.4423,-207.1442 209.7277,-182.4417 207.1101,-163.6678"/>
<polygon fill="#191970" stroke="#191970" points="210.5853,-163.2495 206.0164,-153.6905 203.627,-164.0124 210.5853,-163.2495"/>
</g>
<!-- Node15 -->
<g id="node16" class="node">
<title>Node15</title>
<g id="a_node16"><a xlink:href="unstructured__domains_8h.html" target="_top" xlink:title="Functions to modify unstructured domains, e.g. to incorporate ligands binding to unpaired stretches...">
<polygon fill="none" stroke="#000000" points="318.5,-123.5 318.5,-153.5 442.5,-153.5 442.5,-123.5 318.5,-123.5"/>
<text text-anchor="start" x="326.5" y="-141.5" font-family="Helvetica,sans-Serif" font-size="10.00" fill="#000000">ViennaRNA/unstructured</text>
<text text-anchor="middle" x="380.5" y="-130.5" font-family="Helvetica,sans-Serif" font-size="10.00" fill="#000000">_domains.h</text>
</a>
</g>
</g>
<!-- Node1&#45;&gt;Node15 -->
<g id="edge34" class="edge">
<title>Node1&#45;&gt;Node15</title>
<path fill="none" stroke="#191970" d="M545.4222,-257.426C513.8514,-250.5907 476.869,-239.2726 447.5,-221 423.1704,-205.8627 401.7013,-180.8717 389.5509,-162.355"/>
<polygon fill="#191970" stroke="#191970" points="392.4119,-160.3237 384.2216,-153.6029 386.4331,-163.9643 392.4119,-160.3237"/>
</g>
<!-- Node16 -->
<g id="node17" class="node">
<title>Node16</title>
<g id="a_node17"><a xlink:href="structure__utils_8h.html" target="_top" xlink:title="Various utility&#45; and helper&#45;functions for secondary structure parsing, converting, etc. ">
<polygon fill="none" stroke="#000000" points="796.5,-190.5 796.5,-220.5 904.5,-220.5 904.5,-190.5 796.5,-190.5"/>
<text text-anchor="start" x="804.5" y="-208.5" font-family="Helvetica,sans-Serif" font-size="10.00" fill="#000000">ViennaRNA/structure</text>
<text text-anchor="middle" x="850.5" y="-197.5" font-family="Helvetica,sans-Serif" font-size="10.00" fill="#000000">_utils.h</text>
</a>
</g>
</g>
<!-- Node1&#45;&gt;Node16 -->
<g id="edge35" class="edge">
<title>Node1&#45;&gt;Node16</title>
<path fill="none" stroke="#191970" d="M644.625,-257.3906C680.9419,-247.5079 740.7632,-231.9787 786.6334,-220.4815"/>
<polygon fill="#191970" stroke="#191970" points="787.6367,-223.8385 796.4905,-218.0196 785.9404,-217.0471 787.6367,-223.8385"/>
</g>
<!-- Node3 -->
<g id="node4" class="node">
<title>Node3</title>
<polygon fill="none" stroke="#bfbfbf" points="497.5,-.5 497.5,-19.5 545.5,-19.5 545.5,-.5 497.5,-.5"/>
<text text-anchor="middle" x="521.5" y="-7.5" font-family="Helvetica,sans-Serif" font-size="10.00" fill="#000000">limits.h</text>
</g>
<!-- Node2&#45;&gt;Node3 -->
<g id="edge3" class="edge">
<title>Node2&#45;&gt;Node3</title>
<path fill="none" stroke="#191970" d="M521.5,-61.8906C521.5,-53.3657 521.5,-40.6392 521.5,-29.9235"/>
<polygon fill="#191970" stroke="#191970" points="525.0001,-29.7448 521.5,-19.7449 518.0001,-29.7449 525.0001,-29.7448"/>
</g>
<!-- Node4&#45;&gt;Node0 -->
<g id="edge24" class="edge">
<title>Node4&#45;&gt;Node0</title>
<path fill="none" stroke="#191970" d="M338.8594,-215.1048C391.9627,-236.0432 518.2391,-285.8334 578.8735,-309.7412"/>
<polygon fill="#191970" stroke="#191970" points="577.779,-313.0719 588.3658,-313.484 580.3467,-306.5598 577.779,-313.0719"/>
</g>
<!-- Node4&#45;&gt;Node5 -->
<g id="edge5" class="edge">
<title>Node4&#45;&gt;Node5</title>
<path fill="none" stroke="#191970" d="M310.9149,-195.9427C305.5115,-179.8628 297.1519,-146.823 309.5,-123 318.0114,-106.579 334.4334,-94.2816 349.5493,-85.8292"/>
<polygon fill="#191970" stroke="#191970" points="351.4557,-88.7827 358.7099,-81.0608 348.2236,-82.5735 351.4557,-88.7827"/>
</g>
<!-- Node4&#45;&gt;Node6 -->
<g id="edge6" class="edge">
<title>Node4&#45;&gt;Node6</title>
<path fill="none" stroke="#191970" d="M348.4891,-195.9717C390.7518,-184.124 462.9802,-163.8758 509.4501,-150.8487"/>
<polygon fill="#191970" stroke="#191970" points="510.5572,-154.1734 519.2412,-148.1039 508.6677,-147.4332 510.5572,-154.1734"/>
</g>
<!-- Node4&#45;&gt;Node7 -->
<g id="edge10" class="edge">
<title>Node4&#45;&gt;Node7</title>
<path fill="none" stroke="#191970" d="M279.0888,-195.9717C234.9655,-184.0991 159.4916,-163.7909 111.0889,-150.7669"/>
<polygon fill="#191970" stroke="#191970" points="111.7582,-147.3225 101.1922,-148.1039 109.9393,-154.0821 111.7582,-147.3225"/>
</g>
<!-- Node4&#45;&gt;Node8 -->
<g id="edge12" class="edge">
<title>Node4&#45;&gt;Node8</title>
<path fill="none" stroke="#191970" d="M384.0425,-195.9717C475.8845,-183.388 636.8908,-161.3278 730.4538,-148.5084"/>
<polygon fill="#191970" stroke="#191970" points="730.9738,-151.9699 740.4061,-147.1448 730.0236,-145.0347 730.9738,-151.9699"/>
</g>
<!-- Node4&#45;&gt;Node14 -->
<g id="edge25" class="edge">
<title>Node4&#45;&gt;Node14</title>
<path fill="none" stroke="#191970" d="M298.883,-195.9005C283.1919,-186.2556 258.5284,-171.0954 238.4876,-158.7768"/>
<polygon fill="#191970" stroke="#191970" points="240.2905,-155.7767 229.9384,-153.5218 236.6248,-161.7402 240.2905,-155.7767"/>
</g>
<!-- Node4&#45;&gt;Node15 -->
<g id="edge26" class="edge">
<title>Node4&#45;&gt;Node15</title>
<path fill="none" stroke="#191970" d="M323.9562,-195.9005C332.9033,-186.8178 346.6684,-172.8442 358.3767,-160.9585"/>
<polygon fill="#191970" stroke="#191970" points="361.1781,-163.102 365.7024,-153.5218 356.1913,-158.1896 361.1781,-163.102"/>
</g>
<!-- Node6&#45;&gt;Node1 -->
<g id="edge8" class="edge">
<title>Node6&#45;&gt;Node1</title>
<path fill="none" stroke="#191970" d="M561.778,-148.2705C574.9655,-169.3972 598.4509,-219.6679 608.5707,-247.5446"/>
<polygon fill="#191970" stroke="#191970" points="605.3542,-248.9631 611.8388,-257.3416 611.9945,-246.7479 605.3542,-248.9631"/>
</g>
<!-- Node6&#45;&gt;Node2 -->
<g id="edge7" class="edge">
<title>Node6&#45;&gt;Node2</title>
<path fill="none" stroke="#191970" d="M548.9152,-128.9005C544.1152,-118.8505 536.4551,-102.8122 530.4506,-90.2403"/>
<polygon fill="#191970" stroke="#191970" points="533.5444,-88.5968 526.0763,-81.0817 527.2279,-91.6137 533.5444,-88.5968"/>
</g>
<!-- Node6&#45;&gt;Node5 -->
<g id="edge9" class="edge">
<title>Node6&#45;&gt;Node5</title>
<path fill="none" stroke="#191970" d="M528.9999,-128.9005C499.4133,-117.3082 449.4926,-97.7486 416.2695,-84.7313"/>
<polygon fill="#191970" stroke="#191970" points="417.5424,-81.471 406.9547,-81.0817 414.9887,-87.9886 417.5424,-81.471"/>
</g>
<!-- Node7&#45;&gt;Node1 -->
<g id="edge11" class="edge">
<title>Node7&#45;&gt;Node1</title>
<path fill="none" stroke="#191970" d="M83.3474,-148.1578C111.218,-165.9728 165.9361,-203.7581 218.5,-221 274.8043,-239.4689 431.2458,-253.5349 529.274,-261.0052"/>
<polygon fill="#191970" stroke="#191970" points="529.22,-264.5109 539.455,-261.7734 529.7467,-257.5308 529.22,-264.5109"/>
</g>
<!-- Node8&#45;&gt;Node1 -->
<g id="edge13" class="edge">
<title>Node8&#45;&gt;Node1</title>
<path fill="none" stroke="#191970" d="M802.0891,-148.1879C793.448,-165.0613 766.0259,-200.04 735.5,-221 714.1013,-235.693 687.3038,-246.8078 664.1022,-254.4279"/>
<polygon fill="#191970" stroke="#191970" points="662.893,-251.1392 654.4051,-257.48 664.9946,-257.8163 662.893,-251.1392"/>
</g>
<!-- Node9 -->
<g id="node10" class="node">
<title>Node9</title>
<g id="a_node10"><a xlink:href="constraints__hard_8h.html" target="_top" xlink:title="Functions and data structures for handling of secondary structure hard constraints. ">
<polygon fill="none" stroke="#000000" points="608.5,-56.5 608.5,-86.5 726.5,-86.5 726.5,-56.5 608.5,-56.5"/>
<text text-anchor="start" x="616.5" y="-74.5" font-family="Helvetica,sans-Serif" font-size="10.00" fill="#000000">ViennaRNA/constraints</text>
<text text-anchor="middle" x="667.5" y="-63.5" font-family="Helvetica,sans-Serif" font-size="10.00" fill="#000000">_hard.h</text>
</a>
</g>
</g>
<!-- Node8&#45;&gt;Node9 -->
<g id="edge14" class="edge">
<title>Node8&#45;&gt;Node9</title>
<path fill="none" stroke="#191970" d="M784.0145,-128.9005C763.9977,-119.0393 732.2782,-103.4128 706.9858,-90.9526"/>
<polygon fill="#191970" stroke="#191970" points="708.5092,-87.8014 697.9919,-86.5218 705.4157,-94.0808 708.5092,-87.8014"/>
</g>
<!-- Node10 -->
<g id="node11" class="node">
<title>Node10</title>
<g id="a_node11"><a xlink:href="constraints__soft_8h.html" target="_top" xlink:title="Functions and data structures for secondary structure soft constraints. ">
<polygon fill="none" stroke="#000000" points="744.5,-56.5 744.5,-86.5 862.5,-86.5 862.5,-56.5 744.5,-56.5"/>
<text text-anchor="start" x="752.5" y="-74.5" font-family="Helvetica,sans-Serif" font-size="10.00" fill="#000000">ViennaRNA/constraints</text>
<text text-anchor="middle" x="803.5" y="-63.5" font-family="Helvetica,sans-Serif" font-size="10.00" fill="#000000">_soft.h</text>
</a>
</g>
</g>
<!-- Node8&#45;&gt;Node10 -->
<g id="edge16" class="edge">
<title>Node8&#45;&gt;Node10</title>
<path fill="none" stroke="#191970" d="M803.5,-128.9005C803.5,-120.5099 803.5,-107.9451 803.5,-96.7085"/>
<polygon fill="#191970" stroke="#191970" points="807.0001,-96.5217 803.5,-86.5218 800.0001,-96.5218 807.0001,-96.5217"/>
</g>
<!-- Node11 -->
<g id="node12" class="node">
<title>Node11</title>
<g id="a_node12"><a xlink:href="constraints__SHAPE_8h.html" target="_top" xlink:title="This module provides function to incorporate SHAPE reactivity data into the folding recursions by mea...">
<polygon fill="none" stroke="#000000" points="880.5,-56.5 880.5,-86.5 998.5,-86.5 998.5,-56.5 880.5,-56.5"/>
<text text-anchor="start" x="888.5" y="-74.5" font-family="Helvetica,sans-Serif" font-size="10.00" fill="#000000">ViennaRNA/constraints</text>
<text text-anchor="middle" x="939.5" y="-63.5" font-family="Helvetica,sans-Serif" font-size="10.00" fill="#000000">_SHAPE.h</text>
</a>
</g>
</g>
<!-- Node8&#45;&gt;Node11 -->
<g id="edge18" class="edge">
<title>Node8&#45;&gt;Node11</title>
<path fill="none" stroke="#191970" d="M822.9855,-128.9005C843.0023,-119.0393 874.7218,-103.4128 900.0142,-90.9526"/>
<polygon fill="#191970" stroke="#191970" points="901.5843,-94.0808 909.0081,-86.5218 898.4908,-87.8014 901.5843,-94.0808"/>
</g>
<!-- Node12 -->
<g id="node13" class="node">
<title>Node12</title>
<g id="a_node13"><a xlink:href="perturbation__fold_8h.html" target="_top" xlink:title="Find a vector of perturbation energies that minimizes the discripancies between predicted and observe...">
<polygon fill="none" stroke="#000000" points="1017,-56.5 1017,-86.5 1138,-86.5 1138,-56.5 1017,-56.5"/>
<text text-anchor="start" x="1025" y="-74.5" font-family="Helvetica,sans-Serif" font-size="10.00" fill="#000000">ViennaRNA/perturbation</text>
<text text-anchor="middle" x="1077.5" y="-63.5" font-family="Helvetica,sans-Serif" font-size="10.00" fill="#000000">_fold.h</text>
</a>
</g>
</g>
<!-- Node8&#45;&gt;Node12 -->
<g id="edge20" class="edge">
<title>Node8&#45;&gt;Node12</title>
<path fill="none" stroke="#191970" d="M842.4665,-128.9717C885.2174,-118.518 954.7135,-101.5244 1007.0714,-88.7216"/>
<polygon fill="#191970" stroke="#191970" points="1008.0869,-92.0765 1016.9693,-86.3013 1006.4241,-85.2768 1008.0869,-92.0765"/>
</g>
<!-- Node13 -->
<g id="node14" class="node">
<title>Node13</title>
<g id="a_node14"><a xlink:href="constraints__ligand_8h.html" target="_top" xlink:title="Functions for incorporation of ligands binding to hairpin and interior loop motifs using the soft con...">
<polygon fill="none" stroke="#000000" points="1156.5,-56.5 1156.5,-86.5 1274.5,-86.5 1274.5,-56.5 1156.5,-56.5"/>
<text text-anchor="start" x="1164.5" y="-74.5" font-family="Helvetica,sans-Serif" font-size="10.00" fill="#000000">ViennaRNA/constraints</text>
<text text-anchor="middle" x="1215.5" y="-63.5" font-family="Helvetica,sans-Serif" font-size="10.00" fill="#000000">_ligand.h</text>
</a>
</g>
</g>
<!-- Node8&#45;&gt;Node13 -->
<g id="edge22" class="edge">
<title>Node8&#45;&gt;Node13</title>
<path fill="none" stroke="#191970" d="M844.8889,-128.994C854.881,-126.8642 865.5475,-124.727 875.5,-123 992.4797,-102.701 1025.7403,-108.2537 1146.2426,-87.1264"/>
<polygon fill="#191970" stroke="#191970" points="1146.9955,-90.5475 1156.228,-85.3501 1145.7695,-83.6556 1146.9955,-90.5475"/>
</g>
<!-- Node9&#45;&gt;Node1 -->
<g id="edge15" class="edge">
<title>Node9&#45;&gt;Node1</title>
<path fill="none" stroke="#191970" d="M668.5427,-86.6388C669.8725,-114.4617 670.0137,-175.081 650.5,-221 645.9422,-231.7252 638.0518,-241.9074 630.638,-249.9527"/>
<polygon fill="#191970" stroke="#191970" points="628.0139,-247.63 623.5241,-257.2265 633.0184,-252.5245 628.0139,-247.63"/>
</g>
<!-- Node10&#45;&gt;Node1 -->
<g id="edge17" class="edge">
<title>Node10&#45;&gt;Node1</title>
<path fill="none" stroke="#191970" d="M777.6707,-86.5622C763.061,-95.8746 745.061,-108.7496 731.5,-123 695.8052,-160.5095 702.923,-182.32 668.5,-221 658.468,-232.2726 645.5442,-243.0796 634.6403,-251.3829"/>
<polygon fill="#191970" stroke="#191970" points="632.3774,-248.7033 626.4224,-257.4663 636.5423,-254.3295 632.3774,-248.7033"/>
</g>
<!-- Node11&#45;&gt;Node1 -->
<g id="edge19" class="edge">
<title>Node11&#45;&gt;Node1</title>
<path fill="none" stroke="#191970" d="M942.522,-86.9624C947.6197,-118.2194 953.7752,-188.6875 913.5,-221 880.7962,-247.2381 773.0513,-258.6217 695.8192,-263.4855"/>
<polygon fill="#191970" stroke="#191970" points="695.3814,-260.0055 685.6106,-264.1019 695.8034,-266.9927 695.3814,-260.0055"/>
</g>
<!-- Node12&#45;&gt;Node1 -->
<g id="edge21" class="edge">
<title>Node12&#45;&gt;Node1</title>
<path fill="none" stroke="#191970" d="M1068.523,-86.5136C1049.0539,-117.5761 999.6537,-188.6893 937.5,-221 896.6071,-242.2582 777.6396,-255.0172 695.5861,-261.5304"/>
<polygon fill="#191970" stroke="#191970" points="695.2186,-258.0484 685.52,-262.313 695.7612,-265.0273 695.2186,-258.0484"/>
</g>
<!-- Node13&#45;&gt;Node1 -->
<g id="edge23" class="edge">
<title>Node13&#45;&gt;Node1</title>
<path fill="none" stroke="#191970" d="M1197.0955,-86.7238C1158.3338,-117.8592 1064.2813,-188.6043 972.5,-221 923.0842,-238.4421 785.8964,-252.6386 695.8615,-260.4433"/>
<polygon fill="#191970" stroke="#191970" points="695.3341,-256.9756 685.6697,-261.317 695.9321,-263.95 695.3341,-256.9756"/>
</g>
<!-- Node15&#45;&gt;Node1 -->
<g id="edge27" class="edge">
<title>Node15&#45;&gt;Node1</title>
<path fill="none" stroke="#191970" d="M396.7623,-153.6029C412.5286,-172.146 437.0599,-203.3053 465.5,-221 491.6567,-237.2741 523.8525,-248.0317 551.4925,-255.0191"/>
<polygon fill="#191970" stroke="#191970" points="550.9075,-258.4784 561.4499,-257.426 552.5523,-251.6743 550.9075,-258.4784"/>
</g>
<!-- Node16&#45;&gt;Node1 -->
<g id="edge37" class="edge">
<title>Node16&#45;&gt;Node1</title>
<path fill="none" stroke="#191970" d="M798.0488,-220.5784C758.233,-231.1926 703.8567,-245.2067 664.2179,-255.05"/>
<polygon fill="#191970" stroke="#191970" points="663.3436,-251.6607 654.4757,-257.4581 665.0234,-258.4562 663.3436,-251.6607"/>
</g>
<!-- Node17 -->
<g id="node18" class="node">
<title>Node17</title>
<polygon fill="none" stroke="#bfbfbf" points="884.5,-129 884.5,-148 930.5,-148 930.5,-129 884.5,-129"/>
<text text-anchor="middle" x="907.5" y="-136" font-family="Helvetica,sans-Serif" font-size="10.00" fill="#000000">stdio.h</text>
</g>
<!-- Node16&#45;&gt;Node17 -->
<g id="edge36" class="edge">
<title>Node16&#45;&gt;Node17</title>
<path fill="none" stroke="#191970" d="M863.4342,-190.2967C872.1426,-180.0605 883.648,-166.5366 892.7186,-155.8746"/>
<polygon fill="#191970" stroke="#191970" points="895.5571,-157.9395 899.3711,-148.055 890.2255,-153.4036 895.5571,-157.9395"/>
</g>
</g>
</svg>
