<?xml version="1.0" encoding="UTF-8" standalone="no"?>
<!DOCTYPE svg PUBLIC "-//W3C//DTD SVG 1.1//EN"
 "http://www.w3.org/Graphics/SVG/1.1/DTD/svg11.dtd">
<!-- Generated by graphviz version 2.40.1 (20161225.0304)
 -->
<!-- Title: Functions for Creating Secondary Structure Plots, Dot&#45;Plots, and More Pages: 1 -->
<svg width="400pt" height="61pt"
 viewBox="0.00 0.00 400.00 61.00" xmlns="http://www.w3.org/2000/svg" xmlns:xlink="http://www.w3.org/1999/xlink">
<g id="graph0" class="graph" transform="scale(1 1) rotate(0) translate(4 57)">
<title>Functions for Creating Secondary Structure Plots, Dot&#45;Plots, and More</title>
<!-- Node0 -->
<g id="node1" class="node">
<title>Node0</title>
<polygon fill="#bfbfbf" stroke="#000000" points="85,-6 85,-47 222,-47 222,-6 85,-6"/>
<text text-anchor="start" x="93" y="-35" font-family="Helvetica,sans-Serif" font-size="10.00" fill="#000000">Functions for Creating</text>
<text text-anchor="start" x="93" y="-24" font-family="Helvetica,sans-Serif" font-size="10.00" fill="#000000"> Secondary Structure Plots,</text>
<text text-anchor="middle" x="153.5" y="-13" font-family="Helvetica,sans-Serif" font-size="10.00" fill="#000000"> Dot&#45;Plots, and More</text>
</g>
<!-- Node2 -->
<g id="node3" class="node">
<title>Node2</title>
<g id="a_node3"><a xlink:href="group__annotation__utils.html" target="_top" xlink:title="Functions to generate\l annotations for Secondary\l Structure Plots, Dot&#45;Plots,\l and Others">
<polygon fill="none" stroke="#000000" points="258,-.5 258,-52.5 392,-52.5 392,-.5 258,-.5"/>
<text text-anchor="start" x="266" y="-40.5" font-family="Helvetica,sans-Serif" font-size="10.00" fill="#000000">Functions to generate</text>
<text text-anchor="start" x="266" y="-29.5" font-family="Helvetica,sans-Serif" font-size="10.00" fill="#000000"> annotations for Secondary</text>
<text text-anchor="start" x="266" y="-18.5" font-family="Helvetica,sans-Serif" font-size="10.00" fill="#000000"> Structure Plots, Dot&#45;Plots,</text>
<text text-anchor="middle" x="325" y="-7.5" font-family="Helvetica,sans-Serif" font-size="10.00" fill="#000000"> and Others</text>
</a>
</g>
</g>
<!-- Node0&#45;&gt;Node2 -->
<g id="edge2" class="edge">
<title>Node0&#45;&gt;Node2</title>
<path fill="none" stroke="#000000" d="M232.5383,-26.5C241.0126,-26.5 249.575,-26.5 257.8915,-26.5"/>
<polygon fill="#000000" stroke="#000000" points="232.2675,-23.0001 222.2674,-26.5 232.2674,-30.0001 232.2675,-23.0001"/>
</g>
<!-- Node1 -->
<g id="node2" class="node">
<title>Node1</title>
<g id="a_node2"><a xlink:href="group__utils.html" target="_top" xlink:title="Utilities">
<polygon fill="none" stroke="#000000" points="0,-17 0,-36 49,-36 49,-17 0,-17"/>
<text text-anchor="middle" x="24.5" y="-24" font-family="Helvetica,sans-Serif" font-size="10.00" fill="#000000">Utilities</text>
</a>
</g>
</g>
<!-- Node1&#45;&gt;Node0 -->
<g id="edge1" class="edge">
<title>Node1&#45;&gt;Node0</title>
<path fill="none" stroke="#000000" d="M59.1313,-26.5C67.1799,-26.5 76.0248,-26.5 84.9735,-26.5"/>
<polygon fill="#000000" stroke="#000000" points="59.0676,-23.0001 49.0676,-26.5 59.0675,-30.0001 59.0676,-23.0001"/>
</g>
</g>
</svg>
