<?xml version="1.0" encoding="UTF-8" standalone="no"?>
<!DOCTYPE svg PUBLIC "-//W3C//DTD SVG 1.1//EN"
 "http://www.w3.org/Graphics/SVG/1.1/DTD/svg11.dtd">
<!-- Generated by graphviz version 2.40.1 (20161225.0304)
 -->
<!-- Title: Partition Function for two hybridized Sequences Pages: 1 -->
<svg width="545pt" height="54pt"
 viewBox="0.00 0.00 545.00 54.10" xmlns="http://www.w3.org/2000/svg" xmlns:xlink="http://www.w3.org/1999/xlink">
<g id="graph0" class="graph" transform="scale(1 1) rotate(0) translate(4 50.1035)">
<title>Partition Function for two hybridized Sequences</title>
<!-- Node2 -->
<g id="node1" class="node">
<title>Node2</title>
<g id="a_node1"><a xlink:href="group__pf__fold.html" target="_top" xlink:title="Compuate the partition function and various equilibrium properties derived from it. ">
<polygon fill="none" stroke="#000000" points="0,-9.1035 0,-39.1035 131,-39.1035 131,-9.1035 0,-9.1035"/>
<text text-anchor="start" x="8" y="-27.1035" font-family="Helvetica,sans-Serif" font-size="10.00" fill="#000000">Partition function</text>
<text text-anchor="middle" x="65.5" y="-16.1035" font-family="Helvetica,sans-Serif" font-size="10.00" fill="#000000"> and equilibrium properties</text>
</a>
</g>
</g>
<!-- Node0 -->
<g id="node3" class="node">
<title>Node0</title>
<polygon fill="#bfbfbf" stroke="#000000" points="232,-3.6035 232,-44.6035 328,-44.6035 328,-3.6035 232,-3.6035"/>
<text text-anchor="start" x="240" y="-32.6035" font-family="Helvetica,sans-Serif" font-size="10.00" fill="#000000">Partition Function</text>
<text text-anchor="start" x="240" y="-21.6035" font-family="Helvetica,sans-Serif" font-size="10.00" fill="#000000"> for two hybridized</text>
<text text-anchor="middle" x="280" y="-10.6035" font-family="Helvetica,sans-Serif" font-size="10.00" fill="#000000"> Sequences</text>
</g>
<!-- Node2&#45;&gt;Node0 -->
<g id="edge2" class="edge">
<title>Node2&#45;&gt;Node0</title>
<path fill="none" stroke="#000000" d="M141.2682,-28.8388C143.8765,-28.9386 146.4597,-29.0275 149,-29.1035 177.876,-29.9673 185.1318,-30.1955 214,-29.1035 219.7415,-28.8864 225.7579,-28.5633 231.7228,-28.184"/>
<polygon fill="#000000" stroke="#000000" points="141.2609,-25.3353 131.1204,-28.4045 140.9615,-32.3289 141.2609,-25.3353"/>
</g>
<!-- Node1 -->
<g id="node2" class="node">
<title>Node1</title>
<g id="a_node2"><a xlink:href="group__cofold.html" target="_top" xlink:title="Predict structures formed by two molecules upon hybridization. ">
<polygon fill="none" stroke="#000000" points="429,-14.6035 429,-33.6035 537,-33.6035 537,-14.6035 429,-14.6035"/>
<text text-anchor="middle" x="483" y="-21.6035" font-family="Helvetica,sans-Serif" font-size="10.00" fill="#000000">RNA&#45;RNA interaction</text>
</a>
</g>
</g>
<!-- Node1&#45;&gt;Node0 -->
<g id="edge1" class="edge">
<title>Node1&#45;&gt;Node0</title>
<path fill="none" stroke="#000000" d="M418.6737,-22.2277C416.082,-22.1803 413.5164,-22.1385 411,-22.1035 382.1139,-21.7024 374.8856,-21.666 346,-22.1035 340.2689,-22.1903 334.2587,-22.3195 328.2973,-22.4712"/>
<polygon fill="#000000" stroke="#000000" points="418.6798,-25.7284 428.7498,-22.4353 418.824,-18.7299 418.6798,-25.7284"/>
</g>
<!-- Node0&#45;&gt;Node2 -->
<g id="edge3" class="edge">
<title>Node0&#45;&gt;Node2</title>
<path fill="none" stroke="#006400" stroke-dasharray="5,2" d="M231.7484,-6.8901C225.8336,-5.3347 219.8222,-4.0075 214,-3.1035 185.4531,1.3286 177.6699,.4464 149,-3.1035 138.4674,-4.4077 127.3543,-6.6037 116.7929,-9.0967"/>
<text text-anchor="middle" x="181.5" y="-17.1035" font-family="Helvetica,sans-Serif" font-size="10.00" fill="#000000">part_func_co.h</text>
<text text-anchor="middle" x="181.5" y="-6.1035" font-family="Helvetica,sans-Serif" font-size="10.00" fill="#000000">part_func_up.h</text>
</g>
<!-- Node0&#45;&gt;Node1 -->
<g id="edge4" class="edge">
<title>Node0&#45;&gt;Node1</title>
<path fill="none" stroke="#006400" stroke-dasharray="5,2" d="M328.1082,-24.1035C358.3576,-24.1035 397.4516,-24.1035 428.7956,-24.1035"/>
<text text-anchor="middle" x="378.5" y="-38.1035" font-family="Helvetica,sans-Serif" font-size="10.00" fill="#000000">part_func_co.h</text>
<text text-anchor="middle" x="378.5" y="-27.1035" font-family="Helvetica,sans-Serif" font-size="10.00" fill="#000000">part_func_up.h</text>
</g>
</g>
</svg>
