<?xml version="1.0" encoding="UTF-8" standalone="no"?>
<!DOCTYPE svg PUBLIC "-//W3C//DTD SVG 1.1//EN"
 "http://www.w3.org/Graphics/SVG/1.1/DTD/svg11.dtd">
<!-- Generated by graphviz version 2.40.1 (20161225.0304)
 -->
<!-- Title: Calculate Partition Functions of a Distance Based Partitioning Pages: 1 -->
<svg width="334pt" height="88pt"
 viewBox="0.00 0.00 334.00 88.00" xmlns="http://www.w3.org/2000/svg" xmlns:xlink="http://www.w3.org/1999/xlink">
<g id="graph0" class="graph" transform="scale(1 1) rotate(0) translate(4 84)">
<title>Calculate Partition Functions of a Distance Based Partitioning</title>
<!-- Node1 -->
<g id="node1" class="node">
<title>Node1</title>
<g id="a_node1"><a xlink:href="group__kl__neighborhood.html" target="_top" xlink:title="Compute Thermodynamic properties for a Distance Class Partitioning of the Secondary Structure Space...">
<polygon fill="none" stroke="#000000" points="0,-49.5 0,-79.5 167,-79.5 167,-49.5 0,-49.5"/>
<text text-anchor="start" x="8" y="-67.5" font-family="Helvetica,sans-Serif" font-size="10.00" fill="#000000">Distance based partitioning</text>
<text text-anchor="middle" x="83.5" y="-56.5" font-family="Helvetica,sans-Serif" font-size="10.00" fill="#000000"> of the Secondary Structure Space</text>
</a>
</g>
</g>
<!-- Node0 -->
<g id="node3" class="node">
<title>Node0</title>
<polygon fill="#bfbfbf" stroke="#000000" points="203,-19 203,-60 326,-60 326,-19 203,-19"/>
<text text-anchor="start" x="211" y="-48" font-family="Helvetica,sans-Serif" font-size="10.00" fill="#000000">Calculate Partition</text>
<text text-anchor="start" x="211" y="-37" font-family="Helvetica,sans-Serif" font-size="10.00" fill="#000000"> Functions of a Distance</text>
<text text-anchor="middle" x="264.5" y="-26" font-family="Helvetica,sans-Serif" font-size="10.00" fill="#000000"> Based Partitioning</text>
</g>
<!-- Node1&#45;&gt;Node0 -->
<g id="edge1" class="edge">
<title>Node1&#45;&gt;Node0</title>
<path fill="none" stroke="#000000" d="M177.2921,-51.5453C185.9643,-50.3475 194.5961,-49.1552 202.8684,-48.0127"/>
<polygon fill="#000000" stroke="#000000" points="176.5394,-48.1159 167.1124,-52.9513 177.4972,-55.0501 176.5394,-48.1159"/>
</g>
<!-- Node2 -->
<g id="node2" class="node">
<title>Node2</title>
<g id="a_node2"><a xlink:href="group__pf__fold.html" target="_top" xlink:title="Compuate the partition function and various equilibrium properties derived from it. ">
<polygon fill="none" stroke="#000000" points="18,-.5 18,-30.5 149,-30.5 149,-.5 18,-.5"/>
<text text-anchor="start" x="26" y="-18.5" font-family="Helvetica,sans-Serif" font-size="10.00" fill="#000000">Partition function</text>
<text text-anchor="middle" x="83.5" y="-7.5" font-family="Helvetica,sans-Serif" font-size="10.00" fill="#000000"> and equilibrium properties</text>
</a>
</g>
</g>
<!-- Node2&#45;&gt;Node0 -->
<g id="edge2" class="edge">
<title>Node2&#45;&gt;Node0</title>
<path fill="none" stroke="#000000" d="M159.0691,-25.5202C173.6172,-27.4492 188.6948,-29.4485 202.7415,-31.311"/>
<polygon fill="#000000" stroke="#000000" points="159.4744,-22.0434 149.1011,-24.1985 158.5542,-28.9827 159.4744,-22.0434"/>
</g>
</g>
</svg>
