<?xml version="1.0" encoding="UTF-8" standalone="no"?>
<!DOCTYPE svg PUBLIC "-//W3C//DTD SVG 1.1//EN"
 "http://www.w3.org/Graphics/SVG/1.1/DTD/svg11.dtd">
<!-- Generated by graphviz version 2.40.1 (20161225.0304)
 -->
<!-- Title: The RNA folding grammar Pages: 1 -->
<svg width="295pt" height="188pt"
 viewBox="0.00 0.00 295.00 187.50" xmlns="http://www.w3.org/2000/svg" xmlns:xlink="http://www.w3.org/1999/xlink">
<g id="graph0" class="graph" transform="scale(1 1) rotate(0) translate(4 183.5)">
<title>The RNA folding grammar</title>
<!-- Node1 -->
<g id="node1" class="node">
<title>Node1</title>
<g id="a_node1"><a xlink:href="group__model__details.html" target="_top" xlink:title="Functions and data structures to fine&#45;tune the implemented secondary structure evaluation model...">
<polygon fill="none" stroke="#000000" points="171,-149 171,-179 281,-179 281,-149 171,-149"/>
<text text-anchor="start" x="179" y="-167" font-family="Helvetica,sans-Serif" font-size="10.00" fill="#000000">Fine&#45;tuning of the</text>
<text text-anchor="middle" x="226" y="-156" font-family="Helvetica,sans-Serif" font-size="10.00" fill="#000000"> implemented models</text>
</a>
</g>
</g>
<!-- Node2 -->
<g id="node2" class="node">
<title>Node2</title>
<g id="a_node2"><a xlink:href="group__energy__parameters.html" target="_top" xlink:title="All relevant functions to retrieve and copy pre&#45;calculated energy parameter sets as well as reading/w...">
<polygon fill="none" stroke="#000000" points="176.5,-110.5 176.5,-129.5 275.5,-129.5 275.5,-110.5 176.5,-110.5"/>
<text text-anchor="middle" x="226" y="-117.5" font-family="Helvetica,sans-Serif" font-size="10.00" fill="#000000">Energy parameters</text>
</a>
</g>
</g>
<!-- Node4 -->
<g id="node3" class="node">
<title>Node4</title>
<g id="a_node3"><a xlink:href="group__constraints.html" target="_top" xlink:title="This module provides general functions that allow for an easy control of constrained secondary struct...">
<polygon fill="none" stroke="#000000" points="171,-61 171,-91 281,-91 281,-61 171,-61"/>
<text text-anchor="start" x="179" y="-79" font-family="Helvetica,sans-Serif" font-size="10.00" fill="#000000">Constraining the RNA</text>
<text text-anchor="middle" x="226" y="-68" font-family="Helvetica,sans-Serif" font-size="10.00" fill="#000000"> folding grammar</text>
</a>
</g>
</g>
<!-- Node0 -->
<g id="node4" class="node">
<title>Node0</title>
<polygon fill="#bfbfbf" stroke="#000000" points="0,-88.5 0,-107.5 129,-107.5 129,-88.5 0,-88.5"/>
<text text-anchor="middle" x="64.5" y="-95.5" font-family="Helvetica,sans-Serif" font-size="10.00" fill="#000000">The RNA folding grammar</text>
</g>
<!-- Node0&#45;&gt;Node1 -->
<g id="edge1" class="edge">
<title>Node0&#45;&gt;Node1</title>
<path fill="none" stroke="#000000" d="M97.2516,-111.3846C123.8518,-122.2552 161.3596,-137.5835 189.0333,-148.8929"/>
<polygon fill="#000000" stroke="#000000" points="98.5644,-108.1401 87.9835,-107.597 95.9163,-114.6199 98.5644,-108.1401"/>
</g>
<!-- Node0&#45;&gt;Node2 -->
<g id="edge2" class="edge">
<title>Node0&#45;&gt;Node2</title>
<path fill="none" stroke="#000000" d="M139.2303,-108.18C151.746,-109.8849 164.4557,-111.6163 176.1477,-113.209"/>
<polygon fill="#000000" stroke="#000000" points="139.6386,-104.7034 129.2577,-106.8215 138.6937,-111.6393 139.6386,-104.7034"/>
</g>
<!-- Node0&#45;&gt;Node4 -->
<g id="edge4" class="edge">
<title>Node0&#45;&gt;Node4</title>
<path fill="none" stroke="#000000" d="M139.3577,-87.8027C149.9608,-86.3583 160.7001,-84.8953 170.8391,-83.5142"/>
<polygon fill="#000000" stroke="#000000" points="138.6937,-84.3607 129.2577,-89.1785 139.6386,-91.2966 138.6937,-84.3607"/>
</g>
<!-- Node3 -->
<g id="node5" class="node">
<title>Node3</title>
<g id="a_node5"><a xlink:href="group__domains.html" target="_top" xlink:title="This module covers simple and straight&#45;forward extensions to the RNA folding grammar. ">
<polygon fill="none" stroke="#000000" points="165,-.5 165,-41.5 287,-41.5 287,-.5 165,-.5"/>
<text text-anchor="start" x="173" y="-29.5" font-family="Helvetica,sans-Serif" font-size="10.00" fill="#000000">Extending the folding</text>
<text text-anchor="start" x="173" y="-18.5" font-family="Helvetica,sans-Serif" font-size="10.00" fill="#000000"> grammar with additional</text>
<text text-anchor="middle" x="226" y="-7.5" font-family="Helvetica,sans-Serif" font-size="10.00" fill="#000000"> domains</text>
</a>
</g>
</g>
<!-- Node0&#45;&gt;Node3 -->
<g id="edge3" class="edge">
<title>Node0&#45;&gt;Node3</title>
<path fill="none" stroke="#000000" d="M93.8935,-83.9858C118.745,-72.137 154.6898,-54.9993 182.813,-41.5907"/>
<polygon fill="#000000" stroke="#000000" points="92.1478,-80.9406 84.6275,-88.4036 95.1604,-87.2591 92.1478,-80.9406"/>
</g>
</g>
</svg>
