<?xml version="1.0" encoding="UTF-8" standalone="no"?>
<!DOCTYPE svg PUBLIC "-//W3C//DTD SVG 1.1//EN"
 "http://www.w3.org/Graphics/SVG/1.1/DTD/svg11.dtd">
<!-- Generated by graphviz version 2.40.1 (20161225.0304)
 -->
<!-- Title: The RNA secondary structure landscape Pages: 1 -->
<svg width="336pt" height="100pt"
 viewBox="0.00 0.00 336.00 99.50" xmlns="http://www.w3.org/2000/svg" xmlns:xlink="http://www.w3.org/1999/xlink">
<g id="graph0" class="graph" transform="scale(1 1) rotate(0) translate(4 95.5)">
<title>The RNA secondary structure landscape</title>
<!-- Node1 -->
<g id="node1" class="node">
<title>Node1</title>
<g id="a_node1"><a xlink:href="group__neighbors.html" target="_top" xlink:title="Different functions to generate structural neighbors of a secondary structure according to a particul...">
<polygon fill="none" stroke="#000000" points="182,-50 182,-91 328,-91 328,-50 182,-50"/>
<text text-anchor="start" x="190" y="-79" font-family="Helvetica,sans-Serif" font-size="10.00" fill="#000000">Neighborhood relation</text>
<text text-anchor="start" x="190" y="-68" font-family="Helvetica,sans-Serif" font-size="10.00" fill="#000000"> and move sets for secondary</text>
<text text-anchor="middle" x="255" y="-57" font-family="Helvetica,sans-Serif" font-size="10.00" fill="#000000"> structures</text>
</a>
</g>
</g>
<!-- Node2 -->
<g id="node2" class="node">
<title>Node2</title>
<g id="a_node2"><a xlink:href="group__paths.html" target="_top" xlink:title="Refolding paths of\l secondary structures">
<polygon fill="none" stroke="#000000" points="199.5,-.5 199.5,-30.5 310.5,-30.5 310.5,-.5 199.5,-.5"/>
<text text-anchor="start" x="207.5" y="-18.5" font-family="Helvetica,sans-Serif" font-size="10.00" fill="#000000">Refolding paths of</text>
<text text-anchor="middle" x="255" y="-7.5" font-family="Helvetica,sans-Serif" font-size="10.00" fill="#000000"> secondary structures</text>
</a>
</g>
</g>
<!-- Node0 -->
<g id="node3" class="node">
<title>Node0</title>
<polygon fill="#bfbfbf" stroke="#000000" points="0,-27.5 0,-57.5 146,-57.5 146,-27.5 0,-27.5"/>
<text text-anchor="start" x="8" y="-45.5" font-family="Helvetica,sans-Serif" font-size="10.00" fill="#000000">The RNA secondary structure</text>
<text text-anchor="middle" x="73" y="-34.5" font-family="Helvetica,sans-Serif" font-size="10.00" fill="#000000"> landscape</text>
</g>
<!-- Node0&#45;&gt;Node1 -->
<g id="edge1" class="edge">
<title>Node0&#45;&gt;Node1</title>
<path fill="none" stroke="#000000" d="M156.2365,-55.3056C164.8043,-56.6237 173.4644,-57.9561 181.9103,-59.2554"/>
<polygon fill="#000000" stroke="#000000" points="156.6556,-51.829 146.2397,-53.7676 155.5911,-58.7476 156.6556,-51.829"/>
</g>
<!-- Node0&#45;&gt;Node2 -->
<g id="edge2" class="edge">
<title>Node0&#45;&gt;Node2</title>
<path fill="none" stroke="#000000" d="M156.2647,-30.1475C170.8336,-27.9862 185.6689,-25.7854 199.2623,-23.7688"/>
<polygon fill="#000000" stroke="#000000" points="155.6178,-26.7051 146.2397,-31.6348 156.645,-33.6293 155.6178,-26.7051"/>
</g>
</g>
</svg>
