<?xml version="1.0" encoding="UTF-8" standalone="no"?>
<!DOCTYPE svg PUBLIC "-//W3C//DTD SVG 1.1//EN"
 "http://www.w3.org/Graphics/SVG/1.1/DTD/svg11.dtd">
<!-- Generated by graphviz version 2.40.1 (20161225.0304)
 -->
<!-- Title: Suboptimals and representative structures Pages: 1 -->
<svg width="323pt" height="269pt"
 viewBox="0.00 0.00 323.00 269.00" xmlns="http://www.w3.org/2000/svg" xmlns:xlink="http://www.w3.org/1999/xlink">
<g id="graph0" class="graph" transform="scale(1 1) rotate(0) translate(4 265)">
<title>Suboptimals and representative structures</title>
<!-- Node1 -->
<g id="node1" class="node">
<title>Node1</title>
<g id="a_node1"><a xlink:href="group__subopt__zuker.html" target="_top" xlink:title="Suboptimal structures\l sensu Stiegler et al.\l 1984 / Zuker et al. 1989">
<polygon fill="none" stroke="#000000" points="191,-219.5 191,-260.5 314,-260.5 314,-219.5 191,-219.5"/>
<text text-anchor="start" x="199" y="-248.5" font-family="Helvetica,sans-Serif" font-size="10.00" fill="#000000">Suboptimal structures</text>
<text text-anchor="start" x="199" y="-237.5" font-family="Helvetica,sans-Serif" font-size="10.00" fill="#000000"> sensu Stiegler et al.</text>
<text text-anchor="middle" x="252.5" y="-226.5" font-family="Helvetica,sans-Serif" font-size="10.00" fill="#000000"> 1984 / Zuker et al. 1989</text>
</a>
</g>
</g>
<!-- Node4 -->
<g id="node2" class="node">
<title>Node4</title>
<g id="a_node2"><a xlink:href="group__mea__fold.html" target="_top" xlink:title="Compute the structure\l with maximum expected\l accuracy (MEA)">
<polygon fill="none" stroke="#000000" points="190,-159.5 190,-200.5 315,-200.5 315,-159.5 190,-159.5"/>
<text text-anchor="start" x="198" y="-188.5" font-family="Helvetica,sans-Serif" font-size="10.00" fill="#000000">Compute the structure</text>
<text text-anchor="start" x="198" y="-177.5" font-family="Helvetica,sans-Serif" font-size="10.00" fill="#000000"> with maximum expected</text>
<text text-anchor="middle" x="252.5" y="-166.5" font-family="Helvetica,sans-Serif" font-size="10.00" fill="#000000"> accuracy (MEA)</text>
</a>
</g>
</g>
<!-- Node3 -->
<g id="node3" class="node">
<title>Node3</title>
<g id="a_node3"><a xlink:href="group__subopt__stochbt.html" target="_top" xlink:title="Structure sampling\l from the ensemble">
<polygon fill="none" stroke="#000000" points="202,-110 202,-140 303,-140 303,-110 202,-110"/>
<text text-anchor="start" x="210" y="-128" font-family="Helvetica,sans-Serif" font-size="10.00" fill="#000000">Structure sampling</text>
<text text-anchor="middle" x="252.5" y="-117" font-family="Helvetica,sans-Serif" font-size="10.00" fill="#000000"> from the ensemble</text>
</a>
</g>
</g>
<!-- Node5 -->
<g id="node4" class="node">
<title>Node5</title>
<g id="a_node4"><a xlink:href="group__centroid__fold.html" target="_top" xlink:title="Compute the centroid\l structure">
<polygon fill="none" stroke="#000000" points="197.5,-61 197.5,-91 307.5,-91 307.5,-61 197.5,-61"/>
<text text-anchor="start" x="205.5" y="-79" font-family="Helvetica,sans-Serif" font-size="10.00" fill="#000000">Compute the centroid</text>
<text text-anchor="middle" x="252.5" y="-68" font-family="Helvetica,sans-Serif" font-size="10.00" fill="#000000"> structure</text>
</a>
</g>
</g>
<!-- Node0 -->
<g id="node5" class="node">
<title>Node0</title>
<polygon fill="#bfbfbf" stroke="#000000" points="0,-110 0,-140 154,-140 154,-110 0,-110"/>
<text text-anchor="start" x="8" y="-128" font-family="Helvetica,sans-Serif" font-size="10.00" fill="#000000">Suboptimals and representative</text>
<text text-anchor="middle" x="77" y="-117" font-family="Helvetica,sans-Serif" font-size="10.00" fill="#000000"> structures</text>
</g>
<!-- Node0&#45;&gt;Node1 -->
<g id="edge1" class="edge">
<title>Node0&#45;&gt;Node1</title>
<path fill="none" stroke="#000000" d="M102.9576,-146.865C125.2119,-165.0271 158.5653,-190.8904 190,-210 195.348,-213.2511 201.1022,-216.4193 206.8767,-219.404"/>
<polygon fill="#000000" stroke="#000000" points="104.9434,-143.9664 94.999,-140.3115 100.4937,-149.3701 104.9434,-143.9664"/>
</g>
<!-- Node0&#45;&gt;Node4 -->
<g id="edge4" class="edge">
<title>Node0&#45;&gt;Node4</title>
<path fill="none" stroke="#000000" d="M134.5626,-143.0395C152.2375,-148.5787 171.7732,-154.701 189.7755,-160.3427"/>
<polygon fill="#000000" stroke="#000000" points="135.5452,-139.6797 124.9561,-140.029 133.4518,-146.3594 135.5452,-139.6797"/>
</g>
<!-- Node0&#45;&gt;Node3 -->
<g id="edge3" class="edge">
<title>Node0&#45;&gt;Node3</title>
<path fill="none" stroke="#000000" d="M164.5181,-125C177.3717,-125 190.2319,-125 201.9956,-125"/>
<polygon fill="#000000" stroke="#000000" points="164.2323,-121.5001 154.2322,-125 164.2322,-128.5001 164.2323,-121.5001"/>
</g>
<!-- Node0&#45;&gt;Node5 -->
<g id="edge5" class="edge">
<title>Node0&#45;&gt;Node5</title>
<path fill="none" stroke="#000000" d="M140.8292,-107.1788C159.7779,-101.8882 180.3378,-96.1478 198.5908,-91.0516"/>
<polygon fill="#000000" stroke="#000000" points="139.7782,-103.8382 131.0878,-109.8986 141.6607,-110.5804 139.7782,-103.8382"/>
</g>
<!-- Node2 -->
<g id="node6" class="node">
<title>Node2</title>
<g id="a_node6"><a xlink:href="group__subopt__wuchty.html" target="_top" xlink:title="Suboptimal structures\l within an energy band\l arround the MFE">
<polygon fill="none" stroke="#000000" points="195.5,-.5 195.5,-41.5 309.5,-41.5 309.5,-.5 195.5,-.5"/>
<text text-anchor="start" x="203.5" y="-29.5" font-family="Helvetica,sans-Serif" font-size="10.00" fill="#000000">Suboptimal structures</text>
<text text-anchor="start" x="203.5" y="-18.5" font-family="Helvetica,sans-Serif" font-size="10.00" fill="#000000"> within an energy band</text>
<text text-anchor="middle" x="252.5" y="-7.5" font-family="Helvetica,sans-Serif" font-size="10.00" fill="#000000"> arround the MFE</text>
</a>
</g>
</g>
<!-- Node0&#45;&gt;Node2 -->
<g id="edge2" class="edge">
<title>Node0&#45;&gt;Node2</title>
<path fill="none" stroke="#000000" d="M107.053,-104.2592C129.4961,-89.0991 161.1425,-68.4082 190,-52 196.2122,-48.4678 202.8806,-44.9171 209.4651,-41.5441"/>
<polygon fill="#000000" stroke="#000000" points="104.9351,-101.4666 98.63,-109.9811 108.8686,-107.2569 104.9351,-101.4666"/>
</g>
</g>
</svg>
