<?xml version="1.0" encoding="UTF-8" standalone="no"?>
<!DOCTYPE svg PUBLIC "-//W3C//DTD SVG 1.1//EN"
 "http://www.w3.org/Graphics/SVG/1.1/DTD/svg11.dtd">
<!-- Generated by graphviz version 2.40.1 (20161225.0304)
 -->
<!-- Title: Distance based partitioning of the Secondary Structure Space Pages: 1 -->
<svg width="522pt" height="160pt"
 viewBox="0.00 0.00 522.00 159.50" xmlns="http://www.w3.org/2000/svg" xmlns:xlink="http://www.w3.org/1999/xlink">
<g id="graph0" class="graph" transform="scale(1 1) rotate(0) translate(4 155.5)">
<title>Distance based partitioning of the Secondary Structure Space</title>
<!-- Node4 -->
<g id="node1" class="node">
<title>Node4</title>
<g id="a_node1"><a xlink:href="group__kl__neighborhood__stochbt.html" target="_top" xlink:title="Contains functions related to stochastic backtracking from a specified distance class. ">
<polygon fill="none" stroke="#000000" points="364,-110 364,-151 504,-151 504,-110 364,-110"/>
<text text-anchor="start" x="372" y="-139" font-family="Helvetica,sans-Serif" font-size="10.00" fill="#000000">Stochastic Backtracking</text>
<text text-anchor="start" x="372" y="-128" font-family="Helvetica,sans-Serif" font-size="10.00" fill="#000000"> of Structures from Distance</text>
<text text-anchor="middle" x="434" y="-117" font-family="Helvetica,sans-Serif" font-size="10.00" fill="#000000"> Based Partitioning</text>
</a>
</g>
</g>
<!-- Node1 -->
<g id="node2" class="node">
<title>Node1</title>
<g id="a_node2"><a xlink:href="group__class__fold.html" target="_top" xlink:title="Classified Dynamic\l Programming variants">
<polygon fill="none" stroke="#000000" points="0,-55.5 0,-85.5 115,-85.5 115,-55.5 0,-55.5"/>
<text text-anchor="start" x="8" y="-73.5" font-family="Helvetica,sans-Serif" font-size="10.00" fill="#000000">Classified Dynamic</text>
<text text-anchor="middle" x="57.5" y="-62.5" font-family="Helvetica,sans-Serif" font-size="10.00" fill="#000000"> Programming variants</text>
</a>
</g>
</g>
<!-- Node0 -->
<g id="node3" class="node">
<title>Node0</title>
<polygon fill="#bfbfbf" stroke="#000000" points="151,-55.5 151,-85.5 318,-85.5 318,-55.5 151,-55.5"/>
<text text-anchor="start" x="159" y="-73.5" font-family="Helvetica,sans-Serif" font-size="10.00" fill="#000000">Distance based partitioning</text>
<text text-anchor="middle" x="234.5" y="-62.5" font-family="Helvetica,sans-Serif" font-size="10.00" fill="#000000"> of the Secondary Structure Space</text>
</g>
<!-- Node1&#45;&gt;Node0 -->
<g id="edge1" class="edge">
<title>Node1&#45;&gt;Node0</title>
<path fill="none" stroke="#000000" d="M125.6905,-70.5C133.8919,-70.5 142.3393,-70.5 150.7298,-70.5"/>
<polygon fill="#000000" stroke="#000000" points="125.4565,-67.0001 115.4564,-70.5 125.4564,-74.0001 125.4565,-67.0001"/>
</g>
<!-- Node0&#45;&gt;Node4 -->
<g id="edge4" class="edge">
<title>Node0&#45;&gt;Node4</title>
<path fill="none" stroke="#000000" d="M294.3428,-88.4978C316.8453,-95.2655 342.5924,-103.009 365.7996,-109.9886"/>
<polygon fill="#000000" stroke="#000000" points="295.1691,-85.0915 284.5848,-85.5631 293.153,-91.7949 295.1691,-85.0915"/>
</g>
<!-- Node3 -->
<g id="node4" class="node">
<title>Node3</title>
<g id="a_node4"><a xlink:href="group__kl__neighborhood__pf.html" target="_top" xlink:title="Compute the partition function and stochastically sample secondary structures for a partitioning of t...">
<polygon fill="none" stroke="#000000" points="372.5,-50 372.5,-91 495.5,-91 495.5,-50 372.5,-50"/>
<text text-anchor="start" x="380.5" y="-79" font-family="Helvetica,sans-Serif" font-size="10.00" fill="#000000">Calculate Partition</text>
<text text-anchor="start" x="380.5" y="-68" font-family="Helvetica,sans-Serif" font-size="10.00" fill="#000000"> Functions of a Distance</text>
<text text-anchor="middle" x="434" y="-57" font-family="Helvetica,sans-Serif" font-size="10.00" fill="#000000"> Based Partitioning</text>
</a>
</g>
</g>
<!-- Node0&#45;&gt;Node3 -->
<g id="edge3" class="edge">
<title>Node0&#45;&gt;Node3</title>
<path fill="none" stroke="#000000" d="M328.4955,-70.5C343.3739,-70.5 358.4235,-70.5 372.3145,-70.5"/>
<polygon fill="#000000" stroke="#000000" points="328.2389,-67.0001 318.2388,-70.5 328.2388,-74.0001 328.2389,-67.0001"/>
</g>
<!-- Node2 -->
<g id="node5" class="node">
<title>Node2</title>
<g id="a_node5"><a xlink:href="group__kl__neighborhood__mfe.html" target="_top" xlink:title="Compute the minimum free energy (MFE) and secondary structures for a partitioning of the secondary st...">
<polygon fill="none" stroke="#000000" points="354,-.5 354,-30.5 514,-30.5 514,-.5 354,-.5"/>
<text text-anchor="start" x="362" y="-18.5" font-family="Helvetica,sans-Serif" font-size="10.00" fill="#000000">Calculating MFE representatives</text>
<text text-anchor="middle" x="434" y="-7.5" font-family="Helvetica,sans-Serif" font-size="10.00" fill="#000000"> of a Distance Based Partitioning</text>
</a>
</g>
</g>
<!-- Node0&#45;&gt;Node2 -->
<g id="edge2" class="edge">
<title>Node0&#45;&gt;Node2</title>
<path fill="none" stroke="#000000" d="M298.7978,-52.7738C324.8448,-45.5929 354.5992,-37.3899 379.5517,-30.5108"/>
<polygon fill="#000000" stroke="#000000" points="297.7244,-49.4391 289.0143,-55.471 299.5848,-56.1873 297.7244,-49.4391"/>
</g>
</g>
</svg>
