<?xml version="1.0" encoding="UTF-8" standalone="no"?>
<!DOCTYPE svg PUBLIC "-//W3C//DTD SVG 1.1//EN"
 "http://www.w3.org/Graphics/SVG/1.1/DTD/svg11.dtd">
<!-- Generated by graphviz version 2.40.1 (20161225.0304)
 -->
<!-- Title: RNA&#45;RNA interaction Pages: 1 -->
<svg width="348pt" height="222pt"
 viewBox="0.00 0.00 348.00 221.50" xmlns="http://www.w3.org/2000/svg" xmlns:xlink="http://www.w3.org/1999/xlink">
<g id="graph0" class="graph" transform="scale(1 1) rotate(0) translate(4 217.5)">
<title>RNA&#45;RNA interaction</title>
<!-- Node3 -->
<g id="node1" class="node">
<title>Node3</title>
<g id="a_node1"><a xlink:href="group__up__cofold.html" target="_top" xlink:title="RNA&#45;RNA interaction as a stepwise process. ">
<polygon fill="none" stroke="#000000" points="209,-161 209,-213 340,-213 340,-161 209,-161"/>
<text text-anchor="start" x="217" y="-201" font-family="Helvetica,sans-Serif" font-size="10.00" fill="#000000">Partition Function</text>
<text text-anchor="start" x="217" y="-190" font-family="Helvetica,sans-Serif" font-size="10.00" fill="#000000"> for two hybridized</text>
<text text-anchor="start" x="217" y="-179" font-family="Helvetica,sans-Serif" font-size="10.00" fill="#000000"> Sequences as a stepwise</text>
<text text-anchor="middle" x="274.5" y="-168" font-family="Helvetica,sans-Serif" font-size="10.00" fill="#000000"> Process</text>
</a>
</g>
</g>
<!-- Node4 -->
<g id="node2" class="node">
<title>Node4</title>
<g id="a_node2"><a xlink:href="group__pf__fold.html" target="_top" xlink:title="Compuate the partition function and various equilibrium properties derived from it. ">
<polygon fill="none" stroke="#000000" points="209,-112 209,-142 340,-142 340,-112 209,-112"/>
<text text-anchor="start" x="217" y="-130" font-family="Helvetica,sans-Serif" font-size="10.00" fill="#000000">Partition function</text>
<text text-anchor="middle" x="274.5" y="-119" font-family="Helvetica,sans-Serif" font-size="10.00" fill="#000000"> and equilibrium properties</text>
</a>
</g>
</g>
<!-- Node1 -->
<g id="node3" class="node">
<title>Node1</title>
<g id="a_node3"><a xlink:href="group__mfe__cofold.html" target="_top" xlink:title="MFE version of cofolding routines This file includes (almost) all function declarations within the RN...">
<polygon fill="none" stroke="#000000" points="216.5,-63 216.5,-93 332.5,-93 332.5,-63 216.5,-63"/>
<text text-anchor="start" x="224.5" y="-81" font-family="Helvetica,sans-Serif" font-size="10.00" fill="#000000">MFE Structures of two</text>
<text text-anchor="middle" x="274.5" y="-70" font-family="Helvetica,sans-Serif" font-size="10.00" fill="#000000"> hybridized Sequences</text>
</a>
</g>
</g>
<!-- Node0 -->
<g id="node4" class="node">
<title>Node0</title>
<polygon fill="#bfbfbf" stroke="#000000" points="0,-70.5 0,-89.5 108,-89.5 108,-70.5 0,-70.5"/>
<text text-anchor="middle" x="54" y="-77.5" font-family="Helvetica,sans-Serif" font-size="10.00" fill="#000000">RNA&#45;RNA interaction</text>
</g>
<!-- Node0&#45;&gt;Node3 -->
<g id="edge3" class="edge">
<title>Node0&#45;&gt;Node3</title>
<path fill="none" stroke="#000000" d="M72.2931,-96.5887C86.2145,-108.538 106.2797,-124.3652 126,-135 151.8461,-148.9383 182.1711,-160.34 208.656,-168.8777"/>
<polygon fill="#000000" stroke="#000000" points="74.3022,-93.6953 64.477,-89.7309 69.6855,-98.9571 74.3022,-93.6953"/>
</g>
<!-- Node0&#45;&gt;Node4 -->
<g id="edge4" class="edge">
<title>Node0&#45;&gt;Node4</title>
<path fill="none" stroke="#006400" stroke-dasharray="5,2" d="M98.6215,-89.5112C130.2076,-96.2438 173.0934,-105.385 208.6088,-112.9552"/>
<text text-anchor="middle" x="158.5" y="-123" font-family="Helvetica,sans-Serif" font-size="10.00" fill="#000000">part_func_co.h</text>
<text text-anchor="middle" x="158.5" y="-112" font-family="Helvetica,sans-Serif" font-size="10.00" fill="#000000">part_func_up.h</text>
</g>
<!-- Node0&#45;&gt;Node1 -->
<g id="edge1" class="edge">
<title>Node0&#45;&gt;Node1</title>
<path fill="none" stroke="#000000" d="M118.4681,-79.4153C149.3926,-79.1348 186.1607,-78.8013 216.2355,-78.5285"/>
<polygon fill="#000000" stroke="#000000" points="118.1906,-75.9175 108.2228,-79.5082 118.2541,-82.9172 118.1906,-75.9175"/>
</g>
<!-- Node2 -->
<g id="node5" class="node">
<title>Node2</title>
<g id="a_node5"><a xlink:href="group__pf__cofold.html" target="_top" xlink:title="Partition Function Cofolding. ">
<polygon fill="none" stroke="#000000" points="226.5,-.5 226.5,-41.5 322.5,-41.5 322.5,-.5 226.5,-.5"/>
<text text-anchor="start" x="234.5" y="-29.5" font-family="Helvetica,sans-Serif" font-size="10.00" fill="#000000">Partition Function</text>
<text text-anchor="start" x="234.5" y="-18.5" font-family="Helvetica,sans-Serif" font-size="10.00" fill="#000000"> for two hybridized</text>
<text text-anchor="middle" x="274.5" y="-7.5" font-family="Helvetica,sans-Serif" font-size="10.00" fill="#000000"> Sequences</text>
</a>
</g>
</g>
<!-- Node0&#45;&gt;Node2 -->
<g id="edge2" class="edge">
<title>Node0&#45;&gt;Node2</title>
<path fill="none" stroke="#000000" d="M99.9238,-67.712C136.8792,-57.8237 188.6644,-43.9673 226.2296,-33.9159"/>
<polygon fill="#000000" stroke="#000000" points="98.6733,-64.4234 89.9179,-70.3893 100.4828,-71.1855 98.6733,-64.4234"/>
</g>
<!-- Node0&#45;&gt;Node2 -->
<g id="edge5" class="edge">
<title>Node0&#45;&gt;Node2</title>
<path fill="none" stroke="#006400" stroke-dasharray="5,2" d="M61.515,-70.0725C73.3372,-55.3772 97.8544,-28.4483 126,-18 157.9104,-6.1541 196.3948,-7.3219 226.1897,-11.2325"/>
<text text-anchor="middle" x="158.5" y="-32" font-family="Helvetica,sans-Serif" font-size="10.00" fill="#000000">part_func_co.h</text>
<text text-anchor="middle" x="158.5" y="-21" font-family="Helvetica,sans-Serif" font-size="10.00" fill="#000000">part_func_up.h</text>
</g>
</g>
</svg>
