<?xml version="1.0" encoding="UTF-8" standalone="no"?>
<!DOCTYPE svg PUBLIC "-//W3C//DTD SVG 1.1//EN"
 "http://www.w3.org/Graphics/SVG/1.1/DTD/svg11.dtd">
<!-- Generated by graphviz version 2.40.1 (20161225.0304)
 -->
<!-- Title: Utilities Pages: 1 -->
<svg width="253pt" height="330pt"
 viewBox="0.00 0.00 253.00 329.50" xmlns="http://www.w3.org/2000/svg" xmlns:xlink="http://www.w3.org/1999/xlink">
<g id="graph0" class="graph" transform="scale(1 1) rotate(0) translate(4 325.5)">
<title>Utilities</title>
<!-- Node2 -->
<g id="node1" class="node">
<title>Node2</title>
<g id="a_node1"><a xlink:href="group__struct__utils.html" target="_top" xlink:title="Parsing, converting,\l comparing secondary\l structures">
<polygon fill="none" stroke="#000000" points="108.5,-280 108.5,-321 221.5,-321 221.5,-280 108.5,-280"/>
<text text-anchor="start" x="116.5" y="-309" font-family="Helvetica,sans-Serif" font-size="10.00" fill="#000000">Parsing, converting,</text>
<text text-anchor="start" x="116.5" y="-298" font-family="Helvetica,sans-Serif" font-size="10.00" fill="#000000"> comparing secondary</text>
<text text-anchor="middle" x="165" y="-287" font-family="Helvetica,sans-Serif" font-size="10.00" fill="#000000"> structures</text>
</a>
</g>
</g>
<!-- Node6 -->
<g id="node2" class="node">
<title>Node6</title>
<g id="a_node2"><a xlink:href="group__units.html" target="_top" xlink:title="Functions to convert\l between various units">
<polygon fill="none" stroke="#000000" points="108,-230.5 108,-260.5 222,-260.5 222,-230.5 108,-230.5"/>
<text text-anchor="start" x="116" y="-248.5" font-family="Helvetica,sans-Serif" font-size="10.00" fill="#000000">Functions to convert</text>
<text text-anchor="middle" x="165" y="-237.5" font-family="Helvetica,sans-Serif" font-size="10.00" fill="#000000"> between various units</text>
</a>
</g>
</g>
<!-- Node1 -->
<g id="node3" class="node">
<title>Node1</title>
<g id="a_node3"><a xlink:href="group__string__utils.html" target="_top" xlink:title="Parsing, converting,\l and comparing sequences">
<polygon fill="none" stroke="#000000" points="98,-181.5 98,-211.5 232,-211.5 232,-181.5 98,-181.5"/>
<text text-anchor="start" x="106" y="-199.5" font-family="Helvetica,sans-Serif" font-size="10.00" fill="#000000">Parsing, converting,</text>
<text text-anchor="middle" x="165" y="-188.5" font-family="Helvetica,sans-Serif" font-size="10.00" fill="#000000"> and comparing sequences</text>
</a>
</g>
</g>
<!-- Node5 -->
<g id="node4" class="node">
<title>Node5</title>
<g id="a_node4"><a xlink:href="group__plotting__utils.html" target="_top" xlink:title="Functions for Creating\l Secondary Structure Plots,\l Dot&#45;Plots, and More">
<polygon fill="none" stroke="#000000" points="96.5,-121 96.5,-162 233.5,-162 233.5,-121 96.5,-121"/>
<text text-anchor="start" x="104.5" y="-150" font-family="Helvetica,sans-Serif" font-size="10.00" fill="#000000">Functions for Creating</text>
<text text-anchor="start" x="104.5" y="-139" font-family="Helvetica,sans-Serif" font-size="10.00" fill="#000000"> Secondary Structure Plots,</text>
<text text-anchor="middle" x="165" y="-128" font-family="Helvetica,sans-Serif" font-size="10.00" fill="#000000"> Dot&#45;Plots, and More</text>
</a>
</g>
</g>
<!-- Node4 -->
<g id="node5" class="node">
<title>Node4</title>
<g id="a_node5"><a xlink:href="group__file__utils.html" target="_top" xlink:title="Functions dealing with file formats for RNA sequences, structures, and alignments. ">
<polygon fill="none" stroke="#000000" points="85,-49.5 85,-101.5 245,-101.5 245,-49.5 85,-49.5"/>
<text text-anchor="start" x="93" y="-89.5" font-family="Helvetica,sans-Serif" font-size="10.00" fill="#000000">Functions to Read/Write</text>
<text text-anchor="start" x="93" y="-78.5" font-family="Helvetica,sans-Serif" font-size="10.00" fill="#000000"> several File Formats</text>
<text text-anchor="start" x="93" y="-67.5" font-family="Helvetica,sans-Serif" font-size="10.00" fill="#000000"> for RNA Sequences, Structures,</text>
<text text-anchor="middle" x="165" y="-56.5" font-family="Helvetica,sans-Serif" font-size="10.00" fill="#000000"> and Alignments</text>
</a>
</g>
</g>
<!-- Node0 -->
<g id="node6" class="node">
<title>Node0</title>
<polygon fill="#bfbfbf" stroke="#000000" points="0,-159 0,-178 49,-178 49,-159 0,-159"/>
<text text-anchor="middle" x="24.5" y="-166" font-family="Helvetica,sans-Serif" font-size="10.00" fill="#000000">Utilities</text>
</g>
<!-- Node0&#45;&gt;Node2 -->
<g id="edge2" class="edge">
<title>Node0&#45;&gt;Node2</title>
<path fill="none" stroke="#000000" d="M31.2996,-187.6649C40.2766,-210.3931 58.1538,-248.0203 85,-270.5 91.8237,-276.2138 99.8433,-280.8972 108.1234,-284.7194"/>
<polygon fill="#000000" stroke="#000000" points="34.5009,-186.2341 27.7039,-178.1068 27.9491,-188.6988 34.5009,-186.2341"/>
</g>
<!-- Node0&#45;&gt;Node6 -->
<g id="edge6" class="edge">
<title>Node0&#45;&gt;Node6</title>
<path fill="none" stroke="#000000" d="M40.0338,-185.5161C51.4636,-197.1244 67.9256,-212.0513 85,-221.5 92.1049,-225.4317 99.9296,-228.7918 107.8191,-231.6421"/>
<polygon fill="#000000" stroke="#000000" points="42.4131,-182.9396 32.979,-178.1179 37.3471,-187.7704 42.4131,-182.9396"/>
</g>
<!-- Node0&#45;&gt;Node1 -->
<g id="edge1" class="edge">
<title>Node0&#45;&gt;Node1</title>
<path fill="none" stroke="#000000" d="M59.1249,-175.4003C70.8986,-177.7467 84.4879,-180.4549 97.9222,-183.1322"/>
<polygon fill="#000000" stroke="#000000" points="59.7864,-171.9634 49.2952,-173.4414 58.4182,-178.8284 59.7864,-171.9634"/>
</g>
<!-- Node0&#45;&gt;Node5 -->
<g id="edge5" class="edge">
<title>Node0&#45;&gt;Node5</title>
<path fill="none" stroke="#000000" d="M59.1723,-161.837C70.495,-159.6611 83.4929,-157.1633 96.4156,-154.6799"/>
<polygon fill="#000000" stroke="#000000" points="58.4549,-158.4107 49.2952,-163.7351 59.776,-165.2849 58.4549,-158.4107"/>
</g>
<!-- Node0&#45;&gt;Node4 -->
<g id="edge4" class="edge">
<title>Node0&#45;&gt;Node4</title>
<path fill="none" stroke="#000000" d="M39.4933,-151.6217C51.0393,-139.3486 67.8757,-122.9468 85,-111.5 90.1914,-108.0298 95.772,-104.7477 101.4838,-101.6826"/>
<polygon fill="#000000" stroke="#000000" points="36.9062,-149.2643 32.7199,-158.997 42.0619,-153.9991 36.9062,-149.2643"/>
</g>
<!-- Node3 -->
<g id="node7" class="node">
<title>Node3</title>
<g id="a_node7"><a xlink:href="group__aln__utils.html" target="_top" xlink:title="Utilities for sequence\l alignments">
<polygon fill="none" stroke="#000000" points="111,-.5 111,-30.5 219,-30.5 219,-.5 111,-.5"/>
<text text-anchor="start" x="119" y="-18.5" font-family="Helvetica,sans-Serif" font-size="10.00" fill="#000000">Utilities for sequence</text>
<text text-anchor="middle" x="165" y="-7.5" font-family="Helvetica,sans-Serif" font-size="10.00" fill="#000000"> alignments</text>
</a>
</g>
</g>
<!-- Node0&#45;&gt;Node3 -->
<g id="edge3" class="edge">
<title>Node0&#45;&gt;Node3</title>
<path fill="none" stroke="#000000" d="M28.495,-149.0772C35.2554,-121.0788 51.6062,-69.5575 85,-40.5 92.3548,-34.1003 101.3396,-29.338 110.5973,-25.7944"/>
<polygon fill="#000000" stroke="#000000" points="25.0708,-148.3517 26.2924,-158.8759 31.9004,-149.887 25.0708,-148.3517"/>
</g>
</g>
</svg>
