<?xml version="1.0" encoding="UTF-8" standalone="no"?>
<!DOCTYPE svg PUBLIC "-//W3C//DTD SVG 1.1//EN"
 "http://www.w3.org/Graphics/SVG/1.1/DTD/svg11.dtd">
<!-- Generated by graphviz version 2.40.1 (20161225.0304)
 -->
<!-- Title: Extending the folding grammar with additional domains Pages: 1 -->
<svg width="443pt" height="66pt"
 viewBox="0.00 0.00 443.00 66.00" xmlns="http://www.w3.org/2000/svg" xmlns:xlink="http://www.w3.org/1999/xlink">
<g id="graph0" class="graph" transform="scale(1 1) rotate(0) translate(4 62)">
<title>Extending the folding grammar with additional domains</title>
<!-- Node3 -->
<g id="node1" class="node">
<title>Node3</title>
<g id="a_node1"><a xlink:href="group__domains__struc.html" target="_top" xlink:title="Add and modify structured domains to the RNA folding grammar. ">
<polygon fill="none" stroke="#000000" points="328.5,-38.5 328.5,-57.5 429.5,-57.5 429.5,-38.5 328.5,-38.5"/>
<text text-anchor="middle" x="379" y="-45.5" font-family="Helvetica,sans-Serif" font-size="10.00" fill="#000000">Structured domains</text>
</a>
</g>
</g>
<!-- Node1 -->
<g id="node2" class="node">
<title>Node1</title>
<g id="a_node2"><a xlink:href="group__grammar.html" target="_top" xlink:title="The RNA folding grammar as implemented in RNAlib. ">
<polygon fill="none" stroke="#000000" points="0,-19.5 0,-38.5 129,-38.5 129,-19.5 0,-19.5"/>
<text text-anchor="middle" x="64.5" y="-26.5" font-family="Helvetica,sans-Serif" font-size="10.00" fill="#000000">The RNA folding grammar</text>
</a>
</g>
</g>
<!-- Node0 -->
<g id="node4" class="node">
<title>Node0</title>
<polygon fill="#bfbfbf" stroke="#000000" points="165,-8.5 165,-49.5 287,-49.5 287,-8.5 165,-8.5"/>
<text text-anchor="start" x="173" y="-37.5" font-family="Helvetica,sans-Serif" font-size="10.00" fill="#000000">Extending the folding</text>
<text text-anchor="start" x="173" y="-26.5" font-family="Helvetica,sans-Serif" font-size="10.00" fill="#000000"> grammar with additional</text>
<text text-anchor="middle" x="226" y="-15.5" font-family="Helvetica,sans-Serif" font-size="10.00" fill="#000000"> domains</text>
</g>
<!-- Node1&#45;&gt;Node0 -->
<g id="edge1" class="edge">
<title>Node1&#45;&gt;Node0</title>
<path fill="none" stroke="#000000" d="M139.2679,-29C147.8506,-29 156.5238,-29 164.897,-29"/>
<polygon fill="#000000" stroke="#000000" points="139.2577,-25.5001 129.2577,-29 139.2576,-32.5001 139.2577,-25.5001"/>
</g>
<!-- Node2 -->
<g id="node3" class="node">
<title>Node2</title>
<g id="a_node3"><a xlink:href="group__domains__up.html" target="_top" xlink:title="Add and modify unstructured domains to the RNA folding grammar. ">
<polygon fill="none" stroke="#000000" points="323,-.5 323,-19.5 435,-19.5 435,-.5 323,-.5"/>
<text text-anchor="middle" x="379" y="-7.5" font-family="Helvetica,sans-Serif" font-size="10.00" fill="#000000">Unstructured domains</text>
</a>
</g>
</g>
<!-- Node0&#45;&gt;Node3 -->
<g id="edge3" class="edge">
<title>Node0&#45;&gt;Node3</title>
<path fill="none" stroke="#000000" d="M297.3473,-37.8601C307.8439,-39.1636 318.4704,-40.4833 328.4316,-41.7203"/>
<polygon fill="#000000" stroke="#000000" points="297.7045,-34.3777 287.3494,-36.6185 296.8418,-41.3243 297.7045,-34.3777"/>
</g>
<!-- Node0&#45;&gt;Node2 -->
<g id="edge2" class="edge">
<title>Node0&#45;&gt;Node2</title>
<path fill="none" stroke="#000000" d="M297.5374,-20.1163C305.9448,-19.0722 314.4326,-18.0182 322.5921,-17.0049"/>
<polygon fill="#000000" stroke="#000000" points="296.8418,-16.6757 287.3494,-21.3815 297.7045,-23.6223 296.8418,-16.6757"/>
</g>
</g>
</svg>
