<?xml version="1.0" encoding="UTF-8" standalone="no"?>
<!DOCTYPE svg PUBLIC "-//W3C//DTD SVG 1.1//EN"
 "http://www.w3.org/Graphics/SVG/1.1/DTD/svg11.dtd">
<!-- Generated by graphviz version 2.40.1 (20161225.0304)
 -->
<!-- Title: Data Structures and Preprocessor Macros Pages: 1 -->
<svg width="292pt" height="78pt"
 viewBox="0.00 0.00 292.00 77.50" xmlns="http://www.w3.org/2000/svg" xmlns:xlink="http://www.w3.org/1999/xlink">
<g id="graph0" class="graph" transform="scale(1 1) rotate(0) translate(4 73.5)">
<title>Data Structures and Preprocessor Macros</title>
<!-- Node0 -->
<g id="node1" class="node">
<title>Node0</title>
<polygon fill="#bfbfbf" stroke="#000000" points="0,-22.5 0,-52.5 113,-52.5 113,-22.5 0,-22.5"/>
<text text-anchor="start" x="8" y="-40.5" font-family="Helvetica,sans-Serif" font-size="10.00" fill="#000000">Data Structures and</text>
<text text-anchor="middle" x="56.5" y="-29.5" font-family="Helvetica,sans-Serif" font-size="10.00" fill="#000000"> Preprocessor Macros</text>
</g>
<!-- Node1 -->
<g id="node2" class="node">
<title>Node1</title>
<g id="a_node2"><a xlink:href="group__fold__compound.html" target="_top" xlink:title="This module provides interfaces that deal with the most basic data structure used in structure predic...">
<polygon fill="none" stroke="#000000" points="164.5,-50 164.5,-69 268.5,-69 268.5,-50 164.5,-50"/>
<text text-anchor="middle" x="216.5" y="-57" font-family="Helvetica,sans-Serif" font-size="10.00" fill="#000000">The Fold Compound</text>
</a>
</g>
</g>
<!-- Node0&#45;&gt;Node1 -->
<g id="edge1" class="edge">
<title>Node0&#45;&gt;Node1</title>
<path fill="none" stroke="#000000" d="M123.6399,-46.7317C137.2473,-48.6028 151.3646,-50.5439 164.3608,-52.3309"/>
<polygon fill="#000000" stroke="#000000" points="123.7441,-43.2132 113.3605,-45.3183 122.7905,-50.148 123.7441,-43.2132"/>
</g>
<!-- Node2 -->
<g id="node3" class="node">
<title>Node2</title>
<g id="a_node3"><a xlink:href="group__dp__matrices.html" target="_top" xlink:title="This module provides interfaces that deal with creation and destruction of dynamic programming matric...">
<polygon fill="none" stroke="#000000" points="149,-.5 149,-30.5 284,-30.5 284,-.5 149,-.5"/>
<text text-anchor="start" x="157" y="-18.5" font-family="Helvetica,sans-Serif" font-size="10.00" fill="#000000">The Dynamic Programming</text>
<text text-anchor="middle" x="216.5" y="-7.5" font-family="Helvetica,sans-Serif" font-size="10.00" fill="#000000"> Matrices</text>
</a>
</g>
</g>
<!-- Node0&#45;&gt;Node2 -->
<g id="edge2" class="edge">
<title>Node0&#45;&gt;Node2</title>
<path fill="none" stroke="#000000" d="M123.4798,-28.2903C131.8769,-27.1357 140.4706,-25.954 148.8775,-24.7981"/>
<polygon fill="#000000" stroke="#000000" points="122.7905,-24.852 113.3605,-29.6817 123.7441,-31.7868 122.7905,-24.852"/>
</g>
</g>
</svg>
