<?xml version="1.0" encoding="UTF-8" standalone="no"?>
<!DOCTYPE svg PUBLIC "-//W3C//DTD SVG 1.1//EN"
 "http://www.w3.org/Graphics/SVG/1.1/DTD/svg11.dtd">
<!-- Generated by graphviz version 2.40.1 (20161225.0304)
 -->
<!-- Title: ViennaRNA/hairpin_loops.h Pages: 1 -->
<svg width="1290pt" height="453pt"
 viewBox="0.00 0.00 1289.87 453.00" xmlns="http://www.w3.org/2000/svg" xmlns:xlink="http://www.w3.org/1999/xlink">
<g id="graph0" class="graph" transform="scale(1 1) rotate(0) translate(4 449)">
<title>ViennaRNA/hairpin_loops.h</title>
<!-- Node0 -->
<g id="node1" class="node">
<title>Node0</title>
<polygon fill="#bfbfbf" stroke="#000000" points="93,-425.5 93,-444.5 228,-444.5 228,-425.5 93,-425.5"/>
<text text-anchor="middle" x="160.5" y="-432.5" font-family="Helvetica,sans-Serif" font-size="10.00" fill="#000000">ViennaRNA/hairpin_loops.h</text>
</g>
<!-- Node1 -->
<g id="node2" class="node">
<title>Node1</title>
<polygon fill="none" stroke="#bfbfbf" points="18,-369.5 18,-388.5 65,-388.5 65,-369.5 18,-369.5"/>
<text text-anchor="middle" x="41.5" y="-376.5" font-family="Helvetica,sans-Serif" font-size="10.00" fill="#000000">math.h</text>
</g>
<!-- Node0&#45;&gt;Node1 -->
<g id="edge1" class="edge">
<title>Node0&#45;&gt;Node1</title>
<path fill="none" stroke="#191970" d="M140.0432,-425.3733C121.0262,-416.4241 92.4825,-402.9917 71.0024,-392.8835"/>
<polygon fill="#191970" stroke="#191970" points="72.2284,-389.5923 61.6899,-388.5011 69.2478,-395.926 72.2284,-389.5923"/>
</g>
<!-- Node2 -->
<g id="node3" class="node">
<title>Node2</title>
<polygon fill="none" stroke="#bfbfbf" points="83,-369.5 83,-388.5 132,-388.5 132,-369.5 83,-369.5"/>
<text text-anchor="middle" x="107.5" y="-376.5" font-family="Helvetica,sans-Serif" font-size="10.00" fill="#000000">string.h</text>
</g>
<!-- Node0&#45;&gt;Node2 -->
<g id="edge2" class="edge">
<title>Node0&#45;&gt;Node2</title>
<path fill="none" stroke="#191970" d="M151.2681,-425.2455C143.6683,-417.2155 132.7123,-405.6394 123.6632,-396.0781"/>
<polygon fill="#191970" stroke="#191970" points="126.042,-393.4998 116.6261,-388.6427 120.9579,-398.3115 126.042,-393.4998"/>
</g>
<!-- Node3 -->
<g id="node4" class="node">
<title>Node3</title>
<g id="a_node4"><a xlink:href="utils_8h.html" target="_top" xlink:title="General utility&#45; and helper&#45;functions used throughout the ViennaRNA Package. ">
<polygon fill="none" stroke="#000000" points="740.5,-369.5 740.5,-388.5 836.5,-388.5 836.5,-369.5 740.5,-369.5"/>
<text text-anchor="middle" x="788.5" y="-376.5" font-family="Helvetica,sans-Serif" font-size="10.00" fill="#000000">ViennaRNA/utils.h</text>
</a>
</g>
</g>
<!-- Node0&#45;&gt;Node3 -->
<g id="edge3" class="edge">
<title>Node0&#45;&gt;Node3</title>
<path fill="none" stroke="#191970" d="M228.0051,-428.9804C351.9319,-417.9296 613.6873,-394.5884 730.3106,-384.1889"/>
<polygon fill="#191970" stroke="#191970" points="730.8161,-387.6578 740.4657,-383.2833 730.1943,-380.6854 730.8161,-387.6578"/>
</g>
<!-- Node6 -->
<g id="node7" class="node">
<title>Node6</title>
<g id="a_node7"><a xlink:href="data__structures_8h.html" target="_top" xlink:title="Various data structures and pre&#45;processor macros. ">
<polygon fill="none" stroke="#000000" points="600.5,-257.5 600.5,-276.5 746.5,-276.5 746.5,-257.5 600.5,-257.5"/>
<text text-anchor="middle" x="673.5" y="-264.5" font-family="Helvetica,sans-Serif" font-size="10.00" fill="#000000">ViennaRNA/data_structures.h</text>
</a>
</g>
</g>
<!-- Node0&#45;&gt;Node6 -->
<g id="edge51" class="edge">
<title>Node0&#45;&gt;Node6</title>
<path fill="none" stroke="#191970" d="M189.551,-425.4862C276.7441,-396.9318 536.2378,-311.9514 634.871,-279.6504"/>
<polygon fill="#191970" stroke="#191970" points="636.0364,-282.9518 644.4505,-276.5133 633.8578,-276.2994 636.0364,-282.9518"/>
</g>
<!-- Node11 -->
<g id="node12" class="node">
<title>Node11</title>
<g id="a_node12"><a xlink:href="params_8h.html" target="_top" xlink:title="Functions to deal with sets of energy parameters. ">
<polygon fill="none" stroke="#000000" points="346.5,-129 346.5,-148 456.5,-148 456.5,-129 346.5,-129"/>
<text text-anchor="middle" x="401.5" y="-136" font-family="Helvetica,sans-Serif" font-size="10.00" fill="#000000">ViennaRNA/params.h</text>
</a>
</g>
</g>
<!-- Node0&#45;&gt;Node11 -->
<g id="edge52" class="edge">
<title>Node0&#45;&gt;Node11</title>
<path fill="none" stroke="#191970" d="M160.5,-425.4116C160.5,-406.0538 160.5,-360.9167 160.5,-323 160.5,-323 160.5,-323 160.5,-267 160.5,-222.2583 291.4686,-173.6504 360.3103,-151.1908"/>
<polygon fill="#191970" stroke="#191970" points="361.549,-154.469 369.9935,-148.0704 359.4019,-147.8064 361.549,-154.469"/>
</g>
<!-- Node4 -->
<g id="node5" class="node">
<title>Node4</title>
<polygon fill="none" stroke="#bfbfbf" points="1230.5,-129 1230.5,-148 1276.5,-148 1276.5,-129 1230.5,-129"/>
<text text-anchor="middle" x="1253.5" y="-136" font-family="Helvetica,sans-Serif" font-size="10.00" fill="#000000">stdio.h</text>
</g>
<!-- Node3&#45;&gt;Node4 -->
<g id="edge4" class="edge">
<title>Node3&#45;&gt;Node4</title>
<path fill="none" stroke="#191970" d="M836.7054,-370.877C949.3666,-350.7873 1224.2647,-294.9906 1275.5,-221 1288.8862,-201.6686 1277.2367,-174.6187 1266.4378,-156.8377"/>
<polygon fill="#191970" stroke="#191970" points="1269.0833,-154.4867 1260.6903,-148.0208 1263.2192,-158.3094 1269.0833,-154.4867"/>
</g>
<!-- Node5 -->
<g id="node6" class="node">
<title>Node5</title>
<polygon fill="none" stroke="#bfbfbf" points="818.5,-257.5 818.5,-276.5 870.5,-276.5 870.5,-257.5 818.5,-257.5"/>
<text text-anchor="middle" x="844.5" y="-264.5" font-family="Helvetica,sans-Serif" font-size="10.00" fill="#000000">stdarg.h</text>
</g>
<!-- Node3&#45;&gt;Node5 -->
<g id="edge5" class="edge">
<title>Node3&#45;&gt;Node5</title>
<path fill="none" stroke="#191970" d="M833.911,-369.4711C868.7926,-361.1225 912.7638,-348.0006 923.5,-333 939.4107,-310.7695 908.1023,-291.5414 880.3227,-279.6646"/>
<polygon fill="#191970" stroke="#191970" points="881.3096,-276.2882 870.7271,-275.7774 878.6813,-282.7761 881.3096,-276.2882"/>
</g>
<!-- Node3&#45;&gt;Node6 -->
<g id="edge6" class="edge">
<title>Node3&#45;&gt;Node6</title>
<path fill="none" stroke="#191970" d="M740.364,-369.581C704.0683,-361.3867 658.6906,-348.4219 647.5,-333 636.8383,-318.307 647.0751,-298.6522 657.6784,-284.6211"/>
<polygon fill="#191970" stroke="#191970" points="660.5282,-286.6649 664.1442,-276.7062 655.1071,-282.2363 660.5282,-286.6649"/>
</g>
<!-- Node22 -->
<g id="node23" class="node">
<title>Node22</title>
<g id="a_node23"><a xlink:href="structure__utils_8h.html" target="_top" xlink:title="Various utility&#45; and helper&#45;functions for secondary structure parsing, converting, etc. ">
<polygon fill="none" stroke="#000000" points="1158.5,-190.5 1158.5,-220.5 1266.5,-220.5 1266.5,-190.5 1158.5,-190.5"/>
<text text-anchor="start" x="1166.5" y="-208.5" font-family="Helvetica,sans-Serif" font-size="10.00" fill="#000000">ViennaRNA/structure</text>
<text text-anchor="middle" x="1212.5" y="-197.5" font-family="Helvetica,sans-Serif" font-size="10.00" fill="#000000">_utils.h</text>
</a>
</g>
</g>
<!-- Node3&#45;&gt;Node22 -->
<g id="edge47" class="edge">
<title>Node3&#45;&gt;Node22</title>
<path fill="none" stroke="#191970" d="M824.9865,-369.4443C855.875,-360.9859 901.1202,-347.7237 939.5,-333 1025.4784,-300.016 1122.3058,-252.103 1174.4031,-225.391"/>
<polygon fill="#191970" stroke="#191970" points="1176.3081,-228.347 1183.5976,-220.6584 1173.1045,-222.1231 1176.3081,-228.347"/>
</g>
<!-- Node23 -->
<g id="node24" class="node">
<title>Node23</title>
<g id="a_node24"><a xlink:href="string__utils_8h.html" target="_top" xlink:title="General utility&#45; and helper&#45;functions for RNA sequence and structure strings used throughout the Vien...">
<polygon fill="none" stroke="#000000" points="657,-313.5 657,-332.5 782,-332.5 782,-313.5 657,-313.5"/>
<text text-anchor="middle" x="719.5" y="-320.5" font-family="Helvetica,sans-Serif" font-size="10.00" fill="#000000">ViennaRNA/string_utils.h</text>
</a>
</g>
</g>
<!-- Node3&#45;&gt;Node23 -->
<g id="edge44" class="edge">
<title>Node3&#45;&gt;Node23</title>
<path fill="none" stroke="#191970" d="M776.4811,-369.2455C766.2902,-360.9746 751.4638,-348.9416 739.4893,-339.2232"/>
<polygon fill="#191970" stroke="#191970" points="741.3514,-336.2268 731.3812,-332.6427 736.9402,-341.662 741.3514,-336.2268"/>
</g>
<!-- Node24 -->
<g id="node25" class="node">
<title>Node24</title>
<g id="a_node25"><a xlink:href="file__utils_8h.html" target="_top" xlink:title="Several utilities for file handling. ">
<polygon fill="none" stroke="#000000" points="800.5,-313.5 800.5,-332.5 914.5,-332.5 914.5,-313.5 800.5,-313.5"/>
<text text-anchor="middle" x="857.5" y="-320.5" font-family="Helvetica,sans-Serif" font-size="10.00" fill="#000000">ViennaRNA/file_utils.h</text>
</a>
</g>
</g>
<!-- Node3&#45;&gt;Node24 -->
<g id="edge48" class="edge">
<title>Node3&#45;&gt;Node24</title>
<path fill="none" stroke="#191970" d="M800.5189,-369.2455C810.7098,-360.9746 825.5362,-348.9416 837.5107,-339.2232"/>
<polygon fill="#191970" stroke="#191970" points="840.0598,-341.662 845.6188,-332.6427 835.6486,-336.2268 840.0598,-341.662"/>
</g>
<!-- Node25 -->
<g id="node26" class="node">
<title>Node25</title>
<g id="a_node26"><a xlink:href="alphabet_8h.html" target="_top" xlink:title="Functions to process, convert, and generally handle different nucleotide and/or base pair alphabets...">
<polygon fill="none" stroke="#000000" points="0,-257.5 0,-276.5 115,-276.5 115,-257.5 0,-257.5"/>
<text text-anchor="middle" x="57.5" y="-264.5" font-family="Helvetica,sans-Serif" font-size="10.00" fill="#000000">ViennaRNA/alphabet.h</text>
</a>
</g>
</g>
<!-- Node3&#45;&gt;Node25 -->
<g id="edge49" class="edge">
<title>Node3&#45;&gt;Node25</title>
<path fill="none" stroke="#191970" d="M740.2543,-371.6081C613.6044,-352.2034 271.3723,-299.7684 125.1885,-277.3709"/>
<polygon fill="#191970" stroke="#191970" points="125.4225,-273.866 115.0078,-275.811 124.3623,-280.7852 125.4225,-273.866"/>
</g>
<!-- Node7 -->
<g id="node8" class="node">
<title>Node7</title>
<g id="a_node8"><a xlink:href="energy__const_8h.html" target="_top" xlink:title="Energy parameter constants. ">
<polygon fill="none" stroke="#000000" points="407,-62 407,-81 544,-81 544,-62 407,-62"/>
<text text-anchor="middle" x="475.5" y="-69" font-family="Helvetica,sans-Serif" font-size="10.00" fill="#000000">ViennaRNA/energy_const.h</text>
</a>
</g>
</g>
<!-- Node6&#45;&gt;Node7 -->
<g id="edge7" class="edge">
<title>Node6&#45;&gt;Node7</title>
<path fill="none" stroke="#191970" d="M672.1178,-257.4625C667.7546,-228.5879 653.4345,-142.8808 634.5,-123 619.9261,-107.6978 570.4639,-93.1367 530.5321,-83.427"/>
<polygon fill="#191970" stroke="#191970" points="531.1511,-79.9766 520.6124,-81.0655 529.5299,-86.7863 531.1511,-79.9766"/>
</g>
<!-- Node9 -->
<g id="node10" class="node">
<title>Node9</title>
<g id="a_node10"><a xlink:href="fold__compound_8h.html" target="_top" xlink:title="The Basic Fold Compound API. ">
<polygon fill="none" stroke="#000000" points="440.5,-196 440.5,-215 584.5,-215 584.5,-196 440.5,-196"/>
<text text-anchor="middle" x="512.5" y="-203" font-family="Helvetica,sans-Serif" font-size="10.00" fill="#000000">ViennaRNA/fold_compound.h</text>
</a>
</g>
</g>
<!-- Node6&#45;&gt;Node9 -->
<g id="edge9" class="edge">
<title>Node6&#45;&gt;Node9</title>
<path fill="none" stroke="#191970" d="M648.3438,-257.3906C621.051,-246.9652 577.308,-230.2559 546.8603,-218.6252"/>
<polygon fill="#191970" stroke="#191970" points="548.0702,-215.3408 537.4796,-215.0419 545.5723,-221.8799 548.0702,-215.3408"/>
</g>
<!-- Node10 -->
<g id="node11" class="node">
<title>Node10</title>
<g id="a_node11"><a xlink:href="model_8h.html" target="_top" xlink:title="The model details data structure and its corresponding modifiers. ">
<polygon fill="none" stroke="#000000" points="195.5,-62 195.5,-81 299.5,-81 299.5,-62 195.5,-62"/>
<text text-anchor="middle" x="247.5" y="-69" font-family="Helvetica,sans-Serif" font-size="10.00" fill="#000000">ViennaRNA/model.h</text>
</a>
</g>
</g>
<!-- Node6&#45;&gt;Node10 -->
<g id="edge34" class="edge">
<title>Node6&#45;&gt;Node10</title>
<path fill="none" stroke="#191970" d="M600.2037,-263.4547C531.9743,-258.6163 428.0804,-247.293 341.5,-221 276.262,-201.1884 239.6818,-211.7873 203.5,-154 189.68,-131.9276 210.4613,-105.1199 227.9036,-88.1803"/>
<polygon fill="#191970" stroke="#191970" points="230.56,-90.4922 235.5464,-81.1441 225.8188,-85.3423 230.56,-90.4922"/>
</g>
<!-- Node6&#45;&gt;Node11 -->
<g id="edge35" class="edge">
<title>Node6&#45;&gt;Node11</title>
<path fill="none" stroke="#191970" d="M600.2112,-261.7104C535.7513,-255.4791 448.4363,-243.0655 422.5,-221 404.0528,-205.3059 396.9479,-177.3046 396.3651,-158.3239"/>
<polygon fill="#191970" stroke="#191970" points="399.8711,-158.2377 396.7698,-148.107 392.8766,-157.9605 399.8711,-158.2377"/>
</g>
<!-- Node12 -->
<g id="node13" class="node">
<title>Node12</title>
<g id="a_node13"><a xlink:href="dp__matrices_8h.html" target="_top" xlink:title="Functions to deal with standard dynamic programming (DP) matrices. ">
<polygon fill="none" stroke="#000000" points="25,-129 25,-148 156,-148 156,-129 25,-129"/>
<text text-anchor="middle" x="90.5" y="-136" font-family="Helvetica,sans-Serif" font-size="10.00" fill="#000000">ViennaRNA/dp_matrices.h</text>
</a>
</g>
</g>
<!-- Node6&#45;&gt;Node12 -->
<g id="edge36" class="edge">
<title>Node6&#45;&gt;Node12</title>
<path fill="none" stroke="#191970" d="M600.1008,-263.0765C492.5119,-256.4869 297.8528,-241.8413 231.5,-221 182.8007,-205.7036 131.9302,-173.7982 106.4395,-154.4547"/>
<polygon fill="#191970" stroke="#191970" points="108.538,-151.652 98.5267,-148.1844 104.1905,-157.1383 108.538,-151.652"/>
</g>
<!-- Node13 -->
<g id="node14" class="node">
<title>Node13</title>
<g id="a_node14"><a xlink:href="constraints_8h.html" target="_top" xlink:title="Functions and data structures for constraining secondary structure predictions and evaluation...">
<polygon fill="none" stroke="#000000" points="720.5,-129 720.5,-148 846.5,-148 846.5,-129 720.5,-129"/>
<text text-anchor="middle" x="783.5" y="-136" font-family="Helvetica,sans-Serif" font-size="10.00" fill="#000000">ViennaRNA/constraints.h</text>
</a>
</g>
</g>
<!-- Node6&#45;&gt;Node13 -->
<g id="edge37" class="edge">
<title>Node6&#45;&gt;Node13</title>
<path fill="none" stroke="#191970" d="M677.9945,-257.3416C692.9419,-235.6672 737.7674,-182.9184 764.1251,-155.5719"/>
<polygon fill="#191970" stroke="#191970" points="766.8022,-157.8423 771.3442,-148.2705 761.8244,-152.9207 766.8022,-157.8423"/>
</g>
<!-- Node19 -->
<g id="node20" class="node">
<title>Node19</title>
<g id="a_node20"><a xlink:href="grammar_8h.html" target="_top" xlink:title="Implementations for the RNA folding grammar. ">
<polygon fill="none" stroke="#000000" points="212.5,-129 212.5,-148 328.5,-148 328.5,-129 212.5,-129"/>
<text text-anchor="middle" x="270.5" y="-136" font-family="Helvetica,sans-Serif" font-size="10.00" fill="#000000">ViennaRNA/grammar.h</text>
</a>
</g>
</g>
<!-- Node6&#45;&gt;Node19 -->
<g id="edge38" class="edge">
<title>Node6&#45;&gt;Node19</title>
<path fill="none" stroke="#191970" d="M600.2754,-262.2958C543.7987,-256.8179 464.7288,-245.2063 399.5,-221 355.1787,-204.5524 309.101,-173.7587 285.5956,-154.7998"/>
<polygon fill="#191970" stroke="#191970" points="287.6411,-151.946 277.7429,-148.1676 283.1244,-157.2939 287.6411,-151.946"/>
</g>
<!-- Node20 -->
<g id="node21" class="node">
<title>Node20</title>
<g id="a_node21"><a xlink:href="structured__domains_8h.html" target="_top" xlink:title="This module provides interfaces that deal with additional structured domains in the folding grammar...">
<polygon fill="none" stroke="#000000" points="513,-123.5 513,-153.5 626,-153.5 626,-123.5 513,-123.5"/>
<text text-anchor="start" x="521" y="-141.5" font-family="Helvetica,sans-Serif" font-size="10.00" fill="#000000">ViennaRNA/structured</text>
<text text-anchor="middle" x="569.5" y="-130.5" font-family="Helvetica,sans-Serif" font-size="10.00" fill="#000000">_domains.h</text>
</a>
</g>
</g>
<!-- Node6&#45;&gt;Node20 -->
<g id="edge39" class="edge">
<title>Node6&#45;&gt;Node20</title>
<path fill="none" stroke="#191970" d="M665.6831,-257.3416C649.345,-237.1547 611.1907,-190.012 588.1493,-161.5427"/>
<polygon fill="#191970" stroke="#191970" points="590.815,-159.2729 581.8033,-153.7016 585.3738,-163.6767 590.815,-159.2729"/>
</g>
<!-- Node21 -->
<g id="node22" class="node">
<title>Node21</title>
<g id="a_node22"><a xlink:href="unstructured__domains_8h.html" target="_top" xlink:title="Functions to modify unstructured domains, e.g. to incorporate ligands binding to unpaired stretches...">
<polygon fill="none" stroke="#000000" points="864.5,-123.5 864.5,-153.5 988.5,-153.5 988.5,-123.5 864.5,-123.5"/>
<text text-anchor="start" x="872.5" y="-141.5" font-family="Helvetica,sans-Serif" font-size="10.00" fill="#000000">ViennaRNA/unstructured</text>
<text text-anchor="middle" x="926.5" y="-130.5" font-family="Helvetica,sans-Serif" font-size="10.00" fill="#000000">_domains.h</text>
</a>
</g>
</g>
<!-- Node6&#45;&gt;Node21 -->
<g id="edge40" class="edge">
<title>Node6&#45;&gt;Node21</title>
<path fill="none" stroke="#191970" d="M688.7427,-257.3416C726.6127,-236.3316 825.0506,-186.123 882.7759,-158.1566"/>
<polygon fill="#191970" stroke="#191970" points="884.5315,-161.1959 892.0206,-153.7016 881.4926,-154.8899 884.5315,-161.1959"/>
</g>
<!-- Node6&#45;&gt;Node22 -->
<g id="edge41" class="edge">
<title>Node6&#45;&gt;Node22</title>
<path fill="none" stroke="#191970" d="M746.8326,-260.4932C857.6109,-250.9178 1062.2051,-232.8835 1135.5,-221 1139.6684,-220.3242 1143.963,-219.5448 1148.2949,-218.7027"/>
<polygon fill="#191970" stroke="#191970" points="1149.326,-222.0648 1158.4284,-216.643 1147.9316,-215.205 1149.326,-222.0648"/>
</g>
<!-- Node8 -->
<g id="node9" class="node">
<title>Node8</title>
<polygon fill="none" stroke="#bfbfbf" points="451.5,-.5 451.5,-19.5 499.5,-19.5 499.5,-.5 451.5,-.5"/>
<text text-anchor="middle" x="475.5" y="-7.5" font-family="Helvetica,sans-Serif" font-size="10.00" fill="#000000">limits.h</text>
</g>
<!-- Node7&#45;&gt;Node8 -->
<g id="edge8" class="edge">
<title>Node7&#45;&gt;Node8</title>
<path fill="none" stroke="#191970" d="M475.5,-61.8906C475.5,-53.3657 475.5,-40.6392 475.5,-29.9235"/>
<polygon fill="#191970" stroke="#191970" points="479.0001,-29.7448 475.5,-19.7449 472.0001,-29.7449 479.0001,-29.7448"/>
</g>
<!-- Node9&#45;&gt;Node10 -->
<g id="edge10" class="edge">
<title>Node9&#45;&gt;Node10</title>
<path fill="none" stroke="#191970" d="M509.8238,-195.8935C504.4634,-178.5039 490.7072,-141.8649 465.5,-123 441.1353,-104.7657 365.0814,-89.5781 309.6466,-80.5272"/>
<polygon fill="#191970" stroke="#191970" points="309.9807,-77.0362 299.5527,-78.9093 308.8727,-83.9479 309.9807,-77.0362"/>
</g>
<!-- Node9&#45;&gt;Node11 -->
<g id="edge11" class="edge">
<title>Node9&#45;&gt;Node11</title>
<path fill="none" stroke="#191970" d="M496.5964,-195.9005C478.133,-184.7559 447.4701,-166.2477 425.9668,-153.2682"/>
<polygon fill="#191970" stroke="#191970" points="427.7441,-150.2529 417.3741,-148.0817 424.1267,-156.2458 427.7441,-150.2529"/>
</g>
<!-- Node9&#45;&gt;Node12 -->
<g id="edge15" class="edge">
<title>Node9&#45;&gt;Node12</title>
<path fill="none" stroke="#191970" d="M452.4859,-195.9717C375.5637,-183.7589 242.4205,-162.6201 160.8264,-149.6656"/>
<polygon fill="#191970" stroke="#191970" points="161.0735,-146.161 150.6484,-148.0496 159.9758,-153.0744 161.0735,-146.161"/>
</g>
<!-- Node9&#45;&gt;Node13 -->
<g id="edge17" class="edge">
<title>Node9&#45;&gt;Node13</title>
<path fill="none" stroke="#191970" d="M551.0399,-195.9717C599.3631,-184.0246 682.2364,-163.5357 734.8716,-150.5225"/>
<polygon fill="#191970" stroke="#191970" points="735.7866,-153.9018 744.6543,-148.1039 734.1065,-147.1064 735.7866,-153.9018"/>
</g>
<!-- Node9&#45;&gt;Node19 -->
<g id="edge29" class="edge">
<title>Node9&#45;&gt;Node19</title>
<path fill="none" stroke="#191970" d="M478.0843,-195.9717C435.2911,-184.124 362.156,-163.8758 315.1028,-150.8487"/>
<polygon fill="#191970" stroke="#191970" points="315.7602,-147.3991 305.1888,-148.1039 313.8923,-154.1453 315.7602,-147.3991"/>
</g>
<!-- Node9&#45;&gt;Node20 -->
<g id="edge31" class="edge">
<title>Node9&#45;&gt;Node20</title>
<path fill="none" stroke="#191970" d="M520.6667,-195.9005C528.3202,-186.9043 540.0557,-173.1099 550.1041,-161.2986"/>
<polygon fill="#191970" stroke="#191970" points="552.9063,-163.4063 556.7203,-153.5218 547.5747,-158.8704 552.9063,-163.4063"/>
</g>
<!-- Node9&#45;&gt;Node21 -->
<g id="edge32" class="edge">
<title>Node9&#45;&gt;Node21</title>
<path fill="none" stroke="#191970" d="M584.6669,-196.0727C651.9944,-186.9562 755.4441,-172.1309 854.3453,-154.1488"/>
<polygon fill="#191970" stroke="#191970" points="855.0031,-157.5866 864.2088,-152.342 853.7418,-150.7012 855.0031,-157.5866"/>
</g>
<!-- Node11&#45;&gt;Node6 -->
<g id="edge13" class="edge">
<title>Node11&#45;&gt;Node6</title>
<path fill="none" stroke="#191970" d="M407.2941,-148.107C412.5415,-165.4973 418.3287,-202.1376 440.5,-221 463.2004,-240.3125 532.9192,-252.2313 590.2755,-259.0826"/>
<polygon fill="#191970" stroke="#191970" points="590.1239,-262.5884 600.4602,-260.2624 590.9294,-255.6349 590.1239,-262.5884"/>
</g>
<!-- Node11&#45;&gt;Node7 -->
<g id="edge12" class="edge">
<title>Node11&#45;&gt;Node7</title>
<path fill="none" stroke="#191970" d="M412.1024,-128.9005C423.8619,-118.2535 443.0443,-100.8856 457.2336,-88.0385"/>
<polygon fill="#191970" stroke="#191970" points="459.8534,-90.388 464.9173,-81.0817 455.1551,-85.1989 459.8534,-90.388"/>
</g>
<!-- Node11&#45;&gt;Node10 -->
<g id="edge14" class="edge">
<title>Node11&#45;&gt;Node10</title>
<path fill="none" stroke="#191970" d="M379.4356,-128.9005C353.1335,-117.4574 308.9872,-98.2509 279.0755,-85.2374"/>
<polygon fill="#191970" stroke="#191970" points="280.0896,-81.8617 269.5235,-81.0817 277.297,-88.2806 280.0896,-81.8617"/>
</g>
<!-- Node12&#45;&gt;Node6 -->
<g id="edge16" class="edge">
<title>Node12&#45;&gt;Node6</title>
<path fill="none" stroke="#191970" d="M108.9329,-148.1844C137.9044,-166.0438 195.0588,-203.9001 249.5,-221 311.446,-240.4572 485.2216,-254.5142 590.1371,-261.6575"/>
<polygon fill="#191970" stroke="#191970" points="590.1695,-265.1675 600.3823,-262.3481 590.6404,-258.1834 590.1695,-265.1675"/>
</g>
<!-- Node13&#45;&gt;Node6 -->
<g id="edge18" class="edge">
<title>Node13&#45;&gt;Node6</title>
<path fill="none" stroke="#191970" d="M778.9281,-148.2705C763.8782,-170.0516 719.0332,-222.81 692.7391,-250.069"/>
<polygon fill="#191970" stroke="#191970" points="690.0881,-247.772 685.5413,-257.3416 695.0634,-252.6961 690.0881,-247.772"/>
</g>
<!-- Node14 -->
<g id="node15" class="node">
<title>Node14</title>
<g id="a_node15"><a xlink:href="constraints__hard_8h.html" target="_top" xlink:title="Functions and data structures for handling of secondary structure hard constraints. ">
<polygon fill="none" stroke="#000000" points="742.5,-56.5 742.5,-86.5 860.5,-86.5 860.5,-56.5 742.5,-56.5"/>
<text text-anchor="start" x="750.5" y="-74.5" font-family="Helvetica,sans-Serif" font-size="10.00" fill="#000000">ViennaRNA/constraints</text>
<text text-anchor="middle" x="801.5" y="-63.5" font-family="Helvetica,sans-Serif" font-size="10.00" fill="#000000">_hard.h</text>
</a>
</g>
</g>
<!-- Node13&#45;&gt;Node14 -->
<g id="edge19" class="edge">
<title>Node13&#45;&gt;Node14</title>
<path fill="none" stroke="#191970" d="M786.079,-128.9005C788.3564,-120.4234 791.7785,-107.6856 794.8208,-96.3614"/>
<polygon fill="#191970" stroke="#191970" points="798.2498,-97.0874 797.4643,-86.5218 791.4895,-95.2712 798.2498,-97.0874"/>
</g>
<!-- Node15 -->
<g id="node16" class="node">
<title>Node15</title>
<g id="a_node16"><a xlink:href="constraints__soft_8h.html" target="_top" xlink:title="Functions and data structures for secondary structure soft constraints. ">
<polygon fill="none" stroke="#000000" points="878.5,-56.5 878.5,-86.5 996.5,-86.5 996.5,-56.5 878.5,-56.5"/>
<text text-anchor="start" x="886.5" y="-74.5" font-family="Helvetica,sans-Serif" font-size="10.00" fill="#000000">ViennaRNA/constraints</text>
<text text-anchor="middle" x="937.5" y="-63.5" font-family="Helvetica,sans-Serif" font-size="10.00" fill="#000000">_soft.h</text>
</a>
</g>
</g>
<!-- Node13&#45;&gt;Node15 -->
<g id="edge21" class="edge">
<title>Node13&#45;&gt;Node15</title>
<path fill="none" stroke="#191970" d="M805.5644,-128.9005C828.4293,-118.9528 864.7793,-103.1382 893.5401,-90.6254"/>
<polygon fill="#191970" stroke="#191970" points="895.1989,-93.7207 902.9724,-86.5218 892.4063,-87.3018 895.1989,-93.7207"/>
</g>
<!-- Node16 -->
<g id="node17" class="node">
<title>Node16</title>
<g id="a_node17"><a xlink:href="constraints__SHAPE_8h.html" target="_top" xlink:title="This module provides function to incorporate SHAPE reactivity data into the folding recursions by mea...">
<polygon fill="none" stroke="#000000" points="1014.5,-56.5 1014.5,-86.5 1132.5,-86.5 1132.5,-56.5 1014.5,-56.5"/>
<text text-anchor="start" x="1022.5" y="-74.5" font-family="Helvetica,sans-Serif" font-size="10.00" fill="#000000">ViennaRNA/constraints</text>
<text text-anchor="middle" x="1073.5" y="-63.5" font-family="Helvetica,sans-Serif" font-size="10.00" fill="#000000">_SHAPE.h</text>
</a>
</g>
</g>
<!-- Node13&#45;&gt;Node16 -->
<g id="edge23" class="edge">
<title>Node13&#45;&gt;Node16</title>
<path fill="none" stroke="#191970" d="M824.742,-128.9717C871.505,-118.1678 948.5035,-100.3785 1004.4652,-87.4494"/>
<polygon fill="#191970" stroke="#191970" points="1005.3512,-90.837 1014.3067,-85.1757 1003.7754,-84.0166 1005.3512,-90.837"/>
</g>
<!-- Node17 -->
<g id="node18" class="node">
<title>Node17</title>
<g id="a_node18"><a xlink:href="perturbation__fold_8h.html" target="_top" xlink:title="Find a vector of perturbation energies that minimizes the discripancies between predicted and observe...">
<polygon fill="none" stroke="#000000" points="1151,-56.5 1151,-86.5 1272,-86.5 1272,-56.5 1151,-56.5"/>
<text text-anchor="start" x="1159" y="-74.5" font-family="Helvetica,sans-Serif" font-size="10.00" fill="#000000">ViennaRNA/perturbation</text>
<text text-anchor="middle" x="1211.5" y="-63.5" font-family="Helvetica,sans-Serif" font-size="10.00" fill="#000000">_fold.h</text>
</a>
</g>
</g>
<!-- Node13&#45;&gt;Node17 -->
<g id="edge25" class="edge">
<title>Node13&#45;&gt;Node17</title>
<path fill="none" stroke="#191970" d="M824.8811,-128.9485C834.8734,-126.8203 845.542,-124.6953 855.5,-123 978.5902,-102.0445 1013.5072,-108.5163 1140.7276,-87.0253"/>
<polygon fill="#191970" stroke="#191970" points="1141.5971,-90.4274 1150.8618,-85.2877 1140.4141,-83.528 1141.5971,-90.4274"/>
</g>
<!-- Node18 -->
<g id="node19" class="node">
<title>Node18</title>
<g id="a_node19"><a xlink:href="constraints__ligand_8h.html" target="_top" xlink:title="Functions for incorporation of ligands binding to hairpin and interior loop motifs using the soft con...">
<polygon fill="none" stroke="#000000" points="606.5,-56.5 606.5,-86.5 724.5,-86.5 724.5,-56.5 606.5,-56.5"/>
<text text-anchor="start" x="614.5" y="-74.5" font-family="Helvetica,sans-Serif" font-size="10.00" fill="#000000">ViennaRNA/constraints</text>
<text text-anchor="middle" x="665.5" y="-63.5" font-family="Helvetica,sans-Serif" font-size="10.00" fill="#000000">_ligand.h</text>
</a>
</g>
</g>
<!-- Node13&#45;&gt;Node18 -->
<g id="edge27" class="edge">
<title>Node13&#45;&gt;Node18</title>
<path fill="none" stroke="#191970" d="M766.5935,-128.9005C749.5307,-119.2123 722.6672,-103.9593 700.9198,-91.6113"/>
<polygon fill="#191970" stroke="#191970" points="702.3804,-88.4158 691.9562,-86.5218 698.9241,-94.503 702.3804,-88.4158"/>
</g>
<!-- Node14&#45;&gt;Node6 -->
<g id="edge20" class="edge">
<title>Node14&#45;&gt;Node6</title>
<path fill="none" stroke="#191970" d="M860.6549,-85.1962C916.7683,-98.4692 993.176,-117.3931 997.5,-123 1005.9139,-133.9103 1005.3512,-142.6781 997.5,-154 966.5913,-198.5721 815.7187,-236.9094 731.1864,-255.3294"/>
<polygon fill="#191970" stroke="#191970" points="730.2579,-251.949 721.219,-257.4761 731.7317,-258.7921 730.2579,-251.949"/>
</g>
<!-- Node15&#45;&gt;Node6 -->
<g id="edge22" class="edge">
<title>Node15&#45;&gt;Node6</title>
<path fill="none" stroke="#191970" d="M974.3172,-86.5313C989.6468,-94.8476 1005.8611,-106.8289 1014.5,-123 1020.9921,-135.1524 1020.9301,-141.8147 1014.5,-154 989.8761,-200.6633 965.2316,-200.7755 916.5,-221 865.6851,-242.0891 804.8601,-253.5911 756.7763,-259.8199"/>
<polygon fill="#191970" stroke="#191970" points="756.2091,-256.3634 746.7174,-261.0705 757.0728,-263.3099 756.2091,-256.3634"/>
</g>
<!-- Node16&#45;&gt;Node6 -->
<g id="edge24" class="edge">
<title>Node16&#45;&gt;Node6</title>
<path fill="none" stroke="#191970" d="M1067.9604,-86.5668C1055.3345,-118.3923 1021.0631,-191.9221 964.5,-221 929.2003,-239.1468 829.7474,-252.1975 756.9012,-259.6613"/>
<polygon fill="#191970" stroke="#191970" points="756.4074,-256.1933 746.8083,-260.6774 757.1086,-263.158 756.4074,-256.1933"/>
</g>
<!-- Node17&#45;&gt;Node6 -->
<g id="edge26" class="edge">
<title>Node17&#45;&gt;Node6</title>
<path fill="none" stroke="#191970" d="M1195.6202,-86.6822C1162.0977,-117.7399 1080.3535,-188.3475 997.5,-221 954.9842,-237.7554 837.96,-251.6173 756.8578,-259.6059"/>
<polygon fill="#191970" stroke="#191970" points="756.2714,-256.1463 746.6574,-260.5984 756.9494,-263.1134 756.2714,-256.1463"/>
</g>
<!-- Node18&#45;&gt;Node6 -->
<g id="edge28" class="edge">
<title>Node18&#45;&gt;Node6</title>
<path fill="none" stroke="#191970" d="M666.4868,-86.8187C667.1231,-97.0586 667.9345,-110.8328 668.5,-123 670.5621,-167.3636 672.1688,-219.4519 672.96,-247.2135"/>
<polygon fill="#191970" stroke="#191970" points="669.4615,-247.3208 673.2396,-257.2191 676.4588,-247.1252 669.4615,-247.3208"/>
</g>
<!-- Node19&#45;&gt;Node6 -->
<g id="edge30" class="edge">
<title>Node19&#45;&gt;Node6</title>
<path fill="none" stroke="#191970" d="M288.2672,-148.1676C315.2992,-165.6566 367.5165,-202.4512 417.5,-221 473.3166,-241.7135 539.2681,-253.2047 590.3019,-259.5219"/>
<polygon fill="#191970" stroke="#191970" points="589.9575,-263.0056 600.3024,-260.7176 590.7886,-256.0551 589.9575,-263.0056"/>
</g>
<!-- Node21&#45;&gt;Node6 -->
<g id="edge33" class="edge">
<title>Node21&#45;&gt;Node6</title>
<path fill="none" stroke="#191970" d="M901.1193,-153.7016C854.6394,-178.8232 756.512,-228.6383 705.5323,-252.9685"/>
<polygon fill="#191970" stroke="#191970" points="703.8319,-249.901 696.2895,-257.3416 706.8257,-256.2285 703.8319,-249.901"/>
</g>
<!-- Node22&#45;&gt;Node4 -->
<g id="edge42" class="edge">
<title>Node22&#45;&gt;Node4</title>
<path fill="none" stroke="#191970" d="M1221.8035,-190.2967C1227.8814,-180.3645 1235.8534,-167.3371 1242.2819,-156.8321"/>
<polygon fill="#191970" stroke="#191970" points="1245.4186,-158.4115 1247.6529,-148.055 1239.4478,-154.7578 1245.4186,-158.4115"/>
</g>
<!-- Node22&#45;&gt;Node6 -->
<g id="edge43" class="edge">
<title>Node22&#45;&gt;Node6</title>
<path fill="none" stroke="#191970" d="M1158.2071,-220.2032C1156.6251,-220.4818 1155.0538,-220.7481 1153.5,-221 1079.8182,-232.9462 873.4473,-251.1084 756.6498,-260.6441"/>
<polygon fill="#191970" stroke="#191970" points="756.3545,-257.1565 746.6711,-261.4556 756.9219,-264.1335 756.3545,-257.1565"/>
</g>
<!-- Node23&#45;&gt;Node5 -->
<g id="edge45" class="edge">
<title>Node23&#45;&gt;Node5</title>
<path fill="none" stroke="#191970" d="M740.9883,-313.3733C761.144,-304.3435 791.488,-290.7494 814.118,-280.6111"/>
<polygon fill="#191970" stroke="#191970" points="815.5971,-283.7838 823.2921,-276.5011 812.7351,-277.3955 815.5971,-283.7838"/>
</g>
<!-- Node23&#45;&gt;Node6 -->
<g id="edge46" class="edge">
<title>Node23&#45;&gt;Node6</title>
<path fill="none" stroke="#191970" d="M711.4874,-313.2455C705.0232,-305.3761 695.7615,-294.101 688.0017,-284.6542"/>
<polygon fill="#191970" stroke="#191970" points="690.4727,-282.1484 681.4208,-276.6427 685.0636,-286.5916 690.4727,-282.1484"/>
</g>
<!-- Node25&#45;&gt;Node10 -->
<g id="edge50" class="edge">
<title>Node25&#45;&gt;Node10</title>
<path fill="none" stroke="#191970" d="M49.4773,-257.4547C29.5817,-232.5878 -18.0724,-164.8422 15.5,-123 36.4426,-96.8988 124.0002,-83.1975 185.34,-76.6618"/>
<polygon fill="#191970" stroke="#191970" points="185.7347,-80.1398 195.3246,-75.636 185.0192,-73.1765 185.7347,-80.1398"/>
</g>
</g>
</svg>
