<?xml version="1.0" encoding="UTF-8" standalone="no"?>
<!DOCTYPE svg PUBLIC "-//W3C//DTD SVG 1.1//EN"
 "http://www.w3.org/Graphics/SVG/1.1/DTD/svg11.dtd">
<!-- Generated by graphviz version 2.40.1 (20161225.0304)
 -->
<!-- Title: ViennaRNA/interior_loops.h Pages: 1 -->
<!--zoomable 464 -->
<svg id="main" version="1.1" xmlns="http://www.w3.org/2000/svg" xmlns:xlink="http://www.w3.org/1999/xlink" xml:space="preserve" onload="init(evt)">
<style type="text/css"><![CDATA[
.edge:hover path { stroke: red; }
.edge:hover polygon { stroke: red; fill: red; }
]]></style>
<script type="text/javascript"><![CDATA[
var edges = document.getElementsByTagName('g');
if (edges && edges.length) {
  for (var i=0;i<edges.length;i++) {
    if (edges[i].id.substr(0,4)=='edge') {
      edges[i].setAttribute('class','edge');
    }
  }
}
]]></script>
        <defs>
                <circle id="rim" cx="0" cy="0" r="7"/>
                <circle id="rim2" cx="0" cy="0" r="3.5"/>
                <g id="zoomPlus">
                        <use xlink:href="#rim" fill="#404040">
                                <set attributeName="fill" to="#808080" begin="zoomplus.mouseover" end="zoomplus.mouseout"/>
                        </use>
                        <path d="M-4,0h8M0,-4v8" fill="none" stroke="white" stroke-width="1.5" pointer-events="none"/>
                </g>
                <g id="zoomMin">
                        <use xlink:href="#rim" fill="#404040">
                                <set attributeName="fill" to="#808080" begin="zoomminus.mouseover" end="zoomminus.mouseout"/>
                        </use>
                        <path d="M-4,0h8" fill="none" stroke="white" stroke-width="1.5" pointer-events="none"/>
                </g>
                <g id="dirArrow">
                        <path fill="none" stroke="white" stroke-width="1.5" d="M0,-3.0v7 M-2.5,-0.5L0,-3.0L2.5,-0.5"/>
                </g>
               <g id="resetDef">
                       <use xlink:href="#rim2" fill="#404040">
                               <set attributeName="fill" to="#808080" begin="reset.mouseover" end="reset.mouseout"/>
                       </use>
               </g>
        </defs>

<script type="text/javascript">
var viewWidth = 1351;
var viewHeight = 464;
var sectionId = 'dynsection-0';
</script>
<script xlink:href="svgpan.js"/>
<svg id="graph" class="graph">
<g id="viewport">
<title>ViennaRNA/interior_loops.h</title>
<!-- Node0 -->
<g id="node1" class="node">
<title>Node0</title>
<polygon fill="#bfbfbf" stroke="#000000" points="516.5,-425.5 516.5,-455.5 615.5,-455.5 615.5,-425.5 516.5,-425.5"/>
<text text-anchor="start" x="524.5" y="-443.5" font-family="Helvetica,sans-Serif" font-size="10.00" fill="#000000">ViennaRNA/interior</text>
<text text-anchor="middle" x="566" y="-432.5" font-family="Helvetica,sans-Serif" font-size="10.00" fill="#000000">_loops.h</text>
</g>
<!-- Node1 -->
<g id="node2" class="node">
<title>Node1</title>
<g id="a_node2"><a xlink:href="utils_8h.html" target="_top" xlink:title="General utility&#45; and helper&#45;functions used throughout the ViennaRNA Package. ">
<polygon fill="none" stroke="#000000" points="754,-369.5 754,-388.5 850,-388.5 850,-369.5 754,-369.5"/>
<text text-anchor="middle" x="802" y="-376.5" font-family="Helvetica,sans-Serif" font-size="10.00" fill="#000000">ViennaRNA/utils.h</text>
</a>
</g>
</g>
<!-- Node0&#45;&gt;Node1 -->
<g id="edge1" class="edge">
<title>Node0&#45;&gt;Node1</title>
<path fill="none" stroke="#191970" d="M615.7612,-427.5326C657.0265,-416.7791 715.2555,-401.605 755.5712,-391.099"/>
<polygon fill="#191970" stroke="#191970" points="756.6195,-394.4428 765.4137,-388.5341 754.8543,-387.669 756.6195,-394.4428"/>
</g>
<!-- Node4 -->
<g id="node5" class="node">
<title>Node4</title>
<g id="a_node5"><a xlink:href="data__structures_8h.html" target="_top" xlink:title="Various data structures and pre&#45;processor macros. ">
<polygon fill="none" stroke="#000000" points="686,-257.5 686,-276.5 832,-276.5 832,-257.5 686,-257.5"/>
<text text-anchor="middle" x="759" y="-264.5" font-family="Helvetica,sans-Serif" font-size="10.00" fill="#000000">ViennaRNA/data_structures.h</text>
</a>
</g>
</g>
<!-- Node0&#45;&gt;Node4 -->
<g id="edge51" class="edge">
<title>Node0&#45;&gt;Node4</title>
<path fill="none" stroke="#191970" d="M574.0384,-425.238C588.4092,-399.1968 620.7992,-345.8192 661,-313 678.4371,-298.7647 701.008,-287.781 720.0927,-280.122"/>
<polygon fill="#191970" stroke="#191970" points="721.3534,-283.3872 729.4257,-276.5252 718.836,-276.8555 721.3534,-283.3872"/>
</g>
<!-- Node9 -->
<g id="node10" class="node">
<title>Node9</title>
<g id="a_node10"><a xlink:href="params_8h.html" target="_top" xlink:title="Functions to deal with sets of energy parameters. ">
<polygon fill="none" stroke="#000000" points="138,-129 138,-148 248,-148 248,-129 138,-129"/>
<text text-anchor="middle" x="193" y="-136" font-family="Helvetica,sans-Serif" font-size="10.00" fill="#000000">ViennaRNA/params.h</text>
</a>
</g>
</g>
<!-- Node0&#45;&gt;Node9 -->
<g id="edge52" class="edge">
<title>Node0&#45;&gt;Node9</title>
<path fill="none" stroke="#191970" d="M516.1924,-435.8099C412.2914,-424.6463 182,-392.1078 182,-323 182,-323 182,-323 182,-267 182,-228.3604 186.9986,-183.4227 190.2566,-158.2364"/>
<polygon fill="#191970" stroke="#191970" points="193.7493,-158.5237 191.6068,-148.1477 186.8111,-157.595 193.7493,-158.5237"/>
</g>
<!-- Node11 -->
<g id="node12" class="node">
<title>Node11</title>
<g id="a_node12"><a xlink:href="constraints_8h.html" target="_top" xlink:title="Functions and data structures for constraining secondary structure predictions and evaluation...">
<polygon fill="none" stroke="#000000" points="1014,-129 1014,-148 1140,-148 1140,-129 1014,-129"/>
<text text-anchor="middle" x="1077" y="-136" font-family="Helvetica,sans-Serif" font-size="10.00" fill="#000000">ViennaRNA/constraints.h</text>
</a>
</g>
</g>
<!-- Node0&#45;&gt;Node11 -->
<g id="edge53" class="edge">
<title>Node0&#45;&gt;Node11</title>
<path fill="none" stroke="#191970" d="M615.6975,-438.1905C786.2068,-429.6144 1337,-396.2428 1337,-323 1337,-323 1337,-323 1337,-267 1337,-231.7513 1343.3127,-214.5303 1318,-190 1294.389,-167.1189 1212.2625,-153.1492 1150.3923,-145.638"/>
<polygon fill="#191970" stroke="#191970" points="1150.6024,-142.1386 1140.2613,-144.4432 1149.7825,-149.0904 1150.6024,-142.1386"/>
</g>
<!-- Node24 -->
<g id="node25" class="node">
<title>Node24</title>
<g id="a_node25"><a xlink:href="energy__par_8h_source.html" target="_top" xlink:title="ViennaRNA/energy_par.h">
<polygon fill="none" stroke="#000000" points="0,-369.5 0,-388.5 126,-388.5 126,-369.5 0,-369.5"/>
<text text-anchor="middle" x="63" y="-376.5" font-family="Helvetica,sans-Serif" font-size="10.00" fill="#000000">ViennaRNA/energy_par.h</text>
</a>
</g>
</g>
<!-- Node0&#45;&gt;Node24 -->
<g id="edge49" class="edge">
<title>Node0&#45;&gt;Node24</title>
<path fill="none" stroke="#191970" d="M516.3938,-434.4348C427.4048,-423.5545 240.2622,-400.6732 136.3894,-387.9731"/>
<polygon fill="#191970" stroke="#191970" points="136.6472,-384.4786 126.2963,-386.739 135.7976,-391.4269 136.6472,-384.4786"/>
</g>
<!-- Node2 -->
<g id="node3" class="node">
<title>Node2</title>
<polygon fill="none" stroke="#bfbfbf" points="1265,-129 1265,-148 1311,-148 1311,-129 1265,-129"/>
<text text-anchor="middle" x="1288" y="-136" font-family="Helvetica,sans-Serif" font-size="10.00" fill="#000000">stdio.h</text>
</g>
<!-- Node1&#45;&gt;Node2 -->
<g id="edge2" class="edge">
<title>Node1&#45;&gt;Node2</title>
<path fill="none" stroke="#191970" d="M850.3443,-371.7156C967.765,-352.919 1262.4432,-298.7539 1318,-221 1332.2388,-201.0723 1316.7789,-173.6533 1303.2958,-156.001"/>
<polygon fill="#191970" stroke="#191970" points="1305.988,-153.764 1296.9744,-148.1956 1300.5481,-158.1695 1305.988,-153.764"/>
</g>
<!-- Node3 -->
<g id="node4" class="node">
<title>Node3</title>
<polygon fill="none" stroke="#bfbfbf" points="616,-257.5 616,-276.5 668,-276.5 668,-257.5 616,-257.5"/>
<text text-anchor="middle" x="642" y="-264.5" font-family="Helvetica,sans-Serif" font-size="10.00" fill="#000000">stdarg.h</text>
</g>
<!-- Node1&#45;&gt;Node3 -->
<g id="edge3" class="edge">
<title>Node1&#45;&gt;Node3</title>
<path fill="none" stroke="#191970" d="M758.1815,-369.4489C722.0628,-360.7444 674.6376,-347.1242 661,-333 649.1201,-320.6962 644.5881,-301.4601 642.8994,-286.9228"/>
<polygon fill="#191970" stroke="#191970" points="646.3847,-286.5988 642.0877,-276.9145 639.4076,-287.1647 646.3847,-286.5988"/>
</g>
<!-- Node1&#45;&gt;Node4 -->
<g id="edge4" class="edge">
<title>Node1&#45;&gt;Node4</title>
<path fill="none" stroke="#191970" d="M850.1564,-372.9594C898.8807,-364.8261 963.5163,-347.24 937,-313 924.723,-297.147 881.6221,-285.7748 840.9102,-278.3037"/>
<polygon fill="#191970" stroke="#191970" points="841.3638,-274.8297 830.9071,-276.5349 840.1449,-281.7228 841.3638,-274.8297"/>
</g>
<!-- Node20 -->
<g id="node21" class="node">
<title>Node20</title>
<g id="a_node21"><a xlink:href="structure__utils_8h.html" target="_top" xlink:title="Various utility&#45; and helper&#45;functions for secondary structure parsing, converting, etc. ">
<polygon fill="none" stroke="#000000" points="1201,-190.5 1201,-220.5 1309,-220.5 1309,-190.5 1201,-190.5"/>
<text text-anchor="start" x="1209" y="-208.5" font-family="Helvetica,sans-Serif" font-size="10.00" fill="#000000">ViennaRNA/structure</text>
<text text-anchor="middle" x="1255" y="-197.5" font-family="Helvetica,sans-Serif" font-size="10.00" fill="#000000">_utils.h</text>
</a>
</g>
</g>
<!-- Node1&#45;&gt;Node20 -->
<g id="edge45" class="edge">
<title>Node1&#45;&gt;Node20</title>
<path fill="none" stroke="#191970" d="M837.3649,-369.4546C868.3967,-360.8052 914.594,-347.2626 954,-333 1048.2755,-298.878 1155.7791,-251.131 1213.3561,-224.8144"/>
<polygon fill="#191970" stroke="#191970" points="1214.8649,-227.973 1222.497,-220.6245 1211.9481,-221.6097 1214.8649,-227.973"/>
</g>
<!-- Node21 -->
<g id="node22" class="node">
<title>Node21</title>
<g id="a_node22"><a xlink:href="string__utils_8h.html" target="_top" xlink:title="General utility&#45; and helper&#45;functions for RNA sequence and structure strings used throughout the Vien...">
<polygon fill="none" stroke="#000000" points="670.5,-313.5 670.5,-332.5 795.5,-332.5 795.5,-313.5 670.5,-313.5"/>
<text text-anchor="middle" x="733" y="-320.5" font-family="Helvetica,sans-Serif" font-size="10.00" fill="#000000">ViennaRNA/string_utils.h</text>
</a>
</g>
</g>
<!-- Node1&#45;&gt;Node21 -->
<g id="edge42" class="edge">
<title>Node1&#45;&gt;Node21</title>
<path fill="none" stroke="#191970" d="M789.9811,-369.2455C779.7902,-360.9746 764.9638,-348.9416 752.9893,-339.2232"/>
<polygon fill="#191970" stroke="#191970" points="754.8514,-336.2268 744.8812,-332.6427 750.4402,-341.662 754.8514,-336.2268"/>
</g>
<!-- Node22 -->
<g id="node23" class="node">
<title>Node22</title>
<g id="a_node23"><a xlink:href="file__utils_8h.html" target="_top" xlink:title="Several utilities for file handling. ">
<polygon fill="none" stroke="#000000" points="814,-313.5 814,-332.5 928,-332.5 928,-313.5 814,-313.5"/>
<text text-anchor="middle" x="871" y="-320.5" font-family="Helvetica,sans-Serif" font-size="10.00" fill="#000000">ViennaRNA/file_utils.h</text>
</a>
</g>
</g>
<!-- Node1&#45;&gt;Node22 -->
<g id="edge46" class="edge">
<title>Node1&#45;&gt;Node22</title>
<path fill="none" stroke="#191970" d="M814.0189,-369.2455C824.2098,-360.9746 839.0362,-348.9416 851.0107,-339.2232"/>
<polygon fill="#191970" stroke="#191970" points="853.5598,-341.662 859.1188,-332.6427 849.1486,-336.2268 853.5598,-341.662"/>
</g>
<!-- Node23 -->
<g id="node24" class="node">
<title>Node23</title>
<g id="a_node24"><a xlink:href="alphabet_8h.html" target="_top" xlink:title="Functions to process, convert, and generally handle different nucleotide and/or base pair alphabets...">
<polygon fill="none" stroke="#000000" points="346.5,-257.5 346.5,-276.5 461.5,-276.5 461.5,-257.5 346.5,-257.5"/>
<text text-anchor="middle" x="404" y="-264.5" font-family="Helvetica,sans-Serif" font-size="10.00" fill="#000000">ViennaRNA/alphabet.h</text>
</a>
</g>
</g>
<!-- Node1&#45;&gt;Node23 -->
<g id="edge47" class="edge">
<title>Node1&#45;&gt;Node23</title>
<path fill="none" stroke="#191970" d="M768.0667,-369.4509C695.9575,-349.1589 527.5432,-301.7659 447.6043,-279.2706"/>
<polygon fill="#191970" stroke="#191970" points="448.4216,-275.8647 437.8474,-276.5249 446.5254,-282.603 448.4216,-275.8647"/>
</g>
<!-- Node5 -->
<g id="node6" class="node">
<title>Node5</title>
<g id="a_node6"><a xlink:href="energy__const_8h.html" target="_top" xlink:title="Energy parameter constants. ">
<polygon fill="none" stroke="#000000" points="3.5,-62 3.5,-81 140.5,-81 140.5,-62 3.5,-62"/>
<text text-anchor="middle" x="72" y="-69" font-family="Helvetica,sans-Serif" font-size="10.00" fill="#000000">ViennaRNA/energy_const.h</text>
</a>
</g>
</g>
<!-- Node4&#45;&gt;Node5 -->
<g id="edge5" class="edge">
<title>Node4&#45;&gt;Node5</title>
<path fill="none" stroke="#191970" d="M685.6995,-257.9054C682.7624,-257.5903 679.8539,-257.287 677,-257 576.3025,-246.8721 318.098,-255.6258 223,-221 174.7921,-203.4472 165.0108,-190.542 129,-154 109.7198,-134.4354 92.5533,-107.6484 82.2189,-89.9738"/>
<polygon fill="#191970" stroke="#191970" points="85.2062,-88.1469 77.2104,-81.1958 79.1262,-91.616 85.2062,-88.1469"/>
</g>
<!-- Node7 -->
<g id="node8" class="node">
<title>Node7</title>
<g id="a_node8"><a xlink:href="fold__compound_8h.html" target="_top" xlink:title="The Basic Fold Compound API. ">
<polygon fill="none" stroke="#000000" points="587,-196 587,-215 731,-215 731,-196 587,-196"/>
<text text-anchor="middle" x="659" y="-203" font-family="Helvetica,sans-Serif" font-size="10.00" fill="#000000">ViennaRNA/fold_compound.h</text>
</a>
</g>
</g>
<!-- Node4&#45;&gt;Node7 -->
<g id="edge7" class="edge">
<title>Node4&#45;&gt;Node7</title>
<path fill="none" stroke="#191970" d="M743.375,-257.3906C727.2302,-247.4616 701.8178,-231.833 683.0977,-220.3201"/>
<polygon fill="#191970" stroke="#191970" points="684.8669,-217.2992 674.5153,-215.0419 681.1998,-223.2619 684.8669,-217.2992"/>
</g>
<!-- Node8 -->
<g id="node9" class="node">
<title>Node8</title>
<g id="a_node9"><a xlink:href="model_8h.html" target="_top" xlink:title="The model details data structure and its corresponding modifiers. ">
<polygon fill="none" stroke="#000000" points="286,-62 286,-81 390,-81 390,-62 286,-62"/>
<text text-anchor="middle" x="338" y="-69" font-family="Helvetica,sans-Serif" font-size="10.00" fill="#000000">ViennaRNA/model.h</text>
</a>
</g>
</g>
<!-- Node4&#45;&gt;Node8 -->
<g id="edge32" class="edge">
<title>Node4&#45;&gt;Node8</title>
<path fill="none" stroke="#191970" d="M702.7462,-257.456C651.9041,-248.254 581.2806,-233.8682 556,-221 497.0539,-190.9955 499.1244,-159.5543 444,-123 421.0805,-107.8015 393.0066,-94.3655 371.5096,-85.031"/>
<polygon fill="#191970" stroke="#191970" points="372.7093,-81.7378 362.1375,-81.0393 369.9662,-88.178 372.7093,-81.7378"/>
</g>
<!-- Node4&#45;&gt;Node9 -->
<g id="edge33" class="edge">
<title>Node4&#45;&gt;Node9</title>
<path fill="none" stroke="#191970" d="M685.6004,-258.9273C679.6303,-258.2485 673.7057,-257.5952 668,-257 575.931,-247.3956 335.0907,-263.7792 253,-221 225.9106,-206.8831 205.2655,-177.117 196.24,-157.4682"/>
<polygon fill="#191970" stroke="#191970" points="199.4383,-156.0368 192.5298,-148.0042 192.9212,-158.5918 199.4383,-156.0368"/>
</g>
<!-- Node10 -->
<g id="node11" class="node">
<title>Node10</title>
<g id="a_node11"><a xlink:href="dp__matrices_8h.html" target="_top" xlink:title="Functions to deal with standard dynamic programming (DP) matrices. ">
<polygon fill="none" stroke="#000000" points="304.5,-129 304.5,-148 435.5,-148 435.5,-129 304.5,-129"/>
<text text-anchor="middle" x="370" y="-136" font-family="Helvetica,sans-Serif" font-size="10.00" fill="#000000">ViennaRNA/dp_matrices.h</text>
</a>
</g>
</g>
<!-- Node4&#45;&gt;Node10 -->
<g id="edge34" class="edge">
<title>Node4&#45;&gt;Node10</title>
<path fill="none" stroke="#191970" d="M685.9077,-258.1276C595.3039,-246.3724 451.6754,-226.4804 441,-221 411.9805,-206.1024 387.3967,-176.5823 375.7645,-157.1944"/>
<polygon fill="#191970" stroke="#191970" points="378.7091,-155.2786 370.9073,-148.1104 372.5361,-158.5793 378.7091,-155.2786"/>
</g>
<!-- Node4&#45;&gt;Node11 -->
<g id="edge35" class="edge">
<title>Node4&#45;&gt;Node11</title>
<path fill="none" stroke="#191970" d="M829.4912,-257.478C887.1653,-249.2239 963.4022,-236.2289 991,-221 1019.5402,-205.2511 1043.5071,-175.1258 1059.2608,-155.9632"/>
<polygon fill="#191970" stroke="#191970" points="1061.9736,-158.1751 1065.7031,-148.2584 1056.6035,-153.6849 1061.9736,-158.1751"/>
</g>
<!-- Node17 -->
<g id="node18" class="node">
<title>Node17</title>
<g id="a_node18"><a xlink:href="grammar_8h.html" target="_top" xlink:title="Implementations for the RNA folding grammar. ">
<polygon fill="none" stroke="#000000" points="492,-129 492,-148 608,-148 608,-129 492,-129"/>
<text text-anchor="middle" x="550" y="-136" font-family="Helvetica,sans-Serif" font-size="10.00" fill="#000000">ViennaRNA/grammar.h</text>
</a>
</g>
</g>
<!-- Node4&#45;&gt;Node17 -->
<g id="edge36" class="edge">
<title>Node4&#45;&gt;Node17</title>
<path fill="none" stroke="#191970" d="M688.3092,-257.4731C641.6507,-249.5089 586.2,-236.903 569,-221 551.4434,-204.7672 544.8926,-177.1226 544.5693,-158.3503"/>
<polygon fill="#191970" stroke="#191970" points="548.0713,-158.4012 545.0955,-148.2329 541.0807,-158.0376 548.0713,-158.4012"/>
</g>
<!-- Node18 -->
<g id="node19" class="node">
<title>Node18</title>
<g id="a_node19"><a xlink:href="structured__domains_8h.html" target="_top" xlink:title="This module provides interfaces that deal with additional structured domains in the folding grammar...">
<polygon fill="none" stroke="#000000" points="664.5,-123.5 664.5,-153.5 777.5,-153.5 777.5,-123.5 664.5,-123.5"/>
<text text-anchor="start" x="672.5" y="-141.5" font-family="Helvetica,sans-Serif" font-size="10.00" fill="#000000">ViennaRNA/structured</text>
<text text-anchor="middle" x="721" y="-130.5" font-family="Helvetica,sans-Serif" font-size="10.00" fill="#000000">_domains.h</text>
</a>
</g>
</g>
<!-- Node4&#45;&gt;Node18 -->
<g id="edge37" class="edge">
<title>Node4&#45;&gt;Node18</title>
<path fill="none" stroke="#191970" d="M756.9975,-257.4234C753.8525,-242.7687 747.3501,-213.9575 740,-190 737.2974,-181.1909 733.926,-171.6896 730.7765,-163.2757"/>
<polygon fill="#191970" stroke="#191970" points="733.945,-161.7621 727.1047,-153.6713 727.4065,-164.2618 733.945,-161.7621"/>
</g>
<!-- Node19 -->
<g id="node20" class="node">
<title>Node19</title>
<g id="a_node20"><a xlink:href="unstructured__domains_8h.html" target="_top" xlink:title="Functions to modify unstructured domains, e.g. to incorporate ligands binding to unpaired stretches...">
<polygon fill="none" stroke="#000000" points="796,-123.5 796,-153.5 920,-153.5 920,-123.5 796,-123.5"/>
<text text-anchor="start" x="804" y="-141.5" font-family="Helvetica,sans-Serif" font-size="10.00" fill="#000000">ViennaRNA/unstructured</text>
<text text-anchor="middle" x="858" y="-130.5" font-family="Helvetica,sans-Serif" font-size="10.00" fill="#000000">_domains.h</text>
</a>
</g>
</g>
<!-- Node4&#45;&gt;Node19 -->
<g id="edge38" class="edge">
<title>Node4&#45;&gt;Node19</title>
<path fill="none" stroke="#191970" d="M762.6677,-257.3416C774.8612,-237.1547 810.6652,-190.012 834.9257,-161.5427"/>
<polygon fill="#191970" stroke="#191970" points="837.8219,-163.5458 841.7389,-153.7016 832.5379,-158.9545 837.8219,-163.5458"/>
</g>
<!-- Node4&#45;&gt;Node20 -->
<g id="edge39" class="edge">
<title>Node4&#45;&gt;Node20</title>
<path fill="none" stroke="#191970" d="M832.0116,-261.2433C915.8933,-254.3587 1057.2978,-241.1716 1178,-221 1182.165,-220.3039 1186.4572,-219.5099 1190.7875,-218.6574"/>
<polygon fill="#191970" stroke="#191970" points="1191.8247,-222.0177 1200.9182,-216.581 1190.4191,-215.1602 1191.8247,-222.0177"/>
</g>
<!-- Node6 -->
<g id="node7" class="node">
<title>Node6</title>
<polygon fill="none" stroke="#bfbfbf" points="48,-.5 48,-19.5 96,-19.5 96,-.5 48,-.5"/>
<text text-anchor="middle" x="72" y="-7.5" font-family="Helvetica,sans-Serif" font-size="10.00" fill="#000000">limits.h</text>
</g>
<!-- Node5&#45;&gt;Node6 -->
<g id="edge6" class="edge">
<title>Node5&#45;&gt;Node6</title>
<path fill="none" stroke="#191970" d="M72,-61.8906C72,-53.3657 72,-40.6392 72,-29.9235"/>
<polygon fill="#191970" stroke="#191970" points="75.5001,-29.7448 72,-19.7449 68.5001,-29.7449 75.5001,-29.7448"/>
</g>
<!-- Node7&#45;&gt;Node8 -->
<g id="edge8" class="edge">
<title>Node7&#45;&gt;Node8</title>
<path fill="none" stroke="#191970" d="M657.0098,-195.7964C652.8719,-178.2489 641.6003,-141.3626 617,-123 583.5166,-98.0067 471.8774,-83.5219 400.3789,-76.5941"/>
<polygon fill="#191970" stroke="#191970" points="400.4202,-73.0825 390.1353,-75.6265 399.7618,-80.0515 400.4202,-73.0825"/>
</g>
<!-- Node7&#45;&gt;Node9 -->
<g id="edge9" class="edge">
<title>Node7&#45;&gt;Node9</title>
<path fill="none" stroke="#191970" d="M590.2033,-195.9805C516.9889,-185.7997 397.773,-169.0787 295,-154 283.0931,-152.253 270.4103,-150.3554 258.1791,-148.5065"/>
<polygon fill="#191970" stroke="#191970" points="258.4497,-145.0076 248.038,-146.9693 257.4005,-151.9286 258.4497,-145.0076"/>
</g>
<!-- Node7&#45;&gt;Node10 -->
<g id="edge13" class="edge">
<title>Node7&#45;&gt;Node10</title>
<path fill="none" stroke="#191970" d="M617.9003,-195.9717C566.2603,-183.9998 477.622,-163.4504 421.5087,-150.4415"/>
<polygon fill="#191970" stroke="#191970" points="421.958,-146.9529 411.4259,-148.1039 420.377,-153.772 421.958,-146.9529"/>
</g>
<!-- Node7&#45;&gt;Node11 -->
<g id="edge15" class="edge">
<title>Node7&#45;&gt;Node11</title>
<path fill="none" stroke="#191970" d="M718.4453,-195.9717C794.6384,-183.7589 926.5195,-162.6201 1007.3402,-149.6656"/>
<polygon fill="#191970" stroke="#191970" points="1008.1017,-153.0883 1017.4217,-148.0496 1006.9938,-146.1765 1008.1017,-153.0883"/>
</g>
<!-- Node7&#45;&gt;Node17 -->
<g id="edge27" class="edge">
<title>Node7&#45;&gt;Node17</title>
<path fill="none" stroke="#191970" d="M643.383,-195.9005C625.3331,-184.8057 595.4104,-166.4128 574.3092,-153.4424"/>
<polygon fill="#191970" stroke="#191970" points="575.9402,-150.3366 565.5881,-148.0817 572.2745,-156.3001 575.9402,-150.3366"/>
</g>
<!-- Node7&#45;&gt;Node18 -->
<g id="edge29" class="edge">
<title>Node7&#45;&gt;Node18</title>
<path fill="none" stroke="#191970" d="M667.8831,-195.9005C676.288,-186.8178 689.2188,-172.8442 700.2175,-160.9585"/>
<polygon fill="#191970" stroke="#191970" points="702.8762,-163.2386 707.0993,-153.5218 697.7385,-158.4842 702.8762,-163.2386"/>
</g>
<!-- Node7&#45;&gt;Node19 -->
<g id="edge30" class="edge">
<title>Node7&#45;&gt;Node19</title>
<path fill="none" stroke="#191970" d="M687.5118,-195.9005C717.7004,-185.7366 766.0802,-169.4479 803.6043,-156.8141"/>
<polygon fill="#191970" stroke="#191970" points="805.0227,-160.0297 813.3831,-153.5218 802.789,-153.3956 805.0227,-160.0297"/>
</g>
<!-- Node9&#45;&gt;Node4 -->
<g id="edge11" class="edge">
<title>Node9&#45;&gt;Node4</title>
<path fill="none" stroke="#191970" d="M202.8168,-148.0042C216.0528,-165.9122 239.042,-204.346 271,-221 350.365,-262.3588 578.1127,-248.4184 680.249,-256.5389"/>
<polygon fill="#191970" stroke="#191970" points="680.04,-260.0343 690.3165,-257.4568 680.6756,-253.0632 680.04,-260.0343"/>
</g>
<!-- Node9&#45;&gt;Node5 -->
<g id="edge10" class="edge">
<title>Node9&#45;&gt;Node5</title>
<path fill="none" stroke="#191970" d="M175.6637,-128.9005C155.447,-117.7062 121.8128,-99.0823 98.3576,-86.0947"/>
<polygon fill="#191970" stroke="#191970" points="99.7481,-82.8639 89.3042,-81.0817 96.3571,-88.9878 99.7481,-82.8639"/>
</g>
<!-- Node9&#45;&gt;Node8 -->
<g id="edge12" class="edge">
<title>Node9&#45;&gt;Node8</title>
<path fill="none" stroke="#191970" d="M213.775,-128.9005C238.4323,-117.5072 279.7451,-98.4178 307.9018,-85.4075"/>
<polygon fill="#191970" stroke="#191970" points="309.6539,-88.4535 317.2636,-81.0817 306.7177,-82.099 309.6539,-88.4535"/>
</g>
<!-- Node10&#45;&gt;Node4 -->
<g id="edge14" class="edge">
<title>Node10&#45;&gt;Node4</title>
<path fill="none" stroke="#191970" d="M381.3135,-148.1104C396.961,-165.8465 424.922,-203.5056 459,-221 469.0803,-226.1748 597.703,-244.1993 683.2837,-256.0896"/>
<polygon fill="#191970" stroke="#191970" points="682.8502,-259.5629 693.2367,-257.472 683.8132,-252.6295 682.8502,-259.5629"/>
</g>
<!-- Node11&#45;&gt;Node4 -->
<g id="edge16" class="edge">
<title>Node11&#45;&gt;Node4</title>
<path fill="none" stroke="#191970" d="M1076.2274,-148.2584C1068.5003,-165.8949 1041.7637,-202.9205 1009,-221 981.1353,-236.3761 903.6863,-249.475 842.2434,-257.7161"/>
<polygon fill="#191970" stroke="#191970" points="841.5992,-254.2707 832.142,-259.0469 842.5135,-261.2107 841.5992,-254.2707"/>
</g>
<!-- Node12 -->
<g id="node13" class="node">
<title>Node12</title>
<g id="a_node13"><a xlink:href="constraints__hard_8h.html" target="_top" xlink:title="Functions and data structures for handling of secondary structure hard constraints. ">
<polygon fill="none" stroke="#000000" points="617,-56.5 617,-86.5 735,-86.5 735,-56.5 617,-56.5"/>
<text text-anchor="start" x="625" y="-74.5" font-family="Helvetica,sans-Serif" font-size="10.00" fill="#000000">ViennaRNA/constraints</text>
<text text-anchor="middle" x="676" y="-63.5" font-family="Helvetica,sans-Serif" font-size="10.00" fill="#000000">_hard.h</text>
</a>
</g>
</g>
<!-- Node11&#45;&gt;Node12 -->
<g id="edge17" class="edge">
<title>Node11&#45;&gt;Node12</title>
<path fill="none" stroke="#191970" d="M1019.9723,-128.9717C947.6477,-116.8875 823.019,-96.0643 745.2922,-83.0775"/>
<polygon fill="#191970" stroke="#191970" points="745.5556,-79.5731 735.1155,-81.3771 744.4019,-86.4774 745.5556,-79.5731"/>
</g>
<!-- Node13 -->
<g id="node14" class="node">
<title>Node13</title>
<g id="a_node14"><a xlink:href="constraints__soft_8h.html" target="_top" xlink:title="Functions and data structures for secondary structure soft constraints. ">
<polygon fill="none" stroke="#000000" points="813,-56.5 813,-86.5 931,-86.5 931,-56.5 813,-56.5"/>
<text text-anchor="start" x="821" y="-74.5" font-family="Helvetica,sans-Serif" font-size="10.00" fill="#000000">ViennaRNA/constraints</text>
<text text-anchor="middle" x="872" y="-63.5" font-family="Helvetica,sans-Serif" font-size="10.00" fill="#000000">_soft.h</text>
</a>
</g>
</g>
<!-- Node11&#45;&gt;Node13 -->
<g id="edge19" class="edge">
<title>Node11&#45;&gt;Node13</title>
<path fill="none" stroke="#191970" d="M1047.6285,-128.9005C1016.3975,-118.6933 966.2667,-102.3091 927.5429,-89.6531"/>
<polygon fill="#191970" stroke="#191970" points="928.5547,-86.3016 917.9621,-86.5218 926.38,-92.9552 928.5547,-86.3016"/>
</g>
<!-- Node14 -->
<g id="node15" class="node">
<title>Node14</title>
<g id="a_node15"><a xlink:href="constraints__SHAPE_8h.html" target="_top" xlink:title="This module provides function to incorporate SHAPE reactivity data into the folding recursions by mea...">
<polygon fill="none" stroke="#000000" points="949,-56.5 949,-86.5 1067,-86.5 1067,-56.5 949,-56.5"/>
<text text-anchor="start" x="957" y="-74.5" font-family="Helvetica,sans-Serif" font-size="10.00" fill="#000000">ViennaRNA/constraints</text>
<text text-anchor="middle" x="1008" y="-63.5" font-family="Helvetica,sans-Serif" font-size="10.00" fill="#000000">_SHAPE.h</text>
</a>
</g>
</g>
<!-- Node11&#45;&gt;Node14 -->
<g id="edge21" class="edge">
<title>Node11&#45;&gt;Node14</title>
<path fill="none" stroke="#191970" d="M1067.114,-128.9005C1057.6711,-119.7313 1043.0949,-105.5776 1030.7798,-93.6195"/>
<polygon fill="#191970" stroke="#191970" points="1033.0827,-90.9771 1023.4702,-86.5218 1028.2063,-95.9991 1033.0827,-90.9771"/>
</g>
<!-- Node15 -->
<g id="node16" class="node">
<title>Node15</title>
<g id="a_node16"><a xlink:href="perturbation__fold_8h.html" target="_top" xlink:title="Find a vector of perturbation energies that minimizes the discripancies between predicted and observe...">
<polygon fill="none" stroke="#000000" points="1085.5,-56.5 1085.5,-86.5 1206.5,-86.5 1206.5,-56.5 1085.5,-56.5"/>
<text text-anchor="start" x="1093.5" y="-74.5" font-family="Helvetica,sans-Serif" font-size="10.00" fill="#000000">ViennaRNA/perturbation</text>
<text text-anchor="middle" x="1146" y="-63.5" font-family="Helvetica,sans-Serif" font-size="10.00" fill="#000000">_fold.h</text>
</a>
</g>
</g>
<!-- Node11&#45;&gt;Node15 -->
<g id="edge23" class="edge">
<title>Node11&#45;&gt;Node15</title>
<path fill="none" stroke="#191970" d="M1086.886,-128.9005C1096.3289,-119.7313 1110.9051,-105.5776 1123.2202,-93.6195"/>
<polygon fill="#191970" stroke="#191970" points="1125.7937,-95.9991 1130.5298,-86.5218 1120.9173,-90.9771 1125.7937,-95.9991"/>
</g>
<!-- Node16 -->
<g id="node17" class="node">
<title>Node16</title>
<g id="a_node17"><a xlink:href="constraints__ligand_8h.html" target="_top" xlink:title="Functions for incorporation of ligands binding to hairpin and interior loop motifs using the soft con...">
<polygon fill="none" stroke="#000000" points="1225,-56.5 1225,-86.5 1343,-86.5 1343,-56.5 1225,-56.5"/>
<text text-anchor="start" x="1233" y="-74.5" font-family="Helvetica,sans-Serif" font-size="10.00" fill="#000000">ViennaRNA/constraints</text>
<text text-anchor="middle" x="1284" y="-63.5" font-family="Helvetica,sans-Serif" font-size="10.00" fill="#000000">_ligand.h</text>
</a>
</g>
</g>
<!-- Node11&#45;&gt;Node16 -->
<g id="edge25" class="edge">
<title>Node11&#45;&gt;Node16</title>
<path fill="none" stroke="#191970" d="M1106.6581,-128.9005C1138.1938,-118.6933 1188.8136,-102.3091 1227.9152,-89.6531"/>
<polygon fill="#191970" stroke="#191970" points="1229.1532,-92.9312 1237.5895,-86.5218 1226.9976,-86.2713 1229.1532,-92.9312"/>
</g>
<!-- Node12&#45;&gt;Node4 -->
<g id="edge18" class="edge">
<title>Node12&#45;&gt;Node4</title>
<path fill="none" stroke="#191970" d="M616.8442,-75.2718C515.1032,-82.3663 315.8359,-99.1582 295,-123 285.9336,-133.3744 288.2038,-142.015 295,-154 323.612,-204.4569 352.2107,-201.9558 407,-221 413.3293,-223.2 573.5922,-243.6505 675.664,-256.5325"/>
<polygon fill="#191970" stroke="#191970" points="675.3001,-260.0143 685.6595,-257.7933 676.1762,-253.0693 675.3001,-260.0143"/>
</g>
<!-- Node13&#45;&gt;Node4 -->
<g id="edge20" class="edge">
<title>Node13&#45;&gt;Node4</title>
<path fill="none" stroke="#191970" d="M896.7767,-86.6187C908.9221,-95.5339 922.3406,-108.0083 929,-123 934.5932,-135.5914 935.4588,-141.8299 929,-154 901.6229,-205.5853 839.0504,-237.5815 797.9376,-253.8331"/>
<polygon fill="#191970" stroke="#191970" points="796.5859,-250.6027 788.4926,-257.4401 799.0833,-257.142 796.5859,-250.6027"/>
</g>
<!-- Node14&#45;&gt;Node4 -->
<g id="edge22" class="edge">
<title>Node14&#45;&gt;Node4</title>
<path fill="none" stroke="#191970" d="M1000.6831,-86.6094C985.409,-116.6027 947.2522,-183.9533 896,-221 873.7409,-237.0896 845.4675,-247.8302 820.3936,-254.8543"/>
<polygon fill="#191970" stroke="#191970" points="819.3637,-251.5065 810.5991,-257.4589 821.1627,-258.2714 819.3637,-251.5065"/>
</g>
<!-- Node15&#45;&gt;Node4 -->
<g id="edge24" class="edge">
<title>Node15&#45;&gt;Node4</title>
<path fill="none" stroke="#191970" d="M1150.9544,-86.5761C1155.7267,-103.9881 1160.6636,-132.9351 1149,-154 1121.8206,-203.0869 1094.5068,-201.2191 1042,-221 977.5144,-245.2937 900.0136,-256.7647 842.4321,-262.177"/>
<polygon fill="#191970" stroke="#191970" points="841.9299,-258.7079 832.2828,-263.0878 842.5557,-265.6798 841.9299,-258.7079"/>
</g>
<!-- Node16&#45;&gt;Node4 -->
<g id="edge26" class="edge">
<title>Node16&#45;&gt;Node4</title>
<path fill="none" stroke="#191970" d="M1270.5036,-86.5123C1241.5955,-117.5724 1170.1093,-188.6812 1094,-221 1049.9938,-239.6867 926.3742,-253.2159 842.2627,-260.586"/>
<polygon fill="#191970" stroke="#191970" points="841.8708,-257.1067 832.209,-261.4542 842.4731,-264.0807 841.8708,-257.1067"/>
</g>
<!-- Node17&#45;&gt;Node4 -->
<g id="edge28" class="edge">
<title>Node17&#45;&gt;Node4</title>
<path fill="none" stroke="#191970" d="M555.7366,-148.2329C560.6962,-165.4958 565.8991,-201.4902 587,-221 602.9234,-235.7227 651.6304,-247.6196 693.2258,-255.6237"/>
<polygon fill="#191970" stroke="#191970" points="692.5978,-259.0668 703.0721,-257.4731 693.8901,-252.1871 692.5978,-259.0668"/>
</g>
<!-- Node19&#45;&gt;Node4 -->
<g id="edge31" class="edge">
<title>Node19&#45;&gt;Node4</title>
<path fill="none" stroke="#191970" d="M850.8376,-153.7016C835.1793,-177.7264 799.351,-224.3356 777.1662,-249.6402"/>
<polygon fill="#191970" stroke="#191970" points="774.3169,-247.5732 770.2145,-257.3416 779.5131,-252.2636 774.3169,-247.5732"/>
</g>
<!-- Node20&#45;&gt;Node2 -->
<g id="edge40" class="edge">
<title>Node20&#45;&gt;Node2</title>
<path fill="none" stroke="#191970" d="M1262.4882,-190.2967C1267.3303,-180.4658 1273.6659,-167.6026 1278.812,-157.1545"/>
<polygon fill="#191970" stroke="#191970" points="1282.0151,-158.5724 1283.2938,-148.055 1275.7355,-155.4794 1282.0151,-158.5724"/>
</g>
<!-- Node20&#45;&gt;Node4 -->
<g id="edge41" class="edge">
<title>Node20&#45;&gt;Node4</title>
<path fill="none" stroke="#191970" d="M1200.7037,-220.1828C1199.1228,-220.4675 1197.5526,-220.7405 1196,-221 1074.0453,-241.381 930.9564,-254.6316 842.56,-261.4555"/>
<polygon fill="#191970" stroke="#191970" points="842.0271,-257.9859 832.322,-262.2359 842.5592,-264.9657 842.0271,-257.9859"/>
</g>
<!-- Node21&#45;&gt;Node3 -->
<g id="edge43" class="edge">
<title>Node21&#45;&gt;Node3</title>
<path fill="none" stroke="#191970" d="M717.149,-313.2455C703.1868,-304.6534 682.6272,-292.0014 666.5404,-282.1018"/>
<polygon fill="#191970" stroke="#191970" points="668.0203,-278.9029 657.6693,-276.6427 664.3516,-284.8645 668.0203,-278.9029"/>
</g>
<!-- Node21&#45;&gt;Node4 -->
<g id="edge44" class="edge">
<title>Node21&#45;&gt;Node4</title>
<path fill="none" stroke="#191970" d="M737.5289,-313.2455C741.0334,-305.6973 745.9927,-295.0158 750.2623,-285.8197"/>
<polygon fill="#191970" stroke="#191970" points="753.4864,-287.1867 754.523,-276.6427 747.1373,-284.2389 753.4864,-287.1867"/>
</g>
<!-- Node23&#45;&gt;Node8 -->
<g id="edge48" class="edge">
<title>Node23&#45;&gt;Node8</title>
<path fill="none" stroke="#191970" d="M346.3054,-257.986C309.805,-250.9307 262.2702,-239.2034 223,-221 176.4536,-199.4238 152.4987,-199.606 129,-154 122.6894,-141.7524 120.5026,-133.8454 129,-123 147.0088,-100.015 220.9128,-85.9011 275.7595,-78.3928"/>
<polygon fill="#191970" stroke="#191970" points="276.3077,-81.8508 285.7611,-77.0671 275.3878,-74.9115 276.3077,-81.8508"/>
</g>
<!-- Node24&#45;&gt;Node5 -->
<g id="edge50" class="edge">
<title>Node24&#45;&gt;Node5</title>
<path fill="none" stroke="#191970" d="M58.721,-369.3307C50.6541,-350.1936 34,-305.9662 34,-267 34,-267 34,-267 34,-205.5 34,-163.2065 51.7376,-116.1555 62.9757,-90.5895"/>
<polygon fill="#191970" stroke="#191970" points="66.2396,-91.8667 67.1873,-81.3143 59.8659,-88.9726 66.2396,-91.8667"/>
</g>
</g>
</svg>
        <g id="navigator" transform="translate(0 0)" fill="#404254">
                <rect fill="#f2f5e9" fill-opacity="0.5" stroke="#606060" stroke-width=".5" x="0" y="0" width="60" height="60"/>
                <use id="zoomplus" xlink:href="#zoomPlus" x="17" y="9" onmousedown="handleZoom(evt,'in')"/>
                <use id="zoomminus" xlink:href="#zoomMin" x="42" y="9" onmousedown="handleZoom(evt,'out')"/>
                <use id="reset" xlink:href="#resetDef" x="30" y="36" onmousedown="handleReset()"/>
                <g id="arrowUp" xlink:href="#dirArrow" transform="translate(30 24)" onmousedown="handlePan(0,-1)">
                  <use xlink:href="#rim" fill="#404040">
                        <set attributeName="fill" to="#808080" begin="arrowUp.mouseover" end="arrowUp.mouseout"/>
                  </use>
                  <path fill="none" stroke="white" stroke-width="1.5" d="M0,-3.0v7 M-2.5,-0.5L0,-3.0L2.5,-0.5"/>
                </g>
                <g id="arrowRight" xlink:href="#dirArrow" transform="rotate(90) translate(36 -43)" onmousedown="handlePan(1,0)">
                  <use xlink:href="#rim" fill="#404040">
                        <set attributeName="fill" to="#808080" begin="arrowRight.mouseover" end="arrowRight.mouseout"/>
                  </use>
                  <path fill="none" stroke="white" stroke-width="1.5" d="M0,-3.0v7 M-2.5,-0.5L0,-3.0L2.5,-0.5"/>
                </g>
                <g id="arrowDown" xlink:href="#dirArrow" transform="rotate(180) translate(-30 -48)" onmousedown="handlePan(0,1)">
                  <use xlink:href="#rim" fill="#404040">
                        <set attributeName="fill" to="#808080" begin="arrowDown.mouseover" end="arrowDown.mouseout"/>
                  </use>
                  <path fill="none" stroke="white" stroke-width="1.5" d="M0,-3.0v7 M-2.5,-0.5L0,-3.0L2.5,-0.5"/>
                </g>
                <g id="arrowLeft" xlink:href="#dirArrow" transform="rotate(270) translate(-36 17)" onmousedown="handlePan(-1,0)">
                  <use xlink:href="#rim" fill="#404040">
                        <set attributeName="fill" to="#808080" begin="arrowLeft.mouseover" end="arrowLeft.mouseout"/>
                  </use>
                  <path fill="none" stroke="white" stroke-width="1.5" d="M0,-3.0v7 M-2.5,-0.5L0,-3.0L2.5,-0.5"/>
                </g>
        </g>
        <svg viewBox="0 0 15 15" width="100%" height="30px" preserveAspectRatio="xMaxYMin meet">
         <g id="arrow_out" transform="scale(0.3 0.3)">
          <a xlink:href="interior__loops_8h__incl_org.svg" target="_base">
           <rect id="button" ry="5" rx="5" y="6" x="6" height="38" width="38"
                fill="#f2f5e9" fill-opacity="0.5" stroke="#606060" stroke-width="1.0"/>
           <path id="arrow"
             d="M 11.500037,31.436501 C 11.940474,20.09759 22.043105,11.32322 32.158766,21.979434 L 37.068811,17.246167 C 37.068811,17.246167 37.088388,32 37.088388,32 L 22.160133,31.978069 C 22.160133,31.978069 26.997745,27.140456 26.997745,27.140456 C 18.528582,18.264221 13.291696,25.230495 11.500037,31.436501 z"
             style="fill:#404040;"/>
          </a>
         </g>
        </svg>
</svg>
