<?xml version="1.0" encoding="UTF-8" standalone="no"?>
<!DOCTYPE svg PUBLIC "-//W3C//DTD SVG 1.1//EN"
 "http://www.w3.org/Graphics/SVG/1.1/DTD/svg11.dtd">
<!-- Generated by graphviz version 2.40.1 (20161225.0304)
 -->
<!-- Title: ViennaRNA/Lfold.h Pages: 1 -->
<svg width="1313pt" height="397pt"
 viewBox="0.00 0.00 1312.50 397.00" xmlns="http://www.w3.org/2000/svg" xmlns:xlink="http://www.w3.org/1999/xlink">
<g id="graph0" class="graph" transform="scale(1 1) rotate(0) translate(4 393)">
<title>ViennaRNA/Lfold.h</title>
<!-- Node0 -->
<g id="node1" class="node">
<title>Node0</title>
<polygon fill="#bfbfbf" stroke="#000000" points="962,-369.5 962,-388.5 1061,-388.5 1061,-369.5 962,-369.5"/>
<text text-anchor="middle" x="1011.5" y="-376.5" font-family="Helvetica,sans-Serif" font-size="10.00" fill="#000000">ViennaRNA/Lfold.h</text>
</g>
<!-- Node1 -->
<g id="node2" class="node">
<title>Node1</title>
<g id="a_node2"><a xlink:href="mfe_8h.html" target="_top" xlink:title="MFE calculations for single RNA sequences. ">
<polygon fill="none" stroke="#000000" points="964,-313.5 964,-332.5 1059,-332.5 1059,-313.5 964,-313.5"/>
<text text-anchor="middle" x="1011.5" y="-320.5" font-family="Helvetica,sans-Serif" font-size="10.00" fill="#000000">ViennaRNA/mfe.h</text>
</a>
</g>
</g>
<!-- Node0&#45;&gt;Node1 -->
<g id="edge1" class="edge">
<title>Node0&#45;&gt;Node1</title>
<path fill="none" stroke="#191970" d="M1011.5,-369.2455C1011.5,-361.9382 1011.5,-351.6944 1011.5,-342.7046"/>
<polygon fill="#191970" stroke="#191970" points="1015.0001,-342.6426 1011.5,-332.6427 1008.0001,-342.6427 1015.0001,-342.6426"/>
</g>
<!-- Node2 -->
<g id="node3" class="node">
<title>Node2</title>
<polygon fill="none" stroke="#bfbfbf" points="1222.5,-129 1222.5,-148 1268.5,-148 1268.5,-129 1222.5,-129"/>
<text text-anchor="middle" x="1245.5" y="-136" font-family="Helvetica,sans-Serif" font-size="10.00" fill="#000000">stdio.h</text>
</g>
<!-- Node1&#45;&gt;Node2 -->
<g id="edge2" class="edge">
<title>Node1&#45;&gt;Node2</title>
<path fill="none" stroke="#191970" d="M1059.0911,-319.5166C1119.3067,-312.2616 1220.7836,-289.9016 1267.5,-221 1280.6254,-201.6415 1269.2145,-174.8066 1258.5265,-157.0648"/>
<polygon fill="#191970" stroke="#191970" points="1261.1938,-154.7442 1252.8235,-148.249 1255.3164,-158.5464 1261.1938,-154.7442"/>
</g>
<!-- Node3 -->
<g id="node4" class="node">
<title>Node3</title>
<g id="a_node4"><a xlink:href="data__structures_8h.html" target="_top" xlink:title="Various data structures and pre&#45;processor macros. ">
<polygon fill="none" stroke="#000000" points="663.5,-257.5 663.5,-276.5 809.5,-276.5 809.5,-257.5 663.5,-257.5"/>
<text text-anchor="middle" x="736.5" y="-264.5" font-family="Helvetica,sans-Serif" font-size="10.00" fill="#000000">ViennaRNA/data_structures.h</text>
</a>
</g>
</g>
<!-- Node1&#45;&gt;Node3 -->
<g id="edge3" class="edge">
<title>Node1&#45;&gt;Node3</title>
<path fill="none" stroke="#191970" d="M964.5383,-313.4369C917.0787,-303.7724 843.7134,-288.8326 793.0777,-278.5213"/>
<polygon fill="#191970" stroke="#191970" points="793.7653,-275.0895 783.268,-276.5237 792.3685,-281.9488 793.7653,-275.0895"/>
</g>
<!-- Node4 -->
<g id="node5" class="node">
<title>Node4</title>
<g id="a_node5"><a xlink:href="energy__const_8h.html" target="_top" xlink:title="Energy parameter constants. ">
<polygon fill="none" stroke="#000000" points="0,-62 0,-81 137,-81 137,-62 0,-62"/>
<text text-anchor="middle" x="68.5" y="-69" font-family="Helvetica,sans-Serif" font-size="10.00" fill="#000000">ViennaRNA/energy_const.h</text>
</a>
</g>
</g>
<!-- Node3&#45;&gt;Node4 -->
<g id="edge4" class="edge">
<title>Node3&#45;&gt;Node4</title>
<path fill="none" stroke="#191970" d="M663.4457,-263.5733C538.219,-257.2211 287.8155,-242.2983 202.5,-221 128.8929,-202.6246 87.3123,-217.3039 45.5,-154 32.5701,-134.424 44.3153,-107.6397 55.2312,-89.9688"/>
<polygon fill="#191970" stroke="#191970" points="58.4406,-91.4618 61.0482,-81.1929 52.606,-87.5943 58.4406,-91.4618"/>
</g>
<!-- Node6 -->
<g id="node7" class="node">
<title>Node6</title>
<g id="a_node7"><a xlink:href="fold__compound_8h.html" target="_top" xlink:title="The Basic Fold Compound API. ">
<polygon fill="none" stroke="#000000" points="497.5,-196 497.5,-215 641.5,-215 641.5,-196 497.5,-196"/>
<text text-anchor="middle" x="569.5" y="-203" font-family="Helvetica,sans-Serif" font-size="10.00" fill="#000000">ViennaRNA/fold_compound.h</text>
</a>
</g>
</g>
<!-- Node3&#45;&gt;Node6 -->
<g id="edge6" class="edge">
<title>Node3&#45;&gt;Node6</title>
<path fill="none" stroke="#191970" d="M710.4063,-257.3906C682.0964,-246.9652 636.7232,-230.2559 605.1408,-218.6252"/>
<polygon fill="#191970" stroke="#191970" points="606.004,-215.2133 595.4105,-215.0419 603.5849,-221.7821 606.004,-215.2133"/>
</g>
<!-- Node7 -->
<g id="node8" class="node">
<title>Node7</title>
<g id="a_node8"><a xlink:href="model_8h.html" target="_top" xlink:title="The model details data structure and its corresponding modifiers. ">
<polygon fill="none" stroke="#000000" points="290.5,-62 290.5,-81 394.5,-81 394.5,-62 290.5,-62"/>
<text text-anchor="middle" x="342.5" y="-69" font-family="Helvetica,sans-Serif" font-size="10.00" fill="#000000">ViennaRNA/model.h</text>
</a>
</g>
</g>
<!-- Node3&#45;&gt;Node7 -->
<g id="edge31" class="edge">
<title>Node3&#45;&gt;Node7</title>
<path fill="none" stroke="#191970" d="M663.4555,-259.0328C592.5615,-250.6019 490.4229,-236.4061 453.5,-221 406.8179,-201.5219 389.3835,-196.2034 361.5,-154 349.0123,-135.0991 344.6743,-109.0525 343.1992,-91.3158"/>
<polygon fill="#191970" stroke="#191970" points="346.6881,-91.0237 342.5948,-81.2515 339.7006,-91.4434 346.6881,-91.0237"/>
</g>
<!-- Node8 -->
<g id="node9" class="node">
<title>Node8</title>
<g id="a_node9"><a xlink:href="params_8h.html" target="_top" xlink:title="Functions to deal with sets of energy parameters. ">
<polygon fill="none" stroke="#000000" points="54.5,-129 54.5,-148 164.5,-148 164.5,-129 54.5,-129"/>
<text text-anchor="middle" x="109.5" y="-136" font-family="Helvetica,sans-Serif" font-size="10.00" fill="#000000">ViennaRNA/params.h</text>
</a>
</g>
</g>
<!-- Node3&#45;&gt;Node8 -->
<g id="edge32" class="edge">
<title>Node3&#45;&gt;Node8</title>
<path fill="none" stroke="#191970" d="M663.1585,-262.8855C552.0513,-255.8766 346.8542,-240.4704 276.5,-221 219.9092,-205.3386 158.9389,-172.854 128.512,-153.6504"/>
<polygon fill="#191970" stroke="#191970" points="130.3752,-150.6869 120.0884,-148.1503 126.5481,-156.5481 130.3752,-150.6869"/>
</g>
<!-- Node9 -->
<g id="node10" class="node">
<title>Node9</title>
<g id="a_node10"><a xlink:href="dp__matrices_8h.html" target="_top" xlink:title="Functions to deal with standard dynamic programming (DP) matrices. ">
<polygon fill="none" stroke="#000000" points="183,-129 183,-148 314,-148 314,-129 183,-129"/>
<text text-anchor="middle" x="248.5" y="-136" font-family="Helvetica,sans-Serif" font-size="10.00" fill="#000000">ViennaRNA/dp_matrices.h</text>
</a>
</g>
</g>
<!-- Node3&#45;&gt;Node9 -->
<g id="edge33" class="edge">
<title>Node3&#45;&gt;Node9</title>
<path fill="none" stroke="#191970" d="M663.1897,-264.876C559.8761,-260.8123 377.8036,-249.6347 319.5,-221 290.0863,-206.554 265.4841,-176.6838 254.0046,-157.1286"/>
<polygon fill="#191970" stroke="#191970" points="257.0845,-155.4652 249.35,-148.2244 250.8809,-158.708 257.0845,-155.4652"/>
</g>
<!-- Node10 -->
<g id="node11" class="node">
<title>Node10</title>
<g id="a_node11"><a xlink:href="constraints_8h.html" target="_top" xlink:title="Functions and data structures for constraining secondary structure predictions and evaluation...">
<polygon fill="none" stroke="#000000" points="930.5,-129 930.5,-148 1056.5,-148 1056.5,-129 930.5,-129"/>
<text text-anchor="middle" x="993.5" y="-136" font-family="Helvetica,sans-Serif" font-size="10.00" fill="#000000">ViennaRNA/constraints.h</text>
</a>
</g>
</g>
<!-- Node3&#45;&gt;Node10 -->
<g id="edge34" class="edge">
<title>Node3&#45;&gt;Node10</title>
<path fill="none" stroke="#191970" d="M804.238,-257.4591C837.0577,-250.8222 876.0074,-239.6657 907.5,-221 935.416,-204.4542 959.4417,-174.7832 975.3628,-155.8974"/>
<polygon fill="#191970" stroke="#191970" points="978.2302,-157.9307 982.0925,-148.0649 972.9208,-153.3689 978.2302,-157.9307"/>
</g>
<!-- Node16 -->
<g id="node17" class="node">
<title>Node16</title>
<g id="a_node17"><a xlink:href="grammar_8h.html" target="_top" xlink:title="Implementations for the RNA folding grammar. ">
<polygon fill="none" stroke="#000000" points="370.5,-129 370.5,-148 486.5,-148 486.5,-129 370.5,-129"/>
<text text-anchor="middle" x="428.5" y="-136" font-family="Helvetica,sans-Serif" font-size="10.00" fill="#000000">ViennaRNA/grammar.h</text>
</a>
</g>
</g>
<!-- Node3&#45;&gt;Node16 -->
<g id="edge35" class="edge">
<title>Node3&#45;&gt;Node16</title>
<path fill="none" stroke="#191970" d="M663.4235,-260.2951C598.3186,-252.9436 509.0844,-239.6594 479.5,-221 455.3594,-205.7741 437.8351,-177.0241 430.409,-157.8112"/>
<polygon fill="#191970" stroke="#191970" points="433.7336,-156.7165 427.3444,-148.265 427.0686,-158.8562 433.7336,-156.7165"/>
</g>
<!-- Node17 -->
<g id="node18" class="node">
<title>Node17</title>
<g id="a_node18"><a xlink:href="structured__domains_8h.html" target="_top" xlink:title="This module provides interfaces that deal with additional structured domains in the folding grammar...">
<polygon fill="none" stroke="#000000" points="543,-123.5 543,-153.5 656,-153.5 656,-123.5 543,-123.5"/>
<text text-anchor="start" x="551" y="-141.5" font-family="Helvetica,sans-Serif" font-size="10.00" fill="#000000">ViennaRNA/structured</text>
<text text-anchor="middle" x="599.5" y="-130.5" font-family="Helvetica,sans-Serif" font-size="10.00" fill="#000000">_domains.h</text>
</a>
</g>
</g>
<!-- Node3&#45;&gt;Node17 -->
<g id="edge36" class="edge">
<title>Node3&#45;&gt;Node17</title>
<path fill="none" stroke="#191970" d="M726.2027,-257.3416C704.4957,-236.9814 653.5545,-189.2007 623.2897,-160.8137"/>
<polygon fill="#191970" stroke="#191970" points="625.3953,-157.99 615.7072,-153.7016 620.6065,-163.0956 625.3953,-157.99"/>
</g>
<!-- Node18 -->
<g id="node19" class="node">
<title>Node18</title>
<g id="a_node19"><a xlink:href="unstructured__domains_8h.html" target="_top" xlink:title="Functions to modify unstructured domains, e.g. to incorporate ligands binding to unpaired stretches...">
<polygon fill="none" stroke="#000000" points="674.5,-123.5 674.5,-153.5 798.5,-153.5 798.5,-123.5 674.5,-123.5"/>
<text text-anchor="start" x="682.5" y="-141.5" font-family="Helvetica,sans-Serif" font-size="10.00" fill="#000000">ViennaRNA/unstructured</text>
<text text-anchor="middle" x="736.5" y="-130.5" font-family="Helvetica,sans-Serif" font-size="10.00" fill="#000000">_domains.h</text>
</a>
</g>
</g>
<!-- Node3&#45;&gt;Node18 -->
<g id="edge37" class="edge">
<title>Node3&#45;&gt;Node18</title>
<path fill="none" stroke="#191970" d="M732.7266,-257.3416C729.454,-237.6745 728.8799,-192.4221 731.0043,-163.7784"/>
<polygon fill="#191970" stroke="#191970" points="734.5002,-163.9851 731.9507,-153.7016 727.5309,-163.3305 734.5002,-163.9851"/>
</g>
<!-- Node19 -->
<g id="node20" class="node">
<title>Node19</title>
<g id="a_node20"><a xlink:href="structure__utils_8h.html" target="_top" xlink:title="Various utility&#45; and helper&#45;functions for secondary structure parsing, converting, etc. ">
<polygon fill="none" stroke="#000000" points="1150.5,-190.5 1150.5,-220.5 1258.5,-220.5 1258.5,-190.5 1150.5,-190.5"/>
<text text-anchor="start" x="1158.5" y="-208.5" font-family="Helvetica,sans-Serif" font-size="10.00" fill="#000000">ViennaRNA/structure</text>
<text text-anchor="middle" x="1204.5" y="-197.5" font-family="Helvetica,sans-Serif" font-size="10.00" fill="#000000">_utils.h</text>
</a>
</g>
</g>
<!-- Node3&#45;&gt;Node19 -->
<g id="edge38" class="edge">
<title>Node3&#45;&gt;Node19</title>
<path fill="none" stroke="#191970" d="M809.7505,-260.3957C888.5668,-253.1027 1017.2557,-239.8453 1127.5,-221 1131.6624,-220.2885 1135.9527,-219.4831 1140.2816,-218.6228"/>
<polygon fill="#191970" stroke="#191970" points="1141.3235,-221.9817 1150.4102,-216.5336 1139.9093,-215.126 1141.3235,-221.9817"/>
</g>
<!-- Node5 -->
<g id="node6" class="node">
<title>Node5</title>
<polygon fill="none" stroke="#bfbfbf" points="44.5,-.5 44.5,-19.5 92.5,-19.5 92.5,-.5 44.5,-.5"/>
<text text-anchor="middle" x="68.5" y="-7.5" font-family="Helvetica,sans-Serif" font-size="10.00" fill="#000000">limits.h</text>
</g>
<!-- Node4&#45;&gt;Node5 -->
<g id="edge5" class="edge">
<title>Node4&#45;&gt;Node5</title>
<path fill="none" stroke="#191970" d="M68.5,-61.8906C68.5,-53.3657 68.5,-40.6392 68.5,-29.9235"/>
<polygon fill="#191970" stroke="#191970" points="72.0001,-29.7448 68.5,-19.7449 65.0001,-29.7449 72.0001,-29.7448"/>
</g>
<!-- Node6&#45;&gt;Node7 -->
<g id="edge7" class="edge">
<title>Node6&#45;&gt;Node7</title>
<path fill="none" stroke="#191970" d="M563.3691,-195.8849C552.0069,-178.8088 526.0349,-143.1005 495.5,-123 466.8959,-104.1705 430.742,-91.5832 400.7615,-83.5689"/>
<polygon fill="#191970" stroke="#191970" points="401.407,-80.1212 390.8507,-81.024 399.666,-86.9012 401.407,-80.1212"/>
</g>
<!-- Node6&#45;&gt;Node8 -->
<g id="edge8" class="edge">
<title>Node6&#45;&gt;Node8</title>
<path fill="none" stroke="#191970" d="M497.2336,-198.4776C417.5678,-190.1848 285.8025,-174.8383 173.5,-154 167.7393,-152.9311 161.7201,-151.6689 155.7768,-150.3337"/>
<polygon fill="#191970" stroke="#191970" points="156.4382,-146.8942 145.9054,-148.039 154.8531,-153.7124 156.4382,-146.8942"/>
</g>
<!-- Node6&#45;&gt;Node9 -->
<g id="edge12" class="edge">
<title>Node6&#45;&gt;Node9</title>
<path fill="none" stroke="#191970" d="M523.8494,-195.9717C466.0525,-183.9082 366.5292,-163.1354 304.2874,-150.1441"/>
<polygon fill="#191970" stroke="#191970" points="304.7569,-146.6667 294.2527,-148.0496 303.3266,-153.5191 304.7569,-146.6667"/>
</g>
<!-- Node6&#45;&gt;Node10 -->
<g id="edge14" class="edge">
<title>Node6&#45;&gt;Node10</title>
<path fill="none" stroke="#191970" d="M629.7986,-195.9717C707.164,-183.7465 841.132,-162.577 923.0906,-149.626"/>
<polygon fill="#191970" stroke="#191970" points="923.7354,-153.0676 933.0666,-148.0496 922.6428,-146.1534 923.7354,-153.0676"/>
</g>
<!-- Node6&#45;&gt;Node16 -->
<g id="edge26" class="edge">
<title>Node6&#45;&gt;Node16</title>
<path fill="none" stroke="#191970" d="M549.2981,-195.9005C525.321,-184.5072 485.1479,-165.4178 457.7679,-152.4075"/>
<polygon fill="#191970" stroke="#191970" points="459.1987,-149.2123 448.6644,-148.0817 456.1944,-155.5348 459.1987,-149.2123"/>
</g>
<!-- Node6&#45;&gt;Node17 -->
<g id="edge28" class="edge">
<title>Node6&#45;&gt;Node17</title>
<path fill="none" stroke="#191970" d="M573.7983,-195.9005C577.6715,-187.2503 583.5311,-174.164 588.6777,-162.6699"/>
<polygon fill="#191970" stroke="#191970" points="591.8815,-164.079 592.7738,-153.5218 585.4927,-161.2183 591.8815,-164.079"/>
</g>
<!-- Node6&#45;&gt;Node18 -->
<g id="edge29" class="edge">
<title>Node6&#45;&gt;Node18</title>
<path fill="none" stroke="#191970" d="M593.427,-195.9005C618.4377,-185.8663 658.3272,-169.8627 689.6409,-157.2997"/>
<polygon fill="#191970" stroke="#191970" points="691.08,-160.4936 699.0577,-153.5218 688.4735,-153.997 691.08,-160.4936"/>
</g>
<!-- Node8&#45;&gt;Node3 -->
<g id="edge10" class="edge">
<title>Node8&#45;&gt;Node3</title>
<path fill="none" stroke="#191970" d="M130.2315,-148.0117C163.9245,-165.7562 231.8924,-203.6735 294.5,-221 360.3593,-239.2264 544.3817,-253.8914 653.1523,-261.4404"/>
<polygon fill="#191970" stroke="#191970" points="653.2203,-264.9533 663.4371,-262.1486 653.7012,-257.9698 653.2203,-264.9533"/>
</g>
<!-- Node8&#45;&gt;Node4 -->
<g id="edge9" class="edge">
<title>Node8&#45;&gt;Node4</title>
<path fill="none" stroke="#191970" d="M103.6257,-128.9005C97.4148,-118.751 87.4665,-102.4941 79.7401,-89.8679"/>
<polygon fill="#191970" stroke="#191970" points="82.5685,-87.7844 74.3634,-81.0817 76.5977,-91.4382 82.5685,-87.7844"/>
</g>
<!-- Node8&#45;&gt;Node7 -->
<g id="edge11" class="edge">
<title>Node8&#45;&gt;Node7</title>
<path fill="none" stroke="#191970" d="M142.8832,-128.9005C184.0621,-117.0594 254.1498,-96.9054 299.3689,-83.9025"/>
<polygon fill="#191970" stroke="#191970" points="300.5354,-87.209 309.1787,-81.0817 298.6009,-80.4816 300.5354,-87.209"/>
</g>
<!-- Node9&#45;&gt;Node3 -->
<g id="edge13" class="edge">
<title>Node9&#45;&gt;Node3</title>
<path fill="none" stroke="#191970" d="M259.7563,-148.2244C275.3084,-166.1504 303.1168,-204.1134 337.5,-221 391.7028,-247.6206 552.8757,-259.1535 653.0727,-263.9093"/>
<polygon fill="#191970" stroke="#191970" points="653.0227,-267.4107 663.1735,-264.3757 653.3456,-260.4181 653.0227,-267.4107"/>
</g>
<!-- Node10&#45;&gt;Node3 -->
<g id="edge15" class="edge">
<title>Node10&#45;&gt;Node3</title>
<path fill="none" stroke="#191970" d="M992.6167,-148.0649C984.7097,-165.3869 957.6914,-201.9202 925.5,-221 893.8063,-239.7848 854.5601,-250.9644 820.0113,-257.5857"/>
<polygon fill="#191970" stroke="#191970" points="819.1431,-254.186 809.9292,-259.4162 820.3936,-261.0734 819.1431,-254.186"/>
</g>
<!-- Node11 -->
<g id="node12" class="node">
<title>Node11</title>
<g id="a_node12"><a xlink:href="constraints__hard_8h.html" target="_top" xlink:title="Functions and data structures for handling of secondary structure hard constraints. ">
<polygon fill="none" stroke="#000000" points="638.5,-56.5 638.5,-86.5 756.5,-86.5 756.5,-56.5 638.5,-56.5"/>
<text text-anchor="start" x="646.5" y="-74.5" font-family="Helvetica,sans-Serif" font-size="10.00" fill="#000000">ViennaRNA/constraints</text>
<text text-anchor="middle" x="697.5" y="-63.5" font-family="Helvetica,sans-Serif" font-size="10.00" fill="#000000">_hard.h</text>
</a>
</g>
</g>
<!-- Node10&#45;&gt;Node11 -->
<g id="edge16" class="edge">
<title>Node10&#45;&gt;Node11</title>
<path fill="none" stroke="#191970" d="M951.0528,-128.9383C907.3177,-119.0806 836.8887,-103.1902 766.7314,-87.2773"/>
<polygon fill="#191970" stroke="#191970" points="767.3632,-83.8318 756.8366,-85.0325 765.8143,-90.6583 767.3632,-83.8318"/>
</g>
<!-- Node12 -->
<g id="node13" class="node">
<title>Node12</title>
<g id="a_node13"><a xlink:href="constraints__soft_8h.html" target="_top" xlink:title="Functions and data structures for secondary structure soft constraints. ">
<polygon fill="none" stroke="#000000" points="774.5,-56.5 774.5,-86.5 892.5,-86.5 892.5,-56.5 774.5,-56.5"/>
<text text-anchor="start" x="782.5" y="-74.5" font-family="Helvetica,sans-Serif" font-size="10.00" fill="#000000">ViennaRNA/constraints</text>
<text text-anchor="middle" x="833.5" y="-63.5" font-family="Helvetica,sans-Serif" font-size="10.00" fill="#000000">_soft.h</text>
</a>
</g>
</g>
<!-- Node10&#45;&gt;Node12 -->
<g id="edge18" class="edge">
<title>Node10&#45;&gt;Node12</title>
<path fill="none" stroke="#191970" d="M970.5759,-128.9005C946.7169,-118.9096 908.7253,-103.0006 878.7833,-90.4624"/>
<polygon fill="#191970" stroke="#191970" points="879.9487,-87.156 869.3729,-86.5218 877.2449,-93.6127 879.9487,-87.156"/>
</g>
<!-- Node13 -->
<g id="node14" class="node">
<title>Node13</title>
<g id="a_node14"><a xlink:href="constraints__SHAPE_8h.html" target="_top" xlink:title="This module provides function to incorporate SHAPE reactivity data into the folding recursions by mea...">
<polygon fill="none" stroke="#000000" points="910.5,-56.5 910.5,-86.5 1028.5,-86.5 1028.5,-56.5 910.5,-56.5"/>
<text text-anchor="start" x="918.5" y="-74.5" font-family="Helvetica,sans-Serif" font-size="10.00" fill="#000000">ViennaRNA/constraints</text>
<text text-anchor="middle" x="969.5" y="-63.5" font-family="Helvetica,sans-Serif" font-size="10.00" fill="#000000">_SHAPE.h</text>
</a>
</g>
</g>
<!-- Node10&#45;&gt;Node13 -->
<g id="edge20" class="edge">
<title>Node10&#45;&gt;Node13</title>
<path fill="none" stroke="#191970" d="M990.0614,-128.9005C986.9938,-120.3368 982.3687,-107.4252 978.2816,-96.0152"/>
<polygon fill="#191970" stroke="#191970" points="981.5482,-94.7557 974.8809,-86.5218 974.9583,-97.1163 981.5482,-94.7557"/>
</g>
<!-- Node14 -->
<g id="node15" class="node">
<title>Node14</title>
<g id="a_node15"><a xlink:href="perturbation__fold_8h.html" target="_top" xlink:title="Find a vector of perturbation energies that minimizes the discripancies between predicted and observe...">
<polygon fill="none" stroke="#000000" points="1047,-56.5 1047,-86.5 1168,-86.5 1168,-56.5 1047,-56.5"/>
<text text-anchor="start" x="1055" y="-74.5" font-family="Helvetica,sans-Serif" font-size="10.00" fill="#000000">ViennaRNA/perturbation</text>
<text text-anchor="middle" x="1107.5" y="-63.5" font-family="Helvetica,sans-Serif" font-size="10.00" fill="#000000">_fold.h</text>
</a>
</g>
</g>
<!-- Node10&#45;&gt;Node14 -->
<g id="edge22" class="edge">
<title>Node10&#45;&gt;Node14</title>
<path fill="none" stroke="#191970" d="M1009.8334,-128.9005C1026.3178,-119.2123 1052.2707,-103.9593 1073.2808,-91.6113"/>
<polygon fill="#191970" stroke="#191970" points="1075.0927,-94.6062 1081.9406,-86.5218 1071.5459,-88.5713 1075.0927,-94.6062"/>
</g>
<!-- Node15 -->
<g id="node16" class="node">
<title>Node15</title>
<g id="a_node16"><a xlink:href="constraints__ligand_8h.html" target="_top" xlink:title="Functions for incorporation of ligands binding to hairpin and interior loop motifs using the soft con...">
<polygon fill="none" stroke="#000000" points="1186.5,-56.5 1186.5,-86.5 1304.5,-86.5 1304.5,-56.5 1186.5,-56.5"/>
<text text-anchor="start" x="1194.5" y="-74.5" font-family="Helvetica,sans-Serif" font-size="10.00" fill="#000000">ViennaRNA/constraints</text>
<text text-anchor="middle" x="1245.5" y="-63.5" font-family="Helvetica,sans-Serif" font-size="10.00" fill="#000000">_ligand.h</text>
</a>
</g>
</g>
<!-- Node10&#45;&gt;Node15 -->
<g id="edge24" class="edge">
<title>Node10&#45;&gt;Node15</title>
<path fill="none" stroke="#191970" d="M1029.3378,-128.9717C1068.2384,-118.6291 1131.2169,-101.8848 1179.1861,-89.1311"/>
<polygon fill="#191970" stroke="#191970" points="1180.109,-92.5074 1188.8739,-86.5553 1178.3103,-85.7424 1180.109,-92.5074"/>
</g>
<!-- Node11&#45;&gt;Node3 -->
<g id="edge17" class="edge">
<title>Node11&#45;&gt;Node3</title>
<path fill="none" stroke="#191970" d="M756.7855,-85.3984C776.3442,-93.1054 796.0141,-104.9401 807.5,-123 835.256,-166.6423 785.4745,-222.6718 755.9753,-250.2031"/>
<polygon fill="#191970" stroke="#191970" points="753.3361,-247.8713 748.2741,-257.1787 758.0354,-253.0594 753.3361,-247.8713"/>
</g>
<!-- Node12&#45;&gt;Node3 -->
<g id="edge19" class="edge">
<title>Node12&#45;&gt;Node3</title>
<path fill="none" stroke="#191970" d="M834.9875,-86.737C837.0047,-115.7949 837.4214,-179.8916 807.5,-221 797.6683,-234.5076 782.5559,-245.0934 768.7967,-252.687"/>
<polygon fill="#191970" stroke="#191970" points="766.8397,-249.7589 759.5689,-257.4652 770.0584,-255.975 766.8397,-249.7589"/>
</g>
<!-- Node13&#45;&gt;Node3 -->
<g id="edge21" class="edge">
<title>Node13&#45;&gt;Node3</title>
<path fill="none" stroke="#191970" d="M955.2626,-86.7743C920.0038,-124.5919 831.3288,-219.6419 829.5,-221 811.7256,-234.1999 789.5811,-245.3284 771.36,-253.3317"/>
<polygon fill="#191970" stroke="#191970" points="769.7901,-250.1962 761.9641,-257.338 772.5356,-256.6353 769.7901,-250.1962"/>
</g>
<!-- Node14&#45;&gt;Node3 -->
<g id="edge23" class="edge">
<title>Node14&#45;&gt;Node3</title>
<path fill="none" stroke="#191970" d="M1102.6271,-86.6922C1096.324,-104.4785 1083.9205,-134.0386 1065.5,-154 1026.936,-195.7899 1009.3369,-199.98 956.5,-221 912.8646,-238.3594 861.6337,-249.5634 819.5931,-256.5629"/>
<polygon fill="#191970" stroke="#191970" points="818.9817,-253.1162 809.6679,-258.1663 820.0981,-260.0266 818.9817,-253.1162"/>
</g>
<!-- Node15&#45;&gt;Node3 -->
<g id="edge25" class="edge">
<title>Node15&#45;&gt;Node3</title>
<path fill="none" stroke="#191970" d="M1226.7683,-86.6384C1187.7874,-117.2978 1094.0205,-186.7214 1003.5,-221 944.3015,-243.4175 873.5577,-254.9778 819.7665,-260.9008"/>
<polygon fill="#191970" stroke="#191970" points="819.1616,-257.4452 809.585,-261.9772 819.8976,-264.4064 819.1616,-257.4452"/>
</g>
<!-- Node16&#45;&gt;Node3 -->
<g id="edge27" class="edge">
<title>Node16&#45;&gt;Node3</title>
<path fill="none" stroke="#191970" d="M437.8686,-148.265C449.5716,-165.9121 468.8889,-202.9545 497.5,-221 523.4095,-237.3415 595.07,-249.5604 653.2675,-257.282"/>
<polygon fill="#191970" stroke="#191970" points="652.8533,-260.7575 663.2213,-258.5769 653.7563,-253.816 652.8533,-260.7575"/>
</g>
<!-- Node18&#45;&gt;Node3 -->
<g id="edge30" class="edge">
<title>Node18&#45;&gt;Node3</title>
<path fill="none" stroke="#191970" d="M741.0493,-153.7016C743.8136,-176.9952 743.9737,-221.5195 741.5296,-247.2718"/>
<polygon fill="#191970" stroke="#191970" points="738.0383,-246.9852 740.2734,-257.3416 744.9844,-247.8518 738.0383,-246.9852"/>
</g>
<!-- Node19&#45;&gt;Node2 -->
<g id="edge39" class="edge">
<title>Node19&#45;&gt;Node2</title>
<path fill="none" stroke="#191970" d="M1213.8035,-190.2967C1219.8814,-180.3645 1227.8534,-167.3371 1234.2819,-156.8321"/>
<polygon fill="#191970" stroke="#191970" points="1237.4186,-158.4115 1239.6529,-148.055 1231.4478,-154.7578 1237.4186,-158.4115"/>
</g>
<!-- Node19&#45;&gt;Node3 -->
<g id="edge40" class="edge">
<title>Node19&#45;&gt;Node3</title>
<path fill="none" stroke="#191970" d="M1150.2011,-220.1672C1148.6209,-220.4565 1147.0516,-220.7348 1145.5,-221 1033.7168,-240.1083 902.9705,-253.4717 819.8981,-260.6976"/>
<polygon fill="#191970" stroke="#191970" points="819.4205,-257.2256 809.7572,-261.5697 820.0203,-264.1999 819.4205,-257.2256"/>
</g>
</g>
</svg>
