<?xml version="1.0" encoding="UTF-8" standalone="no"?>
<!DOCTYPE svg PUBLIC "-//W3C//DTD SVG 1.1//EN"
 "http://www.w3.org/Graphics/SVG/1.1/DTD/svg11.dtd">
<!-- Generated by graphviz version 2.40.1 (20161225.0304)
 -->
<!-- Title: ViennaRNA/loop_energies.h Pages: 1 -->
<!--zoomable 531 -->
<svg id="main" version="1.1" xmlns="http://www.w3.org/2000/svg" xmlns:xlink="http://www.w3.org/1999/xlink" xml:space="preserve" onload="init(evt)">
<style type="text/css"><![CDATA[
.edge:hover path { stroke: red; }
.edge:hover polygon { stroke: red; fill: red; }
]]></style>
<script type="text/javascript"><![CDATA[
var edges = document.getElementsByTagName('g');
if (edges && edges.length) {
  for (var i=0;i<edges.length;i++) {
    if (edges[i].id.substr(0,4)=='edge') {
      edges[i].setAttribute('class','edge');
    }
  }
}
]]></script>
        <defs>
                <circle id="rim" cx="0" cy="0" r="7"/>
                <circle id="rim2" cx="0" cy="0" r="3.5"/>
                <g id="zoomPlus">
                        <use xlink:href="#rim" fill="#404040">
                                <set attributeName="fill" to="#808080" begin="zoomplus.mouseover" end="zoomplus.mouseout"/>
                        </use>
                        <path d="M-4,0h8M0,-4v8" fill="none" stroke="white" stroke-width="1.5" pointer-events="none"/>
                </g>
                <g id="zoomMin">
                        <use xlink:href="#rim" fill="#404040">
                                <set attributeName="fill" to="#808080" begin="zoomminus.mouseover" end="zoomminus.mouseout"/>
                        </use>
                        <path d="M-4,0h8" fill="none" stroke="white" stroke-width="1.5" pointer-events="none"/>
                </g>
                <g id="dirArrow">
                        <path fill="none" stroke="white" stroke-width="1.5" d="M0,-3.0v7 M-2.5,-0.5L0,-3.0L2.5,-0.5"/>
                </g>
               <g id="resetDef">
                       <use xlink:href="#rim2" fill="#404040">
                               <set attributeName="fill" to="#808080" begin="reset.mouseover" end="reset.mouseout"/>
                       </use>
               </g>
        </defs>

<script type="text/javascript">
var viewWidth = 1409;
var viewHeight = 531;
var sectionId = 'dynsection-0';
</script>
<script xlink:href="svgpan.js"/>
<svg id="graph" class="graph">
<g id="viewport">
<title>ViennaRNA/loop_energies.h</title>
<!-- Node0 -->
<g id="node1" class="node">
<title>Node0</title>
<polygon fill="#bfbfbf" stroke="#000000" points="390,-503.5 390,-522.5 528,-522.5 528,-503.5 390,-503.5"/>
<text text-anchor="middle" x="459" y="-510.5" font-family="Helvetica,sans-Serif" font-size="10.00" fill="#000000">ViennaRNA/loop_energies.h</text>
</g>
<!-- Node1 -->
<g id="node2" class="node">
<title>Node1</title>
<g id="a_node2"><a xlink:href="exterior__loops_8h.html" target="_top" xlink:title="Energy evaluation of exterior loops for MFE and partition function calculations. ">
<polygon fill="none" stroke="#000000" points="91,-313.5 91,-343.5 193,-343.5 193,-313.5 91,-313.5"/>
<text text-anchor="start" x="99" y="-331.5" font-family="Helvetica,sans-Serif" font-size="10.00" fill="#000000">ViennaRNA/exterior</text>
<text text-anchor="middle" x="142" y="-320.5" font-family="Helvetica,sans-Serif" font-size="10.00" fill="#000000">_loops.h</text>
</a>
</g>
</g>
<!-- Node0&#45;&gt;Node1 -->
<g id="edge1" class="edge">
<title>Node0&#45;&gt;Node1</title>
<path fill="none" stroke="#191970" d="M399.8492,-503.4454C350.3055,-494.6862 284.0913,-480.9873 261,-467 213.5741,-438.2723 175.4044,-384.148 155.9811,-352.7404"/>
<polygon fill="#191970" stroke="#191970" points="158.7321,-350.5254 150.5655,-343.7758 152.7406,-354.145 158.7321,-350.5254"/>
</g>
<!-- Node20 -->
<g id="node21" class="node">
<title>Node20</title>
<g id="a_node21"><a xlink:href="hairpin__loops_8h.html" target="_top" xlink:title="Energy evaluation of hairpin loops for MFE and partition function calculations. ">
<polygon fill="none" stroke="#000000" points="634.5,-442 634.5,-461 769.5,-461 769.5,-442 634.5,-442"/>
<text text-anchor="middle" x="702" y="-449" font-family="Helvetica,sans-Serif" font-size="10.00" fill="#000000">ViennaRNA/hairpin_loops.h</text>
</a>
</g>
</g>
<!-- Node0&#45;&gt;Node20 -->
<g id="edge41" class="edge">
<title>Node0&#45;&gt;Node20</title>
<path fill="none" stroke="#191970" d="M496.7021,-503.4581C539.1772,-492.7082 608.292,-475.2162 654.4413,-463.5365"/>
<polygon fill="#191970" stroke="#191970" points="655.3738,-466.9109 664.2094,-461.0643 653.6563,-460.1248 655.3738,-466.9109"/>
</g>
<!-- Node28 -->
<g id="node29" class="node">
<title>Node28</title>
<g id="a_node29"><a xlink:href="interior__loops_8h.html" target="_top" xlink:title="Energy evaluation of interior loops for MFE and partition function calculations. ">
<polygon fill="none" stroke="#000000" points="501.5,-436.5 501.5,-466.5 600.5,-466.5 600.5,-436.5 501.5,-436.5"/>
<text text-anchor="start" x="509.5" y="-454.5" font-family="Helvetica,sans-Serif" font-size="10.00" fill="#000000">ViennaRNA/interior</text>
<text text-anchor="middle" x="551" y="-443.5" font-family="Helvetica,sans-Serif" font-size="10.00" fill="#000000">_loops.h</text>
</a>
</g>
</g>
<!-- Node0&#45;&gt;Node28 -->
<g id="edge57" class="edge">
<title>Node0&#45;&gt;Node28</title>
<path fill="none" stroke="#191970" d="M473.375,-503.3906C485.8261,-495.0673 504.2686,-482.7389 520.0534,-472.1872"/>
<polygon fill="#191970" stroke="#191970" points="522.1258,-475.0118 528.4943,-466.5446 518.2356,-469.1923 522.1258,-475.0118"/>
</g>
<!-- Node30 -->
<g id="node31" class="node">
<title>Node30</title>
<g id="a_node31"><a xlink:href="multibranch__loops_8h.html" target="_top" xlink:title="Energy evaluation of multibranch loops for MFE and partition function calculations. ">
<polygon fill="none" stroke="#000000" points="270,-436.5 270,-466.5 390,-466.5 390,-436.5 270,-436.5"/>
<text text-anchor="start" x="278" y="-454.5" font-family="Helvetica,sans-Serif" font-size="10.00" fill="#000000">ViennaRNA/multibranch</text>
<text text-anchor="middle" x="330" y="-443.5" font-family="Helvetica,sans-Serif" font-size="10.00" fill="#000000">_loops.h</text>
</a>
</g>
</g>
<!-- Node0&#45;&gt;Node30 -->
<g id="edge64" class="edge">
<title>Node0&#45;&gt;Node30</title>
<path fill="none" stroke="#191970" d="M438.8438,-503.3906C420.6577,-494.7205 393.3559,-481.7046 370.6463,-470.8779"/>
<polygon fill="#191970" stroke="#191970" points="372.0898,-467.6887 361.557,-466.5446 369.0774,-474.0074 372.0898,-467.6887"/>
</g>
<!-- Node2 -->
<g id="node3" class="node">
<title>Node2</title>
<g id="a_node3"><a xlink:href="data__structures_8h.html" target="_top" xlink:title="Various data structures and pre&#45;processor macros. ">
<polygon fill="none" stroke="#000000" points="692,-257.5 692,-276.5 838,-276.5 838,-257.5 692,-257.5"/>
<text text-anchor="middle" x="765" y="-264.5" font-family="Helvetica,sans-Serif" font-size="10.00" fill="#000000">ViennaRNA/data_structures.h</text>
</a>
</g>
</g>
<!-- Node1&#45;&gt;Node2 -->
<g id="edge2" class="edge">
<title>Node1&#45;&gt;Node2</title>
<path fill="none" stroke="#191970" d="M193.2474,-323.4411C300.8324,-312.8207 551.0584,-288.1194 681.9068,-275.2026"/>
<polygon fill="#191970" stroke="#191970" points="682.278,-278.6831 691.8857,-274.2175 681.5903,-271.7169 682.278,-278.6831"/>
</g>
<!-- Node7 -->
<g id="node8" class="node">
<title>Node7</title>
<g id="a_node8"><a xlink:href="params_8h.html" target="_top" xlink:title="Functions to deal with sets of energy parameters. ">
<polygon fill="none" stroke="#000000" points="123,-129 123,-148 233,-148 233,-129 123,-129"/>
<text text-anchor="middle" x="178" y="-136" font-family="Helvetica,sans-Serif" font-size="10.00" fill="#000000">ViennaRNA/params.h</text>
</a>
</g>
</g>
<!-- Node1&#45;&gt;Node7 -->
<g id="edge40" class="edge">
<title>Node1&#45;&gt;Node7</title>
<path fill="none" stroke="#191970" d="M144.8852,-313.2727C151.3568,-279.1167 167.028,-196.408 174.246,-158.313"/>
<polygon fill="#191970" stroke="#191970" points="177.7722,-158.5026 176.1951,-148.0258 170.8946,-157.1994 177.7722,-158.5026"/>
</g>
<!-- Node3 -->
<g id="node4" class="node">
<title>Node3</title>
<g id="a_node4"><a xlink:href="energy__const_8h.html" target="_top" xlink:title="Energy parameter constants. ">
<polygon fill="none" stroke="#000000" points="109.5,-62 109.5,-81 246.5,-81 246.5,-62 109.5,-62"/>
<text text-anchor="middle" x="178" y="-69" font-family="Helvetica,sans-Serif" font-size="10.00" fill="#000000">ViennaRNA/energy_const.h</text>
</a>
</g>
</g>
<!-- Node2&#45;&gt;Node3 -->
<g id="edge3" class="edge">
<title>Node2&#45;&gt;Node3</title>
<path fill="none" stroke="#191970" d="M691.8237,-260.3753C608.2146,-252.2062 476.9023,-237.3778 430,-221 381.6362,-204.1119 253.3919,-121.261 200.8944,-86.6926"/>
<polygon fill="#191970" stroke="#191970" points="202.5649,-83.6015 192.2912,-81.0129 198.7082,-89.4433 202.5649,-83.6015"/>
</g>
<!-- Node5 -->
<g id="node6" class="node">
<title>Node5</title>
<g id="a_node6"><a xlink:href="fold__compound_8h.html" target="_top" xlink:title="The Basic Fold Compound API. ">
<polygon fill="none" stroke="#000000" points="584,-196 584,-215 728,-215 728,-196 584,-196"/>
<text text-anchor="middle" x="656" y="-203" font-family="Helvetica,sans-Serif" font-size="10.00" fill="#000000">ViennaRNA/fold_compound.h</text>
</a>
</g>
</g>
<!-- Node2&#45;&gt;Node5 -->
<g id="edge5" class="edge">
<title>Node2&#45;&gt;Node5</title>
<path fill="none" stroke="#191970" d="M747.9688,-257.3906C730.211,-247.3713 702.167,-231.5483 681.7118,-220.0071"/>
<polygon fill="#191970" stroke="#191970" points="683.3409,-216.9077 672.9117,-215.0419 679.9011,-223.0042 683.3409,-216.9077"/>
</g>
<!-- Node6 -->
<g id="node7" class="node">
<title>Node6</title>
<g id="a_node7"><a xlink:href="model_8h.html" target="_top" xlink:title="The model details data structure and its corresponding modifiers. ">
<polygon fill="none" stroke="#000000" points="342,-62 342,-81 446,-81 446,-62 342,-62"/>
<text text-anchor="middle" x="394" y="-69" font-family="Helvetica,sans-Serif" font-size="10.00" fill="#000000">ViennaRNA/model.h</text>
</a>
</g>
</g>
<!-- Node2&#45;&gt;Node6 -->
<g id="edge30" class="edge">
<title>Node2&#45;&gt;Node6</title>
<path fill="none" stroke="#191970" d="M691.6461,-260.8019C649.6948,-254.9025 597.1948,-243.4025 555,-221 499.1905,-191.369 498.5206,-165.7613 452,-123 439.0761,-111.1204 424.2748,-97.9854 412.8594,-87.9539"/>
<polygon fill="#191970" stroke="#191970" points="415.0485,-85.2185 405.2208,-81.2602 410.435,-90.4832 415.0485,-85.2185"/>
</g>
<!-- Node2&#45;&gt;Node7 -->
<g id="edge31" class="edge">
<title>Node2&#45;&gt;Node7</title>
<path fill="none" stroke="#191970" d="M691.8217,-264.0847C612.8713,-259.5564 484.2711,-248.2984 377,-221 310.8183,-204.158 237.4492,-171.5447 200.8848,-152.7614"/>
<polygon fill="#191970" stroke="#191970" points="202.4742,-149.6428 191.9955,-148.0783 199.2115,-155.8359 202.4742,-149.6428"/>
</g>
<!-- Node8 -->
<g id="node9" class="node">
<title>Node8</title>
<g id="a_node9"><a xlink:href="dp__matrices_8h.html" target="_top" xlink:title="Functions to deal with standard dynamic programming (DP) matrices. ">
<polygon fill="none" stroke="#000000" points="887.5,-129 887.5,-148 1018.5,-148 1018.5,-129 887.5,-129"/>
<text text-anchor="middle" x="953" y="-136" font-family="Helvetica,sans-Serif" font-size="10.00" fill="#000000">ViennaRNA/dp_matrices.h</text>
</a>
</g>
</g>
<!-- Node2&#45;&gt;Node8 -->
<g id="edge32" class="edge">
<title>Node2&#45;&gt;Node8</title>
<path fill="none" stroke="#191970" d="M788.9646,-257.3392C809.9543,-249.5686 840.3113,-237.2661 864,-221 890.9564,-202.4901 916.1877,-173.8652 933.2154,-155.6642"/>
<polygon fill="#191970" stroke="#191970" points="936.0579,-157.7558 940.4384,-148.1089 930.9981,-152.9185 936.0579,-157.7558"/>
</g>
<!-- Node9 -->
<g id="node10" class="node">
<title>Node9</title>
<g id="a_node10"><a xlink:href="constraints_8h.html" target="_top" xlink:title="Functions and data structures for constraining secondary structure predictions and evaluation...">
<polygon fill="none" stroke="#000000" points="1075,-129 1075,-148 1201,-148 1201,-129 1075,-129"/>
<text text-anchor="middle" x="1138" y="-136" font-family="Helvetica,sans-Serif" font-size="10.00" fill="#000000">ViennaRNA/constraints.h</text>
</a>
</g>
</g>
<!-- Node2&#45;&gt;Node9 -->
<g id="edge33" class="edge">
<title>Node2&#45;&gt;Node9</title>
<path fill="none" stroke="#191970" d="M815.0357,-257.4722C854.5164,-249.8338 910.4734,-237.6362 958,-221 965.3251,-218.4359 1054.4462,-174.9815 1104.6145,-152.1977"/>
<polygon fill="#191970" stroke="#191970" points="1106.1131,-155.3614 1113.7966,-148.0666 1103.241,-148.9777 1106.1131,-155.3614"/>
</g>
<!-- Node15 -->
<g id="node16" class="node">
<title>Node15</title>
<g id="a_node16"><a xlink:href="grammar_8h.html" target="_top" xlink:title="Implementations for the RNA folding grammar. ">
<polygon fill="none" stroke="#000000" points="327,-129 327,-148 443,-148 443,-129 327,-129"/>
<text text-anchor="middle" x="385" y="-136" font-family="Helvetica,sans-Serif" font-size="10.00" fill="#000000">ViennaRNA/grammar.h</text>
</a>
</g>
</g>
<!-- Node2&#45;&gt;Node15 -->
<g id="edge34" class="edge">
<title>Node2&#45;&gt;Node15</title>
<path fill="none" stroke="#191970" d="M691.8529,-260.512C617.6555,-252.778 508.7369,-238.6533 471,-221 438.2044,-205.6582 408.052,-175.5984 393.3109,-156.3106"/>
<polygon fill="#191970" stroke="#191970" points="396.128,-154.2319 387.5176,-148.0585 390.3989,-158.254 396.128,-154.2319"/>
</g>
<!-- Node16 -->
<g id="node17" class="node">
<title>Node16</title>
<g id="a_node17"><a xlink:href="structured__domains_8h.html" target="_top" xlink:title="This module provides interfaces that deal with additional structured domains in the folding grammar...">
<polygon fill="none" stroke="#000000" points="499.5,-123.5 499.5,-153.5 612.5,-153.5 612.5,-123.5 499.5,-123.5"/>
<text text-anchor="start" x="507.5" y="-141.5" font-family="Helvetica,sans-Serif" font-size="10.00" fill="#000000">ViennaRNA/structured</text>
<text text-anchor="middle" x="556" y="-130.5" font-family="Helvetica,sans-Serif" font-size="10.00" fill="#000000">_domains.h</text>
</a>
</g>
</g>
<!-- Node2&#45;&gt;Node16 -->
<g id="edge35" class="edge">
<title>Node2&#45;&gt;Node16</title>
<path fill="none" stroke="#191970" d="M692.609,-257.4674C646.1751,-249.8921 591.5855,-237.772 575,-221 560.2101,-206.0438 556.0183,-182.0277 555.1975,-163.7548"/>
<polygon fill="#191970" stroke="#191970" points="558.6938,-163.4618 555.053,-153.5122 551.6945,-163.5606 558.6938,-163.4618"/>
</g>
<!-- Node17 -->
<g id="node18" class="node">
<title>Node17</title>
<g id="a_node18"><a xlink:href="unstructured__domains_8h.html" target="_top" xlink:title="Functions to modify unstructured domains, e.g. to incorporate ligands binding to unpaired stretches...">
<polygon fill="none" stroke="#000000" points="669,-123.5 669,-153.5 793,-153.5 793,-123.5 669,-123.5"/>
<text text-anchor="start" x="677" y="-141.5" font-family="Helvetica,sans-Serif" font-size="10.00" fill="#000000">ViennaRNA/unstructured</text>
<text text-anchor="middle" x="731" y="-130.5" font-family="Helvetica,sans-Serif" font-size="10.00" fill="#000000">_domains.h</text>
</a>
</g>
</g>
<!-- Node2&#45;&gt;Node17 -->
<g id="edge36" class="edge">
<title>Node2&#45;&gt;Node17</title>
<path fill="none" stroke="#191970" d="M758.6711,-257.3416C750.1948,-237.6745 737.6473,-192.4221 732.1928,-163.7784"/>
<polygon fill="#191970" stroke="#191970" points="735.6055,-162.9702 730.4729,-153.7016 728.7053,-164.148 735.6055,-162.9702"/>
</g>
<!-- Node18 -->
<g id="node19" class="node">
<title>Node18</title>
<g id="a_node19"><a xlink:href="structure__utils_8h.html" target="_top" xlink:title="Various utility&#45; and helper&#45;functions for secondary structure parsing, converting, etc. ">
<polygon fill="none" stroke="#000000" points="1113,-190.5 1113,-220.5 1221,-220.5 1221,-190.5 1113,-190.5"/>
<text text-anchor="start" x="1121" y="-208.5" font-family="Helvetica,sans-Serif" font-size="10.00" fill="#000000">ViennaRNA/structure</text>
<text text-anchor="middle" x="1167" y="-197.5" font-family="Helvetica,sans-Serif" font-size="10.00" fill="#000000">_utils.h</text>
</a>
</g>
</g>
<!-- Node2&#45;&gt;Node18 -->
<g id="edge37" class="edge">
<title>Node2&#45;&gt;Node18</title>
<path fill="none" stroke="#191970" d="M838.0844,-257.9371C904.1344,-249.8013 1003.77,-236.7347 1090,-221 1094.1542,-220.242 1098.4385,-219.4028 1102.7632,-218.5187"/>
<polygon fill="#191970" stroke="#191970" points="1103.8189,-221.8734 1112.8851,-216.3912 1102.3789,-215.0231 1103.8189,-221.8734"/>
</g>
<!-- Node4 -->
<g id="node5" class="node">
<title>Node4</title>
<polygon fill="none" stroke="#bfbfbf" points="154,-.5 154,-19.5 202,-19.5 202,-.5 154,-.5"/>
<text text-anchor="middle" x="178" y="-7.5" font-family="Helvetica,sans-Serif" font-size="10.00" fill="#000000">limits.h</text>
</g>
<!-- Node3&#45;&gt;Node4 -->
<g id="edge4" class="edge">
<title>Node3&#45;&gt;Node4</title>
<path fill="none" stroke="#191970" d="M178,-61.8906C178,-53.3657 178,-40.6392 178,-29.9235"/>
<polygon fill="#191970" stroke="#191970" points="181.5001,-29.7448 178,-19.7449 174.5001,-29.7449 181.5001,-29.7448"/>
</g>
<!-- Node5&#45;&gt;Node6 -->
<g id="edge6" class="edge">
<title>Node5&#45;&gt;Node6</title>
<path fill="none" stroke="#191970" d="M654.9105,-195.936C652.4087,-178.6156 644.6114,-142.0847 622,-123 597.2287,-102.0923 514.5815,-87.2233 455.9409,-78.9985"/>
<polygon fill="#191970" stroke="#191970" points="456.4034,-75.5292 446.0205,-77.6378 455.4521,-82.4643 456.4034,-75.5292"/>
</g>
<!-- Node5&#45;&gt;Node7 -->
<g id="edge7" class="edge">
<title>Node5&#45;&gt;Node7</title>
<path fill="none" stroke="#191970" d="M588.0219,-195.9717C496.1939,-183.1004 333.6316,-160.3145 243.2368,-147.6441"/>
<polygon fill="#191970" stroke="#191970" points="243.5043,-144.1474 233.1152,-146.2254 242.5325,-151.0797 243.5043,-144.1474"/>
</g>
<!-- Node5&#45;&gt;Node8 -->
<g id="edge11" class="edge">
<title>Node5&#45;&gt;Node8</title>
<path fill="none" stroke="#191970" d="M698.2374,-195.9717C751.417,-183.975 842.777,-163.3651 900.4239,-150.3606"/>
<polygon fill="#191970" stroke="#191970" points="901.4428,-153.7188 910.4274,-148.1039 899.9023,-146.8904 901.4428,-153.7188"/>
</g>
<!-- Node5&#45;&gt;Node9 -->
<g id="edge13" class="edge">
<title>Node5&#45;&gt;Node9</title>
<path fill="none" stroke="#191970" d="M725.2537,-195.9635C799.9654,-185.6634 922.424,-168.7463 1028,-154 1039.8632,-152.343 1052.4448,-150.5777 1064.698,-148.8541"/>
<polygon fill="#191970" stroke="#191970" points="1065.4759,-152.2792 1074.8904,-147.4194 1064.5001,-145.3475 1065.4759,-152.2792"/>
</g>
<!-- Node5&#45;&gt;Node15 -->
<g id="edge25" class="edge">
<title>Node5&#45;&gt;Node15</title>
<path fill="none" stroke="#191970" d="M617.4601,-195.9717C569.1369,-184.0246 486.2636,-163.5357 433.6284,-150.5225"/>
<polygon fill="#191970" stroke="#191970" points="434.3935,-147.1064 423.8457,-148.1039 432.7134,-153.9018 434.3935,-147.1064"/>
</g>
<!-- Node5&#45;&gt;Node16 -->
<g id="edge27" class="edge">
<title>Node5&#45;&gt;Node16</title>
<path fill="none" stroke="#191970" d="M641.6724,-195.9005C627.4706,-186.3853 605.2572,-171.5023 587.0082,-159.2755"/>
<polygon fill="#191970" stroke="#191970" points="588.6764,-156.1803 578.4205,-153.5218 584.7801,-161.9957 588.6764,-156.1803"/>
</g>
<!-- Node5&#45;&gt;Node17 -->
<g id="edge28" class="edge">
<title>Node5&#45;&gt;Node17</title>
<path fill="none" stroke="#191970" d="M666.7457,-195.9005C677.1065,-186.6448 693.1529,-172.3101 706.6176,-160.2816"/>
<polygon fill="#191970" stroke="#191970" points="709.0587,-162.7941 714.1846,-153.5218 704.3952,-157.5738 709.0587,-162.7941"/>
</g>
<!-- Node7&#45;&gt;Node2 -->
<g id="edge9" class="edge">
<title>Node7&#45;&gt;Node2</title>
<path fill="none" stroke="#191970" d="M202.4609,-148.0783C242.279,-165.59 322.9042,-202.653 395,-221 491.6242,-245.589 605.5536,-257.1636 681.2639,-262.5284"/>
<polygon fill="#191970" stroke="#191970" points="681.471,-266.0508 691.6875,-263.2449 681.9511,-259.0673 681.471,-266.0508"/>
</g>
<!-- Node7&#45;&gt;Node3 -->
<g id="edge8" class="edge">
<title>Node7&#45;&gt;Node3</title>
<path fill="none" stroke="#191970" d="M178,-128.9005C178,-119.149 178,-103.7597 178,-91.3695"/>
<polygon fill="#191970" stroke="#191970" points="181.5001,-91.0816 178,-81.0817 174.5001,-91.0817 181.5001,-91.0816"/>
</g>
<!-- Node7&#45;&gt;Node6 -->
<g id="edge10" class="edge">
<title>Node7&#45;&gt;Node6</title>
<path fill="none" stroke="#191970" d="M208.9475,-128.9005C246.9616,-117.1091 311.5504,-97.0746 353.4862,-84.0668"/>
<polygon fill="#191970" stroke="#191970" points="354.5957,-87.3872 363.1099,-81.0817 352.5219,-80.7015 354.5957,-87.3872"/>
</g>
<!-- Node8&#45;&gt;Node2 -->
<g id="edge12" class="edge">
<title>Node8&#45;&gt;Node2</title>
<path fill="none" stroke="#191970" d="M951.195,-148.1089C941.8757,-164.86 913.0848,-199.6552 882,-221 861.2918,-235.2195 835.4877,-246.4101 813.2909,-254.1921"/>
<polygon fill="#191970" stroke="#191970" points="812.0617,-250.9129 803.702,-257.4217 814.2961,-257.5467 812.0617,-250.9129"/>
</g>
<!-- Node9&#45;&gt;Node2 -->
<g id="edge14" class="edge">
<title>Node9&#45;&gt;Node2</title>
<path fill="none" stroke="#191970" d="M1123.149,-148.0666C1084.2734,-169.2105 983.7972,-218.2707 976,-221 932.0936,-236.369 880.9922,-247.9499 840.0122,-255.6474"/>
<polygon fill="#191970" stroke="#191970" points="839.2935,-252.2208 830.0917,-257.4722 840.5599,-259.1053 839.2935,-252.2208"/>
</g>
<!-- Node10 -->
<g id="node11" class="node">
<title>Node10</title>
<g id="a_node11"><a xlink:href="constraints__hard_8h.html" target="_top" xlink:title="Functions and data structures for handling of secondary structure hard constraints. ">
<polygon fill="none" stroke="#000000" points="1011,-56.5 1011,-86.5 1129,-86.5 1129,-56.5 1011,-56.5"/>
<text text-anchor="start" x="1019" y="-74.5" font-family="Helvetica,sans-Serif" font-size="10.00" fill="#000000">ViennaRNA/constraints</text>
<text text-anchor="middle" x="1070" y="-63.5" font-family="Helvetica,sans-Serif" font-size="10.00" fill="#000000">_hard.h</text>
</a>
</g>
</g>
<!-- Node9&#45;&gt;Node10 -->
<g id="edge15" class="edge">
<title>Node9&#45;&gt;Node10</title>
<path fill="none" stroke="#191970" d="M1128.2573,-128.9005C1118.9512,-119.7313 1104.5862,-105.5776 1092.4496,-93.6195"/>
<polygon fill="#191970" stroke="#191970" points="1094.8257,-91.0471 1085.246,-86.5218 1089.9128,-96.0334 1094.8257,-91.0471"/>
</g>
<!-- Node11 -->
<g id="node12" class="node">
<title>Node11</title>
<g id="a_node12"><a xlink:href="constraints__soft_8h.html" target="_top" xlink:title="Functions and data structures for secondary structure soft constraints. ">
<polygon fill="none" stroke="#000000" points="1147,-56.5 1147,-86.5 1265,-86.5 1265,-56.5 1147,-56.5"/>
<text text-anchor="start" x="1155" y="-74.5" font-family="Helvetica,sans-Serif" font-size="10.00" fill="#000000">ViennaRNA/constraints</text>
<text text-anchor="middle" x="1206" y="-63.5" font-family="Helvetica,sans-Serif" font-size="10.00" fill="#000000">_soft.h</text>
</a>
</g>
</g>
<!-- Node9&#45;&gt;Node11 -->
<g id="edge17" class="edge">
<title>Node9&#45;&gt;Node11</title>
<path fill="none" stroke="#191970" d="M1147.7427,-128.9005C1157.0488,-119.7313 1171.4138,-105.5776 1183.5504,-93.6195"/>
<polygon fill="#191970" stroke="#191970" points="1186.0872,-96.0334 1190.754,-86.5218 1181.1743,-91.0471 1186.0872,-96.0334"/>
</g>
<!-- Node12 -->
<g id="node13" class="node">
<title>Node12</title>
<g id="a_node13"><a xlink:href="constraints__SHAPE_8h.html" target="_top" xlink:title="This module provides function to incorporate SHAPE reactivity data into the folding recursions by mea...">
<polygon fill="none" stroke="#000000" points="1283,-56.5 1283,-86.5 1401,-86.5 1401,-56.5 1283,-56.5"/>
<text text-anchor="start" x="1291" y="-74.5" font-family="Helvetica,sans-Serif" font-size="10.00" fill="#000000">ViennaRNA/constraints</text>
<text text-anchor="middle" x="1342" y="-63.5" font-family="Helvetica,sans-Serif" font-size="10.00" fill="#000000">_SHAPE.h</text>
</a>
</g>
</g>
<!-- Node9&#45;&gt;Node12 -->
<g id="edge19" class="edge">
<title>Node9&#45;&gt;Node12</title>
<path fill="none" stroke="#191970" d="M1167.2282,-128.9005C1198.3069,-118.6933 1248.1931,-102.3091 1286.728,-89.6531"/>
<polygon fill="#191970" stroke="#191970" points="1287.8535,-92.9674 1296.2621,-86.5218 1285.6692,-86.3169 1287.8535,-92.9674"/>
</g>
<!-- Node13 -->
<g id="node14" class="node">
<title>Node13</title>
<g id="a_node14"><a xlink:href="perturbation__fold_8h.html" target="_top" xlink:title="Find a vector of perturbation energies that minimizes the discripancies between predicted and observe...">
<polygon fill="none" stroke="#000000" points="735.5,-56.5 735.5,-86.5 856.5,-86.5 856.5,-56.5 735.5,-56.5"/>
<text text-anchor="start" x="743.5" y="-74.5" font-family="Helvetica,sans-Serif" font-size="10.00" fill="#000000">ViennaRNA/perturbation</text>
<text text-anchor="middle" x="796" y="-63.5" font-family="Helvetica,sans-Serif" font-size="10.00" fill="#000000">_fold.h</text>
</a>
</g>
</g>
<!-- Node9&#45;&gt;Node13 -->
<g id="edge21" class="edge">
<title>Node9&#45;&gt;Node13</title>
<path fill="none" stroke="#191970" d="M1084.9982,-128.9637C1032.2555,-119.3617 948.7544,-103.858 866.6816,-87.1054"/>
<polygon fill="#191970" stroke="#191970" points="867.181,-83.6351 856.6819,-85.0566 865.7759,-90.4927 867.181,-83.6351"/>
</g>
<!-- Node14 -->
<g id="node15" class="node">
<title>Node14</title>
<g id="a_node15"><a xlink:href="constraints__ligand_8h.html" target="_top" xlink:title="Functions for incorporation of ligands binding to hairpin and interior loop motifs using the soft con...">
<polygon fill="none" stroke="#000000" points="875,-56.5 875,-86.5 993,-86.5 993,-56.5 875,-56.5"/>
<text text-anchor="start" x="883" y="-74.5" font-family="Helvetica,sans-Serif" font-size="10.00" fill="#000000">ViennaRNA/constraints</text>
<text text-anchor="middle" x="934" y="-63.5" font-family="Helvetica,sans-Serif" font-size="10.00" fill="#000000">_ligand.h</text>
</a>
</g>
</g>
<!-- Node9&#45;&gt;Node14 -->
<g id="edge23" class="edge">
<title>Node9&#45;&gt;Node14</title>
<path fill="none" stroke="#191970" d="M1108.7718,-128.9005C1077.6931,-118.6933 1027.8069,-102.3091 989.272,-89.6531"/>
<polygon fill="#191970" stroke="#191970" points="990.3308,-86.3169 979.7379,-86.5218 988.1465,-92.9674 990.3308,-86.3169"/>
</g>
<!-- Node10&#45;&gt;Node2 -->
<g id="edge16" class="edge">
<title>Node10&#45;&gt;Node2</title>
<path fill="none" stroke="#191970" d="M1065.2083,-86.7681C1058.9833,-104.6272 1046.6548,-134.2575 1028,-154 1026.7304,-155.3436 914.692,-220.2556 913,-221 880.9442,-235.102 843.2278,-246.755 813.8926,-254.804"/>
<polygon fill="#191970" stroke="#191970" points="812.6343,-251.5182 803.889,-257.4989 814.4552,-258.2772 812.6343,-251.5182"/>
</g>
<!-- Node11&#45;&gt;Node2 -->
<g id="edge18" class="edge">
<title>Node11&#45;&gt;Node2</title>
<path fill="none" stroke="#191970" d="M1212.1026,-86.6492C1218.2611,-104.667 1224.921,-134.7223 1210,-154 1170.9396,-204.4656 1129.5587,-164.6353 1071,-190 1047.3529,-200.2428 1046.0206,-211.6668 1022,-221 966.2499,-242.6618 899.6918,-254.2141 848.2793,-260.3235"/>
<polygon fill="#191970" stroke="#191970" points="847.7445,-256.8617 838.2064,-261.4742 848.539,-263.8165 847.7445,-256.8617"/>
</g>
<!-- Node12&#45;&gt;Node2 -->
<g id="edge20" class="edge">
<title>Node12&#45;&gt;Node2</title>
<path fill="none" stroke="#191970" d="M1325.0564,-86.68C1303.7905,-105.0108 1265.5353,-135.6596 1228,-154 1176.4392,-179.1935 1155.7195,-165.1337 1104,-190 1082.4407,-200.3655 1082.1775,-212.0331 1060,-221 1022.5947,-236.1239 921.5903,-249.8646 848.1709,-258.3116"/>
<polygon fill="#191970" stroke="#191970" points="847.544,-254.8602 838.0036,-259.468 848.3351,-261.8154 847.544,-254.8602"/>
</g>
<!-- Node13&#45;&gt;Node2 -->
<g id="edge22" class="edge">
<title>Node13&#45;&gt;Node2</title>
<path fill="none" stroke="#191970" d="M798.2514,-86.783C799.6415,-97.0078 801.2905,-110.7786 802,-123 802.7985,-136.7546 804.1708,-140.3943 802,-154 796.5529,-188.1403 782.3974,-225.9733 773.259,-248.0559"/>
<polygon fill="#191970" stroke="#191970" points="770.0272,-246.7122 769.3492,-257.2853 776.4727,-249.4427 770.0272,-246.7122"/>
</g>
<!-- Node14&#45;&gt;Node2 -->
<g id="edge24" class="edge">
<title>Node14&#45;&gt;Node2</title>
<path fill="none" stroke="#191970" d="M916.5038,-86.6383C905.3607,-96.5758 890.8467,-110.0805 879,-123 841.5638,-163.8262 836.4703,-177.6405 802,-221 794.5378,-230.3865 786.1681,-240.8015 779.279,-249.3443"/>
<polygon fill="#191970" stroke="#191970" points="776.531,-247.1764 772.972,-257.1556 781.9773,-251.5739 776.531,-247.1764"/>
</g>
<!-- Node15&#45;&gt;Node2 -->
<g id="edge26" class="edge">
<title>Node15&#45;&gt;Node2</title>
<path fill="none" stroke="#191970" d="M397.9238,-148.0585C416.5678,-165.708 451.0105,-203.2285 489,-221 522.6812,-236.7561 613.0663,-249.7012 681.3538,-257.8006"/>
<polygon fill="#191970" stroke="#191970" points="681.346,-261.3234 691.685,-259.0093 682.1595,-254.3709 681.346,-261.3234"/>
</g>
<!-- Node17&#45;&gt;Node2 -->
<g id="edge29" class="edge">
<title>Node17&#45;&gt;Node2</title>
<path fill="none" stroke="#191970" d="M739.5716,-153.7016C748.4991,-176.9952 760.44,-221.5195 764.8096,-247.2718"/>
<polygon fill="#191970" stroke="#191970" points="761.3665,-247.9228 766.2179,-257.3416 768.2991,-246.9532 761.3665,-247.9228"/>
</g>
<!-- Node18&#45;&gt;Node2 -->
<g id="edge39" class="edge">
<title>Node18&#45;&gt;Node2</title>
<path fill="none" stroke="#191970" d="M1112.6928,-220.1204C1111.1151,-220.4236 1109.5485,-220.7174 1108,-221 1020.0492,-237.0487 918.1526,-250.3217 848.3479,-258.4183"/>
<polygon fill="#191970" stroke="#191970" points="847.8219,-254.9556 838.2871,-259.575 848.6215,-261.9098 847.8219,-254.9556"/>
</g>
<!-- Node19 -->
<g id="node20" class="node">
<title>Node19</title>
<polygon fill="none" stroke="#bfbfbf" points="1295,-129 1295,-148 1341,-148 1341,-129 1295,-129"/>
<text text-anchor="middle" x="1318" y="-136" font-family="Helvetica,sans-Serif" font-size="10.00" fill="#000000">stdio.h</text>
</g>
<!-- Node18&#45;&gt;Node19 -->
<g id="edge38" class="edge">
<title>Node18&#45;&gt;Node19</title>
<path fill="none" stroke="#191970" d="M1200.8873,-190.4639C1226.6797,-179.0196 1261.8945,-163.3945 1286.9571,-152.274"/>
<polygon fill="#191970" stroke="#191970" points="1288.6343,-155.359 1296.3553,-148.1039 1285.7952,-148.9605 1288.6343,-155.359"/>
</g>
<!-- Node20&#45;&gt;Node2 -->
<g id="edge55" class="edge">
<title>Node20&#45;&gt;Node2</title>
<path fill="none" stroke="#191970" d="M769.7397,-448.7233C890.2495,-443.083 1131.6795,-428.3481 1157,-400 1182.7581,-371.162 1182.6988,-341.8908 1157,-313 1136.8506,-290.3479 957.2201,-277.0312 848.2396,-270.9683"/>
<polygon fill="#191970" stroke="#191970" points="848.4228,-267.4731 838.2465,-270.4216 848.0403,-274.4627 848.4228,-267.4731"/>
</g>
<!-- Node20&#45;&gt;Node7 -->
<g id="edge56" class="edge">
<title>Node20&#45;&gt;Node7</title>
<path fill="none" stroke="#191970" d="M654.4084,-441.9562C587.861,-427.3367 464.5532,-395.5446 370,-344 328.6782,-321.4739 319.8983,-311.6036 288,-277 256.1643,-242.4643 257.7963,-226.3098 228,-190 218.0197,-177.838 205.7227,-165.1463 195.8213,-155.4054"/>
<polygon fill="#191970" stroke="#191970" points="198.1004,-152.7401 188.4843,-148.2924 193.228,-157.766 198.1004,-152.7401"/>
</g>
<!-- Node21 -->
<g id="node22" class="node">
<title>Node21</title>
<polygon fill="none" stroke="#bfbfbf" points="1314.5,-380.5 1314.5,-399.5 1361.5,-399.5 1361.5,-380.5 1314.5,-380.5"/>
<text text-anchor="middle" x="1338" y="-387.5" font-family="Helvetica,sans-Serif" font-size="10.00" fill="#000000">math.h</text>
</g>
<!-- Node20&#45;&gt;Node21 -->
<g id="edge42" class="edge">
<title>Node20&#45;&gt;Node21</title>
<path fill="none" stroke="#191970" d="M769.5648,-447.5998C900.9259,-439.7201 1187.4268,-421.0072 1304.2752,-399.9256"/>
<polygon fill="#191970" stroke="#191970" points="1305.2089,-403.3111 1314.3825,-398.0106 1303.9057,-396.4334 1305.2089,-403.3111"/>
</g>
<!-- Node22 -->
<g id="node23" class="node">
<title>Node22</title>
<polygon fill="none" stroke="#bfbfbf" points="1247.5,-380.5 1247.5,-399.5 1296.5,-399.5 1296.5,-380.5 1247.5,-380.5"/>
<text text-anchor="middle" x="1272" y="-387.5" font-family="Helvetica,sans-Serif" font-size="10.00" fill="#000000">string.h</text>
</g>
<!-- Node20&#45;&gt;Node22 -->
<g id="edge43" class="edge">
<title>Node20&#45;&gt;Node22</title>
<path fill="none" stroke="#191970" d="M769.5076,-448.2957C870.8094,-442.7349 1067.8845,-428.997 1233,-400 1234.463,-399.7431 1235.9518,-399.4599 1237.452,-399.1566"/>
<polygon fill="#191970" stroke="#191970" points="1238.3785,-402.5358 1247.3675,-396.928 1236.8434,-395.7062 1238.3785,-402.5358"/>
</g>
<!-- Node23 -->
<g id="node24" class="node">
<title>Node23</title>
<g id="a_node24"><a xlink:href="utils_8h.html" target="_top" xlink:title="General utility&#45; and helper&#45;functions used throughout the ViennaRNA Package. ">
<polygon fill="none" stroke="#000000" points="579,-380.5 579,-399.5 675,-399.5 675,-380.5 579,-380.5"/>
<text text-anchor="middle" x="627" y="-387.5" font-family="Helvetica,sans-Serif" font-size="10.00" fill="#000000">ViennaRNA/utils.h</text>
</a>
</g>
</g>
<!-- Node20&#45;&gt;Node23 -->
<g id="edge44" class="edge">
<title>Node20&#45;&gt;Node23</title>
<path fill="none" stroke="#191970" d="M690.2813,-441.8906C678.6812,-432.3786 660.7021,-417.6357 646.8679,-406.2917"/>
<polygon fill="#191970" stroke="#191970" points="648.836,-403.3792 638.884,-399.7449 644.3974,-408.7921 648.836,-403.3792"/>
</g>
<!-- Node23&#45;&gt;Node2 -->
<g id="edge47" class="edge">
<title>Node23&#45;&gt;Node2</title>
<path fill="none" stroke="#191970" d="M660.6451,-380.3395C681.2249,-373.056 706.9721,-361.3165 725,-344 741.8242,-327.8397 752.931,-303.0543 759.081,-285.9923"/>
<polygon fill="#191970" stroke="#191970" points="762.3986,-287.1072 762.2765,-276.5131 755.7654,-284.8711 762.3986,-287.1072"/>
</g>
<!-- Node23&#45;&gt;Node18 -->
<g id="edge51" class="edge">
<title>Node23&#45;&gt;Node18</title>
<path fill="none" stroke="#191970" d="M654.8956,-380.469C740.4112,-351.2512 999.9394,-262.579 1113.1866,-223.8863"/>
<polygon fill="#191970" stroke="#191970" points="1114.3766,-227.1784 1122.7079,-220.6331 1112.1133,-220.5544 1114.3766,-227.1784"/>
</g>
<!-- Node23&#45;&gt;Node19 -->
<g id="edge45" class="edge">
<title>Node23&#45;&gt;Node19</title>
<path fill="none" stroke="#191970" d="M675.0868,-384.7088C781.4909,-371.3194 1042.2916,-329.1338 1230,-221 1259.8985,-203.7763 1287.764,-174.5486 1303.8282,-155.9036"/>
<polygon fill="#191970" stroke="#191970" points="1306.5817,-158.0673 1310.3435,-148.1628 1301.2262,-153.5596 1306.5817,-158.0673"/>
</g>
<!-- Node24 -->
<g id="node25" class="node">
<title>Node24</title>
<polygon fill="none" stroke="#bfbfbf" points="444,-257.5 444,-276.5 496,-276.5 496,-257.5 444,-257.5"/>
<text text-anchor="middle" x="470" y="-264.5" font-family="Helvetica,sans-Serif" font-size="10.00" fill="#000000">stdarg.h</text>
</g>
<!-- Node23&#45;&gt;Node24 -->
<g id="edge46" class="edge">
<title>Node23&#45;&gt;Node24</title>
<path fill="none" stroke="#191970" d="M578.9174,-386.5921C522.0782,-381.4463 432.5818,-369.4511 412,-344 403.3365,-333.2869 406.0054,-325.4053 412,-313 418.2828,-299.9981 430.2235,-289.5481 441.6451,-281.9145"/>
<polygon fill="#191970" stroke="#191970" points="443.5177,-284.8718 450.1759,-276.6305 439.8316,-278.9209 443.5177,-284.8718"/>
</g>
<!-- Node25 -->
<g id="node26" class="node">
<title>Node25</title>
<g id="a_node26"><a xlink:href="string__utils_8h.html" target="_top" xlink:title="General utility&#45; and helper&#45;functions for RNA sequence and structure strings used throughout the Vien...">
<polygon fill="none" stroke="#000000" points="420.5,-319 420.5,-338 545.5,-338 545.5,-319 420.5,-319"/>
<text text-anchor="middle" x="483" y="-326" font-family="Helvetica,sans-Serif" font-size="10.00" fill="#000000">ViennaRNA/string_utils.h</text>
</a>
</g>
</g>
<!-- Node23&#45;&gt;Node25 -->
<g id="edge48" class="edge">
<title>Node23&#45;&gt;Node25</title>
<path fill="none" stroke="#191970" d="M604.5,-380.3906C580.4062,-370.1005 541.9787,-353.6888 514.7992,-342.0809"/>
<polygon fill="#191970" stroke="#191970" points="515.9131,-338.7508 505.342,-338.0419 513.1637,-345.1883 515.9131,-338.7508"/>
</g>
<!-- Node26 -->
<g id="node27" class="node">
<title>Node26</title>
<g id="a_node27"><a xlink:href="file__utils_8h.html" target="_top" xlink:title="Several utilities for file handling. ">
<polygon fill="none" stroke="#000000" points="602,-319 602,-338 716,-338 716,-319 602,-319"/>
<text text-anchor="middle" x="659" y="-326" font-family="Helvetica,sans-Serif" font-size="10.00" fill="#000000">ViennaRNA/file_utils.h</text>
</a>
</g>
</g>
<!-- Node23&#45;&gt;Node26 -->
<g id="edge52" class="edge">
<title>Node23&#45;&gt;Node26</title>
<path fill="none" stroke="#191970" d="M632,-380.3906C636.5758,-371.5965 643.4781,-358.3312 649.1583,-347.4145"/>
<polygon fill="#191970" stroke="#191970" points="652.4185,-348.7314 653.9295,-338.2449 646.2088,-345.5003 652.4185,-348.7314"/>
</g>
<!-- Node27 -->
<g id="node28" class="node">
<title>Node27</title>
<g id="a_node28"><a xlink:href="alphabet_8h.html" target="_top" xlink:title="Functions to process, convert, and generally handle different nucleotide and/or base pair alphabets...">
<polygon fill="none" stroke="#000000" points="296.5,-257.5 296.5,-276.5 411.5,-276.5 411.5,-257.5 296.5,-257.5"/>
<text text-anchor="middle" x="354" y="-264.5" font-family="Helvetica,sans-Serif" font-size="10.00" fill="#000000">ViennaRNA/alphabet.h</text>
</a>
</g>
</g>
<!-- Node23&#45;&gt;Node27 -->
<g id="edge53" class="edge">
<title>Node23&#45;&gt;Node27</title>
<path fill="none" stroke="#191970" d="M578.8161,-384.6521C521.5105,-377.5282 430.0715,-363.5161 402,-344 381.5651,-329.7931 368.0709,-303.794 360.7337,-285.9692"/>
<polygon fill="#191970" stroke="#191970" points="363.9753,-284.6471 357.1192,-276.5697 357.4417,-287.1596 363.9753,-284.6471"/>
</g>
<!-- Node25&#45;&gt;Node2 -->
<g id="edge50" class="edge">
<title>Node25&#45;&gt;Node2</title>
<path fill="none" stroke="#191970" d="M526.7531,-318.9581C576.4585,-308.1181 657.5999,-290.4224 711.1501,-278.7439"/>
<polygon fill="#191970" stroke="#191970" points="712.1197,-282.1148 721.1443,-276.5643 710.6281,-275.2755 712.1197,-282.1148"/>
</g>
<!-- Node25&#45;&gt;Node24 -->
<g id="edge49" class="edge">
<title>Node25&#45;&gt;Node24</title>
<path fill="none" stroke="#191970" d="M480.9688,-318.8906C479.1478,-310.276 476.4198,-297.3708 474.1401,-286.5858"/>
<polygon fill="#191970" stroke="#191970" points="477.5524,-285.8048 472.0599,-276.7449 470.7038,-287.2525 477.5524,-285.8048"/>
</g>
<!-- Node27&#45;&gt;Node6 -->
<g id="edge54" class="edge">
<title>Node27&#45;&gt;Node6</title>
<path fill="none" stroke="#191970" d="M347.0987,-257.3381C330.8543,-233.3087 293.3698,-169.4426 318,-123 326.8642,-106.2856 343.8483,-93.999 359.5163,-85.6276"/>
<polygon fill="#191970" stroke="#191970" points="361.1251,-88.7364 368.5179,-81.1471 358.0059,-82.4697 361.1251,-88.7364"/>
</g>
<!-- Node28&#45;&gt;Node2 -->
<g id="edge61" class="edge">
<title>Node28&#45;&gt;Node2</title>
<path fill="none" stroke="#191970" d="M600.5703,-440.3582C648.4531,-426.6533 718.2499,-398.2149 750,-344 760.2894,-326.4303 763.6767,-303.1215 764.7142,-286.7687"/>
<polygon fill="#191970" stroke="#191970" points="768.2138,-286.8457 765.1131,-276.7148 761.2193,-286.5682 768.2138,-286.8457"/>
</g>
<!-- Node28&#45;&gt;Node7 -->
<g id="edge62" class="edge">
<title>Node28&#45;&gt;Node7</title>
<path fill="none" stroke="#191970" d="M501.2656,-445.2407C442.444,-437.0138 348.974,-421.0965 321,-400 236.2099,-336.0558 258.2944,-282.9898 207,-190 200.9783,-179.0835 194.1402,-166.9286 188.6169,-157.1697"/>
<polygon fill="#191970" stroke="#191970" points="191.5891,-155.3156 183.611,-148.3442 185.5004,-158.7692 191.5891,-155.3156"/>
</g>
<!-- Node28&#45;&gt;Node9 -->
<g id="edge63" class="edge">
<title>Node28&#45;&gt;Node9</title>
<path fill="none" stroke="#191970" d="M600.6344,-438.2562C750.7181,-397.7271 1191.8393,-274.8716 1230,-221 1237.964,-209.7572 1236.9679,-201.8859 1230,-190 1219.4366,-171.981 1200.0113,-159.7933 1181.7232,-151.8186"/>
<polygon fill="#191970" stroke="#191970" points="1182.8995,-148.5191 1172.3162,-148.0237 1180.2806,-155.0108 1182.8995,-148.5191"/>
</g>
<!-- Node28&#45;&gt;Node23 -->
<g id="edge58" class="edge">
<title>Node28&#45;&gt;Node23</title>
<path fill="none" stroke="#191970" d="M569.7865,-436.2977C581.1053,-427.1384 595.5105,-415.4816 607.0346,-406.1562"/>
<polygon fill="#191970" stroke="#191970" points="609.2595,-408.8583 614.8314,-399.8469 604.8561,-403.4167 609.2595,-408.8583"/>
</g>
<!-- Node29 -->
<g id="node30" class="node">
<title>Node29</title>
<g id="a_node30"><a xlink:href="energy__par_8h_source.html" target="_top" xlink:title="ViennaRNA/energy_par.h">
<polygon fill="none" stroke="#000000" points="0,-196 0,-215 126,-215 126,-196 0,-196"/>
<text text-anchor="middle" x="63" y="-203" font-family="Helvetica,sans-Serif" font-size="10.00" fill="#000000">ViennaRNA/energy_par.h</text>
</a>
</g>
</g>
<!-- Node28&#45;&gt;Node29 -->
<g id="edge59" class="edge">
<title>Node28&#45;&gt;Node29</title>
<path fill="none" stroke="#191970" d="M501.3779,-447.3521C392.2901,-437.144 136.9376,-406.9284 82,-344 52.9854,-310.7652 55.5958,-254.8972 59.5484,-225.295"/>
<polygon fill="#191970" stroke="#191970" points="63.0192,-225.7509 61.0658,-215.3377 56.0991,-224.6962 63.0192,-225.7509"/>
</g>
<!-- Node29&#45;&gt;Node3 -->
<g id="edge60" class="edge">
<title>Node29&#45;&gt;Node3</title>
<path fill="none" stroke="#191970" d="M67.5749,-195.8944C75.5508,-179.7434 93.1557,-146.6015 114,-123 126.043,-109.364 141.9749,-96.5303 154.93,-87.085"/>
<polygon fill="#191970" stroke="#191970" points="157.2083,-89.7601 163.3389,-81.1191 153.1578,-84.051 157.2083,-89.7601"/>
</g>
<!-- Node30&#45;&gt;Node2 -->
<g id="edge66" class="edge">
<title>Node30&#45;&gt;Node2</title>
<path fill="none" stroke="#191970" d="M368.4779,-436.4311C414.4805,-417.6775 493.0243,-383.289 555,-344 573.4085,-332.3301 573.5953,-322.9256 593,-313 624.7979,-296.7352 662.9315,-285.7816 695.2037,-278.6582"/>
<polygon fill="#191970" stroke="#191970" points="695.9656,-282.0746 705.0176,-276.5689 694.5079,-275.228 695.9656,-282.0746"/>
</g>
<!-- Node30&#45;&gt;Node7 -->
<g id="edge67" class="edge">
<title>Node30&#45;&gt;Node7</title>
<path fill="none" stroke="#191970" d="M317.481,-436.4181C300.9528,-416.1352 271.4421,-378.608 250,-344 232.413,-315.6141 228.0344,-308.1486 216,-277 200.0464,-235.7076 187.9444,-185.0759 182.0248,-157.9187"/>
<polygon fill="#191970" stroke="#191970" points="185.4433,-157.1675 179.9361,-148.1164 178.597,-158.6263 185.4433,-157.1675"/>
</g>
<!-- Node30&#45;&gt;Node23 -->
<g id="edge65" class="edge">
<title>Node30&#45;&gt;Node23</title>
<path fill="none" stroke="#191970" d="M390.1024,-439.0546C443.0183,-428.0972 519.479,-412.2644 571.0988,-401.5755"/>
<polygon fill="#191970" stroke="#191970" points="571.9946,-404.9643 581.0772,-399.5093 570.5752,-398.1098 571.9946,-404.9643"/>
</g>
</g>
</svg>
        <g id="navigator" transform="translate(0 0)" fill="#404254">
                <rect fill="#f2f5e9" fill-opacity="0.5" stroke="#606060" stroke-width=".5" x="0" y="0" width="60" height="60"/>
                <use id="zoomplus" xlink:href="#zoomPlus" x="17" y="9" onmousedown="handleZoom(evt,'in')"/>
                <use id="zoomminus" xlink:href="#zoomMin" x="42" y="9" onmousedown="handleZoom(evt,'out')"/>
                <use id="reset" xlink:href="#resetDef" x="30" y="36" onmousedown="handleReset()"/>
                <g id="arrowUp" xlink:href="#dirArrow" transform="translate(30 24)" onmousedown="handlePan(0,-1)">
                  <use xlink:href="#rim" fill="#404040">
                        <set attributeName="fill" to="#808080" begin="arrowUp.mouseover" end="arrowUp.mouseout"/>
                  </use>
                  <path fill="none" stroke="white" stroke-width="1.5" d="M0,-3.0v7 M-2.5,-0.5L0,-3.0L2.5,-0.5"/>
                </g>
                <g id="arrowRight" xlink:href="#dirArrow" transform="rotate(90) translate(36 -43)" onmousedown="handlePan(1,0)">
                  <use xlink:href="#rim" fill="#404040">
                        <set attributeName="fill" to="#808080" begin="arrowRight.mouseover" end="arrowRight.mouseout"/>
                  </use>
                  <path fill="none" stroke="white" stroke-width="1.5" d="M0,-3.0v7 M-2.5,-0.5L0,-3.0L2.5,-0.5"/>
                </g>
                <g id="arrowDown" xlink:href="#dirArrow" transform="rotate(180) translate(-30 -48)" onmousedown="handlePan(0,1)">
                  <use xlink:href="#rim" fill="#404040">
                        <set attributeName="fill" to="#808080" begin="arrowDown.mouseover" end="arrowDown.mouseout"/>
                  </use>
                  <path fill="none" stroke="white" stroke-width="1.5" d="M0,-3.0v7 M-2.5,-0.5L0,-3.0L2.5,-0.5"/>
                </g>
                <g id="arrowLeft" xlink:href="#dirArrow" transform="rotate(270) translate(-36 17)" onmousedown="handlePan(-1,0)">
                  <use xlink:href="#rim" fill="#404040">
                        <set attributeName="fill" to="#808080" begin="arrowLeft.mouseover" end="arrowLeft.mouseout"/>
                  </use>
                  <path fill="none" stroke="white" stroke-width="1.5" d="M0,-3.0v7 M-2.5,-0.5L0,-3.0L2.5,-0.5"/>
                </g>
        </g>
        <svg viewBox="0 0 15 15" width="100%" height="30px" preserveAspectRatio="xMaxYMin meet">
         <g id="arrow_out" transform="scale(0.3 0.3)">
          <a xlink:href="loop__energies_8h__incl_org.svg" target="_base">
           <rect id="button" ry="5" rx="5" y="6" x="6" height="38" width="38"
                fill="#f2f5e9" fill-opacity="0.5" stroke="#606060" stroke-width="1.0"/>
           <path id="arrow"
             d="M 11.500037,31.436501 C 11.940474,20.09759 22.043105,11.32322 32.158766,21.979434 L 37.068811,17.246167 C 37.068811,17.246167 37.088388,32 37.088388,32 L 22.160133,31.978069 C 22.160133,31.978069 26.997745,27.140456 26.997745,27.140456 C 18.528582,18.264221 13.291696,25.230495 11.500037,31.436501 z"
             style="fill:#404040;"/>
          </a>
         </g>
        </svg>
</svg>
