<?xml version="1.0" encoding="UTF-8" standalone="no"?>
<!DOCTYPE svg PUBLIC "-//W3C//DTD SVG 1.1//EN"
 "http://www.w3.org/Graphics/SVG/1.1/DTD/svg11.dtd">
<!-- Generated by graphviz version 2.40.1 (20161225.0304)
 -->
<!-- Title: ViennaRNA/mfe.h Pages: 1 -->
<svg width="464pt" height="84pt"
 viewBox="0.00 0.00 463.50 84.00" xmlns="http://www.w3.org/2000/svg" xmlns:xlink="http://www.w3.org/1999/xlink">
<g id="graph0" class="graph" transform="scale(1 1) rotate(0) translate(4 80)">
<title>ViennaRNA/mfe.h</title>
<!-- Node19 -->
<g id="node1" class="node">
<title>Node19</title>
<polygon fill="#bfbfbf" stroke="#000000" points="184.5,-56.5 184.5,-75.5 279.5,-75.5 279.5,-56.5 184.5,-56.5"/>
<text text-anchor="middle" x="232" y="-63.5" font-family="Helvetica,sans-Serif" font-size="10.00" fill="#000000">ViennaRNA/mfe.h</text>
</g>
<!-- Node20 -->
<g id="node2" class="node">
<title>Node20</title>
<g id="a_node2"><a xlink:href="alifold_8h.html" target="_top" xlink:title="Functions for comparative structure prediction using RNA sequence alignments. ">
<polygon fill="none" stroke="#000000" points="0,-.5 0,-19.5 104,-19.5 104,-.5 0,-.5"/>
<text text-anchor="middle" x="52" y="-7.5" font-family="Helvetica,sans-Serif" font-size="10.00" fill="#000000">ViennaRNA/alifold.h</text>
</a>
</g>
</g>
<!-- Node19&#45;&gt;Node20 -->
<g id="edge1" class="edge">
<title>Node19&#45;&gt;Node20</title>
<path fill="none" stroke="#191970" d="M191.2541,-53.3235C158.2437,-43.0536 112.4583,-28.8093 82.5393,-19.5011"/>
<polygon fill="#191970" stroke="#191970" points="190.4686,-56.7445 201.0569,-56.3733 192.5481,-50.0605 190.4686,-56.7445"/>
</g>
<!-- Node21 -->
<g id="node3" class="node">
<title>Node21</title>
<g id="a_node3"><a xlink:href="cofold_8h.html" target="_top" xlink:title="MFE implementations for RNA&#45;RNA interaction. ">
<polygon fill="none" stroke="#000000" points="122,-.5 122,-19.5 226,-19.5 226,-.5 122,-.5"/>
<text text-anchor="middle" x="174" y="-7.5" font-family="Helvetica,sans-Serif" font-size="10.00" fill="#000000">ViennaRNA/cofold.h</text>
</a>
</g>
</g>
<!-- Node19&#45;&gt;Node21 -->
<g id="edge2" class="edge">
<title>Node19&#45;&gt;Node21</title>
<path fill="none" stroke="#191970" d="M214.4707,-49.0751C204.4917,-39.4402 192.3524,-27.7196 183.9871,-19.6427"/>
<polygon fill="#191970" stroke="#191970" points="212.272,-51.8175 221.8972,-56.2455 217.1342,-46.7817 212.272,-51.8175"/>
</g>
<!-- Node22 -->
<g id="node4" class="node">
<title>Node22</title>
<g id="a_node4"><a xlink:href="fold_8h.html" target="_top" xlink:title="MFE calculations for single RNA sequences. ">
<polygon fill="none" stroke="#000000" points="244,-.5 244,-19.5 338,-19.5 338,-.5 244,-.5"/>
<text text-anchor="middle" x="291" y="-7.5" font-family="Helvetica,sans-Serif" font-size="10.00" fill="#000000">ViennaRNA/fold.h</text>
</a>
</g>
</g>
<!-- Node19&#45;&gt;Node22 -->
<g id="edge3" class="edge">
<title>Node19&#45;&gt;Node22</title>
<path fill="none" stroke="#191970" d="M249.5307,-49.3607C259.7377,-39.6727 272.2469,-27.7995 280.8408,-19.6427"/>
<polygon fill="#191970" stroke="#191970" points="247.1206,-46.8227 242.277,-56.2455 251.9396,-51.8998 247.1206,-46.8227"/>
</g>
<!-- Node23 -->
<g id="node5" class="node">
<title>Node23</title>
<g id="a_node5"><a xlink:href="Lfold_8h.html" target="_top" xlink:title="Functions for locally optimal MFE structure prediction. ">
<polygon fill="none" stroke="#000000" points="356.5,-.5 356.5,-19.5 455.5,-19.5 455.5,-.5 356.5,-.5"/>
<text text-anchor="middle" x="406" y="-7.5" font-family="Helvetica,sans-Serif" font-size="10.00" fill="#000000">ViennaRNA/Lfold.h</text>
</a>
</g>
</g>
<!-- Node19&#45;&gt;Node23 -->
<g id="edge4" class="edge">
<title>Node19&#45;&gt;Node23</title>
<path fill="none" stroke="#191970" d="M271.801,-53.1905C303.679,-42.9309 347.6816,-28.7691 376.4787,-19.5011"/>
<polygon fill="#191970" stroke="#191970" points="270.3585,-49.9779 261.9117,-56.3733 272.5031,-56.6413 270.3585,-49.9779"/>
</g>
</g>
</svg>
