<?xml version="1.0" encoding="UTF-8" standalone="no"?>
<!DOCTYPE svg PUBLIC "-//W3C//DTD SVG 1.1//EN"
 "http://www.w3.org/Graphics/SVG/1.1/DTD/svg11.dtd">
<!-- Generated by graphviz version 2.40.1 (20161225.0304)
 -->
<!-- Title: ViennaRNA/multibranch_loops.h Pages: 1 -->
<!--zoomable 464 -->
<svg id="main" version="1.1" xmlns="http://www.w3.org/2000/svg" xmlns:xlink="http://www.w3.org/1999/xlink" xml:space="preserve" onload="init(evt)">
<style type="text/css"><![CDATA[
.edge:hover path { stroke: red; }
.edge:hover polygon { stroke: red; fill: red; }
]]></style>
<script type="text/javascript"><![CDATA[
var edges = document.getElementsByTagName('g');
if (edges && edges.length) {
  for (var i=0;i<edges.length;i++) {
    if (edges[i].id.substr(0,4)=='edge') {
      edges[i].setAttribute('class','edge');
    }
  }
}
]]></script>
        <defs>
                <circle id="rim" cx="0" cy="0" r="7"/>
                <circle id="rim2" cx="0" cy="0" r="3.5"/>
                <g id="zoomPlus">
                        <use xlink:href="#rim" fill="#404040">
                                <set attributeName="fill" to="#808080" begin="zoomplus.mouseover" end="zoomplus.mouseout"/>
                        </use>
                        <path d="M-4,0h8M0,-4v8" fill="none" stroke="white" stroke-width="1.5" pointer-events="none"/>
                </g>
                <g id="zoomMin">
                        <use xlink:href="#rim" fill="#404040">
                                <set attributeName="fill" to="#808080" begin="zoomminus.mouseover" end="zoomminus.mouseout"/>
                        </use>
                        <path d="M-4,0h8" fill="none" stroke="white" stroke-width="1.5" pointer-events="none"/>
                </g>
                <g id="dirArrow">
                        <path fill="none" stroke="white" stroke-width="1.5" d="M0,-3.0v7 M-2.5,-0.5L0,-3.0L2.5,-0.5"/>
                </g>
               <g id="resetDef">
                       <use xlink:href="#rim2" fill="#404040">
                               <set attributeName="fill" to="#808080" begin="reset.mouseover" end="reset.mouseout"/>
                       </use>
               </g>
        </defs>

<script type="text/javascript">
var viewWidth = 1346;
var viewHeight = 464;
var sectionId = 'dynsection-0';
</script>
<script xlink:href="svgpan.js"/>
<svg id="graph" class="graph">
<g id="viewport">
<title>ViennaRNA/multibranch_loops.h</title>
<!-- Node0 -->
<g id="node1" class="node">
<title>Node0</title>
<polygon fill="#bfbfbf" stroke="#000000" points="613.5,-425.5 613.5,-455.5 733.5,-455.5 733.5,-425.5 613.5,-425.5"/>
<text text-anchor="start" x="621.5" y="-443.5" font-family="Helvetica,sans-Serif" font-size="10.00" fill="#000000">ViennaRNA/multibranch</text>
<text text-anchor="middle" x="673.5" y="-432.5" font-family="Helvetica,sans-Serif" font-size="10.00" fill="#000000">_loops.h</text>
</g>
<!-- Node1 -->
<g id="node2" class="node">
<title>Node1</title>
<g id="a_node2"><a xlink:href="utils_8h.html" target="_top" xlink:title="General utility&#45; and helper&#45;functions used throughout the ViennaRNA Package. ">
<polygon fill="none" stroke="#000000" points="861.5,-369.5 861.5,-388.5 957.5,-388.5 957.5,-369.5 861.5,-369.5"/>
<text text-anchor="middle" x="909.5" y="-376.5" font-family="Helvetica,sans-Serif" font-size="10.00" fill="#000000">ViennaRNA/utils.h</text>
</a>
</g>
</g>
<!-- Node0&#45;&gt;Node1 -->
<g id="edge1" class="edge">
<title>Node0&#45;&gt;Node1</title>
<path fill="none" stroke="#191970" d="M731.2321,-425.4554C771.8183,-414.8789 825.4073,-400.914 863.1967,-391.0663"/>
<polygon fill="#191970" stroke="#191970" points="864.1342,-394.439 872.9284,-388.5303 862.3689,-387.6652 864.1342,-394.439"/>
</g>
<!-- Node4 -->
<g id="node5" class="node">
<title>Node4</title>
<g id="a_node5"><a xlink:href="data__structures_8h.html" target="_top" xlink:title="Various data structures and pre&#45;processor macros. ">
<polygon fill="none" stroke="#000000" points="676.5,-257.5 676.5,-276.5 822.5,-276.5 822.5,-257.5 676.5,-257.5"/>
<text text-anchor="middle" x="749.5" y="-264.5" font-family="Helvetica,sans-Serif" font-size="10.00" fill="#000000">ViennaRNA/data_structures.h</text>
</a>
</g>
</g>
<!-- Node0&#45;&gt;Node4 -->
<g id="edge49" class="edge">
<title>Node0&#45;&gt;Node4</title>
<path fill="none" stroke="#191970" d="M680.1116,-425.4065C693.9229,-393.8767 725.8155,-321.0692 741.0721,-286.24"/>
<polygon fill="#191970" stroke="#191970" points="744.4279,-287.3021 745.2344,-276.738 738.016,-284.4934 744.4279,-287.3021"/>
</g>
<!-- Node9 -->
<g id="node10" class="node">
<title>Node9</title>
<g id="a_node10"><a xlink:href="params_8h.html" target="_top" xlink:title="Functions to deal with sets of energy parameters. ">
<polygon fill="none" stroke="#000000" points="403.5,-129 403.5,-148 513.5,-148 513.5,-129 403.5,-129"/>
<text text-anchor="middle" x="458.5" y="-136" font-family="Helvetica,sans-Serif" font-size="10.00" fill="#000000">ViennaRNA/params.h</text>
</a>
</g>
</g>
<!-- Node0&#45;&gt;Node9 -->
<g id="edge50" class="edge">
<title>Node0&#45;&gt;Node9</title>
<path fill="none" stroke="#191970" d="M613.4174,-433.3607C475.4034,-416.1494 147.5,-370.2822 147.5,-323 147.5,-323 147.5,-323 147.5,-267 147.5,-238.1589 332.5523,-177.3521 417.1665,-151.0559"/>
<polygon fill="#191970" stroke="#191970" points="418.4487,-154.323 426.9682,-148.0246 416.3805,-147.6355 418.4487,-154.323"/>
</g>
<!-- Node2 -->
<g id="node3" class="node">
<title>Node2</title>
<polygon fill="none" stroke="#bfbfbf" points="1287.5,-129 1287.5,-148 1333.5,-148 1333.5,-129 1287.5,-129"/>
<text text-anchor="middle" x="1310.5" y="-136" font-family="Helvetica,sans-Serif" font-size="10.00" fill="#000000">stdio.h</text>
</g>
<!-- Node1&#45;&gt;Node2 -->
<g id="edge2" class="edge">
<title>Node1&#45;&gt;Node2</title>
<path fill="none" stroke="#191970" d="M953.8317,-369.4615C1053.5709,-346.9709 1290.2318,-287.4869 1332.5,-221 1345.048,-201.2623 1333.7714,-174.5157 1323.2715,-156.8974"/>
<polygon fill="#191970" stroke="#191970" points="1326.0126,-154.6874 1317.6743,-148.1511 1320.1165,-158.4606 1326.0126,-154.6874"/>
</g>
<!-- Node3 -->
<g id="node4" class="node">
<title>Node3</title>
<polygon fill="none" stroke="#bfbfbf" points="939.5,-257.5 939.5,-276.5 991.5,-276.5 991.5,-257.5 939.5,-257.5"/>
<text text-anchor="middle" x="965.5" y="-264.5" font-family="Helvetica,sans-Serif" font-size="10.00" fill="#000000">stdarg.h</text>
</g>
<!-- Node1&#45;&gt;Node3 -->
<g id="edge3" class="edge">
<title>Node1&#45;&gt;Node3</title>
<path fill="none" stroke="#191970" d="M954.911,-369.4711C989.7926,-361.1225 1033.7638,-348.0006 1044.5,-333 1060.4107,-310.7695 1029.1023,-291.5414 1001.3227,-279.6646"/>
<polygon fill="#191970" stroke="#191970" points="1002.3096,-276.2882 991.7271,-275.7774 999.6813,-282.7761 1002.3096,-276.2882"/>
</g>
<!-- Node1&#45;&gt;Node4 -->
<g id="edge4" class="edge">
<title>Node1&#45;&gt;Node4</title>
<path fill="none" stroke="#191970" d="M865.6815,-369.4489C829.5628,-360.7444 782.1376,-347.1242 768.5,-333 756.6201,-320.6962 752.0881,-301.4601 750.3994,-286.9228"/>
<polygon fill="#191970" stroke="#191970" points="753.8847,-286.5988 749.5877,-276.9145 746.9076,-287.1647 753.8847,-286.5988"/>
</g>
<!-- Node20 -->
<g id="node21" class="node">
<title>Node20</title>
<g id="a_node21"><a xlink:href="structure__utils_8h.html" target="_top" xlink:title="Various utility&#45; and helper&#45;functions for secondary structure parsing, converting, etc. ">
<polygon fill="none" stroke="#000000" points="1215.5,-190.5 1215.5,-220.5 1323.5,-220.5 1323.5,-190.5 1215.5,-190.5"/>
<text text-anchor="start" x="1223.5" y="-208.5" font-family="Helvetica,sans-Serif" font-size="10.00" fill="#000000">ViennaRNA/structure</text>
<text text-anchor="middle" x="1269.5" y="-197.5" font-family="Helvetica,sans-Serif" font-size="10.00" fill="#000000">_utils.h</text>
</a>
</g>
</g>
<!-- Node1&#45;&gt;Node20 -->
<g id="edge45" class="edge">
<title>Node1&#45;&gt;Node20</title>
<path fill="none" stroke="#191970" d="M950.5658,-369.4838C981.5187,-361.6024 1024.62,-349.0979 1060.5,-333 1128.4593,-302.5093 1201.3155,-254.0152 1240.5174,-226.4548"/>
<polygon fill="#191970" stroke="#191970" points="1242.679,-229.2129 1248.8178,-220.5777 1238.6339,-223.4999 1242.679,-229.2129"/>
</g>
<!-- Node21 -->
<g id="node22" class="node">
<title>Node21</title>
<g id="a_node22"><a xlink:href="string__utils_8h.html" target="_top" xlink:title="General utility&#45; and helper&#45;functions for RNA sequence and structure strings used throughout the Vien...">
<polygon fill="none" stroke="#000000" points="778,-313.5 778,-332.5 903,-332.5 903,-313.5 778,-313.5"/>
<text text-anchor="middle" x="840.5" y="-320.5" font-family="Helvetica,sans-Serif" font-size="10.00" fill="#000000">ViennaRNA/string_utils.h</text>
</a>
</g>
</g>
<!-- Node1&#45;&gt;Node21 -->
<g id="edge42" class="edge">
<title>Node1&#45;&gt;Node21</title>
<path fill="none" stroke="#191970" d="M897.4811,-369.2455C887.2902,-360.9746 872.4638,-348.9416 860.4893,-339.2232"/>
<polygon fill="#191970" stroke="#191970" points="862.3514,-336.2268 852.3812,-332.6427 857.9402,-341.662 862.3514,-336.2268"/>
</g>
<!-- Node22 -->
<g id="node23" class="node">
<title>Node22</title>
<g id="a_node23"><a xlink:href="file__utils_8h.html" target="_top" xlink:title="Several utilities for file handling. ">
<polygon fill="none" stroke="#000000" points="921.5,-313.5 921.5,-332.5 1035.5,-332.5 1035.5,-313.5 921.5,-313.5"/>
<text text-anchor="middle" x="978.5" y="-320.5" font-family="Helvetica,sans-Serif" font-size="10.00" fill="#000000">ViennaRNA/file_utils.h</text>
</a>
</g>
</g>
<!-- Node1&#45;&gt;Node22 -->
<g id="edge46" class="edge">
<title>Node1&#45;&gt;Node22</title>
<path fill="none" stroke="#191970" d="M921.5189,-369.2455C931.7098,-360.9746 946.5362,-348.9416 958.5107,-339.2232"/>
<polygon fill="#191970" stroke="#191970" points="961.0598,-341.662 966.6188,-332.6427 956.6486,-336.2268 961.0598,-341.662"/>
</g>
<!-- Node23 -->
<g id="node24" class="node">
<title>Node23</title>
<g id="a_node24"><a xlink:href="alphabet_8h.html" target="_top" xlink:title="Functions to process, convert, and generally handle different nucleotide and/or base pair alphabets...">
<polygon fill="none" stroke="#000000" points="0,-257.5 0,-276.5 115,-276.5 115,-257.5 0,-257.5"/>
<text text-anchor="middle" x="57.5" y="-264.5" font-family="Helvetica,sans-Serif" font-size="10.00" fill="#000000">ViennaRNA/alphabet.h</text>
</a>
</g>
</g>
<!-- Node1&#45;&gt;Node23 -->
<g id="edge47" class="edge">
<title>Node1&#45;&gt;Node23</title>
<path fill="none" stroke="#191970" d="M861.2516,-372.6575C717.4689,-353.7565 291.5794,-297.771 125.189,-275.8981"/>
<polygon fill="#191970" stroke="#191970" points="125.4549,-272.403 115.084,-274.5697 124.5425,-279.3433 125.4549,-272.403"/>
</g>
<!-- Node5 -->
<g id="node6" class="node">
<title>Node5</title>
<g id="a_node6"><a xlink:href="energy__const_8h.html" target="_top" xlink:title="Energy parameter constants. ">
<polygon fill="none" stroke="#000000" points="464,-62 464,-81 601,-81 601,-62 464,-62"/>
<text text-anchor="middle" x="532.5" y="-69" font-family="Helvetica,sans-Serif" font-size="10.00" fill="#000000">ViennaRNA/energy_const.h</text>
</a>
</g>
</g>
<!-- Node4&#45;&gt;Node5 -->
<g id="edge5" class="edge">
<title>Node4&#45;&gt;Node5</title>
<path fill="none" stroke="#191970" d="M746.1803,-257.438C735.4899,-226.853 702.0448,-132.8346 691.5,-123 669.4814,-102.4643 639.1896,-90.115 610.9489,-82.6896"/>
<polygon fill="#191970" stroke="#191970" points="611.6083,-79.2476 601.0623,-80.2631 609.9398,-86.0459 611.6083,-79.2476"/>
</g>
<!-- Node7 -->
<g id="node8" class="node">
<title>Node7</title>
<g id="a_node8"><a xlink:href="fold__compound_8h.html" target="_top" xlink:title="The Basic Fold Compound API. ">
<polygon fill="none" stroke="#000000" points="497.5,-196 497.5,-215 641.5,-215 641.5,-196 497.5,-196"/>
<text text-anchor="middle" x="569.5" y="-203" font-family="Helvetica,sans-Serif" font-size="10.00" fill="#000000">ViennaRNA/fold_compound.h</text>
</a>
</g>
</g>
<!-- Node4&#45;&gt;Node7 -->
<g id="edge7" class="edge">
<title>Node4&#45;&gt;Node7</title>
<path fill="none" stroke="#191970" d="M721.375,-257.3906C690.5972,-246.8749 641.1079,-229.966 607.0345,-218.3243"/>
<polygon fill="#191970" stroke="#191970" points="608.022,-214.9631 597.4275,-215.0419 605.7588,-221.5871 608.022,-214.9631"/>
</g>
<!-- Node8 -->
<g id="node9" class="node">
<title>Node8</title>
<g id="a_node9"><a xlink:href="model_8h.html" target="_top" xlink:title="The model details data structure and its corresponding modifiers. ">
<polygon fill="none" stroke="#000000" points="252.5,-62 252.5,-81 356.5,-81 356.5,-62 252.5,-62"/>
<text text-anchor="middle" x="304.5" y="-69" font-family="Helvetica,sans-Serif" font-size="10.00" fill="#000000">ViennaRNA/model.h</text>
</a>
</g>
</g>
<!-- Node4&#45;&gt;Node8 -->
<g id="edge32" class="edge">
<title>Node4&#45;&gt;Node8</title>
<path fill="none" stroke="#191970" d="M676.4867,-264.2536C604.4827,-259.9674 491.9594,-249.0065 398.5,-221 333.1895,-201.4288 296.6818,-211.7873 260.5,-154 246.68,-131.9276 267.4613,-105.1199 284.9036,-88.1803"/>
<polygon fill="#191970" stroke="#191970" points="287.56,-90.4922 292.5464,-81.1441 282.8188,-85.3423 287.56,-90.4922"/>
</g>
<!-- Node4&#45;&gt;Node9 -->
<g id="edge33" class="edge">
<title>Node4&#45;&gt;Node9</title>
<path fill="none" stroke="#191970" d="M676.2072,-262.7685C606.4821,-257.201 508.2673,-245.1439 479.5,-221 460.9482,-205.4298 453.8685,-177.3985 453.3199,-158.3774"/>
<polygon fill="#191970" stroke="#191970" points="456.8272,-158.2725 453.7455,-148.1358 449.8332,-157.9818 456.8272,-158.2725"/>
</g>
<!-- Node10 -->
<g id="node11" class="node">
<title>Node10</title>
<g id="a_node11"><a xlink:href="dp__matrices_8h.html" target="_top" xlink:title="Functions to deal with standard dynamic programming (DP) matrices. ">
<polygon fill="none" stroke="#000000" points="82,-129 82,-148 213,-148 213,-129 82,-129"/>
<text text-anchor="middle" x="147.5" y="-136" font-family="Helvetica,sans-Serif" font-size="10.00" fill="#000000">ViennaRNA/dp_matrices.h</text>
</a>
</g>
</g>
<!-- Node4&#45;&gt;Node10 -->
<g id="edge34" class="edge">
<title>Node4&#45;&gt;Node10</title>
<path fill="none" stroke="#191970" d="M676.2468,-263.6434C540.0947,-256.754 258.5185,-240.0525 218.5,-221 188.7583,-206.8402 164.1039,-176.6289 152.7602,-156.9605"/>
<polygon fill="#191970" stroke="#191970" points="155.859,-155.3329 148.1902,-148.0227 149.6265,-158.5197 155.859,-155.3329"/>
</g>
<!-- Node11 -->
<g id="node12" class="node">
<title>Node11</title>
<g id="a_node12"><a xlink:href="constraints_8h.html" target="_top" xlink:title="Functions and data structures for constraining secondary structure predictions and evaluation...">
<polygon fill="none" stroke="#000000" points="777.5,-129 777.5,-148 903.5,-148 903.5,-129 777.5,-129"/>
<text text-anchor="middle" x="840.5" y="-136" font-family="Helvetica,sans-Serif" font-size="10.00" fill="#000000">ViennaRNA/constraints.h</text>
</a>
</g>
</g>
<!-- Node4&#45;&gt;Node11 -->
<g id="edge35" class="edge">
<title>Node4&#45;&gt;Node11</title>
<path fill="none" stroke="#191970" d="M752.5664,-257.3416C764.2082,-235.8533 800.7013,-183.8216 823.0715,-156.2817"/>
<polygon fill="#191970" stroke="#191970" points="826.0456,-158.182 829.7889,-148.2705 820.6817,-153.6844 826.0456,-158.182"/>
</g>
<!-- Node17 -->
<g id="node18" class="node">
<title>Node17</title>
<g id="a_node18"><a xlink:href="grammar_8h.html" target="_top" xlink:title="Implementations for the RNA folding grammar. ">
<polygon fill="none" stroke="#000000" points="269.5,-129 269.5,-148 385.5,-148 385.5,-129 269.5,-129"/>
<text text-anchor="middle" x="327.5" y="-136" font-family="Helvetica,sans-Serif" font-size="10.00" fill="#000000">ViennaRNA/grammar.h</text>
</a>
</g>
</g>
<!-- Node4&#45;&gt;Node17 -->
<g id="edge36" class="edge">
<title>Node4&#45;&gt;Node17</title>
<path fill="none" stroke="#191970" d="M676.3607,-263.3681C615.7156,-258.4999 528.2954,-247.1828 456.5,-221 412.0865,-204.803 366.0387,-173.9283 342.564,-154.8859"/>
<polygon fill="#191970" stroke="#191970" points="344.6094,-152.031 334.7228,-148.2223 340.0764,-157.365 344.6094,-152.031"/>
</g>
<!-- Node18 -->
<g id="node19" class="node">
<title>Node18</title>
<g id="a_node19"><a xlink:href="structured__domains_8h.html" target="_top" xlink:title="This module provides interfaces that deal with additional structured domains in the folding grammar...">
<polygon fill="none" stroke="#000000" points="570,-123.5 570,-153.5 683,-153.5 683,-123.5 570,-123.5"/>
<text text-anchor="start" x="578" y="-141.5" font-family="Helvetica,sans-Serif" font-size="10.00" fill="#000000">ViennaRNA/structured</text>
<text text-anchor="middle" x="626.5" y="-130.5" font-family="Helvetica,sans-Serif" font-size="10.00" fill="#000000">_domains.h</text>
</a>
</g>
</g>
<!-- Node4&#45;&gt;Node18 -->
<g id="edge37" class="edge">
<title>Node4&#45;&gt;Node18</title>
<path fill="none" stroke="#191970" d="M737.5212,-257.2049C726.7053,-248.1766 710.5355,-234.2144 697.5,-221 678.5686,-201.8088 658.6888,-178.3876 644.7963,-161.4102"/>
<polygon fill="#191970" stroke="#191970" points="647.5081,-159.1974 638.4876,-153.6402 642.0737,-163.6097 647.5081,-159.1974"/>
</g>
<!-- Node19 -->
<g id="node20" class="node">
<title>Node19</title>
<g id="a_node20"><a xlink:href="unstructured__domains_8h.html" target="_top" xlink:title="Functions to modify unstructured domains, e.g. to incorporate ligands binding to unpaired stretches...">
<polygon fill="none" stroke="#000000" points="921.5,-123.5 921.5,-153.5 1045.5,-153.5 1045.5,-123.5 921.5,-123.5"/>
<text text-anchor="start" x="929.5" y="-141.5" font-family="Helvetica,sans-Serif" font-size="10.00" fill="#000000">ViennaRNA/unstructured</text>
<text text-anchor="middle" x="983.5" y="-130.5" font-family="Helvetica,sans-Serif" font-size="10.00" fill="#000000">_domains.h</text>
</a>
</g>
</g>
<!-- Node4&#45;&gt;Node19 -->
<g id="edge38" class="edge">
<title>Node4&#45;&gt;Node19</title>
<path fill="none" stroke="#191970" d="M763.3146,-257.3416C798.0064,-236.3749 888.717,-186.3299 942.3504,-158.3299"/>
<polygon fill="#191970" stroke="#191970" points="944.0047,-161.4146 951.2683,-153.7016 940.7802,-155.2015 944.0047,-161.4146"/>
</g>
<!-- Node4&#45;&gt;Node20 -->
<g id="edge39" class="edge">
<title>Node4&#45;&gt;Node20</title>
<path fill="none" stroke="#191970" d="M822.5661,-261.8677C910.6849,-255.3392 1062.9047,-242.282 1192.5,-221 1196.667,-220.3157 1200.9606,-219.5302 1205.2918,-218.6837"/>
<polygon fill="#191970" stroke="#191970" points="1206.3255,-222.045 1215.4242,-216.617 1204.9264,-215.1863 1206.3255,-222.045"/>
</g>
<!-- Node6 -->
<g id="node7" class="node">
<title>Node6</title>
<polygon fill="none" stroke="#bfbfbf" points="508.5,-.5 508.5,-19.5 556.5,-19.5 556.5,-.5 508.5,-.5"/>
<text text-anchor="middle" x="532.5" y="-7.5" font-family="Helvetica,sans-Serif" font-size="10.00" fill="#000000">limits.h</text>
</g>
<!-- Node5&#45;&gt;Node6 -->
<g id="edge6" class="edge">
<title>Node5&#45;&gt;Node6</title>
<path fill="none" stroke="#191970" d="M532.5,-61.8906C532.5,-53.3657 532.5,-40.6392 532.5,-29.9235"/>
<polygon fill="#191970" stroke="#191970" points="536.0001,-29.7448 532.5,-19.7449 529.0001,-29.7449 536.0001,-29.7448"/>
</g>
<!-- Node7&#45;&gt;Node8 -->
<g id="edge8" class="edge">
<title>Node7&#45;&gt;Node8</title>
<path fill="none" stroke="#191970" d="M566.8238,-195.8935C561.4634,-178.5039 547.7072,-141.8649 522.5,-123 498.1353,-104.7657 422.0814,-89.5781 366.6466,-80.5272"/>
<polygon fill="#191970" stroke="#191970" points="366.9807,-77.0362 356.5527,-78.9093 365.8727,-83.9479 366.9807,-77.0362"/>
</g>
<!-- Node7&#45;&gt;Node9 -->
<g id="edge9" class="edge">
<title>Node7&#45;&gt;Node9</title>
<path fill="none" stroke="#191970" d="M553.5964,-195.9005C535.133,-184.7559 504.4701,-166.2477 482.9668,-153.2682"/>
<polygon fill="#191970" stroke="#191970" points="484.7441,-150.2529 474.3741,-148.0817 481.1267,-156.2458 484.7441,-150.2529"/>
</g>
<!-- Node7&#45;&gt;Node10 -->
<g id="edge13" class="edge">
<title>Node7&#45;&gt;Node10</title>
<path fill="none" stroke="#191970" d="M509.4859,-195.9717C432.5637,-183.7589 299.4205,-162.6201 217.8264,-149.6656"/>
<polygon fill="#191970" stroke="#191970" points="218.0735,-146.161 207.6484,-148.0496 216.9758,-153.0744 218.0735,-146.161"/>
</g>
<!-- Node7&#45;&gt;Node11 -->
<g id="edge15" class="edge">
<title>Node7&#45;&gt;Node11</title>
<path fill="none" stroke="#191970" d="M608.0399,-195.9717C656.3631,-184.0246 739.2364,-163.5357 791.8716,-150.5225"/>
<polygon fill="#191970" stroke="#191970" points="792.7866,-153.9018 801.6543,-148.1039 791.1065,-147.1064 792.7866,-153.9018"/>
</g>
<!-- Node7&#45;&gt;Node17 -->
<g id="edge27" class="edge">
<title>Node7&#45;&gt;Node17</title>
<path fill="none" stroke="#191970" d="M535.0843,-195.9717C492.2911,-184.124 419.156,-163.8758 372.1028,-150.8487"/>
<polygon fill="#191970" stroke="#191970" points="372.7602,-147.3991 362.1888,-148.1039 370.8923,-154.1453 372.7602,-147.3991"/>
</g>
<!-- Node7&#45;&gt;Node18 -->
<g id="edge29" class="edge">
<title>Node7&#45;&gt;Node18</title>
<path fill="none" stroke="#191970" d="M577.6667,-195.9005C585.3202,-186.9043 597.0557,-173.1099 607.1041,-161.2986"/>
<polygon fill="#191970" stroke="#191970" points="609.9063,-163.4063 613.7203,-153.5218 604.5747,-158.8704 609.9063,-163.4063"/>
</g>
<!-- Node7&#45;&gt;Node19 -->
<g id="edge30" class="edge">
<title>Node7&#45;&gt;Node19</title>
<path fill="none" stroke="#191970" d="M641.6669,-196.0727C708.9944,-186.9562 812.4441,-172.1309 911.3453,-154.1488"/>
<polygon fill="#191970" stroke="#191970" points="912.0031,-157.5866 921.2088,-152.342 910.7418,-150.7012 912.0031,-157.5866"/>
</g>
<!-- Node9&#45;&gt;Node4 -->
<g id="edge11" class="edge">
<title>Node9&#45;&gt;Node4</title>
<path fill="none" stroke="#191970" d="M464.2698,-148.1358C469.4776,-165.5729 475.203,-202.2865 497.5,-221 523.0083,-242.4087 603.1204,-254.3141 666.3015,-260.6183"/>
<polygon fill="#191970" stroke="#191970" points="665.9951,-264.1049 676.2853,-261.5826 666.6681,-257.1374 665.9951,-264.1049"/>
</g>
<!-- Node9&#45;&gt;Node5 -->
<g id="edge10" class="edge">
<title>Node9&#45;&gt;Node5</title>
<path fill="none" stroke="#191970" d="M469.1024,-128.9005C480.8619,-118.2535 500.0443,-100.8856 514.2336,-88.0385"/>
<polygon fill="#191970" stroke="#191970" points="516.8534,-90.388 521.9173,-81.0817 512.1551,-85.1989 516.8534,-90.388"/>
</g>
<!-- Node9&#45;&gt;Node8 -->
<g id="edge12" class="edge">
<title>Node9&#45;&gt;Node8</title>
<path fill="none" stroke="#191970" d="M436.4356,-128.9005C410.1335,-117.4574 365.9872,-98.2509 336.0755,-85.2374"/>
<polygon fill="#191970" stroke="#191970" points="337.0896,-81.8617 326.5235,-81.0817 334.297,-88.2806 337.0896,-81.8617"/>
</g>
<!-- Node10&#45;&gt;Node4 -->
<g id="edge14" class="edge">
<title>Node10&#45;&gt;Node4</title>
<path fill="none" stroke="#191970" d="M158.4772,-148.0227C173.9184,-165.9624 201.7334,-204.4479 236.5,-221 274.5268,-239.1042 530.6642,-255.0857 666.0719,-262.5428"/>
<polygon fill="#191970" stroke="#191970" points="666.2267,-266.0564 676.403,-263.1081 666.6092,-259.0668 666.2267,-266.0564"/>
</g>
<!-- Node11&#45;&gt;Node4 -->
<g id="edge16" class="edge">
<title>Node11&#45;&gt;Node4</title>
<path fill="none" stroke="#191970" d="M837.3728,-148.2705C825.6449,-169.8646 789.1334,-221.9066 766.8123,-249.3614"/>
<polygon fill="#191970" stroke="#191970" points="763.862,-247.4322 760.1132,-257.3416 769.2234,-251.9329 763.862,-247.4322"/>
</g>
<!-- Node12 -->
<g id="node13" class="node">
<title>Node12</title>
<g id="a_node13"><a xlink:href="constraints__hard_8h.html" target="_top" xlink:title="Functions and data structures for handling of secondary structure hard constraints. ">
<polygon fill="none" stroke="#000000" points="799.5,-56.5 799.5,-86.5 917.5,-86.5 917.5,-56.5 799.5,-56.5"/>
<text text-anchor="start" x="807.5" y="-74.5" font-family="Helvetica,sans-Serif" font-size="10.00" fill="#000000">ViennaRNA/constraints</text>
<text text-anchor="middle" x="858.5" y="-63.5" font-family="Helvetica,sans-Serif" font-size="10.00" fill="#000000">_hard.h</text>
</a>
</g>
</g>
<!-- Node11&#45;&gt;Node12 -->
<g id="edge17" class="edge">
<title>Node11&#45;&gt;Node12</title>
<path fill="none" stroke="#191970" d="M843.079,-128.9005C845.3564,-120.4234 848.7785,-107.6856 851.8208,-96.3614"/>
<polygon fill="#191970" stroke="#191970" points="855.2498,-97.0874 854.4643,-86.5218 848.4895,-95.2712 855.2498,-97.0874"/>
</g>
<!-- Node13 -->
<g id="node14" class="node">
<title>Node13</title>
<g id="a_node14"><a xlink:href="constraints__soft_8h.html" target="_top" xlink:title="Functions and data structures for secondary structure soft constraints. ">
<polygon fill="none" stroke="#000000" points="935.5,-56.5 935.5,-86.5 1053.5,-86.5 1053.5,-56.5 935.5,-56.5"/>
<text text-anchor="start" x="943.5" y="-74.5" font-family="Helvetica,sans-Serif" font-size="10.00" fill="#000000">ViennaRNA/constraints</text>
<text text-anchor="middle" x="994.5" y="-63.5" font-family="Helvetica,sans-Serif" font-size="10.00" fill="#000000">_soft.h</text>
</a>
</g>
</g>
<!-- Node11&#45;&gt;Node13 -->
<g id="edge19" class="edge">
<title>Node11&#45;&gt;Node13</title>
<path fill="none" stroke="#191970" d="M862.5644,-128.9005C885.4293,-118.9528 921.7793,-103.1382 950.5401,-90.6254"/>
<polygon fill="#191970" stroke="#191970" points="952.1989,-93.7207 959.9724,-86.5218 949.4063,-87.3018 952.1989,-93.7207"/>
</g>
<!-- Node14 -->
<g id="node15" class="node">
<title>Node14</title>
<g id="a_node15"><a xlink:href="constraints__SHAPE_8h.html" target="_top" xlink:title="This module provides function to incorporate SHAPE reactivity data into the folding recursions by mea...">
<polygon fill="none" stroke="#000000" points="1071.5,-56.5 1071.5,-86.5 1189.5,-86.5 1189.5,-56.5 1071.5,-56.5"/>
<text text-anchor="start" x="1079.5" y="-74.5" font-family="Helvetica,sans-Serif" font-size="10.00" fill="#000000">ViennaRNA/constraints</text>
<text text-anchor="middle" x="1130.5" y="-63.5" font-family="Helvetica,sans-Serif" font-size="10.00" fill="#000000">_SHAPE.h</text>
</a>
</g>
</g>
<!-- Node11&#45;&gt;Node14 -->
<g id="edge21" class="edge">
<title>Node11&#45;&gt;Node14</title>
<path fill="none" stroke="#191970" d="M881.742,-128.9717C928.505,-118.1678 1005.5035,-100.3785 1061.4652,-87.4494"/>
<polygon fill="#191970" stroke="#191970" points="1062.3512,-90.837 1071.3067,-85.1757 1060.7754,-84.0166 1062.3512,-90.837"/>
</g>
<!-- Node15 -->
<g id="node16" class="node">
<title>Node15</title>
<g id="a_node16"><a xlink:href="perturbation__fold_8h.html" target="_top" xlink:title="Find a vector of perturbation energies that minimizes the discripancies between predicted and observe...">
<polygon fill="none" stroke="#000000" points="1208,-56.5 1208,-86.5 1329,-86.5 1329,-56.5 1208,-56.5"/>
<text text-anchor="start" x="1216" y="-74.5" font-family="Helvetica,sans-Serif" font-size="10.00" fill="#000000">ViennaRNA/perturbation</text>
<text text-anchor="middle" x="1268.5" y="-63.5" font-family="Helvetica,sans-Serif" font-size="10.00" fill="#000000">_fold.h</text>
</a>
</g>
</g>
<!-- Node11&#45;&gt;Node15 -->
<g id="edge23" class="edge">
<title>Node11&#45;&gt;Node15</title>
<path fill="none" stroke="#191970" d="M881.8811,-128.9485C891.8734,-126.8203 902.542,-124.6953 912.5,-123 1035.5902,-102.0445 1070.5072,-108.5163 1197.7276,-87.0253"/>
<polygon fill="#191970" stroke="#191970" points="1198.5971,-90.4274 1207.8618,-85.2877 1197.4141,-83.528 1198.5971,-90.4274"/>
</g>
<!-- Node16 -->
<g id="node17" class="node">
<title>Node16</title>
<g id="a_node17"><a xlink:href="constraints__ligand_8h.html" target="_top" xlink:title="Functions for incorporation of ligands binding to hairpin and interior loop motifs using the soft con...">
<polygon fill="none" stroke="#000000" points="663.5,-56.5 663.5,-86.5 781.5,-86.5 781.5,-56.5 663.5,-56.5"/>
<text text-anchor="start" x="671.5" y="-74.5" font-family="Helvetica,sans-Serif" font-size="10.00" fill="#000000">ViennaRNA/constraints</text>
<text text-anchor="middle" x="722.5" y="-63.5" font-family="Helvetica,sans-Serif" font-size="10.00" fill="#000000">_ligand.h</text>
</a>
</g>
</g>
<!-- Node11&#45;&gt;Node16 -->
<g id="edge25" class="edge">
<title>Node11&#45;&gt;Node16</title>
<path fill="none" stroke="#191970" d="M823.5935,-128.9005C806.5307,-119.2123 779.6672,-103.9593 757.9198,-91.6113"/>
<polygon fill="#191970" stroke="#191970" points="759.3804,-88.4158 748.9562,-86.5218 755.9241,-94.503 759.3804,-88.4158"/>
</g>
<!-- Node12&#45;&gt;Node4 -->
<g id="edge18" class="edge">
<title>Node12&#45;&gt;Node4</title>
<path fill="none" stroke="#191970" d="M917.6549,-85.1962C973.7683,-98.4692 1050.176,-117.3931 1054.5,-123 1062.9139,-133.9103 1062.2417,-142.6029 1054.5,-154 1025.4411,-196.7797 881.8266,-236.1903 802.4599,-255.1528"/>
<polygon fill="#191970" stroke="#191970" points="801.5702,-251.7665 792.643,-257.4723 803.1799,-258.579 801.5702,-251.7665"/>
</g>
<!-- Node13&#45;&gt;Node4 -->
<g id="edge20" class="edge">
<title>Node13&#45;&gt;Node4</title>
<path fill="none" stroke="#191970" d="M1031.3172,-86.5313C1046.6468,-94.8476 1062.8611,-106.8289 1071.5,-123 1077.9921,-135.1524 1077.7481,-141.7204 1071.5,-154 1048.5612,-199.0825 1025.8213,-200.6787 979.5,-221 933.1307,-241.3423 877.5431,-252.7758 832.6323,-259.1556"/>
<polygon fill="#191970" stroke="#191970" points="832.0701,-255.6998 822.6343,-260.5181 833.0153,-262.6357 832.0701,-255.6998"/>
</g>
<!-- Node14&#45;&gt;Node4 -->
<g id="edge22" class="edge">
<title>Node14&#45;&gt;Node4</title>
<path fill="none" stroke="#191970" d="M1125.1022,-86.9358C1113.027,-118.7973 1080.4929,-191.3386 1025.5,-221 992.9502,-238.5563 901.4837,-251.5013 832.6992,-259.1097"/>
<polygon fill="#191970" stroke="#191970" points="832.2883,-255.6337 822.7249,-260.1934 833.0445,-262.5927 832.2883,-255.6337"/>
</g>
<!-- Node15&#45;&gt;Node4 -->
<g id="edge24" class="edge">
<title>Node15&#45;&gt;Node4</title>
<path fill="none" stroke="#191970" d="M1252.7071,-86.8823C1219.7328,-117.9915 1139.8539,-188.2014 1058.5,-221 1018.7232,-237.0364 910.1652,-250.8146 832.9885,-259.0046"/>
<polygon fill="#191970" stroke="#191970" points="832.3726,-255.5499 822.7921,-260.0737 833.1026,-262.5118 832.3726,-255.5499"/>
</g>
<!-- Node16&#45;&gt;Node4 -->
<g id="edge26" class="edge">
<title>Node16&#45;&gt;Node4</title>
<path fill="none" stroke="#191970" d="M724.5912,-86.6418C729.4231,-121.6286 741.3615,-208.0716 746.765,-247.1969"/>
<polygon fill="#191970" stroke="#191970" points="743.3258,-247.878 748.1611,-257.3051 750.26,-246.9203 743.3258,-247.878"/>
</g>
<!-- Node17&#45;&gt;Node4 -->
<g id="edge28" class="edge">
<title>Node17&#45;&gt;Node4</title>
<path fill="none" stroke="#191970" d="M345.2471,-148.2223C372.2465,-165.8001 424.4125,-202.7338 474.5,-221 536.6771,-243.6752 610.5731,-255.2008 666.1516,-261.0441"/>
<polygon fill="#191970" stroke="#191970" points="666.008,-264.5473 676.3093,-262.0704 666.7118,-257.5827 666.008,-264.5473"/>
</g>
<!-- Node19&#45;&gt;Node4 -->
<g id="edge31" class="edge">
<title>Node19&#45;&gt;Node4</title>
<path fill="none" stroke="#191970" d="M960.367,-153.7016C917.7794,-178.7187 827.5938,-228.2245 780.0509,-252.6636"/>
<polygon fill="#191970" stroke="#191970" points="778.1854,-249.6859 770.8614,-257.3416 781.361,-255.9241 778.1854,-249.6859"/>
</g>
<!-- Node20&#45;&gt;Node2 -->
<g id="edge40" class="edge">
<title>Node20&#45;&gt;Node2</title>
<path fill="none" stroke="#191970" d="M1278.8035,-190.2967C1284.8814,-180.3645 1292.8534,-167.3371 1299.2819,-156.8321"/>
<polygon fill="#191970" stroke="#191970" points="1302.4186,-158.4115 1304.6529,-148.055 1296.4478,-154.7578 1302.4186,-158.4115"/>
</g>
<!-- Node20&#45;&gt;Node4 -->
<g id="edge41" class="edge">
<title>Node20&#45;&gt;Node4</title>
<path fill="none" stroke="#191970" d="M1215.2057,-220.1947C1213.6242,-220.4758 1212.0533,-220.7449 1210.5,-221 1079.5855,-242.4987 925.5837,-255.6041 832.7903,-262.0651"/>
<polygon fill="#191970" stroke="#191970" points="832.3537,-258.5867 822.617,-262.7637 832.8334,-265.5703 832.3537,-258.5867"/>
</g>
<!-- Node21&#45;&gt;Node3 -->
<g id="edge43" class="edge">
<title>Node21&#45;&gt;Node3</title>
<path fill="none" stroke="#191970" d="M861.9883,-313.3733C882.144,-304.3435 912.488,-290.7494 935.118,-280.6111"/>
<polygon fill="#191970" stroke="#191970" points="936.5971,-283.7838 944.2921,-276.5011 933.7351,-277.3955 936.5971,-283.7838"/>
</g>
<!-- Node21&#45;&gt;Node4 -->
<g id="edge44" class="edge">
<title>Node21&#45;&gt;Node4</title>
<path fill="none" stroke="#191970" d="M824.649,-313.2455C810.6868,-304.6534 790.1272,-292.0014 774.0404,-282.1018"/>
<polygon fill="#191970" stroke="#191970" points="775.5203,-278.9029 765.1693,-276.6427 771.8516,-284.8645 775.5203,-278.9029"/>
</g>
<!-- Node23&#45;&gt;Node8 -->
<g id="edge48" class="edge">
<title>Node23&#45;&gt;Node8</title>
<path fill="none" stroke="#191970" d="M55.1329,-257.4613C49.4387,-232.0184 37.8775,-161.8382 72.5,-123 94.6575,-98.1446 181.1054,-84.1588 241.9627,-77.217"/>
<polygon fill="#191970" stroke="#191970" points="242.6944,-80.6576 252.2504,-76.0822 241.9269,-73.6998 242.6944,-80.6576"/>
</g>
</g>
</svg>
        <g id="navigator" transform="translate(0 0)" fill="#404254">
                <rect fill="#f2f5e9" fill-opacity="0.5" stroke="#606060" stroke-width=".5" x="0" y="0" width="60" height="60"/>
                <use id="zoomplus" xlink:href="#zoomPlus" x="17" y="9" onmousedown="handleZoom(evt,'in')"/>
                <use id="zoomminus" xlink:href="#zoomMin" x="42" y="9" onmousedown="handleZoom(evt,'out')"/>
                <use id="reset" xlink:href="#resetDef" x="30" y="36" onmousedown="handleReset()"/>
                <g id="arrowUp" xlink:href="#dirArrow" transform="translate(30 24)" onmousedown="handlePan(0,-1)">
                  <use xlink:href="#rim" fill="#404040">
                        <set attributeName="fill" to="#808080" begin="arrowUp.mouseover" end="arrowUp.mouseout"/>
                  </use>
                  <path fill="none" stroke="white" stroke-width="1.5" d="M0,-3.0v7 M-2.5,-0.5L0,-3.0L2.5,-0.5"/>
                </g>
                <g id="arrowRight" xlink:href="#dirArrow" transform="rotate(90) translate(36 -43)" onmousedown="handlePan(1,0)">
                  <use xlink:href="#rim" fill="#404040">
                        <set attributeName="fill" to="#808080" begin="arrowRight.mouseover" end="arrowRight.mouseout"/>
                  </use>
                  <path fill="none" stroke="white" stroke-width="1.5" d="M0,-3.0v7 M-2.5,-0.5L0,-3.0L2.5,-0.5"/>
                </g>
                <g id="arrowDown" xlink:href="#dirArrow" transform="rotate(180) translate(-30 -48)" onmousedown="handlePan(0,1)">
                  <use xlink:href="#rim" fill="#404040">
                        <set attributeName="fill" to="#808080" begin="arrowDown.mouseover" end="arrowDown.mouseout"/>
                  </use>
                  <path fill="none" stroke="white" stroke-width="1.5" d="M0,-3.0v7 M-2.5,-0.5L0,-3.0L2.5,-0.5"/>
                </g>
                <g id="arrowLeft" xlink:href="#dirArrow" transform="rotate(270) translate(-36 17)" onmousedown="handlePan(-1,0)">
                  <use xlink:href="#rim" fill="#404040">
                        <set attributeName="fill" to="#808080" begin="arrowLeft.mouseover" end="arrowLeft.mouseout"/>
                  </use>
                  <path fill="none" stroke="white" stroke-width="1.5" d="M0,-3.0v7 M-2.5,-0.5L0,-3.0L2.5,-0.5"/>
                </g>
        </g>
        <svg viewBox="0 0 15 15" width="100%" height="30px" preserveAspectRatio="xMaxYMin meet">
         <g id="arrow_out" transform="scale(0.3 0.3)">
          <a xlink:href="multibranch__loops_8h__incl_org.svg" target="_base">
           <rect id="button" ry="5" rx="5" y="6" x="6" height="38" width="38"
                fill="#f2f5e9" fill-opacity="0.5" stroke="#606060" stroke-width="1.0"/>
           <path id="arrow"
             d="M 11.500037,31.436501 C 11.940474,20.09759 22.043105,11.32322 32.158766,21.979434 L 37.068811,17.246167 C 37.068811,17.246167 37.088388,32 37.088388,32 L 22.160133,31.978069 C 22.160133,31.978069 26.997745,27.140456 26.997745,27.140456 C 18.528582,18.264221 13.291696,25.230495 11.500037,31.436501 z"
             style="fill:#404040;"/>
          </a>
         </g>
        </svg>
</svg>
