<?xml version="1.0" encoding="UTF-8" standalone="no"?>
<!DOCTYPE svg PUBLIC "-//W3C//DTD SVG 1.1//EN"
 "http://www.w3.org/Graphics/SVG/1.1/DTD/svg11.dtd">
<!-- Generated by graphviz version 2.40.1 (20161225.0304)
 -->
<!-- Title: ViennaRNA/params.h Pages: 1 -->
<!--zoomable 285 -->
<svg id="main" version="1.1" xmlns="http://www.w3.org/2000/svg" xmlns:xlink="http://www.w3.org/1999/xlink" xml:space="preserve" onload="init(evt)">
<style type="text/css"><![CDATA[
.edge:hover path { stroke: red; }
.edge:hover polygon { stroke: red; fill: red; }
]]></style>
<script type="text/javascript"><![CDATA[
var edges = document.getElementsByTagName('g');
if (edges && edges.length) {
  for (var i=0;i<edges.length;i++) {
    if (edges[i].id.substr(0,4)=='edge') {
      edges[i].setAttribute('class','edge');
    }
  }
}
]]></script>
        <defs>
                <circle id="rim" cx="0" cy="0" r="7"/>
                <circle id="rim2" cx="0" cy="0" r="3.5"/>
                <g id="zoomPlus">
                        <use xlink:href="#rim" fill="#404040">
                                <set attributeName="fill" to="#808080" begin="zoomplus.mouseover" end="zoomplus.mouseout"/>
                        </use>
                        <path d="M-4,0h8M0,-4v8" fill="none" stroke="white" stroke-width="1.5" pointer-events="none"/>
                </g>
                <g id="zoomMin">
                        <use xlink:href="#rim" fill="#404040">
                                <set attributeName="fill" to="#808080" begin="zoomminus.mouseover" end="zoomminus.mouseout"/>
                        </use>
                        <path d="M-4,0h8" fill="none" stroke="white" stroke-width="1.5" pointer-events="none"/>
                </g>
                <g id="dirArrow">
                        <path fill="none" stroke="white" stroke-width="1.5" d="M0,-3.0v7 M-2.5,-0.5L0,-3.0L2.5,-0.5"/>
                </g>
               <g id="resetDef">
                       <use xlink:href="#rim2" fill="#404040">
                               <set attributeName="fill" to="#808080" begin="reset.mouseover" end="reset.mouseout"/>
                       </use>
               </g>
        </defs>

<script type="text/javascript">
var viewWidth = 1185;
var viewHeight = 285;
var sectionId = 'dynsection-0';
</script>
<script xlink:href="svgpan.js"/>
<svg id="graph" class="graph">
<g id="viewport">
<title>ViennaRNA/params.h</title>
<!-- Node0 -->
<g id="node1" class="node">
<title>Node0</title>
<polygon fill="#bfbfbf" stroke="#000000" points="355,-257.5 355,-276.5 465,-276.5 465,-257.5 355,-257.5"/>
<text text-anchor="middle" x="410" y="-264.5" font-family="Helvetica,sans-Serif" font-size="10.00" fill="#000000">ViennaRNA/params.h</text>
</g>
<!-- Node1 -->
<g id="node2" class="node">
<title>Node1</title>
<g id="a_node2"><a xlink:href="energy__const_8h.html" target="_top" xlink:title="Energy parameter constants. ">
<polygon fill="none" stroke="#000000" points="68.5,-140 68.5,-159 205.5,-159 205.5,-140 68.5,-140"/>
<text text-anchor="middle" x="137" y="-147" font-family="Helvetica,sans-Serif" font-size="10.00" fill="#000000">ViennaRNA/energy_const.h</text>
</a>
</g>
</g>
<!-- Node0&#45;&gt;Node1 -->
<g id="edge1" class="edge">
<title>Node0&#45;&gt;Node1</title>
<path fill="none" stroke="#191970" d="M354.7765,-260.6582C315.508,-254.5079 262.4203,-242.779 220,-221 193.4892,-207.3891 168.3376,-183.6544 152.8127,-167.2875"/>
<polygon fill="#191970" stroke="#191970" points="154.9709,-164.4656 145.6155,-159.493 149.828,-169.2144 154.9709,-164.4656"/>
</g>
<!-- Node3 -->
<g id="node4" class="node">
<title>Node3</title>
<g id="a_node4"><a xlink:href="data__structures_8h.html" target="_top" xlink:title="Various data structures and pre&#45;processor macros. ">
<polygon fill="none" stroke="#000000" points="549,-201.5 549,-220.5 695,-220.5 695,-201.5 549,-201.5"/>
<text text-anchor="middle" x="622" y="-208.5" font-family="Helvetica,sans-Serif" font-size="10.00" fill="#000000">ViennaRNA/data_structures.h</text>
</a>
</g>
</g>
<!-- Node0&#45;&gt;Node3 -->
<g id="edge3" class="edge">
<title>Node0&#45;&gt;Node3</title>
<path fill="none" stroke="#191970" d="M441.2021,-257.3733C475.3564,-247.8598 530.4137,-233.2797 570.866,-223.0127"/>
<polygon fill="#191970" stroke="#191970" points="571.9752,-226.3426 580.8142,-220.5011 570.2616,-219.5556 571.9752,-226.3426"/>
</g>
<!-- Node5 -->
<g id="node6" class="node">
<title>Node5</title>
<g id="a_node6"><a xlink:href="model_8h.html" target="_top" xlink:title="The model details data structure and its corresponding modifiers. ">
<polygon fill="none" stroke="#000000" points="66,-73 66,-92 170,-92 170,-73 66,-73"/>
<text text-anchor="middle" x="118" y="-80" font-family="Helvetica,sans-Serif" font-size="10.00" fill="#000000">ViennaRNA/model.h</text>
</a>
</g>
</g>
<!-- Node0&#45;&gt;Node5 -->
<g id="edge37" class="edge">
<title>Node0&#45;&gt;Node5</title>
<path fill="none" stroke="#191970" d="M392.3057,-257.2433C361.7808,-240.1137 297.7189,-202.8435 248,-165 231.7281,-152.6146 230.6926,-145.8123 214,-134 193.3022,-119.3535 167.9552,-105.9237 148.5047,-96.453"/>
<polygon fill="#191970" stroke="#191970" points="150.0075,-93.2921 139.4761,-92.1338 146.9865,-99.6067 150.0075,-93.2921"/>
</g>
<!-- Node2 -->
<g id="node3" class="node">
<title>Node2</title>
<polygon fill="none" stroke="#bfbfbf" points="0,-73 0,-92 48,-92 48,-73 0,-73"/>
<text text-anchor="middle" x="24" y="-80" font-family="Helvetica,sans-Serif" font-size="10.00" fill="#000000">limits.h</text>
</g>
<!-- Node1&#45;&gt;Node2 -->
<g id="edge2" class="edge">
<title>Node1&#45;&gt;Node2</title>
<path fill="none" stroke="#191970" d="M120.8099,-139.9005C102.0137,-128.7559 70.7984,-110.2477 48.9076,-97.2682"/>
<polygon fill="#191970" stroke="#191970" points="50.5469,-94.1712 40.1601,-92.0817 46.9767,-100.1924 50.5469,-94.1712"/>
</g>
<!-- Node3&#45;&gt;Node0 -->
<g id="edge28" class="edge">
<title>Node3&#45;&gt;Node0</title>
<path fill="none" stroke="#191970" d="M591.1679,-220.5237C557.0481,-230.0331 501.7515,-244.6781 461.1547,-254.982"/>
<polygon fill="#191970" stroke="#191970" points="460.2715,-251.5951 451.4328,-257.4369 461.9853,-258.3821 460.2715,-251.5951"/>
</g>
<!-- Node3&#45;&gt;Node1 -->
<g id="edge4" class="edge">
<title>Node3&#45;&gt;Node1</title>
<path fill="none" stroke="#191970" d="M548.7898,-201.7852C475.2821,-192.5243 358.7843,-177.8234 258,-165 244.3908,-163.2684 229.9215,-161.4207 215.8988,-159.6265"/>
<polygon fill="#191970" stroke="#191970" points="216.1491,-156.1301 205.7857,-158.332 215.2603,-163.0734 216.1491,-156.1301"/>
</g>
<!-- Node4 -->
<g id="node5" class="node">
<title>Node4</title>
<g id="a_node5"><a xlink:href="fold__compound_8h.html" target="_top" xlink:title="The Basic Fold Compound API. ">
<polygon fill="none" stroke="#000000" points="338,-140 338,-159 482,-159 482,-140 338,-140"/>
<text text-anchor="middle" x="410" y="-147" font-family="Helvetica,sans-Serif" font-size="10.00" fill="#000000">ViennaRNA/fold_compound.h</text>
</a>
</g>
</g>
<!-- Node3&#45;&gt;Node4 -->
<g id="edge5" class="edge">
<title>Node3&#45;&gt;Node4</title>
<path fill="none" stroke="#191970" d="M588.875,-201.3906C552.1589,-190.7395 492.8336,-173.5296 452.6662,-161.8772"/>
<polygon fill="#191970" stroke="#191970" points="453.4716,-158.4666 442.8924,-159.0419 451.5213,-165.1895 453.4716,-158.4666"/>
</g>
<!-- Node3&#45;&gt;Node5 -->
<g id="edge27" class="edge">
<title>Node3&#45;&gt;Node5</title>
<path fill="none" stroke="#191970" d="M548.8861,-205.6399C464.613,-198.6531 331.8271,-184.9275 286,-165 266.0121,-156.3084 266.7975,-145.0325 248,-134 219.9674,-117.5473 185.6961,-104.2169 159.3805,-95.2433"/>
<polygon fill="#191970" stroke="#191970" points="160.3077,-91.8631 149.714,-92.0201 158.0933,-98.5037 160.3077,-91.8631"/>
</g>
<!-- Node6 -->
<g id="node7" class="node">
<title>Node6</title>
<g id="a_node7"><a xlink:href="dp__matrices_8h.html" target="_top" xlink:title="Functions to deal with standard dynamic programming (DP) matrices. ">
<polygon fill="none" stroke="#000000" points="462.5,-73 462.5,-92 593.5,-92 593.5,-73 462.5,-73"/>
<text text-anchor="middle" x="528" y="-80" font-family="Helvetica,sans-Serif" font-size="10.00" fill="#000000">ViennaRNA/dp_matrices.h</text>
</a>
</g>
</g>
<!-- Node3&#45;&gt;Node6 -->
<g id="edge29" class="edge">
<title>Node3&#45;&gt;Node6</title>
<path fill="none" stroke="#191970" d="M611.1613,-201.3416C592.0336,-180.0393 554.1141,-128.7203 536.6251,-101.0025"/>
<polygon fill="#191970" stroke="#191970" points="539.5189,-99.0237 531.3553,-92.2705 533.5257,-102.6406 539.5189,-99.0237"/>
</g>
<!-- Node7 -->
<g id="node8" class="node">
<title>Node7</title>
<g id="a_node8"><a xlink:href="constraints_8h.html" target="_top" xlink:title="Functions and data structures for constraining secondary structure predictions and evaluation...">
<polygon fill="none" stroke="#000000" points="688,-73 688,-92 814,-92 814,-73 688,-73"/>
<text text-anchor="middle" x="751" y="-80" font-family="Helvetica,sans-Serif" font-size="10.00" fill="#000000">ViennaRNA/constraints.h</text>
</a>
</g>
</g>
<!-- Node3&#45;&gt;Node7 -->
<g id="edge30" class="edge">
<title>Node3&#45;&gt;Node7</title>
<path fill="none" stroke="#191970" d="M626.4745,-201.4311C635.1655,-192.3293 651.5281,-178.1171 665,-165 687.52,-143.073 712.0543,-116.2285 729.4491,-99.2411"/>
<polygon fill="#191970" stroke="#191970" points="732.0495,-101.599 736.906,-92.1828 727.2374,-96.5152 732.0495,-101.599"/>
</g>
<!-- Node13 -->
<g id="node14" class="node">
<title>Node13</title>
<g id="a_node14"><a xlink:href="grammar_8h.html" target="_top" xlink:title="Implementations for the RNA folding grammar. ">
<polygon fill="none" stroke="#000000" points="870,-73 870,-92 986,-92 986,-73 870,-73"/>
<text text-anchor="middle" x="928" y="-80" font-family="Helvetica,sans-Serif" font-size="10.00" fill="#000000">ViennaRNA/grammar.h</text>
</a>
</g>
</g>
<!-- Node3&#45;&gt;Node13 -->
<g id="edge31" class="edge">
<title>Node3&#45;&gt;Node13</title>
<path fill="none" stroke="#191970" d="M690.6581,-201.4855C746.6543,-193.2578 820.5129,-180.2952 847,-165 874.2677,-149.254 896.391,-119.3479 911.0497,-100.1964"/>
<polygon fill="#191970" stroke="#191970" points="913.8621,-102.2815 917.2512,-92.2433 908.3419,-97.977 913.8621,-102.2815"/>
</g>
<!-- Node14 -->
<g id="node15" class="node">
<title>Node14</title>
<g id="a_node15"><a xlink:href="structured__domains_8h.html" target="_top" xlink:title="This module provides interfaces that deal with additional structured domains in the folding grammar...">
<polygon fill="none" stroke="#000000" points="188.5,-67.5 188.5,-97.5 301.5,-97.5 301.5,-67.5 188.5,-67.5"/>
<text text-anchor="start" x="196.5" y="-85.5" font-family="Helvetica,sans-Serif" font-size="10.00" fill="#000000">ViennaRNA/structured</text>
<text text-anchor="middle" x="245" y="-74.5" font-family="Helvetica,sans-Serif" font-size="10.00" fill="#000000">_domains.h</text>
</a>
</g>
</g>
<!-- Node3&#45;&gt;Node14 -->
<g id="edge32" class="edge">
<title>Node3&#45;&gt;Node14</title>
<path fill="none" stroke="#191970" d="M548.9332,-204.6647C475.0239,-197.3503 366.4895,-183.8578 329,-165 301.3224,-151.0777 276.9729,-124.7211 261.713,-105.5347"/>
<polygon fill="#191970" stroke="#191970" points="264.4337,-103.3313 255.5542,-97.5515 258.8913,-107.6071 264.4337,-103.3313"/>
</g>
<!-- Node15 -->
<g id="node16" class="node">
<title>Node15</title>
<g id="a_node16"><a xlink:href="unstructured__domains_8h.html" target="_top" xlink:title="Functions to modify unstructured domains, e.g. to incorporate ligands binding to unpaired stretches...">
<polygon fill="none" stroke="#000000" points="320,-67.5 320,-97.5 444,-97.5 444,-67.5 320,-67.5"/>
<text text-anchor="start" x="328" y="-85.5" font-family="Helvetica,sans-Serif" font-size="10.00" fill="#000000">ViennaRNA/unstructured</text>
<text text-anchor="middle" x="382" y="-74.5" font-family="Helvetica,sans-Serif" font-size="10.00" fill="#000000">_domains.h</text>
</a>
</g>
</g>
<!-- Node3&#45;&gt;Node15 -->
<g id="edge33" class="edge">
<title>Node3&#45;&gt;Node15</title>
<path fill="none" stroke="#191970" d="M600.8172,-201.2922C573.2811,-186.2171 524.6782,-156.5665 482,-134 460.6935,-122.734 436.4999,-111.1827 417.147,-101.8825"/>
<polygon fill="#191970" stroke="#191970" points="418.5973,-98.6962 408.0692,-97.5088 415.5589,-105.0024 418.5973,-98.6962"/>
</g>
<!-- Node16 -->
<g id="node17" class="node">
<title>Node16</title>
<g id="a_node17"><a xlink:href="structure__utils_8h.html" target="_top" xlink:title="Various utility&#45; and helper&#45;functions for secondary structure parsing, converting, etc. ">
<polygon fill="none" stroke="#000000" points="926,-134.5 926,-164.5 1034,-164.5 1034,-134.5 926,-134.5"/>
<text text-anchor="start" x="934" y="-152.5" font-family="Helvetica,sans-Serif" font-size="10.00" fill="#000000">ViennaRNA/structure</text>
<text text-anchor="middle" x="980" y="-141.5" font-family="Helvetica,sans-Serif" font-size="10.00" fill="#000000">_utils.h</text>
</a>
</g>
</g>
<!-- Node3&#45;&gt;Node16 -->
<g id="edge34" class="edge">
<title>Node3&#45;&gt;Node16</title>
<path fill="none" stroke="#191970" d="M683.0419,-201.4964C740.1059,-192.9734 827.4208,-179.5911 903,-165 907.1462,-164.1995 911.4248,-163.3295 915.7454,-162.4237"/>
<polygon fill="#191970" stroke="#191970" points="916.8134,-165.7746 925.8607,-160.2613 915.3499,-158.9293 916.8134,-165.7746"/>
</g>
<!-- Node4&#45;&gt;Node0 -->
<g id="edge7" class="edge">
<title>Node4&#45;&gt;Node0</title>
<path fill="none" stroke="#191970" d="M410,-159.2484C410,-178.4662 410,-221.5834 410,-247.0662"/>
<polygon fill="#191970" stroke="#191970" points="406.5001,-247.3844 410,-257.3845 413.5001,-247.3845 406.5001,-247.3844"/>
</g>
<!-- Node4&#45;&gt;Node5 -->
<g id="edge6" class="edge">
<title>Node4&#45;&gt;Node5</title>
<path fill="none" stroke="#191970" d="M365.1945,-139.9205C318.5891,-129.8602 243.5484,-113.3926 179,-98 174.33,-96.8864 169.4661,-95.6984 164.6125,-94.4944"/>
<polygon fill="#191970" stroke="#191970" points="165.2803,-91.0537 154.7296,-92.0194 163.5797,-97.844 165.2803,-91.0537"/>
</g>
<!-- Node4&#45;&gt;Node6 -->
<g id="edge8" class="edge">
<title>Node4&#45;&gt;Node6</title>
<path fill="none" stroke="#191970" d="M426.9065,-139.9005C446.622,-128.7062 479.4222,-110.0823 502.2959,-97.0947"/>
<polygon fill="#191970" stroke="#191970" points="504.157,-100.0629 511.1248,-92.0817 500.7007,-93.9757 504.157,-100.0629"/>
</g>
<!-- Node4&#45;&gt;Node7 -->
<g id="edge10" class="edge">
<title>Node4&#45;&gt;Node7</title>
<path fill="none" stroke="#191970" d="M458.4948,-139.9717C520.146,-127.8584 626.4896,-106.9639 692.5527,-93.9838"/>
<polygon fill="#191970" stroke="#191970" points="693.2591,-97.412 702.3967,-92.0496 691.9095,-90.5433 693.2591,-97.412"/>
</g>
<!-- Node4&#45;&gt;Node13 -->
<g id="edge22" class="edge">
<title>Node4&#45;&gt;Node13</title>
<path fill="none" stroke="#191970" d="M482.0602,-141.0124C564.5284,-131.1833 703.6133,-114.2534 823,-98 834.9107,-96.3785 847.5692,-94.5769 859.8211,-92.7923"/>
<polygon fill="#191970" stroke="#191970" points="860.6051,-96.2148 869.9917,-91.3015 859.5898,-89.2888 860.6051,-96.2148"/>
</g>
<!-- Node4&#45;&gt;Node14 -->
<g id="edge24" class="edge">
<title>Node4&#45;&gt;Node14</title>
<path fill="none" stroke="#191970" d="M386.3595,-139.9005C361.6484,-129.8663 322.2366,-113.8627 291.2979,-101.2997"/>
<polygon fill="#191970" stroke="#191970" points="292.576,-98.0412 281.9939,-97.5218 289.9424,-104.5269 292.576,-98.0412"/>
</g>
<!-- Node4&#45;&gt;Node15 -->
<g id="edge25" class="edge">
<title>Node4&#45;&gt;Node15</title>
<path fill="none" stroke="#191970" d="M405.9883,-139.9005C402.4094,-131.3368 397.0135,-118.4252 392.2452,-107.0152"/>
<polygon fill="#191970" stroke="#191970" points="395.3631,-105.3989 388.2778,-97.5218 388.9044,-108.0981 395.3631,-105.3989"/>
</g>
<!-- Node6&#45;&gt;Node3 -->
<g id="edge9" class="edge">
<title>Node6&#45;&gt;Node3</title>
<path fill="none" stroke="#191970" d="M538.9392,-92.2705C558.1326,-113.6776 596.0491,-165.0077 613.4665,-192.6428"/>
<polygon fill="#191970" stroke="#191970" points="610.5491,-194.5828 618.7081,-201.3416 616.5448,-190.97 610.5491,-194.5828"/>
</g>
<!-- Node7&#45;&gt;Node3 -->
<g id="edge11" class="edge">
<title>Node7&#45;&gt;Node3</title>
<path fill="none" stroke="#191970" d="M747.9411,-92.439C737.3069,-108.2343 708.8286,-139.8515 683,-165 672.2646,-175.4527 659.6936,-186.6008 648.5706,-195.3041"/>
<polygon fill="#191970" stroke="#191970" points="646.3013,-192.631 640.4013,-201.4311 650.5014,-198.231 646.3013,-192.631"/>
</g>
<!-- Node8 -->
<g id="node9" class="node">
<title>Node8</title>
<g id="a_node9"><a xlink:href="constraints__hard_8h.html" target="_top" xlink:title="Functions and data structures for handling of secondary structure hard constraints. ">
<polygon fill="none" stroke="#000000" points="647,-.5 647,-30.5 765,-30.5 765,-.5 647,-.5"/>
<text text-anchor="start" x="655" y="-18.5" font-family="Helvetica,sans-Serif" font-size="10.00" fill="#000000">ViennaRNA/constraints</text>
<text text-anchor="middle" x="706" y="-7.5" font-family="Helvetica,sans-Serif" font-size="10.00" fill="#000000">_hard.h</text>
</a>
</g>
</g>
<!-- Node7&#45;&gt;Node8 -->
<g id="edge12" class="edge">
<title>Node7&#45;&gt;Node8</title>
<path fill="none" stroke="#191970" d="M744.5526,-72.9005C738.6266,-64.0773 729.6006,-50.6387 721.7716,-38.9822"/>
<polygon fill="#191970" stroke="#191970" points="724.5703,-36.8717 716.0892,-30.5218 718.7594,-40.7746 724.5703,-36.8717"/>
</g>
<!-- Node9 -->
<g id="node10" class="node">
<title>Node9</title>
<g id="a_node10"><a xlink:href="constraints__soft_8h.html" target="_top" xlink:title="Functions and data structures for secondary structure soft constraints. ">
<polygon fill="none" stroke="#000000" points="783,-.5 783,-30.5 901,-30.5 901,-.5 783,-.5"/>
<text text-anchor="start" x="791" y="-18.5" font-family="Helvetica,sans-Serif" font-size="10.00" fill="#000000">ViennaRNA/constraints</text>
<text text-anchor="middle" x="842" y="-7.5" font-family="Helvetica,sans-Serif" font-size="10.00" fill="#000000">_soft.h</text>
</a>
</g>
</g>
<!-- Node7&#45;&gt;Node9 -->
<g id="edge14" class="edge">
<title>Node7&#45;&gt;Node9</title>
<path fill="none" stroke="#191970" d="M764.0381,-72.9005C776.8442,-63.4718 796.809,-48.7725 813.3288,-36.6096"/>
<polygon fill="#191970" stroke="#191970" points="815.6197,-39.2693 821.5973,-30.5218 811.4694,-33.6323 815.6197,-39.2693"/>
</g>
<!-- Node10 -->
<g id="node11" class="node">
<title>Node10</title>
<g id="a_node11"><a xlink:href="constraints__SHAPE_8h.html" target="_top" xlink:title="This module provides function to incorporate SHAPE reactivity data into the folding recursions by mea...">
<polygon fill="none" stroke="#000000" points="919,-.5 919,-30.5 1037,-30.5 1037,-.5 919,-.5"/>
<text text-anchor="start" x="927" y="-18.5" font-family="Helvetica,sans-Serif" font-size="10.00" fill="#000000">ViennaRNA/constraints</text>
<text text-anchor="middle" x="978" y="-7.5" font-family="Helvetica,sans-Serif" font-size="10.00" fill="#000000">_SHAPE.h</text>
</a>
</g>
</g>
<!-- Node7&#45;&gt;Node10 -->
<g id="edge16" class="edge">
<title>Node7&#45;&gt;Node10</title>
<path fill="none" stroke="#191970" d="M783.5236,-72.9005C818.326,-62.6284 874.3234,-46.1006 917.3124,-33.4122"/>
<polygon fill="#191970" stroke="#191970" points="918.5052,-36.7095 927.1054,-30.5218 916.5236,-29.9958 918.5052,-36.7095"/>
</g>
<!-- Node11 -->
<g id="node12" class="node">
<title>Node11</title>
<g id="a_node12"><a xlink:href="perturbation__fold_8h.html" target="_top" xlink:title="Find a vector of perturbation energies that minimizes the discripancies between predicted and observe...">
<polygon fill="none" stroke="#000000" points="1055.5,-.5 1055.5,-30.5 1176.5,-30.5 1176.5,-.5 1055.5,-.5"/>
<text text-anchor="start" x="1063.5" y="-18.5" font-family="Helvetica,sans-Serif" font-size="10.00" fill="#000000">ViennaRNA/perturbation</text>
<text text-anchor="middle" x="1116" y="-7.5" font-family="Helvetica,sans-Serif" font-size="10.00" fill="#000000">_fold.h</text>
</a>
</g>
</g>
<!-- Node7&#45;&gt;Node11 -->
<g id="edge18" class="edge">
<title>Node7&#45;&gt;Node11</title>
<path fill="none" stroke="#191970" d="M810.1942,-72.9719C867.7051,-63.5323 957.7309,-48.2755 1045.4726,-31.0546"/>
<polygon fill="#191970" stroke="#191970" points="1046.1955,-34.4795 1055.3288,-29.1098 1044.8404,-27.6119 1046.1955,-34.4795"/>
</g>
<!-- Node12 -->
<g id="node13" class="node">
<title>Node12</title>
<g id="a_node13"><a xlink:href="constraints__ligand_8h.html" target="_top" xlink:title="Functions for incorporation of ligands binding to hairpin and interior loop motifs using the soft con...">
<polygon fill="none" stroke="#000000" points="511,-.5 511,-30.5 629,-30.5 629,-.5 511,-.5"/>
<text text-anchor="start" x="519" y="-18.5" font-family="Helvetica,sans-Serif" font-size="10.00" fill="#000000">ViennaRNA/constraints</text>
<text text-anchor="middle" x="570" y="-7.5" font-family="Helvetica,sans-Serif" font-size="10.00" fill="#000000">_ligand.h</text>
</a>
</g>
</g>
<!-- Node7&#45;&gt;Node12 -->
<g id="edge20" class="edge">
<title>Node7&#45;&gt;Node12</title>
<path fill="none" stroke="#191970" d="M725.0671,-72.9005C697.8429,-62.8231 654.3532,-46.7247 620.349,-34.1375"/>
<polygon fill="#191970" stroke="#191970" points="621.1743,-30.7109 610.5812,-30.5218 618.7443,-37.2756 621.1743,-30.7109"/>
</g>
<!-- Node8&#45;&gt;Node3 -->
<g id="edge13" class="edge">
<title>Node8&#45;&gt;Node3</title>
<path fill="none" stroke="#191970" d="M697.5359,-30.6123C691.9846,-40.7651 684.7221,-54.5197 679,-67 658.9178,-110.8007 639.019,-163.8453 628.8883,-191.7266"/>
<polygon fill="#191970" stroke="#191970" points="625.4929,-190.8247 625.3927,-201.4191 632.0778,-193.1995 625.4929,-190.8247"/>
</g>
<!-- Node9&#45;&gt;Node3 -->
<g id="edge15" class="edge">
<title>Node9&#45;&gt;Node3</title>
<path fill="none" stroke="#191970" d="M841.972,-30.6493C841.2135,-48.3943 837.6144,-77.9148 823,-98 784.2991,-151.1883 712.4731,-182.6514 665.9878,-198.366"/>
<polygon fill="#191970" stroke="#191970" points="664.8876,-195.0433 656.474,-201.4824 667.0667,-201.6955 664.8876,-195.0433"/>
</g>
<!-- Node10&#45;&gt;Node3 -->
<g id="edge17" class="edge">
<title>Node10&#45;&gt;Node3</title>
<path fill="none" stroke="#191970" d="M1017.5259,-30.5246C1033.3885,-38.7386 1050.0155,-50.6409 1059,-67 1080.2446,-105.6823 1076.1029,-135.8135 1043,-165 1018.2403,-186.8304 821.0517,-200.6691 705.5304,-206.9859"/>
<polygon fill="#191970" stroke="#191970" points="705.098,-203.5041 695.3009,-207.5373 705.4749,-210.4939 705.098,-203.5041"/>
</g>
<!-- Node11&#45;&gt;Node3 -->
<g id="edge19" class="edge">
<title>Node11&#45;&gt;Node3</title>
<path fill="none" stroke="#191970" d="M1116.1642,-30.741C1115.5882,-61.5895 1109.4964,-131.3439 1068,-165 1040.4728,-187.3263 826.3692,-201.1678 705.0998,-207.2969"/>
<polygon fill="#191970" stroke="#191970" points="704.9118,-203.8018 695.0986,-207.7955 705.2605,-210.7931 704.9118,-203.8018"/>
</g>
<!-- Node12&#45;&gt;Node3 -->
<g id="edge21" class="edge">
<title>Node12&#45;&gt;Node3</title>
<path fill="none" stroke="#191970" d="M582.3389,-30.7772C589.5634,-40.5543 598.1866,-53.8352 603,-67 618.4495,-109.2553 621.593,-162.5568 622.0794,-190.9826"/>
<polygon fill="#191970" stroke="#191970" points="618.5812,-191.2472 622.1544,-201.2213 625.581,-191.1959 618.5812,-191.2472"/>
</g>
<!-- Node13&#45;&gt;Node3 -->
<g id="edge23" class="edge">
<title>Node13&#45;&gt;Node3</title>
<path fill="none" stroke="#191970" d="M927.7755,-92.2433C921.0468,-109.8553 896.4438,-146.8425 865,-165 838.521,-180.2906 764.6992,-193.2499 705.2518,-201.478"/>
<polygon fill="#191970" stroke="#191970" points="704.5288,-198.044 695.0908,-202.858 705.4709,-204.9803 704.5288,-198.044"/>
</g>
<!-- Node15&#45;&gt;Node3 -->
<g id="edge26" class="edge">
<title>Node15&#45;&gt;Node3</title>
<path fill="none" stroke="#191970" d="M423.4877,-97.5088C446.5046,-107.3947 475.207,-120.8905 500,-134 537.6768,-153.922 579.9712,-179.365 603.7882,-195.4267"/>
<polygon fill="#191970" stroke="#191970" points="602.0307,-198.4673 612.242,-201.2922 606.0211,-192.716 602.0307,-198.4673"/>
</g>
<!-- Node16&#45;&gt;Node3 -->
<g id="edge36" class="edge">
<title>Node16&#45;&gt;Node3</title>
<path fill="none" stroke="#191970" d="M925.6848,-164.0776C924.1095,-164.3936 922.5455,-164.7016 921,-165 848.726,-178.953 765.7204,-191.8006 705.4683,-200.3507"/>
<polygon fill="#191970" stroke="#191970" points="704.6602,-196.9299 695.2463,-201.7908 705.6368,-203.8614 704.6602,-196.9299"/>
</g>
<!-- Node17 -->
<g id="node18" class="node">
<title>Node17</title>
<polygon fill="none" stroke="#bfbfbf" points="1004,-73 1004,-92 1050,-92 1050,-73 1004,-73"/>
<text text-anchor="middle" x="1027" y="-80" font-family="Helvetica,sans-Serif" font-size="10.00" fill="#000000">stdio.h</text>
</g>
<!-- Node16&#45;&gt;Node17 -->
<g id="edge35" class="edge">
<title>Node16&#45;&gt;Node17</title>
<path fill="none" stroke="#191970" d="M990.665,-134.2967C997.7035,-124.2631 1006.9577,-111.0709 1014.3652,-100.5113"/>
<polygon fill="#191970" stroke="#191970" points="1017.4197,-102.2516 1020.2973,-92.055 1011.6891,-98.2316 1017.4197,-102.2516"/>
</g>
</g>
</svg>
        <g id="navigator" transform="translate(0 0)" fill="#404254">
                <rect fill="#f2f5e9" fill-opacity="0.5" stroke="#606060" stroke-width=".5" x="0" y="0" width="60" height="60"/>
                <use id="zoomplus" xlink:href="#zoomPlus" x="17" y="9" onmousedown="handleZoom(evt,'in')"/>
                <use id="zoomminus" xlink:href="#zoomMin" x="42" y="9" onmousedown="handleZoom(evt,'out')"/>
                <use id="reset" xlink:href="#resetDef" x="30" y="36" onmousedown="handleReset()"/>
                <g id="arrowUp" xlink:href="#dirArrow" transform="translate(30 24)" onmousedown="handlePan(0,-1)">
                  <use xlink:href="#rim" fill="#404040">
                        <set attributeName="fill" to="#808080" begin="arrowUp.mouseover" end="arrowUp.mouseout"/>
                  </use>
                  <path fill="none" stroke="white" stroke-width="1.5" d="M0,-3.0v7 M-2.5,-0.5L0,-3.0L2.5,-0.5"/>
                </g>
                <g id="arrowRight" xlink:href="#dirArrow" transform="rotate(90) translate(36 -43)" onmousedown="handlePan(1,0)">
                  <use xlink:href="#rim" fill="#404040">
                        <set attributeName="fill" to="#808080" begin="arrowRight.mouseover" end="arrowRight.mouseout"/>
                  </use>
                  <path fill="none" stroke="white" stroke-width="1.5" d="M0,-3.0v7 M-2.5,-0.5L0,-3.0L2.5,-0.5"/>
                </g>
                <g id="arrowDown" xlink:href="#dirArrow" transform="rotate(180) translate(-30 -48)" onmousedown="handlePan(0,1)">
                  <use xlink:href="#rim" fill="#404040">
                        <set attributeName="fill" to="#808080" begin="arrowDown.mouseover" end="arrowDown.mouseout"/>
                  </use>
                  <path fill="none" stroke="white" stroke-width="1.5" d="M0,-3.0v7 M-2.5,-0.5L0,-3.0L2.5,-0.5"/>
                </g>
                <g id="arrowLeft" xlink:href="#dirArrow" transform="rotate(270) translate(-36 17)" onmousedown="handlePan(-1,0)">
                  <use xlink:href="#rim" fill="#404040">
                        <set attributeName="fill" to="#808080" begin="arrowLeft.mouseover" end="arrowLeft.mouseout"/>
                  </use>
                  <path fill="none" stroke="white" stroke-width="1.5" d="M0,-3.0v7 M-2.5,-0.5L0,-3.0L2.5,-0.5"/>
                </g>
        </g>
        <svg viewBox="0 0 15 15" width="100%" height="30px" preserveAspectRatio="xMaxYMin meet">
         <g id="arrow_out" transform="scale(0.3 0.3)">
          <a xlink:href="params_8h__incl_org.svg" target="_base">
           <rect id="button" ry="5" rx="5" y="6" x="6" height="38" width="38"
                fill="#f2f5e9" fill-opacity="0.5" stroke="#606060" stroke-width="1.0"/>
           <path id="arrow"
             d="M 11.500037,31.436501 C 11.940474,20.09759 22.043105,11.32322 32.158766,21.979434 L 37.068811,17.246167 C 37.068811,17.246167 37.088388,32 37.088388,32 L 22.160133,31.978069 C 22.160133,31.978069 26.997745,27.140456 26.997745,27.140456 C 18.528582,18.264221 13.291696,25.230495 11.500037,31.436501 z"
             style="fill:#404040;"/>
          </a>
         </g>
        </svg>
</svg>
