<?xml version="1.0" encoding="UTF-8" standalone="no"?>
<!DOCTYPE svg PUBLIC "-//W3C//DTD SVG 1.1//EN"
 "http://www.w3.org/Graphics/SVG/1.1/DTD/svg11.dtd">
<!-- Generated by graphviz version 2.40.1 (20161225.0304)
 -->
<!-- Title: ViennaRNA/part_func.h Pages: 1 -->
<!--zoomable 408 -->
<svg id="main" version="1.1" xmlns="http://www.w3.org/2000/svg" xmlns:xlink="http://www.w3.org/1999/xlink" xml:space="preserve" onload="init(evt)">
<style type="text/css"><![CDATA[
.edge:hover path { stroke: red; }
.edge:hover polygon { stroke: red; fill: red; }
]]></style>
<script type="text/javascript"><![CDATA[
var edges = document.getElementsByTagName('g');
if (edges && edges.length) {
  for (var i=0;i<edges.length;i++) {
    if (edges[i].id.substr(0,4)=='edge') {
      edges[i].setAttribute('class','edge');
    }
  }
}
]]></script>
        <defs>
                <circle id="rim" cx="0" cy="0" r="7"/>
                <circle id="rim2" cx="0" cy="0" r="3.5"/>
                <g id="zoomPlus">
                        <use xlink:href="#rim" fill="#404040">
                                <set attributeName="fill" to="#808080" begin="zoomplus.mouseover" end="zoomplus.mouseout"/>
                        </use>
                        <path d="M-4,0h8M0,-4v8" fill="none" stroke="white" stroke-width="1.5" pointer-events="none"/>
                </g>
                <g id="zoomMin">
                        <use xlink:href="#rim" fill="#404040">
                                <set attributeName="fill" to="#808080" begin="zoomminus.mouseover" end="zoomminus.mouseout"/>
                        </use>
                        <path d="M-4,0h8" fill="none" stroke="white" stroke-width="1.5" pointer-events="none"/>
                </g>
                <g id="dirArrow">
                        <path fill="none" stroke="white" stroke-width="1.5" d="M0,-3.0v7 M-2.5,-0.5L0,-3.0L2.5,-0.5"/>
                </g>
               <g id="resetDef">
                       <use xlink:href="#rim2" fill="#404040">
                               <set attributeName="fill" to="#808080" begin="reset.mouseover" end="reset.mouseout"/>
                       </use>
               </g>
        </defs>

<script type="text/javascript">
var viewWidth = 1188;
var viewHeight = 408;
var sectionId = 'dynsection-0';
</script>
<script xlink:href="svgpan.js"/>
<svg id="graph" class="graph">
<g id="viewport">
<title>ViennaRNA/part_func.h</title>
<!-- Node0 -->
<g id="node1" class="node">
<title>Node0</title>
<polygon fill="#bfbfbf" stroke="#000000" points="774.5,-380.5 774.5,-399.5 893.5,-399.5 893.5,-380.5 774.5,-380.5"/>
<text text-anchor="middle" x="834" y="-387.5" font-family="Helvetica,sans-Serif" font-size="10.00" fill="#000000">ViennaRNA/part_func.h</text>
</g>
<!-- Node1 -->
<g id="node2" class="node">
<title>Node1</title>
<g id="a_node2"><a xlink:href="data__structures_8h.html" target="_top" xlink:title="Various data structures and pre&#45;processor macros. ">
<polygon fill="none" stroke="#000000" points="632,-257.5 632,-276.5 778,-276.5 778,-257.5 632,-257.5"/>
<text text-anchor="middle" x="705" y="-264.5" font-family="Helvetica,sans-Serif" font-size="10.00" fill="#000000">ViennaRNA/data_structures.h</text>
</a>
</g>
</g>
<!-- Node0&#45;&gt;Node1 -->
<g id="edge1" class="edge">
<title>Node0&#45;&gt;Node1</title>
<path fill="none" stroke="#191970" d="M817.3196,-380.4404C803.1306,-371.8823 782.6285,-358.4801 767,-344 747.4544,-325.8906 728.8134,-301.4272 717.1682,-284.9767"/>
<polygon fill="#191970" stroke="#191970" points="720.036,-282.9702 711.457,-276.7531 714.2865,-286.9632 720.036,-282.9702"/>
</g>
<!-- Node6 -->
<g id="node7" class="node">
<title>Node6</title>
<g id="a_node7"><a xlink:href="params_8h.html" target="_top" xlink:title="Functions to deal with sets of energy parameters. ">
<polygon fill="none" stroke="#000000" points="938,-129 938,-148 1048,-148 1048,-129 938,-129"/>
<text text-anchor="middle" x="993" y="-136" font-family="Helvetica,sans-Serif" font-size="10.00" fill="#000000">ViennaRNA/params.h</text>
</a>
</g>
</g>
<!-- Node0&#45;&gt;Node6 -->
<g id="edge39" class="edge">
<title>Node0&#45;&gt;Node6</title>
<path fill="none" stroke="#191970" d="M893.9161,-385.3289C935.2545,-379.9835 990.2488,-368.5301 1033,-344 1098.1758,-306.603 1121.2636,-290.8363 1149,-221 1154.0856,-208.1952 1157.0721,-201.1655 1149,-190 1137.1386,-173.5931 1090.4563,-159.5452 1051.222,-150.2856"/>
<polygon fill="#191970" stroke="#191970" points="1051.9633,-146.8648 1041.4334,-148.0361 1050.3955,-153.687 1051.9633,-146.8648"/>
</g>
<!-- Node19 -->
<g id="node20" class="node">
<title>Node19</title>
<g id="a_node20"><a xlink:href="centroid_8h.html" target="_top" xlink:title="Centroid structure computation. ">
<polygon fill="none" stroke="#000000" points="910.5,-319 910.5,-338 1023.5,-338 1023.5,-319 910.5,-319"/>
<text text-anchor="middle" x="967" y="-326" font-family="Helvetica,sans-Serif" font-size="10.00" fill="#000000">ViennaRNA/centroid.h</text>
</a>
</g>
</g>
<!-- Node0&#45;&gt;Node19 -->
<g id="edge40" class="edge">
<title>Node0&#45;&gt;Node19</title>
<path fill="none" stroke="#191970" d="M854.7813,-380.3906C876.8394,-370.1908 911.905,-353.9763 936.9669,-342.3875"/>
<polygon fill="#191970" stroke="#191970" points="938.7571,-345.4158 946.3647,-338.0419 935.8191,-339.0622 938.7571,-345.4158"/>
</g>
<!-- Node20 -->
<g id="node21" class="node">
<title>Node20</title>
<g id="a_node21"><a xlink:href="equilibrium__probs_8h.html" target="_top" xlink:title="Equilibrium Probability implementations. ">
<polygon fill="none" stroke="#000000" points="776,-313.5 776,-343.5 892,-343.5 892,-313.5 776,-313.5"/>
<text text-anchor="start" x="784" y="-331.5" font-family="Helvetica,sans-Serif" font-size="10.00" fill="#000000">ViennaRNA/equilibrium</text>
<text text-anchor="middle" x="834" y="-320.5" font-family="Helvetica,sans-Serif" font-size="10.00" fill="#000000">_probs.h</text>
</a>
</g>
</g>
<!-- Node0&#45;&gt;Node20 -->
<g id="edge43" class="edge">
<title>Node0&#45;&gt;Node20</title>
<path fill="none" stroke="#191970" d="M834,-380.3906C834,-373.2234 834,-363.0862 834,-353.671"/>
<polygon fill="#191970" stroke="#191970" points="837.5001,-353.5446 834,-343.5446 830.5001,-353.5446 837.5001,-353.5446"/>
</g>
<!-- Node21 -->
<g id="node22" class="node">
<title>Node21</title>
<g id="a_node22"><a xlink:href="boltzmann__sampling_8h.html" target="_top" xlink:title="Boltzmann Sampling of secondary structures from the ensemble. ">
<polygon fill="none" stroke="#000000" points="604.5,-313.5 604.5,-343.5 719.5,-343.5 719.5,-313.5 604.5,-313.5"/>
<text text-anchor="start" x="612.5" y="-331.5" font-family="Helvetica,sans-Serif" font-size="10.00" fill="#000000">ViennaRNA/boltzmann</text>
<text text-anchor="middle" x="662" y="-320.5" font-family="Helvetica,sans-Serif" font-size="10.00" fill="#000000">_sampling.h</text>
</a>
</g>
</g>
<!-- Node0&#45;&gt;Node21 -->
<g id="edge45" class="edge">
<title>Node0&#45;&gt;Node21</title>
<path fill="none" stroke="#191970" d="M807.125,-380.3906C782.2304,-371.4893 744.5245,-358.0073 713.7861,-347.0165"/>
<polygon fill="#191970" stroke="#191970" points="714.6705,-343.6158 704.0759,-343.5446 712.3137,-350.2072 714.6705,-343.6158"/>
</g>
<!-- Node2 -->
<g id="node3" class="node">
<title>Node2</title>
<g id="a_node3"><a xlink:href="energy__const_8h.html" target="_top" xlink:title="Energy parameter constants. ">
<polygon fill="none" stroke="#000000" points="1042.5,-62 1042.5,-81 1179.5,-81 1179.5,-62 1042.5,-62"/>
<text text-anchor="middle" x="1111" y="-69" font-family="Helvetica,sans-Serif" font-size="10.00" fill="#000000">ViennaRNA/energy_const.h</text>
</a>
</g>
</g>
<!-- Node1&#45;&gt;Node2 -->
<g id="edge2" class="edge">
<title>Node1&#45;&gt;Node2</title>
<path fill="none" stroke="#191970" d="M778.0866,-262.7563C831.3721,-257.6068 904.3754,-246.2117 964,-221 1010.9206,-201.1601 1021.7929,-190.8187 1057,-154 1075.4938,-134.6597 1091.5366,-108.1775 1101.2261,-90.4867"/>
<polygon fill="#191970" stroke="#191970" points="1104.5567,-91.6787 1106.1675,-81.207 1098.378,-88.3886 1104.5567,-91.6787"/>
</g>
<!-- Node4 -->
<g id="node5" class="node">
<title>Node4</title>
<g id="a_node5"><a xlink:href="fold__compound_8h.html" target="_top" xlink:title="The Basic Fold Compound API. ">
<polygon fill="none" stroke="#000000" points="448,-196 448,-215 592,-215 592,-196 448,-196"/>
<text text-anchor="middle" x="520" y="-203" font-family="Helvetica,sans-Serif" font-size="10.00" fill="#000000">ViennaRNA/fold_compound.h</text>
</a>
</g>
</g>
<!-- Node1&#45;&gt;Node4 -->
<g id="edge4" class="edge">
<title>Node1&#45;&gt;Node4</title>
<path fill="none" stroke="#191970" d="M676.0938,-257.3906C644.461,-246.8749 593.597,-229.966 558.5771,-218.3243"/>
<polygon fill="#191970" stroke="#191970" points="559.2968,-214.8753 548.7033,-215.0419 557.0885,-221.5178 559.2968,-214.8753"/>
</g>
<!-- Node5 -->
<g id="node6" class="node">
<title>Node5</title>
<g id="a_node6"><a xlink:href="model_8h.html" target="_top" xlink:title="The model details data structure and its corresponding modifiers. ">
<polygon fill="none" stroke="#000000" points="920,-62 920,-81 1024,-81 1024,-62 920,-62"/>
<text text-anchor="middle" x="972" y="-69" font-family="Helvetica,sans-Serif" font-size="10.00" fill="#000000">ViennaRNA/model.h</text>
</a>
</g>
</g>
<!-- Node1&#45;&gt;Node5 -->
<g id="edge29" class="edge">
<title>Node1&#45;&gt;Node5</title>
<path fill="none" stroke="#191970" d="M762.3057,-257.4475C791.0722,-250.6597 825.369,-239.378 852,-221 897.5898,-189.5386 894.1343,-166.0422 929,-123 938.1862,-111.6595 948.681,-99.083 957.0028,-89.1971"/>
<polygon fill="#191970" stroke="#191970" points="959.8926,-91.1998 963.669,-81.3008 954.5438,-86.6842 959.8926,-91.1998"/>
</g>
<!-- Node1&#45;&gt;Node6 -->
<g id="edge30" class="edge">
<title>Node1&#45;&gt;Node6</title>
<path fill="none" stroke="#191970" d="M767.2993,-257.459C819.8319,-249.0802 890.1429,-235.9222 915,-221 941.3966,-205.1536 962.4144,-175.495 976.4363,-156.3907"/>
<polygon fill="#191970" stroke="#191970" points="979.3735,-158.3075 982.5656,-148.2049 973.7702,-154.1119 979.3735,-158.3075"/>
</g>
<!-- Node7 -->
<g id="node8" class="node">
<title>Node7</title>
<g id="a_node8"><a xlink:href="dp__matrices_8h.html" target="_top" xlink:title="Functions to deal with standard dynamic programming (DP) matrices. ">
<polygon fill="none" stroke="#000000" points="46.5,-129 46.5,-148 177.5,-148 177.5,-129 46.5,-129"/>
<text text-anchor="middle" x="112" y="-136" font-family="Helvetica,sans-Serif" font-size="10.00" fill="#000000">ViennaRNA/dp_matrices.h</text>
</a>
</g>
</g>
<!-- Node1&#45;&gt;Node7 -->
<g id="edge31" class="edge">
<title>Node1&#45;&gt;Node7</title>
<path fill="none" stroke="#191970" d="M631.9398,-263.4209C554.585,-258.3179 429.6615,-246.5661 325,-221 254.4858,-203.7752 175.6521,-171.0737 136.4583,-152.4324"/>
<polygon fill="#191970" stroke="#191970" points="137.9005,-149.2419 127.377,-148.0141 134.8379,-155.5364 137.9005,-149.2419"/>
</g>
<!-- Node8 -->
<g id="node9" class="node">
<title>Node8</title>
<g id="a_node9"><a xlink:href="constraints_8h.html" target="_top" xlink:title="Functions and data structures for constraining secondary structure predictions and evaluation...">
<polygon fill="none" stroke="#000000" points="642,-129 642,-148 768,-148 768,-129 642,-129"/>
<text text-anchor="middle" x="705" y="-136" font-family="Helvetica,sans-Serif" font-size="10.00" fill="#000000">ViennaRNA/constraints.h</text>
</a>
</g>
</g>
<!-- Node1&#45;&gt;Node8 -->
<g id="edge32" class="edge">
<title>Node1&#45;&gt;Node8</title>
<path fill="none" stroke="#191970" d="M701.2266,-257.3416C697.7438,-236.4114 697.3173,-186.504 699.947,-158.4762"/>
<polygon fill="#191970" stroke="#191970" points="703.4553,-158.6242 701.208,-148.2705 696.5081,-157.7658 703.4553,-158.6242"/>
</g>
<!-- Node14 -->
<g id="node15" class="node">
<title>Node14</title>
<g id="a_node15"><a xlink:href="grammar_8h.html" target="_top" xlink:title="Implementations for the RNA folding grammar. ">
<polygon fill="none" stroke="#000000" points="196,-129 196,-148 312,-148 312,-129 196,-129"/>
<text text-anchor="middle" x="254" y="-136" font-family="Helvetica,sans-Serif" font-size="10.00" fill="#000000">ViennaRNA/grammar.h</text>
</a>
</g>
</g>
<!-- Node1&#45;&gt;Node14 -->
<g id="edge33" class="edge">
<title>Node1&#45;&gt;Node14</title>
<path fill="none" stroke="#191970" d="M631.9761,-263.2744C568.5419,-258.3101 475.1712,-246.903 398,-221 349.1193,-204.5929 297.3344,-173.3383 270.9703,-154.3629"/>
<polygon fill="#191970" stroke="#191970" points="272.8538,-151.4008 262.7515,-148.2077 268.6576,-157.0037 272.8538,-151.4008"/>
</g>
<!-- Node15 -->
<g id="node16" class="node">
<title>Node15</title>
<g id="a_node16"><a xlink:href="structured__domains_8h.html" target="_top" xlink:title="This module provides interfaces that deal with additional structured domains in the folding grammar...">
<polygon fill="none" stroke="#000000" points="330.5,-123.5 330.5,-153.5 443.5,-153.5 443.5,-123.5 330.5,-123.5"/>
<text text-anchor="start" x="338.5" y="-141.5" font-family="Helvetica,sans-Serif" font-size="10.00" fill="#000000">ViennaRNA/structured</text>
<text text-anchor="middle" x="387" y="-130.5" font-family="Helvetica,sans-Serif" font-size="10.00" fill="#000000">_domains.h</text>
</a>
</g>
</g>
<!-- Node1&#45;&gt;Node15 -->
<g id="edge34" class="edge">
<title>Node1&#45;&gt;Node15</title>
<path fill="none" stroke="#191970" d="M631.7491,-261.0231C564.1801,-254.3291 469.8173,-241.6257 439,-221 418.367,-207.1905 404.3094,-182.1309 396.0644,-163.2414"/>
<polygon fill="#191970" stroke="#191970" points="399.208,-161.6821 392.1778,-153.7557 392.7306,-164.3361 399.208,-161.6821"/>
</g>
<!-- Node16 -->
<g id="node17" class="node">
<title>Node16</title>
<g id="a_node17"><a xlink:href="unstructured__domains_8h.html" target="_top" xlink:title="Functions to modify unstructured domains, e.g. to incorporate ligands binding to unpaired stretches...">
<polygon fill="none" stroke="#000000" points="500,-123.5 500,-153.5 624,-153.5 624,-123.5 500,-123.5"/>
<text text-anchor="start" x="508" y="-141.5" font-family="Helvetica,sans-Serif" font-size="10.00" fill="#000000">ViennaRNA/unstructured</text>
<text text-anchor="middle" x="562" y="-130.5" font-family="Helvetica,sans-Serif" font-size="10.00" fill="#000000">_domains.h</text>
</a>
</g>
</g>
<!-- Node1&#45;&gt;Node16 -->
<g id="edge35" class="edge">
<title>Node1&#45;&gt;Node16</title>
<path fill="none" stroke="#191970" d="M690.4784,-257.3416C664.4328,-236.9814 610.7647,-189.2007 581.5706,-160.8137"/>
<polygon fill="#191970" stroke="#191970" points="583.9426,-158.2371 574.3676,-153.7016 579.0243,-163.2182 583.9426,-158.2371"/>
</g>
<!-- Node17 -->
<g id="node18" class="node">
<title>Node17</title>
<g id="a_node18"><a xlink:href="structure__utils_8h.html" target="_top" xlink:title="Various utility&#45; and helper&#45;functions for secondary structure parsing, converting, etc. ">
<polygon fill="none" stroke="#000000" points="1032,-190.5 1032,-220.5 1140,-220.5 1140,-190.5 1032,-190.5"/>
<text text-anchor="start" x="1040" y="-208.5" font-family="Helvetica,sans-Serif" font-size="10.00" fill="#000000">ViennaRNA/structure</text>
<text text-anchor="middle" x="1086" y="-197.5" font-family="Helvetica,sans-Serif" font-size="10.00" fill="#000000">_utils.h</text>
</a>
</g>
</g>
<!-- Node1&#45;&gt;Node17 -->
<g id="edge36" class="edge">
<title>Node1&#45;&gt;Node17</title>
<path fill="none" stroke="#191970" d="M773.9483,-257.4995C835.7252,-249.1679 928.56,-236.0549 1009,-221 1013.1507,-220.2232 1017.4325,-219.3703 1021.7554,-218.4766"/>
<polygon fill="#191970" stroke="#191970" points="1022.8166,-221.8296 1031.8744,-216.3336 1021.3662,-214.9815 1022.8166,-221.8296"/>
</g>
<!-- Node3 -->
<g id="node4" class="node">
<title>Node3</title>
<polygon fill="none" stroke="#bfbfbf" points="1087,-.5 1087,-19.5 1135,-19.5 1135,-.5 1087,-.5"/>
<text text-anchor="middle" x="1111" y="-7.5" font-family="Helvetica,sans-Serif" font-size="10.00" fill="#000000">limits.h</text>
</g>
<!-- Node2&#45;&gt;Node3 -->
<g id="edge3" class="edge">
<title>Node2&#45;&gt;Node3</title>
<path fill="none" stroke="#191970" d="M1111,-61.8906C1111,-53.3657 1111,-40.6392 1111,-29.9235"/>
<polygon fill="#191970" stroke="#191970" points="1114.5001,-29.7448 1111,-19.7449 1107.5001,-29.7449 1114.5001,-29.7448"/>
</g>
<!-- Node4&#45;&gt;Node5 -->
<g id="edge5" class="edge">
<title>Node4&#45;&gt;Node5</title>
<path fill="none" stroke="#191970" d="M511.0932,-195.8487C496.6499,-179.032 471.596,-144.1384 491,-123 522.6735,-88.4954 864.8151,-94.7934 911,-87 916.798,-86.0216 922.8539,-84.7697 928.8029,-83.4024"/>
<polygon fill="#191970" stroke="#191970" points="929.7529,-86.7736 938.6496,-81.0205 928.107,-79.9699 929.7529,-86.7736"/>
</g>
<!-- Node4&#45;&gt;Node6 -->
<g id="edge6" class="edge">
<title>Node4&#45;&gt;Node6</title>
<path fill="none" stroke="#191970" d="M587.267,-195.9717C677.8889,-183.1352 838.1273,-160.4376 927.7188,-147.747"/>
<polygon fill="#191970" stroke="#191970" points="928.3441,-151.1935 937.7544,-146.3255 927.3623,-144.2627 928.3441,-151.1935"/>
</g>
<!-- Node4&#45;&gt;Node7 -->
<g id="edge10" class="edge">
<title>Node4&#45;&gt;Node7</title>
<path fill="none" stroke="#191970" d="M451.9104,-195.9939C384.4893,-186.3402 278.3909,-170.4999 187,-154 180.3187,-152.7938 173.3189,-151.452 166.3934,-150.0769"/>
<polygon fill="#191970" stroke="#191970" points="166.8403,-146.5966 156.3457,-148.0501 165.4561,-153.4584 166.8403,-146.5966"/>
</g>
<!-- Node4&#45;&gt;Node8 -->
<g id="edge12" class="edge">
<title>Node4&#45;&gt;Node8</title>
<path fill="none" stroke="#191970" d="M546.506,-195.9005C578.6522,-184.2584 632.9866,-164.5805 668.9275,-151.5641"/>
<polygon fill="#191970" stroke="#191970" points="670.3326,-154.7777 678.5432,-148.0817 667.949,-148.1961 670.3326,-154.7777"/>
</g>
<!-- Node4&#45;&gt;Node14 -->
<g id="edge24" class="edge">
<title>Node4&#45;&gt;Node14</title>
<path fill="none" stroke="#191970" d="M482.1712,-195.9717C434.8382,-184.0495 353.7334,-163.6208 302.0538,-150.6038"/>
<polygon fill="#191970" stroke="#191970" points="302.681,-147.1525 292.129,-148.1039 300.9712,-153.9405 302.681,-147.1525"/>
</g>
<!-- Node4&#45;&gt;Node15 -->
<g id="edge26" class="edge">
<title>Node4&#45;&gt;Node15</title>
<path fill="none" stroke="#191970" d="M500.9443,-195.9005C481.455,-186.0826 450.6212,-170.5498 425.9406,-158.1167"/>
<polygon fill="#191970" stroke="#191970" points="427.3248,-154.895 416.8193,-153.5218 424.1755,-161.1466 427.3248,-154.895"/>
</g>
<!-- Node4&#45;&gt;Node16 -->
<g id="edge27" class="edge">
<title>Node4&#45;&gt;Node16</title>
<path fill="none" stroke="#191970" d="M526.0176,-195.9005C531.4943,-187.1638 539.8078,-173.9018 547.0646,-162.3256"/>
<polygon fill="#191970" stroke="#191970" points="550.2375,-163.8536 552.5834,-153.5218 544.3065,-160.1357 550.2375,-163.8536"/>
</g>
<!-- Node6&#45;&gt;Node1 -->
<g id="edge8" class="edge">
<title>Node6&#45;&gt;Node1</title>
<path fill="none" stroke="#191970" d="M993.0899,-148.2049C986.9367,-165.7545 963.577,-202.644 933,-221 909.0898,-235.3537 843.1228,-248.0751 788.2021,-256.4808"/>
<polygon fill="#191970" stroke="#191970" points="787.4577,-253.0533 778.0884,-257.9996 788.4973,-259.9757 787.4577,-253.0533"/>
</g>
<!-- Node6&#45;&gt;Node2 -->
<g id="edge7" class="edge">
<title>Node6&#45;&gt;Node2</title>
<path fill="none" stroke="#191970" d="M1009.9065,-128.9005C1029.622,-117.7062 1062.4222,-99.0823 1085.2959,-86.0947"/>
<polygon fill="#191970" stroke="#191970" points="1087.157,-89.0629 1094.1248,-81.0817 1083.7007,-82.9757 1087.157,-89.0629"/>
</g>
<!-- Node6&#45;&gt;Node5 -->
<g id="edge9" class="edge">
<title>Node6&#45;&gt;Node5</title>
<path fill="none" stroke="#191970" d="M989.9912,-128.9005C986.9036,-119.0495 982.0126,-103.4451 978.1092,-90.9912"/>
<polygon fill="#191970" stroke="#191970" points="981.3339,-89.5771 975.0032,-81.0817 974.6543,-91.6707 981.3339,-89.5771"/>
</g>
<!-- Node7&#45;&gt;Node1 -->
<g id="edge11" class="edge">
<title>Node7&#45;&gt;Node1</title>
<path fill="none" stroke="#191970" d="M137.8424,-148.0141C180.2308,-165.4199 266.51,-202.3155 343,-221 437.0888,-243.9835 547.5526,-255.8026 621.5451,-261.6635"/>
<polygon fill="#191970" stroke="#191970" points="621.4982,-265.1702 631.7382,-262.4515 622.0378,-258.191 621.4982,-265.1702"/>
</g>
<!-- Node8&#45;&gt;Node1 -->
<g id="edge13" class="edge">
<title>Node8&#45;&gt;Node1</title>
<path fill="none" stroke="#191970" d="M708.792,-148.2705C712.2638,-169.3037 712.6795,-219.2236 710.0389,-247.1733"/>
<polygon fill="#191970" stroke="#191970" points="706.5353,-246.9859 708.7734,-257.3416 713.4817,-247.8505 706.5353,-246.9859"/>
</g>
<!-- Node9 -->
<g id="node10" class="node">
<title>Node9</title>
<g id="a_node10"><a xlink:href="constraints__hard_8h.html" target="_top" xlink:title="Functions and data structures for handling of secondary structure hard constraints. ">
<polygon fill="none" stroke="#000000" points="0,-56.5 0,-86.5 118,-86.5 118,-56.5 0,-56.5"/>
<text text-anchor="start" x="8" y="-74.5" font-family="Helvetica,sans-Serif" font-size="10.00" fill="#000000">ViennaRNA/constraints</text>
<text text-anchor="middle" x="59" y="-63.5" font-family="Helvetica,sans-Serif" font-size="10.00" fill="#000000">_hard.h</text>
</a>
</g>
</g>
<!-- Node8&#45;&gt;Node9 -->
<g id="edge14" class="edge">
<title>Node8&#45;&gt;Node9</title>
<path fill="none" stroke="#191970" d="M664.7955,-128.9346C654.4783,-126.7309 643.3659,-124.5747 633,-123 537.4124,-108.4789 259.0043,-86.531 128.2944,-76.6462"/>
<polygon fill="#191970" stroke="#191970" points="128.2416,-73.1323 118.0066,-75.87 127.7149,-80.1125 128.2416,-73.1323"/>
</g>
<!-- Node10 -->
<g id="node11" class="node">
<title>Node10</title>
<g id="a_node11"><a xlink:href="constraints__soft_8h.html" target="_top" xlink:title="Functions and data structures for secondary structure soft constraints. ">
<polygon fill="none" stroke="#000000" points="293,-56.5 293,-86.5 411,-86.5 411,-56.5 293,-56.5"/>
<text text-anchor="start" x="301" y="-74.5" font-family="Helvetica,sans-Serif" font-size="10.00" fill="#000000">ViennaRNA/constraints</text>
<text text-anchor="middle" x="352" y="-63.5" font-family="Helvetica,sans-Serif" font-size="10.00" fill="#000000">_soft.h</text>
</a>
</g>
</g>
<!-- Node8&#45;&gt;Node10 -->
<g id="edge16" class="edge">
<title>Node8&#45;&gt;Node10</title>
<path fill="none" stroke="#191970" d="M661.6408,-128.9399C652.2105,-126.9238 642.2795,-124.8487 633,-123 560.8438,-108.6246 477.9574,-93.6166 421.0049,-83.5361"/>
<polygon fill="#191970" stroke="#191970" points="421.4912,-80.0679 411.0348,-81.7749 420.2735,-86.9612 421.4912,-80.0679"/>
</g>
<!-- Node11 -->
<g id="node12" class="node">
<title>Node11</title>
<g id="a_node12"><a xlink:href="constraints__SHAPE_8h.html" target="_top" xlink:title="This module provides function to incorporate SHAPE reactivity data into the folding recursions by mea...">
<polygon fill="none" stroke="#000000" points="508,-56.5 508,-86.5 626,-86.5 626,-56.5 508,-56.5"/>
<text text-anchor="start" x="516" y="-74.5" font-family="Helvetica,sans-Serif" font-size="10.00" fill="#000000">ViennaRNA/constraints</text>
<text text-anchor="middle" x="567" y="-63.5" font-family="Helvetica,sans-Serif" font-size="10.00" fill="#000000">_SHAPE.h</text>
</a>
</g>
</g>
<!-- Node8&#45;&gt;Node11 -->
<g id="edge18" class="edge">
<title>Node8&#45;&gt;Node11</title>
<path fill="none" stroke="#191970" d="M685.228,-128.9005C664.9168,-119.0393 632.7309,-103.4128 607.0665,-90.9526"/>
<polygon fill="#191970" stroke="#191970" points="608.4648,-87.7408 597.9403,-86.5218 605.4075,-94.0379 608.4648,-87.7408"/>
</g>
<!-- Node12 -->
<g id="node13" class="node">
<title>Node12</title>
<g id="a_node13"><a xlink:href="perturbation__fold_8h.html" target="_top" xlink:title="Find a vector of perturbation energies that minimizes the discripancies between predicted and observe...">
<polygon fill="none" stroke="#000000" points="644.5,-56.5 644.5,-86.5 765.5,-86.5 765.5,-56.5 644.5,-56.5"/>
<text text-anchor="start" x="652.5" y="-74.5" font-family="Helvetica,sans-Serif" font-size="10.00" fill="#000000">ViennaRNA/perturbation</text>
<text text-anchor="middle" x="705" y="-63.5" font-family="Helvetica,sans-Serif" font-size="10.00" fill="#000000">_fold.h</text>
</a>
</g>
</g>
<!-- Node8&#45;&gt;Node12 -->
<g id="edge20" class="edge">
<title>Node8&#45;&gt;Node12</title>
<path fill="none" stroke="#191970" d="M705,-128.9005C705,-120.5099 705,-107.9451 705,-96.7085"/>
<polygon fill="#191970" stroke="#191970" points="708.5001,-96.5217 705,-86.5218 701.5001,-96.5218 708.5001,-96.5217"/>
</g>
<!-- Node13 -->
<g id="node14" class="node">
<title>Node13</title>
<g id="a_node14"><a xlink:href="constraints__ligand_8h.html" target="_top" xlink:title="Functions for incorporation of ligands binding to hairpin and interior loop motifs using the soft con...">
<polygon fill="none" stroke="#000000" points="784,-56.5 784,-86.5 902,-86.5 902,-56.5 784,-56.5"/>
<text text-anchor="start" x="792" y="-74.5" font-family="Helvetica,sans-Serif" font-size="10.00" fill="#000000">ViennaRNA/constraints</text>
<text text-anchor="middle" x="843" y="-63.5" font-family="Helvetica,sans-Serif" font-size="10.00" fill="#000000">_ligand.h</text>
</a>
</g>
</g>
<!-- Node8&#45;&gt;Node13 -->
<g id="edge22" class="edge">
<title>Node8&#45;&gt;Node13</title>
<path fill="none" stroke="#191970" d="M724.772,-128.9005C745.0832,-119.0393 777.2691,-103.4128 802.9335,-90.9526"/>
<polygon fill="#191970" stroke="#191970" points="804.5925,-94.0379 812.0597,-86.5218 801.5352,-87.7408 804.5925,-94.0379"/>
</g>
<!-- Node9&#45;&gt;Node1 -->
<g id="edge15" class="edge">
<title>Node9&#45;&gt;Node1</title>
<path fill="none" stroke="#191970" d="M46.4336,-86.6388C39.2017,-96.3639 30.8131,-109.6386 27,-123 13.898,-168.9112 29.8319,-196.8196 71,-221 117.3243,-248.2089 459.9944,-260.6398 621.3814,-265.0319"/>
<polygon fill="#191970" stroke="#191970" points="621.6542,-268.5404 631.7444,-265.3096 621.8418,-261.5429 621.6542,-268.5404"/>
</g>
<!-- Node10&#45;&gt;Node1 -->
<g id="edge17" class="edge">
<title>Node10&#45;&gt;Node1</title>
<path fill="none" stroke="#191970" d="M292.7046,-77.0696C206.0688,-85.8135 53.3493,-103.7607 37,-123 28.0782,-133.4989 28.9524,-142.8168 37,-154 91.7561,-230.0902 145.3274,-201.4019 237,-221 369.6854,-249.3659 527.3345,-260.2887 621.6135,-264.4614"/>
<polygon fill="#191970" stroke="#191970" points="621.5222,-267.9606 631.6626,-264.8912 621.8213,-260.967 621.5222,-267.9606"/>
</g>
<!-- Node11&#45;&gt;Node1 -->
<g id="edge19" class="edge">
<title>Node11&#45;&gt;Node1</title>
<path fill="none" stroke="#191970" d="M626.0017,-85.0481C687.2746,-99.2535 774.5999,-119.9402 777,-123 809.4629,-164.386 755.2934,-222.7389 724.3154,-250.7508"/>
<polygon fill="#191970" stroke="#191970" points="721.8405,-248.2665 716.6447,-257.4998 726.4644,-253.5219 721.8405,-248.2665"/>
</g>
<!-- Node12&#45;&gt;Node1 -->
<g id="edge21" class="edge">
<title>Node12&#45;&gt;Node1</title>
<path fill="none" stroke="#191970" d="M763.039,-86.6038C781.2552,-94.3752 799.3671,-105.9418 810,-123 833.04,-159.9627 833.831,-184.5422 810,-221 799.7098,-236.7424 782.7089,-247.1306 765.3538,-253.9725"/>
<polygon fill="#191970" stroke="#191970" points="763.9529,-250.7564 755.7161,-257.4201 766.3107,-257.3474 763.9529,-250.7564"/>
</g>
<!-- Node13&#45;&gt;Node1 -->
<g id="edge23" class="edge">
<title>Node13&#45;&gt;Node1</title>
<path fill="none" stroke="#191970" d="M846.7062,-86.9396C852.7978,-116.3437 861.43,-181.0065 831,-221 821.298,-233.7511 785.6201,-246.0852 754.6952,-254.7662"/>
<polygon fill="#191970" stroke="#191970" points="753.5851,-251.4412 744.8606,-257.4523 755.4294,-258.1938 753.5851,-251.4412"/>
</g>
<!-- Node14&#45;&gt;Node1 -->
<g id="edge25" class="edge">
<title>Node14&#45;&gt;Node1</title>
<path fill="none" stroke="#191970" d="M273.2758,-148.2077C303.0828,-165.7618 361.3561,-202.6584 416,-221 483.4386,-243.6362 563.2482,-255.2023 621.9475,-261.0726"/>
<polygon fill="#191970" stroke="#191970" points="621.6264,-264.5577 631.9165,-262.0352 622.2993,-257.5902 621.6264,-264.5577"/>
</g>
<!-- Node16&#45;&gt;Node1 -->
<g id="edge28" class="edge">
<title>Node16&#45;&gt;Node1</title>
<path fill="none" stroke="#191970" d="M583.4663,-153.7016C613.1818,-177.8309 665.4547,-224.7414 690.8037,-249.9691"/>
<polygon fill="#191970" stroke="#191970" points="688.5273,-252.6468 698.0251,-257.3416 693.528,-247.7486 688.5273,-252.6468"/>
</g>
<!-- Node17&#45;&gt;Node1 -->
<g id="edge38" class="edge">
<title>Node17&#45;&gt;Node1</title>
<path fill="none" stroke="#191970" d="M1031.6893,-220.1014C1030.1127,-220.4103 1028.5472,-220.7104 1027,-221 946.5452,-236.0576 853.6911,-249.1727 788.3633,-257.5041"/>
<polygon fill="#191970" stroke="#191970" points="787.6027,-254.0724 778.121,-258.7998 788.4812,-261.017 787.6027,-254.0724"/>
</g>
<!-- Node18 -->
<g id="node19" class="node">
<title>Node18</title>
<polygon fill="none" stroke="#bfbfbf" points="1104,-129 1104,-148 1150,-148 1150,-129 1104,-129"/>
<text text-anchor="middle" x="1127" y="-136" font-family="Helvetica,sans-Serif" font-size="10.00" fill="#000000">stdio.h</text>
</g>
<!-- Node17&#45;&gt;Node18 -->
<g id="edge37" class="edge">
<title>Node17&#45;&gt;Node18</title>
<path fill="none" stroke="#191970" d="M1095.3035,-190.2967C1101.3814,-180.3645 1109.3534,-167.3371 1115.7819,-156.8321"/>
<polygon fill="#191970" stroke="#191970" points="1118.9186,-158.4115 1121.1529,-148.055 1112.9478,-154.7578 1118.9186,-158.4115"/>
</g>
<!-- Node19&#45;&gt;Node1 -->
<g id="edge41" class="edge">
<title>Node19&#45;&gt;Node1</title>
<path fill="none" stroke="#191970" d="M926.5116,-318.9904C918.0803,-317.0104 909.2501,-314.9369 901,-313 851.5423,-301.3888 795.0634,-288.134 755.4791,-278.845"/>
<polygon fill="#191970" stroke="#191970" points="756.0768,-275.3902 745.5416,-276.513 754.4775,-282.2051 756.0768,-275.3902"/>
</g>
<!-- Node19&#45;&gt;Node17 -->
<g id="edge42" class="edge">
<title>Node19&#45;&gt;Node17</title>
<path fill="none" stroke="#191970" d="M976.3377,-318.8484C995.0883,-299.4675 1037.7653,-255.3561 1064.0071,-228.2322"/>
<polygon fill="#191970" stroke="#191970" points="1066.8212,-230.3571 1071.259,-220.7365 1061.7903,-225.4898 1066.8212,-230.3571"/>
</g>
<!-- Node20&#45;&gt;Node1 -->
<g id="edge44" class="edge">
<title>Node20&#45;&gt;Node1</title>
<path fill="none" stroke="#191970" d="M802.443,-313.4554C781.5799,-303.509 754.4309,-290.5659 734.0902,-280.8686"/>
<polygon fill="#191970" stroke="#191970" points="735.5233,-277.6744 724.9904,-276.5303 732.5109,-283.9931 735.5233,-277.6744"/>
</g>
<!-- Node21&#45;&gt;Node1 -->
<g id="edge46" class="edge">
<title>Node21&#45;&gt;Node1</title>
<path fill="none" stroke="#191970" d="M672.6292,-313.2977C678.5981,-304.7609 686.0838,-294.0545 692.3529,-285.0883"/>
<polygon fill="#191970" stroke="#191970" points="695.2534,-287.048 698.1152,-276.8469 689.5165,-283.0368 695.2534,-287.048"/>
</g>
</g>
</svg>
        <g id="navigator" transform="translate(0 0)" fill="#404254">
                <rect fill="#f2f5e9" fill-opacity="0.5" stroke="#606060" stroke-width=".5" x="0" y="0" width="60" height="60"/>
                <use id="zoomplus" xlink:href="#zoomPlus" x="17" y="9" onmousedown="handleZoom(evt,'in')"/>
                <use id="zoomminus" xlink:href="#zoomMin" x="42" y="9" onmousedown="handleZoom(evt,'out')"/>
                <use id="reset" xlink:href="#resetDef" x="30" y="36" onmousedown="handleReset()"/>
                <g id="arrowUp" xlink:href="#dirArrow" transform="translate(30 24)" onmousedown="handlePan(0,-1)">
                  <use xlink:href="#rim" fill="#404040">
                        <set attributeName="fill" to="#808080" begin="arrowUp.mouseover" end="arrowUp.mouseout"/>
                  </use>
                  <path fill="none" stroke="white" stroke-width="1.5" d="M0,-3.0v7 M-2.5,-0.5L0,-3.0L2.5,-0.5"/>
                </g>
                <g id="arrowRight" xlink:href="#dirArrow" transform="rotate(90) translate(36 -43)" onmousedown="handlePan(1,0)">
                  <use xlink:href="#rim" fill="#404040">
                        <set attributeName="fill" to="#808080" begin="arrowRight.mouseover" end="arrowRight.mouseout"/>
                  </use>
                  <path fill="none" stroke="white" stroke-width="1.5" d="M0,-3.0v7 M-2.5,-0.5L0,-3.0L2.5,-0.5"/>
                </g>
                <g id="arrowDown" xlink:href="#dirArrow" transform="rotate(180) translate(-30 -48)" onmousedown="handlePan(0,1)">
                  <use xlink:href="#rim" fill="#404040">
                        <set attributeName="fill" to="#808080" begin="arrowDown.mouseover" end="arrowDown.mouseout"/>
                  </use>
                  <path fill="none" stroke="white" stroke-width="1.5" d="M0,-3.0v7 M-2.5,-0.5L0,-3.0L2.5,-0.5"/>
                </g>
                <g id="arrowLeft" xlink:href="#dirArrow" transform="rotate(270) translate(-36 17)" onmousedown="handlePan(-1,0)">
                  <use xlink:href="#rim" fill="#404040">
                        <set attributeName="fill" to="#808080" begin="arrowLeft.mouseover" end="arrowLeft.mouseout"/>
                  </use>
                  <path fill="none" stroke="white" stroke-width="1.5" d="M0,-3.0v7 M-2.5,-0.5L0,-3.0L2.5,-0.5"/>
                </g>
        </g>
        <svg viewBox="0 0 15 15" width="100%" height="30px" preserveAspectRatio="xMaxYMin meet">
         <g id="arrow_out" transform="scale(0.3 0.3)">
          <a xlink:href="part__func_8h__incl_org.svg" target="_base">
           <rect id="button" ry="5" rx="5" y="6" x="6" height="38" width="38"
                fill="#f2f5e9" fill-opacity="0.5" stroke="#606060" stroke-width="1.0"/>
           <path id="arrow"
             d="M 11.500037,31.436501 C 11.940474,20.09759 22.043105,11.32322 32.158766,21.979434 L 37.068811,17.246167 C 37.068811,17.246167 37.088388,32 37.088388,32 L 22.160133,31.978069 C 22.160133,31.978069 26.997745,27.140456 26.997745,27.140456 C 18.528582,18.264221 13.291696,25.230495 11.500037,31.436501 z"
             style="fill:#404040;"/>
          </a>
         </g>
        </svg>
</svg>
