<?xml version="1.0" encoding="UTF-8" standalone="no"?>
<!DOCTYPE svg PUBLIC "-//W3C//DTD SVG 1.1//EN"
 "http://www.w3.org/Graphics/SVG/1.1/DTD/svg11.dtd">
<!-- Generated by graphviz version 2.40.1 (20161225.0304)
 -->
<!-- Title: ViennaRNA/part_func_co.h Pages: 1 -->
<!--zoomable 341 -->
<svg id="main" version="1.1" xmlns="http://www.w3.org/2000/svg" xmlns:xlink="http://www.w3.org/1999/xlink" xml:space="preserve" onload="init(evt)">
<style type="text/css"><![CDATA[
.edge:hover path { stroke: red; }
.edge:hover polygon { stroke: red; fill: red; }
]]></style>
<script type="text/javascript"><![CDATA[
var edges = document.getElementsByTagName('g');
if (edges && edges.length) {
  for (var i=0;i<edges.length;i++) {
    if (edges[i].id.substr(0,4)=='edge') {
      edges[i].setAttribute('class','edge');
    }
  }
}
]]></script>
        <defs>
                <circle id="rim" cx="0" cy="0" r="7"/>
                <circle id="rim2" cx="0" cy="0" r="3.5"/>
                <g id="zoomPlus">
                        <use xlink:href="#rim" fill="#404040">
                                <set attributeName="fill" to="#808080" begin="zoomplus.mouseover" end="zoomplus.mouseout"/>
                        </use>
                        <path d="M-4,0h8M0,-4v8" fill="none" stroke="white" stroke-width="1.5" pointer-events="none"/>
                </g>
                <g id="zoomMin">
                        <use xlink:href="#rim" fill="#404040">
                                <set attributeName="fill" to="#808080" begin="zoomminus.mouseover" end="zoomminus.mouseout"/>
                        </use>
                        <path d="M-4,0h8" fill="none" stroke="white" stroke-width="1.5" pointer-events="none"/>
                </g>
                <g id="dirArrow">
                        <path fill="none" stroke="white" stroke-width="1.5" d="M0,-3.0v7 M-2.5,-0.5L0,-3.0L2.5,-0.5"/>
                </g>
               <g id="resetDef">
                       <use xlink:href="#rim2" fill="#404040">
                               <set attributeName="fill" to="#808080" begin="reset.mouseover" end="reset.mouseout"/>
                       </use>
               </g>
        </defs>

<script type="text/javascript">
var viewWidth = 1367;
var viewHeight = 341;
var sectionId = 'dynsection-0';
</script>
<script xlink:href="svgpan.js"/>
<svg id="graph" class="graph">
<g id="viewport">
<title>ViennaRNA/part_func_co.h</title>
<!-- Node0 -->
<g id="node1" class="node">
<title>Node0</title>
<polygon fill="#bfbfbf" stroke="#000000" points="242.5,-313.5 242.5,-332.5 376.5,-332.5 376.5,-313.5 242.5,-313.5"/>
<text text-anchor="middle" x="309.5" y="-320.5" font-family="Helvetica,sans-Serif" font-size="10.00" fill="#000000">ViennaRNA/part_func_co.h</text>
</g>
<!-- Node1 -->
<g id="node2" class="node">
<title>Node1</title>
<g id="a_node2"><a xlink:href="data__structures_8h.html" target="_top" xlink:title="Various data structures and pre&#45;processor macros. ">
<polygon fill="none" stroke="#000000" points="611.5,-257.5 611.5,-276.5 757.5,-276.5 757.5,-257.5 611.5,-257.5"/>
<text text-anchor="middle" x="684.5" y="-264.5" font-family="Helvetica,sans-Serif" font-size="10.00" fill="#000000">ViennaRNA/data_structures.h</text>
</a>
</g>
</g>
<!-- Node0&#45;&gt;Node1 -->
<g id="edge1" class="edge">
<title>Node0&#45;&gt;Node1</title>
<path fill="none" stroke="#191970" d="M373.5387,-313.4369C439.335,-303.6113 541.6444,-288.3331 610.7749,-278.0096"/>
<polygon fill="#191970" stroke="#191970" points="611.3521,-281.4623 620.7254,-276.5237 610.3181,-274.5391 611.3521,-281.4623"/>
</g>
<!-- Node6 -->
<g id="node7" class="node">
<title>Node6</title>
<g id="a_node7"><a xlink:href="params_8h.html" target="_top" xlink:title="Functions to deal with sets of energy parameters. ">
<polygon fill="none" stroke="#000000" points="54.5,-129 54.5,-148 164.5,-148 164.5,-129 54.5,-129"/>
<text text-anchor="middle" x="109.5" y="-136" font-family="Helvetica,sans-Serif" font-size="10.00" fill="#000000">ViennaRNA/params.h</text>
</a>
</g>
</g>
<!-- Node0&#45;&gt;Node6 -->
<g id="edge39" class="edge">
<title>Node0&#45;&gt;Node6</title>
<path fill="none" stroke="#191970" d="M299.0287,-313.3402C266.6955,-283.5128 168.1669,-192.6202 127.4248,-155.0357"/>
<polygon fill="#191970" stroke="#191970" points="129.591,-152.2721 119.8676,-148.0641 124.8446,-157.4172 129.591,-152.2721"/>
</g>
<!-- Node2 -->
<g id="node3" class="node">
<title>Node2</title>
<g id="a_node3"><a xlink:href="energy__const_8h.html" target="_top" xlink:title="Energy parameter constants. ">
<polygon fill="none" stroke="#000000" points="0,-62 0,-81 137,-81 137,-62 0,-62"/>
<text text-anchor="middle" x="68.5" y="-69" font-family="Helvetica,sans-Serif" font-size="10.00" fill="#000000">ViennaRNA/energy_const.h</text>
</a>
</g>
</g>
<!-- Node1&#45;&gt;Node2 -->
<g id="edge2" class="edge">
<title>Node1&#45;&gt;Node2</title>
<path fill="none" stroke="#191970" d="M611.4171,-262.4226C498.3039,-254.9076 286.1868,-238.9812 212.5,-221 134.8069,-202.0412 90.3009,-220.246 45.5,-154 32.3573,-134.5662 44.1521,-107.7488 55.1372,-90.0316"/>
<polygon fill="#191970" stroke="#191970" points="58.3681,-91.494 60.9933,-81.2296 52.5401,-87.6166 58.3681,-91.494"/>
</g>
<!-- Node4 -->
<g id="node5" class="node">
<title>Node4</title>
<g id="a_node5"><a xlink:href="fold__compound_8h.html" target="_top" xlink:title="The Basic Fold Compound API. ">
<polygon fill="none" stroke="#000000" points="558.5,-196 558.5,-215 702.5,-215 702.5,-196 558.5,-196"/>
<text text-anchor="middle" x="630.5" y="-203" font-family="Helvetica,sans-Serif" font-size="10.00" fill="#000000">ViennaRNA/fold_compound.h</text>
</a>
</g>
</g>
<!-- Node1&#45;&gt;Node4 -->
<g id="edge4" class="edge">
<title>Node1&#45;&gt;Node4</title>
<path fill="none" stroke="#191970" d="M676.0625,-257.3906C667.9469,-248.1478 655.4945,-233.966 645.6576,-222.7628"/>
<polygon fill="#191970" stroke="#191970" points="648.2846,-220.45 639.0565,-215.2449 643.0245,-225.0686 648.2846,-220.45"/>
</g>
<!-- Node5 -->
<g id="node6" class="node">
<title>Node5</title>
<g id="a_node6"><a xlink:href="model_8h.html" target="_top" xlink:title="The model details data structure and its corresponding modifiers. ">
<polygon fill="none" stroke="#000000" points="478.5,-62 478.5,-81 582.5,-81 582.5,-62 478.5,-62"/>
<text text-anchor="middle" x="530.5" y="-69" font-family="Helvetica,sans-Serif" font-size="10.00" fill="#000000">ViennaRNA/model.h</text>
</a>
</g>
</g>
<!-- Node1&#45;&gt;Node5 -->
<g id="edge29" class="edge">
<title>Node1&#45;&gt;Node5</title>
<path fill="none" stroke="#191970" d="M640.9623,-257.4425C606.1637,-248.8858 561.3188,-235.4843 549.5,-221 519.0052,-183.6276 522.5785,-122.549 526.9666,-91.2906"/>
<polygon fill="#191970" stroke="#191970" points="530.4537,-91.6466 528.5585,-81.2227 523.5396,-90.5533 530.4537,-91.6466"/>
</g>
<!-- Node1&#45;&gt;Node6 -->
<g id="edge30" class="edge">
<title>Node1&#45;&gt;Node6</title>
<path fill="none" stroke="#191970" d="M611.202,-264.62C531.7648,-260.5805 402.1549,-249.7678 294.5,-221 233.0322,-204.5744 165.587,-172.414 131.445,-153.4628"/>
<polygon fill="#191970" stroke="#191970" points="132.7648,-150.186 122.3456,-148.2647 129.2926,-156.2641 132.7648,-150.186"/>
</g>
<!-- Node7 -->
<g id="node8" class="node">
<title>Node7</title>
<g id="a_node8"><a xlink:href="dp__matrices_8h.html" target="_top" xlink:title="Functions to deal with standard dynamic programming (DP) matrices. ">
<polygon fill="none" stroke="#000000" points="597,-129 597,-148 728,-148 728,-129 597,-129"/>
<text text-anchor="middle" x="662.5" y="-136" font-family="Helvetica,sans-Serif" font-size="10.00" fill="#000000">ViennaRNA/dp_matrices.h</text>
</a>
</g>
</g>
<!-- Node1&#45;&gt;Node7 -->
<g id="edge31" class="edge">
<title>Node1&#45;&gt;Node7</title>
<path fill="none" stroke="#191970" d="M686.5966,-257.4191C694.3857,-242.7589 712.0695,-213.9405 702.5,-190 697.044,-176.3503 686.0576,-164.2537 676.7748,-155.2197"/>
<polygon fill="#191970" stroke="#191970" points="678.9126,-152.4248 669.2374,-148.1072 674.1084,-157.5159 678.9126,-152.4248"/>
</g>
<!-- Node8 -->
<g id="node9" class="node">
<title>Node8</title>
<g id="a_node9"><a xlink:href="constraints_8h.html" target="_top" xlink:title="Functions and data structures for constraining secondary structure predictions and evaluation...">
<polygon fill="none" stroke="#000000" points="956.5,-129 956.5,-148 1082.5,-148 1082.5,-129 956.5,-129"/>
<text text-anchor="middle" x="1019.5" y="-136" font-family="Helvetica,sans-Serif" font-size="10.00" fill="#000000">ViennaRNA/constraints.h</text>
</a>
</g>
</g>
<!-- Node1&#45;&gt;Node8 -->
<g id="edge32" class="edge">
<title>Node1&#45;&gt;Node8</title>
<path fill="none" stroke="#191970" d="M757.6515,-258.2971C819.8203,-250.3382 903.4737,-237.3316 933.5,-221 962.2854,-205.3434 986.3243,-174.9311 1002.042,-155.7261"/>
<polygon fill="#191970" stroke="#191970" points="1004.7498,-157.944 1008.4616,-148.0206 999.3716,-153.4634 1004.7498,-157.944"/>
</g>
<!-- Node14 -->
<g id="node15" class="node">
<title>Node14</title>
<g id="a_node15"><a xlink:href="grammar_8h.html" target="_top" xlink:title="Implementations for the RNA folding grammar. ">
<polygon fill="none" stroke="#000000" points="784.5,-129 784.5,-148 900.5,-148 900.5,-129 784.5,-129"/>
<text text-anchor="middle" x="842.5" y="-136" font-family="Helvetica,sans-Serif" font-size="10.00" fill="#000000">ViennaRNA/grammar.h</text>
</a>
</g>
</g>
<!-- Node1&#45;&gt;Node14 -->
<g id="edge33" class="edge">
<title>Node1&#45;&gt;Node14</title>
<path fill="none" stroke="#191970" d="M721.1282,-257.4331C743.5774,-250.5379 771.5584,-239.1616 791.5,-221 810.5494,-203.651 822.211,-175.678 830.4774,-157.1904"/>
<polygon fill="#191970" stroke="#191970" points="833.6977,-158.566 834.7459,-148.0231 827.3519,-155.6112 833.6977,-158.566"/>
</g>
<!-- Node15 -->
<g id="node16" class="node">
<title>Node15</title>
<g id="a_node16"><a xlink:href="structured__domains_8h.html" target="_top" xlink:title="This module provides interfaces that deal with additional structured domains in the folding grammar...">
<polygon fill="none" stroke="#000000" points="183,-123.5 183,-153.5 296,-153.5 296,-123.5 183,-123.5"/>
<text text-anchor="start" x="191" y="-141.5" font-family="Helvetica,sans-Serif" font-size="10.00" fill="#000000">ViennaRNA/structured</text>
<text text-anchor="middle" x="239.5" y="-130.5" font-family="Helvetica,sans-Serif" font-size="10.00" fill="#000000">_domains.h</text>
</a>
</g>
</g>
<!-- Node1&#45;&gt;Node15 -->
<g id="edge34" class="edge">
<title>Node1&#45;&gt;Node15</title>
<path fill="none" stroke="#191970" d="M611.252,-260.0174C531.9088,-251.8108 410.856,-237.2359 367.5,-221 328.963,-206.5687 289.9699,-179.1885 265.3211,-159.94"/>
<polygon fill="#191970" stroke="#191970" points="267.2313,-156.9874 257.225,-153.5053 262.8758,-162.4674 267.2313,-156.9874"/>
</g>
<!-- Node16 -->
<g id="node17" class="node">
<title>Node16</title>
<g id="a_node17"><a xlink:href="unstructured__domains_8h.html" target="_top" xlink:title="Functions to modify unstructured domains, e.g. to incorporate ligands binding to unpaired stretches...">
<polygon fill="none" stroke="#000000" points="314.5,-123.5 314.5,-153.5 438.5,-153.5 438.5,-123.5 314.5,-123.5"/>
<text text-anchor="start" x="322.5" y="-141.5" font-family="Helvetica,sans-Serif" font-size="10.00" fill="#000000">ViennaRNA/unstructured</text>
<text text-anchor="middle" x="376.5" y="-130.5" font-family="Helvetica,sans-Serif" font-size="10.00" fill="#000000">_domains.h</text>
</a>
</g>
</g>
<!-- Node1&#45;&gt;Node16 -->
<g id="edge35" class="edge">
<title>Node1&#45;&gt;Node16</title>
<path fill="none" stroke="#191970" d="M611.179,-260.9803C525.1305,-252.8692 392.3183,-237.5299 376.5,-221 362.1104,-205.9631 361.0945,-181.6279 364.5581,-163.2757"/>
<polygon fill="#191970" stroke="#191970" points="367.9638,-164.083 366.9666,-153.5352 361.1685,-162.4026 367.9638,-164.083"/>
</g>
<!-- Node17 -->
<g id="node18" class="node">
<title>Node17</title>
<g id="a_node18"><a xlink:href="structure__utils_8h.html" target="_top" xlink:title="Various utility&#45; and helper&#45;functions for secondary structure parsing, converting, etc. ">
<polygon fill="none" stroke="#000000" points="394.5,-190.5 394.5,-220.5 502.5,-220.5 502.5,-190.5 394.5,-190.5"/>
<text text-anchor="start" x="402.5" y="-208.5" font-family="Helvetica,sans-Serif" font-size="10.00" fill="#000000">ViennaRNA/structure</text>
<text text-anchor="middle" x="448.5" y="-197.5" font-family="Helvetica,sans-Serif" font-size="10.00" fill="#000000">_utils.h</text>
</a>
</g>
</g>
<!-- Node1&#45;&gt;Node17 -->
<g id="edge36" class="edge">
<title>Node1&#45;&gt;Node17</title>
<path fill="none" stroke="#191970" d="M642.8346,-257.4581C606.0444,-248.3376 552.0451,-234.3638 510.2598,-223.2042"/>
<polygon fill="#191970" stroke="#191970" points="511.026,-219.7861 500.4608,-220.5784 509.2141,-226.5475 511.026,-219.7861"/>
</g>
<!-- Node3 -->
<g id="node4" class="node">
<title>Node3</title>
<polygon fill="none" stroke="#bfbfbf" points="44.5,-.5 44.5,-19.5 92.5,-19.5 92.5,-.5 44.5,-.5"/>
<text text-anchor="middle" x="68.5" y="-7.5" font-family="Helvetica,sans-Serif" font-size="10.00" fill="#000000">limits.h</text>
</g>
<!-- Node2&#45;&gt;Node3 -->
<g id="edge3" class="edge">
<title>Node2&#45;&gt;Node3</title>
<path fill="none" stroke="#191970" d="M68.5,-61.8906C68.5,-53.3657 68.5,-40.6392 68.5,-29.9235"/>
<polygon fill="#191970" stroke="#191970" points="72.0001,-29.7448 68.5,-19.7449 65.0001,-29.7449 72.0001,-29.7448"/>
</g>
<!-- Node4&#45;&gt;Node5 -->
<g id="edge5" class="edge">
<title>Node4&#45;&gt;Node5</title>
<path fill="none" stroke="#191970" d="M622.2362,-195.7939C613.6087,-185.563 599.7881,-168.8967 588.5,-154 572.0836,-132.3357 554.2475,-106.6063 542.7512,-89.7099"/>
<polygon fill="#191970" stroke="#191970" points="545.5709,-87.6316 537.0659,-81.3137 539.7747,-91.5565 545.5709,-87.6316"/>
</g>
<!-- Node4&#45;&gt;Node6 -->
<g id="edge6" class="edge">
<title>Node4&#45;&gt;Node6</title>
<path fill="none" stroke="#191970" d="M559.4279,-195.9661C543.6564,-193.9276 527.0174,-191.8367 511.5,-190 361.4754,-172.2425 322.3463,-179.8357 173.5,-154 167.5829,-152.973 161.3994,-151.7148 155.3078,-150.3635"/>
<polygon fill="#191970" stroke="#191970" points="155.7381,-146.8706 145.2064,-148.026 154.1599,-153.6904 155.7381,-146.8706"/>
</g>
<!-- Node4&#45;&gt;Node7 -->
<g id="edge10" class="edge">
<title>Node4&#45;&gt;Node7</title>
<path fill="none" stroke="#191970" d="M635.0848,-195.9005C639.8848,-185.8505 647.5449,-169.8122 653.5494,-157.2403"/>
<polygon fill="#191970" stroke="#191970" points="656.7721,-158.6137 657.9237,-148.0817 650.4556,-155.5968 656.7721,-158.6137"/>
</g>
<!-- Node4&#45;&gt;Node8 -->
<g id="edge12" class="edge">
<title>Node4&#45;&gt;Node8</title>
<path fill="none" stroke="#191970" d="M685.8211,-195.9717C756.4392,-183.8087 878.4605,-162.7921 953.7516,-149.8243"/>
<polygon fill="#191970" stroke="#191970" points="954.7944,-153.1963 964.0552,-148.0496 953.6062,-146.2979 954.7944,-153.1963"/>
</g>
<!-- Node4&#45;&gt;Node14 -->
<g id="edge24" class="edge">
<title>Node4&#45;&gt;Node14</title>
<path fill="none" stroke="#191970" d="M660.8744,-195.9005C698.1058,-184.134 761.3099,-164.1591 802.4757,-151.1492"/>
<polygon fill="#191970" stroke="#191970" points="803.7015,-154.4325 812.1819,-148.0817 801.592,-147.7579 803.7015,-154.4325"/>
</g>
<!-- Node4&#45;&gt;Node15 -->
<g id="edge26" class="edge">
<title>Node4&#45;&gt;Node15</title>
<path fill="none" stroke="#191970" d="M560.8177,-195.9708C497.0852,-186.9103 400.0021,-172.2456 306.2623,-154.0678"/>
<polygon fill="#191970" stroke="#191970" points="306.8101,-150.6087 296.3243,-152.1248 305.4669,-157.4787 306.8101,-150.6087"/>
</g>
<!-- Node4&#45;&gt;Node16 -->
<g id="edge27" class="edge">
<title>Node4&#45;&gt;Node16</title>
<path fill="none" stroke="#191970" d="M594.3777,-195.9717C555.1684,-185.6291 491.6901,-168.8848 443.3402,-156.1311"/>
<polygon fill="#191970" stroke="#191970" points="444.1375,-152.7217 433.5755,-153.5553 442.352,-159.4902 444.1375,-152.7217"/>
</g>
<!-- Node6&#45;&gt;Node1 -->
<g id="edge8" class="edge">
<title>Node6&#45;&gt;Node1</title>
<path fill="none" stroke="#191970" d="M132.5774,-148.1265C169.822,-165.7173 244.7878,-202.9058 312.5,-221 409.8309,-247.009 525.1078,-258.3415 601.3182,-263.2612"/>
<polygon fill="#191970" stroke="#191970" points="601.1435,-266.757 611.3418,-263.8858 601.5789,-259.7705 601.1435,-266.757"/>
</g>
<!-- Node6&#45;&gt;Node2 -->
<g id="edge7" class="edge">
<title>Node6&#45;&gt;Node2</title>
<path fill="none" stroke="#191970" d="M103.6257,-128.9005C97.4148,-118.751 87.4665,-102.4941 79.7401,-89.8679"/>
<polygon fill="#191970" stroke="#191970" points="82.5685,-87.7844 74.3634,-81.0817 76.5977,-91.4382 82.5685,-87.7844"/>
</g>
<!-- Node6&#45;&gt;Node5 -->
<g id="edge9" class="edge">
<title>Node6&#45;&gt;Node5</title>
<path fill="none" stroke="#191970" d="M146.2592,-128.969C155.1421,-126.8401 164.6317,-124.7096 173.5,-123 276.0611,-103.2286 396.5276,-87.3586 468.028,-78.6995"/>
<polygon fill="#191970" stroke="#191970" points="468.7034,-82.1436 478.214,-77.4746 467.8676,-75.1936 468.7034,-82.1436"/>
</g>
<!-- Node7&#45;&gt;Node1 -->
<g id="edge11" class="edge">
<title>Node7&#45;&gt;Node1</title>
<path fill="none" stroke="#191970" d="M683.319,-148.1072C697.1466,-157.3 713.4457,-172.3519 720.5,-190 728.5742,-210.1998 717.2465,-233.8722 704.9456,-249.5828"/>
<polygon fill="#191970" stroke="#191970" points="702.0513,-247.5772 698.1287,-257.4191 707.3327,-252.1715 702.0513,-247.5772"/>
</g>
<!-- Node8&#45;&gt;Node1 -->
<g id="edge13" class="edge">
<title>Node8&#45;&gt;Node1</title>
<path fill="none" stroke="#191970" d="M1018.8678,-148.0206C1011.3351,-165.607 984.5451,-203.0265 951.5,-221 920.8014,-237.6972 834.0473,-250.919 767.6195,-258.8241"/>
<polygon fill="#191970" stroke="#191970" points="767.0867,-255.3625 757.5604,-259.9993 767.899,-262.3152 767.0867,-255.3625"/>
</g>
<!-- Node9 -->
<g id="node10" class="node">
<title>Node9</title>
<g id="a_node10"><a xlink:href="constraints__hard_8h.html" target="_top" xlink:title="Functions and data structures for handling of secondary structure hard constraints. ">
<polygon fill="none" stroke="#000000" points="692.5,-56.5 692.5,-86.5 810.5,-86.5 810.5,-56.5 692.5,-56.5"/>
<text text-anchor="start" x="700.5" y="-74.5" font-family="Helvetica,sans-Serif" font-size="10.00" fill="#000000">ViennaRNA/constraints</text>
<text text-anchor="middle" x="751.5" y="-63.5" font-family="Helvetica,sans-Serif" font-size="10.00" fill="#000000">_hard.h</text>
</a>
</g>
</g>
<!-- Node8&#45;&gt;Node9 -->
<g id="edge14" class="edge">
<title>Node8&#45;&gt;Node9</title>
<path fill="none" stroke="#191970" d="M981.3867,-128.9717C939.659,-118.5397 871.8803,-101.5951 820.706,-88.8015"/>
<polygon fill="#191970" stroke="#191970" points="821.2555,-85.3312 810.7052,-86.3013 819.5577,-92.1222 821.2555,-85.3312"/>
</g>
<!-- Node10 -->
<g id="node11" class="node">
<title>Node10</title>
<g id="a_node11"><a xlink:href="constraints__soft_8h.html" target="_top" xlink:title="Functions and data structures for secondary structure soft constraints. ">
<polygon fill="none" stroke="#000000" points="828.5,-56.5 828.5,-86.5 946.5,-86.5 946.5,-56.5 828.5,-56.5"/>
<text text-anchor="start" x="836.5" y="-74.5" font-family="Helvetica,sans-Serif" font-size="10.00" fill="#000000">ViennaRNA/constraints</text>
<text text-anchor="middle" x="887.5" y="-63.5" font-family="Helvetica,sans-Serif" font-size="10.00" fill="#000000">_soft.h</text>
</a>
</g>
</g>
<!-- Node8&#45;&gt;Node10 -->
<g id="edge16" class="edge">
<title>Node8&#45;&gt;Node10</title>
<path fill="none" stroke="#191970" d="M1000.5876,-128.9005C981.2448,-119.0826 950.6428,-103.5498 926.1478,-91.1167"/>
<polygon fill="#191970" stroke="#191970" points="927.5964,-87.9269 917.0951,-86.5218 924.4281,-94.1689 927.5964,-87.9269"/>
</g>
<!-- Node11 -->
<g id="node12" class="node">
<title>Node11</title>
<g id="a_node12"><a xlink:href="constraints__SHAPE_8h.html" target="_top" xlink:title="This module provides function to incorporate SHAPE reactivity data into the folding recursions by mea...">
<polygon fill="none" stroke="#000000" points="964.5,-56.5 964.5,-86.5 1082.5,-86.5 1082.5,-56.5 964.5,-56.5"/>
<text text-anchor="start" x="972.5" y="-74.5" font-family="Helvetica,sans-Serif" font-size="10.00" fill="#000000">ViennaRNA/constraints</text>
<text text-anchor="middle" x="1023.5" y="-63.5" font-family="Helvetica,sans-Serif" font-size="10.00" fill="#000000">_SHAPE.h</text>
</a>
</g>
</g>
<!-- Node8&#45;&gt;Node11 -->
<g id="edge18" class="edge">
<title>Node8&#45;&gt;Node11</title>
<path fill="none" stroke="#191970" d="M1020.0731,-128.9005C1020.574,-120.5099 1021.3242,-107.9451 1021.995,-96.7085"/>
<polygon fill="#191970" stroke="#191970" points="1025.5009,-96.7126 1022.6032,-86.5218 1018.5134,-96.2954 1025.5009,-96.7126"/>
</g>
<!-- Node12 -->
<g id="node13" class="node">
<title>Node12</title>
<g id="a_node13"><a xlink:href="perturbation__fold_8h.html" target="_top" xlink:title="Find a vector of perturbation energies that minimizes the discripancies between predicted and observe...">
<polygon fill="none" stroke="#000000" points="1101,-56.5 1101,-86.5 1222,-86.5 1222,-56.5 1101,-56.5"/>
<text text-anchor="start" x="1109" y="-74.5" font-family="Helvetica,sans-Serif" font-size="10.00" fill="#000000">ViennaRNA/perturbation</text>
<text text-anchor="middle" x="1161.5" y="-63.5" font-family="Helvetica,sans-Serif" font-size="10.00" fill="#000000">_fold.h</text>
</a>
</g>
</g>
<!-- Node8&#45;&gt;Node12 -->
<g id="edge20" class="edge">
<title>Node8&#45;&gt;Node12</title>
<path fill="none" stroke="#191970" d="M1039.8451,-128.9005C1060.745,-119.0393 1093.8639,-103.4128 1120.2721,-90.9526"/>
<polygon fill="#191970" stroke="#191970" points="1122.1125,-93.9543 1129.6628,-86.5218 1119.1254,-87.6236 1122.1125,-93.9543"/>
</g>
<!-- Node13 -->
<g id="node14" class="node">
<title>Node13</title>
<g id="a_node14"><a xlink:href="constraints__ligand_8h.html" target="_top" xlink:title="Functions for incorporation of ligands binding to hairpin and interior loop motifs using the soft con...">
<polygon fill="none" stroke="#000000" points="1240.5,-56.5 1240.5,-86.5 1358.5,-86.5 1358.5,-56.5 1240.5,-56.5"/>
<text text-anchor="start" x="1248.5" y="-74.5" font-family="Helvetica,sans-Serif" font-size="10.00" fill="#000000">ViennaRNA/constraints</text>
<text text-anchor="middle" x="1299.5" y="-63.5" font-family="Helvetica,sans-Serif" font-size="10.00" fill="#000000">_ligand.h</text>
</a>
</g>
</g>
<!-- Node8&#45;&gt;Node13 -->
<g id="edge22" class="edge">
<title>Node8&#45;&gt;Node13</title>
<path fill="none" stroke="#191970" d="M1059.3198,-128.9717C1103.8083,-118.3262 1176.6398,-100.8987 1230.456,-88.0212"/>
<polygon fill="#191970" stroke="#191970" points="1231.3614,-91.4035 1240.2723,-85.6723 1229.7323,-84.5957 1231.3614,-91.4035"/>
</g>
<!-- Node9&#45;&gt;Node1 -->
<g id="edge15" class="edge">
<title>Node9&#45;&gt;Node1</title>
<path fill="none" stroke="#191970" d="M753.3114,-86.9304C755.9123,-115.2275 758.1576,-176.589 735.5,-221 729.3192,-233.1149 718.5217,-243.566 708.4484,-251.4309"/>
<polygon fill="#191970" stroke="#191970" points="706.2801,-248.6805 700.2745,-257.4088 710.4123,-254.3307 706.2801,-248.6805"/>
</g>
<!-- Node10&#45;&gt;Node1 -->
<g id="edge17" class="edge">
<title>Node10&#45;&gt;Node1</title>
<path fill="none" stroke="#191970" d="M897.4728,-86.5927C907.3178,-103.519 919.5526,-131.5401 909.5,-154 883.0517,-213.092 811.8958,-241.632 756.6156,-255.1924"/>
<polygon fill="#191970" stroke="#191970" points="755.7842,-251.7923 746.8431,-257.4763 757.3773,-258.6086 755.7842,-251.7923"/>
</g>
<!-- Node11&#45;&gt;Node1 -->
<g id="edge19" class="edge">
<title>Node11&#45;&gt;Node1</title>
<path fill="none" stroke="#191970" d="M1054.6954,-86.6198C1068.6665,-95.1874 1083.7217,-107.3517 1091.5,-123 1097.6327,-135.3376 1098.174,-141.9466 1091.5,-154 1064.3206,-203.0869 1037.0951,-201.4552 984.5,-221 945.877,-235.3526 842.4798,-249.3368 767.8661,-258.046"/>
<polygon fill="#191970" stroke="#191970" points="767.0707,-254.6145 757.5386,-259.2394 767.8743,-261.5683 767.0707,-254.6145"/>
</g>
<!-- Node12&#45;&gt;Node1 -->
<g id="edge21" class="edge">
<title>Node12&#45;&gt;Node1</title>
<path fill="none" stroke="#191970" d="M1154.4774,-86.621C1138.6969,-118.5521 1097.0158,-192.2747 1036.5,-221 990.3949,-242.8849 856.6205,-255.7059 767.9072,-262.031"/>
<polygon fill="#191970" stroke="#191970" points="767.5902,-258.5445 757.8587,-262.7335 768.0785,-265.5274 767.5902,-258.5445"/>
</g>
<!-- Node13&#45;&gt;Node1 -->
<g id="edge23" class="edge">
<title>Node13&#45;&gt;Node1</title>
<path fill="none" stroke="#191970" d="M1282.7122,-86.5764C1246.9019,-117.7578 1159.1154,-189.0833 1071.5,-221 1017.4673,-240.6831 864.5627,-254.5083 767.9113,-261.5767"/>
<polygon fill="#191970" stroke="#191970" points="767.5902,-258.0906 757.8682,-262.3017 768.0943,-265.0725 767.5902,-258.0906"/>
</g>
<!-- Node14&#45;&gt;Node1 -->
<g id="edge25" class="edge">
<title>Node14&#45;&gt;Node1</title>
<path fill="none" stroke="#191970" d="M845.387,-148.0231C844.2767,-164.9533 832.0771,-200.4382 809.5,-221 792.129,-236.8204 768.6577,-247.4922 746.6879,-254.5383"/>
<polygon fill="#191970" stroke="#191970" points="745.6269,-251.2024 737.0578,-257.4331 747.6421,-257.9061 745.6269,-251.2024"/>
</g>
<!-- Node16&#45;&gt;Node1 -->
<g id="edge28" class="edge">
<title>Node16&#45;&gt;Node1</title>
<path fill="none" stroke="#191970" d="M379.5073,-153.5352C379.1933,-172.0084 377.3664,-203.0956 394.5,-221 408.9296,-236.0787 520.7117,-250.1666 601.2358,-258.6809"/>
<polygon fill="#191970" stroke="#191970" points="601.0763,-262.1832 611.3862,-259.7424 601.8045,-255.2211 601.0763,-262.1832"/>
</g>
<!-- Node17&#45;&gt;Node1 -->
<g id="edge38" class="edge">
<title>Node17&#45;&gt;Node1</title>
<path fill="none" stroke="#191970" d="M502.5466,-218.131C545.2455,-228.8456 603.8503,-244.1223 642.945,-254.7321"/>
<polygon fill="#191970" stroke="#191970" points="642.1188,-258.1346 652.6875,-257.3906 643.9616,-251.3815 642.1188,-258.1346"/>
</g>
<!-- Node18 -->
<g id="node19" class="node">
<title>Node18</title>
<polygon fill="none" stroke="#bfbfbf" points="456.5,-129 456.5,-148 502.5,-148 502.5,-129 456.5,-129"/>
<text text-anchor="middle" x="479.5" y="-136" font-family="Helvetica,sans-Serif" font-size="10.00" fill="#000000">stdio.h</text>
</g>
<!-- Node17&#45;&gt;Node18 -->
<g id="edge37" class="edge">
<title>Node17&#45;&gt;Node18</title>
<path fill="none" stroke="#191970" d="M455.5344,-190.2967C460.083,-180.4658 466.0346,-167.6026 470.8688,-157.1545"/>
<polygon fill="#191970" stroke="#191970" points="474.0563,-158.6003 475.079,-148.055 467.7033,-155.6609 474.0563,-158.6003"/>
</g>
</g>
</svg>
        <g id="navigator" transform="translate(0 0)" fill="#404254">
                <rect fill="#f2f5e9" fill-opacity="0.5" stroke="#606060" stroke-width=".5" x="0" y="0" width="60" height="60"/>
                <use id="zoomplus" xlink:href="#zoomPlus" x="17" y="9" onmousedown="handleZoom(evt,'in')"/>
                <use id="zoomminus" xlink:href="#zoomMin" x="42" y="9" onmousedown="handleZoom(evt,'out')"/>
                <use id="reset" xlink:href="#resetDef" x="30" y="36" onmousedown="handleReset()"/>
                <g id="arrowUp" xlink:href="#dirArrow" transform="translate(30 24)" onmousedown="handlePan(0,-1)">
                  <use xlink:href="#rim" fill="#404040">
                        <set attributeName="fill" to="#808080" begin="arrowUp.mouseover" end="arrowUp.mouseout"/>
                  </use>
                  <path fill="none" stroke="white" stroke-width="1.5" d="M0,-3.0v7 M-2.5,-0.5L0,-3.0L2.5,-0.5"/>
                </g>
                <g id="arrowRight" xlink:href="#dirArrow" transform="rotate(90) translate(36 -43)" onmousedown="handlePan(1,0)">
                  <use xlink:href="#rim" fill="#404040">
                        <set attributeName="fill" to="#808080" begin="arrowRight.mouseover" end="arrowRight.mouseout"/>
                  </use>
                  <path fill="none" stroke="white" stroke-width="1.5" d="M0,-3.0v7 M-2.5,-0.5L0,-3.0L2.5,-0.5"/>
                </g>
                <g id="arrowDown" xlink:href="#dirArrow" transform="rotate(180) translate(-30 -48)" onmousedown="handlePan(0,1)">
                  <use xlink:href="#rim" fill="#404040">
                        <set attributeName="fill" to="#808080" begin="arrowDown.mouseover" end="arrowDown.mouseout"/>
                  </use>
                  <path fill="none" stroke="white" stroke-width="1.5" d="M0,-3.0v7 M-2.5,-0.5L0,-3.0L2.5,-0.5"/>
                </g>
                <g id="arrowLeft" xlink:href="#dirArrow" transform="rotate(270) translate(-36 17)" onmousedown="handlePan(-1,0)">
                  <use xlink:href="#rim" fill="#404040">
                        <set attributeName="fill" to="#808080" begin="arrowLeft.mouseover" end="arrowLeft.mouseout"/>
                  </use>
                  <path fill="none" stroke="white" stroke-width="1.5" d="M0,-3.0v7 M-2.5,-0.5L0,-3.0L2.5,-0.5"/>
                </g>
        </g>
        <svg viewBox="0 0 15 15" width="100%" height="30px" preserveAspectRatio="xMaxYMin meet">
         <g id="arrow_out" transform="scale(0.3 0.3)">
          <a xlink:href="part__func__co_8h__incl_org.svg" target="_base">
           <rect id="button" ry="5" rx="5" y="6" x="6" height="38" width="38"
                fill="#f2f5e9" fill-opacity="0.5" stroke="#606060" stroke-width="1.0"/>
           <path id="arrow"
             d="M 11.500037,31.436501 C 11.940474,20.09759 22.043105,11.32322 32.158766,21.979434 L 37.068811,17.246167 C 37.068811,17.246167 37.088388,32 37.088388,32 L 22.160133,31.978069 C 22.160133,31.978069 26.997745,27.140456 26.997745,27.140456 C 18.528582,18.264221 13.291696,25.230495 11.500037,31.436501 z"
             style="fill:#404040;"/>
          </a>
         </g>
        </svg>
</svg>
