<?xml version="1.0" encoding="UTF-8" standalone="no"?>
<!DOCTYPE svg PUBLIC "-//W3C//DTD SVG 1.1//EN"
 "http://www.w3.org/Graphics/SVG/1.1/DTD/svg11.dtd">
<!-- Generated by graphviz version 2.40.1 (20161225.0304)
 -->
<!-- Title: ViennaRNA/plot_structure.h Pages: 1 -->
<!--zoomable 397 -->
<svg id="main" version="1.1" xmlns="http://www.w3.org/2000/svg" xmlns:xlink="http://www.w3.org/1999/xlink" xml:space="preserve" onload="init(evt)">
<style type="text/css"><![CDATA[
.edge:hover path { stroke: red; }
.edge:hover polygon { stroke: red; fill: red; }
]]></style>
<script type="text/javascript"><![CDATA[
var edges = document.getElementsByTagName('g');
if (edges && edges.length) {
  for (var i=0;i<edges.length;i++) {
    if (edges[i].id.substr(0,4)=='edge') {
      edges[i].setAttribute('class','edge');
    }
  }
}
]]></script>
        <defs>
                <circle id="rim" cx="0" cy="0" r="7"/>
                <circle id="rim2" cx="0" cy="0" r="3.5"/>
                <g id="zoomPlus">
                        <use xlink:href="#rim" fill="#404040">
                                <set attributeName="fill" to="#808080" begin="zoomplus.mouseover" end="zoomplus.mouseout"/>
                        </use>
                        <path d="M-4,0h8M0,-4v8" fill="none" stroke="white" stroke-width="1.5" pointer-events="none"/>
                </g>
                <g id="zoomMin">
                        <use xlink:href="#rim" fill="#404040">
                                <set attributeName="fill" to="#808080" begin="zoomminus.mouseover" end="zoomminus.mouseout"/>
                        </use>
                        <path d="M-4,0h8" fill="none" stroke="white" stroke-width="1.5" pointer-events="none"/>
                </g>
                <g id="dirArrow">
                        <path fill="none" stroke="white" stroke-width="1.5" d="M0,-3.0v7 M-2.5,-0.5L0,-3.0L2.5,-0.5"/>
                </g>
               <g id="resetDef">
                       <use xlink:href="#rim2" fill="#404040">
                               <set attributeName="fill" to="#808080" begin="reset.mouseover" end="reset.mouseout"/>
                       </use>
               </g>
        </defs>

<script type="text/javascript">
var viewWidth = 1442;
var viewHeight = 397;
var sectionId = 'dynsection-0';
</script>
<script xlink:href="svgpan.js"/>
<svg id="graph" class="graph">
<g id="viewport">
<title>ViennaRNA/plot_structure.h</title>
<!-- Node0 -->
<g id="node1" class="node">
<title>Node0</title>
<polygon fill="#bfbfbf" stroke="#000000" points="204.5,-369.5 204.5,-388.5 341.5,-388.5 341.5,-369.5 204.5,-369.5"/>
<text text-anchor="middle" x="273" y="-376.5" font-family="Helvetica,sans-Serif" font-size="10.00" fill="#000000">ViennaRNA/plot_structure.h</text>
</g>
<!-- Node1 -->
<g id="node2" class="node">
<title>Node1</title>
<g id="a_node2"><a xlink:href="model_8h.html" target="_top" xlink:title="The model details data structure and its corresponding modifiers. ">
<polygon fill="none" stroke="#000000" points="213,-62 213,-81 317,-81 317,-62 213,-62"/>
<text text-anchor="middle" x="265" y="-69" font-family="Helvetica,sans-Serif" font-size="10.00" fill="#000000">ViennaRNA/model.h</text>
</a>
</g>
</g>
<!-- Node0&#45;&gt;Node1 -->
<g id="edge1" class="edge">
<title>Node0&#45;&gt;Node1</title>
<path fill="none" stroke="#191970" d="M224.5076,-369.4833C146.0583,-352.683 0,-314.9635 0,-267 0,-267 0,-267 0,-205.5 0,-163.7335 11.768,-148.2998 45,-123 69.4977,-104.3497 146.6748,-89.2073 202.7137,-80.2836"/>
<polygon fill="#191970" stroke="#191970" points="203.5739,-83.6918 212.9139,-78.6903 202.4935,-76.7756 203.5739,-83.6918"/>
</g>
<!-- Node2 -->
<g id="node3" class="node">
<title>Node2</title>
<g id="a_node3"><a xlink:href="plot__layouts_8h.html" target="_top" xlink:title="Secondary structure plot layout algorithms. ">
<polygon fill="none" stroke="#000000" points="344.5,-313.5 344.5,-332.5 475.5,-332.5 475.5,-313.5 344.5,-313.5"/>
<text text-anchor="middle" x="410" y="-320.5" font-family="Helvetica,sans-Serif" font-size="10.00" fill="#000000">ViennaRNA/plot_layouts.h</text>
</a>
</g>
</g>
<!-- Node0&#45;&gt;Node2 -->
<g id="edge2" class="edge">
<title>Node0&#45;&gt;Node2</title>
<path fill="none" stroke="#191970" d="M296.5511,-369.3733C318.8391,-360.2629 352.4937,-346.5062 377.3637,-336.3404"/>
<polygon fill="#191970" stroke="#191970" points="378.8239,-339.5247 386.7562,-332.5011 376.1753,-333.0451 378.8239,-339.5247"/>
</g>
<!-- Node3 -->
<g id="node4" class="node">
<title>Node3</title>
<g id="a_node4"><a xlink:href="data__structures_8h.html" target="_top" xlink:title="Various data structures and pre&#45;processor macros. ">
<polygon fill="none" stroke="#000000" points="618,-257.5 618,-276.5 764,-276.5 764,-257.5 618,-257.5"/>
<text text-anchor="middle" x="691" y="-264.5" font-family="Helvetica,sans-Serif" font-size="10.00" fill="#000000">ViennaRNA/data_structures.h</text>
</a>
</g>
</g>
<!-- Node2&#45;&gt;Node3 -->
<g id="edge3" class="edge">
<title>Node2&#45;&gt;Node3</title>
<path fill="none" stroke="#191970" d="M457.9863,-313.4369C506.4814,-303.7724 581.4473,-288.8326 633.1879,-278.5213"/>
<polygon fill="#191970" stroke="#191970" points="634.0885,-281.9107 643.2116,-276.5237 632.7203,-275.0457 634.0885,-281.9107"/>
</g>
<!-- Node20 -->
<g id="node21" class="node">
<title>Node20</title>
<g id="a_node21"><a xlink:href="naview_8h.html" target="_top" xlink:title="ViennaRNA/naview.h">
<polygon fill="none" stroke="#000000" points="356,-257.5 356,-276.5 464,-276.5 464,-257.5 356,-257.5"/>
<text text-anchor="middle" x="410" y="-264.5" font-family="Helvetica,sans-Serif" font-size="10.00" fill="#000000">ViennaRNA/naview.h</text>
</a>
</g>
</g>
<!-- Node2&#45;&gt;Node20 -->
<g id="edge41" class="edge">
<title>Node2&#45;&gt;Node20</title>
<path fill="none" stroke="#191970" d="M410,-313.2455C410,-305.9382 410,-295.6944 410,-286.7046"/>
<polygon fill="#191970" stroke="#191970" points="413.5001,-286.6426 410,-276.6427 406.5001,-286.6427 413.5001,-286.6426"/>
</g>
<!-- Node3&#45;&gt;Node1 -->
<g id="edge31" class="edge">
<title>Node3&#45;&gt;Node1</title>
<path fill="none" stroke="#191970" d="M617.9481,-264.4017C530.1599,-260.1228 378.8269,-249.0519 252,-221 162.5229,-201.2093 110.24,-228.5877 57,-154 17.7148,-98.9626 128.0127,-80.6282 202.6424,-74.5299"/>
<polygon fill="#191970" stroke="#191970" points="203.2114,-77.9969 212.917,-73.7481 202.6802,-71.017 203.2114,-77.9969"/>
</g>
<!-- Node4 -->
<g id="node5" class="node">
<title>Node4</title>
<g id="a_node5"><a xlink:href="energy__const_8h.html" target="_top" xlink:title="Energy parameter constants. ">
<polygon fill="none" stroke="#000000" points="612.5,-62 612.5,-81 749.5,-81 749.5,-62 612.5,-62"/>
<text text-anchor="middle" x="681" y="-69" font-family="Helvetica,sans-Serif" font-size="10.00" fill="#000000">ViennaRNA/energy_const.h</text>
</a>
</g>
</g>
<!-- Node3&#45;&gt;Node4 -->
<g id="edge4" class="edge">
<title>Node3&#45;&gt;Node4</title>
<path fill="none" stroke="#191970" d="M747.1526,-257.4591C786.0991,-249.5649 833.0395,-237.0553 845,-221 871.0205,-186.0712 870.7752,-158.1102 845,-123 837.9046,-113.3348 775.087,-95.5089 729.3043,-83.5773"/>
<polygon fill="#191970" stroke="#191970" points="730.088,-80.1649 719.5303,-81.0516 728.3366,-86.9423 730.088,-80.1649"/>
</g>
<!-- Node6 -->
<g id="node7" class="node">
<title>Node6</title>
<g id="a_node7"><a xlink:href="fold__compound_8h.html" target="_top" xlink:title="The Basic Fold Compound API. ">
<polygon fill="none" stroke="#000000" points="440,-196 440,-215 584,-215 584,-196 440,-196"/>
<text text-anchor="middle" x="512" y="-203" font-family="Helvetica,sans-Serif" font-size="10.00" fill="#000000">ViennaRNA/fold_compound.h</text>
</a>
</g>
</g>
<!-- Node3&#45;&gt;Node6 -->
<g id="edge6" class="edge">
<title>Node3&#45;&gt;Node6</title>
<path fill="none" stroke="#191970" d="M663.0313,-257.3906C632.4245,-246.8749 583.2101,-229.966 549.3259,-218.3243"/>
<polygon fill="#191970" stroke="#191970" points="550.367,-214.9812 539.7724,-215.0419 548.0924,-221.6014 550.367,-214.9812"/>
</g>
<!-- Node7 -->
<g id="node8" class="node">
<title>Node7</title>
<g id="a_node8"><a xlink:href="params_8h.html" target="_top" xlink:title="Functions to deal with sets of energy parameters. ">
<polygon fill="none" stroke="#000000" points="662,-129 662,-148 772,-148 772,-129 662,-129"/>
<text text-anchor="middle" x="717" y="-136" font-family="Helvetica,sans-Serif" font-size="10.00" fill="#000000">ViennaRNA/params.h</text>
</a>
</g>
</g>
<!-- Node3&#45;&gt;Node7 -->
<g id="edge32" class="edge">
<title>Node3&#45;&gt;Node7</title>
<path fill="none" stroke="#191970" d="M689.1808,-257.3416C689.9363,-236.3184 699.6906,-186.0598 708.0157,-158.1038"/>
<polygon fill="#191970" stroke="#191970" points="711.4498,-158.863 711.2311,-148.2705 704.7965,-156.6874 711.4498,-158.863"/>
</g>
<!-- Node8 -->
<g id="node9" class="node">
<title>Node8</title>
<g id="a_node9"><a xlink:href="dp__matrices_8h.html" target="_top" xlink:title="Functions to deal with standard dynamic programming (DP) matrices. ">
<polygon fill="none" stroke="#000000" points="66.5,-129 66.5,-148 197.5,-148 197.5,-129 66.5,-129"/>
<text text-anchor="middle" x="132" y="-136" font-family="Helvetica,sans-Serif" font-size="10.00" fill="#000000">ViennaRNA/dp_matrices.h</text>
</a>
</g>
</g>
<!-- Node3&#45;&gt;Node8 -->
<g id="edge33" class="edge">
<title>Node3&#45;&gt;Node8</title>
<path fill="none" stroke="#191970" d="M617.861,-262.9316C545.033,-257.5196 430.7929,-245.6087 335,-221 267.9317,-203.7705 193.2883,-171.4429 155.7976,-152.7803"/>
<polygon fill="#191970" stroke="#191970" points="157.1674,-149.55 146.6688,-148.125 153.9873,-155.786 157.1674,-149.55"/>
</g>
<!-- Node9 -->
<g id="node10" class="node">
<title>Node9</title>
<g id="a_node10"><a xlink:href="constraints_8h.html" target="_top" xlink:title="Functions and data structures for constraining secondary structure predictions and evaluation...">
<polygon fill="none" stroke="#000000" points="968,-129 968,-148 1094,-148 1094,-129 968,-129"/>
<text text-anchor="middle" x="1031" y="-136" font-family="Helvetica,sans-Serif" font-size="10.00" fill="#000000">ViennaRNA/constraints.h</text>
</a>
</g>
</g>
<!-- Node3&#45;&gt;Node9 -->
<g id="edge34" class="edge">
<title>Node3&#45;&gt;Node9</title>
<path fill="none" stroke="#191970" d="M764.1255,-258.624C827.6867,-250.7656 914.1275,-237.7261 945,-221 973.8111,-205.3907 997.8422,-174.9639 1013.5513,-155.7432"/>
<polygon fill="#191970" stroke="#191970" points="1016.2625,-157.9569 1019.9671,-148.0308 1010.8811,-153.4802 1016.2625,-157.9569"/>
</g>
<!-- Node15 -->
<g id="node16" class="node">
<title>Node15</title>
<g id="a_node16"><a xlink:href="grammar_8h.html" target="_top" xlink:title="Implementations for the RNA folding grammar. ">
<polygon fill="none" stroke="#000000" points="216,-129 216,-148 332,-148 332,-129 216,-129"/>
<text text-anchor="middle" x="274" y="-136" font-family="Helvetica,sans-Serif" font-size="10.00" fill="#000000">ViennaRNA/grammar.h</text>
</a>
</g>
</g>
<!-- Node3&#45;&gt;Node15 -->
<g id="edge35" class="edge">
<title>Node3&#45;&gt;Node15</title>
<path fill="none" stroke="#191970" d="M617.9269,-263.3296C557.8989,-258.4414 471.7186,-247.1166 401,-221 357.1253,-204.797 311.7787,-173.9242 288.717,-154.8838"/>
<polygon fill="#191970" stroke="#191970" points="290.8707,-152.119 281.019,-148.221 286.2896,-157.4118 290.8707,-152.119"/>
</g>
<!-- Node16 -->
<g id="node17" class="node">
<title>Node16</title>
<g id="a_node17"><a xlink:href="structured__domains_8h.html" target="_top" xlink:title="This module provides interfaces that deal with additional structured domains in the folding grammar...">
<polygon fill="none" stroke="#000000" points="350.5,-123.5 350.5,-153.5 463.5,-153.5 463.5,-123.5 350.5,-123.5"/>
<text text-anchor="start" x="358.5" y="-141.5" font-family="Helvetica,sans-Serif" font-size="10.00" fill="#000000">ViennaRNA/structured</text>
<text text-anchor="middle" x="407" y="-130.5" font-family="Helvetica,sans-Serif" font-size="10.00" fill="#000000">_domains.h</text>
</a>
</g>
</g>
<!-- Node3&#45;&gt;Node16 -->
<g id="edge36" class="edge">
<title>Node3&#45;&gt;Node16</title>
<path fill="none" stroke="#191970" d="M617.7151,-262.5716C550.674,-257.041 457.9514,-245.1876 431,-221 415.0381,-206.6749 409.4354,-182.4168 407.5905,-163.9021"/>
<polygon fill="#191970" stroke="#191970" points="411.0723,-163.517 406.8887,-153.7832 404.0891,-164.0014 411.0723,-163.517"/>
</g>
<!-- Node17 -->
<g id="node18" class="node">
<title>Node17</title>
<g id="a_node18"><a xlink:href="unstructured__domains_8h.html" target="_top" xlink:title="Functions to modify unstructured domains, e.g. to incorporate ligands binding to unpaired stretches...">
<polygon fill="none" stroke="#000000" points="520,-123.5 520,-153.5 644,-153.5 644,-123.5 520,-123.5"/>
<text text-anchor="start" x="528" y="-141.5" font-family="Helvetica,sans-Serif" font-size="10.00" fill="#000000">ViennaRNA/unstructured</text>
<text text-anchor="middle" x="582" y="-130.5" font-family="Helvetica,sans-Serif" font-size="10.00" fill="#000000">_domains.h</text>
</a>
</g>
</g>
<!-- Node3&#45;&gt;Node17 -->
<g id="edge37" class="edge">
<title>Node3&#45;&gt;Node17</title>
<path fill="none" stroke="#191970" d="M679.0339,-257.3416C658.6392,-237.2413 618.3938,-190.4162 596.5064,-161.9103"/>
<polygon fill="#191970" stroke="#191970" points="599.1475,-159.5985 590.3454,-153.7016 593.549,-163.8005 599.1475,-159.5985"/>
</g>
<!-- Node18 -->
<g id="node19" class="node">
<title>Node18</title>
<g id="a_node19"><a xlink:href="structure__utils_8h.html" target="_top" xlink:title="Various utility&#45; and helper&#45;functions for secondary structure parsing, converting, etc. ">
<polygon fill="none" stroke="#000000" points="728,-190.5 728,-220.5 836,-220.5 836,-190.5 728,-190.5"/>
<text text-anchor="start" x="736" y="-208.5" font-family="Helvetica,sans-Serif" font-size="10.00" fill="#000000">ViennaRNA/structure</text>
<text text-anchor="middle" x="782" y="-197.5" font-family="Helvetica,sans-Serif" font-size="10.00" fill="#000000">_utils.h</text>
</a>
</g>
</g>
<!-- Node3&#45;&gt;Node18 -->
<g id="edge38" class="edge">
<title>Node3&#45;&gt;Node18</title>
<path fill="none" stroke="#191970" d="M700.1563,-257.3906C710.8479,-249.0673 728.6382,-236.7389 744.9718,-226.1872"/>
<polygon fill="#191970" stroke="#191970" points="747.2829,-228.8652 753.8418,-220.5446 743.5257,-222.9589 747.2829,-228.8652"/>
</g>
<!-- Node5 -->
<g id="node6" class="node">
<title>Node5</title>
<polygon fill="none" stroke="#bfbfbf" points="657,-.5 657,-19.5 705,-19.5 705,-.5 657,-.5"/>
<text text-anchor="middle" x="681" y="-7.5" font-family="Helvetica,sans-Serif" font-size="10.00" fill="#000000">limits.h</text>
</g>
<!-- Node4&#45;&gt;Node5 -->
<g id="edge5" class="edge">
<title>Node4&#45;&gt;Node5</title>
<path fill="none" stroke="#191970" d="M681,-61.8906C681,-53.3657 681,-40.6392 681,-29.9235"/>
<polygon fill="#191970" stroke="#191970" points="684.5001,-29.7448 681,-19.7449 677.5001,-29.7449 684.5001,-29.7448"/>
</g>
<!-- Node6&#45;&gt;Node1 -->
<g id="edge7" class="edge">
<title>Node6&#45;&gt;Node1</title>
<path fill="none" stroke="#191970" d="M510.2626,-195.9519C506.6001,-178.6573 496.4152,-142.1668 473,-123 450.8239,-104.8474 380.0014,-89.8909 327.1192,-80.8585"/>
<polygon fill="#191970" stroke="#191970" points="327.5767,-77.3864 317.136,-79.1866 326.4205,-84.2903 327.5767,-77.3864"/>
</g>
<!-- Node6&#45;&gt;Node7 -->
<g id="edge8" class="edge">
<title>Node6&#45;&gt;Node7</title>
<path fill="none" stroke="#191970" d="M541.3715,-195.9005C577.2974,-184.1589 638.2324,-164.2436 678.0445,-151.2318"/>
<polygon fill="#191970" stroke="#191970" points="679.2651,-154.5151 687.683,-148.0817 677.0904,-147.8615 679.2651,-154.5151"/>
</g>
<!-- Node6&#45;&gt;Node8 -->
<g id="edge12" class="edge">
<title>Node6&#45;&gt;Node8</title>
<path fill="none" stroke="#191970" d="M451.699,-195.9844C390.0886,-186.1058 291.7108,-169.8998 207,-154 200.4151,-152.764 193.5165,-151.4141 186.6831,-150.0429"/>
<polygon fill="#191970" stroke="#191970" points="187.2582,-146.5884 176.7618,-148.0296 185.866,-153.4485 187.2582,-146.5884"/>
</g>
<!-- Node6&#45;&gt;Node9 -->
<g id="edge14" class="edge">
<title>Node6&#45;&gt;Node9</title>
<path fill="none" stroke="#191970" d="M584.1647,-196.1839C682.8563,-183.4434 858.9543,-160.7101 958.053,-147.917"/>
<polygon fill="#191970" stroke="#191970" points="958.5149,-151.3866 967.9845,-146.635 957.6186,-144.4442 958.5149,-151.3866"/>
</g>
<!-- Node6&#45;&gt;Node15 -->
<g id="edge26" class="edge">
<title>Node6&#45;&gt;Node15</title>
<path fill="none" stroke="#191970" d="M478.1532,-195.9717C436.0673,-184.124 364.141,-163.8758 317.8656,-150.8487"/>
<polygon fill="#191970" stroke="#191970" points="318.6897,-147.4447 308.1154,-148.1039 316.7928,-154.1828 318.6897,-147.4447"/>
</g>
<!-- Node6&#45;&gt;Node16 -->
<g id="edge28" class="edge">
<title>Node6&#45;&gt;Node16</title>
<path fill="none" stroke="#191970" d="M496.9561,-195.9005C481.9086,-186.2988 458.2953,-171.2313 439.0371,-158.9427"/>
<polygon fill="#191970" stroke="#191970" points="440.8543,-155.9504 430.5416,-153.5218 437.0889,-161.8515 440.8543,-155.9504"/>
</g>
<!-- Node6&#45;&gt;Node17 -->
<g id="edge29" class="edge">
<title>Node6&#45;&gt;Node17</title>
<path fill="none" stroke="#191970" d="M522.0293,-195.9005C531.6091,-186.7313 546.3965,-172.5776 558.8901,-160.6195"/>
<polygon fill="#191970" stroke="#191970" points="561.5015,-162.9648 566.3056,-153.5218 556.6613,-157.9079 561.5015,-162.9648"/>
</g>
<!-- Node7&#45;&gt;Node1 -->
<g id="edge11" class="edge">
<title>Node7&#45;&gt;Node1</title>
<path fill="none" stroke="#191970" d="M680.5915,-128.9778C671.6115,-126.8243 661.9902,-124.6804 653,-123 538.7342,-101.6416 403.9231,-85.8312 327.0498,-77.6915"/>
<polygon fill="#191970" stroke="#191970" points="327.3638,-74.2053 317.0529,-76.6417 326.6327,-81.1671 327.3638,-74.2053"/>
</g>
<!-- Node7&#45;&gt;Node3 -->
<g id="edge10" class="edge">
<title>Node7&#45;&gt;Node3</title>
<path fill="none" stroke="#191970" d="M718.8151,-148.2705C718.0277,-169.3972 708.26,-219.6679 699.94,-247.5446"/>
<polygon fill="#191970" stroke="#191970" points="696.5176,-246.7489 696.7276,-257.3416 703.1692,-248.9299 696.5176,-246.7489"/>
</g>
<!-- Node7&#45;&gt;Node4 -->
<g id="edge9" class="edge">
<title>Node7&#45;&gt;Node4</title>
<path fill="none" stroke="#191970" d="M711.8421,-128.9005C706.4421,-118.8505 697.8245,-102.8122 691.0694,-90.2403"/>
<polygon fill="#191970" stroke="#191970" points="693.9647,-88.234 686.1484,-81.0817 687.7984,-91.5472 693.9647,-88.234"/>
</g>
<!-- Node8&#45;&gt;Node3 -->
<g id="edge13" class="edge">
<title>Node8&#45;&gt;Node3</title>
<path fill="none" stroke="#191970" d="M157.1931,-148.125C197.8873,-165.5447 279.9383,-202.2308 353,-221 438.377,-242.933 538.4077,-254.7793 607.4382,-260.9278"/>
<polygon fill="#191970" stroke="#191970" points="607.5524,-264.4508 617.818,-261.8302 608.1587,-257.4771 607.5524,-264.4508"/>
</g>
<!-- Node9&#45;&gt;Node3 -->
<g id="edge15" class="edge">
<title>Node9&#45;&gt;Node3</title>
<path fill="none" stroke="#191970" d="M1030.3734,-148.0308C1022.8498,-165.6342 996.0746,-203.0808 963,-221 931.5028,-238.0645 842.1659,-251.2917 774.3342,-259.0947"/>
<polygon fill="#191970" stroke="#191970" points="773.613,-255.6538 764.0686,-260.2532 774.3981,-262.6096 773.613,-255.6538"/>
</g>
<!-- Node10 -->
<g id="node11" class="node">
<title>Node10</title>
<g id="a_node11"><a xlink:href="constraints__hard_8h.html" target="_top" xlink:title="Functions and data structures for handling of secondary structure hard constraints. ">
<polygon fill="none" stroke="#000000" points="768,-56.5 768,-86.5 886,-86.5 886,-56.5 768,-56.5"/>
<text text-anchor="start" x="776" y="-74.5" font-family="Helvetica,sans-Serif" font-size="10.00" fill="#000000">ViennaRNA/constraints</text>
<text text-anchor="middle" x="827" y="-63.5" font-family="Helvetica,sans-Serif" font-size="10.00" fill="#000000">_hard.h</text>
</a>
</g>
</g>
<!-- Node9&#45;&gt;Node10 -->
<g id="edge16" class="edge">
<title>Node9&#45;&gt;Node10</title>
<path fill="none" stroke="#191970" d="M1001.7718,-128.9005C970.6931,-118.6933 920.8069,-102.3091 882.272,-89.6531"/>
<polygon fill="#191970" stroke="#191970" points="883.3308,-86.3169 872.7379,-86.5218 881.1465,-92.9674 883.3308,-86.3169"/>
</g>
<!-- Node11 -->
<g id="node12" class="node">
<title>Node11</title>
<g id="a_node12"><a xlink:href="constraints__soft_8h.html" target="_top" xlink:title="Functions and data structures for secondary structure soft constraints. ">
<polygon fill="none" stroke="#000000" points="904,-56.5 904,-86.5 1022,-86.5 1022,-56.5 904,-56.5"/>
<text text-anchor="start" x="912" y="-74.5" font-family="Helvetica,sans-Serif" font-size="10.00" fill="#000000">ViennaRNA/constraints</text>
<text text-anchor="middle" x="963" y="-63.5" font-family="Helvetica,sans-Serif" font-size="10.00" fill="#000000">_soft.h</text>
</a>
</g>
</g>
<!-- Node9&#45;&gt;Node11 -->
<g id="edge18" class="edge">
<title>Node9&#45;&gt;Node11</title>
<path fill="none" stroke="#191970" d="M1021.2573,-128.9005C1011.9512,-119.7313 997.5862,-105.5776 985.4496,-93.6195"/>
<polygon fill="#191970" stroke="#191970" points="987.8257,-91.0471 978.246,-86.5218 982.9128,-96.0334 987.8257,-91.0471"/>
</g>
<!-- Node12 -->
<g id="node13" class="node">
<title>Node12</title>
<g id="a_node13"><a xlink:href="constraints__SHAPE_8h.html" target="_top" xlink:title="This module provides function to incorporate SHAPE reactivity data into the folding recursions by mea...">
<polygon fill="none" stroke="#000000" points="1040,-56.5 1040,-86.5 1158,-86.5 1158,-56.5 1040,-56.5"/>
<text text-anchor="start" x="1048" y="-74.5" font-family="Helvetica,sans-Serif" font-size="10.00" fill="#000000">ViennaRNA/constraints</text>
<text text-anchor="middle" x="1099" y="-63.5" font-family="Helvetica,sans-Serif" font-size="10.00" fill="#000000">_SHAPE.h</text>
</a>
</g>
</g>
<!-- Node9&#45;&gt;Node12 -->
<g id="edge20" class="edge">
<title>Node9&#45;&gt;Node12</title>
<path fill="none" stroke="#191970" d="M1040.7427,-128.9005C1050.0488,-119.7313 1064.4138,-105.5776 1076.5504,-93.6195"/>
<polygon fill="#191970" stroke="#191970" points="1079.0872,-96.0334 1083.754,-86.5218 1074.1743,-91.0471 1079.0872,-96.0334"/>
</g>
<!-- Node13 -->
<g id="node14" class="node">
<title>Node13</title>
<g id="a_node14"><a xlink:href="perturbation__fold_8h.html" target="_top" xlink:title="Find a vector of perturbation energies that minimizes the discripancies between predicted and observe...">
<polygon fill="none" stroke="#000000" points="1176.5,-56.5 1176.5,-86.5 1297.5,-86.5 1297.5,-56.5 1176.5,-56.5"/>
<text text-anchor="start" x="1184.5" y="-74.5" font-family="Helvetica,sans-Serif" font-size="10.00" fill="#000000">ViennaRNA/perturbation</text>
<text text-anchor="middle" x="1237" y="-63.5" font-family="Helvetica,sans-Serif" font-size="10.00" fill="#000000">_fold.h</text>
</a>
</g>
</g>
<!-- Node9&#45;&gt;Node13 -->
<g id="edge22" class="edge">
<title>Node9&#45;&gt;Node13</title>
<path fill="none" stroke="#191970" d="M1060.5148,-128.9005C1091.8982,-118.6933 1142.2735,-102.3091 1181.1861,-89.6531"/>
<polygon fill="#191970" stroke="#191970" points="1182.3866,-92.9432 1190.8137,-86.5218 1180.2215,-86.2864 1182.3866,-92.9432"/>
</g>
<!-- Node14 -->
<g id="node15" class="node">
<title>Node14</title>
<g id="a_node15"><a xlink:href="constraints__ligand_8h.html" target="_top" xlink:title="Functions for incorporation of ligands binding to hairpin and interior loop motifs using the soft con...">
<polygon fill="none" stroke="#000000" points="1316,-56.5 1316,-86.5 1434,-86.5 1434,-56.5 1316,-56.5"/>
<text text-anchor="start" x="1324" y="-74.5" font-family="Helvetica,sans-Serif" font-size="10.00" fill="#000000">ViennaRNA/constraints</text>
<text text-anchor="middle" x="1375" y="-63.5" font-family="Helvetica,sans-Serif" font-size="10.00" fill="#000000">_ligand.h</text>
</a>
</g>
</g>
<!-- Node9&#45;&gt;Node14 -->
<g id="edge24" class="edge">
<title>Node9&#45;&gt;Node14</title>
<path fill="none" stroke="#191970" d="M1085.5882,-128.9726C1139.1783,-119.4711 1223.488,-104.1286 1305.6812,-87.2322"/>
<polygon fill="#191970" stroke="#191970" points="1306.6069,-90.615 1315.692,-85.1643 1305.1907,-83.7597 1306.6069,-90.615"/>
</g>
<!-- Node10&#45;&gt;Node3 -->
<g id="edge17" class="edge">
<title>Node10&#45;&gt;Node3</title>
<path fill="none" stroke="#191970" d="M843.0635,-86.5285C851.988,-96.0147 862.2284,-109.0776 867,-123 881.1215,-164.2028 893.6212,-186.5268 867,-221 854.8293,-236.7605 811.9437,-248.1557 771.5559,-255.6621"/>
<polygon fill="#191970" stroke="#191970" points="770.8612,-252.2307 761.6353,-257.4397 772.0959,-259.121 770.8612,-252.2307"/>
</g>
<!-- Node11&#45;&gt;Node3 -->
<g id="edge19" class="edge">
<title>Node11&#45;&gt;Node3</title>
<path fill="none" stroke="#191970" d="M959.8286,-86.9485C952.7075,-117.5514 932.4672,-185.9439 888,-221 869.2994,-235.7428 815.1347,-247.774 768.324,-255.8296"/>
<polygon fill="#191970" stroke="#191970" points="767.7434,-252.378 758.4622,-257.4877 768.9041,-259.2811 767.7434,-252.378"/>
</g>
<!-- Node12&#45;&gt;Node3 -->
<g id="edge21" class="edge">
<title>Node12&#45;&gt;Node3</title>
<path fill="none" stroke="#191970" d="M1104.2298,-86.5723C1109.3002,-103.9807 1114.6696,-132.9243 1103,-154 1075.8206,-203.0869 1048.6191,-201.5198 996,-221 956.4695,-235.6346 850.2125,-249.6661 774.2482,-258.3017"/>
<polygon fill="#191970" stroke="#191970" points="773.7539,-254.8351 764.2082,-259.4318 774.537,-261.7912 773.7539,-254.8351"/>
</g>
<!-- Node13&#45;&gt;Node3 -->
<g id="edge23" class="edge">
<title>Node13&#45;&gt;Node3</title>
<path fill="none" stroke="#191970" d="M1223.6138,-86.5638C1194.9319,-117.7213 1123.9544,-189.0043 1048,-221 1000.1716,-241.1477 864.1208,-254.5155 774.4635,-261.4197"/>
<polygon fill="#191970" stroke="#191970" points="774.0187,-257.9433 764.3118,-262.1892 774.5478,-264.9232 774.0187,-257.9433"/>
</g>
<!-- Node14&#45;&gt;Node3 -->
<g id="edge25" class="edge">
<title>Node14&#45;&gt;Node3</title>
<path fill="none" stroke="#191970" d="M1352.799,-86.7245C1306.1518,-117.8612 1193.5371,-188.6086 1088,-221 1031.3036,-238.4013 873.2968,-253.0747 774.5667,-260.9039"/>
<polygon fill="#191970" stroke="#191970" points="774.0098,-257.4368 764.3146,-261.7092 774.558,-264.4153 774.0098,-257.4368"/>
</g>
<!-- Node15&#45;&gt;Node3 -->
<g id="edge27" class="edge">
<title>Node15&#45;&gt;Node3</title>
<path fill="none" stroke="#191970" d="M291.5433,-148.221C318.1683,-165.7966 369.5202,-202.727 419,-221 480.118,-243.571 552.7845,-255.0939 607.6809,-260.962"/>
<polygon fill="#191970" stroke="#191970" points="607.4123,-264.4527 617.7177,-261.9932 608.1279,-257.4894 607.4123,-264.4527"/>
</g>
<!-- Node17&#45;&gt;Node3 -->
<g id="edge30" class="edge">
<title>Node17&#45;&gt;Node3</title>
<path fill="none" stroke="#191970" d="M599.4441,-153.7016C622.4722,-177.5175 661.6034,-223.5267 680.5718,-248.9753"/>
<polygon fill="#191970" stroke="#191970" points="677.9043,-251.2612 686.5807,-257.3416 683.5899,-247.1777 677.9043,-251.2612"/>
</g>
<!-- Node18&#45;&gt;Node3 -->
<g id="edge40" class="edge">
<title>Node18&#45;&gt;Node3</title>
<path fill="none" stroke="#191970" d="M765.636,-220.5446C752.5667,-230.1502 734.2111,-242.5508 718.8891,-252.1236"/>
<polygon fill="#191970" stroke="#191970" points="716.9844,-249.1858 710.2813,-257.3906 720.6379,-255.1567 716.9844,-249.1858"/>
</g>
<!-- Node19 -->
<g id="node20" class="node">
<title>Node19</title>
<polygon fill="none" stroke="#bfbfbf" points="790,-129 790,-148 836,-148 836,-129 790,-129"/>
<text text-anchor="middle" x="813" y="-136" font-family="Helvetica,sans-Serif" font-size="10.00" fill="#000000">stdio.h</text>
</g>
<!-- Node18&#45;&gt;Node19 -->
<g id="edge39" class="edge">
<title>Node18&#45;&gt;Node19</title>
<path fill="none" stroke="#191970" d="M789.0344,-190.2967C793.583,-180.4658 799.5346,-167.6026 804.3688,-157.1545"/>
<polygon fill="#191970" stroke="#191970" points="807.5563,-158.6003 808.579,-148.055 801.2033,-155.6609 807.5563,-158.6003"/>
</g>
</g>
</svg>
        <g id="navigator" transform="translate(0 0)" fill="#404254">
                <rect fill="#f2f5e9" fill-opacity="0.5" stroke="#606060" stroke-width=".5" x="0" y="0" width="60" height="60"/>
                <use id="zoomplus" xlink:href="#zoomPlus" x="17" y="9" onmousedown="handleZoom(evt,'in')"/>
                <use id="zoomminus" xlink:href="#zoomMin" x="42" y="9" onmousedown="handleZoom(evt,'out')"/>
                <use id="reset" xlink:href="#resetDef" x="30" y="36" onmousedown="handleReset()"/>
                <g id="arrowUp" xlink:href="#dirArrow" transform="translate(30 24)" onmousedown="handlePan(0,-1)">
                  <use xlink:href="#rim" fill="#404040">
                        <set attributeName="fill" to="#808080" begin="arrowUp.mouseover" end="arrowUp.mouseout"/>
                  </use>
                  <path fill="none" stroke="white" stroke-width="1.5" d="M0,-3.0v7 M-2.5,-0.5L0,-3.0L2.5,-0.5"/>
                </g>
                <g id="arrowRight" xlink:href="#dirArrow" transform="rotate(90) translate(36 -43)" onmousedown="handlePan(1,0)">
                  <use xlink:href="#rim" fill="#404040">
                        <set attributeName="fill" to="#808080" begin="arrowRight.mouseover" end="arrowRight.mouseout"/>
                  </use>
                  <path fill="none" stroke="white" stroke-width="1.5" d="M0,-3.0v7 M-2.5,-0.5L0,-3.0L2.5,-0.5"/>
                </g>
                <g id="arrowDown" xlink:href="#dirArrow" transform="rotate(180) translate(-30 -48)" onmousedown="handlePan(0,1)">
                  <use xlink:href="#rim" fill="#404040">
                        <set attributeName="fill" to="#808080" begin="arrowDown.mouseover" end="arrowDown.mouseout"/>
                  </use>
                  <path fill="none" stroke="white" stroke-width="1.5" d="M0,-3.0v7 M-2.5,-0.5L0,-3.0L2.5,-0.5"/>
                </g>
                <g id="arrowLeft" xlink:href="#dirArrow" transform="rotate(270) translate(-36 17)" onmousedown="handlePan(-1,0)">
                  <use xlink:href="#rim" fill="#404040">
                        <set attributeName="fill" to="#808080" begin="arrowLeft.mouseover" end="arrowLeft.mouseout"/>
                  </use>
                  <path fill="none" stroke="white" stroke-width="1.5" d="M0,-3.0v7 M-2.5,-0.5L0,-3.0L2.5,-0.5"/>
                </g>
        </g>
        <svg viewBox="0 0 15 15" width="100%" height="30px" preserveAspectRatio="xMaxYMin meet">
         <g id="arrow_out" transform="scale(0.3 0.3)">
          <a xlink:href="plot__structure_8h__incl_org.svg" target="_base">
           <rect id="button" ry="5" rx="5" y="6" x="6" height="38" width="38"
                fill="#f2f5e9" fill-opacity="0.5" stroke="#606060" stroke-width="1.0"/>
           <path id="arrow"
             d="M 11.500037,31.436501 C 11.940474,20.09759 22.043105,11.32322 32.158766,21.979434 L 37.068811,17.246167 C 37.068811,17.246167 37.088388,32 37.088388,32 L 22.160133,31.978069 C 22.160133,31.978069 26.997745,27.140456 26.997745,27.140456 C 18.528582,18.264221 13.291696,25.230495 11.500037,31.436501 z"
             style="fill:#404040;"/>
          </a>
         </g>
        </svg>
</svg>
