<?xml version="1.0" encoding="UTF-8" standalone="no"?>
<!DOCTYPE svg PUBLIC "-//W3C//DTD SVG 1.1//EN"
 "http://www.w3.org/Graphics/SVG/1.1/DTD/svg11.dtd">
<!-- Generated by graphviz version 2.40.1 (20161225.0304)
 -->
<!-- Title: ViennaRNA/PS_dot.h Pages: 1 -->
<!--zoomable 453 -->
<svg id="main" version="1.1" xmlns="http://www.w3.org/2000/svg" xmlns:xlink="http://www.w3.org/1999/xlink" xml:space="preserve" onload="init(evt)">
<style type="text/css"><![CDATA[
.edge:hover path { stroke: red; }
.edge:hover polygon { stroke: red; fill: red; }
]]></style>
<script type="text/javascript"><![CDATA[
var edges = document.getElementsByTagName('g');
if (edges && edges.length) {
  for (var i=0;i<edges.length;i++) {
    if (edges[i].id.substr(0,4)=='edge') {
      edges[i].setAttribute('class','edge');
    }
  }
}
]]></script>
        <defs>
                <circle id="rim" cx="0" cy="0" r="7"/>
                <circle id="rim2" cx="0" cy="0" r="3.5"/>
                <g id="zoomPlus">
                        <use xlink:href="#rim" fill="#404040">
                                <set attributeName="fill" to="#808080" begin="zoomplus.mouseover" end="zoomplus.mouseout"/>
                        </use>
                        <path d="M-4,0h8M0,-4v8" fill="none" stroke="white" stroke-width="1.5" pointer-events="none"/>
                </g>
                <g id="zoomMin">
                        <use xlink:href="#rim" fill="#404040">
                                <set attributeName="fill" to="#808080" begin="zoomminus.mouseover" end="zoomminus.mouseout"/>
                        </use>
                        <path d="M-4,0h8" fill="none" stroke="white" stroke-width="1.5" pointer-events="none"/>
                </g>
                <g id="dirArrow">
                        <path fill="none" stroke="white" stroke-width="1.5" d="M0,-3.0v7 M-2.5,-0.5L0,-3.0L2.5,-0.5"/>
                </g>
               <g id="resetDef">
                       <use xlink:href="#rim2" fill="#404040">
                               <set attributeName="fill" to="#808080" begin="reset.mouseover" end="reset.mouseout"/>
                       </use>
               </g>
        </defs>

<script type="text/javascript">
var viewWidth = 1319;
var viewHeight = 453;
var sectionId = 'dynsection-0';
</script>
<script xlink:href="svgpan.js"/>
<svg id="graph" class="graph">
<g id="viewport">
<title>ViennaRNA/PS_dot.h</title>
<!-- Node0 -->
<g id="node1" class="node">
<title>Node0</title>
<polygon fill="#bfbfbf" stroke="#000000" points="684,-425.5 684,-444.5 794,-444.5 794,-425.5 684,-425.5"/>
<text text-anchor="middle" x="739" y="-432.5" font-family="Helvetica,sans-Serif" font-size="10.00" fill="#000000">ViennaRNA/PS_dot.h</text>
</g>
<!-- Node1 -->
<g id="node2" class="node">
<title>Node1</title>
<g id="a_node2"><a xlink:href="data__structures_8h.html" target="_top" xlink:title="Various data structures and pre&#45;processor macros. ">
<polygon fill="none" stroke="#000000" points="615,-257.5 615,-276.5 761,-276.5 761,-257.5 615,-257.5"/>
<text text-anchor="middle" x="688" y="-264.5" font-family="Helvetica,sans-Serif" font-size="10.00" fill="#000000">ViennaRNA/data_structures.h</text>
</a>
</g>
</g>
<!-- Node0&#45;&gt;Node1 -->
<g id="edge1" class="edge">
<title>Node0&#45;&gt;Node1</title>
<path fill="none" stroke="#191970" d="M736.1119,-425.4862C728.0151,-398.8144 704.9732,-322.9117 693.9788,-286.695"/>
<polygon fill="#191970" stroke="#191970" points="697.2374,-285.38 690.9835,-276.8279 690.5393,-287.4134 697.2374,-285.38"/>
</g>
<!-- Node17 -->
<g id="node18" class="node">
<title>Node17</title>
<g id="a_node18"><a xlink:href="structure__utils_8h.html" target="_top" xlink:title="Various utility&#45; and helper&#45;functions for secondary structure parsing, converting, etc. ">
<polygon fill="none" stroke="#000000" points="1162,-190.5 1162,-220.5 1270,-220.5 1270,-190.5 1162,-190.5"/>
<text text-anchor="start" x="1170" y="-208.5" font-family="Helvetica,sans-Serif" font-size="10.00" fill="#000000">ViennaRNA/structure</text>
<text text-anchor="middle" x="1216" y="-197.5" font-family="Helvetica,sans-Serif" font-size="10.00" fill="#000000">_utils.h</text>
</a>
</g>
</g>
<!-- Node0&#45;&gt;Node17 -->
<g id="edge39" class="edge">
<title>Node0&#45;&gt;Node17</title>
<path fill="none" stroke="#191970" d="M747.0002,-425.2748C758.9925,-411.222 782.9138,-385.156 808,-369 919.7399,-297.0373 1068.2892,-247.3139 1151.8393,-222.8787"/>
<polygon fill="#191970" stroke="#191970" points="1153.067,-226.1671 1161.6993,-220.0243 1151.1204,-219.4431 1153.067,-226.1671"/>
</g>
<!-- Node19 -->
<g id="node20" class="node">
<title>Node19</title>
<g id="a_node20"><a xlink:href="plot__structure_8h.html" target="_top" xlink:title="Various functions for plotting RNA secondary structures. ">
<polygon fill="none" stroke="#000000" points="514.5,-369.5 514.5,-388.5 651.5,-388.5 651.5,-369.5 514.5,-369.5"/>
<text text-anchor="middle" x="583" y="-376.5" font-family="Helvetica,sans-Serif" font-size="10.00" fill="#000000">ViennaRNA/plot_structure.h</text>
</a>
</g>
</g>
<!-- Node0&#45;&gt;Node19 -->
<g id="edge40" class="edge">
<title>Node0&#45;&gt;Node19</title>
<path fill="none" stroke="#191970" d="M712.1826,-425.3733C686.4668,-416.1419 647.462,-402.1402 619.0401,-391.9375"/>
<polygon fill="#191970" stroke="#191970" points="620.0619,-388.5857 609.4674,-388.5011 617.6968,-395.174 620.0619,-388.5857"/>
</g>
<!-- Node22 -->
<g id="node23" class="node">
<title>Node22</title>
<g id="a_node23"><a xlink:href="plot__aln_8h.html" target="_top" xlink:title="Various functions for plotting Sequence / Structure Alignments. ">
<polygon fill="none" stroke="#000000" points="817,-369.5 817,-388.5 929,-388.5 929,-369.5 817,-369.5"/>
<text text-anchor="middle" x="873" y="-376.5" font-family="Helvetica,sans-Serif" font-size="10.00" fill="#000000">ViennaRNA/plot_aln.h</text>
</a>
</g>
</g>
<!-- Node0&#45;&gt;Node22 -->
<g id="edge45" class="edge">
<title>Node0&#45;&gt;Node22</title>
<path fill="none" stroke="#191970" d="M762.0354,-425.3733C783.7388,-416.3032 816.4618,-402.6279 840.755,-392.4755"/>
<polygon fill="#191970" stroke="#191970" points="842.3881,-395.5865 850.2652,-388.5011 839.6889,-389.1278 842.3881,-395.5865"/>
</g>
<!-- Node2 -->
<g id="node3" class="node">
<title>Node2</title>
<g id="a_node3"><a xlink:href="energy__const_8h.html" target="_top" xlink:title="Energy parameter constants. ">
<polygon fill="none" stroke="#000000" points="489.5,-62 489.5,-81 626.5,-81 626.5,-62 489.5,-62"/>
<text text-anchor="middle" x="558" y="-69" font-family="Helvetica,sans-Serif" font-size="10.00" fill="#000000">ViennaRNA/energy_const.h</text>
</a>
</g>
</g>
<!-- Node1&#45;&gt;Node2 -->
<g id="edge2" class="edge">
<title>Node1&#45;&gt;Node2</title>
<path fill="none" stroke="#191970" d="M686.1728,-257.2894C681.1314,-232.5995 665.0834,-166.3177 631,-123 619.007,-107.7577 601.3127,-95.1183 586.3483,-86.1757"/>
<polygon fill="#191970" stroke="#191970" points="587.8779,-83.0186 577.4591,-81.0952 584.4044,-89.096 587.8779,-83.0186"/>
</g>
<!-- Node4 -->
<g id="node5" class="node">
<title>Node4</title>
<g id="a_node5"><a xlink:href="fold__compound_8h.html" target="_top" xlink:title="The Basic Fold Compound API. ">
<polygon fill="none" stroke="#000000" points="422,-196 422,-215 566,-215 566,-196 422,-196"/>
<text text-anchor="middle" x="494" y="-203" font-family="Helvetica,sans-Serif" font-size="10.00" fill="#000000">ViennaRNA/fold_compound.h</text>
</a>
</g>
</g>
<!-- Node1&#45;&gt;Node4 -->
<g id="edge4" class="edge">
<title>Node1&#45;&gt;Node4</title>
<path fill="none" stroke="#191970" d="M657.6875,-257.3906C624.3735,-246.8298 570.7192,-229.8208 533.9819,-218.1747"/>
<polygon fill="#191970" stroke="#191970" points="534.6898,-214.7275 524.0996,-215.0419 532.5744,-221.4002 534.6898,-214.7275"/>
</g>
<!-- Node5 -->
<g id="node6" class="node">
<title>Node5</title>
<g id="a_node6"><a xlink:href="model_8h.html" target="_top" xlink:title="The model details data structure and its corresponding modifiers. ">
<polygon fill="none" stroke="#000000" points="181,-62 181,-81 285,-81 285,-62 181,-62"/>
<text text-anchor="middle" x="233" y="-69" font-family="Helvetica,sans-Serif" font-size="10.00" fill="#000000">ViennaRNA/model.h</text>
</a>
</g>
</g>
<!-- Node1&#45;&gt;Node5 -->
<g id="edge29" class="edge">
<title>Node1&#45;&gt;Node5</title>
<path fill="none" stroke="#191970" d="M614.693,-257.9675C611.7577,-257.6352 608.8514,-257.3114 606,-257 482.6052,-243.5234 127.4491,-256.1999 57,-154 25.296,-108.0073 108.1815,-86.9995 170.7208,-77.8955"/>
<polygon fill="#191970" stroke="#191970" points="171.5254,-81.3177 180.953,-76.4834 170.5684,-74.3834 171.5254,-81.3177"/>
</g>
<!-- Node6 -->
<g id="node7" class="node">
<title>Node6</title>
<g id="a_node7"><a xlink:href="params_8h.html" target="_top" xlink:title="Functions to deal with sets of energy parameters. ">
<polygon fill="none" stroke="#000000" points="512,-129 512,-148 622,-148 622,-129 512,-129"/>
<text text-anchor="middle" x="567" y="-136" font-family="Helvetica,sans-Serif" font-size="10.00" fill="#000000">ViennaRNA/params.h</text>
</a>
</g>
</g>
<!-- Node1&#45;&gt;Node6 -->
<g id="edge30" class="edge">
<title>Node1&#45;&gt;Node6</title>
<path fill="none" stroke="#191970" d="M668.9359,-257.2485C656.1308,-248.2495 639.942,-234.3059 627,-221 606.7577,-200.1886 585.651,-174.224 574.2134,-157.0431"/>
<polygon fill="#191970" stroke="#191970" points="576.8987,-154.7287 568.676,-148.0475 570.9376,-158.3982 576.8987,-154.7287"/>
</g>
<!-- Node7 -->
<g id="node8" class="node">
<title>Node7</title>
<g id="a_node8"><a xlink:href="dp__matrices_8h.html" target="_top" xlink:title="Functions to deal with standard dynamic programming (DP) matrices. ">
<polygon fill="none" stroke="#000000" points="716.5,-129 716.5,-148 847.5,-148 847.5,-129 716.5,-129"/>
<text text-anchor="middle" x="782" y="-136" font-family="Helvetica,sans-Serif" font-size="10.00" fill="#000000">ViennaRNA/dp_matrices.h</text>
</a>
</g>
</g>
<!-- Node1&#45;&gt;Node7 -->
<g id="edge31" class="edge">
<title>Node1&#45;&gt;Node7</title>
<path fill="none" stroke="#191970" d="M691.2919,-257.3416C703.4879,-235.7602 741.4701,-183.3706 764.4544,-155.9254"/>
<polygon fill="#191970" stroke="#191970" points="767.1769,-158.1278 771.0608,-148.2705 761.8775,-153.5543 767.1769,-158.1278"/>
</g>
<!-- Node8 -->
<g id="node9" class="node">
<title>Node8</title>
<g id="a_node9"><a xlink:href="constraints_8h.html" target="_top" xlink:title="Functions and data structures for constraining secondary structure predictions and evaluation...">
<polygon fill="none" stroke="#000000" points="904,-129 904,-148 1030,-148 1030,-129 904,-129"/>
<text text-anchor="middle" x="967" y="-136" font-family="Helvetica,sans-Serif" font-size="10.00" fill="#000000">ViennaRNA/constraints.h</text>
</a>
</g>
</g>
<!-- Node1&#45;&gt;Node8 -->
<g id="edge32" class="edge">
<title>Node1&#45;&gt;Node8</title>
<path fill="none" stroke="#191970" d="M740.175,-257.4868C788.7693,-248.6483 856.9919,-234.8063 881,-221 909.2578,-204.7498 933.3094,-174.7748 949.1569,-155.7789"/>
<polygon fill="#191970" stroke="#191970" points="951.8334,-158.0343 955.6404,-148.1471 946.4986,-153.5022 951.8334,-158.0343"/>
</g>
<!-- Node14 -->
<g id="node15" class="node">
<title>Node14</title>
<g id="a_node15"><a xlink:href="grammar_8h.html" target="_top" xlink:title="Implementations for the RNA folding grammar. ">
<polygon fill="none" stroke="#000000" points="66,-129 66,-148 182,-148 182,-129 66,-129"/>
<text text-anchor="middle" x="124" y="-136" font-family="Helvetica,sans-Serif" font-size="10.00" fill="#000000">ViennaRNA/grammar.h</text>
</a>
</g>
</g>
<!-- Node1&#45;&gt;Node14 -->
<g id="edge33" class="edge">
<title>Node1&#45;&gt;Node14</title>
<path fill="none" stroke="#191970" d="M614.8366,-258.6199C508.9453,-245.8625 325.0378,-222.8449 318,-221 253.7543,-204.1582 182.7231,-171.9177 146.8962,-153.1147"/>
<polygon fill="#191970" stroke="#191970" points="148.2233,-149.854 137.7597,-148.1915 144.9027,-156.0163 148.2233,-149.854"/>
</g>
<!-- Node15 -->
<g id="node16" class="node">
<title>Node15</title>
<g id="a_node16"><a xlink:href="structured__domains_8h.html" target="_top" xlink:title="This module provides interfaces that deal with additional structured domains in the folding grammar...">
<polygon fill="none" stroke="#000000" points="200.5,-123.5 200.5,-153.5 313.5,-153.5 313.5,-123.5 200.5,-123.5"/>
<text text-anchor="start" x="208.5" y="-141.5" font-family="Helvetica,sans-Serif" font-size="10.00" fill="#000000">ViennaRNA/structured</text>
<text text-anchor="middle" x="257" y="-130.5" font-family="Helvetica,sans-Serif" font-size="10.00" fill="#000000">_domains.h</text>
</a>
</g>
</g>
<!-- Node1&#45;&gt;Node15 -->
<g id="edge34" class="edge">
<title>Node1&#45;&gt;Node15</title>
<path fill="none" stroke="#191970" d="M617.4985,-257.4713C536.9927,-246.36 413.6941,-228.5534 393,-221 352.6789,-206.2826 311.1861,-179.0247 284.8079,-159.8794"/>
<polygon fill="#191970" stroke="#191970" points="286.5909,-156.8454 276.4652,-153.7274 282.4364,-162.4793 286.5909,-156.8454"/>
</g>
<!-- Node16 -->
<g id="node17" class="node">
<title>Node16</title>
<g id="a_node17"><a xlink:href="unstructured__domains_8h.html" target="_top" xlink:title="Functions to modify unstructured domains, e.g. to incorporate ligands binding to unpaired stretches...">
<polygon fill="none" stroke="#000000" points="332,-123.5 332,-153.5 456,-153.5 456,-123.5 332,-123.5"/>
<text text-anchor="start" x="340" y="-141.5" font-family="Helvetica,sans-Serif" font-size="10.00" fill="#000000">ViennaRNA/unstructured</text>
<text text-anchor="middle" x="394" y="-130.5" font-family="Helvetica,sans-Serif" font-size="10.00" fill="#000000">_domains.h</text>
</a>
</g>
</g>
<!-- Node1&#45;&gt;Node16 -->
<g id="edge35" class="edge">
<title>Node1&#45;&gt;Node16</title>
<path fill="none" stroke="#191970" d="M614.7835,-257.6961C533.113,-246.446 411.5788,-228.1327 404,-221 388.6109,-206.5166 384.5148,-182.278 385.4753,-163.8109"/>
<polygon fill="#191970" stroke="#191970" points="388.9706,-164.0431 386.578,-153.722 382.0121,-163.2825 388.9706,-164.0431"/>
</g>
<!-- Node1&#45;&gt;Node17 -->
<g id="edge36" class="edge">
<title>Node1&#45;&gt;Node17</title>
<path fill="none" stroke="#191970" d="M761.4243,-257.4874C762.9615,-257.3225 764.4881,-257.1598 766,-257 931.6251,-239.4902 974.5835,-247.5612 1139,-221 1143.1687,-220.3265 1147.4637,-219.5489 1151.7958,-218.708"/>
<polygon fill="#191970" stroke="#191970" points="1152.8261,-222.0703 1161.9296,-216.6503 1151.4331,-215.2103 1152.8261,-222.0703"/>
</g>
<!-- Node3 -->
<g id="node4" class="node">
<title>Node3</title>
<polygon fill="none" stroke="#bfbfbf" points="534,-.5 534,-19.5 582,-19.5 582,-.5 534,-.5"/>
<text text-anchor="middle" x="558" y="-7.5" font-family="Helvetica,sans-Serif" font-size="10.00" fill="#000000">limits.h</text>
</g>
<!-- Node2&#45;&gt;Node3 -->
<g id="edge3" class="edge">
<title>Node2&#45;&gt;Node3</title>
<path fill="none" stroke="#191970" d="M558,-61.8906C558,-53.3657 558,-40.6392 558,-29.9235"/>
<polygon fill="#191970" stroke="#191970" points="561.5001,-29.7448 558,-19.7449 554.5001,-29.7449 561.5001,-29.7448"/>
</g>
<!-- Node4&#45;&gt;Node5 -->
<g id="edge5" class="edge">
<title>Node4&#45;&gt;Node5</title>
<path fill="none" stroke="#191970" d="M493.5362,-195.9666C492.159,-178.6957 486.6931,-142.2426 465,-123 440.1994,-101.0009 355.1125,-86.3272 295.2014,-78.4509"/>
<polygon fill="#191970" stroke="#191970" points="295.437,-74.9525 285.073,-77.1521 294.5465,-81.8957 295.437,-74.9525"/>
</g>
<!-- Node4&#45;&gt;Node6 -->
<g id="edge6" class="edge">
<title>Node4&#45;&gt;Node6</title>
<path fill="none" stroke="#191970" d="M504.4591,-195.9005C516.0597,-185.2535 534.9829,-167.8856 548.9805,-155.0385"/>
<polygon fill="#191970" stroke="#191970" points="551.5596,-157.4221 556.5603,-148.0817 546.8263,-152.2649 551.5596,-157.4221"/>
</g>
<!-- Node4&#45;&gt;Node7 -->
<g id="edge10" class="edge">
<title>Node4&#45;&gt;Node7</title>
<path fill="none" stroke="#191970" d="M534.9575,-195.9717C586.4188,-183.9998 674.7504,-163.4504 730.6695,-150.4415"/>
<polygon fill="#191970" stroke="#191970" points="731.7707,-153.7788 740.7175,-148.1039 730.1845,-146.9609 731.7707,-153.7788"/>
</g>
<!-- Node4&#45;&gt;Node8 -->
<g id="edge12" class="edge">
<title>Node4&#45;&gt;Node8</title>
<path fill="none" stroke="#191970" d="M561.267,-195.9717C649.2766,-183.5052 802.947,-161.738 893.7982,-148.869"/>
<polygon fill="#191970" stroke="#191970" points="894.3337,-152.3281 903.7439,-147.4602 893.3519,-145.3973 894.3337,-152.3281"/>
</g>
<!-- Node4&#45;&gt;Node14 -->
<g id="edge24" class="edge">
<title>Node4&#45;&gt;Node14</title>
<path fill="none" stroke="#191970" d="M431.4189,-195.968C370.0108,-186.3548 273.7927,-170.5977 191,-154 185.3005,-152.8574 179.3455,-151.5888 173.4384,-150.2834"/>
<polygon fill="#191970" stroke="#191970" points="174.1203,-146.8494 163.5958,-148.0676 172.5829,-153.6785 174.1203,-146.8494"/>
</g>
<!-- Node4&#45;&gt;Node15 -->
<g id="edge26" class="edge">
<title>Node4&#45;&gt;Node15</title>
<path fill="none" stroke="#191970" d="M460.2954,-195.9717C423.8631,-185.6723 364.9747,-169.0245 319.9325,-156.291"/>
<polygon fill="#191970" stroke="#191970" points="320.8305,-152.9078 310.2555,-153.5553 318.9262,-159.6438 320.8305,-152.9078"/>
</g>
<!-- Node4&#45;&gt;Node16 -->
<g id="edge27" class="edge">
<title>Node4&#45;&gt;Node16</title>
<path fill="none" stroke="#191970" d="M479.6724,-195.9005C465.4706,-186.3853 443.2572,-171.5023 425.0082,-159.2755"/>
<polygon fill="#191970" stroke="#191970" points="426.6764,-156.1803 416.4205,-153.5218 422.7801,-161.9957 426.6764,-156.1803"/>
</g>
<!-- Node6&#45;&gt;Node1 -->
<g id="edge8" class="edge">
<title>Node6&#45;&gt;Node1</title>
<path fill="none" stroke="#191970" d="M579.7722,-148.0475C595.3328,-163.8339 620.7849,-196.1041 645,-221 654.9087,-231.1873 666.7207,-241.7485 675.7015,-250.1781"/>
<polygon fill="#191970" stroke="#191970" points="673.3944,-252.8159 683.0174,-257.2485 678.259,-247.7823 673.3944,-252.8159"/>
</g>
<!-- Node6&#45;&gt;Node2 -->
<g id="edge7" class="edge">
<title>Node6&#45;&gt;Node2</title>
<path fill="none" stroke="#191970" d="M565.7105,-128.9005C564.4006,-119.149 562.3334,-103.7597 560.669,-91.3695"/>
<polygon fill="#191970" stroke="#191970" points="564.0873,-90.5266 559.2871,-81.0817 557.1497,-91.4586 564.0873,-90.5266"/>
</g>
<!-- Node6&#45;&gt;Node5 -->
<g id="edge9" class="edge">
<title>Node6&#45;&gt;Node5</title>
<path fill="none" stroke="#191970" d="M525.4469,-128.9607C516.4095,-126.9433 506.8925,-124.8625 498,-123 428.4017,-108.4231 348.219,-93.0353 294.4442,-82.9178"/>
<polygon fill="#191970" stroke="#191970" points="294.8602,-79.4348 284.386,-81.0289 293.5682,-86.3146 294.8602,-79.4348"/>
</g>
<!-- Node7&#45;&gt;Node1 -->
<g id="edge11" class="edge">
<title>Node7&#45;&gt;Node1</title>
<path fill="none" stroke="#191970" d="M778.6447,-148.2705C766.3597,-169.9581 728.359,-222.3577 705.4267,-249.7166"/>
<polygon fill="#191970" stroke="#191970" points="702.7281,-247.4865 698.8387,-257.3416 708.0249,-252.0629 702.7281,-247.4865"/>
</g>
<!-- Node8&#45;&gt;Node1 -->
<g id="edge13" class="edge">
<title>Node8&#45;&gt;Node1</title>
<path fill="none" stroke="#191970" d="M966.1647,-148.1471C958.3357,-165.6027 931.4395,-202.3451 899,-221 876.4924,-233.9434 815.1244,-246.9181 764.2722,-255.7722"/>
<polygon fill="#191970" stroke="#191970" points="763.5225,-252.3495 754.2565,-257.4868 764.7038,-259.2491 763.5225,-252.3495"/>
</g>
<!-- Node9 -->
<g id="node10" class="node">
<title>Node9</title>
<g id="a_node10"><a xlink:href="constraints__hard_8h.html" target="_top" xlink:title="Functions and data structures for handling of secondary structure hard constraints. ">
<polygon fill="none" stroke="#000000" points="645,-56.5 645,-86.5 763,-86.5 763,-56.5 645,-56.5"/>
<text text-anchor="start" x="653" y="-74.5" font-family="Helvetica,sans-Serif" font-size="10.00" fill="#000000">ViennaRNA/constraints</text>
<text text-anchor="middle" x="704" y="-63.5" font-family="Helvetica,sans-Serif" font-size="10.00" fill="#000000">_hard.h</text>
</a>
</g>
</g>
<!-- Node8&#45;&gt;Node9 -->
<g id="edge14" class="edge">
<title>Node8&#45;&gt;Node9</title>
<path fill="none" stroke="#191970" d="M929.5978,-128.9717C888.9144,-118.6075 822.9971,-101.8148 772.8952,-89.0512"/>
<polygon fill="#191970" stroke="#191970" points="773.6524,-85.6324 763.0979,-86.5553 771.9243,-92.4158 773.6524,-85.6324"/>
</g>
<!-- Node10 -->
<g id="node11" class="node">
<title>Node10</title>
<g id="a_node11"><a xlink:href="constraints__soft_8h.html" target="_top" xlink:title="Functions and data structures for secondary structure soft constraints. ">
<polygon fill="none" stroke="#000000" points="781,-56.5 781,-86.5 899,-86.5 899,-56.5 781,-56.5"/>
<text text-anchor="start" x="789" y="-74.5" font-family="Helvetica,sans-Serif" font-size="10.00" fill="#000000">ViennaRNA/constraints</text>
<text text-anchor="middle" x="840" y="-63.5" font-family="Helvetica,sans-Serif" font-size="10.00" fill="#000000">_soft.h</text>
</a>
</g>
</g>
<!-- Node8&#45;&gt;Node10 -->
<g id="edge16" class="edge">
<title>Node8&#45;&gt;Node10</title>
<path fill="none" stroke="#191970" d="M948.804,-128.9005C930.2758,-119.1258 901.0103,-103.6865 877.4957,-91.2812"/>
<polygon fill="#191970" stroke="#191970" points="878.9519,-88.0923 868.4741,-86.5218 875.6856,-94.2835 878.9519,-88.0923"/>
</g>
<!-- Node11 -->
<g id="node12" class="node">
<title>Node11</title>
<g id="a_node12"><a xlink:href="constraints__SHAPE_8h.html" target="_top" xlink:title="This module provides function to incorporate SHAPE reactivity data into the folding recursions by mea...">
<polygon fill="none" stroke="#000000" points="917,-56.5 917,-86.5 1035,-86.5 1035,-56.5 917,-56.5"/>
<text text-anchor="start" x="925" y="-74.5" font-family="Helvetica,sans-Serif" font-size="10.00" fill="#000000">ViennaRNA/constraints</text>
<text text-anchor="middle" x="976" y="-63.5" font-family="Helvetica,sans-Serif" font-size="10.00" fill="#000000">_SHAPE.h</text>
</a>
</g>
</g>
<!-- Node8&#45;&gt;Node11 -->
<g id="edge18" class="edge">
<title>Node8&#45;&gt;Node11</title>
<path fill="none" stroke="#191970" d="M968.2895,-128.9005C969.4166,-120.5099 971.1044,-107.9451 972.6138,-96.7085"/>
<polygon fill="#191970" stroke="#191970" points="976.1196,-96.8987 973.9822,-86.5218 969.1819,-95.9668 976.1196,-96.8987"/>
</g>
<!-- Node12 -->
<g id="node13" class="node">
<title>Node12</title>
<g id="a_node13"><a xlink:href="perturbation__fold_8h.html" target="_top" xlink:title="Find a vector of perturbation energies that minimizes the discripancies between predicted and observe...">
<polygon fill="none" stroke="#000000" points="1053.5,-56.5 1053.5,-86.5 1174.5,-86.5 1174.5,-56.5 1053.5,-56.5"/>
<text text-anchor="start" x="1061.5" y="-74.5" font-family="Helvetica,sans-Serif" font-size="10.00" fill="#000000">ViennaRNA/perturbation</text>
<text text-anchor="middle" x="1114" y="-63.5" font-family="Helvetica,sans-Serif" font-size="10.00" fill="#000000">_fold.h</text>
</a>
</g>
</g>
<!-- Node8&#45;&gt;Node12 -->
<g id="edge20" class="edge">
<title>Node8&#45;&gt;Node12</title>
<path fill="none" stroke="#191970" d="M988.0615,-128.9005C1009.7922,-118.9961 1044.2833,-103.2756 1071.6798,-90.7888"/>
<polygon fill="#191970" stroke="#191970" points="1073.394,-93.854 1081.0418,-86.5218 1070.4908,-87.4844 1073.394,-93.854"/>
</g>
<!-- Node13 -->
<g id="node14" class="node">
<title>Node13</title>
<g id="a_node14"><a xlink:href="constraints__ligand_8h.html" target="_top" xlink:title="Functions for incorporation of ligands binding to hairpin and interior loop motifs using the soft con...">
<polygon fill="none" stroke="#000000" points="1193,-56.5 1193,-86.5 1311,-86.5 1311,-56.5 1193,-56.5"/>
<text text-anchor="start" x="1201" y="-74.5" font-family="Helvetica,sans-Serif" font-size="10.00" fill="#000000">ViennaRNA/constraints</text>
<text text-anchor="middle" x="1252" y="-63.5" font-family="Helvetica,sans-Serif" font-size="10.00" fill="#000000">_ligand.h</text>
</a>
</g>
</g>
<!-- Node8&#45;&gt;Node13 -->
<g id="edge22" class="edge">
<title>Node8&#45;&gt;Node13</title>
<path fill="none" stroke="#191970" d="M1007.5309,-128.9717C1053.1032,-118.2582 1127.8944,-100.6757 1182.7708,-87.7749"/>
<polygon fill="#191970" stroke="#191970" points="1183.8405,-91.119 1192.7741,-85.4233 1182.2385,-84.3047 1183.8405,-91.119"/>
</g>
<!-- Node9&#45;&gt;Node1 -->
<g id="edge15" class="edge">
<title>Node9&#45;&gt;Node1</title>
<path fill="none" stroke="#191970" d="M702.7608,-86.6418C699.8974,-121.6286 692.8228,-208.0716 689.6207,-247.1969"/>
<polygon fill="#191970" stroke="#191970" points="686.1209,-247.0529 688.7934,-257.3051 693.0976,-247.624 686.1209,-247.0529"/>
</g>
<!-- Node10&#45;&gt;Node1 -->
<g id="edge17" class="edge">
<title>Node10&#45;&gt;Node1</title>
<path fill="none" stroke="#191970" d="M848.5984,-86.6771C857.133,-103.9275 867.422,-132.4782 856,-154 828.7696,-205.3089 766.6905,-237.4624 726.1001,-253.8108"/>
<polygon fill="#191970" stroke="#191970" points="724.8296,-250.5495 716.7813,-257.4397 727.3697,-257.0724 724.8296,-250.5495"/>
</g>
<!-- Node11&#45;&gt;Node1 -->
<g id="edge19" class="edge">
<title>Node11&#45;&gt;Node1</title>
<path fill="none" stroke="#191970" d="M1004.3,-86.6917C1017.4405,-95.409 1031.7372,-107.6823 1039,-123 1044.9028,-135.4493 1045.7239,-141.9744 1039,-154 1011.2486,-203.6331 983.0268,-200.4638 930,-221 900.0293,-232.607 821.8299,-246.4415 762.366,-255.8867"/>
<polygon fill="#191970" stroke="#191970" points="761.5805,-252.4672 752.2469,-257.4806 762.6698,-259.3819 761.5805,-252.4672"/>
</g>
<!-- Node12&#45;&gt;Node1 -->
<g id="edge21" class="edge">
<title>Node12&#45;&gt;Node1</title>
<path fill="none" stroke="#191970" d="M1105.9901,-86.9455C1088.4931,-118.8254 1043.452,-191.3997 982,-221 963.2252,-230.0435 851.3282,-245.9603 771.1513,-256.494"/>
<polygon fill="#191970" stroke="#191970" points="770.5095,-253.048 761.0477,-257.815 771.4171,-259.9889 770.5095,-253.048"/>
</g>
<!-- Node13&#45;&gt;Node1 -->
<g id="edge23" class="edge">
<title>Node13&#45;&gt;Node1</title>
<path fill="none" stroke="#191970" d="M1230.8948,-86.6559C1182.374,-121.2192 1063.5665,-204.1853 1018,-221 995.2789,-229.3844 861.0584,-246.4851 770.9452,-257.3097"/>
<polygon fill="#191970" stroke="#191970" points="770.518,-253.8357 761.005,-258.4998 771.3502,-260.7861 770.518,-253.8357"/>
</g>
<!-- Node14&#45;&gt;Node1 -->
<g id="edge25" class="edge">
<title>Node14&#45;&gt;Node1</title>
<path fill="none" stroke="#191970" d="M147.9783,-148.0543C186.8962,-165.5262 265.5301,-202.5265 336,-221 342.6077,-222.7322 505.1268,-243.1281 607.0518,-256.1731"/>
<polygon fill="#191970" stroke="#191970" points="606.6607,-259.6515 617.0245,-257.4509 607.5504,-252.7083 606.6607,-259.6515"/>
</g>
<!-- Node16&#45;&gt;Node1 -->
<g id="edge28" class="edge">
<title>Node16&#45;&gt;Node1</title>
<path fill="none" stroke="#191970" d="M399.1187,-153.722C401.3419,-172.388 403.5906,-203.6741 422,-221 429.2109,-227.7866 539.5846,-244.6947 615.9258,-256.0103"/>
<polygon fill="#191970" stroke="#191970" points="615.5858,-259.498 625.9903,-257.4992 616.6102,-252.5733 615.5858,-259.498"/>
</g>
<!-- Node17&#45;&gt;Node1 -->
<g id="edge38" class="edge">
<title>Node17&#45;&gt;Node1</title>
<path fill="none" stroke="#191970" d="M1161.7075,-220.2056C1160.1254,-220.4835 1158.5539,-220.749 1157,-221 992.5835,-247.5612 949.6251,-239.4902 784,-257 779.8327,-257.4406 775.5543,-257.9022 771.2257,-258.3752"/>
<polygon fill="#191970" stroke="#191970" points="770.6198,-254.9207 761.0634,-259.4951 771.3867,-261.8786 770.6198,-254.9207"/>
</g>
<!-- Node18 -->
<g id="node19" class="node">
<title>Node18</title>
<polygon fill="none" stroke="#bfbfbf" points="1193,-129 1193,-148 1239,-148 1239,-129 1193,-129"/>
<text text-anchor="middle" x="1216" y="-136" font-family="Helvetica,sans-Serif" font-size="10.00" fill="#000000">stdio.h</text>
</g>
<!-- Node17&#45;&gt;Node18 -->
<g id="edge37" class="edge">
<title>Node17&#45;&gt;Node18</title>
<path fill="none" stroke="#191970" d="M1216,-190.2967C1216,-180.7699 1216,-168.3954 1216,-158.1306"/>
<polygon fill="#191970" stroke="#191970" points="1219.5001,-158.0549 1216,-148.055 1212.5001,-158.055 1219.5001,-158.0549"/>
</g>
<!-- Node19&#45;&gt;Node5 -->
<g id="edge41" class="edge">
<title>Node19&#45;&gt;Node5</title>
<path fill="none" stroke="#191970" d="M514.4081,-372.9383C360.2968,-358.3968 0,-318.8551 0,-267 0,-267 0,-267 0,-205.5 0,-163.3006 13.7026,-148.9243 47,-123 66.5817,-107.7543 125.7785,-92.9088 172.1886,-83.1049"/>
<polygon fill="#191970" stroke="#191970" points="173.0983,-86.4908 182.1775,-81.0301 171.6746,-79.6371 173.0983,-86.4908"/>
</g>
<!-- Node20 -->
<g id="node21" class="node">
<title>Node20</title>
<g id="a_node21"><a xlink:href="plot__layouts_8h.html" target="_top" xlink:title="Secondary structure plot layout algorithms. ">
<polygon fill="none" stroke="#000000" points="517.5,-313.5 517.5,-332.5 648.5,-332.5 648.5,-313.5 517.5,-313.5"/>
<text text-anchor="middle" x="583" y="-320.5" font-family="Helvetica,sans-Serif" font-size="10.00" fill="#000000">ViennaRNA/plot_layouts.h</text>
</a>
</g>
</g>
<!-- Node19&#45;&gt;Node20 -->
<g id="edge42" class="edge">
<title>Node19&#45;&gt;Node20</title>
<path fill="none" stroke="#191970" d="M583,-369.2455C583,-361.9382 583,-351.6944 583,-342.7046"/>
<polygon fill="#191970" stroke="#191970" points="586.5001,-342.6426 583,-332.6427 579.5001,-342.6427 586.5001,-342.6426"/>
</g>
<!-- Node20&#45;&gt;Node1 -->
<g id="edge43" class="edge">
<title>Node20&#45;&gt;Node1</title>
<path fill="none" stroke="#191970" d="M601.2896,-313.2455C617.7762,-304.4527 642.2352,-291.4079 660.9765,-281.4125"/>
<polygon fill="#191970" stroke="#191970" points="662.7435,-284.4368 669.92,-276.6427 659.4494,-278.2604 662.7435,-284.4368"/>
</g>
<!-- Node21 -->
<g id="node22" class="node">
<title>Node21</title>
<g id="a_node22"><a xlink:href="naview_8h.html" target="_top" xlink:title="ViennaRNA/naview.h">
<polygon fill="none" stroke="#000000" points="489,-257.5 489,-276.5 597,-276.5 597,-257.5 489,-257.5"/>
<text text-anchor="middle" x="543" y="-264.5" font-family="Helvetica,sans-Serif" font-size="10.00" fill="#000000">ViennaRNA/naview.h</text>
</a>
</g>
</g>
<!-- Node20&#45;&gt;Node21 -->
<g id="edge44" class="edge">
<title>Node20&#45;&gt;Node21</title>
<path fill="none" stroke="#191970" d="M576.0325,-313.2455C570.4689,-305.4564 562.522,-294.3308 555.8171,-284.9439"/>
<polygon fill="#191970" stroke="#191970" points="558.5481,-282.7457 549.8876,-276.6427 552.852,-286.8144 558.5481,-282.7457"/>
</g>
</g>
</svg>
        <g id="navigator" transform="translate(0 0)" fill="#404254">
                <rect fill="#f2f5e9" fill-opacity="0.5" stroke="#606060" stroke-width=".5" x="0" y="0" width="60" height="60"/>
                <use id="zoomplus" xlink:href="#zoomPlus" x="17" y="9" onmousedown="handleZoom(evt,'in')"/>
                <use id="zoomminus" xlink:href="#zoomMin" x="42" y="9" onmousedown="handleZoom(evt,'out')"/>
                <use id="reset" xlink:href="#resetDef" x="30" y="36" onmousedown="handleReset()"/>
                <g id="arrowUp" xlink:href="#dirArrow" transform="translate(30 24)" onmousedown="handlePan(0,-1)">
                  <use xlink:href="#rim" fill="#404040">
                        <set attributeName="fill" to="#808080" begin="arrowUp.mouseover" end="arrowUp.mouseout"/>
                  </use>
                  <path fill="none" stroke="white" stroke-width="1.5" d="M0,-3.0v7 M-2.5,-0.5L0,-3.0L2.5,-0.5"/>
                </g>
                <g id="arrowRight" xlink:href="#dirArrow" transform="rotate(90) translate(36 -43)" onmousedown="handlePan(1,0)">
                  <use xlink:href="#rim" fill="#404040">
                        <set attributeName="fill" to="#808080" begin="arrowRight.mouseover" end="arrowRight.mouseout"/>
                  </use>
                  <path fill="none" stroke="white" stroke-width="1.5" d="M0,-3.0v7 M-2.5,-0.5L0,-3.0L2.5,-0.5"/>
                </g>
                <g id="arrowDown" xlink:href="#dirArrow" transform="rotate(180) translate(-30 -48)" onmousedown="handlePan(0,1)">
                  <use xlink:href="#rim" fill="#404040">
                        <set attributeName="fill" to="#808080" begin="arrowDown.mouseover" end="arrowDown.mouseout"/>
                  </use>
                  <path fill="none" stroke="white" stroke-width="1.5" d="M0,-3.0v7 M-2.5,-0.5L0,-3.0L2.5,-0.5"/>
                </g>
                <g id="arrowLeft" xlink:href="#dirArrow" transform="rotate(270) translate(-36 17)" onmousedown="handlePan(-1,0)">
                  <use xlink:href="#rim" fill="#404040">
                        <set attributeName="fill" to="#808080" begin="arrowLeft.mouseover" end="arrowLeft.mouseout"/>
                  </use>
                  <path fill="none" stroke="white" stroke-width="1.5" d="M0,-3.0v7 M-2.5,-0.5L0,-3.0L2.5,-0.5"/>
                </g>
        </g>
        <svg viewBox="0 0 15 15" width="100%" height="30px" preserveAspectRatio="xMaxYMin meet">
         <g id="arrow_out" transform="scale(0.3 0.3)">
          <a xlink:href="PS__dot_8h__incl_org.svg" target="_base">
           <rect id="button" ry="5" rx="5" y="6" x="6" height="38" width="38"
                fill="#f2f5e9" fill-opacity="0.5" stroke="#606060" stroke-width="1.0"/>
           <path id="arrow"
             d="M 11.500037,31.436501 C 11.940474,20.09759 22.043105,11.32322 32.158766,21.979434 L 37.068811,17.246167 C 37.068811,17.246167 37.088388,32 37.088388,32 L 22.160133,31.978069 C 22.160133,31.978069 26.997745,27.140456 26.997745,27.140456 C 18.528582,18.264221 13.291696,25.230495 11.500037,31.436501 z"
             style="fill:#404040;"/>
          </a>
         </g>
        </svg>
</svg>
