<?xml version="1.0" encoding="UTF-8" standalone="no"?>
<!DOCTYPE svg PUBLIC "-//W3C//DTD SVG 1.1//EN"
 "http://www.w3.org/Graphics/SVG/1.1/DTD/svg11.dtd">
<!-- Generated by graphviz version 2.40.1 (20161225.0304)
 -->
<!-- Title: ViennaRNA/string_utils.h Pages: 1 -->
<!--zoomable 341 -->
<svg id="main" version="1.1" xmlns="http://www.w3.org/2000/svg" xmlns:xlink="http://www.w3.org/1999/xlink" xml:space="preserve" onload="init(evt)">
<style type="text/css"><![CDATA[
.edge:hover path { stroke: red; }
.edge:hover polygon { stroke: red; fill: red; }
]]></style>
<script type="text/javascript"><![CDATA[
var edges = document.getElementsByTagName('g');
if (edges && edges.length) {
  for (var i=0;i<edges.length;i++) {
    if (edges[i].id.substr(0,4)=='edge') {
      edges[i].setAttribute('class','edge');
    }
  }
}
]]></script>
        <defs>
                <circle id="rim" cx="0" cy="0" r="7"/>
                <circle id="rim2" cx="0" cy="0" r="3.5"/>
                <g id="zoomPlus">
                        <use xlink:href="#rim" fill="#404040">
                                <set attributeName="fill" to="#808080" begin="zoomplus.mouseover" end="zoomplus.mouseout"/>
                        </use>
                        <path d="M-4,0h8M0,-4v8" fill="none" stroke="white" stroke-width="1.5" pointer-events="none"/>
                </g>
                <g id="zoomMin">
                        <use xlink:href="#rim" fill="#404040">
                                <set attributeName="fill" to="#808080" begin="zoomminus.mouseover" end="zoomminus.mouseout"/>
                        </use>
                        <path d="M-4,0h8" fill="none" stroke="white" stroke-width="1.5" pointer-events="none"/>
                </g>
                <g id="dirArrow">
                        <path fill="none" stroke="white" stroke-width="1.5" d="M0,-3.0v7 M-2.5,-0.5L0,-3.0L2.5,-0.5"/>
                </g>
               <g id="resetDef">
                       <use xlink:href="#rim2" fill="#404040">
                               <set attributeName="fill" to="#808080" begin="reset.mouseover" end="reset.mouseout"/>
                       </use>
               </g>
        </defs>

<script type="text/javascript">
var viewWidth = 1385;
var viewHeight = 341;
var sectionId = 'dynsection-0';
</script>
<script xlink:href="svgpan.js"/>
<svg id="graph" class="graph">
<g id="viewport">
<title>ViennaRNA/string_utils.h</title>
<!-- Node0 -->
<g id="node1" class="node">
<title>Node0</title>
<polygon fill="#bfbfbf" stroke="#000000" points="596,-313.5 596,-332.5 721,-332.5 721,-313.5 596,-313.5"/>
<text text-anchor="middle" x="658.5" y="-320.5" font-family="Helvetica,sans-Serif" font-size="10.00" fill="#000000">ViennaRNA/string_utils.h</text>
</g>
<!-- Node1 -->
<g id="node2" class="node">
<title>Node1</title>
<polygon fill="none" stroke="#bfbfbf" points="574.5,-257.5 574.5,-276.5 626.5,-276.5 626.5,-257.5 574.5,-257.5"/>
<text text-anchor="middle" x="600.5" y="-264.5" font-family="Helvetica,sans-Serif" font-size="10.00" fill="#000000">stdarg.h</text>
</g>
<!-- Node0&#45;&gt;Node1 -->
<g id="edge1" class="edge">
<title>Node0&#45;&gt;Node1</title>
<path fill="none" stroke="#191970" d="M648.3972,-313.2455C639.9972,-305.1352 627.8506,-293.4075 617.8916,-283.7919"/>
<polygon fill="#191970" stroke="#191970" points="620.1122,-281.0707 610.4871,-276.6427 615.25,-286.1066 620.1122,-281.0707"/>
</g>
<!-- Node2 -->
<g id="node3" class="node">
<title>Node2</title>
<g id="a_node3"><a xlink:href="data__structures_8h.html" target="_top" xlink:title="Various data structures and pre&#45;processor macros. ">
<polygon fill="none" stroke="#000000" points="644.5,-257.5 644.5,-276.5 790.5,-276.5 790.5,-257.5 644.5,-257.5"/>
<text text-anchor="middle" x="717.5" y="-264.5" font-family="Helvetica,sans-Serif" font-size="10.00" fill="#000000">ViennaRNA/data_structures.h</text>
</a>
</g>
</g>
<!-- Node0&#45;&gt;Node2 -->
<g id="edge2" class="edge">
<title>Node0&#45;&gt;Node2</title>
<path fill="none" stroke="#191970" d="M668.777,-313.2455C677.3218,-305.1352 689.6778,-293.4075 699.8085,-283.7919"/>
<polygon fill="#191970" stroke="#191970" points="702.4972,-286.0655 707.3408,-276.6427 697.6782,-280.9884 702.4972,-286.0655"/>
</g>
<!-- Node3 -->
<g id="node4" class="node">
<title>Node3</title>
<g id="a_node4"><a xlink:href="energy__const_8h.html" target="_top" xlink:title="Energy parameter constants. ">
<polygon fill="none" stroke="#000000" points="0,-62 0,-81 137,-81 137,-62 0,-62"/>
<text text-anchor="middle" x="68.5" y="-69" font-family="Helvetica,sans-Serif" font-size="10.00" fill="#000000">ViennaRNA/energy_const.h</text>
</a>
</g>
</g>
<!-- Node2&#45;&gt;Node3 -->
<g id="edge3" class="edge">
<title>Node2&#45;&gt;Node3</title>
<path fill="none" stroke="#191970" d="M644.1981,-257.9193C641.2614,-257.6003 638.3534,-257.2925 635.5,-257 443.3982,-237.3081 389.9279,-267.4933 202.5,-221 128.8656,-202.7343 87.3123,-217.3039 45.5,-154 32.5701,-134.424 44.3153,-107.6397 55.2312,-89.9688"/>
<polygon fill="#191970" stroke="#191970" points="58.4406,-91.4618 61.0482,-81.1929 52.606,-87.5943 58.4406,-91.4618"/>
</g>
<!-- Node5 -->
<g id="node6" class="node">
<title>Node5</title>
<g id="a_node6"><a xlink:href="fold__compound_8h.html" target="_top" xlink:title="The Basic Fold Compound API. ">
<polygon fill="none" stroke="#000000" points="474.5,-196 474.5,-215 618.5,-215 618.5,-196 474.5,-196"/>
<text text-anchor="middle" x="546.5" y="-203" font-family="Helvetica,sans-Serif" font-size="10.00" fill="#000000">ViennaRNA/fold_compound.h</text>
</a>
</g>
</g>
<!-- Node2&#45;&gt;Node5 -->
<g id="edge5" class="edge">
<title>Node2&#45;&gt;Node5</title>
<path fill="none" stroke="#191970" d="M690.7813,-257.3906C661.6679,-246.92 614.9308,-230.1111 582.5753,-218.4745"/>
<polygon fill="#191970" stroke="#191970" points="583.6256,-215.1328 573.0311,-215.0419 581.2565,-221.7197 583.6256,-215.1328"/>
</g>
<!-- Node6 -->
<g id="node7" class="node">
<title>Node6</title>
<g id="a_node7"><a xlink:href="model_8h.html" target="_top" xlink:title="The model details data structure and its corresponding modifiers. ">
<polygon fill="none" stroke="#000000" points="290.5,-62 290.5,-81 394.5,-81 394.5,-62 290.5,-62"/>
<text text-anchor="middle" x="342.5" y="-69" font-family="Helvetica,sans-Serif" font-size="10.00" fill="#000000">ViennaRNA/model.h</text>
</a>
</g>
</g>
<!-- Node2&#45;&gt;Node6 -->
<g id="edge30" class="edge">
<title>Node2&#45;&gt;Node6</title>
<path fill="none" stroke="#191970" d="M647.5344,-257.494C571.1418,-246.7941 457.1291,-229.7642 438.5,-221 397.4519,-201.6886 384.8443,-192.8963 361.5,-154 349.8976,-134.6682 345.3778,-108.882 343.6185,-91.3177"/>
<polygon fill="#191970" stroke="#191970" points="347.0892,-90.8073 342.8143,-81.1133 340.1108,-91.3573 347.0892,-90.8073"/>
</g>
<!-- Node7 -->
<g id="node8" class="node">
<title>Node7</title>
<g id="a_node8"><a xlink:href="params_8h.html" target="_top" xlink:title="Functions to deal with sets of energy parameters. ">
<polygon fill="none" stroke="#000000" points="54.5,-129 54.5,-148 164.5,-148 164.5,-129 54.5,-129"/>
<text text-anchor="middle" x="109.5" y="-136" font-family="Helvetica,sans-Serif" font-size="10.00" fill="#000000">ViennaRNA/params.h</text>
</a>
</g>
</g>
<!-- Node2&#45;&gt;Node7 -->
<g id="edge31" class="edge">
<title>Node2&#45;&gt;Node7</title>
<path fill="none" stroke="#191970" d="M644.0899,-259.0246C638.1219,-258.3254 632.2007,-257.6407 626.5,-257 471.1022,-239.5342 427.1935,-262.7732 276.5,-221 219.9159,-205.3145 158.9432,-172.8385 128.5141,-153.6429"/>
<polygon fill="#191970" stroke="#191970" points="130.3772,-150.6794 120.0898,-148.1454 126.5515,-156.5416 130.3772,-150.6794"/>
</g>
<!-- Node8 -->
<g id="node9" class="node">
<title>Node8</title>
<g id="a_node9"><a xlink:href="dp__matrices_8h.html" target="_top" xlink:title="Functions to deal with standard dynamic programming (DP) matrices. ">
<polygon fill="none" stroke="#000000" points="183,-129 183,-148 314,-148 314,-129 183,-129"/>
<text text-anchor="middle" x="248.5" y="-136" font-family="Helvetica,sans-Serif" font-size="10.00" fill="#000000">ViennaRNA/dp_matrices.h</text>
</a>
</g>
</g>
<!-- Node2&#45;&gt;Node8 -->
<g id="edge32" class="edge">
<title>Node2&#45;&gt;Node8</title>
<path fill="none" stroke="#191970" d="M644.0798,-259.1112C638.114,-258.3938 632.196,-257.6813 626.5,-257 490.0929,-240.6848 442.6749,-281.8361 319.5,-221 290.1185,-206.4885 265.5073,-176.6369 254.0171,-157.1033"/>
<polygon fill="#191970" stroke="#191970" points="257.0986,-155.4432 249.3571,-148.21 250.8983,-158.6922 257.0986,-155.4432"/>
</g>
<!-- Node9 -->
<g id="node10" class="node">
<title>Node9</title>
<g id="a_node10"><a xlink:href="constraints_8h.html" target="_top" xlink:title="Functions and data structures for constraining secondary structure predictions and evaluation...">
<polygon fill="none" stroke="#000000" points="956.5,-129 956.5,-148 1082.5,-148 1082.5,-129 956.5,-129"/>
<text text-anchor="middle" x="1019.5" y="-136" font-family="Helvetica,sans-Serif" font-size="10.00" fill="#000000">ViennaRNA/constraints.h</text>
</a>
</g>
</g>
<!-- Node2&#45;&gt;Node9 -->
<g id="edge33" class="edge">
<title>Node2&#45;&gt;Node9</title>
<path fill="none" stroke="#191970" d="M780.1357,-257.4747C834.164,-248.9868 907.3267,-235.6666 933.5,-221 961.9368,-205.065 985.9347,-174.9955 1001.7227,-155.8948"/>
<polygon fill="#191970" stroke="#191970" points="1004.422,-158.123 1008.1802,-148.2171 999.0649,-153.6173 1004.422,-158.123"/>
</g>
<!-- Node15 -->
<g id="node16" class="node">
<title>Node15</title>
<g id="a_node16"><a xlink:href="grammar_8h.html" target="_top" xlink:title="Implementations for the RNA folding grammar. ">
<polygon fill="none" stroke="#000000" points="370.5,-129 370.5,-148 486.5,-148 486.5,-129 370.5,-129"/>
<text text-anchor="middle" x="428.5" y="-136" font-family="Helvetica,sans-Serif" font-size="10.00" fill="#000000">ViennaRNA/grammar.h</text>
</a>
</g>
</g>
<!-- Node2&#45;&gt;Node15 -->
<g id="edge34" class="edge">
<title>Node2&#45;&gt;Node15</title>
<path fill="none" stroke="#191970" d="M644.4744,-258.119C572.3656,-248.3 471.0031,-232.3697 456.5,-221 436.7755,-205.537 427.2624,-177.2708 425.0792,-158.1867"/>
<polygon fill="#191970" stroke="#191970" points="428.5747,-158.0062 424.619,-148.1775 421.5821,-158.3277 428.5747,-158.0062"/>
</g>
<!-- Node16 -->
<g id="node17" class="node">
<title>Node16</title>
<g id="a_node17"><a xlink:href="structured__domains_8h.html" target="_top" xlink:title="This module provides interfaces that deal with additional structured domains in the folding grammar...">
<polygon fill="none" stroke="#000000" points="543,-123.5 543,-153.5 656,-153.5 656,-123.5 543,-123.5"/>
<text text-anchor="start" x="551" y="-141.5" font-family="Helvetica,sans-Serif" font-size="10.00" fill="#000000">ViennaRNA/structured</text>
<text text-anchor="middle" x="599.5" y="-130.5" font-family="Helvetica,sans-Serif" font-size="10.00" fill="#000000">_domains.h</text>
</a>
</g>
</g>
<!-- Node2&#45;&gt;Node16 -->
<g id="edge35" class="edge">
<title>Node2&#45;&gt;Node16</title>
<path fill="none" stroke="#191970" d="M708.6308,-257.3416C690.0138,-237.068 646.4308,-189.6069 620.3242,-161.1772"/>
<polygon fill="#191970" stroke="#191970" points="622.8012,-158.6999 613.4595,-153.7016 617.6453,-163.4345 622.8012,-158.6999"/>
</g>
<!-- Node17 -->
<g id="node18" class="node">
<title>Node17</title>
<g id="a_node18"><a xlink:href="unstructured__domains_8h.html" target="_top" xlink:title="Functions to modify unstructured domains, e.g. to incorporate ligands binding to unpaired stretches...">
<polygon fill="none" stroke="#000000" points="674.5,-123.5 674.5,-153.5 798.5,-153.5 798.5,-123.5 674.5,-123.5"/>
<text text-anchor="start" x="682.5" y="-141.5" font-family="Helvetica,sans-Serif" font-size="10.00" fill="#000000">ViennaRNA/unstructured</text>
<text text-anchor="middle" x="736.5" y="-130.5" font-family="Helvetica,sans-Serif" font-size="10.00" fill="#000000">_domains.h</text>
</a>
</g>
</g>
<!-- Node2&#45;&gt;Node17 -->
<g id="edge36" class="edge">
<title>Node2&#45;&gt;Node17</title>
<path fill="none" stroke="#191970" d="M715.1547,-257.3416C714.7901,-237.6745 720.907,-192.4221 727.2667,-163.7784"/>
<polygon fill="#191970" stroke="#191970" points="730.7549,-164.2441 729.7029,-153.7016 723.9509,-162.599 730.7549,-164.2441"/>
</g>
<!-- Node18 -->
<g id="node19" class="node">
<title>Node18</title>
<g id="a_node19"><a xlink:href="structure__utils_8h.html" target="_top" xlink:title="Various utility&#45; and helper&#45;functions for secondary structure parsing, converting, etc. ">
<polygon fill="none" stroke="#000000" points="792.5,-190.5 792.5,-220.5 900.5,-220.5 900.5,-190.5 792.5,-190.5"/>
<text text-anchor="start" x="800.5" y="-208.5" font-family="Helvetica,sans-Serif" font-size="10.00" fill="#000000">ViennaRNA/structure</text>
<text text-anchor="middle" x="846.5" y="-197.5" font-family="Helvetica,sans-Serif" font-size="10.00" fill="#000000">_utils.h</text>
</a>
</g>
</g>
<!-- Node2&#45;&gt;Node18 -->
<g id="edge37" class="edge">
<title>Node2&#45;&gt;Node18</title>
<path fill="none" stroke="#191970" d="M732.5938,-257.3906C749.1614,-248.682 776.2092,-235.5888 799.8459,-224.7336"/>
<polygon fill="#191970" stroke="#191970" points="801.3954,-227.8739 809.046,-220.5446 798.4946,-221.5033 801.3954,-227.8739"/>
</g>
<!-- Node4 -->
<g id="node5" class="node">
<title>Node4</title>
<polygon fill="none" stroke="#bfbfbf" points="44.5,-.5 44.5,-19.5 92.5,-19.5 92.5,-.5 44.5,-.5"/>
<text text-anchor="middle" x="68.5" y="-7.5" font-family="Helvetica,sans-Serif" font-size="10.00" fill="#000000">limits.h</text>
</g>
<!-- Node3&#45;&gt;Node4 -->
<g id="edge4" class="edge">
<title>Node3&#45;&gt;Node4</title>
<path fill="none" stroke="#191970" d="M68.5,-61.8906C68.5,-53.3657 68.5,-40.6392 68.5,-29.9235"/>
<polygon fill="#191970" stroke="#191970" points="72.0001,-29.7448 68.5,-19.7449 65.0001,-29.7449 72.0001,-29.7448"/>
</g>
<!-- Node5&#45;&gt;Node6 -->
<g id="edge6" class="edge">
<title>Node5&#45;&gt;Node6</title>
<path fill="none" stroke="#191970" d="M543.0753,-195.8429C536.5142,-178.7004 520.5593,-142.8902 495.5,-123 469.3672,-102.2578 434.4545,-89.6702 404.5781,-82.1384"/>
<polygon fill="#191970" stroke="#191970" points="405.1983,-78.6882 394.6592,-79.7735 403.5748,-85.4974 405.1983,-78.6882"/>
</g>
<!-- Node5&#45;&gt;Node7 -->
<g id="edge7" class="edge">
<title>Node5&#45;&gt;Node7</title>
<path fill="none" stroke="#191970" d="M474.2967,-197.7091C398.9024,-189.0655 277.3866,-173.7003 173.5,-154 167.8155,-152.922 161.8773,-151.6645 156.0078,-150.3405"/>
<polygon fill="#191970" stroke="#191970" points="156.785,-146.9279 146.2518,-148.0696 155.1979,-153.7457 156.785,-146.9279"/>
</g>
<!-- Node5&#45;&gt;Node8 -->
<g id="edge11" class="edge">
<title>Node5&#45;&gt;Node8</title>
<path fill="none" stroke="#191970" d="M504.1203,-195.9717C450.7617,-183.975 359.0941,-163.3651 301.2531,-150.3606"/>
<polygon fill="#191970" stroke="#191970" points="301.7402,-146.8828 291.2159,-148.1039 300.2046,-153.7123 301.7402,-146.8828"/>
</g>
<!-- Node5&#45;&gt;Node9 -->
<g id="edge13" class="edge">
<title>Node5&#45;&gt;Node9</title>
<path fill="none" stroke="#191970" d="M613.767,-195.9717C701.7766,-183.5052 855.447,-161.738 946.2982,-148.869"/>
<polygon fill="#191970" stroke="#191970" points="946.8337,-152.3281 956.2439,-147.4602 945.8519,-145.3973 946.8337,-152.3281"/>
</g>
<!-- Node5&#45;&gt;Node15 -->
<g id="edge25" class="edge">
<title>Node5&#45;&gt;Node15</title>
<path fill="none" stroke="#191970" d="M529.5935,-195.9005C509.878,-184.7062 477.0778,-166.0823 454.2041,-153.0947"/>
<polygon fill="#191970" stroke="#191970" points="455.7993,-149.9757 445.3752,-148.0817 452.343,-156.0629 455.7993,-149.9757"/>
</g>
<!-- Node5&#45;&gt;Node16 -->
<g id="edge27" class="edge">
<title>Node5&#45;&gt;Node16</title>
<path fill="none" stroke="#191970" d="M554.0936,-195.9005C561.1416,-186.9908 571.9125,-173.3748 581.1953,-161.6399"/>
<polygon fill="#191970" stroke="#191970" points="584.158,-163.536 587.6171,-153.5218 578.668,-159.1932 584.158,-163.536"/>
</g>
<!-- Node5&#45;&gt;Node17 -->
<g id="edge28" class="edge">
<title>Node5&#45;&gt;Node17</title>
<path fill="none" stroke="#191970" d="M573.7224,-195.9005C602.4229,-185.7798 648.3446,-169.5864 684.1065,-156.9756"/>
<polygon fill="#191970" stroke="#191970" points="685.6341,-160.1482 693.901,-153.5218 683.3062,-153.5466 685.6341,-160.1482"/>
</g>
<!-- Node7&#45;&gt;Node2 -->
<g id="edge9" class="edge">
<title>Node7&#45;&gt;Node2</title>
<path fill="none" stroke="#191970" d="M130.2328,-148.0067C163.9281,-165.7429 231.8998,-203.6468 294.5,-221 441.9559,-261.8758 487.1662,-240.5028 638.6774,-256.3871"/>
<polygon fill="#191970" stroke="#191970" points="638.4935,-259.8876 648.8131,-257.4883 639.2497,-252.9286 638.4935,-259.8876"/>
</g>
<!-- Node7&#45;&gt;Node3 -->
<g id="edge8" class="edge">
<title>Node7&#45;&gt;Node3</title>
<path fill="none" stroke="#191970" d="M103.6257,-128.9005C97.4148,-118.751 87.4665,-102.4941 79.7401,-89.8679"/>
<polygon fill="#191970" stroke="#191970" points="82.5685,-87.7844 74.3634,-81.0817 76.5977,-91.4382 82.5685,-87.7844"/>
</g>
<!-- Node7&#45;&gt;Node6 -->
<g id="edge10" class="edge">
<title>Node7&#45;&gt;Node6</title>
<path fill="none" stroke="#191970" d="M142.8832,-128.9005C184.0621,-117.0594 254.1498,-96.9054 299.3689,-83.9025"/>
<polygon fill="#191970" stroke="#191970" points="300.5354,-87.209 309.1787,-81.0817 298.6009,-80.4816 300.5354,-87.209"/>
</g>
<!-- Node8&#45;&gt;Node2 -->
<g id="edge12" class="edge">
<title>Node8&#45;&gt;Node2</title>
<path fill="none" stroke="#191970" d="M259.7634,-148.21C275.3273,-166.1121 303.1546,-204.0368 337.5,-221 457.6677,-280.3509 505.7324,-242.6333 638.2647,-256.3366"/>
<polygon fill="#191970" stroke="#191970" points="638.0494,-259.8342 648.3758,-257.4643 638.8254,-252.8773 638.0494,-259.8342"/>
</g>
<!-- Node9&#45;&gt;Node2 -->
<g id="edge14" class="edge">
<title>Node9&#45;&gt;Node2</title>
<path fill="none" stroke="#191970" d="M1018.7045,-148.2171C1010.94,-165.7864 984.1449,-202.7069 951.5,-221 926.276,-235.1347 857.4093,-248.0188 800.8131,-256.5322"/>
<polygon fill="#191970" stroke="#191970" points="800.1442,-253.093 790.7636,-258.0178 801.1679,-260.0177 800.1442,-253.093"/>
</g>
<!-- Node10 -->
<g id="node11" class="node">
<title>Node10</title>
<g id="a_node11"><a xlink:href="constraints__hard_8h.html" target="_top" xlink:title="Functions and data structures for handling of secondary structure hard constraints. ">
<polygon fill="none" stroke="#000000" points="710.5,-56.5 710.5,-86.5 828.5,-86.5 828.5,-56.5 710.5,-56.5"/>
<text text-anchor="start" x="718.5" y="-74.5" font-family="Helvetica,sans-Serif" font-size="10.00" fill="#000000">ViennaRNA/constraints</text>
<text text-anchor="middle" x="769.5" y="-63.5" font-family="Helvetica,sans-Serif" font-size="10.00" fill="#000000">_hard.h</text>
</a>
</g>
</g>
<!-- Node9&#45;&gt;Node10 -->
<g id="edge15" class="edge">
<title>Node9&#45;&gt;Node10</title>
<path fill="none" stroke="#191970" d="M983.9466,-128.9717C945.4353,-118.6507 883.1369,-101.9547 835.5858,-89.211"/>
<polygon fill="#191970" stroke="#191970" points="836.2419,-85.7634 825.6767,-86.5553 834.4298,-92.5248 836.2419,-85.7634"/>
</g>
<!-- Node11 -->
<g id="node12" class="node">
<title>Node11</title>
<g id="a_node12"><a xlink:href="constraints__soft_8h.html" target="_top" xlink:title="Functions and data structures for secondary structure soft constraints. ">
<polygon fill="none" stroke="#000000" points="846.5,-56.5 846.5,-86.5 964.5,-86.5 964.5,-56.5 846.5,-56.5"/>
<text text-anchor="start" x="854.5" y="-74.5" font-family="Helvetica,sans-Serif" font-size="10.00" fill="#000000">ViennaRNA/constraints</text>
<text text-anchor="middle" x="905.5" y="-63.5" font-family="Helvetica,sans-Serif" font-size="10.00" fill="#000000">_soft.h</text>
</a>
</g>
</g>
<!-- Node9&#45;&gt;Node11 -->
<g id="edge17" class="edge">
<title>Node9&#45;&gt;Node11</title>
<path fill="none" stroke="#191970" d="M1003.1666,-128.9005C986.6822,-119.2123 960.7293,-103.9593 939.7192,-91.6113"/>
<polygon fill="#191970" stroke="#191970" points="941.4541,-88.5713 931.0594,-86.5218 937.9073,-94.6062 941.4541,-88.5713"/>
</g>
<!-- Node12 -->
<g id="node13" class="node">
<title>Node12</title>
<g id="a_node13"><a xlink:href="constraints__SHAPE_8h.html" target="_top" xlink:title="This module provides function to incorporate SHAPE reactivity data into the folding recursions by mea...">
<polygon fill="none" stroke="#000000" points="982.5,-56.5 982.5,-86.5 1100.5,-86.5 1100.5,-56.5 982.5,-56.5"/>
<text text-anchor="start" x="990.5" y="-74.5" font-family="Helvetica,sans-Serif" font-size="10.00" fill="#000000">ViennaRNA/constraints</text>
<text text-anchor="middle" x="1041.5" y="-63.5" font-family="Helvetica,sans-Serif" font-size="10.00" fill="#000000">_SHAPE.h</text>
</a>
</g>
</g>
<!-- Node9&#45;&gt;Node12 -->
<g id="edge19" class="edge">
<title>Node9&#45;&gt;Node12</title>
<path fill="none" stroke="#191970" d="M1022.6521,-128.9005C1025.4356,-120.4234 1029.6181,-107.6856 1033.3366,-96.3614"/>
<polygon fill="#191970" stroke="#191970" points="1036.773,-97.1146 1036.5675,-86.5218 1030.1224,-94.9308 1036.773,-97.1146"/>
</g>
<!-- Node13 -->
<g id="node14" class="node">
<title>Node13</title>
<g id="a_node14"><a xlink:href="perturbation__fold_8h.html" target="_top" xlink:title="Find a vector of perturbation energies that minimizes the discripancies between predicted and observe...">
<polygon fill="none" stroke="#000000" points="1119,-56.5 1119,-86.5 1240,-86.5 1240,-56.5 1119,-56.5"/>
<text text-anchor="start" x="1127" y="-74.5" font-family="Helvetica,sans-Serif" font-size="10.00" fill="#000000">ViennaRNA/perturbation</text>
<text text-anchor="middle" x="1179.5" y="-63.5" font-family="Helvetica,sans-Serif" font-size="10.00" fill="#000000">_fold.h</text>
</a>
</g>
</g>
<!-- Node9&#45;&gt;Node13 -->
<g id="edge21" class="edge">
<title>Node9&#45;&gt;Node13</title>
<path fill="none" stroke="#191970" d="M1042.4241,-128.9005C1066.2831,-118.9096 1104.2747,-103.0006 1134.2167,-90.4624"/>
<polygon fill="#191970" stroke="#191970" points="1135.7551,-93.6127 1143.6271,-86.5218 1133.0513,-87.156 1135.7551,-93.6127"/>
</g>
<!-- Node14 -->
<g id="node15" class="node">
<title>Node14</title>
<g id="a_node15"><a xlink:href="constraints__ligand_8h.html" target="_top" xlink:title="Functions for incorporation of ligands binding to hairpin and interior loop motifs using the soft con...">
<polygon fill="none" stroke="#000000" points="1258.5,-56.5 1258.5,-86.5 1376.5,-86.5 1376.5,-56.5 1258.5,-56.5"/>
<text text-anchor="start" x="1266.5" y="-74.5" font-family="Helvetica,sans-Serif" font-size="10.00" fill="#000000">ViennaRNA/constraints</text>
<text text-anchor="middle" x="1317.5" y="-63.5" font-family="Helvetica,sans-Serif" font-size="10.00" fill="#000000">_ligand.h</text>
</a>
</g>
</g>
<!-- Node9&#45;&gt;Node14 -->
<g id="edge23" class="edge">
<title>Node9&#45;&gt;Node14</title>
<path fill="none" stroke="#191970" d="M1062.3249,-128.9624C1106.4479,-119.1242 1177.4984,-103.2502 1248.1946,-87.2909"/>
<polygon fill="#191970" stroke="#191970" points="1249.1817,-90.6562 1258.1649,-85.039 1247.6395,-83.8281 1249.1817,-90.6562"/>
</g>
<!-- Node10&#45;&gt;Node2 -->
<g id="edge16" class="edge">
<title>Node10&#45;&gt;Node2</title>
<path fill="none" stroke="#191970" d="M784.774,-86.6746C793.257,-96.2125 802.9857,-109.2786 807.5,-123 811.8058,-136.0877 812.0465,-140.994 807.5,-154 803.6207,-165.0973 757.148,-220.5523 732.5528,-249.4381"/>
<polygon fill="#191970" stroke="#191970" points="729.8022,-247.2695 725.9708,-257.1474 735.1258,-251.8148 729.8022,-247.2695"/>
</g>
<!-- Node11&#45;&gt;Node2 -->
<g id="edge18" class="edge">
<title>Node11&#45;&gt;Node2</title>
<path fill="none" stroke="#191970" d="M911.5791,-86.5999C922.3121,-115.9884 940.6933,-181.4505 909.5,-221 895.6323,-238.5827 845.903,-250.2003 800.5324,-257.3616"/>
<polygon fill="#191970" stroke="#191970" points="799.9919,-253.9035 790.6315,-258.8666 801.0439,-260.824 799.9919,-253.9035"/>
</g>
<!-- Node12&#45;&gt;Node2 -->
<g id="edge20" class="edge">
<title>Node12&#45;&gt;Node2</title>
<path fill="none" stroke="#191970" d="M1061.7372,-86.7971C1080.8374,-103.2013 1104.7238,-130.1173 1091.5,-154 1064.3206,-203.0869 1036.9125,-200.9706 984.5,-221 925.3696,-243.5967 854.6223,-255.1477 800.8125,-261.0218"/>
<polygon fill="#191970" stroke="#191970" points="800.2084,-257.5658 790.6273,-262.0882 800.9374,-264.5277 800.2084,-257.5658"/>
</g>
<!-- Node13&#45;&gt;Node2 -->
<g id="edge22" class="edge">
<title>Node13&#45;&gt;Node2</title>
<path fill="none" stroke="#191970" d="M1170.3502,-86.724C1150.5009,-118.1848 1100.1081,-190.0099 1036.5,-221 996.16,-240.6538 881.1502,-253.7369 800.8701,-260.768"/>
<polygon fill="#191970" stroke="#191970" points="800.4318,-257.2927 790.7686,-261.637 801.0318,-264.2669 800.4318,-257.2927"/>
</g>
<!-- Node14&#45;&gt;Node2 -->
<g id="edge24" class="edge">
<title>Node14&#45;&gt;Node2</title>
<path fill="none" stroke="#191970" d="M1298.8268,-86.7017C1259.5093,-117.7959 1164.159,-188.468 1071.5,-221 1023.0771,-238.001 889.1468,-252.2572 800.6123,-260.2046"/>
<polygon fill="#191970" stroke="#191970" points="800.237,-256.7241 790.5859,-261.0952 800.8563,-263.6966 800.237,-256.7241"/>
</g>
<!-- Node15&#45;&gt;Node2 -->
<g id="edge26" class="edge">
<title>Node15&#45;&gt;Node2</title>
<path fill="none" stroke="#191970" d="M435.1433,-148.1775C441.9216,-165.6825 450.9044,-202.5022 474.5,-221 488.0036,-231.5862 576.8077,-246.126 643.2444,-256.0054"/>
<polygon fill="#191970" stroke="#191970" points="642.8817,-259.4898 653.2859,-257.4889 643.9048,-252.5649 642.8817,-259.4898"/>
</g>
<!-- Node17&#45;&gt;Node2 -->
<g id="edge29" class="edge">
<title>Node17&#45;&gt;Node2</title>
<path fill="none" stroke="#191970" d="M738.8016,-153.7016C738.1187,-177.0997 731.6407,-221.9192 725.3625,-247.6171"/>
<polygon fill="#191970" stroke="#191970" points="721.965,-246.7724 722.7015,-257.3416 728.7168,-248.62 721.965,-246.7724"/>
</g>
<!-- Node18&#45;&gt;Node2 -->
<g id="edge39" class="edge">
<title>Node18&#45;&gt;Node2</title>
<path fill="none" stroke="#191970" d="M820.8401,-220.5446C801.0364,-230.5542 773.6171,-243.5988 751.9279,-253.316"/>
<polygon fill="#191970" stroke="#191970" points="750.4474,-250.1436 742.7188,-257.3906 753.2798,-256.545 750.4474,-250.1436"/>
</g>
<!-- Node19 -->
<g id="node20" class="node">
<title>Node19</title>
<polygon fill="none" stroke="#bfbfbf" points="854.5,-129 854.5,-148 900.5,-148 900.5,-129 854.5,-129"/>
<text text-anchor="middle" x="877.5" y="-136" font-family="Helvetica,sans-Serif" font-size="10.00" fill="#000000">stdio.h</text>
</g>
<!-- Node18&#45;&gt;Node19 -->
<g id="edge38" class="edge">
<title>Node18&#45;&gt;Node19</title>
<path fill="none" stroke="#191970" d="M853.5344,-190.2967C858.083,-180.4658 864.0346,-167.6026 868.8688,-157.1545"/>
<polygon fill="#191970" stroke="#191970" points="872.0563,-158.6003 873.079,-148.055 865.7033,-155.6609 872.0563,-158.6003"/>
</g>
</g>
</svg>
        <g id="navigator" transform="translate(0 0)" fill="#404254">
                <rect fill="#f2f5e9" fill-opacity="0.5" stroke="#606060" stroke-width=".5" x="0" y="0" width="60" height="60"/>
                <use id="zoomplus" xlink:href="#zoomPlus" x="17" y="9" onmousedown="handleZoom(evt,'in')"/>
                <use id="zoomminus" xlink:href="#zoomMin" x="42" y="9" onmousedown="handleZoom(evt,'out')"/>
                <use id="reset" xlink:href="#resetDef" x="30" y="36" onmousedown="handleReset()"/>
                <g id="arrowUp" xlink:href="#dirArrow" transform="translate(30 24)" onmousedown="handlePan(0,-1)">
                  <use xlink:href="#rim" fill="#404040">
                        <set attributeName="fill" to="#808080" begin="arrowUp.mouseover" end="arrowUp.mouseout"/>
                  </use>
                  <path fill="none" stroke="white" stroke-width="1.5" d="M0,-3.0v7 M-2.5,-0.5L0,-3.0L2.5,-0.5"/>
                </g>
                <g id="arrowRight" xlink:href="#dirArrow" transform="rotate(90) translate(36 -43)" onmousedown="handlePan(1,0)">
                  <use xlink:href="#rim" fill="#404040">
                        <set attributeName="fill" to="#808080" begin="arrowRight.mouseover" end="arrowRight.mouseout"/>
                  </use>
                  <path fill="none" stroke="white" stroke-width="1.5" d="M0,-3.0v7 M-2.5,-0.5L0,-3.0L2.5,-0.5"/>
                </g>
                <g id="arrowDown" xlink:href="#dirArrow" transform="rotate(180) translate(-30 -48)" onmousedown="handlePan(0,1)">
                  <use xlink:href="#rim" fill="#404040">
                        <set attributeName="fill" to="#808080" begin="arrowDown.mouseover" end="arrowDown.mouseout"/>
                  </use>
                  <path fill="none" stroke="white" stroke-width="1.5" d="M0,-3.0v7 M-2.5,-0.5L0,-3.0L2.5,-0.5"/>
                </g>
                <g id="arrowLeft" xlink:href="#dirArrow" transform="rotate(270) translate(-36 17)" onmousedown="handlePan(-1,0)">
                  <use xlink:href="#rim" fill="#404040">
                        <set attributeName="fill" to="#808080" begin="arrowLeft.mouseover" end="arrowLeft.mouseout"/>
                  </use>
                  <path fill="none" stroke="white" stroke-width="1.5" d="M0,-3.0v7 M-2.5,-0.5L0,-3.0L2.5,-0.5"/>
                </g>
        </g>
        <svg viewBox="0 0 15 15" width="100%" height="30px" preserveAspectRatio="xMaxYMin meet">
         <g id="arrow_out" transform="scale(0.3 0.3)">
          <a xlink:href="string__utils_8h__incl_org.svg" target="_base">
           <rect id="button" ry="5" rx="5" y="6" x="6" height="38" width="38"
                fill="#f2f5e9" fill-opacity="0.5" stroke="#606060" stroke-width="1.0"/>
           <path id="arrow"
             d="M 11.500037,31.436501 C 11.940474,20.09759 22.043105,11.32322 32.158766,21.979434 L 37.068811,17.246167 C 37.068811,17.246167 37.088388,32 37.088388,32 L 22.160133,31.978069 C 22.160133,31.978069 26.997745,27.140456 26.997745,27.140456 C 18.528582,18.264221 13.291696,25.230495 11.500037,31.436501 z"
             style="fill:#404040;"/>
          </a>
         </g>
        </svg>
</svg>
