<?xml version="1.0" encoding="UTF-8" standalone="no"?>
<!DOCTYPE svg PUBLIC "-//W3C//DTD SVG 1.1//EN"
 "http://www.w3.org/Graphics/SVG/1.1/DTD/svg11.dtd">
<!-- Generated by graphviz version 2.40.1 (20161225.0304)
 -->
<!-- Title: ViennaRNA/structure_utils.h Pages: 1 -->
<svg width="1349pt" height="341pt"
 viewBox="0.00 0.00 1348.50 341.00" xmlns="http://www.w3.org/2000/svg" xmlns:xlink="http://www.w3.org/1999/xlink">
<g id="graph0" class="graph" transform="scale(1 1) rotate(0) translate(4 337)">
<title>ViennaRNA/structure_utils.h</title>
<!-- Node0 -->
<g id="node1" class="node">
<title>Node0</title>
<polygon fill="#bfbfbf" stroke="#000000" points="611.5,-302.5 611.5,-332.5 719.5,-332.5 719.5,-302.5 611.5,-302.5"/>
<text text-anchor="start" x="619.5" y="-320.5" font-family="Helvetica,sans-Serif" font-size="10.00" fill="#000000">ViennaRNA/structure</text>
<text text-anchor="middle" x="665.5" y="-309.5" font-family="Helvetica,sans-Serif" font-size="10.00" fill="#000000">_utils.h</text>
</g>
<!-- Node1 -->
<g id="node2" class="node">
<title>Node1</title>
<polygon fill="none" stroke="#bfbfbf" points="528.5,-246.5 528.5,-265.5 574.5,-265.5 574.5,-246.5 528.5,-246.5"/>
<text text-anchor="middle" x="551.5" y="-253.5" font-family="Helvetica,sans-Serif" font-size="10.00" fill="#000000">stdio.h</text>
</g>
<!-- Node0&#45;&gt;Node1 -->
<g id="edge1" class="edge">
<title>Node0&#45;&gt;Node1</title>
<path fill="none" stroke="#191970" d="M637.6125,-302.4554C619.5924,-292.734 596.2659,-280.15 578.4368,-270.5317"/>
<polygon fill="#191970" stroke="#191970" points="579.6287,-267.1979 569.166,-265.5303 576.3052,-273.3586 579.6287,-267.1979"/>
</g>
<!-- Node2 -->
<g id="node3" class="node">
<title>Node2</title>
<g id="a_node3"><a xlink:href="data__structures_8h.html" target="_top" xlink:title="Various data structures and pre&#45;processor macros. ">
<polygon fill="none" stroke="#000000" points="592.5,-246.5 592.5,-265.5 738.5,-265.5 738.5,-246.5 592.5,-246.5"/>
<text text-anchor="middle" x="665.5" y="-253.5" font-family="Helvetica,sans-Serif" font-size="10.00" fill="#000000">ViennaRNA/data_structures.h</text>
</a>
</g>
</g>
<!-- Node0&#45;&gt;Node2 -->
<g id="edge2" class="edge">
<title>Node0&#45;&gt;Node2</title>
<path fill="none" stroke="#191970" d="M659.5843,-302.2977C658.6446,-294.2945 658.4987,-284.3843 659.1466,-275.7889"/>
<polygon fill="#191970" stroke="#191970" points="662.6218,-276.2044 660.3917,-265.8469 655.676,-275.3345 662.6218,-276.2044"/>
</g>
<!-- Node2&#45;&gt;Node0 -->
<g id="edge37" class="edge">
<title>Node2&#45;&gt;Node0</title>
<path fill="none" stroke="#191970" d="M670.6083,-265.8469C671.9704,-272.9883 672.4849,-282.9858 672.1519,-292.2849"/>
<polygon fill="#191970" stroke="#191970" points="668.6584,-292.068 671.4157,-302.2977 675.6396,-292.5813 668.6584,-292.068"/>
</g>
<!-- Node3 -->
<g id="node4" class="node">
<title>Node3</title>
<g id="a_node4"><a xlink:href="energy__const_8h.html" target="_top" xlink:title="Energy parameter constants. ">
<polygon fill="none" stroke="#000000" points="0,-62 0,-81 137,-81 137,-62 0,-62"/>
<text text-anchor="middle" x="68.5" y="-69" font-family="Helvetica,sans-Serif" font-size="10.00" fill="#000000">ViennaRNA/energy_const.h</text>
</a>
</g>
</g>
<!-- Node2&#45;&gt;Node3 -->
<g id="edge3" class="edge">
<title>Node2&#45;&gt;Node3</title>
<path fill="none" stroke="#191970" d="M592.1961,-246.9385C589.2599,-246.6142 586.3526,-246.3 583.5,-246 402.901,-227.006 350.3504,-262.4674 176.5,-210 126.616,-194.9452 101.472,-197.9617 73.5,-154 61.5639,-135.2409 62.2455,-108.9654 64.6431,-91.1455"/>
<polygon fill="#191970" stroke="#191970" points="68.1337,-91.4887 66.3056,-81.0528 61.2267,-90.351 68.1337,-91.4887"/>
</g>
<!-- Node5 -->
<g id="node6" class="node">
<title>Node5</title>
<g id="a_node6"><a xlink:href="fold__compound_8h.html" target="_top" xlink:title="The Basic Fold Compound API. ">
<polygon fill="none" stroke="#000000" points="493.5,-190.5 493.5,-209.5 637.5,-209.5 637.5,-190.5 493.5,-190.5"/>
<text text-anchor="middle" x="565.5" y="-197.5" font-family="Helvetica,sans-Serif" font-size="10.00" fill="#000000">ViennaRNA/fold_compound.h</text>
</a>
</g>
</g>
<!-- Node2&#45;&gt;Node5 -->
<g id="edge5" class="edge">
<title>Node2&#45;&gt;Node5</title>
<path fill="none" stroke="#191970" d="M648.0813,-246.2455C632.4515,-237.4928 609.2981,-224.527 591.4815,-214.5496"/>
<polygon fill="#191970" stroke="#191970" points="593.1543,-211.475 582.7191,-209.6427 589.734,-217.5825 593.1543,-211.475"/>
</g>
<!-- Node6 -->
<g id="node7" class="node">
<title>Node6</title>
<g id="a_node7"><a xlink:href="model_8h.html" target="_top" xlink:title="The model details data structure and its corresponding modifiers. ">
<polygon fill="none" stroke="#000000" points="168.5,-62 168.5,-81 272.5,-81 272.5,-62 168.5,-62"/>
<text text-anchor="middle" x="220.5" y="-69" font-family="Helvetica,sans-Serif" font-size="10.00" fill="#000000">ViennaRNA/model.h</text>
</a>
</g>
</g>
<!-- Node2&#45;&gt;Node6 -->
<g id="edge30" class="edge">
<title>Node2&#45;&gt;Node6</title>
<path fill="none" stroke="#191970" d="M601.316,-246.4763C550.5315,-238.3929 478.0076,-225.6289 415.5,-210 335.8651,-190.0887 295.1251,-214.3657 239.5,-154 223.8288,-136.9932 220.2439,-109.7265 219.8082,-91.2365"/>
<polygon fill="#191970" stroke="#191970" points="223.3092,-91.0472 219.864,-81.0282 216.3093,-91.0089 223.3092,-91.0472"/>
</g>
<!-- Node7 -->
<g id="node8" class="node">
<title>Node7</title>
<g id="a_node8"><a xlink:href="params_8h.html" target="_top" xlink:title="Functions to deal with sets of energy parameters. ">
<polygon fill="none" stroke="#000000" points="82.5,-129 82.5,-148 192.5,-148 192.5,-129 82.5,-129"/>
<text text-anchor="middle" x="137.5" y="-136" font-family="Helvetica,sans-Serif" font-size="10.00" fill="#000000">ViennaRNA/params.h</text>
</a>
</g>
</g>
<!-- Node2&#45;&gt;Node7 -->
<g id="edge31" class="edge">
<title>Node2&#45;&gt;Node7</title>
<path fill="none" stroke="#191970" d="M592.0948,-247.9801C586.1258,-247.2903 580.203,-246.6199 574.5,-246 490.834,-236.9053 273.31,-246.5453 197.5,-210 173.2088,-198.2901 152.8556,-174.2211 142.7376,-157.2528"/>
<polygon fill="#191970" stroke="#191970" points="145.7516,-155.4637 138.0106,-148.2298 139.5509,-158.7121 145.7516,-155.4637"/>
</g>
<!-- Node8 -->
<g id="node9" class="node">
<title>Node8</title>
<g id="a_node9"><a xlink:href="dp__matrices_8h.html" target="_top" xlink:title="Functions to deal with standard dynamic programming (DP) matrices. ">
<polygon fill="none" stroke="#000000" points="249,-129 249,-148 380,-148 380,-129 249,-129"/>
<text text-anchor="middle" x="314.5" y="-136" font-family="Helvetica,sans-Serif" font-size="10.00" fill="#000000">ViennaRNA/dp_matrices.h</text>
</a>
</g>
</g>
<!-- Node2&#45;&gt;Node8 -->
<g id="edge32" class="edge">
<title>Node2&#45;&gt;Node8</title>
<path fill="none" stroke="#191970" d="M602.6565,-246.4803C560.7091,-238.7432 504.912,-226.4215 457.5,-210 412.1436,-194.2905 362.2771,-169.2252 334.8413,-153.3285"/>
<polygon fill="#191970" stroke="#191970" points="336.4967,-150.2405 326.1166,-148.1184 332.9078,-156.2505 336.4967,-150.2405"/>
</g>
<!-- Node9 -->
<g id="node10" class="node">
<title>Node9</title>
<g id="a_node10"><a xlink:href="constraints_8h.html" target="_top" xlink:title="Functions and data structures for constraining secondary structure predictions and evaluation...">
<polygon fill="none" stroke="#000000" points="920.5,-129 920.5,-148 1046.5,-148 1046.5,-129 920.5,-129"/>
<text text-anchor="middle" x="983.5" y="-136" font-family="Helvetica,sans-Serif" font-size="10.00" fill="#000000">ViennaRNA/constraints.h</text>
</a>
</g>
</g>
<!-- Node2&#45;&gt;Node9 -->
<g id="edge33" class="edge">
<title>Node2&#45;&gt;Node9</title>
<path fill="none" stroke="#191970" d="M732.2363,-246.4612C790.1139,-237.9162 868.8055,-224.5214 897.5,-210 923.5177,-196.8333 947.0645,-172.2337 963.2734,-155.6116"/>
<polygon fill="#191970" stroke="#191970" points="966.0803,-157.7506 970.6198,-148.1776 961.1012,-152.8303 966.0803,-157.7506"/>
</g>
<!-- Node15 -->
<g id="node16" class="node">
<title>Node15</title>
<g id="a_node16"><a xlink:href="grammar_8h.html" target="_top" xlink:title="Implementations for the RNA folding grammar. ">
<polygon fill="none" stroke="#000000" points="398.5,-129 398.5,-148 514.5,-148 514.5,-129 398.5,-129"/>
<text text-anchor="middle" x="456.5" y="-136" font-family="Helvetica,sans-Serif" font-size="10.00" fill="#000000">ViennaRNA/grammar.h</text>
</a>
</g>
</g>
<!-- Node2&#45;&gt;Node15 -->
<g id="edge34" class="edge">
<title>Node2&#45;&gt;Node15</title>
<path fill="none" stroke="#191970" d="M596.4617,-246.4956C549.6201,-238.4227 493.2439,-225.6637 475.5,-210 460.5588,-196.8105 453.5194,-174.6417 452.0407,-158.4793"/>
<polygon fill="#191970" stroke="#191970" points="455.5396,-158.3752 451.8766,-148.4337 448.5405,-158.4895 455.5396,-158.3752"/>
</g>
<!-- Node16 -->
<g id="node17" class="node">
<title>Node16</title>
<g id="a_node17"><a xlink:href="structured__domains_8h.html" target="_top" xlink:title="This module provides interfaces that deal with additional structured domains in the folding grammar...">
<polygon fill="none" stroke="#000000" points="571,-123.5 571,-153.5 684,-153.5 684,-123.5 571,-123.5"/>
<text text-anchor="start" x="579" y="-141.5" font-family="Helvetica,sans-Serif" font-size="10.00" fill="#000000">ViennaRNA/structured</text>
<text text-anchor="middle" x="627.5" y="-130.5" font-family="Helvetica,sans-Serif" font-size="10.00" fill="#000000">_domains.h</text>
</a>
</g>
</g>
<!-- Node2&#45;&gt;Node16 -->
<g id="edge35" class="edge">
<title>Node2&#45;&gt;Node16</title>
<path fill="none" stroke="#191970" d="M662.8905,-246.0913C659.419,-233.1198 652.9647,-209.7143 646.5,-190 643.6289,-181.2444 640.2162,-171.7562 637.0807,-163.3378"/>
<polygon fill="#191970" stroke="#191970" points="640.256,-161.8392 633.4484,-153.7209 633.7075,-164.3125 640.256,-161.8392"/>
</g>
<!-- Node17 -->
<g id="node18" class="node">
<title>Node17</title>
<g id="a_node18"><a xlink:href="unstructured__domains_8h.html" target="_top" xlink:title="Functions to modify unstructured domains, e.g. to incorporate ligands binding to unpaired stretches...">
<polygon fill="none" stroke="#000000" points="702.5,-123.5 702.5,-153.5 826.5,-153.5 826.5,-123.5 702.5,-123.5"/>
<text text-anchor="start" x="710.5" y="-141.5" font-family="Helvetica,sans-Serif" font-size="10.00" fill="#000000">ViennaRNA/unstructured</text>
<text text-anchor="middle" x="764.5" y="-130.5" font-family="Helvetica,sans-Serif" font-size="10.00" fill="#000000">_domains.h</text>
</a>
</g>
</g>
<!-- Node2&#45;&gt;Node17 -->
<g id="edge36" class="edge">
<title>Node2&#45;&gt;Node17</title>
<path fill="none" stroke="#191970" d="M669.6898,-246.3845C682.091,-227.9068 716.0503,-186.9887 739.9189,-161.1928"/>
<polygon fill="#191970" stroke="#191970" points="742.6557,-163.3921 746.9675,-153.7143 737.5617,-158.5909 742.6557,-163.3921"/>
</g>
<!-- Node4 -->
<g id="node5" class="node">
<title>Node4</title>
<polygon fill="none" stroke="#bfbfbf" points="44.5,-.5 44.5,-19.5 92.5,-19.5 92.5,-.5 44.5,-.5"/>
<text text-anchor="middle" x="68.5" y="-7.5" font-family="Helvetica,sans-Serif" font-size="10.00" fill="#000000">limits.h</text>
</g>
<!-- Node3&#45;&gt;Node4 -->
<g id="edge4" class="edge">
<title>Node3&#45;&gt;Node4</title>
<path fill="none" stroke="#191970" d="M68.5,-61.8906C68.5,-53.3657 68.5,-40.6392 68.5,-29.9235"/>
<polygon fill="#191970" stroke="#191970" points="72.0001,-29.7448 68.5,-19.7449 65.0001,-29.7449 72.0001,-29.7448"/>
</g>
<!-- Node5&#45;&gt;Node6 -->
<g id="edge6" class="edge">
<title>Node5&#45;&gt;Node6</title>
<path fill="none" stroke="#191970" d="M563.1888,-190.3738C558.6539,-173.7213 546.9248,-139.7198 523.5,-123 485.7805,-96.0772 359.7498,-81.9796 282.6154,-75.6979"/>
<polygon fill="#191970" stroke="#191970" points="282.7794,-72.2001 272.534,-74.8987 282.2261,-79.1782 282.7794,-72.2001"/>
</g>
<!-- Node5&#45;&gt;Node7 -->
<g id="edge7" class="edge">
<title>Node5&#45;&gt;Node7</title>
<path fill="none" stroke="#191970" d="M496.4671,-190.476C430.4601,-181.3181 328.1484,-166.9895 239.5,-154 227.5928,-152.2553 214.9099,-150.3587 202.6786,-148.5102"/>
<polygon fill="#191970" stroke="#191970" points="202.9491,-145.0113 192.5375,-146.9731 201.9,-151.9322 202.9491,-145.0113"/>
</g>
<!-- Node5&#45;&gt;Node8 -->
<g id="edge11" class="edge">
<title>Node5&#45;&gt;Node8</title>
<path fill="none" stroke="#191970" d="M526.5566,-190.4581C482.5913,-179.6857 410.9935,-162.1428 363.3249,-150.4631"/>
<polygon fill="#191970" stroke="#191970" points="364.0804,-147.0447 353.5347,-148.0643 362.4145,-153.8436 364.0804,-147.0447"/>
</g>
<!-- Node5&#45;&gt;Node9 -->
<g id="edge13" class="edge">
<title>Node5&#45;&gt;Node9</title>
<path fill="none" stroke="#191970" d="M630.3539,-190.4581C706.1121,-179.3118 831.1372,-160.917 910.3076,-149.2687"/>
<polygon fill="#191970" stroke="#191970" points="910.8228,-152.7307 920.2068,-147.8123 909.8038,-145.8053 910.8228,-152.7307"/>
</g>
<!-- Node5&#45;&gt;Node15 -->
<g id="edge25" class="edge">
<title>Node5&#45;&gt;Node15</title>
<path fill="none" stroke="#191970" d="M548.4688,-190.3906C530.711,-180.3713 502.667,-164.5483 482.2118,-153.0071"/>
<polygon fill="#191970" stroke="#191970" points="483.8409,-149.9077 473.4117,-148.0419 480.4011,-156.0042 483.8409,-149.9077"/>
</g>
<!-- Node5&#45;&gt;Node16 -->
<g id="edge27" class="edge">
<title>Node5&#45;&gt;Node16</title>
<path fill="none" stroke="#191970" d="M575.1875,-190.3906C583.19,-182.4527 594.865,-170.8718 605.1563,-160.6635"/>
<polygon fill="#191970" stroke="#191970" points="607.6983,-163.0719 612.3331,-153.5446 602.7686,-158.1021 607.6983,-163.0719"/>
</g>
<!-- Node5&#45;&gt;Node17 -->
<g id="edge28" class="edge">
<title>Node5&#45;&gt;Node17</title>
<path fill="none" stroke="#191970" d="M596.5938,-190.3906C625.7703,-181.3737 670.1567,-167.6563 705.9662,-156.5896"/>
<polygon fill="#191970" stroke="#191970" points="707.2984,-159.8413 715.8191,-153.5446 705.2315,-153.1534 707.2984,-159.8413"/>
</g>
<!-- Node7&#45;&gt;Node2 -->
<g id="edge9" class="edge">
<title>Node7&#45;&gt;Node2</title>
<path fill="none" stroke="#191970" d="M148.9948,-148.2298C163.0182,-164.2974 186.4413,-195.9919 215.5,-210 288.5708,-245.2248 493.2995,-237.5417 586.7831,-245.5088"/>
<polygon fill="#191970" stroke="#191970" points="586.5255,-249.0001 596.8147,-246.4739 587.1958,-242.0323 586.5255,-249.0001"/>
</g>
<!-- Node7&#45;&gt;Node3 -->
<g id="edge8" class="edge">
<title>Node7&#45;&gt;Node3</title>
<path fill="none" stroke="#191970" d="M127.614,-128.9005C116.7516,-118.353 99.0965,-101.2096 85.9043,-88.3998"/>
<polygon fill="#191970" stroke="#191970" points="87.9802,-85.537 78.3677,-81.0817 83.1038,-90.559 87.9802,-85.537"/>
</g>
<!-- Node7&#45;&gt;Node6 -->
<g id="edge10" class="edge">
<title>Node7&#45;&gt;Node6</title>
<path fill="none" stroke="#191970" d="M149.3919,-128.9005C162.7048,-118.1539 184.4999,-100.5603 200.4568,-87.6794"/>
<polygon fill="#191970" stroke="#191970" points="203.0474,-90.0863 208.6302,-81.0817 198.6506,-84.6395 203.0474,-90.0863"/>
</g>
<!-- Node8&#45;&gt;Node2 -->
<g id="edge12" class="edge">
<title>Node8&#45;&gt;Node2</title>
<path fill="none" stroke="#191970" d="M337.433,-148.1184C368.4555,-163.1845 424.7959,-192.4383 475.5,-210 519.0228,-225.0744 569.6113,-236.6941 607.7149,-244.484"/>
<polygon fill="#191970" stroke="#191970" points="607.1224,-247.9349 617.6169,-246.4803 608.5059,-241.073 607.1224,-247.9349"/>
</g>
<!-- Node9&#45;&gt;Node2 -->
<g id="edge14" class="edge">
<title>Node9&#45;&gt;Node2</title>
<path fill="none" stroke="#191970" d="M981.7159,-148.1776C972.7045,-163.8768 945.7752,-194.6787 915.5,-210 887.1486,-224.3477 809.9887,-237.5957 748.7585,-246.1526"/>
<polygon fill="#191970" stroke="#191970" points="748.1213,-242.7072 738.6917,-247.5375 749.0754,-249.6419 748.1213,-242.7072"/>
</g>
<!-- Node10 -->
<g id="node11" class="node">
<title>Node10</title>
<g id="a_node11"><a xlink:href="constraints__hard_8h.html" target="_top" xlink:title="Functions and data structures for handling of secondary structure hard constraints. ">
<polygon fill="none" stroke="#000000" points="674.5,-56.5 674.5,-86.5 792.5,-86.5 792.5,-56.5 674.5,-56.5"/>
<text text-anchor="start" x="682.5" y="-74.5" font-family="Helvetica,sans-Serif" font-size="10.00" fill="#000000">ViennaRNA/constraints</text>
<text text-anchor="middle" x="733.5" y="-63.5" font-family="Helvetica,sans-Serif" font-size="10.00" fill="#000000">_hard.h</text>
</a>
</g>
</g>
<!-- Node9&#45;&gt;Node10 -->
<g id="edge15" class="edge">
<title>Node9&#45;&gt;Node10</title>
<path fill="none" stroke="#191970" d="M947.9466,-128.9717C909.4353,-118.6507 847.1369,-101.9547 799.5858,-89.211"/>
<polygon fill="#191970" stroke="#191970" points="800.2419,-85.7634 789.6767,-86.5553 798.4298,-92.5248 800.2419,-85.7634"/>
</g>
<!-- Node11 -->
<g id="node12" class="node">
<title>Node11</title>
<g id="a_node12"><a xlink:href="constraints__soft_8h.html" target="_top" xlink:title="Functions and data structures for secondary structure soft constraints. ">
<polygon fill="none" stroke="#000000" points="810.5,-56.5 810.5,-86.5 928.5,-86.5 928.5,-56.5 810.5,-56.5"/>
<text text-anchor="start" x="818.5" y="-74.5" font-family="Helvetica,sans-Serif" font-size="10.00" fill="#000000">ViennaRNA/constraints</text>
<text text-anchor="middle" x="869.5" y="-63.5" font-family="Helvetica,sans-Serif" font-size="10.00" fill="#000000">_soft.h</text>
</a>
</g>
</g>
<!-- Node9&#45;&gt;Node11 -->
<g id="edge17" class="edge">
<title>Node9&#45;&gt;Node11</title>
<path fill="none" stroke="#191970" d="M967.1666,-128.9005C950.6822,-119.2123 924.7293,-103.9593 903.7192,-91.6113"/>
<polygon fill="#191970" stroke="#191970" points="905.4541,-88.5713 895.0594,-86.5218 901.9073,-94.6062 905.4541,-88.5713"/>
</g>
<!-- Node12 -->
<g id="node13" class="node">
<title>Node12</title>
<g id="a_node13"><a xlink:href="constraints__SHAPE_8h.html" target="_top" xlink:title="This module provides function to incorporate SHAPE reactivity data into the folding recursions by mea...">
<polygon fill="none" stroke="#000000" points="946.5,-56.5 946.5,-86.5 1064.5,-86.5 1064.5,-56.5 946.5,-56.5"/>
<text text-anchor="start" x="954.5" y="-74.5" font-family="Helvetica,sans-Serif" font-size="10.00" fill="#000000">ViennaRNA/constraints</text>
<text text-anchor="middle" x="1005.5" y="-63.5" font-family="Helvetica,sans-Serif" font-size="10.00" fill="#000000">_SHAPE.h</text>
</a>
</g>
</g>
<!-- Node9&#45;&gt;Node12 -->
<g id="edge19" class="edge">
<title>Node9&#45;&gt;Node12</title>
<path fill="none" stroke="#191970" d="M986.6521,-128.9005C989.4356,-120.4234 993.6181,-107.6856 997.3366,-96.3614"/>
<polygon fill="#191970" stroke="#191970" points="1000.773,-97.1146 1000.5675,-86.5218 994.1224,-94.9308 1000.773,-97.1146"/>
</g>
<!-- Node13 -->
<g id="node14" class="node">
<title>Node13</title>
<g id="a_node14"><a xlink:href="perturbation__fold_8h.html" target="_top" xlink:title="Find a vector of perturbation energies that minimizes the discripancies between predicted and observe...">
<polygon fill="none" stroke="#000000" points="1083,-56.5 1083,-86.5 1204,-86.5 1204,-56.5 1083,-56.5"/>
<text text-anchor="start" x="1091" y="-74.5" font-family="Helvetica,sans-Serif" font-size="10.00" fill="#000000">ViennaRNA/perturbation</text>
<text text-anchor="middle" x="1143.5" y="-63.5" font-family="Helvetica,sans-Serif" font-size="10.00" fill="#000000">_fold.h</text>
</a>
</g>
</g>
<!-- Node9&#45;&gt;Node13 -->
<g id="edge21" class="edge">
<title>Node9&#45;&gt;Node13</title>
<path fill="none" stroke="#191970" d="M1006.4241,-128.9005C1030.2831,-118.9096 1068.2747,-103.0006 1098.2167,-90.4624"/>
<polygon fill="#191970" stroke="#191970" points="1099.7551,-93.6127 1107.6271,-86.5218 1097.0513,-87.156 1099.7551,-93.6127"/>
</g>
<!-- Node14 -->
<g id="node15" class="node">
<title>Node14</title>
<g id="a_node15"><a xlink:href="constraints__ligand_8h.html" target="_top" xlink:title="Functions for incorporation of ligands binding to hairpin and interior loop motifs using the soft con...">
<polygon fill="none" stroke="#000000" points="1222.5,-56.5 1222.5,-86.5 1340.5,-86.5 1340.5,-56.5 1222.5,-56.5"/>
<text text-anchor="start" x="1230.5" y="-74.5" font-family="Helvetica,sans-Serif" font-size="10.00" fill="#000000">ViennaRNA/constraints</text>
<text text-anchor="middle" x="1281.5" y="-63.5" font-family="Helvetica,sans-Serif" font-size="10.00" fill="#000000">_ligand.h</text>
</a>
</g>
</g>
<!-- Node9&#45;&gt;Node14 -->
<g id="edge23" class="edge">
<title>Node9&#45;&gt;Node14</title>
<path fill="none" stroke="#191970" d="M1026.3249,-128.9624C1070.4479,-119.1242 1141.4984,-103.2502 1212.1946,-87.2909"/>
<polygon fill="#191970" stroke="#191970" points="1213.1817,-90.6562 1222.1649,-85.039 1211.6395,-83.8281 1213.1817,-90.6562"/>
</g>
<!-- Node10&#45;&gt;Node2 -->
<g id="edge16" class="edge">
<title>Node10&#45;&gt;Node2</title>
<path fill="none" stroke="#191970" d="M788.8496,-86.5099C806.9082,-94.3202 824.9999,-105.9359 835.5,-123 842.7205,-134.7342 842.2883,-142.0106 835.5,-154 808.8672,-201.0387 750.931,-228.7512 710.1229,-243.1467"/>
<polygon fill="#191970" stroke="#191970" points="708.7531,-239.9153 700.4052,-246.4393 710.9995,-246.5451 708.7531,-239.9153"/>
</g>
<!-- Node11&#45;&gt;Node2 -->
<g id="edge18" class="edge">
<title>Node11&#45;&gt;Node2</title>
<path fill="none" stroke="#191970" d="M868.325,-86.8004C866.5302,-103.913 862.1123,-132.1005 851.5,-154 837.4541,-182.9852 832.0781,-191.8056 805.5,-210 782.0069,-226.0826 752.4837,-236.8753 726.6124,-243.9382"/>
<polygon fill="#191970" stroke="#191970" points="725.6927,-240.5608 716.8959,-246.4657 727.455,-247.3354 725.6927,-240.5608"/>
</g>
<!-- Node12&#45;&gt;Node2 -->
<g id="edge20" class="edge">
<title>Node12&#45;&gt;Node2</title>
<path fill="none" stroke="#191970" d="M1025.8261,-86.7538C1045.3589,-103.3486 1069.9402,-130.6353 1055.5,-154 1023.3638,-205.9974 853.4965,-234.5255 748.8243,-247.4027"/>
<polygon fill="#191970" stroke="#191970" points="748.1007,-243.9645 738.592,-248.6373 748.9393,-250.9141 748.1007,-243.9645"/>
</g>
<!-- Node13&#45;&gt;Node2 -->
<g id="edge22" class="edge">
<title>Node13&#45;&gt;Node2</title>
<path fill="none" stroke="#191970" d="M1133.0041,-86.5432C1110.8434,-116.8257 1055.9028,-184.4253 990.5,-210 947.7475,-226.7177 830.0864,-240.6122 748.7344,-248.6157"/>
<polygon fill="#191970" stroke="#191970" points="748.1185,-245.159 738.5041,-249.6101 748.7958,-252.1261 748.1185,-245.159"/>
</g>
<!-- Node14&#45;&gt;Node2 -->
<g id="edge24" class="edge">
<title>Node14&#45;&gt;Node2</title>
<path fill="none" stroke="#191970" d="M1259.7683,-86.6271C1216.5961,-115.8481 1116.0204,-179.8288 1021.5,-210 972.338,-225.6926 837.7878,-240.3334 748.9078,-248.7154"/>
<polygon fill="#191970" stroke="#191970" points="748.4734,-245.2406 738.8426,-249.6563 749.125,-252.2102 748.4734,-245.2406"/>
</g>
<!-- Node15&#45;&gt;Node2 -->
<g id="edge26" class="edge">
<title>Node15&#45;&gt;Node2</title>
<path fill="none" stroke="#191970" d="M463.1931,-148.4337C468.6912,-163.9318 475.1108,-193.7667 493.5,-210 509.927,-224.5011 559.4645,-236.5128 601.2449,-244.6214"/>
<polygon fill="#191970" stroke="#191970" points="600.6456,-248.0701 611.1228,-246.4956 601.9505,-241.1927 600.6456,-248.0701"/>
</g>
<!-- Node17&#45;&gt;Node2 -->
<g id="edge29" class="edge">
<title>Node17&#45;&gt;Node2</title>
<path fill="none" stroke="#191970" d="M756.3948,-153.7143C740.5259,-175.6915 706.4705,-216.1884 684.6654,-239.0806"/>
<polygon fill="#191970" stroke="#191970" points="682.0091,-236.7907 677.5134,-246.3845 687.0106,-241.6882 682.0091,-236.7907"/>
</g>
</g>
</svg>
