<?xml version="1.0" encoding="UTF-8" standalone="no"?>
<!DOCTYPE svg PUBLIC "-//W3C//DTD SVG 1.1//EN"
 "http://www.w3.org/Graphics/SVG/1.1/DTD/svg11.dtd">
<!-- Generated by graphviz version 2.40.1 (20161225.0304)
 -->
<!-- Title: vrna_fc_s Pages: 1 -->
<svg width="525pt" height="340pt"
 viewBox="0.00 0.00 525.00 340.00" xmlns="http://www.w3.org/2000/svg" xmlns:xlink="http://www.w3.org/1999/xlink">
<g id="graph0" class="graph" transform="scale(1 1) rotate(0) translate(4 336)">
<title>vrna_fc_s</title>
<!-- Node1 -->
<g id="node1" class="node">
<title>Node1</title>
<polygon fill="#bfbfbf" stroke="#000000" points="458,-152.5 458,-171.5 517,-171.5 517,-152.5 458,-152.5"/>
<text text-anchor="middle" x="487.5" y="-159.5" font-family="Helvetica,sans-Serif" font-size="10.00" fill="#000000">vrna_fc_s</text>
</g>
<!-- Node2 -->
<g id="node2" class="node">
<title>Node2</title>
<g id="a_node2"><a xlink:href="group__soft__constraints.html#structvrna__sc__s" target="_top" xlink:title="The soft constraints data structure. ">
<polygon fill="none" stroke="#000000" points="253,-304.5 253,-323.5 315,-323.5 315,-304.5 253,-304.5"/>
<text text-anchor="middle" x="284" y="-311.5" font-family="Helvetica,sans-Serif" font-size="10.00" fill="#000000">vrna_sc_s</text>
</a>
</g>
</g>
<!-- Node2&#45;&gt;Node1 -->
<g id="edge1" class="edge">
<title>Node2&#45;&gt;Node1</title>
<path fill="none" stroke="#9a32cd" stroke-dasharray="5,2" d="M325.4478,-315.801C359.852,-315.0981 408.1381,-308.7339 440,-282 474.8438,-252.7642 484.2955,-194.4386 486.7156,-171.5413"/>
<polygon fill="#9a32cd" stroke="#9a32cd" points="325.2316,-312.302 315.2499,-315.8537 325.2679,-319.3019 325.2316,-312.302"/>
<text text-anchor="middle" x="406.5" y="-324" font-family="Helvetica,sans-Serif" font-size="10.00" fill="#000000"> sc</text>
<text text-anchor="middle" x="406.5" y="-313" font-family="Helvetica,sans-Serif" font-size="10.00" fill="#000000">scs</text>
</g>
<!-- Node3 -->
<g id="node3" class="node">
<title>Node3</title>
<g id="a_node3"><a xlink:href="structvrna__sc__bp__storage__t.html" target="_top" xlink:title="A base pair constraint. ">
<polygon fill="none" stroke="#000000" points="0,-304.5 0,-323.5 113,-323.5 113,-304.5 0,-304.5"/>
<text text-anchor="middle" x="56.5" y="-311.5" font-family="Helvetica,sans-Serif" font-size="10.00" fill="#000000">vrna_sc_bp_storage_t</text>
</a>
</g>
</g>
<!-- Node3&#45;&gt;Node2 -->
<g id="edge2" class="edge">
<title>Node3&#45;&gt;Node2</title>
<path fill="none" stroke="#9a32cd" stroke-dasharray="5,2" d="M123.1149,-314C165.9913,-314 219.7225,-314 252.9555,-314"/>
<polygon fill="#9a32cd" stroke="#9a32cd" points="123.0283,-310.5001 113.0283,-314 123.0282,-317.5001 123.0283,-310.5001"/>
<text text-anchor="middle" x="163" y="-317" font-family="Helvetica,sans-Serif" font-size="10.00" fill="#000000"> bp_storage</text>
</g>
<!-- Node4 -->
<g id="node4" class="node">
<title>Node4</title>
<g id="a_node4"><a xlink:href="group__energy__parameters.html#structvrna__exp__param__s" target="_top" xlink:title="The data structure that contains temperature scaled Boltzmann weights of the energy parameters...">
<polygon fill="none" stroke="#000000" points="234.5,-266.5 234.5,-285.5 333.5,-285.5 333.5,-266.5 234.5,-266.5"/>
<text text-anchor="middle" x="284" y="-273.5" font-family="Helvetica,sans-Serif" font-size="10.00" fill="#000000">vrna_exp_param_s</text>
</a>
</g>
</g>
<!-- Node4&#45;&gt;Node1 -->
<g id="edge3" class="edge">
<title>Node4&#45;&gt;Node1</title>
<path fill="none" stroke="#9a32cd" stroke-dasharray="5,2" d="M344.0576,-273.1585C375.1336,-269.1167 412.2614,-260.0257 440,-240 464.296,-222.4596 478.6078,-188.3041 484.4349,-171.6273"/>
<polygon fill="#9a32cd" stroke="#9a32cd" points="343.3064,-269.7219 333.7731,-274.3442 344.1082,-276.6758 343.3064,-269.7219"/>
<text text-anchor="middle" x="406.5" y="-270" font-family="Helvetica,sans-Serif" font-size="10.00" fill="#000000"> exp_params</text>
</g>
<!-- Node5 -->
<g id="node5" class="node">
<title>Node5</title>
<g id="a_node5"><a xlink:href="group__model__details.html#structvrna__md__s" target="_top" xlink:title="The data structure that contains the complete model details used throughout the calculations. ">
<polygon fill="none" stroke="#000000" points="24,-249.5 24,-268.5 89,-268.5 89,-249.5 24,-249.5"/>
<text text-anchor="middle" x="56.5" y="-256.5" font-family="Helvetica,sans-Serif" font-size="10.00" fill="#000000">vrna_md_s</text>
</a>
</g>
</g>
<!-- Node5&#45;&gt;Node4 -->
<g id="edge4" class="edge">
<title>Node5&#45;&gt;Node4</title>
<path fill="none" stroke="#9a32cd" stroke-dasharray="5,2" d="M99.4125,-262.2066C137.7698,-265.0729 193.9796,-269.2732 234.2829,-272.2849"/>
<polygon fill="#9a32cd" stroke="#9a32cd" points="99.3282,-258.6907 89.0952,-261.4357 98.8066,-265.6712 99.3282,-258.6907"/>
<text text-anchor="middle" x="163" y="-272" font-family="Helvetica,sans-Serif" font-size="10.00" fill="#000000"> model_details</text>
</g>
<!-- Node6 -->
<g id="node6" class="node">
<title>Node6</title>
<g id="a_node6"><a xlink:href="group__energy__parameters.html#structvrna__param__s" target="_top" xlink:title="The datastructure that contains temperature scaled energy parameters. ">
<polygon fill="none" stroke="#000000" points="245,-228.5 245,-247.5 323,-247.5 323,-228.5 245,-228.5"/>
<text text-anchor="middle" x="284" y="-235.5" font-family="Helvetica,sans-Serif" font-size="10.00" fill="#000000">vrna_param_s</text>
</a>
</g>
</g>
<!-- Node5&#45;&gt;Node6 -->
<g id="edge6" class="edge">
<title>Node5&#45;&gt;Node6</title>
<path fill="none" stroke="#9a32cd" stroke-dasharray="5,2" d="M99.1912,-252.8095C109.5847,-251.4296 120.6798,-250.0626 131,-249 169.6769,-245.0177 214.0022,-241.9999 244.9532,-240.1417"/>
<polygon fill="#9a32cd" stroke="#9a32cd" points="98.5238,-249.3679 89.0863,-254.1829 99.4666,-256.3042 98.5238,-249.3679"/>
<text text-anchor="middle" x="163" y="-252" font-family="Helvetica,sans-Serif" font-size="10.00" fill="#000000"> model_details</text>
</g>
<!-- Node6&#45;&gt;Node1 -->
<g id="edge5" class="edge">
<title>Node6&#45;&gt;Node1</title>
<path fill="none" stroke="#9a32cd" stroke-dasharray="5,2" d="M333.2468,-233.2169C365.0401,-228.6484 406.5554,-219.8373 440,-203 455.5683,-195.1623 470.2309,-181.1061 479.0386,-171.6661"/>
<polygon fill="#9a32cd" stroke="#9a32cd" points="332.7329,-229.7544 323.2885,-234.5559 333.6658,-236.692 332.7329,-229.7544"/>
<text text-anchor="middle" x="406.5" y="-228" font-family="Helvetica,sans-Serif" font-size="10.00" fill="#000000"> params</text>
</g>
<!-- Node7 -->
<g id="node7" class="node">
<title>Node7</title>
<g id="a_node7"><a xlink:href="group__hard__constraints.html#structvrna__hc__s" target="_top" xlink:title="The hard constraints data structure. ">
<polygon fill="none" stroke="#000000" points="253,-190.5 253,-209.5 315,-209.5 315,-190.5 253,-190.5"/>
<text text-anchor="middle" x="284" y="-197.5" font-family="Helvetica,sans-Serif" font-size="10.00" fill="#000000">vrna_hc_s</text>
</a>
</g>
</g>
<!-- Node7&#45;&gt;Node1 -->
<g id="edge7" class="edge">
<title>Node7&#45;&gt;Node1</title>
<path fill="none" stroke="#9a32cd" stroke-dasharray="5,2" d="M325.2064,-195.1917C356.8203,-191.1342 401.4358,-184.6089 440,-176 445.7896,-174.7075 451.909,-173.0948 457.7598,-171.4282"/>
<polygon fill="#9a32cd" stroke="#9a32cd" points="324.4968,-191.7532 315.0111,-196.4726 325.3694,-198.6986 324.4968,-191.7532"/>
<text text-anchor="middle" x="406.5" y="-191" font-family="Helvetica,sans-Serif" font-size="10.00" fill="#000000"> hc</text>
</g>
<!-- Node8 -->
<g id="node8" class="node">
<title>Node8</title>
<g id="a_node8"><a xlink:href="structvrna__hc__bp__storage__t.html" target="_top" xlink:title="A base pair hard constraint. ">
<polygon fill="none" stroke="#000000" points="0,-190.5 0,-209.5 113,-209.5 113,-190.5 0,-190.5"/>
<text text-anchor="middle" x="56.5" y="-197.5" font-family="Helvetica,sans-Serif" font-size="10.00" fill="#000000">vrna_hc_bp_storage_t</text>
</a>
</g>
</g>
<!-- Node8&#45;&gt;Node7 -->
<g id="edge8" class="edge">
<title>Node8&#45;&gt;Node7</title>
<path fill="none" stroke="#9a32cd" stroke-dasharray="5,2" d="M123.1149,-200C165.9913,-200 219.7225,-200 252.9555,-200"/>
<polygon fill="#9a32cd" stroke="#9a32cd" points="123.0283,-196.5001 113.0283,-200 123.0282,-203.5001 123.0283,-196.5001"/>
<text text-anchor="middle" x="163" y="-203" font-family="Helvetica,sans-Serif" font-size="10.00" fill="#000000"> bp_storage</text>
</g>
<!-- Node9 -->
<g id="node9" class="node">
<title>Node9</title>
<g id="a_node9"><a xlink:href="group__domains__up.html#structvrna__unstructured__domain__s" target="_top" xlink:title="Data structure to store all functionality for ligand binding. ">
<polygon fill="none" stroke="#000000" points="213,-152.5 213,-171.5 355,-171.5 355,-152.5 213,-152.5"/>
<text text-anchor="middle" x="284" y="-159.5" font-family="Helvetica,sans-Serif" font-size="10.00" fill="#000000">vrna_unstructured_domain_s</text>
</a>
</g>
</g>
<!-- Node9&#45;&gt;Node1 -->
<g id="edge9" class="edge">
<title>Node9&#45;&gt;Node1</title>
<path fill="none" stroke="#9a32cd" stroke-dasharray="5,2" d="M365.1969,-162C397.847,-162 433.4434,-162 457.7698,-162"/>
<polygon fill="#9a32cd" stroke="#9a32cd" points="365.1745,-158.5001 355.1744,-162 365.1744,-165.5001 365.1745,-158.5001"/>
<text text-anchor="middle" x="406.5" y="-165" font-family="Helvetica,sans-Serif" font-size="10.00" fill="#000000"> domains_up</text>
</g>
<!-- Node10 -->
<g id="node10" class="node">
<title>Node10</title>
<g id="a_node10"><a xlink:href="group__dp__matrices.html#structvrna__mx__mfe__s" target="_top" xlink:title="Minimum Free Energy (MFE) Dynamic Programming (DP) matrices data structure required within the vrna_f...">
<polygon fill="none" stroke="#000000" points="241,-114.5 241,-133.5 327,-133.5 327,-114.5 241,-114.5"/>
<text text-anchor="middle" x="284" y="-121.5" font-family="Helvetica,sans-Serif" font-size="10.00" fill="#000000">vrna_mx_mfe_s</text>
</a>
</g>
</g>
<!-- Node10&#45;&gt;Node1 -->
<g id="edge10" class="edge">
<title>Node10&#45;&gt;Node1</title>
<path fill="none" stroke="#9a32cd" stroke-dasharray="5,2" d="M337.0111,-129.6851C367.3813,-133.4718 406.0831,-139.1969 440,-147 446.4894,-148.493 453.3723,-150.4449 459.8249,-152.4446"/>
<polygon fill="#9a32cd" stroke="#9a32cd" points="337.3992,-126.2066 327.05,-128.4751 336.555,-133.1556 337.3992,-126.2066"/>
<text text-anchor="middle" x="406.5" y="-150" font-family="Helvetica,sans-Serif" font-size="10.00" fill="#000000"> matrices</text>
</g>
<!-- Node11 -->
<g id="node11" class="node">
<title>Node11</title>
<g id="a_node11"><a xlink:href="structvrna__gr__aux__s.html" target="_top" xlink:title="vrna_gr_aux_s">
<polygon fill="none" stroke="#000000" points="244,-76.5 244,-95.5 324,-95.5 324,-76.5 244,-76.5"/>
<text text-anchor="middle" x="284" y="-83.5" font-family="Helvetica,sans-Serif" font-size="10.00" fill="#000000">vrna_gr_aux_s</text>
</a>
</g>
</g>
<!-- Node11&#45;&gt;Node1 -->
<g id="edge11" class="edge">
<title>Node11&#45;&gt;Node1</title>
<path fill="none" stroke="#9a32cd" stroke-dasharray="5,2" d="M334.2067,-90.9219C365.8724,-95.5292 406.8909,-104.3317 440,-121 455.5683,-128.8377 470.2309,-142.8939 479.0386,-152.3339"/>
<polygon fill="#9a32cd" stroke="#9a32cd" points="334.6572,-87.451 324.2762,-89.5688 333.7121,-94.387 334.6572,-87.451"/>
<text text-anchor="middle" x="406.5" y="-124" font-family="Helvetica,sans-Serif" font-size="10.00" fill="#000000"> aux_grammar</text>
</g>
<!-- Node12 -->
<g id="node12" class="node">
<title>Node12</title>
<g id="a_node12"><a xlink:href="group__dp__matrices.html#structvrna__mx__pf__s" target="_top" xlink:title="Partition function (PF) Dynamic Programming (DP) matrices data structure required within the vrna_fol...">
<polygon fill="none" stroke="#000000" points="245,-38.5 245,-57.5 323,-57.5 323,-38.5 245,-38.5"/>
<text text-anchor="middle" x="284" y="-45.5" font-family="Helvetica,sans-Serif" font-size="10.00" fill="#000000">vrna_mx_pf_s</text>
</a>
</g>
</g>
<!-- Node12&#45;&gt;Node1 -->
<g id="edge12" class="edge">
<title>Node12&#45;&gt;Node1</title>
<path fill="none" stroke="#9a32cd" stroke-dasharray="5,2" d="M333.3368,-49.6121C366.2423,-52.8904 408.9889,-61.6118 440,-84 464.296,-101.5404 478.6078,-135.6959 484.4349,-152.3727"/>
<polygon fill="#9a32cd" stroke="#9a32cd" points="333.2887,-46.0952 323.0263,-48.7285 332.691,-53.0697 333.2887,-46.0952"/>
<text text-anchor="middle" x="406.5" y="-87" font-family="Helvetica,sans-Serif" font-size="10.00" fill="#000000"> exp_matrices</text>
</g>
<!-- Node13 -->
<g id="node13" class="node">
<title>Node13</title>
<g id="a_node13"><a xlink:href="structvrna__structured__domains__s.html" target="_top" xlink:title="vrna_structured_domains_s">
<polygon fill="none" stroke="#000000" points="215.5,-.5 215.5,-19.5 352.5,-19.5 352.5,-.5 215.5,-.5"/>
<text text-anchor="middle" x="284" y="-7.5" font-family="Helvetica,sans-Serif" font-size="10.00" fill="#000000">vrna_structured_domains_s</text>
</a>
</g>
</g>
<!-- Node13&#45;&gt;Node1 -->
<g id="edge13" class="edge">
<title>Node13&#45;&gt;Node1</title>
<path fill="none" stroke="#9a32cd" stroke-dasharray="5,2" d="M363.075,-11.2912C390.018,-15.3468 418.6844,-24.1151 440,-42 474.8438,-71.2358 484.2955,-129.5614 486.7156,-152.4587"/>
<polygon fill="#9a32cd" stroke="#9a32cd" points="363.2207,-7.7806 352.8521,-9.9584 362.3157,-14.7219 363.2207,-7.7806"/>
<text text-anchor="middle" x="406.5" y="-45" font-family="Helvetica,sans-Serif" font-size="10.00" fill="#000000"> domains_struc</text>
</g>
</g>
</svg>
