<?xml version="1.0" encoding="UTF-8" standalone="no"?>
<!DOCTYPE svg PUBLIC "-//W3C//DTD SVG 1.1//EN"
 "http://www.w3.org/Graphics/SVG/1.1/DTD/svg11.dtd">
<!-- Generated by graphviz version 2.40.1 (20161225.0304)
 -->
<!-- Title: TwoDfold_vars Pages: 1 -->
<svg width="700pt" height="342pt"
 viewBox="0.00 0.00 700.00 342.00" xmlns="http://www.w3.org/2000/svg" xmlns:xlink="http://www.w3.org/1999/xlink">
<g id="graph0" class="graph" transform="scale(1 1) rotate(0) translate(4 338)">
<title>TwoDfold_vars</title>
<!-- Node3 -->
<g id="node1" class="node">
<title>Node3</title>
<polygon fill="#bfbfbf" stroke="#000000" points="611,-233.5 611,-252.5 692,-252.5 692,-233.5 611,-233.5"/>
<text text-anchor="middle" x="651.5" y="-240.5" font-family="Helvetica,sans-Serif" font-size="10.00" fill="#000000">TwoDfold_vars</text>
</g>
<!-- Node4 -->
<g id="node2" class="node">
<title>Node4</title>
<g id="a_node2"><a xlink:href="group__fold__compound.html#structvrna__fc__s" target="_top" xlink:title="The most basic data structure required by many functions throughout the RNAlib. ">
<polygon fill="none" stroke="#000000" points="458,-169.5 458,-188.5 517,-188.5 517,-169.5 458,-169.5"/>
<text text-anchor="middle" x="487.5" y="-176.5" font-family="Helvetica,sans-Serif" font-size="10.00" fill="#000000">vrna_fc_s</text>
</a>
</g>
</g>
<!-- Node4&#45;&gt;Node3 -->
<g id="edge1" class="edge">
<title>Node4&#45;&gt;Node3</title>
<path fill="none" stroke="#9a32cd" stroke-dasharray="5,2" d="M521.7255,-192.3563C553.206,-204.6414 599.1122,-222.556 627.0479,-233.4577"/>
<polygon fill="#9a32cd" stroke="#9a32cd" points="522.6407,-188.9564 512.0525,-188.5814 520.0958,-195.4775 522.6407,-188.9564"/>
<text text-anchor="middle" x="564" y="-221" font-family="Helvetica,sans-Serif" font-size="10.00" fill="#000000"> compatibility</text>
</g>
<!-- Node5 -->
<g id="node3" class="node">
<title>Node5</title>
<g id="a_node3"><a xlink:href="group__soft__constraints.html#structvrna__sc__s" target="_top" xlink:title="The soft constraints data structure. ">
<polygon fill="none" stroke="#000000" points="253,-313.5 253,-332.5 315,-332.5 315,-313.5 253,-313.5"/>
<text text-anchor="middle" x="284" y="-320.5" font-family="Helvetica,sans-Serif" font-size="10.00" fill="#000000">vrna_sc_s</text>
</a>
</g>
</g>
<!-- Node5&#45;&gt;Node4 -->
<g id="edge2" class="edge">
<title>Node5&#45;&gt;Node4</title>
<path fill="none" stroke="#9a32cd" stroke-dasharray="5,2" d="M325.1864,-320.3259C359.4293,-316.1262 407.6256,-305.3872 440,-278 468.5263,-253.8681 481.2153,-208.6562 485.5963,-188.7887"/>
<polygon fill="#9a32cd" stroke="#9a32cd" points="324.6026,-316.8687 315.0402,-321.4305 325.3603,-323.8276 324.6026,-316.8687"/>
<text text-anchor="middle" x="406.5" y="-324" font-family="Helvetica,sans-Serif" font-size="10.00" fill="#000000"> sc</text>
<text text-anchor="middle" x="406.5" y="-313" font-family="Helvetica,sans-Serif" font-size="10.00" fill="#000000">scs</text>
</g>
<!-- Node6 -->
<g id="node4" class="node">
<title>Node6</title>
<g id="a_node4"><a xlink:href="structvrna__sc__bp__storage__t.html" target="_top" xlink:title="A base pair constraint. ">
<polygon fill="none" stroke="#000000" points="0,-313.5 0,-332.5 113,-332.5 113,-313.5 0,-313.5"/>
<text text-anchor="middle" x="56.5" y="-320.5" font-family="Helvetica,sans-Serif" font-size="10.00" fill="#000000">vrna_sc_bp_storage_t</text>
</a>
</g>
</g>
<!-- Node6&#45;&gt;Node5 -->
<g id="edge3" class="edge">
<title>Node6&#45;&gt;Node5</title>
<path fill="none" stroke="#9a32cd" stroke-dasharray="5,2" d="M123.1149,-323C165.9913,-323 219.7225,-323 252.9555,-323"/>
<polygon fill="#9a32cd" stroke="#9a32cd" points="123.0283,-319.5001 113.0283,-323 123.0282,-326.5001 123.0283,-319.5001"/>
<text text-anchor="middle" x="163" y="-326" font-family="Helvetica,sans-Serif" font-size="10.00" fill="#000000"> bp_storage</text>
</g>
<!-- Node7 -->
<g id="node5" class="node">
<title>Node7</title>
<g id="a_node5"><a xlink:href="group__energy__parameters.html#structvrna__exp__param__s" target="_top" xlink:title="The data structure that contains temperature scaled Boltzmann weights of the energy parameters...">
<polygon fill="none" stroke="#000000" points="234.5,-152.5 234.5,-171.5 333.5,-171.5 333.5,-152.5 234.5,-152.5"/>
<text text-anchor="middle" x="284" y="-159.5" font-family="Helvetica,sans-Serif" font-size="10.00" fill="#000000">vrna_exp_param_s</text>
</a>
</g>
</g>
<!-- Node7&#45;&gt;Node4 -->
<g id="edge4" class="edge">
<title>Node7&#45;&gt;Node4</title>
<path fill="none" stroke="#9a32cd" stroke-dasharray="5,2" d="M343.5847,-157.9659C372.8245,-157.1049 408.4577,-157.7264 440,-163 447.8961,-164.3201 456.2515,-166.7578 463.7163,-169.3393"/>
<polygon fill="#9a32cd" stroke="#9a32cd" points="343.3939,-154.4704 333.526,-158.3271 343.6452,-161.4659 343.3939,-154.4704"/>
<text text-anchor="middle" x="406.5" y="-166" font-family="Helvetica,sans-Serif" font-size="10.00" fill="#000000"> exp_params</text>
</g>
<!-- Node8 -->
<g id="node6" class="node">
<title>Node8</title>
<g id="a_node6"><a xlink:href="group__model__details.html#structvrna__md__s" target="_top" xlink:title="The data structure that contains the complete model details used throughout the calculations. ">
<polygon fill="none" stroke="#000000" points="24,-199.5 24,-218.5 89,-218.5 89,-199.5 24,-199.5"/>
<text text-anchor="middle" x="56.5" y="-206.5" font-family="Helvetica,sans-Serif" font-size="10.00" fill="#000000">vrna_md_s</text>
</a>
</g>
</g>
<!-- Node8&#45;&gt;Node7 -->
<g id="edge5" class="edge">
<title>Node8&#45;&gt;Node7</title>
<path fill="none" stroke="#9a32cd" stroke-dasharray="5,2" d="M98.9368,-200.2328C138.3861,-192.0829 197.015,-179.9705 237.6685,-171.5718"/>
<polygon fill="#9a32cd" stroke="#9a32cd" points="98.1802,-196.8151 89.0952,-202.266 99.5965,-203.6704 98.1802,-196.8151"/>
<text text-anchor="middle" x="163" y="-195" font-family="Helvetica,sans-Serif" font-size="10.00" fill="#000000"> model_details</text>
</g>
<!-- Node9 -->
<g id="node7" class="node">
<title>Node9</title>
<g id="a_node7"><a xlink:href="group__energy__parameters.html#structvrna__param__s" target="_top" xlink:title="The datastructure that contains temperature scaled energy parameters. ">
<polygon fill="none" stroke="#000000" points="245,-266.5 245,-285.5 323,-285.5 323,-266.5 245,-266.5"/>
<text text-anchor="middle" x="284" y="-273.5" font-family="Helvetica,sans-Serif" font-size="10.00" fill="#000000">vrna_param_s</text>
</a>
</g>
</g>
<!-- Node8&#45;&gt;Node9 -->
<g id="edge7" class="edge">
<title>Node8&#45;&gt;Node9</title>
<path fill="none" stroke="#9a32cd" stroke-dasharray="5,2" d="M96.1463,-221.5931C127.7126,-231.5149 173.0693,-245.5376 213,-257 224.161,-260.2038 236.3586,-263.5307 247.4456,-266.4884"/>
<polygon fill="#9a32cd" stroke="#9a32cd" points="96.996,-218.1913 86.4064,-218.5243 94.8923,-224.8678 96.996,-218.1913"/>
<text text-anchor="middle" x="163" y="-253" font-family="Helvetica,sans-Serif" font-size="10.00" fill="#000000"> model_details</text>
</g>
<!-- Node9&#45;&gt;Node3 -->
<g id="edge15" class="edge">
<title>Node9&#45;&gt;Node3</title>
<path fill="none" stroke="#9a32cd" stroke-dasharray="5,2" d="M333.2082,-277.9442C363.9523,-278.6775 404.338,-278.7654 440,-276 499.8386,-271.3598 568.3513,-259.4408 610.779,-251.2735"/>
<polygon fill="#9a32cd" stroke="#9a32cd" points="333.263,-274.4446 323.1724,-277.674 333.0745,-281.442 333.263,-274.4446"/>
<text text-anchor="middle" x="487.5" y="-277" font-family="Helvetica,sans-Serif" font-size="10.00" fill="#000000"> P</text>
</g>
<!-- Node9&#45;&gt;Node4 -->
<g id="edge6" class="edge">
<title>Node9&#45;&gt;Node4</title>
<path fill="none" stroke="#9a32cd" stroke-dasharray="5,2" d="M333.3756,-271.7472C365.7494,-267.0944 407.8694,-257.3592 440,-237 459.3496,-224.7393 474.5447,-201.923 482.152,-188.8602"/>
<polygon fill="#9a32cd" stroke="#9a32cd" points="332.6879,-268.3075 323.232,-273.0863 333.6041,-275.2473 332.6879,-268.3075"/>
<text text-anchor="middle" x="406.5" y="-266" font-family="Helvetica,sans-Serif" font-size="10.00" fill="#000000"> params</text>
</g>
<!-- Node10 -->
<g id="node8" class="node">
<title>Node10</title>
<g id="a_node8"><a xlink:href="group__hard__constraints.html#structvrna__hc__s" target="_top" xlink:title="The hard constraints data structure. ">
<polygon fill="none" stroke="#000000" points="253,-76.5 253,-95.5 315,-95.5 315,-76.5 253,-76.5"/>
<text text-anchor="middle" x="284" y="-83.5" font-family="Helvetica,sans-Serif" font-size="10.00" fill="#000000">vrna_hc_s</text>
</a>
</g>
</g>
<!-- Node10&#45;&gt;Node4 -->
<g id="edge8" class="edge">
<title>Node10&#45;&gt;Node4</title>
<path fill="none" stroke="#9a32cd" stroke-dasharray="5,2" d="M325.535,-83.7033C358.8836,-83.7954 405.6491,-88.4507 440,-110 462.6683,-124.2205 477.2895,-153.6445 483.7208,-169.0707"/>
<polygon fill="#9a32cd" stroke="#9a32cd" points="325.1721,-80.207 315.2117,-83.8181 325.25,-87.2066 325.1721,-80.207"/>
<text text-anchor="middle" x="406.5" y="-113" font-family="Helvetica,sans-Serif" font-size="10.00" fill="#000000"> hc</text>
</g>
<!-- Node11 -->
<g id="node9" class="node">
<title>Node11</title>
<g id="a_node9"><a xlink:href="structvrna__hc__bp__storage__t.html" target="_top" xlink:title="A base pair hard constraint. ">
<polygon fill="none" stroke="#000000" points="0,-76.5 0,-95.5 113,-95.5 113,-76.5 0,-76.5"/>
<text text-anchor="middle" x="56.5" y="-83.5" font-family="Helvetica,sans-Serif" font-size="10.00" fill="#000000">vrna_hc_bp_storage_t</text>
</a>
</g>
</g>
<!-- Node11&#45;&gt;Node10 -->
<g id="edge9" class="edge">
<title>Node11&#45;&gt;Node10</title>
<path fill="none" stroke="#9a32cd" stroke-dasharray="5,2" d="M123.1149,-86C165.9913,-86 219.7225,-86 252.9555,-86"/>
<polygon fill="#9a32cd" stroke="#9a32cd" points="123.0283,-82.5001 113.0283,-86 123.0282,-89.5001 123.0283,-82.5001"/>
<text text-anchor="middle" x="163" y="-89" font-family="Helvetica,sans-Serif" font-size="10.00" fill="#000000"> bp_storage</text>
</g>
<!-- Node12 -->
<g id="node10" class="node">
<title>Node12</title>
<g id="a_node10"><a xlink:href="group__domains__up.html#structvrna__unstructured__domain__s" target="_top" xlink:title="Data structure to store all functionality for ligand binding. ">
<polygon fill="none" stroke="#000000" points="213,-38.5 213,-57.5 355,-57.5 355,-38.5 213,-38.5"/>
<text text-anchor="middle" x="284" y="-45.5" font-family="Helvetica,sans-Serif" font-size="10.00" fill="#000000">vrna_unstructured_domain_s</text>
</a>
</g>
</g>
<!-- Node12&#45;&gt;Node4 -->
<g id="edge10" class="edge">
<title>Node12&#45;&gt;Node4</title>
<path fill="none" stroke="#9a32cd" stroke-dasharray="5,2" d="M365.6161,-46.2471C391.5654,-49.3505 418.9596,-56.8648 440,-73 471.8446,-97.4206 482.8833,-147.9267 486.2203,-169.207"/>
<polygon fill="#9a32cd" stroke="#9a32cd" points="365.6729,-42.7357 355.377,-45.2346 364.984,-49.7017 365.6729,-42.7357"/>
<text text-anchor="middle" x="406.5" y="-76" font-family="Helvetica,sans-Serif" font-size="10.00" fill="#000000"> domains_up</text>
</g>
<!-- Node13 -->
<g id="node11" class="node">
<title>Node13</title>
<g id="a_node11"><a xlink:href="group__dp__matrices.html#structvrna__mx__mfe__s" target="_top" xlink:title="Minimum Free Energy (MFE) Dynamic Programming (DP) matrices data structure required within the vrna_f...">
<polygon fill="none" stroke="#000000" points="241,-.5 241,-19.5 327,-19.5 327,-.5 241,-.5"/>
<text text-anchor="middle" x="284" y="-7.5" font-family="Helvetica,sans-Serif" font-size="10.00" fill="#000000">vrna_mx_mfe_s</text>
</a>
</g>
</g>
<!-- Node13&#45;&gt;Node4 -->
<g id="edge11" class="edge">
<title>Node13&#45;&gt;Node4</title>
<path fill="none" stroke="#9a32cd" stroke-dasharray="5,2" d="M337.7606,-4.561C370.8255,-4.1737 412.0685,-9.4106 440,-33 461.586,-51.2304 479.9953,-139.3922 485.6858,-169.1593"/>
<polygon fill="#9a32cd" stroke="#9a32cd" points="337.2323,-1.075 327.3399,-4.8683 337.4387,-8.072 337.2323,-1.075"/>
<text text-anchor="middle" x="406.5" y="-36" font-family="Helvetica,sans-Serif" font-size="10.00" fill="#000000"> matrices</text>
</g>
<!-- Node14 -->
<g id="node12" class="node">
<title>Node14</title>
<g id="a_node12"><a xlink:href="structvrna__gr__aux__s.html" target="_top" xlink:title="vrna_gr_aux_s">
<polygon fill="none" stroke="#000000" points="244,-228.5 244,-247.5 324,-247.5 324,-228.5 244,-228.5"/>
<text text-anchor="middle" x="284" y="-235.5" font-family="Helvetica,sans-Serif" font-size="10.00" fill="#000000">vrna_gr_aux_s</text>
</a>
</g>
</g>
<!-- Node14&#45;&gt;Node4 -->
<g id="edge12" class="edge">
<title>Node14&#45;&gt;Node4</title>
<path fill="none" stroke="#9a32cd" stroke-dasharray="5,2" d="M334.176,-231.2127C365.285,-226.0752 405.7146,-217.6959 440,-205 451.4609,-200.756 463.5308,-194.1176 472.6357,-188.6111"/>
<polygon fill="#9a32cd" stroke="#9a32cd" points="333.3308,-227.8031 324.0057,-232.8323 334.4317,-234.716 333.3308,-227.8031"/>
<text text-anchor="middle" x="406.5" y="-225" font-family="Helvetica,sans-Serif" font-size="10.00" fill="#000000"> aux_grammar</text>
</g>
<!-- Node15 -->
<g id="node13" class="node">
<title>Node15</title>
<g id="a_node13"><a xlink:href="group__dp__matrices.html#structvrna__mx__pf__s" target="_top" xlink:title="Partition function (PF) Dynamic Programming (DP) matrices data structure required within the vrna_fol...">
<polygon fill="none" stroke="#000000" points="245,-190.5 245,-209.5 323,-209.5 323,-190.5 245,-190.5"/>
<text text-anchor="middle" x="284" y="-197.5" font-family="Helvetica,sans-Serif" font-size="10.00" fill="#000000">vrna_mx_pf_s</text>
</a>
</g>
</g>
<!-- Node15&#45;&gt;Node4 -->
<g id="edge13" class="edge">
<title>Node15&#45;&gt;Node4</title>
<path fill="none" stroke="#9a32cd" stroke-dasharray="5,2" d="M333.3164,-194.9108C372.2671,-190.8914 425.3235,-185.4163 457.9501,-182.0494"/>
<polygon fill="#9a32cd" stroke="#9a32cd" points="332.8247,-191.4429 323.2368,-195.951 333.5433,-198.4059 332.8247,-191.4429"/>
<text text-anchor="middle" x="406.5" y="-193" font-family="Helvetica,sans-Serif" font-size="10.00" fill="#000000"> exp_matrices</text>
</g>
<!-- Node16 -->
<g id="node14" class="node">
<title>Node16</title>
<g id="a_node14"><a xlink:href="structvrna__structured__domains__s.html" target="_top" xlink:title="vrna_structured_domains_s">
<polygon fill="none" stroke="#000000" points="215.5,-114.5 215.5,-133.5 352.5,-133.5 352.5,-114.5 215.5,-114.5"/>
<text text-anchor="middle" x="284" y="-121.5" font-family="Helvetica,sans-Serif" font-size="10.00" fill="#000000">vrna_structured_domains_s</text>
</a>
</g>
</g>
<!-- Node16&#45;&gt;Node4 -->
<g id="edge14" class="edge">
<title>Node16&#45;&gt;Node4</title>
<path fill="none" stroke="#9a32cd" stroke-dasharray="5,2" d="M362.7772,-124.7409C388.1653,-127.1501 415.9418,-132.1578 440,-142 455.0928,-148.1744 469.4298,-160.5633 478.3276,-169.2999"/>
<polygon fill="#9a32cd" stroke="#9a32cd" points="363.0627,-121.2527 352.8075,-123.9136 362.4838,-128.2287 363.0627,-121.2527"/>
<text text-anchor="middle" x="406.5" y="-145" font-family="Helvetica,sans-Serif" font-size="10.00" fill="#000000"> domains_struc</text>
</g>
</g>
</svg>
