<?xml version="1.0" encoding="UTF-8" standalone="no"?>
<!DOCTYPE svg PUBLIC "-//W3C//DTD SVG 1.1//EN"
 "http://www.w3.org/Graphics/SVG/1.1/DTD/svg11.dtd">
<!-- Generated by graphviz version 2.40.1 (20161225.0304)
 -->
<!-- Title: TwoDpfold_vars Pages: 1 -->
<svg width="705pt" height="336pt"
 viewBox="0.00 0.00 705.00 336.00" xmlns="http://www.w3.org/2000/svg" xmlns:xlink="http://www.w3.org/1999/xlink">
<g id="graph0" class="graph" transform="scale(1 1) rotate(0) translate(4 332)">
<title>TwoDpfold_vars</title>
<!-- Node1 -->
<g id="node1" class="node">
<title>Node1</title>
<polygon fill="#bfbfbf" stroke="#000000" points="611,-256.5 611,-275.5 697,-275.5 697,-256.5 611,-256.5"/>
<text text-anchor="middle" x="654" y="-263.5" font-family="Helvetica,sans-Serif" font-size="10.00" fill="#000000">TwoDpfold_vars</text>
</g>
<!-- Node2 -->
<g id="node2" class="node">
<title>Node2</title>
<g id="a_node2"><a xlink:href="group__energy__parameters.html#structvrna__exp__param__s" target="_top" xlink:title="The data structure that contains temperature scaled Boltzmann weights of the energy parameters...">
<polygon fill="none" stroke="#000000" points="234.5,-304.5 234.5,-323.5 333.5,-323.5 333.5,-304.5 234.5,-304.5"/>
<text text-anchor="middle" x="284" y="-311.5" font-family="Helvetica,sans-Serif" font-size="10.00" fill="#000000">vrna_exp_param_s</text>
</a>
</g>
</g>
<!-- Node2&#45;&gt;Node1 -->
<g id="edge1" class="edge">
<title>Node2&#45;&gt;Node1</title>
<path fill="none" stroke="#9a32cd" stroke-dasharray="5,2" d="M343.8818,-318.5911C353.6095,-319.1774 363.5804,-319.6828 373,-320 402.7609,-321.002 410.4493,-323.6708 440,-320 507.8748,-311.5685 585.1384,-288.6413 625.6986,-275.5323"/>
<polygon fill="#9a32cd" stroke="#9a32cd" points="344.0675,-315.0959 333.8658,-317.9553 343.624,-322.0819 344.0675,-315.0959"/>
<text text-anchor="middle" x="487.5" y="-320" font-family="Helvetica,sans-Serif" font-size="10.00" fill="#000000"> pf_params</text>
</g>
<!-- Node4 -->
<g id="node4" class="node">
<title>Node4</title>
<g id="a_node4"><a xlink:href="group__fold__compound.html#structvrna__fc__s" target="_top" xlink:title="The most basic data structure required by many functions throughout the RNAlib. ">
<polygon fill="none" stroke="#000000" points="458,-169.5 458,-188.5 517,-188.5 517,-169.5 458,-169.5"/>
<text text-anchor="middle" x="487.5" y="-176.5" font-family="Helvetica,sans-Serif" font-size="10.00" fill="#000000">vrna_fc_s</text>
</a>
</g>
</g>
<!-- Node2&#45;&gt;Node4 -->
<g id="edge6" class="edge">
<title>Node2&#45;&gt;Node4</title>
<path fill="none" stroke="#9a32cd" stroke-dasharray="5,2" d="M344.085,-309.4516C381.4671,-305.5297 425.1595,-298.6111 440,-287 472.2649,-261.7562 483.1076,-210.0379 486.3073,-188.6191"/>
<polygon fill="#9a32cd" stroke="#9a32cd" points="343.3428,-306.008 333.7379,-310.4797 344.035,-312.9737 343.3428,-306.008"/>
<text text-anchor="middle" x="406.5" y="-308" font-family="Helvetica,sans-Serif" font-size="10.00" fill="#000000"> exp_params</text>
</g>
<!-- Node3 -->
<g id="node3" class="node">
<title>Node3</title>
<g id="a_node3"><a xlink:href="group__model__details.html#structvrna__md__s" target="_top" xlink:title="The data structure that contains the complete model details used throughout the calculations. ">
<polygon fill="none" stroke="#000000" points="24,-283.5 24,-302.5 89,-302.5 89,-283.5 24,-283.5"/>
<text text-anchor="middle" x="56.5" y="-290.5" font-family="Helvetica,sans-Serif" font-size="10.00" fill="#000000">vrna_md_s</text>
</a>
</g>
</g>
<!-- Node3&#45;&gt;Node2 -->
<g id="edge2" class="edge">
<title>Node3&#45;&gt;Node2</title>
<path fill="none" stroke="#9a32cd" stroke-dasharray="5,2" d="M99.4125,-296.9612C137.7698,-300.5018 193.9796,-305.6904 234.2829,-309.4107"/>
<polygon fill="#9a32cd" stroke="#9a32cd" points="99.3746,-293.4429 89.0952,-296.0088 98.7311,-300.4132 99.3746,-293.4429"/>
<text text-anchor="middle" x="163" y="-308" font-family="Helvetica,sans-Serif" font-size="10.00" fill="#000000"> model_details</text>
</g>
<!-- Node7 -->
<g id="node7" class="node">
<title>Node7</title>
<g id="a_node7"><a xlink:href="group__energy__parameters.html#structvrna__param__s" target="_top" xlink:title="The datastructure that contains temperature scaled energy parameters. ">
<polygon fill="none" stroke="#000000" points="245,-266.5 245,-285.5 323,-285.5 323,-266.5 245,-266.5"/>
<text text-anchor="middle" x="284" y="-273.5" font-family="Helvetica,sans-Serif" font-size="10.00" fill="#000000">vrna_param_s</text>
</a>
</g>
</g>
<!-- Node3&#45;&gt;Node7 -->
<g id="edge8" class="edge">
<title>Node3&#45;&gt;Node7</title>
<path fill="none" stroke="#9a32cd" stroke-dasharray="5,2" d="M99.3913,-284.41C109.7032,-282.6517 120.7116,-281.0265 131,-280 169.6028,-276.1483 213.9385,-275.389 244.9122,-275.4475"/>
<polygon fill="#9a32cd" stroke="#9a32cd" points="98.5956,-280.9966 89.364,-286.1955 99.8228,-287.8882 98.5956,-280.9966"/>
<text text-anchor="middle" x="163" y="-283" font-family="Helvetica,sans-Serif" font-size="10.00" fill="#000000"> model_details</text>
</g>
<!-- Node4&#45;&gt;Node1 -->
<g id="edge3" class="edge">
<title>Node4&#45;&gt;Node1</title>
<path fill="none" stroke="#9a32cd" stroke-dasharray="5,2" d="M514.9296,-193.3326C549.0876,-211.1809 606.4944,-241.1773 635.7165,-256.4465"/>
<polygon fill="#9a32cd" stroke="#9a32cd" points="516.4385,-190.172 505.9546,-188.6429 513.1967,-196.3762 516.4385,-190.172"/>
<text text-anchor="middle" x="564" y="-235" font-family="Helvetica,sans-Serif" font-size="10.00" fill="#000000"> compatibility</text>
</g>
<!-- Node5 -->
<g id="node5" class="node">
<title>Node5</title>
<g id="a_node5"><a xlink:href="group__soft__constraints.html#structvrna__sc__s" target="_top" xlink:title="The soft constraints data structure. ">
<polygon fill="none" stroke="#000000" points="253,-228.5 253,-247.5 315,-247.5 315,-228.5 253,-228.5"/>
<text text-anchor="middle" x="284" y="-235.5" font-family="Helvetica,sans-Serif" font-size="10.00" fill="#000000">vrna_sc_s</text>
</a>
</g>
</g>
<!-- Node5&#45;&gt;Node4 -->
<g id="edge4" class="edge">
<title>Node5&#45;&gt;Node4</title>
<path fill="none" stroke="#9a32cd" stroke-dasharray="5,2" d="M325.2045,-233.1518C357.2396,-228.5317 402.4038,-220.1341 440,-206 451.8978,-201.5271 464.3545,-194.3391 473.5251,-188.5039"/>
<polygon fill="#9a32cd" stroke="#9a32cd" points="324.7179,-229.6857 315.2911,-234.5216 325.6761,-236.6198 324.7179,-229.6857"/>
<text text-anchor="middle" x="406.5" y="-237" font-family="Helvetica,sans-Serif" font-size="10.00" fill="#000000"> sc</text>
<text text-anchor="middle" x="406.5" y="-226" font-family="Helvetica,sans-Serif" font-size="10.00" fill="#000000">scs</text>
</g>
<!-- Node6 -->
<g id="node6" class="node">
<title>Node6</title>
<g id="a_node6"><a xlink:href="structvrna__sc__bp__storage__t.html" target="_top" xlink:title="A base pair constraint. ">
<polygon fill="none" stroke="#000000" points="0,-228.5 0,-247.5 113,-247.5 113,-228.5 0,-228.5"/>
<text text-anchor="middle" x="56.5" y="-235.5" font-family="Helvetica,sans-Serif" font-size="10.00" fill="#000000">vrna_sc_bp_storage_t</text>
</a>
</g>
</g>
<!-- Node6&#45;&gt;Node5 -->
<g id="edge5" class="edge">
<title>Node6&#45;&gt;Node5</title>
<path fill="none" stroke="#9a32cd" stroke-dasharray="5,2" d="M123.1149,-238C165.9913,-238 219.7225,-238 252.9555,-238"/>
<polygon fill="#9a32cd" stroke="#9a32cd" points="123.0283,-234.5001 113.0283,-238 123.0282,-241.5001 123.0283,-234.5001"/>
<text text-anchor="middle" x="163" y="-241" font-family="Helvetica,sans-Serif" font-size="10.00" fill="#000000"> bp_storage</text>
</g>
<!-- Node7&#45;&gt;Node4 -->
<g id="edge7" class="edge">
<title>Node7&#45;&gt;Node4</title>
<path fill="none" stroke="#9a32cd" stroke-dasharray="5,2" d="M333.4865,-277.1458C366.0887,-275.6849 408.4265,-269.371 440,-249 462.9541,-234.1902 477.6279,-203.9484 483.9365,-188.5172"/>
<polygon fill="#9a32cd" stroke="#9a32cd" points="333.1567,-273.6543 323.2695,-277.4613 333.3728,-280.6509 333.1567,-273.6543"/>
<text text-anchor="middle" x="406.5" y="-275" font-family="Helvetica,sans-Serif" font-size="10.00" fill="#000000"> params</text>
</g>
<!-- Node8 -->
<g id="node8" class="node">
<title>Node8</title>
<g id="a_node8"><a xlink:href="group__hard__constraints.html#structvrna__hc__s" target="_top" xlink:title="The hard constraints data structure. ">
<polygon fill="none" stroke="#000000" points="253,-190.5 253,-209.5 315,-209.5 315,-190.5 253,-190.5"/>
<text text-anchor="middle" x="284" y="-197.5" font-family="Helvetica,sans-Serif" font-size="10.00" fill="#000000">vrna_hc_s</text>
</a>
</g>
</g>
<!-- Node8&#45;&gt;Node4 -->
<g id="edge9" class="edge">
<title>Node8&#45;&gt;Node4</title>
<path fill="none" stroke="#9a32cd" stroke-dasharray="5,2" d="M325.4098,-195.7268C364.7245,-191.6697 422.8551,-185.671 457.7698,-182.068"/>
<polygon fill="#9a32cd" stroke="#9a32cd" points="324.9388,-192.2567 315.3509,-196.7648 325.6574,-199.2197 324.9388,-192.2567"/>
<text text-anchor="middle" x="406.5" y="-194" font-family="Helvetica,sans-Serif" font-size="10.00" fill="#000000"> hc</text>
</g>
<!-- Node9 -->
<g id="node9" class="node">
<title>Node9</title>
<g id="a_node9"><a xlink:href="structvrna__hc__bp__storage__t.html" target="_top" xlink:title="A base pair hard constraint. ">
<polygon fill="none" stroke="#000000" points="0,-190.5 0,-209.5 113,-209.5 113,-190.5 0,-190.5"/>
<text text-anchor="middle" x="56.5" y="-197.5" font-family="Helvetica,sans-Serif" font-size="10.00" fill="#000000">vrna_hc_bp_storage_t</text>
</a>
</g>
</g>
<!-- Node9&#45;&gt;Node8 -->
<g id="edge10" class="edge">
<title>Node9&#45;&gt;Node8</title>
<path fill="none" stroke="#9a32cd" stroke-dasharray="5,2" d="M123.1149,-200C165.9913,-200 219.7225,-200 252.9555,-200"/>
<polygon fill="#9a32cd" stroke="#9a32cd" points="123.0283,-196.5001 113.0283,-200 123.0282,-203.5001 123.0283,-196.5001"/>
<text text-anchor="middle" x="163" y="-203" font-family="Helvetica,sans-Serif" font-size="10.00" fill="#000000"> bp_storage</text>
</g>
<!-- Node10 -->
<g id="node10" class="node">
<title>Node10</title>
<g id="a_node10"><a xlink:href="group__domains__up.html#structvrna__unstructured__domain__s" target="_top" xlink:title="Data structure to store all functionality for ligand binding. ">
<polygon fill="none" stroke="#000000" points="213,-152.5 213,-171.5 355,-171.5 355,-152.5 213,-152.5"/>
<text text-anchor="middle" x="284" y="-159.5" font-family="Helvetica,sans-Serif" font-size="10.00" fill="#000000">vrna_unstructured_domain_s</text>
</a>
</g>
</g>
<!-- Node10&#45;&gt;Node4 -->
<g id="edge11" class="edge">
<title>Node10&#45;&gt;Node4</title>
<path fill="none" stroke="#9a32cd" stroke-dasharray="5,2" d="M365.2867,-157.6457C389.4664,-157.6599 415.9248,-158.9749 440,-163 447.8961,-164.3201 456.2515,-166.7578 463.7163,-169.3393"/>
<polygon fill="#9a32cd" stroke="#9a32cd" points="365.0529,-154.1472 355.077,-157.7152 365.1006,-161.147 365.0529,-154.1472"/>
<text text-anchor="middle" x="406.5" y="-166" font-family="Helvetica,sans-Serif" font-size="10.00" fill="#000000"> domains_up</text>
</g>
<!-- Node11 -->
<g id="node11" class="node">
<title>Node11</title>
<g id="a_node11"><a xlink:href="group__dp__matrices.html#structvrna__mx__mfe__s" target="_top" xlink:title="Minimum Free Energy (MFE) Dynamic Programming (DP) matrices data structure required within the vrna_f...">
<polygon fill="none" stroke="#000000" points="241,-114.5 241,-133.5 327,-133.5 327,-114.5 241,-114.5"/>
<text text-anchor="middle" x="284" y="-121.5" font-family="Helvetica,sans-Serif" font-size="10.00" fill="#000000">vrna_mx_mfe_s</text>
</a>
</g>
</g>
<!-- Node11&#45;&gt;Node4 -->
<g id="edge12" class="edge">
<title>Node11&#45;&gt;Node4</title>
<path fill="none" stroke="#9a32cd" stroke-dasharray="5,2" d="M337.379,-123.6502C368.3413,-125.1035 407.5113,-129.8399 440,-143 454.7693,-148.9825 468.9584,-160.7949 477.9208,-169.2582"/>
<polygon fill="#9a32cd" stroke="#9a32cd" points="337.3369,-120.1464 327.2149,-123.2758 337.0792,-127.1417 337.3369,-120.1464"/>
<text text-anchor="middle" x="406.5" y="-146" font-family="Helvetica,sans-Serif" font-size="10.00" fill="#000000"> matrices</text>
</g>
<!-- Node12 -->
<g id="node12" class="node">
<title>Node12</title>
<g id="a_node12"><a xlink:href="structvrna__gr__aux__s.html" target="_top" xlink:title="vrna_gr_aux_s">
<polygon fill="none" stroke="#000000" points="244,-76.5 244,-95.5 324,-95.5 324,-76.5 244,-76.5"/>
<text text-anchor="middle" x="284" y="-83.5" font-family="Helvetica,sans-Serif" font-size="10.00" fill="#000000">vrna_gr_aux_s</text>
</a>
</g>
</g>
<!-- Node12&#45;&gt;Node4 -->
<g id="edge13" class="edge">
<title>Node12&#45;&gt;Node4</title>
<path fill="none" stroke="#9a32cd" stroke-dasharray="5,2" d="M334.3022,-84.7356C366.7059,-86.1364 408.5056,-92.2714 440,-112 462.2338,-125.9276 477.0451,-154.4466 483.6177,-169.3868"/>
<polygon fill="#9a32cd" stroke="#9a32cd" points="334.2354,-81.2323 324.1366,-84.436 334.0291,-88.2292 334.2354,-81.2323"/>
<text text-anchor="middle" x="406.5" y="-115" font-family="Helvetica,sans-Serif" font-size="10.00" fill="#000000"> aux_grammar</text>
</g>
<!-- Node13 -->
<g id="node13" class="node">
<title>Node13</title>
<g id="a_node13"><a xlink:href="group__dp__matrices.html#structvrna__mx__pf__s" target="_top" xlink:title="Partition function (PF) Dynamic Programming (DP) matrices data structure required within the vrna_fol...">
<polygon fill="none" stroke="#000000" points="245,-38.5 245,-57.5 323,-57.5 323,-38.5 245,-38.5"/>
<text text-anchor="middle" x="284" y="-45.5" font-family="Helvetica,sans-Serif" font-size="10.00" fill="#000000">vrna_mx_pf_s</text>
</a>
</g>
</g>
<!-- Node13&#45;&gt;Node4 -->
<g id="edge14" class="edge">
<title>Node13&#45;&gt;Node4</title>
<path fill="none" stroke="#9a32cd" stroke-dasharray="5,2" d="M333.69,-45.1571C366.9408,-45.7965 409.9497,-51.8282 440,-75 471.281,-99.1208 482.6323,-148.5847 486.1364,-169.4157"/>
<polygon fill="#9a32cd" stroke="#9a32cd" points="333.277,-41.6559 323.2659,-45.1241 333.2547,-48.6559 333.277,-41.6559"/>
<text text-anchor="middle" x="406.5" y="-78" font-family="Helvetica,sans-Serif" font-size="10.00" fill="#000000"> exp_matrices</text>
</g>
<!-- Node14 -->
<g id="node14" class="node">
<title>Node14</title>
<g id="a_node14"><a xlink:href="structvrna__structured__domains__s.html" target="_top" xlink:title="vrna_structured_domains_s">
<polygon fill="none" stroke="#000000" points="215.5,-.5 215.5,-19.5 352.5,-19.5 352.5,-.5 215.5,-.5"/>
<text text-anchor="middle" x="284" y="-7.5" font-family="Helvetica,sans-Serif" font-size="10.00" fill="#000000">vrna_structured_domains_s</text>
</a>
</g>
</g>
<!-- Node14&#45;&gt;Node4 -->
<g id="edge15" class="edge">
<title>Node14&#45;&gt;Node4</title>
<path fill="none" stroke="#9a32cd" stroke-dasharray="5,2" d="M363.0323,-6.0459C390.1105,-8.5733 418.8757,-16.0827 440,-34 461.4139,-52.1629 479.9361,-139.6832 485.6705,-169.2317"/>
<polygon fill="#9a32cd" stroke="#9a32cd" points="362.9809,-2.5333 352.7564,-5.3098 362.4808,-9.5154 362.9809,-2.5333"/>
<text text-anchor="middle" x="406.5" y="-37" font-family="Helvetica,sans-Serif" font-size="10.00" fill="#000000"> domains_struc</text>
</g>
</g>
</svg>
