<?xml version="1.0" encoding="UTF-8" standalone="no"?>
<!DOCTYPE svg PUBLIC "-//W3C//DTD SVG 1.1//EN"
 "http://www.w3.org/Graphics/SVG/1.1/DTD/svg11.dtd">
<!-- Generated by graphviz version 2.40.1 (20161225.0304)
 -->
<!-- Title: ViennaRNA/unstructured_domains.h Pages: 1 -->
<!--zoomable 352 -->
<svg id="main" version="1.1" xmlns="http://www.w3.org/2000/svg" xmlns:xlink="http://www.w3.org/1999/xlink" xml:space="preserve" onload="init(evt)">
<style type="text/css"><![CDATA[
.edge:hover path { stroke: red; }
.edge:hover polygon { stroke: red; fill: red; }
]]></style>
<script type="text/javascript"><![CDATA[
var edges = document.getElementsByTagName('g');
if (edges && edges.length) {
  for (var i=0;i<edges.length;i++) {
    if (edges[i].id.substr(0,4)=='edge') {
      edges[i].setAttribute('class','edge');
    }
  }
}
]]></script>
        <defs>
                <circle id="rim" cx="0" cy="0" r="7"/>
                <circle id="rim2" cx="0" cy="0" r="3.5"/>
                <g id="zoomPlus">
                        <use xlink:href="#rim" fill="#404040">
                                <set attributeName="fill" to="#808080" begin="zoomplus.mouseover" end="zoomplus.mouseout"/>
                        </use>
                        <path d="M-4,0h8M0,-4v8" fill="none" stroke="white" stroke-width="1.5" pointer-events="none"/>
                </g>
                <g id="zoomMin">
                        <use xlink:href="#rim" fill="#404040">
                                <set attributeName="fill" to="#808080" begin="zoomminus.mouseover" end="zoomminus.mouseout"/>
                        </use>
                        <path d="M-4,0h8" fill="none" stroke="white" stroke-width="1.5" pointer-events="none"/>
                </g>
                <g id="dirArrow">
                        <path fill="none" stroke="white" stroke-width="1.5" d="M0,-3.0v7 M-2.5,-0.5L0,-3.0L2.5,-0.5"/>
                </g>
               <g id="resetDef">
                       <use xlink:href="#rim2" fill="#404040">
                               <set attributeName="fill" to="#808080" begin="reset.mouseover" end="reset.mouseout"/>
                       </use>
               </g>
        </defs>

<script type="text/javascript">
var viewWidth = 1276;
var viewHeight = 352;
var sectionId = 'dynsection-0';
</script>
<script xlink:href="svgpan.js"/>
<svg id="graph" class="graph">
<g id="viewport">
<title>ViennaRNA/unstructured_domains.h</title>
<!-- Node0 -->
<g id="node1" class="node">
<title>Node0</title>
<polygon fill="#bfbfbf" stroke="#000000" points="543.5,-313.5 543.5,-343.5 667.5,-343.5 667.5,-313.5 543.5,-313.5"/>
<text text-anchor="start" x="551.5" y="-331.5" font-family="Helvetica,sans-Serif" font-size="10.00" fill="#000000">ViennaRNA/unstructured</text>
<text text-anchor="middle" x="605.5" y="-320.5" font-family="Helvetica,sans-Serif" font-size="10.00" fill="#000000">_domains.h</text>
</g>
<!-- Node1 -->
<g id="node2" class="node">
<title>Node1</title>
<g id="a_node2"><a xlink:href="data__structures_8h.html" target="_top" xlink:title="Various data structures and pre&#45;processor macros. ">
<polygon fill="none" stroke="#000000" points="532.5,-257.5 532.5,-276.5 678.5,-276.5 678.5,-257.5 532.5,-257.5"/>
<text text-anchor="middle" x="605.5" y="-264.5" font-family="Helvetica,sans-Serif" font-size="10.00" fill="#000000">ViennaRNA/data_structures.h</text>
</a>
</g>
</g>
<!-- Node0&#45;&gt;Node1 -->
<g id="edge1" class="edge">
<title>Node0&#45;&gt;Node1</title>
<path fill="none" stroke="#191970" d="M599.5843,-313.2977C598.6446,-305.2945 598.4987,-295.3843 599.1466,-286.7889"/>
<polygon fill="#191970" stroke="#191970" points="602.6218,-287.2044 600.3917,-276.8469 595.676,-286.3345 602.6218,-287.2044"/>
</g>
<!-- Node1&#45;&gt;Node0 -->
<g id="edge34" class="edge">
<title>Node1&#45;&gt;Node0</title>
<path fill="none" stroke="#191970" d="M610.6083,-276.8469C611.9704,-283.9883 612.4849,-293.9858 612.1519,-303.2849"/>
<polygon fill="#191970" stroke="#191970" points="608.6584,-303.068 611.4157,-313.2977 615.6396,-303.5813 608.6584,-303.068"/>
</g>
<!-- Node2 -->
<g id="node3" class="node">
<title>Node2</title>
<g id="a_node3"><a xlink:href="energy__const_8h.html" target="_top" xlink:title="Energy parameter constants. ">
<polygon fill="none" stroke="#000000" points="446,-62 446,-81 583,-81 583,-62 446,-62"/>
<text text-anchor="middle" x="514.5" y="-69" font-family="Helvetica,sans-Serif" font-size="10.00" fill="#000000">ViennaRNA/energy_const.h</text>
</a>
</g>
</g>
<!-- Node1&#45;&gt;Node2 -->
<g id="edge2" class="edge">
<title>Node1&#45;&gt;Node2</title>
<path fill="none" stroke="#191970" d="M609.1513,-257.3713C617.7847,-232.8733 636.8304,-167.005 610.5,-123 599.617,-104.8117 579.8655,-92.6784 561.0956,-84.7845"/>
<polygon fill="#191970" stroke="#191970" points="562.3023,-81.4985 551.7136,-81.1377 559.7662,-88.0229 562.3023,-81.4985"/>
</g>
<!-- Node4 -->
<g id="node5" class="node">
<title>Node4</title>
<g id="a_node5"><a xlink:href="fold__compound_8h.html" target="_top" xlink:title="The Basic Fold Compound API. ">
<polygon fill="none" stroke="#000000" points="253.5,-196 253.5,-215 397.5,-215 397.5,-196 253.5,-196"/>
<text text-anchor="middle" x="325.5" y="-203" font-family="Helvetica,sans-Serif" font-size="10.00" fill="#000000">ViennaRNA/fold_compound.h</text>
</a>
</g>
</g>
<!-- Node1&#45;&gt;Node4 -->
<g id="edge4" class="edge">
<title>Node1&#45;&gt;Node4</title>
<path fill="none" stroke="#191970" d="M562.0572,-257.4581C512.7044,-246.6181 432.1384,-228.9224 378.968,-217.2439"/>
<polygon fill="#191970" stroke="#191970" points="379.5628,-213.7911 369.0447,-215.0643 378.061,-220.6282 379.5628,-213.7911"/>
</g>
<!-- Node5 -->
<g id="node6" class="node">
<title>Node5</title>
<g id="a_node6"><a xlink:href="model_8h.html" target="_top" xlink:title="The model details data structure and its corresponding modifiers. ">
<polygon fill="none" stroke="#000000" points="323.5,-62 323.5,-81 427.5,-81 427.5,-62 323.5,-62"/>
<text text-anchor="middle" x="375.5" y="-69" font-family="Helvetica,sans-Serif" font-size="10.00" fill="#000000">ViennaRNA/model.h</text>
</a>
</g>
</g>
<!-- Node1&#45;&gt;Node5 -->
<g id="edge28" class="edge">
<title>Node1&#45;&gt;Node5</title>
<path fill="none" stroke="#191970" d="M595.1359,-257.2721C569.8118,-233.6175 502.54,-171.472 443.5,-123 428.2895,-110.5122 410.5468,-97.1117 396.9996,-87.1111"/>
<polygon fill="#191970" stroke="#191970" points="398.9048,-84.168 388.7718,-81.074 394.7637,-89.8117 398.9048,-84.168"/>
</g>
<!-- Node6 -->
<g id="node7" class="node">
<title>Node6</title>
<g id="a_node7"><a xlink:href="params_8h.html" target="_top" xlink:title="Functions to deal with sets of energy parameters. ">
<polygon fill="none" stroke="#000000" points="491.5,-129 491.5,-148 601.5,-148 601.5,-129 491.5,-129"/>
<text text-anchor="middle" x="546.5" y="-136" font-family="Helvetica,sans-Serif" font-size="10.00" fill="#000000">ViennaRNA/params.h</text>
</a>
</g>
</g>
<!-- Node1&#45;&gt;Node6 -->
<g id="edge29" class="edge">
<title>Node1&#45;&gt;Node6</title>
<path fill="none" stroke="#191970" d="M597.292,-257.3416C584.1411,-236.3184 560.6504,-186.0598 550.4833,-158.1038"/>
<polygon fill="#191970" stroke="#191970" points="553.6855,-156.6437 547.1941,-148.2705 547.0471,-158.8643 553.6855,-156.6437"/>
</g>
<!-- Node7 -->
<g id="node8" class="node">
<title>Node7</title>
<g id="a_node8"><a xlink:href="dp__matrices_8h.html" target="_top" xlink:title="Functions to deal with standard dynamic programming (DP) matrices. ">
<polygon fill="none" stroke="#000000" points="0,-129 0,-148 131,-148 131,-129 0,-129"/>
<text text-anchor="middle" x="65.5" y="-136" font-family="Helvetica,sans-Serif" font-size="10.00" fill="#000000">ViennaRNA/dp_matrices.h</text>
</a>
</g>
</g>
<!-- Node1&#45;&gt;Node7 -->
<g id="edge30" class="edge">
<title>Node1&#45;&gt;Node7</title>
<path fill="none" stroke="#191970" d="M532.3195,-262.1015C434.4007,-254.6756 266.6026,-239.4606 208.5,-221 159.3526,-205.3846 107.7351,-173.5883 81.8011,-154.3511"/>
<polygon fill="#191970" stroke="#191970" points="83.796,-151.4692 73.7452,-148.1175 79.5121,-157.0054 83.796,-151.4692"/>
</g>
<!-- Node8 -->
<g id="node9" class="node">
<title>Node8</title>
<g id="a_node9"><a xlink:href="constraints_8h.html" target="_top" xlink:title="Functions and data structures for constraining secondary structure predictions and evaluation...">
<polygon fill="none" stroke="#000000" points="733.5,-129 733.5,-148 859.5,-148 859.5,-129 733.5,-129"/>
<text text-anchor="middle" x="796.5" y="-136" font-family="Helvetica,sans-Serif" font-size="10.00" fill="#000000">ViennaRNA/constraints.h</text>
</a>
</g>
</g>
<!-- Node1&#45;&gt;Node8 -->
<g id="edge31" class="edge">
<title>Node1&#45;&gt;Node8</title>
<path fill="none" stroke="#191970" d="M632.2864,-257.48C654.5371,-249.9104 686.0444,-237.792 710.5,-221 736.9717,-202.8237 761.1092,-174.1053 777.4127,-155.7937"/>
<polygon fill="#191970" stroke="#191970" points="780.1917,-157.9401 784.3324,-148.1879 775.0139,-153.2294 780.1917,-157.9401"/>
</g>
<!-- Node14 -->
<g id="node15" class="node">
<title>Node14</title>
<g id="a_node15"><a xlink:href="grammar_8h.html" target="_top" xlink:title="Implementations for the RNA folding grammar. ">
<polygon fill="none" stroke="#000000" points="149.5,-129 149.5,-148 265.5,-148 265.5,-129 149.5,-129"/>
<text text-anchor="middle" x="207.5" y="-136" font-family="Helvetica,sans-Serif" font-size="10.00" fill="#000000">ViennaRNA/grammar.h</text>
</a>
</g>
</g>
<!-- Node1&#45;&gt;Node14 -->
<g id="edge32" class="edge">
<title>Node1&#45;&gt;Node14</title>
<path fill="none" stroke="#191970" d="M532.4689,-261.9829C431.3114,-254.1479 258.5927,-238.1208 235.5,-221 215.2613,-205.9951 205.8564,-177.3766 203.8739,-158.1127"/>
<polygon fill="#191970" stroke="#191970" points="207.369,-157.9032 203.5386,-148.025 200.3729,-158.1358 207.369,-157.9032"/>
</g>
<!-- Node15 -->
<g id="node16" class="node">
<title>Node15</title>
<g id="a_node16"><a xlink:href="structured__domains_8h.html" target="_top" xlink:title="This module provides interfaces that deal with additional structured domains in the folding grammar...">
<polygon fill="none" stroke="#000000" points="322,-123.5 322,-153.5 435,-153.5 435,-123.5 322,-123.5"/>
<text text-anchor="start" x="330" y="-141.5" font-family="Helvetica,sans-Serif" font-size="10.00" fill="#000000">ViennaRNA/structured</text>
<text text-anchor="middle" x="378.5" y="-130.5" font-family="Helvetica,sans-Serif" font-size="10.00" fill="#000000">_domains.h</text>
</a>
</g>
</g>
<!-- Node1&#45;&gt;Node15 -->
<g id="edge33" class="edge">
<title>Node1&#45;&gt;Node15</title>
<path fill="none" stroke="#191970" d="M544.6743,-257.4957C514.32,-250.7333 478.0817,-239.4598 449.5,-221 426.0366,-205.8459 405.9982,-180.6875 393.252,-162.1297"/>
<polygon fill="#191970" stroke="#191970" points="396.0479,-160.0132 387.5975,-153.6225 390.2182,-163.8881 396.0479,-160.0132"/>
</g>
<!-- Node16 -->
<g id="node17" class="node">
<title>Node16</title>
<g id="a_node17"><a xlink:href="structure__utils_8h.html" target="_top" xlink:title="Various utility&#45; and helper&#45;functions for secondary structure parsing, converting, etc. ">
<polygon fill="none" stroke="#000000" points="789.5,-190.5 789.5,-220.5 897.5,-220.5 897.5,-190.5 789.5,-190.5"/>
<text text-anchor="start" x="797.5" y="-208.5" font-family="Helvetica,sans-Serif" font-size="10.00" fill="#000000">ViennaRNA/structure</text>
<text text-anchor="middle" x="843.5" y="-197.5" font-family="Helvetica,sans-Serif" font-size="10.00" fill="#000000">_utils.h</text>
</a>
</g>
</g>
<!-- Node1&#45;&gt;Node16 -->
<g id="edge35" class="edge">
<title>Node1&#45;&gt;Node16</title>
<path fill="none" stroke="#191970" d="M637.625,-257.3906C673.9419,-247.5079 733.7632,-231.9787 779.6334,-220.4815"/>
<polygon fill="#191970" stroke="#191970" points="780.6367,-223.8385 789.4905,-218.0196 778.9404,-217.0471 780.6367,-223.8385"/>
</g>
<!-- Node3 -->
<g id="node4" class="node">
<title>Node3</title>
<polygon fill="none" stroke="#bfbfbf" points="490.5,-.5 490.5,-19.5 538.5,-19.5 538.5,-.5 490.5,-.5"/>
<text text-anchor="middle" x="514.5" y="-7.5" font-family="Helvetica,sans-Serif" font-size="10.00" fill="#000000">limits.h</text>
</g>
<!-- Node2&#45;&gt;Node3 -->
<g id="edge3" class="edge">
<title>Node2&#45;&gt;Node3</title>
<path fill="none" stroke="#191970" d="M514.5,-61.8906C514.5,-53.3657 514.5,-40.6392 514.5,-29.9235"/>
<polygon fill="#191970" stroke="#191970" points="518.0001,-29.7448 514.5,-19.7449 511.0001,-29.7449 518.0001,-29.7448"/>
</g>
<!-- Node4&#45;&gt;Node0 -->
<g id="edge27" class="edge">
<title>Node4&#45;&gt;Node0</title>
<path fill="none" stroke="#191970" d="M347.2381,-215.0493C393.2087,-235.2435 501.0395,-282.612 561.8305,-309.3166"/>
<polygon fill="#191970" stroke="#191970" points="560.6032,-312.6003 571.1665,-313.4178 563.4186,-306.1914 560.6032,-312.6003"/>
</g>
<!-- Node4&#45;&gt;Node5 -->
<g id="edge5" class="edge">
<title>Node4&#45;&gt;Node5</title>
<path fill="none" stroke="#191970" d="M320.5239,-195.8343C313.0438,-179.8779 300.9456,-147.3689 312.5,-123 319.8271,-107.5467 334.3132,-95.1919 347.5488,-86.461"/>
<polygon fill="#191970" stroke="#191970" points="349.731,-89.2275 356.4087,-81.0019 346.059,-83.2679 349.731,-89.2275"/>
</g>
<!-- Node4&#45;&gt;Node6 -->
<g id="edge6" class="edge">
<title>Node4&#45;&gt;Node6</title>
<path fill="none" stroke="#191970" d="M357.1639,-195.9005C396.14,-184.0843 462.4208,-163.9901 505.3196,-150.9845"/>
<polygon fill="#191970" stroke="#191970" points="506.3404,-154.3325 514.8948,-148.0817 504.3095,-147.6335 506.3404,-154.3325"/>
</g>
<!-- Node4&#45;&gt;Node7 -->
<g id="edge10" class="edge">
<title>Node4&#45;&gt;Node7</title>
<path fill="none" stroke="#191970" d="M288.5245,-195.9717C242.2591,-184.0495 162.9838,-163.6208 112.4699,-150.6038"/>
<polygon fill="#191970" stroke="#191970" points="113.326,-147.2101 102.7689,-148.1039 111.5792,-153.9887 113.326,-147.2101"/>
</g>
<!-- Node4&#45;&gt;Node8 -->
<g id="edge12" class="edge">
<title>Node4&#45;&gt;Node8</title>
<path fill="none" stroke="#191970" d="M392.4826,-195.9717C479.9976,-183.5226 632.7133,-161.7987 723.2283,-148.9229"/>
<polygon fill="#191970" stroke="#191970" points="723.7315,-152.3867 733.1389,-147.5132 722.7456,-145.4564 723.7315,-152.3867"/>
</g>
<!-- Node4&#45;&gt;Node14 -->
<g id="edge24" class="edge">
<title>Node4&#45;&gt;Node14</title>
<path fill="none" stroke="#191970" d="M308.5935,-195.9005C288.878,-184.7062 256.0778,-166.0823 233.2041,-153.0947"/>
<polygon fill="#191970" stroke="#191970" points="234.7993,-149.9757 224.3752,-148.0817 231.343,-156.0629 234.7993,-149.9757"/>
</g>
<!-- Node4&#45;&gt;Node15 -->
<g id="edge26" class="edge">
<title>Node4&#45;&gt;Node15</title>
<path fill="none" stroke="#191970" d="M333.0936,-195.9005C340.1416,-186.9908 350.9125,-173.3748 360.1953,-161.6399"/>
<polygon fill="#191970" stroke="#191970" points="363.158,-163.536 366.6171,-153.5218 357.668,-159.1932 363.158,-163.536"/>
</g>
<!-- Node6&#45;&gt;Node1 -->
<g id="edge8" class="edge">
<title>Node6&#45;&gt;Node1</title>
<path fill="none" stroke="#191970" d="M554.778,-148.2705C567.9655,-169.3972 591.4509,-219.6679 601.5707,-247.5446"/>
<polygon fill="#191970" stroke="#191970" points="598.3542,-248.9631 604.8388,-257.3416 604.9945,-246.7479 598.3542,-248.9631"/>
</g>
<!-- Node6&#45;&gt;Node2 -->
<g id="edge7" class="edge">
<title>Node6&#45;&gt;Node2</title>
<path fill="none" stroke="#191970" d="M541.9152,-128.9005C537.1152,-118.8505 529.4551,-102.8122 523.4506,-90.2403"/>
<polygon fill="#191970" stroke="#191970" points="526.5444,-88.5968 519.0763,-81.0817 520.2279,-91.6137 526.5444,-88.5968"/>
</g>
<!-- Node6&#45;&gt;Node5 -->
<g id="edge9" class="edge">
<title>Node6&#45;&gt;Node5</title>
<path fill="none" stroke="#191970" d="M521.9999,-128.9005C492.4133,-117.3082 442.4926,-97.7486 409.2695,-84.7313"/>
<polygon fill="#191970" stroke="#191970" points="410.5424,-81.471 399.9547,-81.0817 407.9887,-87.9886 410.5424,-81.471"/>
</g>
<!-- Node7&#45;&gt;Node1 -->
<g id="edge11" class="edge">
<title>Node7&#45;&gt;Node1</title>
<path fill="none" stroke="#191970" d="M84.1515,-148.1175C113.529,-165.8655 171.5579,-203.5435 226.5,-221 280.2208,-238.0685 427.7159,-252.3623 522.126,-260.2905"/>
<polygon fill="#191970" stroke="#191970" points="521.9716,-263.7897 532.2275,-261.1316 522.5525,-256.8138 521.9716,-263.7897"/>
</g>
<!-- Node8&#45;&gt;Node1 -->
<g id="edge13" class="edge">
<title>Node8&#45;&gt;Node1</title>
<path fill="none" stroke="#191970" d="M795.0891,-148.1879C786.448,-165.0613 759.0259,-200.04 728.5,-221 707.1013,-235.693 680.3038,-246.8078 657.1022,-254.4279"/>
<polygon fill="#191970" stroke="#191970" points="655.893,-251.1392 647.4051,-257.48 657.9946,-257.8163 655.893,-251.1392"/>
</g>
<!-- Node9 -->
<g id="node10" class="node">
<title>Node9</title>
<g id="a_node10"><a xlink:href="constraints__hard_8h.html" target="_top" xlink:title="Functions and data structures for handling of secondary structure hard constraints. ">
<polygon fill="none" stroke="#000000" points="601.5,-56.5 601.5,-86.5 719.5,-86.5 719.5,-56.5 601.5,-56.5"/>
<text text-anchor="start" x="609.5" y="-74.5" font-family="Helvetica,sans-Serif" font-size="10.00" fill="#000000">ViennaRNA/constraints</text>
<text text-anchor="middle" x="660.5" y="-63.5" font-family="Helvetica,sans-Serif" font-size="10.00" fill="#000000">_hard.h</text>
</a>
</g>
</g>
<!-- Node8&#45;&gt;Node9 -->
<g id="edge14" class="edge">
<title>Node8&#45;&gt;Node9</title>
<path fill="none" stroke="#191970" d="M777.0145,-128.9005C756.9977,-119.0393 725.2782,-103.4128 699.9858,-90.9526"/>
<polygon fill="#191970" stroke="#191970" points="701.5092,-87.8014 690.9919,-86.5218 698.4157,-94.0808 701.5092,-87.8014"/>
</g>
<!-- Node10 -->
<g id="node11" class="node">
<title>Node10</title>
<g id="a_node11"><a xlink:href="constraints__soft_8h.html" target="_top" xlink:title="Functions and data structures for secondary structure soft constraints. ">
<polygon fill="none" stroke="#000000" points="737.5,-56.5 737.5,-86.5 855.5,-86.5 855.5,-56.5 737.5,-56.5"/>
<text text-anchor="start" x="745.5" y="-74.5" font-family="Helvetica,sans-Serif" font-size="10.00" fill="#000000">ViennaRNA/constraints</text>
<text text-anchor="middle" x="796.5" y="-63.5" font-family="Helvetica,sans-Serif" font-size="10.00" fill="#000000">_soft.h</text>
</a>
</g>
</g>
<!-- Node8&#45;&gt;Node10 -->
<g id="edge16" class="edge">
<title>Node8&#45;&gt;Node10</title>
<path fill="none" stroke="#191970" d="M796.5,-128.9005C796.5,-120.5099 796.5,-107.9451 796.5,-96.7085"/>
<polygon fill="#191970" stroke="#191970" points="800.0001,-96.5217 796.5,-86.5218 793.0001,-96.5218 800.0001,-96.5217"/>
</g>
<!-- Node11 -->
<g id="node12" class="node">
<title>Node11</title>
<g id="a_node12"><a xlink:href="constraints__SHAPE_8h.html" target="_top" xlink:title="This module provides function to incorporate SHAPE reactivity data into the folding recursions by mea...">
<polygon fill="none" stroke="#000000" points="873.5,-56.5 873.5,-86.5 991.5,-86.5 991.5,-56.5 873.5,-56.5"/>
<text text-anchor="start" x="881.5" y="-74.5" font-family="Helvetica,sans-Serif" font-size="10.00" fill="#000000">ViennaRNA/constraints</text>
<text text-anchor="middle" x="932.5" y="-63.5" font-family="Helvetica,sans-Serif" font-size="10.00" fill="#000000">_SHAPE.h</text>
</a>
</g>
</g>
<!-- Node8&#45;&gt;Node11 -->
<g id="edge18" class="edge">
<title>Node8&#45;&gt;Node11</title>
<path fill="none" stroke="#191970" d="M815.9855,-128.9005C836.0023,-119.0393 867.7218,-103.4128 893.0142,-90.9526"/>
<polygon fill="#191970" stroke="#191970" points="894.5843,-94.0808 902.0081,-86.5218 891.4908,-87.8014 894.5843,-94.0808"/>
</g>
<!-- Node12 -->
<g id="node13" class="node">
<title>Node12</title>
<g id="a_node13"><a xlink:href="perturbation__fold_8h.html" target="_top" xlink:title="Find a vector of perturbation energies that minimizes the discripancies between predicted and observe...">
<polygon fill="none" stroke="#000000" points="1010,-56.5 1010,-86.5 1131,-86.5 1131,-56.5 1010,-56.5"/>
<text text-anchor="start" x="1018" y="-74.5" font-family="Helvetica,sans-Serif" font-size="10.00" fill="#000000">ViennaRNA/perturbation</text>
<text text-anchor="middle" x="1070.5" y="-63.5" font-family="Helvetica,sans-Serif" font-size="10.00" fill="#000000">_fold.h</text>
</a>
</g>
</g>
<!-- Node8&#45;&gt;Node12 -->
<g id="edge20" class="edge">
<title>Node8&#45;&gt;Node12</title>
<path fill="none" stroke="#191970" d="M835.4665,-128.9717C878.2174,-118.518 947.7135,-101.5244 1000.0714,-88.7216"/>
<polygon fill="#191970" stroke="#191970" points="1001.0869,-92.0765 1009.9693,-86.3013 999.4241,-85.2768 1001.0869,-92.0765"/>
</g>
<!-- Node13 -->
<g id="node14" class="node">
<title>Node13</title>
<g id="a_node14"><a xlink:href="constraints__ligand_8h.html" target="_top" xlink:title="Functions for incorporation of ligands binding to hairpin and interior loop motifs using the soft con...">
<polygon fill="none" stroke="#000000" points="1149.5,-56.5 1149.5,-86.5 1267.5,-86.5 1267.5,-56.5 1149.5,-56.5"/>
<text text-anchor="start" x="1157.5" y="-74.5" font-family="Helvetica,sans-Serif" font-size="10.00" fill="#000000">ViennaRNA/constraints</text>
<text text-anchor="middle" x="1208.5" y="-63.5" font-family="Helvetica,sans-Serif" font-size="10.00" fill="#000000">_ligand.h</text>
</a>
</g>
</g>
<!-- Node8&#45;&gt;Node13 -->
<g id="edge22" class="edge">
<title>Node8&#45;&gt;Node13</title>
<path fill="none" stroke="#191970" d="M837.8889,-128.994C847.881,-126.8642 858.5475,-124.727 868.5,-123 985.4797,-102.701 1018.7403,-108.2537 1139.2426,-87.1264"/>
<polygon fill="#191970" stroke="#191970" points="1139.9955,-90.5475 1149.228,-85.3501 1138.7695,-83.6556 1139.9955,-90.5475"/>
</g>
<!-- Node9&#45;&gt;Node1 -->
<g id="edge15" class="edge">
<title>Node9&#45;&gt;Node1</title>
<path fill="none" stroke="#191970" d="M661.5427,-86.6388C662.8725,-114.4617 663.0137,-175.081 643.5,-221 638.9422,-231.7252 631.0518,-241.9074 623.638,-249.9527"/>
<polygon fill="#191970" stroke="#191970" points="621.0139,-247.63 616.5241,-257.2265 626.0184,-252.5245 621.0139,-247.63"/>
</g>
<!-- Node10&#45;&gt;Node1 -->
<g id="edge17" class="edge">
<title>Node10&#45;&gt;Node1</title>
<path fill="none" stroke="#191970" d="M770.6707,-86.5622C756.061,-95.8746 738.061,-108.7496 724.5,-123 688.8052,-160.5095 695.923,-182.32 661.5,-221 651.468,-232.2726 638.5442,-243.0796 627.6403,-251.3829"/>
<polygon fill="#191970" stroke="#191970" points="625.3774,-248.7033 619.4224,-257.4663 629.5423,-254.3295 625.3774,-248.7033"/>
</g>
<!-- Node11&#45;&gt;Node1 -->
<g id="edge19" class="edge">
<title>Node11&#45;&gt;Node1</title>
<path fill="none" stroke="#191970" d="M935.522,-86.9624C940.6197,-118.2194 946.7752,-188.6875 906.5,-221 873.7962,-247.2381 766.0513,-258.6217 688.8192,-263.4855"/>
<polygon fill="#191970" stroke="#191970" points="688.3814,-260.0055 678.6106,-264.1019 688.8034,-266.9927 688.3814,-260.0055"/>
</g>
<!-- Node12&#45;&gt;Node1 -->
<g id="edge21" class="edge">
<title>Node12&#45;&gt;Node1</title>
<path fill="none" stroke="#191970" d="M1061.523,-86.5136C1042.0539,-117.5761 992.6537,-188.6893 930.5,-221 889.6071,-242.2582 770.6396,-255.0172 688.5861,-261.5304"/>
<polygon fill="#191970" stroke="#191970" points="688.2186,-258.0484 678.52,-262.313 688.7612,-265.0273 688.2186,-258.0484"/>
</g>
<!-- Node13&#45;&gt;Node1 -->
<g id="edge23" class="edge">
<title>Node13&#45;&gt;Node1</title>
<path fill="none" stroke="#191970" d="M1190.0955,-86.7238C1151.3338,-117.8592 1057.2813,-188.6043 965.5,-221 916.0842,-238.4421 778.8964,-252.6386 688.8615,-260.4433"/>
<polygon fill="#191970" stroke="#191970" points="688.3341,-256.9756 678.6697,-261.317 688.9321,-263.95 688.3341,-256.9756"/>
</g>
<!-- Node14&#45;&gt;Node1 -->
<g id="edge25" class="edge">
<title>Node14&#45;&gt;Node1</title>
<path fill="none" stroke="#191970" d="M213.9448,-148.025C220.5821,-165.6188 229.2892,-203.0502 253.5,-221 274.9149,-236.8769 425.0041,-251.8132 522.2141,-260.1482"/>
<polygon fill="#191970" stroke="#191970" points="522.0674,-263.6482 532.328,-261.008 522.6604,-256.6734 522.0674,-263.6482"/>
</g>
<!-- Node16&#45;&gt;Node1 -->
<g id="edge37" class="edge">
<title>Node16&#45;&gt;Node1</title>
<path fill="none" stroke="#191970" d="M791.0488,-220.5784C751.233,-231.1926 696.8567,-245.2067 657.2179,-255.05"/>
<polygon fill="#191970" stroke="#191970" points="656.3436,-251.6607 647.4757,-257.4581 658.0234,-258.4562 656.3436,-251.6607"/>
</g>
<!-- Node17 -->
<g id="node18" class="node">
<title>Node17</title>
<polygon fill="none" stroke="#bfbfbf" points="877.5,-129 877.5,-148 923.5,-148 923.5,-129 877.5,-129"/>
<text text-anchor="middle" x="900.5" y="-136" font-family="Helvetica,sans-Serif" font-size="10.00" fill="#000000">stdio.h</text>
</g>
<!-- Node16&#45;&gt;Node17 -->
<g id="edge36" class="edge">
<title>Node16&#45;&gt;Node17</title>
<path fill="none" stroke="#191970" d="M856.4342,-190.2967C865.1426,-180.0605 876.648,-166.5366 885.7186,-155.8746"/>
<polygon fill="#191970" stroke="#191970" points="888.5571,-157.9395 892.3711,-148.055 883.2255,-153.4036 888.5571,-157.9395"/>
</g>
</g>
</svg>
        <g id="navigator" transform="translate(0 0)" fill="#404254">
                <rect fill="#f2f5e9" fill-opacity="0.5" stroke="#606060" stroke-width=".5" x="0" y="0" width="60" height="60"/>
                <use id="zoomplus" xlink:href="#zoomPlus" x="17" y="9" onmousedown="handleZoom(evt,'in')"/>
                <use id="zoomminus" xlink:href="#zoomMin" x="42" y="9" onmousedown="handleZoom(evt,'out')"/>
                <use id="reset" xlink:href="#resetDef" x="30" y="36" onmousedown="handleReset()"/>
                <g id="arrowUp" xlink:href="#dirArrow" transform="translate(30 24)" onmousedown="handlePan(0,-1)">
                  <use xlink:href="#rim" fill="#404040">
                        <set attributeName="fill" to="#808080" begin="arrowUp.mouseover" end="arrowUp.mouseout"/>
                  </use>
                  <path fill="none" stroke="white" stroke-width="1.5" d="M0,-3.0v7 M-2.5,-0.5L0,-3.0L2.5,-0.5"/>
                </g>
                <g id="arrowRight" xlink:href="#dirArrow" transform="rotate(90) translate(36 -43)" onmousedown="handlePan(1,0)">
                  <use xlink:href="#rim" fill="#404040">
                        <set attributeName="fill" to="#808080" begin="arrowRight.mouseover" end="arrowRight.mouseout"/>
                  </use>
                  <path fill="none" stroke="white" stroke-width="1.5" d="M0,-3.0v7 M-2.5,-0.5L0,-3.0L2.5,-0.5"/>
                </g>
                <g id="arrowDown" xlink:href="#dirArrow" transform="rotate(180) translate(-30 -48)" onmousedown="handlePan(0,1)">
                  <use xlink:href="#rim" fill="#404040">
                        <set attributeName="fill" to="#808080" begin="arrowDown.mouseover" end="arrowDown.mouseout"/>
                  </use>
                  <path fill="none" stroke="white" stroke-width="1.5" d="M0,-3.0v7 M-2.5,-0.5L0,-3.0L2.5,-0.5"/>
                </g>
                <g id="arrowLeft" xlink:href="#dirArrow" transform="rotate(270) translate(-36 17)" onmousedown="handlePan(-1,0)">
                  <use xlink:href="#rim" fill="#404040">
                        <set attributeName="fill" to="#808080" begin="arrowLeft.mouseover" end="arrowLeft.mouseout"/>
                  </use>
                  <path fill="none" stroke="white" stroke-width="1.5" d="M0,-3.0v7 M-2.5,-0.5L0,-3.0L2.5,-0.5"/>
                </g>
        </g>
        <svg viewBox="0 0 15 15" width="100%" height="30px" preserveAspectRatio="xMaxYMin meet">
         <g id="arrow_out" transform="scale(0.3 0.3)">
          <a xlink:href="unstructured__domains_8h__incl_org.svg" target="_base">
           <rect id="button" ry="5" rx="5" y="6" x="6" height="38" width="38"
                fill="#f2f5e9" fill-opacity="0.5" stroke="#606060" stroke-width="1.0"/>
           <path id="arrow"
             d="M 11.500037,31.436501 C 11.940474,20.09759 22.043105,11.32322 32.158766,21.979434 L 37.068811,17.246167 C 37.068811,17.246167 37.088388,32 37.088388,32 L 22.160133,31.978069 C 22.160133,31.978069 26.997745,27.140456 26.997745,27.140456 C 18.528582,18.264221 13.291696,25.230495 11.500037,31.436501 z"
             style="fill:#404040;"/>
          </a>
         </g>
        </svg>
</svg>
