<?xml version="1.0" encoding="UTF-8" standalone="no"?>
<!DOCTYPE svg PUBLIC "-//W3C//DTD SVG 1.1//EN"
 "http://www.w3.org/Graphics/SVG/1.1/DTD/svg11.dtd">
<!-- Generated by graphviz version 2.40.1 (20161225.0304)
 -->
<!-- Title: ViennaRNA/utils.h Pages: 1 -->
<svg width="1344pt" height="397pt"
 viewBox="0.00 0.00 1343.57 397.00" xmlns="http://www.w3.org/2000/svg" xmlns:xlink="http://www.w3.org/1999/xlink">
<g id="graph0" class="graph" transform="scale(1 1) rotate(0) translate(4 393)">
<title>ViennaRNA/utils.h</title>
<!-- Node0 -->
<g id="node1" class="node">
<title>Node0</title>
<polygon fill="#bfbfbf" stroke="#000000" points="756.5667,-369.5 756.5667,-388.5 852.5667,-388.5 852.5667,-369.5 756.5667,-369.5"/>
<text text-anchor="middle" x="804.5667" y="-376.5" font-family="Helvetica,sans-Serif" font-size="10.00" fill="#000000">ViennaRNA/utils.h</text>
</g>
<!-- Node1 -->
<g id="node2" class="node">
<title>Node1</title>
<polygon fill="none" stroke="#bfbfbf" points="1229.5667,-129 1229.5667,-148 1275.5667,-148 1275.5667,-129 1229.5667,-129"/>
<text text-anchor="middle" x="1252.5667" y="-136" font-family="Helvetica,sans-Serif" font-size="10.00" fill="#000000">stdio.h</text>
</g>
<!-- Node0&#45;&gt;Node1 -->
<g id="edge1" class="edge">
<title>Node0&#45;&gt;Node1</title>
<path fill="none" stroke="#191970" d="M852.7843,-370.3271C962.6606,-349.4537 1225.8992,-292.7885 1274.5667,-221 1287.6909,-201.6407 1276.2803,-174.806 1265.5926,-157.0645"/>
<polygon fill="#191970" stroke="#191970" points="1268.2601,-154.7441 1259.8898,-148.2488 1262.3827,-158.5462 1268.2601,-154.7441"/>
</g>
<!-- Node2 -->
<g id="node3" class="node">
<title>Node2</title>
<polygon fill="none" stroke="#bfbfbf" points="596.5667,-257.5 596.5667,-276.5 648.5667,-276.5 648.5667,-257.5 596.5667,-257.5"/>
<text text-anchor="middle" x="622.5667" y="-264.5" font-family="Helvetica,sans-Serif" font-size="10.00" fill="#000000">stdarg.h</text>
</g>
<!-- Node0&#45;&gt;Node2 -->
<g id="edge2" class="edge">
<title>Node0&#45;&gt;Node2</title>
<path fill="none" stroke="#191970" d="M756.421,-370.7526C714.4331,-362.6314 657.7746,-349.1231 641.5667,-333 629.3066,-320.8041 624.8398,-301.2438 623.2709,-286.5778"/>
<polygon fill="#191970" stroke="#191970" points="626.7562,-286.2459 622.555,-276.5196 619.7739,-286.7429 626.7562,-286.2459"/>
</g>
<!-- Node3 -->
<g id="node4" class="node">
<title>Node3</title>
<g id="a_node4"><a xlink:href="data__structures_8h.html" target="_top" xlink:title="Various data structures and pre&#45;processor macros. ">
<polygon fill="none" stroke="#000000" points="666.5667,-257.5 666.5667,-276.5 812.5667,-276.5 812.5667,-257.5 666.5667,-257.5"/>
<text text-anchor="middle" x="739.5667" y="-264.5" font-family="Helvetica,sans-Serif" font-size="10.00" fill="#000000">ViennaRNA/data_structures.h</text>
</a>
</g>
</g>
<!-- Node0&#45;&gt;Node3 -->
<g id="edge3" class="edge">
<title>Node0&#45;&gt;Node3</title>
<path fill="none" stroke="#191970" d="M803.3527,-369.444C801.3225,-356.0487 796.3483,-331.2817 785.5667,-313 778.9778,-301.8277 769.0431,-291.4219 760.0905,-283.3433"/>
<polygon fill="#191970" stroke="#191970" points="762.1348,-280.4853 752.269,-276.6232 757.573,-285.7948 762.1348,-280.4853"/>
</g>
<!-- Node19 -->
<g id="node20" class="node">
<title>Node19</title>
<g id="a_node20"><a xlink:href="structure__utils_8h.html" target="_top" xlink:title="Various utility&#45; and helper&#45;functions for secondary structure parsing, converting, etc. ">
<polygon fill="none" stroke="#000000" points="1157.5667,-190.5 1157.5667,-220.5 1265.5667,-220.5 1265.5667,-190.5 1157.5667,-190.5"/>
<text text-anchor="start" x="1165.5667" y="-208.5" font-family="Helvetica,sans-Serif" font-size="10.00" fill="#000000">ViennaRNA/structure</text>
<text text-anchor="middle" x="1211.5667" y="-197.5" font-family="Helvetica,sans-Serif" font-size="10.00" fill="#000000">_utils.h</text>
</a>
</g>
</g>
<!-- Node0&#45;&gt;Node19 -->
<g id="edge44" class="edge">
<title>Node0&#45;&gt;Node19</title>
<path fill="none" stroke="#191970" d="M810.3171,-369.4189C819.4165,-355.0649 838.4912,-328.0596 861.5667,-313 909.0432,-282.0157 1060.2839,-242.0184 1147.6374,-220.6112"/>
<polygon fill="#191970" stroke="#191970" points="1148.5565,-223.9897 1157.4428,-218.2206 1146.8983,-217.189 1148.5565,-223.9897"/>
</g>
<!-- Node20 -->
<g id="node21" class="node">
<title>Node20</title>
<g id="a_node21"><a xlink:href="string__utils_8h.html" target="_top" xlink:title="General utility&#45; and helper&#45;functions for RNA sequence and structure strings used throughout the Vien...">
<polygon fill="none" stroke="#000000" points="651.0667,-313.5 651.0667,-332.5 776.0667,-332.5 776.0667,-313.5 651.0667,-313.5"/>
<text text-anchor="middle" x="713.5667" y="-320.5" font-family="Helvetica,sans-Serif" font-size="10.00" fill="#000000">ViennaRNA/string_utils.h</text>
</a>
</g>
</g>
<!-- Node0&#45;&gt;Node20 -->
<g id="edge41" class="edge">
<title>Node0&#45;&gt;Node20</title>
<path fill="none" stroke="#191970" d="M788.7157,-369.2455C774.7535,-360.6534 754.1939,-348.0014 738.1071,-338.1018"/>
<polygon fill="#191970" stroke="#191970" points="739.587,-334.9029 729.236,-332.6427 735.9183,-340.8645 739.587,-334.9029"/>
</g>
<!-- Node21 -->
<g id="node22" class="node">
<title>Node21</title>
<g id="a_node22"><a xlink:href="file__utils_8h.html" target="_top" xlink:title="Several utilities for file handling. ">
<polygon fill="none" stroke="#000000" points="870.5667,-313.5 870.5667,-332.5 984.5667,-332.5 984.5667,-313.5 870.5667,-313.5"/>
<text text-anchor="middle" x="927.5667" y="-320.5" font-family="Helvetica,sans-Serif" font-size="10.00" fill="#000000">ViennaRNA/file_utils.h</text>
</a>
</g>
</g>
<!-- Node0&#45;&gt;Node21 -->
<g id="edge45" class="edge">
<title>Node0&#45;&gt;Node21</title>
<path fill="none" stroke="#191970" d="M825.7111,-369.3733C845.4558,-360.3838 875.1365,-346.8706 897.3722,-336.7471"/>
<polygon fill="#191970" stroke="#191970" points="899.0473,-339.8302 906.6981,-332.5011 896.1467,-333.4594 899.0473,-339.8302"/>
</g>
<!-- Node22 -->
<g id="node23" class="node">
<title>Node22</title>
<g id="a_node23"><a xlink:href="alphabet_8h.html" target="_top" xlink:title="Functions to process, convert, and generally handle different nucleotide and/or base pair alphabets...">
<polygon fill="none" stroke="#000000" points="85.0667,-257.5 85.0667,-276.5 200.0667,-276.5 200.0667,-257.5 85.0667,-257.5"/>
<text text-anchor="middle" x="142.5667" y="-264.5" font-family="Helvetica,sans-Serif" font-size="10.00" fill="#000000">ViennaRNA/alphabet.h</text>
</a>
</g>
</g>
<!-- Node0&#45;&gt;Node22 -->
<g id="edge46" class="edge">
<title>Node0&#45;&gt;Node22</title>
<path fill="none" stroke="#191970" d="M756.424,-370.855C639.8522,-351.1329 342.2348,-300.7807 208.9115,-278.2245"/>
<polygon fill="#191970" stroke="#191970" points="209.2759,-274.7365 198.8321,-276.5192 208.1081,-281.6384 209.2759,-274.7365"/>
</g>
<!-- Node4 -->
<g id="node5" class="node">
<title>Node4</title>
<g id="a_node5"><a xlink:href="energy__const_8h.html" target="_top" xlink:title="Energy parameter constants. ">
<polygon fill="none" stroke="#000000" points="501.0667,-62 501.0667,-81 638.0667,-81 638.0667,-62 501.0667,-62"/>
<text text-anchor="middle" x="569.5667" y="-69" font-family="Helvetica,sans-Serif" font-size="10.00" fill="#000000">ViennaRNA/energy_const.h</text>
</a>
</g>
</g>
<!-- Node3&#45;&gt;Node4 -->
<g id="edge4" class="edge">
<title>Node3&#45;&gt;Node4</title>
<path fill="none" stroke="#191970" d="M732.9475,-257.457C716.2882,-233.6988 670.7892,-170.4029 626.5667,-123 614.8534,-110.4443 600.5046,-97.4916 589.1339,-87.717"/>
<polygon fill="#191970" stroke="#191970" points="591.3521,-85.009 581.4609,-81.2123 586.8256,-90.3486 591.3521,-85.009"/>
</g>
<!-- Node6 -->
<g id="node7" class="node">
<title>Node6</title>
<g id="a_node7"><a xlink:href="fold__compound_8h.html" target="_top" xlink:title="The Basic Fold Compound API. ">
<polygon fill="none" stroke="#000000" points="426.5667,-196 426.5667,-215 570.5667,-215 570.5667,-196 426.5667,-196"/>
<text text-anchor="middle" x="498.5667" y="-203" font-family="Helvetica,sans-Serif" font-size="10.00" fill="#000000">ViennaRNA/fold_compound.h</text>
</a>
</g>
</g>
<!-- Node3&#45;&gt;Node6 -->
<g id="edge6" class="edge">
<title>Node3&#45;&gt;Node6</title>
<path fill="none" stroke="#191970" d="M702.1749,-257.4581C660.1377,-246.7308 591.7907,-229.2895 546.0221,-217.61"/>
<polygon fill="#191970" stroke="#191970" points="546.6012,-214.1457 536.0462,-215.0643 544.8703,-220.9283 546.6012,-214.1457"/>
</g>
<!-- Node7 -->
<g id="node8" class="node">
<title>Node7</title>
<g id="a_node8"><a xlink:href="model_8h.html" target="_top" xlink:title="The model details data structure and its corresponding modifiers. ">
<polygon fill="none" stroke="#000000" points="183.5667,-62 183.5667,-81 287.5667,-81 287.5667,-62 183.5667,-62"/>
<text text-anchor="middle" x="235.5667" y="-69" font-family="Helvetica,sans-Serif" font-size="10.00" fill="#000000">ViennaRNA/model.h</text>
</a>
</g>
</g>
<!-- Node3&#45;&gt;Node7 -->
<g id="edge31" class="edge">
<title>Node3&#45;&gt;Node7</title>
<path fill="none" stroke="#191970" d="M666.2643,-257.9235C663.3277,-257.6034 660.4199,-257.2941 657.5667,-257 521.9068,-243.0143 130.1784,-266.1411 52.5667,-154 19.3393,-105.9898 107.9805,-85.4851 173.2096,-77.0469"/>
<polygon fill="#191970" stroke="#191970" points="173.9541,-80.482 183.4552,-75.7939 173.1043,-73.5338 173.9541,-80.482"/>
</g>
<!-- Node8 -->
<g id="node9" class="node">
<title>Node8</title>
<g id="a_node9"><a xlink:href="params_8h.html" target="_top" xlink:title="Functions to deal with sets of energy parameters. ">
<polygon fill="none" stroke="#000000" points="507.5667,-129 507.5667,-148 617.5667,-148 617.5667,-129 507.5667,-129"/>
<text text-anchor="middle" x="562.5667" y="-136" font-family="Helvetica,sans-Serif" font-size="10.00" fill="#000000">ViennaRNA/params.h</text>
</a>
</g>
</g>
<!-- Node3&#45;&gt;Node8 -->
<g id="edge32" class="edge">
<title>Node3&#45;&gt;Node8</title>
<path fill="none" stroke="#191970" d="M704.6175,-257.449C682.2678,-249.5112 653.7117,-236.9503 631.5667,-221 606.061,-202.6292 582.0648,-175.1327 569.7701,-157.0083"/>
<polygon fill="#191970" stroke="#191970" points="572.4468,-154.6825 564.2082,-148.0209 566.4944,-158.3662 572.4468,-154.6825"/>
</g>
<!-- Node9 -->
<g id="node10" class="node">
<title>Node9</title>
<g id="a_node10"><a xlink:href="dp__matrices_8h.html" target="_top" xlink:title="Functions to deal with standard dynamic programming (DP) matrices. ">
<polygon fill="none" stroke="#000000" points="674.0667,-129 674.0667,-148 805.0667,-148 805.0667,-129 674.0667,-129"/>
<text text-anchor="middle" x="739.5667" y="-136" font-family="Helvetica,sans-Serif" font-size="10.00" fill="#000000">ViennaRNA/dp_matrices.h</text>
</a>
</g>
</g>
<!-- Node3&#45;&gt;Node9 -->
<g id="edge33" class="edge">
<title>Node3&#45;&gt;Node9</title>
<path fill="none" stroke="#191970" d="M735.7933,-257.3416C732.3105,-236.4114 731.884,-186.504 734.5137,-158.4762"/>
<polygon fill="#191970" stroke="#191970" points="738.022,-158.6242 735.7747,-148.2705 731.0748,-157.7658 738.022,-158.6242"/>
</g>
<!-- Node10 -->
<g id="node11" class="node">
<title>Node10</title>
<g id="a_node11"><a xlink:href="constraints_8h.html" target="_top" xlink:title="Functions and data structures for constraining secondary structure predictions and evaluation...">
<polygon fill="none" stroke="#000000" points="899.5667,-129 899.5667,-148 1025.5667,-148 1025.5667,-129 899.5667,-129"/>
<text text-anchor="middle" x="962.5667" y="-136" font-family="Helvetica,sans-Serif" font-size="10.00" fill="#000000">ViennaRNA/constraints.h</text>
</a>
</g>
</g>
<!-- Node3&#45;&gt;Node10 -->
<g id="edge34" class="edge">
<title>Node3&#45;&gt;Node10</title>
<path fill="none" stroke="#191970" d="M783.7726,-257.4428C811.8618,-250.4624 848.0167,-239.0008 876.5667,-221 903.8732,-203.7832 927.9265,-174.5535 944.0022,-155.9062"/>
<polygon fill="#191970" stroke="#191970" points="946.8348,-157.9852 950.81,-148.1643 941.5781,-153.3627 946.8348,-157.9852"/>
</g>
<!-- Node16 -->
<g id="node17" class="node">
<title>Node16</title>
<g id="a_node17"><a xlink:href="grammar_8h.html" target="_top" xlink:title="Implementations for the RNA folding grammar. ">
<polygon fill="none" stroke="#000000" points="61.5667,-129 61.5667,-148 177.5667,-148 177.5667,-129 61.5667,-129"/>
<text text-anchor="middle" x="119.5667" y="-136" font-family="Helvetica,sans-Serif" font-size="10.00" fill="#000000">ViennaRNA/grammar.h</text>
</a>
</g>
</g>
<!-- Node3&#45;&gt;Node16 -->
<g id="edge35" class="edge">
<title>Node3&#45;&gt;Node16</title>
<path fill="none" stroke="#191970" d="M666.1525,-259.0601C660.1854,-258.3535 654.2655,-257.6574 648.5667,-257 501.5628,-240.0429 461.1694,-256.7203 317.5667,-221 251.6795,-204.611 178.8451,-171.9199 142.4538,-152.9809"/>
<polygon fill="#191970" stroke="#191970" points="143.6609,-149.6575 133.192,-148.0288 140.3602,-155.8305 143.6609,-149.6575"/>
</g>
<!-- Node17 -->
<g id="node18" class="node">
<title>Node17</title>
<g id="a_node18"><a xlink:href="structured__domains_8h.html" target="_top" xlink:title="This module provides interfaces that deal with additional structured domains in the folding grammar...">
<polygon fill="none" stroke="#000000" points="196.0667,-123.5 196.0667,-153.5 309.0667,-153.5 309.0667,-123.5 196.0667,-123.5"/>
<text text-anchor="start" x="204.0667" y="-141.5" font-family="Helvetica,sans-Serif" font-size="10.00" fill="#000000">ViennaRNA/structured</text>
<text text-anchor="middle" x="252.5667" y="-130.5" font-family="Helvetica,sans-Serif" font-size="10.00" fill="#000000">_domains.h</text>
</a>
</g>
</g>
<!-- Node3&#45;&gt;Node17 -->
<g id="edge36" class="edge">
<title>Node3&#45;&gt;Node17</title>
<path fill="none" stroke="#191970" d="M666.5431,-258.0025C569.1125,-245.8896 407.2884,-225.3495 394.5667,-221 352.2087,-206.518 308.3945,-178.7675 280.8434,-159.4713"/>
<polygon fill="#191970" stroke="#191970" points="282.6696,-156.4753 272.4921,-153.531 278.6121,-162.1794 282.6696,-156.4753"/>
</g>
<!-- Node18 -->
<g id="node19" class="node">
<title>Node18</title>
<g id="a_node19"><a xlink:href="unstructured__domains_8h.html" target="_top" xlink:title="Functions to modify unstructured domains, e.g. to incorporate ligands binding to unpaired stretches...">
<polygon fill="none" stroke="#000000" points="327.5667,-123.5 327.5667,-153.5 451.5667,-153.5 451.5667,-123.5 327.5667,-123.5"/>
<text text-anchor="start" x="335.5667" y="-141.5" font-family="Helvetica,sans-Serif" font-size="10.00" fill="#000000">ViennaRNA/unstructured</text>
<text text-anchor="middle" x="389.5667" y="-130.5" font-family="Helvetica,sans-Serif" font-size="10.00" fill="#000000">_domains.h</text>
</a>
</g>
</g>
<!-- Node3&#45;&gt;Node18 -->
<g id="edge37" class="edge">
<title>Node3&#45;&gt;Node18</title>
<path fill="none" stroke="#191970" d="M666.2993,-258.2666C570.2247,-246.0922 413.4484,-225.0517 408.5667,-221 391.7349,-207.0301 384.9845,-182.516 383.9193,-163.8288"/>
<polygon fill="#191970" stroke="#191970" points="387.4194,-163.622 383.9159,-153.6232 380.4194,-163.6244 387.4194,-163.622"/>
</g>
<!-- Node3&#45;&gt;Node19 -->
<g id="edge38" class="edge">
<title>Node3&#45;&gt;Node19</title>
<path fill="none" stroke="#191970" d="M812.6489,-258.1362C924.6907,-245.1543 1126.6291,-222.3523 1134.5667,-221 1138.7295,-220.2908 1143.0201,-219.4872 1147.3492,-218.628"/>
<polygon fill="#191970" stroke="#191970" points="1148.3903,-221.9871 1157.4781,-216.5408 1146.9775,-215.1311 1148.3903,-221.9871"/>
</g>
<!-- Node5 -->
<g id="node6" class="node">
<title>Node5</title>
<polygon fill="none" stroke="#bfbfbf" points="545.5667,-.5 545.5667,-19.5 593.5667,-19.5 593.5667,-.5 545.5667,-.5"/>
<text text-anchor="middle" x="569.5667" y="-7.5" font-family="Helvetica,sans-Serif" font-size="10.00" fill="#000000">limits.h</text>
</g>
<!-- Node4&#45;&gt;Node5 -->
<g id="edge5" class="edge">
<title>Node4&#45;&gt;Node5</title>
<path fill="none" stroke="#191970" d="M569.5667,-61.8906C569.5667,-53.3657 569.5667,-40.6392 569.5667,-29.9235"/>
<polygon fill="#191970" stroke="#191970" points="573.0668,-29.7448 569.5667,-19.7449 566.0668,-29.7449 573.0668,-29.7448"/>
</g>
<!-- Node6&#45;&gt;Node7 -->
<g id="edge7" class="edge">
<title>Node6&#45;&gt;Node7</title>
<path fill="none" stroke="#191970" d="M496.9832,-195.9172C493.5924,-178.5662 483.9471,-141.9876 460.5667,-123 435.917,-102.9816 355.5541,-88.0113 297.9071,-79.511"/>
<polygon fill="#191970" stroke="#191970" points="298.1836,-76.0147 287.7861,-78.0501 297.1835,-82.9429 298.1836,-76.0147"/>
</g>
<!-- Node6&#45;&gt;Node8 -->
<g id="edge8" class="edge">
<title>Node6&#45;&gt;Node8</title>
<path fill="none" stroke="#191970" d="M507.7363,-195.9005C517.8116,-185.353 534.1873,-168.2096 546.4236,-155.3998"/>
<polygon fill="#191970" stroke="#191970" points="549.0376,-157.7304 553.414,-148.0817 543.9758,-152.8952 549.0376,-157.7304"/>
</g>
<!-- Node6&#45;&gt;Node9 -->
<g id="edge12" class="edge">
<title>Node6&#45;&gt;Node9</title>
<path fill="none" stroke="#191970" d="M532.8402,-195.9717C575.4565,-184.124 648.2894,-163.8758 695.1481,-150.8487"/>
<polygon fill="#191970" stroke="#191970" points="696.3241,-154.1546 705.0212,-148.1039 694.4491,-147.4104 696.3241,-154.1546"/>
</g>
<!-- Node6&#45;&gt;Node10 -->
<g id="edge14" class="edge">
<title>Node6&#45;&gt;Node10</title>
<path fill="none" stroke="#191970" d="M564.5538,-195.9717C650.4399,-183.57 800.0695,-161.964 889.3628,-149.0704"/>
<polygon fill="#191970" stroke="#191970" points="890.0137,-152.5128 899.4108,-147.6195 889.0132,-145.5846 890.0137,-152.5128"/>
</g>
<!-- Node6&#45;&gt;Node16 -->
<g id="edge26" class="edge">
<title>Node6&#45;&gt;Node16</title>
<path fill="none" stroke="#191970" d="M433.5142,-195.9984C370.2476,-186.4665 271.5216,-170.8206 186.5667,-154 180.7895,-152.8561 174.751,-151.5776 168.7665,-150.2588"/>
<polygon fill="#191970" stroke="#191970" points="169.3259,-146.7972 158.8017,-148.0179 167.7901,-153.6267 169.3259,-146.7972"/>
</g>
<!-- Node6&#45;&gt;Node17 -->
<g id="edge28" class="edge">
<title>Node6&#45;&gt;Node17</title>
<path fill="none" stroke="#191970" d="M463.5821,-195.9717C425.687,-185.6507 364.3853,-168.9547 317.5951,-156.211"/>
<polygon fill="#191970" stroke="#191970" points="318.4128,-152.8063 307.8445,-153.5553 316.5733,-159.5603 318.4128,-152.8063"/>
</g>
<!-- Node6&#45;&gt;Node18 -->
<g id="edge29" class="edge">
<title>Node6&#45;&gt;Node18</title>
<path fill="none" stroke="#191970" d="M482.9496,-195.9005C467.2586,-186.2556 442.595,-171.0954 422.5543,-158.7768"/>
<polygon fill="#191970" stroke="#191970" points="424.3572,-155.7767 414.0051,-153.5218 420.6915,-161.7402 424.3572,-155.7767"/>
</g>
<!-- Node8&#45;&gt;Node3 -->
<g id="edge10" class="edge">
<title>Node8&#45;&gt;Node3</title>
<path fill="none" stroke="#191970" d="M574.9649,-148.0209C591.2291,-164.6359 619.3378,-199.2272 649.5667,-221 668.338,-234.5203 691.7159,-245.6054 710.0643,-253.5036"/>
<polygon fill="#191970" stroke="#191970" points="708.8398,-256.7857 719.4139,-257.449 711.5613,-250.3364 708.8398,-256.7857"/>
</g>
<!-- Node8&#45;&gt;Node4 -->
<g id="edge9" class="edge">
<title>Node8&#45;&gt;Node4</title>
<path fill="none" stroke="#191970" d="M563.5696,-128.9005C564.5884,-119.149 566.1963,-103.7597 567.4908,-91.3695"/>
<polygon fill="#191970" stroke="#191970" points="571.0075,-91.3912 568.5656,-81.0817 564.0453,-90.6638 571.0075,-91.3912"/>
</g>
<!-- Node8&#45;&gt;Node7 -->
<g id="edge11" class="edge">
<title>Node8&#45;&gt;Node7</title>
<path fill="none" stroke="#191970" d="M521.0064,-128.9949C511.9694,-126.9754 502.4545,-124.885 493.5667,-123 425.7068,-108.6074 347.5587,-93.166 295.2135,-82.9859"/>
<polygon fill="#191970" stroke="#191970" points="295.5831,-79.4924 285.0992,-81.0219 294.2487,-86.364 295.5831,-79.4924"/>
</g>
<!-- Node9&#45;&gt;Node3 -->
<g id="edge13" class="edge">
<title>Node9&#45;&gt;Node3</title>
<path fill="none" stroke="#191970" d="M743.3586,-148.2705C746.8305,-169.3037 747.2462,-219.2236 744.6056,-247.1733"/>
<polygon fill="#191970" stroke="#191970" points="741.102,-246.9859 743.3401,-257.3416 748.0484,-247.8505 741.102,-246.9859"/>
</g>
<!-- Node10&#45;&gt;Node3 -->
<g id="edge15" class="edge">
<title>Node10&#45;&gt;Node3</title>
<path fill="none" stroke="#191970" d="M961.4511,-148.1643C953.2179,-165.3185 926.0553,-201.1464 894.5667,-221 869.0279,-237.1022 837.4036,-247.972 809.3379,-255.0822"/>
<polygon fill="#191970" stroke="#191970" points="808.4723,-251.6906 799.575,-257.4428 810.1175,-258.4945 808.4723,-251.6906"/>
</g>
<!-- Node11 -->
<g id="node12" class="node">
<title>Node11</title>
<g id="a_node12"><a xlink:href="constraints__hard_8h.html" target="_top" xlink:title="Functions and data structures for handling of secondary structure hard constraints. ">
<polygon fill="none" stroke="#000000" points="669.5667,-56.5 669.5667,-86.5 787.5667,-86.5 787.5667,-56.5 669.5667,-56.5"/>
<text text-anchor="start" x="677.5667" y="-74.5" font-family="Helvetica,sans-Serif" font-size="10.00" fill="#000000">ViennaRNA/constraints</text>
<text text-anchor="middle" x="728.5667" y="-63.5" font-family="Helvetica,sans-Serif" font-size="10.00" fill="#000000">_hard.h</text>
</a>
</g>
</g>
<!-- Node10&#45;&gt;Node11 -->
<g id="edge16" class="edge">
<title>Node10&#45;&gt;Node11</title>
<path fill="none" stroke="#191970" d="M929.0402,-128.9005C893.089,-118.6068 835.1972,-102.031 790.8459,-89.3321"/>
<polygon fill="#191970" stroke="#191970" points="791.6079,-85.9097 781.0307,-86.5218 789.681,-92.6393 791.6079,-85.9097"/>
</g>
<!-- Node12 -->
<g id="node13" class="node">
<title>Node12</title>
<g id="a_node13"><a xlink:href="constraints__soft_8h.html" target="_top" xlink:title="Functions and data structures for secondary structure soft constraints. ">
<polygon fill="none" stroke="#000000" points="805.5667,-56.5 805.5667,-86.5 923.5667,-86.5 923.5667,-56.5 805.5667,-56.5"/>
<text text-anchor="start" x="813.5667" y="-74.5" font-family="Helvetica,sans-Serif" font-size="10.00" fill="#000000">ViennaRNA/constraints</text>
<text text-anchor="middle" x="864.5667" y="-63.5" font-family="Helvetica,sans-Serif" font-size="10.00" fill="#000000">_soft.h</text>
</a>
</g>
</g>
<!-- Node10&#45;&gt;Node12 -->
<g id="edge18" class="edge">
<title>Node10&#45;&gt;Node12</title>
<path fill="none" stroke="#191970" d="M948.5257,-128.9005C934.6079,-119.3853 912.8387,-104.5023 894.9547,-92.2755"/>
<polygon fill="#191970" stroke="#191970" points="896.7693,-89.2763 886.5388,-86.5218 892.8186,-95.0549 896.7693,-89.2763"/>
</g>
<!-- Node13 -->
<g id="node14" class="node">
<title>Node13</title>
<g id="a_node14"><a xlink:href="constraints__SHAPE_8h.html" target="_top" xlink:title="This module provides function to incorporate SHAPE reactivity data into the folding recursions by mea...">
<polygon fill="none" stroke="#000000" points="941.5667,-56.5 941.5667,-86.5 1059.5667,-86.5 1059.5667,-56.5 941.5667,-56.5"/>
<text text-anchor="start" x="949.5667" y="-74.5" font-family="Helvetica,sans-Serif" font-size="10.00" fill="#000000">ViennaRNA/constraints</text>
<text text-anchor="middle" x="1000.5667" y="-63.5" font-family="Helvetica,sans-Serif" font-size="10.00" fill="#000000">_SHAPE.h</text>
</a>
</g>
</g>
<!-- Node10&#45;&gt;Node13 -->
<g id="edge20" class="edge">
<title>Node10&#45;&gt;Node13</title>
<path fill="none" stroke="#191970" d="M968.0111,-128.9005C972.9663,-120.1638 980.4881,-106.9018 987.0537,-95.3256"/>
<polygon fill="#191970" stroke="#191970" points="990.1579,-96.9468 992.0469,-86.5218 984.069,-93.4934 990.1579,-96.9468"/>
</g>
<!-- Node14 -->
<g id="node15" class="node">
<title>Node14</title>
<g id="a_node15"><a xlink:href="perturbation__fold_8h.html" target="_top" xlink:title="Find a vector of perturbation energies that minimizes the discripancies between predicted and observe...">
<polygon fill="none" stroke="#000000" points="1078.0667,-56.5 1078.0667,-86.5 1199.0667,-86.5 1199.0667,-56.5 1078.0667,-56.5"/>
<text text-anchor="start" x="1086.0667" y="-74.5" font-family="Helvetica,sans-Serif" font-size="10.00" fill="#000000">ViennaRNA/perturbation</text>
<text text-anchor="middle" x="1138.5667" y="-63.5" font-family="Helvetica,sans-Serif" font-size="10.00" fill="#000000">_fold.h</text>
</a>
</g>
</g>
<!-- Node10&#45;&gt;Node14 -->
<g id="edge22" class="edge">
<title>Node10&#45;&gt;Node14</title>
<path fill="none" stroke="#191970" d="M987.7832,-128.9005C1014.2553,-118.8231 1056.5437,-102.7247 1089.6085,-90.1375"/>
<polygon fill="#191970" stroke="#191970" points="1091.006,-93.3506 1099.1065,-86.5218 1088.5156,-86.8086 1091.006,-93.3506"/>
</g>
<!-- Node15 -->
<g id="node16" class="node">
<title>Node15</title>
<g id="a_node16"><a xlink:href="constraints__ligand_8h.html" target="_top" xlink:title="Functions for incorporation of ligands binding to hairpin and interior loop motifs using the soft con...">
<polygon fill="none" stroke="#000000" points="1217.5667,-56.5 1217.5667,-86.5 1335.5667,-86.5 1335.5667,-56.5 1217.5667,-56.5"/>
<text text-anchor="start" x="1225.5667" y="-74.5" font-family="Helvetica,sans-Serif" font-size="10.00" fill="#000000">ViennaRNA/constraints</text>
<text text-anchor="middle" x="1276.5667" y="-63.5" font-family="Helvetica,sans-Serif" font-size="10.00" fill="#000000">_ligand.h</text>
</a>
</g>
</g>
<!-- Node10&#45;&gt;Node15 -->
<g id="edge24" class="edge">
<title>Node10&#45;&gt;Node15</title>
<path fill="none" stroke="#191970" d="M1009.3216,-128.9691C1056.7193,-119.2495 1132.4407,-103.5647 1207.1835,-87.2837"/>
<polygon fill="#191970" stroke="#191970" points="1208.2191,-90.6401 1217.2424,-85.0876 1206.7259,-83.8012 1208.2191,-90.6401"/>
</g>
<!-- Node11&#45;&gt;Node3 -->
<g id="edge17" class="edge">
<title>Node11&#45;&gt;Node3</title>
<path fill="none" stroke="#191970" d="M771.8186,-86.6168C788.2342,-94.7109 805.2135,-106.497 814.5667,-123 840.356,-168.5034 789.3573,-223.696 759.3371,-250.6259"/>
<polygon fill="#191970" stroke="#191970" points="756.7528,-248.2352 751.5075,-257.4405 761.3484,-253.5154 756.7528,-248.2352"/>
</g>
<!-- Node12&#45;&gt;Node3 -->
<g id="edge19" class="edge">
<title>Node12&#45;&gt;Node3</title>
<path fill="none" stroke="#191970" d="M862.6651,-86.6626C858.3656,-115.5935 845.5691,-179.4823 812.5667,-221 801.8616,-234.4671 786.0701,-245.1088 771.9102,-252.7498"/>
<polygon fill="#191970" stroke="#191970" points="770.2304,-249.6775 762.9106,-257.3373 773.4094,-255.9141 770.2304,-249.6775"/>
</g>
<!-- Node13&#45;&gt;Node3 -->
<g id="edge21" class="edge">
<title>Node13&#45;&gt;Node3</title>
<path fill="none" stroke="#191970" d="M1014.8722,-86.5979C1029.0949,-103.529 1047.1168,-131.5543 1034.5667,-154 1006.8153,-203.6331 978.0131,-199.0239 925.5667,-221 887.8482,-236.8048 843.4603,-248.0384 807.5079,-255.4463"/>
<polygon fill="#191970" stroke="#191970" points="806.719,-252.0347 797.6037,-257.4349 808.097,-258.8978 806.719,-252.0347"/>
</g>
<!-- Node14&#45;&gt;Node3 -->
<g id="edge23" class="edge">
<title>Node14&#45;&gt;Node3</title>
<path fill="none" stroke="#191970" d="M1127.1828,-86.7434C1103.2379,-117.5965 1044.3315,-187.3587 977.5667,-221 950.6659,-234.5547 879.4276,-247.3342 821.8507,-255.9669"/>
<polygon fill="#191970" stroke="#191970" points="821.0206,-252.5515 811.64,-257.4763 822.0443,-259.4762 821.0206,-252.5515"/>
</g>
<!-- Node15&#45;&gt;Node3 -->
<g id="edge25" class="edge">
<title>Node15&#45;&gt;Node3</title>
<path fill="none" stroke="#191970" d="M1256.0718,-86.6122C1213.4727,-117.2233 1111.2631,-186.5626 1014.5667,-221 952.4271,-243.1303 878.5221,-254.7345 822.9839,-260.7482"/>
<polygon fill="#191970" stroke="#191970" points="822.4171,-257.2882 812.8344,-261.8073 823.1437,-264.2504 822.4171,-257.2882"/>
</g>
<!-- Node16&#45;&gt;Node3 -->
<g id="edge27" class="edge">
<title>Node16&#45;&gt;Node3</title>
<path fill="none" stroke="#191970" d="M143.5982,-148.0288C183.0883,-165.6288 263.485,-203.0701 335.5667,-221 475.9439,-255.918 517.6962,-240.7657 660.8478,-256.3742"/>
<polygon fill="#191970" stroke="#191970" points="660.5505,-259.8627 670.8785,-257.4998 661.3312,-252.9064 660.5505,-259.8627"/>
</g>
<!-- Node18&#45;&gt;Node3 -->
<g id="edge30" class="edge">
<title>Node18&#45;&gt;Node3</title>
<path fill="none" stroke="#191970" d="M396.3608,-153.6232C400.7232,-172.4874 406.4315,-204.2884 426.5667,-221 431.1739,-224.8238 571.0706,-243.7792 662.3133,-256.133"/>
<polygon fill="#191970" stroke="#191970" points="661.9806,-259.6198 672.3599,-257.4933 662.9199,-252.6831 661.9806,-259.6198"/>
</g>
<!-- Node19&#45;&gt;Node1 -->
<g id="edge39" class="edge">
<title>Node19&#45;&gt;Node1</title>
<path fill="none" stroke="#191970" d="M1220.8702,-190.2967C1226.9481,-180.3645 1234.9201,-167.3371 1241.3485,-156.8321"/>
<polygon fill="#191970" stroke="#191970" points="1244.4853,-158.4115 1246.7196,-148.055 1238.5145,-154.7578 1244.4853,-158.4115"/>
</g>
<!-- Node19&#45;&gt;Node3 -->
<g id="edge40" class="edge">
<title>Node19&#45;&gt;Node3</title>
<path fill="none" stroke="#191970" d="M1157.2682,-220.1696C1155.6879,-220.4582 1154.1184,-220.7356 1152.5667,-221 1144.6004,-222.3572 941.224,-245.3199 822.8413,-258.277"/>
<polygon fill="#191970" stroke="#191970" points="822.2744,-254.818 812.7138,-259.3836 823.0349,-261.7766 822.2744,-254.818"/>
</g>
<!-- Node20&#45;&gt;Node2 -->
<g id="edge42" class="edge">
<title>Node20&#45;&gt;Node2</title>
<path fill="none" stroke="#191970" d="M697.7157,-313.2455C683.7535,-304.6534 663.1939,-292.0014 647.1071,-282.1018"/>
<polygon fill="#191970" stroke="#191970" points="648.587,-278.9029 638.236,-276.6427 644.9183,-284.8645 648.587,-278.9029"/>
</g>
<!-- Node20&#45;&gt;Node3 -->
<g id="edge43" class="edge">
<title>Node20&#45;&gt;Node3</title>
<path fill="none" stroke="#191970" d="M718.0955,-313.2455C721.6001,-305.6973 726.5594,-295.0158 730.8289,-285.8197"/>
<polygon fill="#191970" stroke="#191970" points="734.0531,-287.1867 735.0897,-276.6427 727.704,-284.2389 734.0531,-287.1867"/>
</g>
<!-- Node22&#45;&gt;Node7 -->
<g id="edge47" class="edge">
<title>Node22&#45;&gt;Node7</title>
<path fill="none" stroke="#191970" d="M103.0505,-257.442C70.953,-248.7844 29.4424,-235.2371 19.5667,-221 -5.2583,-185.2116 -7.425,-157.1838 19.5667,-123 38.4698,-99.06 116.5405,-85.0383 173.4057,-77.8206"/>
<polygon fill="#191970" stroke="#191970" points="173.9028,-81.286 183.4018,-76.5934 173.0498,-74.3381 173.9028,-81.286"/>
</g>
</g>
</svg>
